<svg xmlns="http://www.w3.org/2000/svg" width="24" height="24" viewBox="0 0 24 24">
  <path fill="#758CA3" fill-rule="evenodd" d="M5.17070571,22 L3,22 C1.34314575,22 3.33066907e-16,20.6568542 0,19 L0,12 C-4.99600361e-16,10.3431458 1.34314575,9 3,9 L5,9 L5,1 C5,0.44771525 5.44771525,1.01453063e-16 6,0 L18,0 C18.5522847,-1.01453063e-16 19,0.44771525 19,1 L19,9 L21,9 C22.6568542,9 24,10.3431458 24,12 L24,19 C24,20.6568542 22.6568542,22 21,22 L18.8292943,22 C18.4174579,23.1651924 17.3062188,24 16,24 L8,24 C6.69378117,24 5.58254212,23.1651924 5.17070571,22 Z M5.17070571,20 C5.58254212,18.8348076 6.69378117,18 8,18 L16,18 C17.3062188,18 18.4174579,18.8348076 18.8292943,20 L21,20 C21.5522847,20 22,19.5522847 22,19 L22,12 C22,11.4477153 21.5522847,11 21,11 L3,11 C2.44771525,11 2,11.4477153 2,12 L2,19 C2,19.5522847 2.44771525,20 3,20 L5.17070571,20 Z M7,2 L7,9 L17,9 L17,2 L7,2 Z M8,20 C7.44771525,20 7,20.4477153 7,21 C7,21.5522847 7.44771525,22 8,22 L16,22 C16.5522847,22 17,21.5522847 17,21 C17,20.4477153 16.5522847,20 16,20 L8,20 Z M5,13 C5.55228475,13 6,13.4477153 6,14 C6,14.5522847 5.55228475,15 5,15 C4.44771525,15 4,14.5522847 4,14 C4,13.4477153 4.44771525,13 5,13 Z"/>
</svg>
