<svg xmlns="http://www.w3.org/2000/svg" width="24" height="24" viewBox="0 0 24 24">
  <path fill="#758CA3" fill-rule="evenodd" d="M3.41421356,9 L5.70710678,11.2928932 C6.09763107,11.6834175 6.09763107,12.3165825 5.70710678,12.7071068 C5.31658249,13.0976311 4.68341751,13.0976311 4.29289322,12.7071068 L0.292893219,8.70710678 C-0.0976310729,8.31658249 -0.0976310729,7.68341751 0.292893219,7.29289322 L4.29289322,3.29289322 C4.68341751,2.90236893 5.31658249,2.90236893 5.70710678,3.29289322 C6.09763107,3.68341751 6.09763107,4.31658249 5.70710678,4.70710678 L3.41421356,7 L14,7 C19.5228475,7 24,11.4771525 24,17 L24,19.0312195 C24,19.5835043 23.5522847,20.0312195 23,20.0312195 C22.4477153,20.0312195 22,19.5835043 22,19.0312195 L22,17 C22,12.581722 18.418278,9 14,9 L3.41421356,9 Z"/>
</svg>
