<svg xmlns="http://www.w3.org/2000/svg" width="24" height="24" viewBox="0 0 24 24">
  <path fill="#758CA3" fill-rule="evenodd" d="M6.58578644,12 L2,7.41421356 C1.21895142,6.63316498 1.21895142,5.36683502 2,4.58578644 L4.58578644,2 C5.36683502,1.21895142 6.63316498,1.21895142 7.41421356,2 L12,6.58578644 L16.5857864,2 C17.366835,1.21895142 18.633165,1.21895142 19.4142136,2 L22,4.58578644 C22.7810486,5.36683502 22.7810486,6.63316498 22,7.41421356 L17.4142136,12 L22,16.5857864 C22.7810486,17.366835 22.7810486,18.633165 22,19.4142136 L19.4142136,22 C18.633165,22.7810486 17.366835,22.7810486 16.5857864,22 L12,17.4142136 L7.41421356,22 C6.63316498,22.7810486 5.36683502,22.7810486 4.58578644,22 L2,19.4142136 C1.21895142,18.633165 1.21895142,17.366835 2,16.5857864 L6.58578644,12 Z M3.41421356,18 L6,20.5857864 L12,14.5857864 L18,20.5857864 L20.5857864,18 L14.5857864,12 L20.5857864,6 L18,3.41421356 L12,9.41421356 L6,3.41421356 L3.41421356,6 L9.41421356,12 L3.41421356,18 Z"/>
</svg>
