<svg xmlns="http://www.w3.org/2000/svg" width="16" height="16" viewBox="0 0 16 16">
  <path fill="#758CA3" fill-rule="evenodd" d="M9.5566298,11.8965864 L9.34887469,12.7276069 C9.01499944,14.0631079 7.81505011,15 6.43844719,15 L6,15 C5.79056281,15 5.5819161,14.9743144 5.37873219,14.9235184 C4.00626523,14.5804017 3.17181201,13.1896463 3.51492875,11.8171794 L3.71922359,11 L3,11 C1.34314575,11 5.86197757e-14,9.65685425 5.86197757e-14,8 L6.03961325e-14,6 C6.03961325e-14,3.23857625 2.23857625,1 5,1 L10,1 L14,1 C14.5522847,1 15,1.44771525 15,2 L15,11 C15,11.5522847 14.5522847,12 14,12 L10,12 C9.84077779,12 9.69024692,11.962788 9.5566298,11.8965864 Z M9,9 L9,3 L5,3 C3.34314575,3 2,4.34314575 2,6 L2,8 C2,8.55228475 2.44771525,9 3,9 L5,9 C5.65057115,9 6.12792918,9.6113889 5.9701425,10.2425356 L5.45521375,12.3022506 C5.37999447,12.6031278 5.5629263,12.9080142 5.86380344,12.9832334 C5.90834615,12.9943691 5.95408643,13 6,13 L6.43844719,13 C6.89731483,13 7.29729794,12.6877026 7.40858969,12.2425356 L8.0298575,9.75746437 C8.14114925,9.31229737 8.54113236,9 9,9 Z M11,10 L13,10 L13,3 L11,3 L11,10 Z" transform="rotate(-180 7.5 8)"/>
</svg>
