<svg xmlns="http://www.w3.org/2000/svg" width="16" height="16" viewBox="0 0 16 16">
  <path fill="#758CA3" fill-rule="evenodd" d="M10.2928932,3.79289322 C10.6834175,3.40236893 11.3165825,3.40236893 11.7071068,3.79289322 C12.0976311,4.18341751 12.0976311,4.81658249 11.7071068,5.20710678 L8.70710678,8.20710678 C8.31658249,8.59763107 7.68341751,8.59763107 7.29289322,8.20710678 L4.29289322,5.20710678 C3.90236893,4.81658249 3.90236893,4.18341751 4.29289322,3.79289322 C4.68341751,3.40236893 5.31658249,3.40236893 5.70710678,3.79289322 L8,6.08578644 L10.2928932,3.79289322 Z M10.2928932,7.79289322 C10.6834175,7.40236893 11.3165825,7.40236893 11.7071068,7.79289322 C12.0976311,8.18341751 12.0976311,8.81658249 11.7071068,9.20710678 L8.70710678,12.2071068 C8.31658249,12.5976311 7.68341751,12.5976311 7.29289322,12.2071068 L4.29289322,9.20710678 C3.90236893,8.81658249 3.90236893,8.18341751 4.29289322,7.79289322 C4.68341751,7.40236893 5.31658249,7.40236893 5.70710678,7.79289322 L8,10.0857864 L10.2928932,7.79289322 Z" transform="rotate(-90 8 8)"/>
</svg>
