<svg xmlns="http://www.w3.org/2000/svg" width="24" height="24" viewBox="0 0 24 24">
  <path fill="#758CA3" fill-rule="evenodd" d="M11.1274179,13.2867957 L5.70710678,18.7071068 C5.31658249,19.0976311 4.68341751,19.0976311 4.29289322,18.7071068 C3.90236893,18.3165825 3.90236893,17.6834175 4.29289322,17.2928932 L10.2928932,11.2928932 C10.6299576,10.9558288 11.1580776,10.9035347 11.5547002,11.1679497 L13.8725821,12.7132043 L20.2928932,6.29289322 C20.6834175,5.90236893 21.3165825,5.90236893 21.7071068,6.29289322 C22.0976311,6.68341751 22.0976311,7.31658249 21.7071068,7.70710678 L14.7071068,14.7071068 C14.3700424,15.0441712 13.8419224,15.0964653 13.4452998,14.8320503 L11.1274179,13.2867957 Z M-4.4408921e-16,1 C-4.4408921e-16,0.44771525 0.44771525,-8.8817842e-16 1,-8.8817842e-16 C1.55228475,-8.8817842e-16 2,0.44771525 2,1 L2,21 C2,21.5522847 2.44771525,22 3,22 L23,22 C23.5522847,22 24,22.4477153 24,23 C24,23.5522847 23.5522847,24 23,24 L3,24 C1.34314575,24 -1.11022302e-16,22.6568542 -4.4408921e-16,21 L-4.4408921e-16,1 Z"/>
</svg>
