<svg xmlns="http://www.w3.org/2000/svg" width="24" height="24" viewBox="0 0 24 24">
  <path fill="#758CA3" fill-rule="evenodd" d="M14.656278,1.45313627 L8.15094667,17.4996202 L14.656278,13.5964214 L21.1616094,17.4996202 L14.656278,1.45313627 Z M24.1389838,19.5204866 C24.34648,20.0323106 24.0997736,20.6154348 23.5879497,20.822931 C23.296812,20.9409598 22.9671325,20.9153149 22.6977488,20.7536847 L14.656278,15.9288022 L6.61480724,20.7536847 C6.14122697,21.0378328 5.52696671,20.8842678 5.24281856,20.4106875 C5.08118832,20.1413038 5.05554343,19.8116243 5.17357221,19.5204866 L13.7295387,-1.58423081 C13.9370349,-2.09605478 14.5201592,-2.34276118 15.0319831,-2.13526497 C15.2826171,-2.03365662 15.4814089,-1.83486474 15.5830173,-1.58423081 L24.1389838,19.5204866 Z" transform="scale(-1 1) rotate(-45 0 44.727)"/>
</svg>
