<svg xmlns="http://www.w3.org/2000/svg" width="24" height="24" viewBox="0 0 24 24">
  <path fill="#758CA3" fill-rule="evenodd" d="M9,6 L9,18 L15,18 L15,6 L9,6 Z M9,4 L15,4 C16.1045695,4 17,4.8954305 17,6 L17,18 C17,19.1045695 16.1045695,20 15,20 L9,20 C7.8954305,20 7,19.1045695 7,18 L7,6 C7,4.8954305 7.8954305,4 9,4 Z M0,8 L0,6 L3,6 C4.1045695,6 5,6.8954305 5,8 L5,16 C5,17.1045695 4.1045695,18 3,18 L0,18 L8.8817842e-16,16 L3,16 L3,8 L0,8 Z M24,8 L21,8 L21,16 L24,16 L24,18 L21,18 C19.8954305,18 19,17.1045695 19,16 L19,8 C19,6.8954305 19.8954305,6 21,6 L24,6 L24,8 Z"/>
</svg>
