<svg xmlns="http://www.w3.org/2000/svg" width="16" height="16" viewBox="0 0 16 16">
  <path fill="#758CA3" fill-rule="evenodd" d="M5.70710678,11.2928932 C6.09763107,11.6834175 6.09763107,12.3165825 5.70710678,12.7071068 C5.31658249,13.0976311 4.68341751,13.0976311 4.29289322,12.7071068 L0.292893219,8.70710678 C-0.0976310729,8.31658249 -0.0976310729,7.68341751 0.292893219,7.29289322 L4.29289322,3.29289322 C4.68341751,2.90236893 5.31658249,2.90236893 5.70710678,3.29289322 C6.09763107,3.68341751 6.09763107,4.31658249 5.70710678,4.70710678 L2.41421356,8 L5.70710678,11.2928932 Z M10.2928932,11.2928932 L13.5857864,8 L10.2928932,4.70710678 C9.90236893,4.31658249 9.90236893,3.68341751 10.2928932,3.29289322 C10.6834175,2.90236893 11.3165825,2.90236893 11.7071068,3.29289322 L15.7071068,7.29289322 C16.0976311,7.68341751 16.0976311,8.31658249 15.7071068,8.70710678 L11.7071068,12.7071068 C11.3165825,13.0976311 10.6834175,13.0976311 10.2928932,12.7071068 C9.90236893,12.3165825 9.90236893,11.6834175 10.2928932,11.2928932 Z"/>
</svg>
