<svg xmlns="http://www.w3.org/2000/svg" width="24" height="24" viewBox="0 0 24 24">
  <path fill="#758CA3" fill-rule="evenodd" d="M13,3.41421356 L13,17 C13,17.5522847 12.5522847,18 12,18 C11.4477153,18 11,17.5522847 11,17 L11,3.41421356 L6.70710678,7.70710678 C6.31658249,8.09763107 5.68341751,8.09763107 5.29289322,7.70710678 C4.90236893,7.31658249 4.90236893,6.68341751 5.29289322,6.29289322 L11.2928932,0.292893219 C11.6834175,-0.0976310729 12.3165825,-0.0976310729 12.7071068,0.292893219 L18.7071068,6.29289322 C19.0976311,6.68341751 19.0976311,7.31658249 18.7071068,7.70710678 C18.3165825,8.09763107 17.6834175,8.09763107 17.2928932,7.70710678 L13,3.41421356 Z M2,22.0415946 L22,22.0415946 L22,17 C22,16.4477153 22.4477153,16 23,16 C23.5522847,16 24,16.4477153 24,17 L24,23.0415946 C24,23.5938793 23.5522847,24.0415946 23,24.0415946 L1,24.0415946 C0.44771525,24.0415946 0,23.5938793 0,23.0415946 L0,17.0621778 C0,16.5098931 0.44771525,16.0621778 1,16.0621778 C1.55228475,16.0621778 2,16.5098931 2,17.0621778 L2,22.0415946 Z"/>
</svg>
