<svg xmlns="http://www.w3.org/2000/svg" width="52" height="14" viewBox="0 0 52 14">
    <path fill="#758CA3"
          fill-rule="evenodd"
          transform="translate(-853.000000, -465.000000)"
          d="M887.913793,473 L854,473 C853.447715,473 853,472.552285 853,472 C853,471.447715 853.447715,471 854,471 L891.448276,471 L901.938981,471 L898.09018,466.707107 C897.740055,466.316582 897.740055,465.683418 898.09018,465.292893 C898.440305,464.902369 899.007971,464.902369 899.358096,465.292893 L904.737406,471.292893 C905.087531,471.683418 905.087531,472.316582 904.737406,472.707107 L899.358096,478.707107 C899.007971,479.097631 898.440305,479.097631 898.09018,478.707107 C897.740055,478.316582 897.740055,477.683418 898.09018,477.292893 L901.938981,473 L887.913793,473 Z"/>
</svg>
