<?xml version="1.0" encoding="UTF-8"?>
<svg width="24px" height="24px" viewBox="0 0 24 24" version="1.1" xmlns="http://www.w3.org/2000/svg" xmlns:xlink="http://www.w3.org/1999/xlink">
    <!-- Generator: Sketch 55.2 (78181) - https://sketchapp.com -->
    <title>icons/default/arrow/360/full</title>
    <desc>Created with Sketch.</desc>
    <g id="icons/default/arrow/360/full" stroke="none" stroke-width="1" fill="none" fill-rule="evenodd">
        <path d="M12.427025,5.01281147 L13.7071068,6.29289322 C14.0976311,6.68341751 14.0976311,7.31658249 13.7071068,7.70710678 C13.3165825,8.09763107 12.6834175,8.09763107 12.2928932,7.70710678 L9.29289322,4.70710678 C8.90236893,4.31658249 8.90236893,3.68341751 9.29289322,3.29289322 L12.2928932,0.292893219 C12.6834175,-0.0976310729 13.3165825,-0.0976310729 13.7071068,0.292893219 C14.0976311,0.683417511 14.0976311,1.31658249 13.7071068,1.70710678 L12.4052525,3.0089611 C17.1877425,3.22089037 21,7.16524497 21,12 C21,14.3980898 20.0565004,16.6496309 18.4052619,18.3223919 C18.0172744,18.7154365 17.3841226,18.7195361 16.991078,18.3315485 C16.5980333,17.943561 16.5939338,17.3104093 16.9819213,16.9173646 C18.2673195,15.6152124 19,13.866764 19,12 C19,8.27739625 16.0941622,5.23348728 12.427025,5.01281147 Z M11.5947475,20.9910389 C6.81225747,20.7791096 3,16.834755 3,12 C3,9.59705642 3.94734018,7.34134665 5.60450652,5.66772756 C5.99309704,5.27527902 6.62625429,5.27215148 7.01870283,5.660742 C7.41115137,6.04933252 7.41427891,6.68248977 7.02568839,7.07493831 C5.73566736,8.37776698 5,10.129463 5,12 C5,15.7226038 7.90583778,18.7665127 11.572975,18.9871885 L10.2928932,17.7071068 C9.90236893,17.3165825 9.90236893,16.6834175 10.2928932,16.2928932 C10.6834175,15.9023689 11.3165825,15.9023689 11.7071068,16.2928932 L14.7071068,19.2928932 C15.0976311,19.6834175 15.0976311,20.3165825 14.7071068,20.7071068 L11.7071068,23.7071068 C11.3165825,24.0976311 10.6834175,24.0976311 10.2928932,23.7071068 C9.90236893,23.3165825 9.90236893,22.6834175 10.2928932,22.2928932 L11.5947475,20.9910389 L11.5947475,20.9910389 Z" id="Shape" fill="#758CA3"></path>
    </g>
</svg>