<svg xmlns="http://www.w3.org/2000/svg" width="16" height="16" viewBox="0 0 16 16">
  <path fill="#758CA3" fill-rule="evenodd" d="M7,7 L7,4.83333333 C7,4.37309604 7.44771525,4 8,4 C8.55228475,4 9,4.37309604 9,4.83333333 L9,7 L11.1666667,7 C11.626904,7 12,7.44771525 12,8 C12,8.55228475 11.626904,9 11.1666667,9 L9,9 L9,11.1666667 C9,11.626904 8.55228475,12 8,12 C7.44771525,12 7,11.626904 7,11.1666667 L7,9 L4.83333333,9 C4.37309604,9 4,8.55228475 4,8 C4,7.44771525 4.37309604,7 4.83333333,7 L7,7 Z"/>
</svg>
