<svg xmlns="http://www.w3.org/2000/svg" width="24" height="24" viewBox="0 0 24 24">
  <path fill="#758CA3" fill-rule="evenodd" d="M18,14 L18,13 C18,12.4477153 18.4477153,12 19,12 C19.5522847,12 20,12.4477153 20,13 L20,14 L21,14 C21.5522847,14 22,13.5522847 22,13 L22,11 C22,10.4477153 21.5522847,10 21,10 L11.5839563,10 C10.8123997,8.23409522 9.05031904,7 7,7 C4.23857625,7 2,9.23857625 2,12 C2,14.7614237 4.23857625,17 7,17 C9.05031904,17 10.8123997,15.7659048 11.5839563,14 L14,14 L14,13 C14,12.4477153 14.4477153,12 15,12 C15.5522847,12 16,12.4477153 16,13 L16,14 L18,14 Z M21,8 C22.6568542,8 24,9.34314575 24,11 L24,13 C24,14.6568542 22.6568542,16 21,16 L12.7457444,16 C11.4611009,17.8444497 9.33628326,19 7,19 C3.13400675,19 6.21724894e-16,15.8659932 0,12 C-6.21724894e-16,8.13400675 3.13400675,5 7,5 C9.33628326,5 11.4611009,6.15555031 12.7457444,8 L21,8 Z M5,13 C4.44771525,13 4,12.5522847 4,12 C4,11.4477153 4.44771525,11 5,11 C5.55228475,11 6,11.4477153 6,12 C6,12.5522847 5.55228475,13 5,13 Z"/>
</svg>
