<svg xmlns="http://www.w3.org/2000/svg" width="24" height="24" viewBox="0 0 24 24">
  <path fill="#758CA3" fill-rule="evenodd" d="M10,18 L8,18 C6.34314575,18 5,16.6568542 5,15 L5,13 L3,13 C1.34314575,13 0,11.6568542 0,10 L0,3 C0,1.34314575 1.34314575,-8.8817842e-16 3,0 L10,0 C11.6568542,0 13,1.34314575 13,3 L13,5 L15,5 C16.6568542,5 18,6.34314575 18,8 L18,10 L20,10 C21.6568542,10 23,11.3431458 23,13 L23,20 C23,21.6568542 21.6568542,23 20,23 L13,23 C11.3431458,23 10,21.6568542 10,20 L10,18 Z M10,16 L10,13 C10,11.3431458 11.3431458,10 13,10 L16,10 L16,8 C16,7.44771525 15.5522847,7 15,7 L8,7 C7.44771525,7 7,7.44771525 7,8 L7,15 C7,15.5522847 7.44771525,16 8,16 L10,16 Z M5,11 L5,8 C5,6.34314575 6.34314575,5 8,5 L11,5 L11,3 C11,2.44771525 10.5522847,2 10,2 L3,2 C2.44771525,2 2,2.44771525 2,3 L2,10 C2,10.5522847 2.44771525,11 3,11 L5,11 Z M13,12 C12.4477153,12 12,12.4477153 12,13 L12,20 C12,20.5522847 12.4477153,21 13,21 L20,21 C20.5522847,21 21,20.5522847 21,20 L21,13 C21,12.4477153 20.5522847,12 20,12 L13,12 Z"/>
</svg>
