<svg xmlns="http://www.w3.org/2000/svg" width="16" height="16" viewBox="0 0 16 16">
  <path fill="#758CA3" fill-rule="evenodd" d="M10.5857864,5 L8.5,5 C6.01471863,5 4,7.01471863 4,9.5 C4,11.9852814 6.01471863,14 8.5,14 C10.9852814,14 13,11.9852814 13,9.5 C13,8.94771525 13.4477153,8.5 14,8.5 C14.5522847,8.5 15,8.94771525 15,9.5 C15,13.0898509 12.0898509,16 8.5,16 C4.91014913,16 2,13.0898509 2,9.5 C2,5.91014913 4.91014913,3 8.5,3 L10.5857864,3 L9.29289322,1.70710678 C8.90236893,1.31658249 8.90236893,0.683417511 9.29289322,0.292893219 C9.68341751,-0.0976310729 10.3165825,-0.0976310729 10.7071068,0.292893219 L13.7071068,3.29289322 C14.0976311,3.68341751 14.0976311,4.31658249 13.7071068,4.70710678 L10.7071068,7.70710678 C10.3165825,8.09763107 9.68341751,8.09763107 9.29289322,7.70710678 C8.90236893,7.31658249 8.90236893,6.68341751 9.29289322,6.29289322 L10.5857864,5 Z" transform="matrix(-1 0 0 1 17 0)"/>
</svg>
