<svg xmlns="http://www.w3.org/2000/svg" width="12" height="12" viewBox="0 0 12 12">
  <path fill="#758CA3" fill-rule="evenodd" d="M9.5,1.08578644 L10.2928932,0.292893219 C10.6834175,-0.0976310729 11.3165825,-0.0976310729 11.7071068,0.292893219 C12.0976311,0.683417511 12.0976311,1.31658249 11.7071068,1.70710678 L10.9142136,2.5 L11.7071068,3.29289322 C12.0976311,3.68341751 12.0976311,4.31658249 11.7071068,4.70710678 C11.3165825,5.09763107 10.6834175,5.09763107 10.2928932,4.70710678 L9.5,3.91421356 L8.70710678,4.70710678 C8.31658249,5.09763107 7.68341751,5.09763107 7.29289322,4.70710678 C6.90236893,4.31658249 6.90236893,3.68341751 7.29289322,3.29289322 L8.08578644,2.5 L7.29289322,1.70710678 C6.90236893,1.31658249 6.90236893,0.683417511 7.29289322,0.292893219 C7.68341751,-0.0976310729 8.31658249,-0.0976310729 8.70710678,0.292893219 L9.5,1.08578644 L9.5,1.08578644 Z M0,1 C0,0.44771525 0.44771525,-4.4408921e-16 1,-4.4408921e-16 L5,-4.4408921e-16 C5.55228475,-4.4408921e-16 6,0.44771525 6,1 L6,11 C6,11.5522847 5.55228475,12 5,12 L1,12 C0.44771525,12 0,11.5522847 0,11 L0,1 Z M2,2 L2,10 L4,10 L4,2 L2,2 Z"/>
</svg>
