<svg xmlns="http://www.w3.org/2000/svg" width="16" height="16" viewBox="0 0 16 16">
  <path fill="#758CA3" fill-rule="evenodd" d="M3.5,9.5 C2.67157288,9.5 2,8.82842712 2,8 C2,7.17157288 2.67157288,6.5 3.5,6.5 C4.32842712,6.5 5,7.17157288 5,8 C5,8.82842712 4.32842712,9.5 3.5,9.5 Z M8,9.5 C7.17157288,9.5 6.5,8.82842712 6.5,8 C6.5,7.17157288 7.17157288,6.5 8,6.5 C8.82842712,6.5 9.5,7.17157288 9.5,8 C9.5,8.82842712 8.82842712,9.5 8,9.5 Z M12.5,9.5 C11.6715729,9.5 11,8.82842712 11,8 C11,7.17157288 11.6715729,6.5 12.5,6.5 C13.3284271,6.5 14,7.17157288 14,8 C14,8.82842712 13.3284271,9.5 12.5,9.5 Z"/>
</svg>
