<svg xmlns="http://www.w3.org/2000/svg" width="24" height="24" viewBox="0 0 24 24">
  <path fill="#758CA3" fill-rule="evenodd" d="M12,1 C12.5522847,1 13,1.44771525 13,2 L13,7 C13,7.55228475 12.5522847,8 12,8 C11.4477153,8 11,7.55228475 11,7 L11,2 C11,1.44771525 11.4477153,1 12,1 Z M12,16 C12.5522847,16 13,16.4477153 13,17 L13,22 C13,22.5522847 12.5522847,23 12,23 C11.4477153,23 11,22.5522847 11,22 L11,17 C11,16.4477153 11.4477153,16 12,16 Z M2.47372056,6.5 C2.74986293,6.02170738 3.36145334,5.85783222 3.83974596,6.1339746 L8.16987298,8.6339746 C8.6481656,8.91011697 8.81204076,9.52170738 8.53589838,10 C8.25975601,10.4782926 7.6481656,10.6421678 7.16987298,10.3660254 L2.83974596,7.8660254 C2.36145334,7.58988303 2.19757818,6.97829262 2.47372056,6.5 Z M15.4641016,14 C15.740244,13.5217074 16.3518344,13.3578322 16.830127,13.6339746 L21.160254,16.1339746 C21.6385467,16.410117 21.8024218,17.0217074 21.5262794,17.5 C21.2501371,17.9782926 20.6385467,18.1421678 20.160254,17.8660254 L15.830127,15.3660254 C15.3518344,15.089883 15.1879592,14.4782926 15.4641016,14 Z M2.47372056,17.5 C2.19757818,17.0217074 2.36145334,16.410117 2.83974596,16.1339746 L7.16987298,13.6339746 C7.6481656,13.3578322 8.25975601,13.5217074 8.53589838,14 C8.81204076,14.4782926 8.6481656,15.089883 8.16987298,15.3660254 L3.83974596,17.8660254 C3.36145334,18.1421678 2.74986293,17.9782926 2.47372056,17.5 Z M15.4641016,10 C15.1879592,9.52170738 15.3518344,8.91011697 15.830127,8.6339746 L20.160254,6.1339746 C20.6385467,5.85783222 21.2501371,6.02170738 21.5262794,6.5 C21.8024218,6.97829262 21.6385467,7.58988303 21.160254,7.8660254 L16.830127,10.3660254 C16.3518344,10.6421678 15.740244,10.4782926 15.4641016,10 Z"/>
</svg>
