<svg xmlns="http://www.w3.org/2000/svg" width="24" height="24" viewBox="0 0 24 24">
  <path fill="#758CA3" fill-rule="evenodd" d="M3,8.95550994e-16 L21,8.95550994e-16 C22.6568542,1.02790497e-15 24,1.34314575 24,3 L24,21 C24,22.6568542 22.6568542,24 21,24 L3,24 C1.34314575,24 2.02906125e-16,22.6568542 0,21 L0,3 C-2.02906125e-16,1.34314575 1.34314575,2.08071949e-15 3,8.95550994e-16 Z M3,2 C2.44771525,2 2,2.44771525 2,3 L2,21 C2,21.5522847 2.44771525,22 3,22 L21,22 C21.5522847,22 22,21.5522847 22,21 L22,3 C22,2.44771525 21.5522847,2 21,2 L3,2 Z M6.70710678,11.2928932 L10,14.5857864 L17.2928932,7.29289322 C17.6834175,6.90236893 18.3165825,6.90236893 18.7071068,7.29289322 C19.0976311,7.68341751 19.0976311,8.31658249 18.7071068,8.70710678 L10.7071068,16.7071068 C10.3165825,17.0976311 9.68341751,17.0976311 9.29289322,16.7071068 L5.29289322,12.7071068 C4.90236893,12.3165825 4.90236893,11.6834175 5.29289322,11.2928932 C5.68341751,10.9023689 6.31658249,10.9023689 6.70710678,11.2928932 Z"/>
</svg>
