<svg xmlns="http://www.w3.org/2000/svg" width="24" height="24" viewBox="0 0 24 24">
  <path fill="#758CA3" fill-rule="evenodd" d="M20,10 L20,9 L20,8 C20,5.790861 18.209139,4 16,4 L8,4 C5.790861,4 4,5.790861 4,8 L4,9 L4,10 C5.65685425,10 7,11.3431458 7,13 L7,14 L17,14 L17,13 C17,11.3431458 18.3431458,10 20,10 Z M22,10.1707057 C23.1651924,10.5825421 24,11.6937812 24,13 L24,21 C24,21.5522847 23.5522847,22 23,22 L18,22 C17.4477153,22 17,21.5522847 17,21 L7,21 C7,21.5522847 6.55228475,22 6,22 L1,22 C0.44771525,22 6.76353751e-17,21.5522847 0,21 L0,13 C1.90142184e-16,11.6937812 0.834807627,10.5825421 2,10.1707057 L2,10 L2,8 C2,4.6862915 4.6862915,2 8,2 L16,2 C19.3137085,2 22,4.6862915 22,8 L22,10 L22,10.1707057 Z M17,16 L7,16 L7,19 L17,19 L17,16 Z M22,20 L22,13 C22,12.4477153 21.5522847,12 21,12 L20,12 C19.4477153,12 19,12.4477153 19,13 L19,20 L22,20 Z M2,20 L5,20 L5,13 C5,12.4477153 4.55228475,12 4,12 L3,12 C2.44771525,12 2,12.4477153 2,13 L2,20 Z M9,8 C9.55228475,8 10,8.44771525 10,9 C10,9.55228475 9.55228475,10 9,10 C8.44771525,10 8,9.55228475 8,9 C8,8.44771525 8.44771525,8 9,8 Z M15,8 C15.5522847,8 16,8.44771525 16,9 C16,9.55228475 15.5522847,10 15,10 C14.4477153,10 14,9.55228475 14,9 C14,8.44771525 14.4477153,8 15,8 Z"/>
</svg>
