<svg xmlns="http://www.w3.org/2000/svg" width="16" height="16" viewBox="0 0 16 16">
  <path fill="#758CA3" fill-rule="evenodd" d="M12.5857864,6 L6,6 C3.790861,6 2,7.790861 2,10 L2,15 C2,15.5522847 1.55228475,16 1,16 C0.44771525,16 0,15.5522847 0,15 L0,10 C0,6.6862915 2.6862915,4 6,4 L12.5857864,4 L10.2928932,1.70710678 C9.90236893,1.31658249 9.90236893,0.683417511 10.2928932,0.292893219 C10.6834175,-0.0976310729 11.3165825,-0.0976310729 11.7071068,0.292893219 L15.7071068,4.29289322 C16.0976311,4.68341751 16.0976311,5.31658249 15.7071068,5.70710678 L11.7071068,9.70710678 C11.3165825,10.0976311 10.6834175,10.0976311 10.2928932,9.70710678 C9.90236893,9.31658249 9.90236893,8.68341751 10.2928932,8.29289322 L12.5857864,6 Z" transform="matrix(1 0 0 -1 0 16)"/>
</svg>
