<svg xmlns="http://www.w3.org/2000/svg" width="24" height="24" viewBox="0 0 24 24">
  <path fill="#758CA3" fill-rule="evenodd" d="M3,4 C2.44771525,4 2,4.44771525 2,5 L2,16 C2,16.5522847 2.44771525,17 3,17 L21,17 C21.5522847,17 22,16.5522847 22,16 L22,5 C22,4.44771525 21.5522847,4 21,4 L3,4 Z M3,2 L21,2 C22.6568542,2 24,3.34314575 24,5 L24,16 C24,17.6568542 22.6568542,19 21,19 L3,19 C1.34314575,19 2.02906125e-16,17.6568542 0,16 L0,5 C-2.02906125e-16,3.34314575 1.34314575,2 3,2 Z M16,20 C16.5522847,20 17,20.4477153 17,21 C17,21.5522847 16.5522847,22 16,22 L8,22 C7.44771525,22 7,21.5522847 7,21 C7,20.4477153 7.44771525,20 8,20 L16,20 Z"/>
</svg>
