<svg xmlns="http://www.w3.org/2000/svg" width="16" height="16" viewBox="0 0 16 16">
  <path fill="#758CA3" fill-rule="evenodd" d="M13,4.41421356 L10.7071068,6.70710678 C10.3165825,7.09763107 9.68341751,7.09763107 9.29289322,6.70710678 C8.90236893,6.31658249 8.90236893,5.68341751 9.29289322,5.29289322 L11.5857864,3 L10,3 C9.44771525,3 9,2.55228475 9,2 C9,1.44771525 9.44771525,1 10,1 L14,1 C14.5522847,1 15,1.44771525 15,2 L15,6 C15,6.55228475 14.5522847,7 14,7 C13.4477153,7 13,6.55228475 13,6 L13,4.41421356 Z M3,11.5857864 L5.29289322,9.29289322 C5.68341751,8.90236893 6.31658249,8.90236893 6.70710678,9.29289322 C7.09763107,9.68341751 7.09763107,10.3165825 6.70710678,10.7071068 L4.41421356,13 L6,13 C6.55228475,13 7,13.4477153 7,14 C7,14.5522847 6.55228475,15 6,15 L2,15 C1.44771525,15 1,14.5522847 1,14 L1,10 C1,9.44771525 1.44771525,9 2,9 C2.55228475,9 3,9.44771525 3,10 L3,11.5857864 Z"/>
</svg>
