<svg xmlns="http://www.w3.org/2000/svg" width="16" height="16" viewBox="0 0 16 16">
  <path fill="#758CA3" fill-rule="evenodd" d="M8.5,4.91421356 L2,11.4142136 L2,14 L4.58578644,14 L11.0857864,7.5 L8.5,4.91421356 Z M9.91421356,3.5 L12.5,6.08578644 L13.5857864,5 L11,2.41421356 L9.91421356,3.5 Z M1,16 C0.44771525,16 0,15.5522847 0,15 L0,11 C0,10.7347835 0.10535684,10.4804296 0.292893219,10.2928932 L10.2928932,0.292893219 C10.6834175,-0.0976310729 11.3165825,-0.0976310729 11.7071068,0.292893219 L15.7071068,4.29289322 C16.0976311,4.68341751 16.0976311,5.31658249 15.7071068,5.70710678 L5.70710678,15.7071068 C5.5195704,15.8946432 5.26521649,16 5,16 L1,16 Z"/>
</svg>
