<svg xmlns="http://www.w3.org/2000/svg" width="12" height="12" viewBox="0 0 12 12">
  <path fill="#758CA3" fill-rule="evenodd" d="M6.45948101,7 L7,7 C7.55228475,7 8,7.44771525 8,8 C8,8.55228475 7.55228475,9 7,9 L5.75948101,9 L4.94385836,11.3303504 C4.76141085,11.851629 4.19092815,12.1263059 3.66964958,11.9438584 C3.148371,11.7614109 2.87369414,11.1909282 3.05614164,10.6696496 L6.55614164,0.669649575 C6.86864478,-0.223216525 8.13135522,-0.223216525 8.44385836,0.669649575 L11.9438584,10.6696496 C12.1263059,11.1909282 11.851629,11.7614109 11.3303504,11.9438584 C10.8090718,12.1263059 10.2385891,11.851629 10.0561416,11.3303504 L7.5,4.02708859 L6.45948101,7 Z M1.94236913,11.334575 C1.75758846,11.8550311 1.1858811,12.1271498 0.665425003,11.9423691 C0.144968905,11.7575885 -0.127149795,11.1858811 0.0576308731,10.665425 L3.55763087,0.807270706 C3.74241154,0.286814609 4.3141189,0.0146959077 4.834575,0.199476576 C5.35503109,0.384257245 5.6271498,0.955964603 5.44236913,1.4764207 L1.94236913,11.334575 Z"/>
</svg>
