<svg xmlns="http://www.w3.org/2000/svg" width="24" height="24" viewBox="0 0 24 24">
  <path fill="#758CA3" fill-rule="evenodd" d="M18.6063847,17.1921711 L23.1213203,21.7071068 C23.5118446,22.0976311 23.5118446,22.7307961 23.1213203,23.1213203 C22.7307961,23.5118446 22.0976311,23.5118446 21.7071068,23.1213203 L17.1921711,18.6063847 C16.0235906,19.4815965 14.5723351,20 13,20 C9.13400675,20 6,16.8659932 6,13 C6,9.13400675 9.13400675,6 13,6 C16.8659932,6 20,9.13400675 20,13 C20,14.5723351 19.4815965,16.0235906 18.6063847,17.1921711 Z M7,2 L7,6 C7,6.55228475 6.55228475,7 6,7 L2,7 L2,21 C2,21.5522847 2.44771525,22 3,22 L14,22 C14.5522847,22 15,22.4477153 15,23 C15,23.5522847 14.5522847,24 14,24 L3,24 C1.34314575,24 0,22.6568542 0,21 L0,6 C0,2.6862915 2.6862915,0 6,0 L15,0 C16.6568542,0 18,1.34314575 18,3 L18,4 C18,4.55228475 17.5522847,5 17,5 C16.4477153,5 16,4.55228475 16,4 L16,3 C16,2.44771525 15.5522847,2 15,2 L7,2 Z M2.12601749,5 L5,5 L5,2.12601749 C3.59439271,2.4877958 2.4877958,3.59439271 2.12601749,5 Z M13,18 C15.7614237,18 18,15.7614237 18,13 C18,10.2385763 15.7614237,8 13,8 C10.2385763,8 8,10.2385763 8,13 C8,15.7614237 10.2385763,18 13,18 Z"/>
</svg>
