<svg xmlns="http://www.w3.org/2000/svg" width="64" height="56" viewBox="0 0 64 56">
  <defs>
    <path id="folder-thumbnail" d="M4,1 C2.34314575,1 1,2.34314575 1,4 L1,52 C1,53.6568542 2.34314575,55 4,55 L60,55 C61.6568542,55 63,53.6568542 63,52 L63,12.7272727 C63,11.0704185 61.6568542,9.72727273 60,9.72727273 L30.4834673,9.72727273 C29.3059743,9.72727273 28.1882964,9.20846224 27.4282767,8.30909587 L21.8508662,1.70908843 C21.4708563,1.25940524 20.9120174,1 20.3232709,1 L4,1 Z M4,2.66930903e-16 L20.3232709,2.22044605e-15 C21.2063906,2.05821958e-15 22.044649,0.389107864 22.6146638,1.06363264 L28.1920744,7.66364009 C28.7620891,8.33816486 29.6003475,8.72727273 30.4834673,8.72727273 L60,8.72727273 C62.209139,8.72727273 64,10.5181337 64,12.7272727 L64,52 C64,54.209139 62.209139,56 60,56 L4,56 C1.790861,56 2.705415e-16,54.209139 0,52 L0,4 C-2.705415e-16,1.790861 1.790861,4.05812251e-16 4,2.66930903e-16 Z"/>
  </defs>
  <g fill="none" fill-rule="evenodd">
    <use fill="#000" fill-rule="nonzero" xlink:href="#folder-thumbnail"/>
  </g>
</svg>
