<svg xmlns="http://www.w3.org/2000/svg" width="24" height="24" viewBox="0 0 24 24">
  <path fill="#758CA3" fill-rule="evenodd" d="M19,22 C19.5522847,22 20,22.4477153 20,23 C20,23.5522847 19.5522847,24 19,24 L5,24 C4.44771525,24 4,23.5522847 4,23 C4,22.4477153 4.44771525,22 5,22 L5,18.0523432 C5,17.3711287 5.23184226,16.7101972 5.65739357,16.178258 L9,12 L5.65739357,7.82174196 C5.23184226,7.28980282 5,6.62887131 5,5.94765682 L5,2 C4.44771525,2 4,1.55228475 4,1 C4,0.44771525 4.44771525,1.77635684e-15 5,1.77635684e-15 L19,1.77635684e-15 C19.5522847,1.77635684e-15 20,0.44771525 20,1 C20,1.55228475 19.5522847,2 19,2 L19,5.94765682 C19,6.62887131 18.7681577,7.28980282 18.3426064,7.82174196 L15,12 L18.3426064,16.178258 C18.7681577,16.7101972 19,17.3711287 19,18.0523432 L19,22 Z M7,22 L17,22 L17,18.0523432 C17,17.8252717 16.9227192,17.6049612 16.7808688,17.4276481 L13.4382624,13.2493901 C12.8539125,12.5189528 12.8539125,11.4810472 13.4382624,10.7506099 L16.7808688,6.57235187 C16.9227192,6.39503882 17,6.17472832 17,5.94765682 L17,2 L7,2 L7,5.94765682 C7,6.17472832 7.07728075,6.39503882 7.21913119,6.57235187 L10.5617376,10.7506099 C11.1460875,11.4810472 11.1460875,12.5189528 10.5617376,13.2493901 L7.21913119,17.4276481 C7.07728075,17.6049612 7,17.8252717 7,18.0523432 L7,22 Z"/>
</svg>
