<svg width="34" height="24" viewBox="0 0 34 24" fill="none" xmlns="http://www.w3.org/2000/svg">
<rect x="0.5" y="0.5" width="33" height="23" rx="3.5" fill="white" stroke="#D1D9E0"/>
<path fill-rule="evenodd" clip-rule="evenodd" d="M11.8916 5.1812L13.5001 5.58333L15.0656 5.06149C15.1854 5.02158 15.3148 5.02158 15.4345 5.06149L17.0001 5.58333L18.5656 5.06149C18.6854 5.02158 18.8148 5.02158 18.9345 5.06149L20.5001 5.58333L22.1086 5.1812C22.4211 5.10307 22.7379 5.29309 22.816 5.60564C22.8276 5.65191 22.8334 5.69943 22.8334 5.74712V18.2529C22.8334 18.575 22.5722 18.8362 22.2501 18.8362C22.2024 18.8362 22.1549 18.8304 22.1086 18.8188L20.5001 18.4167L18.9345 18.9385C18.8148 18.9784 18.6854 18.9784 18.5656 18.9385L17.0001 18.4167L15.4345 18.9385C15.3148 18.9784 15.1854 18.9784 15.0656 18.9385L13.5001 18.4167L11.8916 18.8188C11.579 18.8969 11.2623 18.7069 11.1842 18.3944C11.1726 18.3481 11.1667 18.3006 11.1667 18.2529V5.74712C11.1667 5.42495 11.4279 5.16379 11.7501 5.16379C11.7978 5.16379 11.8453 5.16964 11.8916 5.1812ZM12.3334 6.49424V17.5058L13.2171 17.2848C13.4324 17.231 13.6585 17.2397 13.869 17.3099L15.2501 17.7702L16.6311 17.3099C16.8706 17.23 17.1295 17.23 17.369 17.3099L18.7501 17.7702L20.1311 17.3099C20.3416 17.2397 20.5678 17.231 20.783 17.2848L21.6667 17.5058V6.49424L20.783 6.71517C20.5678 6.76898 20.3416 6.7603 20.1311 6.69013L18.7501 6.22978L17.369 6.69013C17.1295 6.76996 16.8706 6.76996 16.6311 6.69013L15.2501 6.22978L13.869 6.69013C13.6585 6.7603 13.4324 6.76898 13.2171 6.71517L12.3334 6.49424ZM14.0834 9.08333H19.9167C20.2389 9.08333 20.5001 9.3445 20.5001 9.66667C20.5001 9.98883 20.2389 10.25 19.9167 10.25H14.0834C13.7612 10.25 13.5001 9.98883 13.5001 9.66667C13.5001 9.3445 13.7612 9.08333 14.0834 9.08333ZM14.0834 11.4167H19.9167C20.2389 11.4167 20.5001 11.6778 20.5001 12C20.5001 12.3222 20.2389 12.5833 19.9167 12.5833H14.0834C13.7612 12.5833 13.5001 12.3222 13.5001 12C13.5001 11.6778 13.7612 11.4167 14.0834 11.4167ZM14.0834 13.75H19.9167C20.2389 13.75 20.5001 14.0112 20.5001 14.3333C20.5001 14.6555 20.2389 14.9167 19.9167 14.9167H14.0834C13.7612 14.9167 13.5001 14.6555 13.5001 14.3333C13.5001 14.0112 13.7612 13.75 14.0834 13.75Z" fill="#758CA3"/>
</svg>
