<svg xmlns="http://www.w3.org/2000/svg" width="16" height="16" viewBox="0 0 16 16">
  <path fill="#758CA3" fill-rule="evenodd" d="M2.20710678,0.792893219 L7.5,6.08578644 L12.7928932,0.792893219 C13.1834175,0.402368927 13.8165825,0.402368927 14.2071068,0.792893219 C14.5976311,1.18341751 14.5976311,1.81658249 14.2071068,2.20710678 L8.20710678,8.20710678 C7.81658249,8.59763107 7.18341751,8.59763107 6.79289322,8.20710678 L0.792893219,2.20710678 C0.402368927,1.81658249 0.402368927,1.18341751 0.792893219,0.792893219 C1.18341751,0.402368927 1.81658249,0.402368927 2.20710678,0.792893219 Z M2.20710678,7.79289322 L7.5,13.0857864 L12.7928932,7.79289322 C13.1834175,7.40236893 13.8165825,7.40236893 14.2071068,7.79289322 C14.5976311,8.18341751 14.5976311,8.81658249 14.2071068,9.20710678 L8.20710678,15.2071068 C7.81658249,15.5976311 7.18341751,15.5976311 6.79289322,15.2071068 L0.792893219,9.20710678 C0.402368927,8.81658249 0.402368927,8.18341751 0.792893219,7.79289322 C1.18341751,7.40236893 1.81658249,7.40236893 2.20710678,7.79289322 Z" transform="matrix(0 -1 -1 0 15.5 15.5)"/>
</svg>
