<svg xmlns="http://www.w3.org/2000/svg" width="16" height="16" viewBox="0 0 16 16">
  <path fill="#758CA3" fill-rule="evenodd" d="M8,13 C5.24097308,13 2.72660566,11.537698 0.456897739,8.61309408 C0.176892609,8.25229695 0.176893269,7.74764114 0.456899343,7.38684474 C2.72662799,4.46228899 5.24098534,3 8,3 C10.7590269,3 13.2733943,4.46230197 15.5431023,7.38690592 C15.8231074,7.74770305 15.8231067,8.25235886 15.5431007,8.61315526 C13.273372,11.537711 10.7590147,13 8,13 Z M8,5 C6.099026,5 4.29617131,5.95259141 2.5369998,8.00000464 C4.29612045,10.0473817 6.09899944,11 8,11 C9.900974,11 11.7038287,10.0474086 13.4630002,7.99999536 C11.7038796,5.95261827 9.90100056,5 8,5 Z M8,9.5 C7.17157288,9.5 6.5,8.82842712 6.5,8 C6.5,7.17157288 7.17157288,6.5 8,6.5 C8.82842712,6.5 9.5,7.17157288 9.5,8 C9.5,8.82842712 8.82842712,9.5 8,9.5 Z"/>
</svg>
