<svg width="329" height="331" viewBox="0 0 329 331" fill="none" xmlns="http://www.w3.org/2000/svg">
<path fill-rule="evenodd" clip-rule="evenodd" d="M212.477 12.2141C227.996 26.4191 231.021 49.7398 219.64 67.4339L210.864 81.0766L259.394 44.5324C275.542 32.3721 297.965 33.0403 313.361 46.1406C328.757 59.2409 333.005 81.2677 323.587 99.1543L214.075 307.123C202.962 328.227 176.845 336.327 155.74 325.214C134.635 314.101 126.536 287.983 137.649 266.878L157.319 229.524L69.8196 295.414C53.1077 307.998 29.7791 306.795 14.4502 292.558C-0.878676 278.322 -3.7995 255.145 7.51778 237.551L35.1414 194.604C25.3991 192.606 16.2953 187.251 9.72029 178.778C-4.90213 159.934 -1.47992 132.804 17.364 118.181L156.841 9.95077C173.462 -2.94687 196.959 -1.99104 212.477 12.2141Z" fill="white"/>
<path fill-rule="evenodd" clip-rule="evenodd" d="M212.477 12.2141C227.996 26.4191 231.021 49.7398 219.64 67.4339L210.864 81.0766L259.394 44.5324C275.542 32.3721 297.965 33.0403 313.361 46.1406C328.757 59.2409 333.005 81.2677 323.587 99.1543L214.075 307.123C202.962 328.227 176.845 336.327 155.74 325.214C134.635 314.101 126.536 287.983 137.649 266.878L157.319 229.524L69.8196 295.414C53.1077 307.998 29.7791 306.795 14.4502 292.558C-0.878676 278.322 -3.7995 255.145 7.51778 237.551L35.1414 194.604C25.3991 192.606 16.2953 187.251 9.72029 178.778C-4.90213 159.934 -1.47992 132.804 17.364 118.181L156.841 9.95077C173.462 -2.94687 196.959 -1.99104 212.477 12.2141Z" fill="url(#paint0_linear_607_26)"/>
<defs>
<linearGradient id="paint0_linear_607_26" x1="358.088" y1="236.065" x2="202.419" y2="311.351" gradientUnits="userSpaceOnUse">
<stop stop-color="#0870FF"/>
<stop offset="1" stop-color="#C0E2F5"/>
</linearGradient>
</defs>
</svg>
