<svg xmlns="http://www.w3.org/2000/svg" width="12" height="12" viewBox="0 0 12 12">
  <path fill="#758CA3" fill-rule="evenodd" d="M4.41421356,9 L5.70710678,10.2928932 C6.09763107,10.6834175 6.09763107,11.3165825 5.70710678,11.7071068 C5.31658249,12.0976311 4.68341751,12.0976311 4.29289322,11.7071068 L1.29289322,8.70710678 C0.902368927,8.31658249 0.902368927,7.68341751 1.29289322,7.29289322 L4.29289322,4.29289322 C4.68341751,3.90236893 5.31658249,3.90236893 5.70710678,4.29289322 C6.09763107,4.68341751 6.09763107,5.31658249 5.70710678,5.70710678 L4.41421356,7 L7.5,7 C8.88071187,7 10,5.88071187 10,4.5 C10,3.11928813 8.88071187,2 7.5,2 L6.03566885,2 C5.4833841,2 5.03566885,1.55228475 5.03566885,1 C5.03566885,0.44771525 5.4833841,-1.67491962e-16 6.03566885,0 L7.5,4.4408921e-16 C9.98528137,-1.26882631e-16 12,2.01471863 12,4.5 C12,6.98528137 9.98528137,9 7.5,9 L4.41421356,9 Z" transform="matrix(-1 0 0 1 13 0)"/>
</svg>
