<svg xmlns="http://www.w3.org/2000/svg" width="24" height="24" viewBox="0 0 24 24">
  <path fill="#758CA3" fill-rule="evenodd" d="M8,11.5857864 L16.5857864,3 C17.366835,2.21895142 18.633165,2.21895142 19.4142136,3 L22,5.58578644 C22.7810486,6.36683502 22.7810486,7.63316498 22,8.41421356 L9.41421356,21 C8.63316498,21.7810486 7.36683502,21.7810486 6.58578644,21 L1,15.4142136 C0.218951416,14.633165 0.218951416,13.366835 1,12.5857864 L3.58578644,10 C4.36683502,9.21895142 5.63316498,9.21895142 6.41421356,10 L8,11.5857864 Z M2.41421356,14 L8,19.5857864 L20.5857864,7 L18,4.41421356 L8,14.4142136 L5,11.4142136 L2.41421356,14 Z"/>
</svg>
