<svg xmlns="http://www.w3.org/2000/svg" width="24" height="24" viewBox="0 0 24 24">
  <path fill="#758CA3" fill-rule="evenodd" d="M24,12 C24,18.627417 18.627417,24 12,24 C5.372583,24 -6.29380286e-15,18.627417 -7.10542736e-15,12 C-8.11624501e-16,5.372583 5.372583,-1.00300898e-15 12,-2.22044605e-15 C18.627417,-1.66152628e-15 24,5.372583 24,12 Z M12,2 C6.4771525,2 2,6.4771525 2,12 C2,17.5228475 6.4771525,22 12,22 C17.5228475,22 22,17.5228475 22,12 C22,6.4771525 17.5228475,2 12,2 Z M16.4855042,13.8574929 L12,11.1661904 L7.51449576,13.8574929 C7.04091549,14.1416411 6.42665523,13.988076 6.14250707,13.5144958 C5.85835891,13.0409155 6.01192398,12.4266552 6.48550424,12.1425071 L11.4855042,9.14250707 C11.8021866,8.95249764 12.1978134,8.95249764 12.5144958,9.14250707 L17.5144958,12.1425071 C17.988076,12.4266552 18.1416411,13.0409155 17.8574929,13.5144958 C17.5733448,13.988076 16.9590845,14.1416411 16.4855042,13.8574929 Z" transform="matrix(0 -1 -1 0 24 24)"/>
</svg>
