<svg xmlns="http://www.w3.org/2000/svg" width="12" height="12" viewBox="0 0 12 12">
  <path fill="#758CA3" fill-rule="evenodd" d="M12,8.16139589 L12,10.8474607 C12.0085251,10.899999 12.0129566,10.9539103 12.0129566,11.0088566 C12.0129566,11.5611413 11.5652414,12.0088566 11.0129566,12.0088566 L1,12.0088566 C0.44771525,12.0088566 6.72795153e-14,11.5611413 6.72795153e-14,11.0088566 L6.72795153e-14,8 C6.72795153e-14,7.44771525 0.44771525,7 1,7 L11.0129566,7 C11.5652414,7 12.0129566,7.44771525 12.0129566,8 C12.0129566,8.0549463 12.0085251,8.10885757 12,8.16139589 L12,8.16139589 Z M10,9 L2,9 L2,10.0088566 L10,10.0088566 L10,9 Z M2.5,1.08578644 L3.29289322,0.292893219 C3.68341751,-0.0976310729 4.31658249,-0.0976310729 4.70710678,0.292893219 C5.09763107,0.683417511 5.09763107,1.31658249 4.70710678,1.70710678 L3.91421356,2.5 L4.70710678,3.29289322 C5.09763107,3.68341751 5.09763107,4.31658249 4.70710678,4.70710678 C4.31658249,5.09763107 3.68341751,5.09763107 3.29289322,4.70710678 L2.5,3.91421356 L1.70710678,4.70710678 C1.31658249,5.09763107 0.683417511,5.09763107 0.292893219,4.70710678 C-0.0976310729,4.31658249 -0.0976310729,3.68341751 0.292893219,3.29289322 L1.08578644,2.5 L0.292893219,1.70710678 C-0.0976310729,1.31658249 -0.0976310729,0.683417511 0.292893219,0.292893219 C0.683417511,-0.0976310729 1.31658249,-0.0976310729 1.70710678,0.292893219 L2.5,1.08578644 Z"/>
</svg>
