<svg xmlns="http://www.w3.org/2000/svg" width="12" height="12" viewBox="0 0 12 12">
  <path fill="#758CA3" fill-rule="evenodd" d="M4.41421356,3 L6,3 C9.3137085,3 12,5.6862915 12,9 L12,11 C12,11.5522847 11.5522847,12 11,12 C10.4477153,12 10,11.5522847 10,11 L10,9 C10,6.790861 8.209139,5 6,5 L4.41421356,5 L5.70710678,6.29289322 C6.09763107,6.68341751 6.09763107,7.31658249 5.70710678,7.70710678 C5.31658249,8.09763107 4.68341751,8.09763107 4.29289322,7.70710678 L1.29289322,4.70710678 C0.902368927,4.31658249 0.902368927,3.68341751 1.29289322,3.29289322 L4.29289322,0.292893219 C4.68341751,-0.0976310729 5.31658249,-0.0976310729 5.70710678,0.292893219 C6.09763107,0.683417511 6.09763107,1.31658249 5.70710678,1.70710678 L4.41421356,3 Z" transform="matrix(-1 0 0 1 13 0)"/>
</svg>
