<svg xmlns="http://www.w3.org/2000/svg" width="24" height="24" viewBox="0 0 24 24"><path fill="#758CA3" fill-rule="evenodd" d="M8 0a2 2 0 012 2v2h4V2a2 2 0 012-2h6a2 2 0 012 2v6a2 2 0 01-2 2h-6a2 2 0 01-2-2V6h-4v2a2 2 0 01-2 2H6v4h2a2 2 0 012 2v6a2 2 0 01-2 2H2a2 2 0 01-2-2v-6a2 2 0 012-2h2v-4H2a2 2 0 01-2-2V2a2 2 0 012-2h6zm0 16H2v6h6v-6zm11-3c.552 0 1 .373 1 .833V17h3.167c.46 0 .833.448.833 1s-.373 1-.833 1H20v3.167c0 .46-.448.833-1 .833s-1-.373-1-.833V19h-3.167c-.46 0-.833-.448-.833-1s.373-1 .833-1H18v-3.167c0-.46.448-.833 1-.833zM8 2H2v6h6V2zm14 0h-6v6h6V2z"/></svg>
