<svg xmlns="http://www.w3.org/2000/svg" width="16" height="16" viewBox="0 0 16 16">
  <path fill="#758CA3" fill-rule="evenodd" d="M2,11.3097033 L5.2260427,7.36676221 C5.60068006,6.90887211 6.28876691,6.87455335 6.70710678,7.29289322 L8.29643801,8.88222445 L11.2317787,5.3598156 C11.6082272,4.9080774 12.2913058,4.87709226 12.7071068,5.29289322 L14,6.58578644 L14,3 C14,2.44771525 13.5522847,2 13,2 L3,2 C2.44771525,2 2,2.44771525 2,3 L2,11.3097033 Z M2.49487193,13.863231 C2.64311158,13.9501623 2.81573568,14 3,14 L13,14 C13.5522847,14 14,13.5522847 14,13 L14,9.41421356 L12.0671984,7.48141191 L7.76822128,12.6401844 C7.4146572,13.0644613 6.7840925,13.1217854 6.3598156,12.7682213 C5.9355387,12.4146572 5.87821464,11.7840925 6.23177872,11.3598156 L7.01078932,10.4250029 L6.07423742,9.48845098 L2.49487193,13.863231 Z M3,-8.8817842e-16 L13,-8.8817842e-16 C14.6568542,-1.19253761e-15 16,1.34314575 16,3 L16,13 C16,14.6568542 14.6568542,16 13,16 L3,16 C1.34314575,16 -6.85272294e-16,14.6568542 -8.8817842e-16,13 L-8.8817842e-16,3 C-1.09108455e-15,1.34314575 1.34314575,-5.83819232e-16 3,-8.8817842e-16 Z M4.5,6 C3.67157288,6 3,5.32842712 3,4.5 C3,3.67157288 3.67157288,3 4.5,3 C5.32842712,3 6,3.67157288 6,4.5 C6,5.32842712 5.32842712,6 4.5,6 Z"/>
</svg>
