<svg xmlns="http://www.w3.org/2000/svg" width="42" height="56" viewBox="0 0 42 56">
  <g fill="none" fill-rule="evenodd">
    <g stroke="#788A9B">
      <path d="M4,0.5 C2.06700338,0.5 0.5,2.06700338 0.5,4 L0.5,52 C0.5,53.9329966 2.06700338,55.5 4,55.5 L38,55.5 C39.9329966,55.5 41.5,53.9329966 41.5,52 L41.5,13.8284271 C41.5,13.4306024 41.3419647,13.0490715 41.0606602,12.767767 L29.232233,0.939339828 C28.9509285,0.658035261 28.5693976,0.5 28.1715729,0.5 L4,0.5 Z"/>
      <path d="M28.5,0.5 L28.5,11.5 C28.5,12.6045695 29.3954305,13.5 30.5,13.5 L41.5,13.5"/>
    </g>
    <path fill="#DE294C" d="M8,6.58578644 L12.2928932,2.29289322 C12.6834175,1.90236893 13.3165825,1.90236893 13.7071068,2.29289322 C14.0976311,2.68341751 14.0976311,3.31658249 13.7071068,3.70710678 L9.41421356,8 L13.7071068,12.2928932 C14.0976311,12.6834175 14.0976311,13.3165825 13.7071068,13.7071068 C13.3165825,14.0976311 12.6834175,14.0976311 12.2928932,13.7071068 L8,9.41421356 L3.70710678,13.7071068 C3.31658249,14.0976311 2.68341751,14.0976311 2.29289322,13.7071068 C1.90236893,13.3165825 1.90236893,12.6834175 2.29289322,12.2928932 L6.58578644,8 L2.29289322,3.70710678 C1.90236893,3.31658249 1.90236893,2.68341751 2.29289322,2.29289322 C2.68341751,1.90236893 3.31658249,1.90236893 3.70710678,2.29289322 L8,6.58578644 Z" transform="translate(13 22)"/>
  </g>
</svg>
