<svg xmlns="http://www.w3.org/2000/svg" width="14" height="14" viewBox="0 0 14 14">
  <path fill="#D1D9E0" fill-rule="evenodd" d="M.821428571 3L.821428571 13.2264096C.821428571 13.6406231 1.15721501 13.9764096 1.57142857 13.9764096 1.98564213 13.9764096 2.32142857 13.6406231 2.32142857 13.2264096L2.32142857 3C2.32142857 2.58578644 1.98564213 2.25 1.57142857 2.25 1.15721501 2.25.821428571 2.58578644.821428571 3zM13.5036458.293915608C14.4701441.293915608 15.2536458 1.0774173 15.2536458 2.04391561L15.2536458 13.9560844C15.2536458 14.9225827 14.4701441 15.7060844 13.5036458 15.7060844L6.49635417 15.7060844C5.52985585 15.7060844 4.74635417 14.9225827 4.74635417 13.9560844L4.74635417 2.04391561C4.74635417 1.0774173 5.52985585.293915608 6.49635417.293915608L13.5036458.293915608zM13.5036458 1.79391561L6.49635417 1.79391561C6.35828298 1.79391561 6.24635417 1.90584442 6.24635417 2.04391561L6.24635417 13.9560844C6.24635417 14.0941556 6.35828298 14.2060844 6.49635417 14.2060844L13.5036458 14.2060844C13.641717 14.2060844 13.7536458 14.0941556 13.7536458 13.9560844L13.7536458 2.04391561C13.7536458 1.90584442 13.641717 1.79391561 13.5036458 1.79391561z" transform="translate(-1 -1)"/>
</svg>
