<svg xmlns="http://www.w3.org/2000/svg" width="16" height="16" viewBox="0 0 16 16">
  <path fill="#758CA3" fill-rule="evenodd" d="M10.2928932,4.29289322 C10.6834175,3.90236893 11.3165825,3.90236893 11.7071068,4.29289322 C12.0976311,4.68341751 12.0976311,5.31658249 11.7071068,5.70710678 L8.70710678,8.70710678 C8.31658249,9.09763107 7.68341751,9.09763107 7.29289322,8.70710678 L4.29289322,5.70710678 C3.90236893,5.31658249 3.90236893,4.68341751 4.29289322,4.29289322 C4.68341751,3.90236893 5.31658249,3.90236893 5.70710678,4.29289322 L8,6.58578644 L10.2928932,4.29289322 Z M10.2928932,8.29289322 C10.6834175,7.90236893 11.3165825,7.90236893 11.7071068,8.29289322 C12.0976311,8.68341751 12.0976311,9.31658249 11.7071068,9.70710678 L8.70710678,12.7071068 C8.31658249,13.0976311 7.68341751,13.0976311 7.29289322,12.7071068 L4.29289322,9.70710678 C3.90236893,9.31658249 3.90236893,8.68341751 4.29289322,8.29289322 C4.68341751,7.90236893 5.31658249,7.90236893 5.70710678,8.29289322 L8,10.5857864 L10.2928932,8.29289322 Z"/>
</svg>
