<svg xmlns="http://www.w3.org/2000/svg" width="16" height="8" viewBox="0 0 16 8">
  <g fill="none" fill-rule="evenodd" stroke="#7363E5" stroke-linecap="round" transform="translate(1 1)">
    <path stroke-linejoin="round" stroke-width="1.2" d="M5,0.997514421 L5,0.997514421 C5,0.446602419 4.55339758,7.22853403e-14 4.00248558,7.23865412e-14 L2,7.23865412e-14 C0.8954305,7.25894473e-14 -1.3527075e-16,0.8954305 0,2 L0,4 C1.3527075e-16,5.1045695 0.8954305,6 2,6 L3.99751442,6 C4.55117192,6 5,5.55117192 5,4.99751442 L5,4.99751442"/>
    <path stroke-linejoin="round" stroke-width="1.2" d="M14,0.997514421 L14,0.997514421 C14,0.446602419 13.5533976,7.22853403e-14 13.0024856,7.23865412e-14 L11,7.23865412e-14 C9.8954305,7.25894473e-14 9,0.8954305 9,2 L9,4 C9,5.1045695 9.8954305,6 11,6 L12.9975144,6 C13.5511719,6 14,5.55117192 14,4.99751442 L14,4.99751442" transform="matrix(-1 0 0 1 23 0)"/>
    <path d="M3.66666667,3 L10.3333333,3"/>
  </g>
</svg>
