<svg xmlns="http://www.w3.org/2000/svg" width="24" height="24" viewBox="0 0 24 24">
  <path fill="#758CA3" fill-rule="evenodd" d="M3.74379366,5 L10.8530753,9.97649716 C11.5417156,10.4585454 12.4582844,10.4585454 13.1469247,9.97649716 L20.2562063,5 L3.74379366,5 Z M22,6.22065556 L14.2938494,11.614961 C12.9165688,12.5790574 11.0834312,12.5790574 9.70615062,11.614961 L2,6.22065556 L2,18 C2,18.5522847 2.44771525,19 3,19 L21,19 C21.5522847,19 22,18.5522847 22,18 L22,6.22065556 Z M3,3 L21,3 C22.6568542,3 24,4.34314575 24,6 L24,18 C24,19.6568542 22.6568542,21 21,21 L3,21 C1.34314575,21 2.02906125e-16,19.6568542 0,18 L0,6 C-2.02906125e-16,4.34314575 1.34314575,3 3,3 Z"/>
</svg>
