<svg xmlns="http://www.w3.org/2000/svg" width="24" height="24" viewBox="0 0 24 24">
  <path fill="#758CA3" fill-rule="evenodd" d="M16.625567,3.13179233 L17.6568542,2.10050506 C18.0473785,1.70998077 18.6805435,1.70998077 19.0710678,2.10050506 L21.8994949,4.92893219 C22.2900192,5.31945648 22.2900192,5.95262146 21.8994949,6.34314575 L20.8682077,7.37443302 C21.1383927,7.89137577 21.3647034,8.4348788 21.5421977,9 L23,9 C23.5522847,9 24,9.44771525 24,10 L24,14 C24,14.5522847 23.5522847,15 23,15 L21.5421977,15 C21.3647034,15.5651212 21.1383927,16.1086242 20.8682077,16.625567 L21.8994949,17.6568542 C22.2900192,18.0473785 22.2900192,18.6805435 21.8994949,19.0710678 L19.0710678,21.8994949 C18.6805435,22.2900192 18.0473785,22.2900192 17.6568542,21.8994949 L16.625567,20.8682077 C16.1086242,21.1383927 15.5651212,21.3647034 15,21.5421977 L15,23 C15,23.5522847 14.5522847,24 14,24 L10,24 C9.44771525,24 9,23.5522847 9,23 L9,21.5421977 C8.4348788,21.3647034 7.89137577,21.1383927 7.37443302,20.8682077 L6.34314575,21.8994949 C5.95262146,22.2900192 5.31945648,22.2900192 4.92893219,21.8994949 L2.10050506,19.0710678 C1.70998077,18.6805435 1.70998077,18.0473785 2.10050506,17.6568542 L3.13179233,16.625567 C2.86160732,16.1086242 2.63529659,15.5651212 2.45780228,15 L1,15 C0.44771525,15 6.76353751e-17,14.5522847 0,14 L0,10 C-6.76353751e-17,9.44771525 0.44771525,9 1,9 L2.45780228,9 C2.63529659,8.4348788 2.86160732,7.89137577 3.13179233,7.37443302 L2.10050506,6.34314575 C1.70998077,5.95262146 1.70998077,5.31945648 2.10050506,4.92893219 L4.92893219,2.10050506 C5.31945648,1.70998077 5.95262146,1.70998077 6.34314575,2.10050506 L7.37443302,3.13179233 C7.89137577,2.86160732 8.4348788,2.63529659 9,2.45780228 L9,1 C9,0.44771525 9.44771525,1.01453063e-16 10,0 L14,0 C14.5522847,-1.01453063e-16 15,0.44771525 15,1 L15,2.45780228 C15.5651212,2.63529659 16.1086242,2.86160732 16.625567,3.13179233 Z M13,2 L11,2 L11,3.92596624 L9.59929915,4.36590095 C9.15088211,4.5067406 8.71660273,4.68699392 8.30084704,4.90429257 L6.99895324,5.58473968 L5.63603897,4.22182541 L4.22182541,5.63603897 L5.58473968,6.99895324 L4.90429257,8.30084704 C4.68699392,8.71660273 4.5067406,9.15088211 4.36590095,9.59929915 L3.92596624,11 L2,11 L2,13 L3.92596624,13 L4.36590095,14.4007008 C4.5067406,14.8491179 4.68699392,15.2833973 4.90429257,15.699153 L5.58473968,17.0010468 L4.22182541,18.363961 L5.63603897,19.7781746 L6.99895324,18.4152603 L8.30084704,19.0957074 C8.71660273,19.3130061 9.15088211,19.4932594 9.59929915,19.634099 L11,20.0740338 L11,22 L13,22 L13,20.0740338 L14.4007008,19.634099 C14.8491179,19.4932594 15.2833973,19.3130061 15.699153,19.0957074 L17.0010468,18.4152603 L18.363961,19.7781746 L19.7781746,18.363961 L18.4152603,17.0010468 L19.0957074,15.699153 C19.3130061,15.2833973 19.4932594,14.8491179 19.634099,14.4007008 L20.0740338,13 L22,13 L22,11 L20.0740338,11 L19.634099,9.59929915 C19.4932594,9.15088211 19.3130061,8.71660273 19.0957074,8.30084704 L18.4152603,6.99895324 L19.7781746,5.63603897 L18.363961,4.22182541 L17.0010468,5.58473968 L15.699153,4.90429257 C15.2833973,4.68699392 14.8491179,4.5067406 14.4007008,4.36590095 L13,3.92596624 L13,2 Z M12,17 C9.23857625,17 7,14.7614237 7,12 C7,9.23857625 9.23857625,7 12,7 C14.7614237,7 17,9.23857625 17,12 C17,14.7614237 14.7614237,17 12,17 Z M12,15 C13.6568542,15 15,13.6568542 15,12 C15,10.3431458 13.6568542,9 12,9 C10.3431458,9 9,10.3431458 9,12 C9,13.6568542 10.3431458,15 12,15 Z"/>
</svg>
