<svg xmlns="http://www.w3.org/2000/svg" width="12" height="12" viewBox="0 0 12 12">
  <path fill="#758CA3" fill-rule="evenodd" d="M10.4102875,2.98881775 L11.7090753,4.29486724 C12.0985093,4.6864787 12.0967442,5.31964122 11.7051328,5.7090753 C11.3135213,6.09850939 10.6803588,6.09674428 10.2909247,5.70513281 L8.2909247,3.69395054 C7.90302507,3.30388211 7.90302507,2.67375339 8.2909247,2.28368497 L10.2686845,0.294867237 C10.6581186,-0.0967442262 11.2912811,-0.0985093404 11.6828926,0.290924744 C12.074504,0.680358829 12.0762691,1.31352135 11.6868351,1.70513281 L10.4102875,2.98881775 Z M6,1 L6,11 C6,11.5522847 5.55228475,12 5,12 L1,12 C0.44771525,12 0,11.5522847 0,11 L0,1 C0,0.44771525 0.44771525,0 1,0 L5,0 C5.55228475,0 6,0.44771525 6,1 Z M4,2 L2,2 L2,10 L4,10 L4,2 Z"/>
</svg>
