<!-- @deprecated tag:v6.5.0 - Will be removed. See src/Administration/Resources/app/administration/src/app/component/base/sw-icon/legacy-icon-mapping.js for replacement -->

<svg xmlns="http://www.w3.org/2000/svg" width="16" height="16" viewBox="0 0 16 16">
  <g fill="none" fill-rule="evenodd">
    <path fill="#FFF" fill-rule="nonzero" stroke="#189EFF" d="M7.09601433,3.5 L2.00006414,3.5 C1.98495158,3.5 1.96984678,3.50068517 1.95479627,3.5020534 C1.67978796,3.52705415 1.47711679,3.77025956 1.50211754,4.04526787 L2.32029936,13.0452679 C2.34371205,13.3028075 2.55964436,13.5 2.81824596,13.5 L11.870963,13.5 C11.8911472,13.5 11.9113129,13.4987778 11.9313494,13.4963401 C12.2054704,13.4629897 12.4006536,13.2137347 12.3673031,12.9396137 L11.5156608,5.93961368 C11.485131,5.68867604 11.2721087,5.5 11.0193207,5.5 L8.09601433,5.5 L7.09601433,3.5 Z"/>
    <path fill="#EDF8FF" stroke="#189EFF" d="M5.05630452,5.5 C4.83259146,5.5 4.63610358,5.64860463 4.57519375,5.86386616 L2.59449223,12.8638662 C2.58195945,12.9081583 2.575603,12.9539689 2.575603,13 C2.575603,13.2761424 2.79946063,13.5 3.075603,13.5 L11.9970796,13.5 C12.2207927,13.5 12.4172806,13.3513954 12.4781904,13.1361338 L14.4588919,6.13613384 C14.4714247,6.09184172 14.4777811,6.0460311 14.4777811,6 C14.4777811,5.72385763 14.2539235,5.5 13.9777811,5.5 L5.05630452,5.5 Z"/>
  </g>
</svg>
