<svg xmlns="http://www.w3.org/2000/svg" width="12" height="12" viewBox="0 0 12 12">
  <path fill="#758CA3" fill-rule="evenodd" d="M15,6 L15.1762728,6.00509269 C16.6927538,6.09295962 17.9070404,7.30724616 17.9949073,8.82372721 L18,9 L18,15 C18,16.5976809 16.75108,17.9036609 15.1762728,17.9949073 L15,18 L14.8833789,17.9932723 C14.3860402,17.9355072 14,17.5128358 14,17 C14,16.4871642 14.3860402,16.0644928 14.8833789,16.0067277 L15,16 C15.5128358,16 15.9355072,15.6139598 15.9932723,15.1166211 L16,15 L16,9 C16,8.48716416 15.6139598,8.06449284 15.1166211,8.00672773 L15,8 L14.8833789,7.99327227 C14.3860402,7.93550716 14,7.51283584 14,7 C14,6.48716416 14.3860402,6.06449284 14.8833789,6.00672773 L15,6 Z M9,6 L9.11662113,6.00672773 C9.61395981,6.06449284 10,6.48716416 10,7 C10,7.51283584 9.61395981,7.93550716 9.11662113,7.99327227 L9,8 C8.48716416,8 8.06449284,8.38604019 8.00672773,8.88337887 L8,9 L8,15 C8,15.5128358 8.38604019,15.9355072 8.88337887,15.9932723 L9,16 C9.55228475,16 10,16.4477153 10,17 C10,17.5128358 9.61395981,17.9355072 9.11662113,17.9932723 L9,18 L8.82372721,17.9949073 C7.30724616,17.9070404 6.09295962,16.6927538 6.00509269,15.1762728 L6,15 L6,9 C6,7.40231912 7.24891996,6.09633912 8.82372721,6.00509269 L9,6 Z M13.4472136,9.10557281 C13.9059079,9.33491997 14.1113142,9.86922917 13.9405643,10.3398958 L13.8944272,10.4472136 L11.8944272,14.4472136 C11.6474379,14.9411921 11.0467649,15.1414164 10.5527864,14.8944272 C10.0940921,14.66508 9.88868578,14.1307708 10.0594357,13.6601042 L10.1055728,13.5527864 L12.1055728,9.5527864 C12.3525621,9.05880791 12.9532351,8.85858356 13.4472136,9.10557281 Z" transform="translate(-6 -6)"/>
</svg>
