<svg xmlns="http://www.w3.org/2000/svg" width="24" height="24" viewBox="0 0 24 24">
  <path fill="#758CA3" fill-rule="evenodd" d="M5,21 C5,21.5522847 5.44771525,22 6,22 L18,22 C18.5522847,22 19,21.5522847 19,21 L19,9 L5,9 L5,21 Z M17,3 L19,3 C20.6568542,3 22,4.34314575 22,6 L22,8 C22,8.55228475 21.5522847,9 21,9 L21,21 C21,22.6568542 19.6568542,24 18,24 L6,24 C4.34314575,24 3,22.6568542 3,21 L3,9 C2.44771525,9 2,8.55228475 2,8 L2,6 C2,4.34314575 3.34314575,3 5,3 L7,3 C7,1.34314575 8.34314575,0 10,0 L14,0 C15.6568542,0 17,1.34314575 17,3 Z M7,13 L7,18 C7,18.5522847 7.44771525,19 8,19 C8.55228475,19 9,18.5522847 9,18 L9,13 C9,12.4477153 8.55228475,12 8,12 C7.44771525,12 7,12.4477153 7,13 Z M11,13 L11,18 C11,18.5522847 11.4477153,19 12,19 C12.5522847,19 13,18.5522847 13,18 L13,13 C13,12.4477153 12.5522847,12 12,12 C11.4477153,12 11,12.4477153 11,13 Z M15,13 L15,18 C15,18.5522847 15.4477153,19 16,19 C16.5522847,19 17,18.5522847 17,18 L17,13 C17,12.4477153 16.5522847,12 16,12 C15.4477153,12 15,12.4477153 15,13 Z M10,2 C9.44771525,2 9,2.44771525 9,3 L15,3 C15,2.44771525 14.5522847,2 14,2 L10,2 Z M4,7 L20,7 L20,6 C20,5.44771525 19.5522847,5 19,5 L5,5 C4.44771525,5 4,5.44771525 4,6 L4,7 Z"/>
</svg>
