<svg xmlns="http://www.w3.org/2000/svg" width="24" height="24" viewBox="0 0 24 24">
  <path fill="#758CA3" fill-rule="evenodd" d="M5,4 C3.34314575,4 2,5.34314575 2,7 L2,19.9867872 L5.64242308,17 L19,17 C20.6568542,17 22,15.6568542 22,14 L22,7 C22,5.34314575 20.6568542,4 19,4 L5,4 Z M6.35757692,19 L3.26815925,21.5333227 C2.41403126,22.2337077 1.15384949,22.1090744 0.453464477,21.2549465 C0.160245796,20.8973627 2.22044605e-15,20.4492192 2.22044605e-15,19.9867872 L0,7 C-2.77555756e-16,4.23857625 2.23857625,2 5,2 L19,2 C21.7614237,2 24,4.23857625 24,7 L24,14 C24,16.7614237 21.7614237,19 19,19 L6.35757692,19 Z"/>
</svg>
