<svg xmlns="http://www.w3.org/2000/svg" width="16" height="16" viewBox="0 0 16 16">
  <path fill="#758CA3" fill-rule="evenodd" d="M8,9 L8,9 C8.55228475,9 9,9.44771525 9,10 L9,11 C9,11.5522847 8.55228475,12 8,12 L8,12 C7.44771525,12 7,11.5522847 7,11 L7,10 C7,9.44771525 7.44771525,9 8,9 Z M11.9834968,6.25812236 C12.5903874,6.60152171 13,7.25292578 13,8 L13,14 C13,15.1045695 12.1045695,16 11,16 L5,16 C3.8954305,16 3,15.1045695 3,14 L3,8 C3,7.25292578 3.40961258,6.60152171 4.01650316,6.25812236 C4.00561464,6.17362011 4,6.08746574 4,6 L4,3.5 C4,1.56700338 5.56700338,4.4408921e-16 7.5,0 L8.5,0 C10.4329966,-4.4408921e-16 12,1.56700338 12,3.5 L12,6 C12,6.08746574 11.9943854,6.17362011 11.9834968,6.25812236 Z M6,8 L5,8 L5,14 L11,14 L11,8 L10,8 L6,8 Z M7.5,2 C6.67157288,2 6,2.67157288 6,3.5 L6,6 L10,6 L10,3.5 C10,2.67157288 9.32842712,2 8.5,2 L7.5,2 Z"/>
</svg>
