<svg xmlns="http://www.w3.org/2000/svg" width="12" height="12" viewBox="0 0 12 12">
  <path fill="#758CA3" fill-rule="evenodd" d="M1.58971253,2.98881775 L0.313164938,1.70513281 C-0.0762691466,1.31352135 -0.0745040323,0.680358829 0.317107431,0.290924744 C0.708718895,-0.0985093404 1.34188141,-0.0967442262 1.7313155,0.294867237 L3.7090753,2.28368497 C4.09697493,2.67375339 4.09697493,3.30388211 3.7090753,3.69395054 L1.7090753,5.70513281 C1.31964122,6.09674428 0.686478701,6.09850939 0.294867237,5.7090753 C-0.0967442262,5.31964122 -0.0985093404,4.6864787 0.290924744,4.29486724 L1.58971253,2.98881775 Z M6,1 C6,0.44771525 6.44771525,0 7,0 L11,0 C11.5522847,0 12,0.44771525 12,1 L12,11 C12,11.5522847 11.5522847,12 11,12 L7,12 C6.44771525,12 6,11.5522847 6,11 L6,1 Z M8,2 L8,10 L10,10 L10,2 L8,2 Z"/>
</svg>
