<svg xmlns="http://www.w3.org/2000/svg" width="12" height="12" viewBox="0 0 12 12">
  <path fill="#758CA3" fill-rule="evenodd" d="M2.83380962,6 L0.142507074,1.51449576 C-0.141641085,1.04091549 0.0119239786,0.426655234 0.485504245,0.142507074 C0.959084511,-0.141641085 1.57334477,0.0119239786 1.85749293,0.485504245 L4,4.05634937 L6.14250707,0.485504245 C6.42665523,0.0119239786 7.04091549,-0.141641085 7.51449576,0.142507074 C7.98807602,0.426655234 8.14164109,1.04091549 7.85749293,1.51449576 L5.16619038,6 L7.85749293,10.4855042 C8.14164109,10.9590845 7.98807602,11.5733448 7.51449576,11.8574929 C7.04091549,12.1416411 6.42665523,11.988076 6.14250707,11.5144958 L4,7.94365063 L1.85749293,11.5144958 C1.57334477,11.988076 0.959084511,12.1416411 0.485504245,11.8574929 C0.0119239786,11.5733448 -0.141641085,10.9590845 0.142507074,10.4855042 L2.83380962,6 Z M10.5,4 C9.67157288,4 9,3.32842712 9,2.5 C9,1.67157288 9.67157288,1 10.5,1 C11.3284271,1 12,1.67157288 12,2.5 C12,3.32842712 11.3284271,4 10.5,4 Z"/>
</svg>
