<svg xmlns="http://www.w3.org/2000/svg" width="12" height="12" viewBox="0 0 12 12">
  <path fill="#758CA3" d="M1.58971253,2.98881773 L0.313164938,1.70513279 C-0.0762691466,1.31352132 -0.0745040323,0.680358805 0.317107431,0.29092472 C0.708718895,-0.0985093648 1.34188141,-0.0967442506 1.7313155,0.294867213 L3.7090753,2.28368494 C4.09697493,2.67375337 4.09697493,3.30388209 3.7090753,3.69395052 L1.7090753,5.70513279 C1.31964122,6.09674425 0.686478701,6.09850936 0.294867237,5.70907528 C-0.0967442262,5.3196412 -0.0985093404,4.68647868 0.290924744,4.29486721 L1.58971253,2.98881773 Z M12,8.16139589 L12,10.8474607 C12.0085251,10.899999 12.0129566,10.9539103 12.0129566,11.0088566 C12.0129566,11.5611413 11.5652414,12.0088566 11.0129566,12.0088566 L1,12.0088566 C0.44771525,12.0088566 9.05941988e-14,11.5611413 9.05941988e-14,11.0088566 L9.05941988e-14,8 C9.06936116e-14,7.44771525 0.44771525,7 1,7 L11.0129566,7 C11.5652414,7 12.0129566,7.44771525 12.0129566,8 C12.0129566,8.0549463 12.0085251,8.10885757 12,8.16139589 Z M10,9 L2,9 L2,10.0088566 L10,10.0088566 L10,9 Z"/>
</svg>
