<svg width="24" height="24" viewBox="0 0 24 24" fill="none" xmlns="http://www.w3.org/2000/svg">
<path fill-rule="evenodd" clip-rule="evenodd" d="M23.7296 0.270363C24.0901 0.630847 24.0901 1.21531 23.7296 1.57579L1.57579 23.7296C1.21531 24.0901 0.630847 24.0901 0.270363 23.7296C-0.090121 23.3692 -0.090121 22.7847 0.270363 22.4242L22.4242 0.270363C22.7847 -0.090121 23.3692 -0.090121 23.7296 0.270363Z" fill="#94A6B8"/>
<path fill-rule="evenodd" clip-rule="evenodd" d="M20 11C20.5523 11 21 11.4477 21 12C21 12.5523 20.5523 13 20 13C19.4477 13 19 12.5523 19 12C19 11.4477 19.4477 11 20 11ZM3 3H21C22.6569 3 24 4.34315 24 6V18C24 19.6569 22.6569 21 21 21H3C1.34315 21 1.37554e-08 19.6569 1.37554e-08 18V6C1.37554e-08 4.34315 1.34315 3 3 3ZM3 5C2.44772 5 2 5.44772 2 6V18C2 18.5523 2.44772 19 3 19H21C21.5523 19 22 18.5523 22 18V6C22 5.44772 21.5523 5 21 5H3Z" fill="#94A6B8"/>
</svg>
