<svg xmlns="http://www.w3.org/2000/svg" width="16" height="16" viewBox="0 0 16 16">
  <path fill="#758CA3" fill-rule="evenodd" d="M9.83333333,8.08333333 C9.83333333,10.2464486 8.07978194,12 5.91666667,12 C3.7535514,12 2,10.2464486 2,8.08333333 L2,1.43749996 C2,0.643590652 2.64359065,4.4408921e-16 3.43749996,4.4408921e-16 L10.0833333,0 C12.2464486,0 14,1.7535514 14,3.91666667 C14,6.07978194 12.2464486,7.83333333 10.0833333,7.83333333 L9.83333333,7.83333333 L9.83333333,8.08333333 Z M4,2 L4,8.08333333 C4,9.1418791 4.8581209,10 5.91666667,10 C6.97521244,10 7.83333333,9.1418791 7.83333333,8.08333333 L7.83333333,5.83333333 L10.0833333,5.83333333 C11.1418791,5.83333333 12,4.97521244 12,3.91666667 C12,2.8581209 11.1418791,2 10.0833333,2 L4,2 Z" transform="rotate(-135 8 6)"/>
</svg>
