<svg width="24" height="24" viewBox="0 0 24 24" fill="none" xmlns="http://www.w3.org/2000/svg">
<path fill-rule="evenodd" clip-rule="evenodd" d="M23.7296 0.270363C24.0901 0.630847 24.0901 1.21531 23.7296 1.57579L1.57579 23.7296C1.21531 24.0901 0.630847 24.0901 0.270363 23.7296C-0.090121 23.3692 -0.090121 22.7847 0.270363 22.4242L22.4242 0.270363C22.7847 -0.090121 23.3692 -0.090121 23.7296 0.270363Z" fill="#94A6B8"/>
<path fill-rule="evenodd" clip-rule="evenodd" d="M12 19C12.5523 19 13 19.4477 13 20C13 20.5523 12.5523 21 12 21C11.4477 21 11 20.5523 11 20C11 19.4477 11.4477 19 12 19ZM7 1.37557e-08H17C18.6569 1.37557e-08 20 1.34315 20 3V21C20 22.6569 18.6569 24 17 24H7C5.34315 24 4 22.6569 4 21V3C4 1.34315 5.34315 1.37557e-08 7 1.37557e-08ZM7 2C6.44772 2 6 2.44772 6 3V21C6 21.5523 6.44772 22 7 22H17C17.5523 22 18 21.5523 18 21V3C18 2.44772 17.5523 2 17 2H7Z" fill="#94A6B8"/>
</svg>
