<svg xmlns="http://www.w3.org/2000/svg" width="24" height="24" viewBox="0 0 24 24">
  <path fill="#758CA3" fill-rule="evenodd" d="M6.16970446,5.34683573 L9.9486833,16.6837722 C10.1060542,17.1558848 9.89232562,17.6718712 9.4472136,17.8944272 L8.57770876,18.3291796 C6.32548884,19.4552896 3.67451116,19.4552896 1.42229124,18.3291796 L0.552786405,17.8944272 C0.107674376,17.6718712 -0.106054165,17.1558848 0.0513167019,16.6837722 L3.71231623,5.70077364 C3.2069479,5.78622544 2.701549,5.8794941 2.19611614,5.98058068 C1.65455638,6.08889263 1.12773127,5.73767589 1.01941932,5.19611614 C0.911107374,4.65455638 1.26232411,4.12773127 1.80388386,4.01941932 C4.86832475,3.40653115 7.93392153,3.06992317 11,3.00980391 L11,2 C11,1.44771525 11.4477153,1 12,1 C12.5522847,1 13,1.44771525 13,2 L13,3.00980391 C16.0660785,3.06992317 19.1316752,3.40653115 22.1961161,4.01941932 C22.7376759,4.12773127 23.0888926,4.65455638 22.9805807,5.19611614 C22.8722687,5.73767589 22.3454436,6.08889263 21.8038839,5.98058068 C21.298451,5.8794941 20.7930521,5.78622544 20.2876838,5.70077364 L23.9486833,16.6837722 C24.1060542,17.1558848 23.8923256,17.6718712 23.4472136,17.8944272 L22.5777088,18.3291796 C20.3254888,19.4552896 17.6745112,19.4552896 15.4222912,18.3291796 L14.5527864,17.8944272 C14.1076744,17.6718712 13.8939458,17.1558848 14.0513167,16.6837722 L17.8302955,5.34683573 C16.2199791,5.1552587 14.6099172,5.04305949 13,5.01020409 L13,21 L16,21 C16.5522847,21 17,21.4477153 17,22 C17,22.5522847 16.5522847,23 16,23 L8,23 C7.44771525,23 7,22.5522847 7,22 C7,21.4477153 7.44771525,21 8,21 L11,21 L11,5.01020409 C9.39008278,5.04305949 7.78002091,5.1552587 6.16970446,5.34683573 Z M21.7770538,16.4934391 L19,8.16227766 L16.2229462,16.4934391 L16.3167184,16.5403252 C18.0058834,17.3849077 19.9941166,17.3849077 21.6832816,16.5403252 L21.7770538,16.4934391 Z M5,8.16227766 L2.22294619,16.4934391 L2.31671843,16.5403252 C4.00588337,17.3849077 5.99411663,17.3849077 7.68328157,16.5403252 L7.77705381,16.4934391 L5,8.16227766 Z"/>
</svg>
