<svg xmlns="http://www.w3.org/2000/svg" width="16" height="16" viewBox="0 0 16 16">
  <path fill="#758CA3" fill-rule="evenodd" d="M7,6 C7,6.55228475 6.55228475,7 6,7 C5.44771525,7 5,6.55228475 5,6 C5,4.44771525 6.44771525,3 8,3 C9.55228475,3 11,4.44771525 11,6 C11,7.28498048 10.5004197,7.86782412 9.4472136,8.39442719 C9.00041974,8.61782412 9,8.61831382 9,9 C9,9.55228475 8.55228475,10 8,10 C7.44771525,10 7,9.55228475 7,9 C7,7.71501952 7.49958026,7.13217588 8.5527864,6.60557281 C8.99958026,6.38217588 9,6.38168618 9,6 C9,5.55228475 8.44771525,5 8,5 C7.55228475,5 7,5.55228475 7,6 Z M8,13 C7.44771525,13 7,12.5522847 7,12 C7,11.4477153 7.44771525,11 8,11 C8.55228475,11 9,11.4477153 9,12 C9,12.5522847 8.55228475,13 8,13 Z"/>
</svg>
