<svg xmlns="http://www.w3.org/2000/svg" width="24" height="24" viewBox="0 0 24 24">
  <path fill="#758CA3" fill-rule="evenodd" d="M13 11C14.9509 11 16.2542 10.3277 17.1047 9.19375C17.8601 8.18654 18.1833 6.89179 18.4476 5.83292L18.4701 5.74254C18.7639 4.5674 19.0067 3.65769 19.4953 3.00625C19.9105 2.45271 20.5759 2 22 2C22.5523 2 23 1.55228 23 1C23 0.447715 22.5523 0 22 0C20.0491 0 18.7458 0.672288 17.8953 1.80625C17.1399 2.81346 16.8167 4.10821 16.5524 5.16708L16.5299 5.25746C16.2361 6.4326 15.9933 7.34231 15.5047 7.99375C15.0895 8.54729 14.4241 9 13 9C12.4477 9 12 9.44771 12 10C12 10.5523 12.4477 11 13 11ZM8.20161 0.400757C8.53314 -0.0409558 9.15997 -0.130281 9.60168 0.201244C10.2319 0.674222 10.7627 1.26669 11.1639 1.94483C11.5651 2.62296 11.8288 3.37348 11.94 4.15353C12.0512 4.93358 12.0076 5.72789 11.8118 6.4911C11.616 7.25431 11.2717 7.97148 10.7988 8.60166C10.4672 9.04338 9.8404 9.1327 9.39868 8.80118C8.95697 8.46965 8.86765 7.84282 9.19917 7.4011C9.51449 6.98098 9.74397 6.50287 9.87452 5.99406C10.0051 5.48526 10.0341 4.95572 9.96 4.43568C9.8859 3.91565 9.71009 3.4153 9.44262 2.96321C9.17514 2.51113 8.82124 2.11615 8.40112 1.80083C7.95941 1.4693 7.87009 0.842469 8.20161 0.400757ZM6 6C6.55228 6 7 5.55228 7 5C7 4.44772 6.55228 4 6 4C5.44772 4 5 4.44772 5 5C5 5.55228 5.44772 6 6 6ZM5.79244 9.0218C6.12357 8.95153 6.46777 9.05355 6.70714 9.29291L14.7071 17.2929C14.9465 17.5323 15.0485 17.8765 14.9782 18.2076C14.908 18.5387 14.675 18.8118 14.359 18.9334L1.35901 23.9334C0.99016 24.0752 0.572363 23.9866 0.292922 23.7071C0.0134815 23.4277 -0.0751812 23.0099 0.0666833 22.641L5.06668 9.64104C5.1882 9.32509 5.4613 9.09207 5.79244 9.0218ZM6.38099 11.7952L5.22218 14.8081L9.19195 18.7779L12.2049 17.6191L6.38099 11.7952ZM2.74108 21.259L4.43651 16.8508L7.1492 19.5635L2.74108 21.259ZM19 19C19.5523 19 20 18.5523 20 18C20 17.4477 19.5523 17 19 17C18.4477 17 18 17.4477 18 18C18 18.5523 18.4477 19 19 19ZM18.0079 14.125C18.5168 13.9947 19.0464 13.9659 19.5663 14.0403C20.0863 14.1147 20.5866 14.2907 21.0386 14.5584C21.4905 14.8261 21.8853 15.1802 22.2004 15.6005C22.5317 16.0424 23.1585 16.1321 23.6004 15.8008C24.0423 15.4695 24.1319 14.8427 23.8006 14.4008C23.3279 13.7704 22.7358 13.2392 22.0578 12.8377C21.3799 12.4361 20.6295 12.172 19.8495 12.0604C19.0695 11.9489 18.2752 11.992 17.5119 12.1875C16.7486 12.3829 16.0312 12.7268 15.4008 13.1994C14.9589 13.5307 14.8693 14.1575 15.2006 14.5994C15.5319 15.0413 16.1587 15.1309 16.6005 14.7996C17.0208 14.4845 17.4991 14.2553 18.0079 14.125Z"/>
</svg>
