<svg xmlns="http://www.w3.org/2000/svg" width="16" height="16" viewBox="0 0 16 16">
  <path fill="#758CA3" fill-rule="evenodd" d="M10.5566298,11.8965864 L10.3488747,12.7276069 C10.0149994,14.0631079 8.81505011,15 7.43844719,15 L7,15 C6.79056281,15 6.5819161,14.9743144 6.37873219,14.9235184 C5.00626523,14.5804017 4.17181201,13.1896463 4.51492875,11.8171794 L4.71922359,11 L4,11 C2.34314575,11 1,9.65685425 1,8 L1,6 C1,3.23857625 3.23857625,1 6,1 L11,1 L15,1 C15.5522847,1 16,1.44771525 16,2 L16,11 C16,11.5522847 15.5522847,12 15,12 L11,12 C10.8407778,12 10.6902469,11.962788 10.5566298,11.8965864 Z M10,9 L10,3 L6,3 C4.34314575,3 3,4.34314575 3,6 L3,8 C3,8.55228475 3.44771525,9 4,9 L6,9 C6.65057115,9 7.12792918,9.6113889 6.9701425,10.2425356 L6.45521375,12.3022506 C6.37999447,12.6031278 6.5629263,12.9080142 6.86380344,12.9832334 C6.90834615,12.9943691 6.95408643,13 7,13 L7.43844719,13 C7.89731483,13 8.29729794,12.6877026 8.40858969,12.2425356 L9.0298575,9.75746437 C9.14114925,9.31229737 9.54113236,9 10,9 Z M12,10 L14,10 L14,3 L12,3 L12,10 Z"/>
</svg>
