<!-- @deprecated tag:v6.5.0 - Will be removed. See src/Administration/Resources/app/administration/src/app/component/base/sw-icon/legacy-icon-mapping.js for replacement -->

<svg xmlns="http://www.w3.org/2000/svg" xmlns:xlink="http://www.w3.org/1999/xlink" width="28" height="24" viewBox="0 0 28 24">
  <defs>
    <path id="icons-multicolor-folder-breadcrumbs-dropdown-a" d="M5.70710678,6.29289322 C5.31658249,5.90236893 4.68341751,5.90236893 4.29289322,6.29289322 C3.90236893,6.68341751 3.90236893,7.31658249 4.29289322,7.70710678 L7.29289322,10.7071068 C7.68341751,11.0976311 8.31658249,11.0976311 8.70710678,10.7071068 L11.7071068,7.70710678 C12.0976311,7.31658249 12.0976311,6.68341751 11.7071068,6.29289322 C11.3165825,5.90236893 10.6834175,5.90236893 10.2928932,6.29289322 L8,8.58578644 L5.70710678,6.29289322 Z"/>
  </defs>
  <g fill="none" fill-rule="evenodd">
    <path fill="#EDF8FF" stroke="#189EFF" d="M2,0.5 C1.17157288,0.5 0.5,1.17157288 0.5,2 L0.5,22 C0.5,22.8284271 1.17157288,23.5 2,23.5 L26,23.5 C26.8284271,23.5 27.5,22.8284271 27.5,22 L27.5,6 C27.5,5.17157288 26.8284271,4.5 26,4.5 L15.8284271,4.5 C15.1653859,4.5 14.5295011,4.2366079 14.0606602,3.76776695 L11.232233,0.939339828 C10.9509285,0.658035261 10.5693976,0.5 10.1715729,0.5 L2,0.5 Z"/>
    <use fill="#189EFF" transform="matrix(-1 0 0 1 22 6)" xlink:href="#icons-multicolor-folder-breadcrumbs-dropdown-a"/>
  </g>
</svg>
