<svg xmlns="http://www.w3.org/2000/svg" width="24" height="24" viewBox="0 0 24 24">
  <path fill="#758CA3" fill-rule="evenodd" d="M21.9506248,11 C21.4489003,5.94667731 17.1853481,2 12,2 C6.8146519,2 2.55109967,5.94667731 2.04937524,11 L6.46481624,11 L10.1679497,5.4452998 C10.6708062,4.69101512 11.8373601,4.94139806 11.9863939,5.83560101 L13.5706649,15.341227 L16.1679497,11.4452998 C16.3534155,11.1671011 16.6656468,11 17,11 L21.9506248,11 Z M21.9506248,13 L17.5351838,13 L13.8320503,18.5547002 C13.3291938,19.3089849 12.1626399,19.0586019 12.0136061,18.164399 L10.4293351,8.65877302 L7.83205029,12.5547002 C7.64658452,12.8328989 7.33435319,13 7,13 L2.04937524,13 C2.55109967,18.0533227 6.8146519,22 12,22 C17.1853481,22 21.4489003,18.0533227 21.9506248,13 Z M24,12 C24,18.627417 18.627417,24 12,24 C5.372583,24 8.11624501e-16,18.627417 0,12 C-6.14069502e-15,5.372583 5.372583,2.10561549e-15 12,8.8817842e-16 C18.627417,-2.10561549e-15 24,5.372583 24,12 Z"/>
</svg>
