<svg xmlns="http://www.w3.org/2000/svg" width="16" height="16" viewBox="0 0 16 16">
  <path fill="#758CA3" fill-rule="evenodd" d="M6,6 L11,6 C12.1045695,6 13,6.8954305 13,8 L13,14 C13,15.1045695 12.1045695,16 11,16 L5,16 C3.8954305,16 3,15.1045695 3,14 L3,8 C3,7.25971764 3.40219863,6.61337381 4,6.26756439 L4,3.5 C4,1.56700338 5.56700338,4.4408921e-16 7.5,0 L8.5,0 C10.4329966,-4.4408921e-16 12,1.56700338 12,3.5 L12,4 L10,4 L10,3.5 C10,2.67157288 9.32842712,2 8.5,2 L7.5,2 C6.67157288,2 6,2.67157288 6,3.5 L6,6 Z M5.25382206,8 L5,8 L5,14 L11,14 L11,8 L10.7461779,8 C10.515608,8.00596293 10.2637669,8 10,8 L6,8 C5.73623308,8 5.48439202,8.00596293 5.25382206,8 Z M8,9 C8.55228475,9 9,9.44771525 9,10 L9,11 C9,11.5522847 8.55228475,12 8,12 C7.44771525,12 7,11.5522847 7,11 L7,10 C7,9.44771525 7.44771525,9 8,9 Z"/>
</svg>
