<svg xmlns="http://www.w3.org/2000/svg" width="12" height="12" viewBox="0 0 12 12">
  <path fill="#758CA3" fill-rule="evenodd" d="M12,1.1525393 L12,3.83860411 C12.0085251,3.89114243 12.0129566,3.9450537 12.0129566,4 C12.0129566,4.55228475 11.5652414,5 11.0129566,5 L1,5 C0.44771525,5 1.35058631e-13,4.55228475 1.35058631e-13,4 L1.35058631e-13,0.991143416 C1.35058631e-13,0.438858666 0.44771525,-0.00885658449 1,-0.00885658449 L11.0129566,-0.00885658449 C11.5652414,-0.00885658449 12.0129566,0.438858666 12.0129566,0.991143416 C12.0129566,1.04608972 12.0085251,1.10000099 12,1.1525393 L12,1.1525393 Z M10,1.99114342 L2,1.99114342 L2,3 L10,3 L10,1.99114342 Z M1.58971252,8.98881773 L0.313164936,7.7051328 C-0.0762691461,7.31352134 -0.0745040319,6.68035882 0.317107429,6.29092474 C0.708718891,5.90149066 1.34188141,5.90325577 1.73131549,6.29486723 L3.70907528,8.28368495 C4.09697491,8.67375337 4.09697491,9.30388209 3.70907528,9.69395051 L1.70907529,11.7051328 C1.31964121,12.0967442 0.686478697,12.0985093 0.294867236,11.7090753 C-0.0967442256,11.3196412 -0.0985093398,10.6864787 0.290924743,10.2948672 L1.58971252,8.98881773 Z"/>
</svg>
