<svg width="24" height="24" viewBox="0 0 24 24" fill="none" xmlns="http://www.w3.org/2000/svg">
<path fill-rule="evenodd" clip-rule="evenodd" d="M23.7296 0.270363C24.0901 0.630847 24.0901 1.21531 23.7296 1.57579L1.57579 23.7296C1.21531 24.0901 0.630847 24.0901 0.270363 23.7296C-0.090121 23.3692 -0.090121 22.7847 0.270363 22.4242L22.4242 0.270363C22.7847 -0.090121 23.3692 -0.090121 23.7296 0.270363Z" fill="#94A6B8"/>
<path fill-rule="evenodd" clip-rule="evenodd" d="M3 4C2.44772 4 2 4.44772 2 5V16C2 16.5523 2.44772 17 3 17H21C21.5523 17 22 16.5523 22 16V5C22 4.44772 21.5523 4 21 4H3ZM3 2H21C22.6569 2 24 3.34315 24 5V16C24 17.6569 22.6569 19 21 19H3C1.34315 19 1.37554e-08 17.6569 1.37554e-08 16V5C1.37554e-08 3.34315 1.34315 2 3 2ZM16 20C16.5523 20 17 20.4477 17 21C17 21.5523 16.5523 22 16 22H8C7.44772 22 7 21.5523 7 21C7 20.4477 7.44772 20 8 20H16Z" fill="#94A6B8"/>
</svg>
