<svg xmlns="http://www.w3.org/2000/svg" width="24" height="24" viewBox="0 0 24 24">
  <path fill="#758CA3" fill-rule="evenodd" d="M8,3 C5.790861,3 4,4.790861 4,7 C4,9.209139 5.790861,11 8,11 C10.209139,11 12,9.209139 12,7 C12,4.790861 10.209139,3 8,3 Z M8,1 C11.3137085,1 14,3.6862915 14,7 C14,10.3137085 11.3137085,13 8,13 C4.6862915,13 2,10.3137085 2,7 C2,3.6862915 4.6862915,1 8,1 Z M2,22.0990195 C2,22.6513043 1.55228475,23.0990195 1,23.0990195 C0.44771525,23.0990195 0,22.6513043 0,22.0990195 L0,20 C-2.77555756e-16,17.2385763 2.23857625,15 5,15 L11.0007003,15 C13.7621241,15 16.0007003,17.2385763 16.0007003,20 L16.0007003,22.0990195 C16.0007003,22.6513043 15.5529851,23.0990195 15.0007003,23.0990195 C14.4484156,23.0990195 14.0007003,22.6513043 14.0007003,22.0990195 L14.0007003,20 C14.0007003,18.3431458 12.6575546,17 11.0007003,17 L5,17 C3.34314575,17 2,18.3431458 2,20 L2,22.0990195 Z M15.8010678,3.08003137 C15.2598214,2.97016416 14.9101195,2.4423323 15.0199867,1.90108592 C15.129854,1.35983955 15.6576858,1.01013764 16.1989322,1.12000486 C18.9750987,1.68353692 21,4.13340058 21,7 C21,9.86659942 18.9750987,12.3164631 16.1989322,12.8799951 C15.6576858,12.9898624 15.129854,12.6401605 15.0199867,12.0989141 C14.9101195,11.5576677 15.2598214,11.0298358 15.8010678,10.9199686 C17.6494777,10.5447612 19,8.91080725 19,7 C19,5.08919275 17.6494777,3.45523878 15.8010678,3.08003137 Z M19.0007003,17 C18.4484156,17 18.0007003,16.5522847 18.0007003,16 C18.0007003,15.4477153 18.4484156,15 19.0007003,15 C21.7621241,15 24.0007003,17.2385763 24.0007003,20 L24.0007003,22.0990195 C24.0007003,22.6513043 23.5529851,23.0990195 23.0007003,23.0990195 C22.4484156,23.0990195 22.0007003,22.6513043 22.0007003,22.0990195 L22.0007003,20 C22.0007003,18.3431458 20.6575546,17 19.0007003,17 Z"/>
</svg>
