<svg width="16" height="16" viewBox="0 0 16 16" fill="none" xmlns="http://www.w3.org/2000/svg">
<path d="M8.64645 5.35355L8.79289 5.5H9H11.105C11.3597 5.5 11.5738 5.69157 11.6019 5.94478L12.3797 12.9448C12.4126 13.241 12.1807 13.5 11.8827 13.5H2.91321C2.65461 13.5 2.43868 13.3028 2.41527 13.0453L1.59709 4.04527C1.57047 3.75246 1.80102 3.5 2.09503 3.5H6.79289L8.64645 5.35355Z" fill="white" stroke="#189EFF"/>
<path d="M15.0869 6.15811L12.7536 13.1581C12.6855 13.3623 12.4945 13.5 12.2792 13.5H3.38743C3.04615 13.5 2.80516 13.1657 2.91308 12.8419L5.24642 5.84189C5.31447 5.63771 5.50554 5.5 5.72076 5.5H14.6126C14.9539 5.5 15.1948 5.83435 15.0869 6.15811Z" fill="#E3F3FF" stroke="#189EFF"/>
</svg>
