<svg width="32" height="28" viewBox="0 0 32 28" fill="none" xmlns="http://www.w3.org/2000/svg">
<path d="M31.5 6.57143V26C31.5 26.8284 30.8284 27.5 30 27.5H2C1.17157 27.5 0.5 26.8284 0.5 26V2C0.5 1.17157 1.17157 0.5 2 0.5H12.8859C13.2837 0.5 13.6652 0.658035 13.9465 0.93934L17.3464 4.3392C17.8152 4.80804 18.4511 5.07143 19.1141 5.07143H30C30.8284 5.07143 31.5 5.743 31.5 6.57143Z" fill="#E3F3FF" stroke="#189EFF"/>
<path fill-rule="evenodd" clip-rule="evenodd" d="M18.7071 19.2929C19.0976 19.6834 19.0976 20.3166 18.7071 20.7071C18.3166 21.0976 17.6834 21.0976 17.2929 20.7071L13.2929 16.7071C12.9024 16.3166 12.9024 15.6834 13.2929 15.2929L17.2929 11.2929C17.6834 10.9024 18.3166 10.9024 18.7071 11.2929C19.0976 11.6834 19.0976 12.3166 18.7071 12.7071L15.4142 16L18.7071 19.2929Z" fill="#189EFF"/>
</svg>
