<svg width="64" height="56" viewBox="0 0 64 56" fill="none" xmlns="http://www.w3.org/2000/svg">
<path d="M63.5 13V52C63.5 53.933 61.933 55.5 60 55.5H4C2.067 55.5 0.5 53.933 0.5 52V4C0.5 2.067 2.067 0.5 4 0.5H25.3431C26.2714 0.5 27.1616 0.868749 27.818 1.52513L34.4749 8.18198C35.3188 9.0259 36.4634 9.5 37.6569 9.5H60C61.933 9.5 63.5 11.067 63.5 13Z" fill="#E3F3FF" stroke="#189EFF"/>
<path fill-rule="evenodd" clip-rule="evenodd" d="M35.0893 37.4108C35.4147 37.7362 35.4147 38.2638 35.0893 38.5893C34.7638 38.9147 34.2362 38.9147 33.9107 38.5893L28.9107 33.5893C28.5853 33.2638 28.5853 32.7362 28.9107 32.4108L33.9107 27.4108C34.2362 27.0853 34.7638 27.0853 35.0893 27.4108C35.4147 27.7362 35.4147 28.2638 35.0893 28.5893L30.6785 33L35.0893 37.4108Z" fill="#189EFF"/>
</svg>
