<!-- @deprecated tag:v6.5.0 - Will be removed. See src/Administration/Resources/app/administration/src/app/component/base/sw-icon/legacy-icon-mapping.js for replacement -->

<svg xmlns="http://www.w3.org/2000/svg" width="16" height="16" viewBox="0 0 16 16">
  <g fill="none" fill-rule="evenodd">
    <path fill="#F5EDFD" fill-rule="nonzero" stroke="#932AEF" d="M3,3.5 C2.72385763,3.5 2.5,3.72385763 2.5,4 L2.5,12 C2.5,12.2761424 2.72385763,12.5 3,12.5 L13,12.5 C13.2761424,12.5 13.5,12.2761424 13.5,12 L13.5,4 C13.5,3.72385763 13.2761424,3.5 13,3.5 L3,3.5 Z"/>
    <path fill="#932AEF" d="M7,6.37370342 L7,9.62629658 C7,9.73675353 7.08954305,9.82629658 7.2,9.82629658 C7.239485,9.82629658 7.27808654,9.81460898 7.31094004,9.79270664 L9.75038491,8.16641006 C9.84229065,8.10513957 9.86712542,7.9809657 9.80585493,7.88905996 C9.79120796,7.8670895 9.77235537,7.84823691 9.75038491,7.83358994 L7.31094004,6.20729336 C7.2190343,6.14602287 7.09486043,6.17085764 7.03358994,6.26276338 C7.01168761,6.29561688 7,6.33421842 7,6.37370342 Z"/>
  </g>
</svg>
