<!-- @deprecated tag:v6.5.0 - Will be removed. See src/Administration/Resources/app/administration/src/app/component/base/sw-icon/legacy-icon-mapping.js for replacement -->

<svg xmlns="http://www.w3.org/2000/svg" width="28" height="24" viewBox="0 0 28 24">
  <g fill="none" fill-rule="evenodd">
    <path fill="#EDF8FF" stroke="#189EFF" d="M2,0.5 C1.17157288,0.5 0.5,1.17157288 0.5,2 L0.5,22 C0.5,22.8284271 1.17157288,23.5 2,23.5 L26,23.5 C26.8284271,23.5 27.5,22.8284271 27.5,22 L27.5,6 C27.5,5.17157288 26.8284271,4.5 26,4.5 L15.8284271,4.5 C15.1653859,4.5 14.5295011,4.2366079 14.0606602,3.76776695 L11.232233,0.939339828 C10.9509285,0.658035261 10.5693976,0.5 10.1715729,0.5 L2,0.5 Z"/>
    <path fill="#189EFF" d="M10.2928932,3.79289322 C10.6834175,3.40236893 11.3165825,3.40236893 11.7071068,3.79289322 C12.0976311,4.18341751 12.0976311,4.81658249 11.7071068,5.20710678 L8.70710678,8.20710678 C8.31658249,8.59763107 7.68341751,8.59763107 7.29289322,8.20710678 L4.29289322,5.20710678 C3.90236893,4.81658249 3.90236893,4.18341751 4.29289322,3.79289322 C4.68341751,3.40236893 5.31658249,3.40236893 5.70710678,3.79289322 L8,6.08578644 L10.2928932,3.79289322 Z M10.2928932,7.79289322 C10.6834175,7.40236893 11.3165825,7.40236893 11.7071068,7.79289322 C12.0976311,8.18341751 12.0976311,8.81658249 11.7071068,9.20710678 L8.70710678,12.2071068 C8.31658249,12.5976311 7.68341751,12.5976311 7.29289322,12.2071068 L4.29289322,9.20710678 C3.90236893,8.81658249 3.90236893,8.18341751 4.29289322,7.79289322 C4.68341751,7.40236893 5.31658249,7.40236893 5.70710678,7.79289322 L8,10.0857864 L10.2928932,7.79289322 Z" transform="matrix(0 -1 -1 0 22 22)"/>
  </g>
</svg>
