<!-- @deprecated tag:v6.5.0 - Will be removed. See src/Administration/Resources/app/administration/src/app/component/base/sw-icon/legacy-icon-mapping.js for replacement -->

<svg xmlns="http://www.w3.org/2000/svg" xmlns:xlink="http://www.w3.org/1999/xlink" width="64" height="56" viewBox="0 0 64 56">
  <defs>
    <path id="icons-multicolor-folder-thumbnail-back-a" d="M2.70710678,4.29289322 C2.31658249,3.90236893 1.68341751,3.90236893 1.29289322,4.29289322 C0.902368927,4.68341751 0.902368927,5.31658249 1.29289322,5.70710678 L7.29289322,11.7071068 C7.68341751,12.0976311 8.31658249,12.0976311 8.70710678,11.7071068 L14.7071068,5.70710678 C15.0976311,5.31658249 15.0976311,4.68341751 14.7071068,4.29289322 C14.3165825,3.90236893 13.6834175,3.90236893 13.2928932,4.29289322 L8,9.58578644 L2.70710678,4.29289322 Z"/>
  </defs>
  <g fill="none" fill-rule="evenodd">
    <path fill="#EDF8FF" stroke="#189EFF" d="M4,0.5 C2.06700338,0.5 0.5,2.06700338 0.5,4 L0.5,52 C0.5,53.9329966 2.06700338,55.5 4,55.5 L60,55.5 C61.9329966,55.5 63.5,53.9329966 63.5,52 L63.5,12.7272727 C63.5,10.7942761 61.9329966,9.22727273 60,9.22727273 L30.4834673,9.22727273 C29.4531609,9.22727273 28.4751928,8.77331355 27.8101755,7.98636798 L22.232765,1.38636053 C21.7577527,0.824256554 21.059204,0.5 20.3232709,0.5 L4,0.5 Z"/>
    <use fill="#189EFF" transform="matrix(0 -1 -1 0 40 41)" xlink:href="#icons-multicolor-folder-thumbnail-back-a"/>
  </g>
</svg>
