<svg xmlns="http://www.w3.org/2000/svg" xmlns:xlink="http://www.w3.org/1999/xlink" width="16" height="16" viewBox="0 0 16 16"><defs><path id="icons-solid-arrow-360-right" d="M9.5858 5H7.5C5.0147 5 3 7.0147 3 9.5S5.0147 14 7.5 14 12 11.9853 12 9.5c0-.5523.4477-1 1-1s1 .4477 1 1c0 3.5899-2.9101 6.5-6.5 6.5S1 13.0899 1 9.5 3.9101 3 7.5 3h2.0858l-1.293-1.2929c-.3904-.3905-.3904-1.0237 0-1.4142.3906-.3905 1.0238-.3905 1.4143 0l3 3c.3905.3905.3905 1.0237 0 1.4142l-3 3c-.3905.3905-1.0237.3905-1.4142 0-.3905-.3905-.3905-1.0237 0-1.4142L9.5858 5z" /></defs><use xlink:href="#icons-solid-arrow-360-right" fill="#758CA3" fill-rule="evenodd" /></svg>