<svg xmlns="http://www.w3.org/2000/svg" xmlns:xlink="http://www.w3.org/1999/xlink" width="16" height="16" viewBox="0 0 16 16"><defs><path id="icons-solid-arrow-large-double-down" d="M2.7071 1.2929 8 6.5858l5.2929-5.293c.3905-.3904 1.0237-.3904 1.4142 0 .3905.3906.3905 1.0238 0 1.4143l-6 6c-.3905.3905-1.0237.3905-1.4142 0l-6-6c-.3905-.3905-.3905-1.0237 0-1.4142.3905-.3905 1.0237-.3905 1.4142 0zm0 7L8 13.5858l5.2929-5.293c.3905-.3904 1.0237-.3904 1.4142 0 .3905.3906.3905 1.0238 0 1.4143l-6 6c-.3905.3905-1.0237.3905-1.4142 0l-6-6c-.3905-.3905-.3905-1.0237 0-1.4142.3905-.3905 1.0237-.3905 1.4142 0z" /></defs><use xlink:href="#icons-solid-arrow-large-double-down" fill="#758CA3" fill-rule="evenodd" /></svg>