<svg xmlns="http://www.w3.org/2000/svg" xmlns:xlink="http://www.w3.org/1999/xlink" width="16" height="16" viewBox="0 0 16 16"><defs><path id="icons-solid-arrow-reorder" d="M11.5858 12H8c-.5523 0-1-.4477-1-1s.4477-1 1-1h3.5858l-1.293-1.2929c-.3904-.3905-.3904-1.0237 0-1.4142.3906-.3905 1.0238-.3905 1.4143 0l3 3c.3905.3905.3905 1.0237 0 1.4142l-3 3c-.3905.3905-1.0237.3905-1.4142 0-.3905-.3905-.3905-1.0237 0-1.4142L11.5858 12zM4.4142 4H8c.5523 0 1 .4477 1 1s-.4477 1-1 1H4.4142l1.293 1.2929c.3904.3905.3904 1.0237 0 1.4142-.3906.3905-1.0238.3905-1.4143 0l-3-3c-.3905-.3905-.3905-1.0237 0-1.4142l3-3c.3905-.3905 1.0237-.3905 1.4142 0 .3905.3905.3905 1.0237 0 1.4142L4.4142 4z" /></defs><use xlink:href="#icons-solid-arrow-reorder" fill="#758CA3" fill-rule="evenodd" /></svg>