<svg xmlns="http://www.w3.org/2000/svg" xmlns:xlink="http://www.w3.org/1999/xlink" width="16" height="16" viewBox="0 0 16 16"><defs><path id="icons-solid-arrow-next-line" d="M12.5858 10H6c-2.2091 0-4-1.7909-4-4V1c0-.5523-.4477-1-1-1S0 .4477 0 1v5c0 3.3137 2.6863 6 6 6h6.5858l-2.293 2.2929c-.3904.3905-.3904 1.0237 0 1.4142.3906.3905 1.0238.3905 1.4143 0l4-4c.3905-.3905.3905-1.0237 0-1.4142l-4-4c-.3905-.3905-1.0237-.3905-1.4142 0-.3905.3905-.3905 1.0237 0 1.4142L12.5858 10z" /></defs><use xlink:href="#icons-solid-arrow-next-line" fill="#758CA3" fill-rule="evenodd" /></svg>