<svg xmlns="http://www.w3.org/2000/svg" xmlns:xlink="http://www.w3.org/1999/xlink" width="16" height="16" viewBox="0 0 16 16"><defs><path id="icons-solid-arrow-external" d="M12.5858 2H10c-.5523 0-1-.4477-1-1s.4477-1 1-1h5c.5523 0 1 .4477 1 1v5c0 .5523-.4477 1-1 1s-1-.4477-1-1V3.4142l-6.7929 6.793c-.3905.3904-1.0237.3904-1.4142 0-.3905-.3906-.3905-1.0238 0-1.4143L12.5858 2zM6 1c.5523 0 1 .4477 1 1s-.4477 1-1 1H3c-.5523 0-1 .4477-1 1v9c0 .5523.4477 1 1 1h8.9673a1 1 0 0 0 1-.9891L13 9.989c.006-.5522.4585-.995 1.0108-.989.5522.006.995.4585.989 1.0108l-.0328 3.0217C14.9493 14.6766 13.6115 16 11.9673 16H3c-1.6569 0-3-1.3431-3-3V4c0-1.6569 1.3431-3 3-3h3z" /></defs><use xlink:href="#icons-solid-arrow-external" fill="#758CA3" fill-rule="evenodd" /></svg>