<svg xmlns="http://www.w3.org/2000/svg" width="16" height="16" viewBox="0 0 16 16">
  <path fill="#758CA3" fill-rule="evenodd" d="M3.20710678,0.792893219 L8.5,6.08578644 L13.7928932,0.792893219 C14.1834175,0.402368927 14.8165825,0.402368927 15.2071068,0.792893219 C15.5976311,1.18341751 15.5976311,1.81658249 15.2071068,2.20710678 L9.20710678,8.20710678 C8.81658249,8.59763107 8.18341751,8.59763107 7.79289322,8.20710678 L1.79289322,2.20710678 C1.40236893,1.81658249 1.40236893,1.18341751 1.79289322,0.792893219 C2.18341751,0.402368927 2.81658249,0.402368927 3.20710678,0.792893219 Z M3.20710678,7.79289322 L8.5,13.0857864 L13.7928932,7.79289322 C14.1834175,7.40236893 14.8165825,7.40236893 15.2071068,7.79289322 C15.5976311,8.18341751 15.5976311,8.81658249 15.2071068,9.20710678 L9.20710678,15.2071068 C8.81658249,15.5976311 8.18341751,15.5976311 7.79289322,15.2071068 L1.79289322,9.20710678 C1.40236893,8.81658249 1.40236893,8.18341751 1.79289322,7.79289322 C2.18341751,7.40236893 2.81658249,7.40236893 3.20710678,7.79289322 Z" transform="rotate(-90 8.5 8)"/>
</svg>
