<svg xmlns="http://www.w3.org/2000/svg" xmlns:xlink="http://www.w3.org/1999/xlink" width="16" height="16" viewBox="0 0 16 16"><defs><path id="icons-solid-arrow-360-left" d="M6.4142 5H8.5C10.9853 5 13 7.0147 13 9.5S10.9853 14 8.5 14 4 11.9853 4 9.5c0-.5523-.4477-1-1-1s-1 .4477-1 1C2 13.0899 4.9101 16 8.5 16S15 13.0899 15 9.5 12.0899 3 8.5 3H6.4142l1.293-1.2929c.3904-.3905.3904-1.0237 0-1.4142-.3906-.3905-1.0238-.3905-1.4143 0l-3 3c-.3905.3905-.3905 1.0237 0 1.4142l3 3c.3905.3905 1.0237.3905 1.4142 0 .3905-.3905.3905-1.0237 0-1.4142L6.4142 5z" /></defs><use xlink:href="#icons-solid-arrow-360-left" fill="#758CA3" fill-rule="evenodd" /></svg>