<svg xmlns="http://www.w3.org/2000/svg" width="16" height="16" viewBox="0 0 16 16">
  <path fill="#758CA3" fill-rule="evenodd" d="M2.70710678,0.292893219 L8,5.58578644 L13.2928932,0.292893219 C13.6834175,-0.0976310729 14.3165825,-0.0976310729 14.7071068,0.292893219 C15.0976311,0.683417511 15.0976311,1.31658249 14.7071068,1.70710678 L8.70710678,7.70710678 C8.31658249,8.09763107 7.68341751,8.09763107 7.29289322,7.70710678 L1.29289322,1.70710678 C0.902368927,1.31658249 0.902368927,0.683417511 1.29289322,0.292893219 C1.68341751,-0.0976310729 2.31658249,-0.0976310729 2.70710678,0.292893219 Z M2.70710678,7.29289322 L8,12.5857864 L13.2928932,7.29289322 C13.6834175,6.90236893 14.3165825,6.90236893 14.7071068,7.29289322 C15.0976311,7.68341751 15.0976311,8.31658249 14.7071068,8.70710678 L8.70710678,14.7071068 C8.31658249,15.0976311 7.68341751,15.0976311 7.29289322,14.7071068 L1.29289322,8.70710678 C0.902368927,8.31658249 0.902368927,7.68341751 1.29289322,7.29289322 C1.68341751,6.90236893 2.31658249,6.90236893 2.70710678,7.29289322 Z" transform="matrix(1 0 0 -1 0 15)"/>
</svg>
