<svg xmlns="http://www.w3.org/2000/svg" xmlns:xlink="http://www.w3.org/1999/xlink" width="16" height="16" viewBox="0 0 16 16"><defs><path id="icons-solid-checkmark-circle" d="M8 16c-4.4183 0-8-3.5817-8-8s3.5817-8 8-8 8 3.5817 8 8-3.5817 8-8 8zm0-2c3.3137 0 6-2.6863 6-6s-2.6863-6-6-6-6 2.6863-6 6 2.6863 6 6 6zM5.7071 7.2929 7 8.5858l3.2929-3.293c.3905-.3904 1.0237-.3904 1.4142 0 .3905.3906.3905 1.0238 0 1.4143l-4 4c-.3905.3905-1.0237.3905-1.4142 0l-2-2c-.3905-.3905-.3905-1.0237 0-1.4142.3905-.3905 1.0237-.3905 1.4142 0z" /></defs><use xlink:href="#icons-solid-checkmark-circle" fill="#758CA3" fill-rule="evenodd" /></svg>