<svg xmlns="http://www.w3.org/2000/svg" xmlns:xlink="http://www.w3.org/1999/xlink" width="16" height="16" viewBox="0 0 16 16"><defs><path id="icons-solid-collapse" d="m11 3.5858 2.2929-2.293c.3905-.3904 1.0237-.3904 1.4142 0 .3905.3906.3905 1.0238 0 1.4143L12.4142 5H14c.5523 0 1 .4477 1 1s-.4477 1-1 1h-4c-.5523 0-1-.4477-1-1V2c0-.5523.4477-1 1-1s1 .4477 1 1v1.5858zm-6 8.8284-2.2929 2.293c-.3905.3904-1.0237.3904-1.4142 0-.3905-.3906-.3905-1.0238 0-1.4143L3.5858 11H2c-.5523 0-1-.4477-1-1s.4477-1 1-1h4c.5523 0 1 .4477 1 1v4c0 .5523-.4477 1-1 1s-1-.4477-1-1v-1.5858z" /></defs><use xlink:href="#icons-solid-collapse" fill="#758CA3" fill-rule="evenodd" /></svg>