<svg xmlns="http://www.w3.org/2000/svg" xmlns:xlink="http://www.w3.org/1999/xlink" width="16" height="16" viewBox="0 0 16 16"><defs><path id="icons-solid-eye" d="M8 13C5.241 13 2.7266 11.5377.4569 8.613a1 1 0 0 1 0-1.2262C2.7266 4.4623 5.2409 3 8 3c2.759 0 5.2734 1.4623 7.5431 4.387a1 1 0 0 1 0 1.2262C13.2734 11.5377 10.7591 13 8 13zm0-8c-1.901 0-3.7038.9526-5.463 3C4.2961 10.0474 6.099 11 8 11c1.901 0 3.7038-.9526 5.463-3C11.7039 5.9526 9.901 5 8 5zm0 4.5c-.8284 0-1.5-.6716-1.5-1.5S7.1716 6.5 8 6.5s1.5.6716 1.5 1.5S8.8284 9.5 8 9.5z" /></defs><use xlink:href="#icons-solid-eye" fill="#758CA3" fill-rule="evenodd" /></svg>