<svg xmlns="http://www.w3.org/2000/svg" xmlns:xlink="http://www.w3.org/1999/xlink" width="16" height="16" viewBox="0 0 16 16"><defs><path id="icons-solid-heart" d="M8.1768 3.2305c1.5295-1.5296 4.0094-1.5296 5.539 0 1.5295 1.5296 1.5295 4.0094 0 5.539l-4.6993 4.6993c-.5614.5614-1.4716.5614-2.033 0L2.2842 8.7695c-1.5295-1.5296-1.5295-4.0094 0-5.539 1.5296-1.5296 4.0095-1.5296 5.539 0L8 3.4073l.1768-.1768zM8 11.6569l4.3016-4.3016c.7485-.7485.7485-1.962 0-2.7106-.7485-.7485-1.9621-.7485-2.7106 0L8 6.2357l-1.591-1.591c-.7485-.7485-1.962-.7485-2.7106 0-.7485.7485-.7485 1.962 0 2.7106L8 11.6569z" /></defs><use xlink:href="#icons-solid-heart" fill="#758CA3" fill-rule="evenodd" /></svg>