<svg xmlns="http://www.w3.org/2000/svg" xmlns:xlink="http://www.w3.org/1999/xlink" width="16" height="16" viewBox="0 0 16 16"><defs><path id="icons-solid-help" d="M8 0c4.4183 0 8 3.5817 8 8s-3.5817 8-8 8-8-3.5817-8-8 3.5817-8 8-8zm-.93 9.228h1.548c-.024-.24 0-.454.072-.642s.17-.366.294-.534c.124-.168.26-.33.408-.486.148-.156.288-.318.42-.486.132-.168.242-.35.33-.546.088-.196.132-.418.132-.666 0-.352-.058-.658-.174-.918-.116-.26-.276-.474-.48-.642-.204-.168-.444-.292-.72-.372-.276-.08-.574-.12-.894-.12-.472 0-.902.1-1.29.3-.388.2-.722.464-1.002.792l.972.888c.16-.16.326-.292.498-.396.172-.104.37-.156.594-.156.24 0 .434.064.582.192.148.128.222.316.222.564 0 .152-.042.298-.126.438-.084.14-.19.284-.318.432-.128.148-.262.302-.402.462-.14.16-.266.336-.378.528-.112.192-.198.4-.258.624-.06.224-.07.472-.03.744zm.768 2.916c.304 0 .558-.106.762-.318.204-.212.306-.474.306-.786 0-.32-.102-.586-.306-.798-.204-.212-.458-.318-.762-.318s-.556.106-.756.318c-.2.212-.3.478-.3.798 0 .312.1.574.3.786.2.212.452.318.756.318z" /></defs><use xlink:href="#icons-solid-help" fill="#758CA3" fill-rule="evenodd" /></svg>