<svg xmlns="http://www.w3.org/2000/svg" xmlns:xlink="http://www.w3.org/1999/xlink" width="16" height="16" viewBox="0 0 16 16"><defs><path id="icons-solid-image" d="m2 11.3097 3.226-3.943c.3747-.4578 1.0628-.4921 1.4811-.0738l1.5893 1.5893 2.9354-3.5224c.3764-.4517 1.0595-.4827 1.4753-.067L14 6.5859V3c0-.5523-.4477-1-1-1H3c-.5523 0-1 .4477-1 1v8.3097zm.4949 2.5535A.9954.9954 0 0 0 3 14h10c.5523 0 1-.4477 1-1V9.4142l-1.9328-1.9328-4.299 5.1588c-.3535.4243-.9841.4816-1.4084.128-.4243-.3535-.4816-.9841-.128-1.4084l.779-.9348-.9366-.9365-3.5793 4.3747zM3 0h10c1.6569 0 3 1.3431 3 3v10c0 1.6569-1.3431 3-3 3H3c-1.6569 0-3-1.3431-3-3V3c0-1.6569 1.3431-3 3-3zm1.5 6C3.6716 6 3 5.3284 3 4.5S3.6716 3 4.5 3 6 3.6716 6 4.5 5.3284 6 4.5 6z" /></defs><use xlink:href="#icons-solid-image" fill="#758CA3" fill-rule="evenodd" /></svg>