<svg xmlns="http://www.w3.org/2000/svg" xmlns:xlink="http://www.w3.org/1999/xlink" width="16" height="16" viewBox="0 0 16 16"><defs><path id="icons-solid-lock-open" d="M6 6h5c1.1046 0 2 .8954 2 2v6c0 1.1046-.8954 2-2 2H5c-1.1046 0-2-.8954-2-2V8c0-.7403.4022-1.3866 1-1.7324V3.5C4 1.567 5.567 0 7.5 0h1C10.433 0 12 1.567 12 3.5V4h-2v-.5C10 2.6716 9.3284 2 8.5 2h-1C6.6716 2 6 2.6716 6 3.5V6zm-.7462 2H5v6h6V8h-.2538c-.2306.006-.4824 0-.7462 0H6c-.2638 0-.5156.006-.7462 0zM8 9c.5523 0 1 .4477 1 1v1c0 .5523-.4477 1-1 1s-1-.4477-1-1v-1c0-.5523.4477-1 1-1z" /></defs><use xlink:href="#icons-solid-lock-open" fill="#758CA3" fill-rule="evenodd" /></svg>