<svg xmlns="http://www.w3.org/2000/svg" xmlns:xlink="http://www.w3.org/1999/xlink" width="16" height="16" viewBox="0 0 16 16"><defs><path id="icons-solid-lock-closed" d="M8 9c.5523 0 1 .4477 1 1v1c0 .5523-.4477 1-1 1s-1-.4477-1-1v-1c0-.5523.4477-1 1-1zm3.9835-2.7419C12.5904 6.6015 13 7.253 13 8v6c0 1.1046-.8954 2-2 2H5c-1.1046 0-2-.8954-2-2V8c0-.747.4096-1.3985 1.0165-1.7419A2.019 2.019 0 0 1 4 6V3.5C4 1.567 5.567 0 7.5 0h1C10.433 0 12 1.567 12 3.5V6a2.019 2.019 0 0 1-.0165.2581zM6 8H5v6h6V8H6zm1.5-6C6.6716 2 6 2.6716 6 3.5V6h4V3.5C10 2.6716 9.3284 2 8.5 2h-1z" /></defs><use xlink:href="#icons-solid-lock-closed" fill="#758CA3" fill-rule="evenodd" /></svg>