<svg xmlns="http://www.w3.org/2000/svg" xmlns:xlink="http://www.w3.org/1999/xlink" width="16" height="16" viewBox="0 0 16 16"><defs><path id="icons-solid-more" d="M3.5 9.5C2.6716 9.5 2 8.8284 2 8s.6716-1.5 1.5-1.5S5 7.1716 5 8s-.6716 1.5-1.5 1.5zm4.5 0c-.8284 0-1.5-.6716-1.5-1.5S7.1716 6.5 8 6.5s1.5.6716 1.5 1.5S8.8284 9.5 8 9.5zm4.5 0c-.8284 0-1.5-.6716-1.5-1.5s.6716-1.5 1.5-1.5S14 7.1716 14 8s-.6716 1.5-1.5 1.5z" /></defs><use xlink:href="#icons-solid-more" fill="#758CA3" fill-rule="evenodd" /></svg>