<svg xmlns="http://www.w3.org/2000/svg" xmlns:xlink="http://www.w3.org/1999/xlink" width="16" height="16" viewBox="0 0 16 16"><defs><path id="icons-solid-pencil-paper" d="M6 2v3c0 .5523-.4477 1-1 1H2v8h8v-2.5858l-1.2929 1.293A1 1 0 0 1 8 13H5c-.5523 0-1-.4477-1-1V9a1 1 0 0 1 .2929-.7071L10 2.5858V2H6zm-2 .5351A4.0196 4.0196 0 0 0 2.5351 4H4V2.5351zm8 6.8791V14c0 1.1046-.8954 2-2 2H2c-1.1046 0-2-.8954-2-2V6c0-3.3137 2.6863-6 6-6h4c.7532 0 1.4092.4164 1.7503 1.0315a.9995.9995 0 0 1 .9568.2614l3 3c.3905.3905.3905 1.0237 0 1.4142L12 9.4142zM7.5858 11l6-6L12 3.4142l-6 6V11h1.5858z" /></defs><use xlink:href="#icons-solid-pencil-paper" fill="#758CA3" fill-rule="evenodd" /></svg>