<svg xmlns="http://www.w3.org/2000/svg" xmlns:xlink="http://www.w3.org/1999/xlink" width="16" height="16" viewBox="0 0 16 16"><defs><path id="icons-solid-pencil" d="m8.5 4.9142-6.5 6.5V14h2.5858l6.5-6.5L8.5 4.9142zM9.9142 3.5 12.5 6.0858 13.5858 5 11 2.4142 9.9142 3.5zM1 16c-.5523 0-1-.4477-1-1v-4a1 1 0 0 1 .2929-.7071l10-10c.3905-.3905 1.0237-.3905 1.4142 0l4 4c.3905.3905.3905 1.0237 0 1.4142l-10 10A1 1 0 0 1 5 16H1z" /></defs><use xlink:href="#icons-solid-pencil" fill="#758CA3" fill-rule="evenodd" /></svg>