<svg xmlns="http://www.w3.org/2000/svg" width="16" height="16" viewBox="0 0 16 16">
  <path fill="#758CA3" fill-rule="evenodd" d="M7,7 L7,5 C7,4.44771525 7.44771525,4 8,4 C8.55228475,4 9,4.44771525 9,5 L9,7 L11,7 C11.5522847,7 12,7.44771525 12,8 C12,8.55228475 11.5522847,9 11,9 L9,9 L9,11 C9,11.5522847 8.55228475,12 8,12 C7.44771525,12 7,11.5522847 7,11 L7,9 L5,9 C4.44771525,9 4,8.55228475 4,8 C4,7.44771525 4.44771525,7 5,7 L7,7 Z M2,0 L14,0 C15.1045695,0 16,0.8954305 16,2 L16,14 C16,15.1045695 15.1045695,16 14,16 L2,16 C0.8954305,16 0,15.1045695 0,14 L0,2 C0,0.8954305 0.8954305,0 2,0 Z M2,2 L2,14 L14,14 L14,2 L2,2 Z"/>
</svg>
