<svg xmlns="http://www.w3.org/2000/svg" xmlns:xlink="http://www.w3.org/1999/xlink" width="16" height="16" viewBox="0 0 16 16"><defs><path id="icons-solid-plus-circle" d="M7 7V5c0-.5523.4477-1 1-1s1 .4477 1 1v2h2c.5523 0 1 .4477 1 1s-.4477 1-1 1H9v2c0 .5523-.4477 1-1 1s-1-.4477-1-1V9H5c-.5523 0-1-.4477-1-1s.4477-1 1-1h2zm1 9c-4.4183 0-8-3.5817-8-8s3.5817-8 8-8 8 3.5817 8 8-3.5817 8-8 8zm0-2c3.3137 0 6-2.6863 6-6s-2.6863-6-6-6-6 2.6863-6 6 2.6863 6 6 6z" /></defs><use xlink:href="#icons-solid-plus-circle" fill="#758CA3" fill-rule="evenodd" /></svg>