<svg xmlns="http://www.w3.org/2000/svg" xmlns:xlink="http://www.w3.org/1999/xlink" width="16" height="16" viewBox="0 0 16 16"><defs><path id="icons-solid-plus-square" d="M7 7V5c0-.5523.4477-1 1-1s1 .4477 1 1v2h2c.5523 0 1 .4477 1 1s-.4477 1-1 1H9v2c0 .5523-.4477 1-1 1s-1-.4477-1-1V9H5c-.5523 0-1-.4477-1-1s.4477-1 1-1h2zM2 0h12c1.1046 0 2 .8954 2 2v12c0 1.1046-.8954 2-2 2H2c-1.1046 0-2-.8954-2-2V2C0 .8954.8954 0 2 0zm0 2v12h12V2H2z" /></defs><use xlink:href="#icons-solid-plus-square" fill="#758CA3" fill-rule="evenodd" /></svg>