<svg xmlns="http://www.w3.org/2000/svg" xmlns:xlink="http://www.w3.org/1999/xlink" width="16" height="16" viewBox="0 0 16 16"><defs><path id="icons-solid-printer" d="M3.1707 14H3c-1.6569 0-3-1.3431-3-3V8c0-1.3062.8348-2.4175 2-2.8293V1c0-.5523.4477-1 1-1h10c.5523 0 1 .4477 1 1v4.1707c1.1652.4118 2 1.523 2 2.8293v3c0 1.6569-1.3431 3-3 3h-.1707c-.4118 1.1652-1.523 2-2.8293 2H6c-1.3062 0-2.4175-.8348-2.8293-2zm0-2c.4118-1.1652 1.523-2 2.8293-2h4c1.3062 0 2.4175.8348 2.8293 2H13c.5523 0 1-.4477 1-1V8c0-.5523-.4477-1-1-1H3c-.5523 0-1 .4477-1 1v3c0 .5523.4477 1 1 1h.1707zM4 2v3h8V2H4zm2 10c-.5523 0-1 .4477-1 1s.4477 1 1 1h4c.5523 0 1-.4477 1-1s-.4477-1-1-1H6z" /></defs><use xlink:href="#icons-solid-printer" fill="#758CA3" fill-rule="evenodd" /></svg>