<svg xmlns="http://www.w3.org/2000/svg" xmlns:xlink="http://www.w3.org/1999/xlink" width="16" height="16" viewBox="0 0 16 16"><defs><path id="icons-solid-questionmark" d="M7 6c0 .5523-.4477 1-1 1s-1-.4477-1-1c0-1.5523 1.4477-3 3-3s3 1.4477 3 3c0 1.285-.4996 1.8678-1.5528 2.3944C9.0004 8.6178 9 8.6184 9 9c0 .5523-.4477 1-1 1s-1-.4477-1-1c0-1.285.4996-1.8678 1.5528-2.3944C8.9996 6.3822 9 6.3816 9 6c0-.4477-.5523-1-1-1s-1 .5523-1 1zm1 7c-.5523 0-1-.4477-1-1s.4477-1 1-1 1 .4477 1 1-.4477 1-1 1z" /></defs><use xlink:href="#icons-solid-questionmark" fill="#758CA3" fill-rule="evenodd" /></svg>