<svg xmlns="http://www.w3.org/2000/svg" xmlns:xlink="http://www.w3.org/1999/xlink" width="16" height="16" viewBox="0 0 16 16"><defs><path d="m3.0004 2 2.3292 4.6584a3 3 0 0 1 0 2.6832L3.0004 14h8.0279l2.7764-5.5528a1 1 0 0 0 0-.8944L11.0283 2H3.0004zm0-2h8.0279a2 2 0 0 1 1.7889 1.1056l2.7763 5.5528a3 3 0 0 1 0 2.6832l-2.7763 5.5528A2 2 0 0 1 11.0283 16H3.0004c-1.1045 0-2-.8954-2-2a2 2 0 0 1 .2112-.8944l2.3292-4.6584a1 1 0 0 0 0-.8944L1.2116 2.8944C.7176 1.9064 1.118.7051 2.106.2111A2 2 0 0 1 3.0004 0z" id="icons-solid-rule" /></defs><use xlink:href="#icons-solid-rule" fill="#758CA3" fill-rule="evenodd" /></svg>