<svg xmlns="http://www.w3.org/2000/svg" width="16" height="16" viewBox="0 0 16 16">
  <path fill="#758CA3" fill-rule="evenodd" d="M6.52346564,10.8907479 L2.20710678,15.2071068 C1.81658249,15.5976311 1.18341751,15.5976311 0.792893219,15.2071068 C0.402368927,14.8165825 0.402368927,14.1834175 0.792893219,13.7928932 L5.10925208,9.47653436 C4.41079097,8.49571549 4,7.29583043 4,6 C4,2.6862915 6.6862915,0 10,0 C13.3137085,0 16,2.6862915 16,6 C16,9.3137085 13.3137085,12 10,12 C8.70416957,12 7.50428451,11.589209 6.52346564,10.8907479 Z M10,10 C12.209139,10 14,8.209139 14,6 C14,3.790861 12.209139,2 10,2 C7.790861,2 6,3.790861 6,6 C6,8.209139 7.790861,10 10,10 Z"/>
</svg>
