<svg xmlns="http://www.w3.org/2000/svg" xmlns:xlink="http://www.w3.org/1999/xlink" width="16" height="16" viewBox="0 0 16 16"><defs><path id="icons-solid-search" d="M6.5235 10.8907 2.207 15.2071c-.3905.3905-1.0237.3905-1.4142 0-.3905-.3905-.3905-1.0237 0-1.4142l4.3164-4.3164C4.4108 8.4957 4 7.2958 4 6c0-3.3137 2.6863-6 6-6s6 2.6863 6 6-2.6863 6-6 6c-1.2958 0-2.4957-.4108-3.4765-1.1093zM10 10c2.2091 0 4-1.7909 4-4 0-2.2091-1.7909-4-4-4-2.2091 0-4 1.7909-4 4 0 2.2091 1.7909 4 4 4z" /></defs><use xlink:href="#icons-solid-search" fill="#758CA3" fill-rule="evenodd" /></svg>