<svg xmlns="http://www.w3.org/2000/svg" xmlns:xlink="http://www.w3.org/1999/xlink" width="16" height="16" viewBox="0 0 16 16"><defs><path id="icons-solid-settings" d="M8 10c1.1046 0 2-.8954 2-2s-.8954-2-2-2-2 .8954-2 2 .8954 2 2 2zm3.427-4.165-.4346-.4894a4.0135 4.0135 0 0 0-1.3928-1.0132L9 4.0704V2.29H7v1.7805l-.5996.262a4.0135 4.0135 0 0 0-1.3928 1.0132l-.4345.4894-.6224-.2023-1.071-.348-.6175 1.9023 1.6936.5503.0629.6525a3.9683 3.9683 0 0 0 .5311 1.6357l.3324.5647-.385.5302-.6613.9104 1.617 1.1769 1.0464-1.4407.639.1402C7.4187 11.9687 7.707 12 8 12c.293 0 .5813-.0313.8617-.0928l.639-.1402.3843.5293.662.9114 1.6171-1.177-1.0463-1.4405.3324-.5647a3.9683 3.9683 0 0 0 .5311-1.6357l.063-.6525.6233-.2025 1.0702-.3478-.6174-1.9023-1.6935.5503zM11 2.8029c.3631.21.7032.4575 1.0147.7381l.4877-.1585c1.0505-.3413 2.1788.2336 2.5202 1.2844l.6174 1.9023c.3412 1.0505-.2337 2.1786-1.284 2.5199l-.486.1579a5.9616 5.9616 0 0 1-.388 1.195l.3001.4132c.6491.8934.4513 2.1437-.4414 2.793l-1.6175 1.177c-.8933.6496-2.1441.452-2.7937-.4413l-.3024-.4164a6.0579 6.0579 0 0 1-1.2542 0l-.3019.4157c-.6492.8937-1.9 1.0918-2.7936.4425l-.001-.0007-1.6167-1.1766c-.8931-.6495-1.091-1.8998-.442-2.793l.3003-.4135a5.9616 5.9616 0 0 1-.388-1.195l-.4859-.1578C.5937 8.7478.0188 7.6197.36 6.5694l.6175-1.9025c.3412-1.0505 1.4694-1.6256 2.5201-1.2844l.4878.1585A6.0157 6.0157 0 0 1 5 2.803V2.29c0-1.1046.8954-2 2-2h2c1.1046 0 2 .8954 2 2v.513z" /></defs><use xlink:href="#icons-solid-settings" fill="#758CA3" fill-rule="evenodd" /></svg>