<svg xmlns="http://www.w3.org/2000/svg" xmlns:xlink="http://www.w3.org/1999/xlink" width="16" height="16" viewBox="0 0 16 16"><defs><path id="icons-solid-stack-square" d="M2 0h12c1.1046 0 2 .8954 2 2v12c0 1.1046-.8954 2-2 2H2c-1.1046 0-2-.8954-2-2V2C0 .8954.8954 0 2 0zm0 2v12h12V2H2zm3 5c-.5523 0-1-.4477-1-1s.4477-1 1-1h6c.5523 0 1 .4477 1 1s-.4477 1-1 1H5zm0 4c-.5523 0-1-.4477-1-1s.4477-1 1-1h6c.5523 0 1 .4477 1 1s-.4477 1-1 1H5z" /></defs><use xlink:href="#icons-solid-stack-square" fill="#758CA3" fill-rule="evenodd" /></svg>