<svg xmlns="http://www.w3.org/2000/svg" xmlns:xlink="http://www.w3.org/1999/xlink" width="24" height="24" viewBox="0 0 24 24"><defs><path id="icons-solid-star" d="M6.7998 23.3169c-1.0108.4454-2.1912-.0129-2.6367-1.0237a2 2 0 0 1-.1596-1.008l.5724-5.6537L.7896 11.394c-.736-.8237-.6648-2.088.1588-2.824a2 2 0 0 1 .9093-.4633l5.554-1.2027 2.86-4.9104c.556-.9545 1.7804-1.2776 2.7349-.7217a2 2 0 0 1 .7216.7217l2.86 4.9104 5.554 1.2027c1.0796.2338 1.7652 1.2984 1.5314 2.378a2 2 0 0 1-.4633.9093l-3.7863 4.2375.5724 5.6538c.1113 1.0989-.6894 2.08-1.7883 2.1912a2 2 0 0 1-1.008-.1596L12 21.0254l-5.2002 2.2915z" /></defs><use xlink:href="#icons-solid-star" fill="#758CA3" fill-rule="evenodd" /></svg>