<svg xmlns="http://www.w3.org/2000/svg" xmlns:xlink="http://www.w3.org/1999/xlink" width="16" height="16" viewBox="0 0 16 16"><defs><path id="icons-solid-textwrap" d="m12.5859 11-.293-.2929c-.3905-.3905-.3905-1.0237 0-1.4142.3905-.3905 1.0237-.3905 1.4142 0l2 2c.3905.3905.3905 1.0237 0 1.4142l-2 2c-.3905.3905-1.0237.3905-1.4142 0-.3905-.3905-.3905-1.0237 0-1.4142L12.5857 13H3.5C1.567 13 0 11.433 0 9.5S1.567 6 3.5 6h9c.8284 0 1.5-.6716 1.5-1.5S13.3284 3 12.5 3H1.0357c-.5523 0-1-.4477-1-1s.4477-1 1-1H12.5C14.433 1 16 2.567 16 4.5S14.433 8 12.5 8h-9C2.6716 8 2 8.6716 2 9.5c0 .8285.6716 1.5 1.5 1.5h9.0859z" /></defs><use xlink:href="#icons-solid-textwrap" fill="#758CA3" fill-rule="evenodd" /></svg>