<svg xmlns="http://www.w3.org/2000/svg" xmlns:xlink="http://www.w3.org/1999/xlink" width="16" height="16" viewBox="0 0 16 16"><defs><path id="icons-solid-thumb-up" d="m5.4434 4.1034.2077-.831C5.985 1.9369 7.185 1 8.5616 1H9c.2094 0 .418.0257.6213.0765 1.3724.3431 2.2069 1.7339 1.8638 3.1063L11.2808 5H12c1.6569 0 3 1.3431 3 3v2c0 2.7614-2.2386 5-5 5H1c-.5523 0-1-.4477-1-1V5c0-.5523.4477-1 1-1h4a.9959.9959 0 0 1 .4434.1034zM6 7v6h4c1.6569 0 3-1.3431 3-3V8c0-.5523-.4477-1-1-1h-2c-.6506 0-1.128-.6114-.9701-1.2425l.5149-2.0598A.5616.5616 0 0 0 9 3h-.4384a1 1 0 0 0-.9702.7575l-.6213 2.485A1 1 0 0 1 6 7zM4 6H2v7h2V6z" /></defs><use xlink:href="#icons-solid-thumb-up" fill="#758CA3" fill-rule="evenodd" /></svg>