<svg xmlns="http://www.w3.org/2000/svg" xmlns:xlink="http://www.w3.org/1999/xlink" width="16" height="16" viewBox="0 0 16 16"><defs><path id="icons-solid-thumb-down" d="m10.5566 11.8966-.2077.831C10.015 14.0631 8.815 15 7.4384 15H7c-.2094 0-.418-.0257-.6213-.0765-1.3724-.3431-2.2069-1.7339-1.8638-3.1063L4.7192 11H4c-1.6569 0-3-1.3431-3-3V6c0-2.7614 2.2386-5 5-5h9c.5523 0 1 .4477 1 1v9c0 .5523-.4477 1-1 1h-4a.9959.9959 0 0 1-.4434-.1034zM10 9V3H6C4.3431 3 3 4.3431 3 6v2c0 .5523.4477 1 1 1h2c.6506 0 1.128.6114.9701 1.2425l-.5149 2.0598A.5616.5616 0 0 0 7 13h.4384a1 1 0 0 0 .9702-.7575l.6213-2.485A1 1 0 0 1 10 9zm2 1h2V3h-2v7z" /></defs><use xlink:href="#icons-solid-thumb-down" fill="#758CA3" fill-rule="evenodd" /></svg>