<svg xmlns="http://www.w3.org/2000/svg" xmlns:xlink="http://www.w3.org/1999/xlink" width="16" height="16" viewBox="0 0 16 16"><defs><path id="icons-solid-trash" d="M5 10c0-.5523.4477-1 1-1s1 .4477 1 1v2c0 .5523-.4477 1-1 1s-1-.4477-1-1v-2zm4 0c0-.5523.4477-1 1-1s1 .4477 1 1v2c0 .5523-.4477 1-1 1s-1-.4477-1-1v-2zM4 3V2c0-1.1046.8954-2 2-2h4c1.1046 0 2 .8954 2 2v1h1c1.1046 0 2 .8954 2 2v2c0 .5523-.4477 1-1 1v6c0 1.1046-.8954 2-2 2H4c-1.1046 0-2-.8954-2-2V8c-.5523 0-1-.4477-1-1V5c0-1.1046.8954-2 2-2h1zm0 2H3v1h10V5H4zm0 3v6h8V8H4zm2-5h4V2H6v1z" /></defs><use xlink:href="#icons-solid-trash" fill="#758CA3" fill-rule="evenodd" /></svg>