<svg xmlns="http://www.w3.org/2000/svg" xmlns:xlink="http://www.w3.org/1999/xlink" width="16" height="16" viewBox="0 0 16 16"><defs><path id="icons-solid-trending-down" d="M12.5858 11H10c-.5523 0-1 .4477-1 1s.4477 1 1 1h5c.5523 0 1-.4477 1-1V7c0-.5523-.4477-1-1-1s-1 .4477-1 1v2.5858l-4.2929-4.293c-.3905-.3904-1.0237-.3904-1.4142 0L6 7.5859l-4.2929-4.293c-.3905-.3904-1.0237-.3904-1.4142 0-.3905.3906-.3905 1.0238 0 1.4143l5 5c.3905.3905 1.0237.3905 1.4142 0L9 7.4142 12.5858 11z" /></defs><use xlink:href="#icons-solid-trending-down" fill="#DE294C" fill-rule="evenodd" /></svg>