<svg xmlns="http://www.w3.org/2000/svg" xmlns:xlink="http://www.w3.org/1999/xlink" width="16" height="16" viewBox="0 0 16 16"><defs><path id="icons-solid-x-circle" d="m8 6.5858 1.4142-1.4142c.3905-.3906 1.0237-.3906 1.4142 0 .3906.3905.3906 1.0237 0 1.4142L9.4142 8l1.4142 1.4142c.3906.3905.3906 1.0237 0 1.4142-.3905.3906-1.0237.3906-1.4142 0L8 9.4142l-1.4142 1.4142c-.3905.3906-1.0237.3906-1.4142 0-.3906-.3905-.3906-1.0237 0-1.4142L6.5858 8 5.1716 6.5858c-.3906-.3905-.3906-1.0237 0-1.4142.3905-.3906 1.0237-.3906 1.4142 0L8 6.5858zm-5.6569 7.071c-3.1241-3.1241-3.1241-8.1895 0-11.3137 3.1242-3.1241 8.1896-3.1241 11.3138 0 3.1241 3.1242 3.1241 8.1896 0 11.3138-3.1242 3.1241-8.1896 3.1241-11.3138 0zm1.4143-1.4142c2.3431 2.3432 6.142 2.3432 8.4852 0 2.3432-2.3431 2.3432-6.142 0-8.4852-2.3431-2.3432-6.142-2.3432-8.4852 0-2.3432 2.3431-2.3432 6.142 0 8.4852z" /></defs><use xlink:href="#icons-solid-x-circle" fill="#758CA3" fill-rule="evenodd" /></svg>