<svg xmlns="http://www.w3.org/2000/svg" width="16" height="16" viewBox="0 0 16 16">
  <path fill="#758CA3" fill-rule="evenodd" d="M7,7 L7,3.83333333 C7,3.37309604 7.44771525,3 8,3 C8.55228475,3 9,3.37309604 9,3.83333333 L9,7 L12.1666667,7 C12.626904,7 13,7.44771525 13,8 C13,8.55228475 12.626904,9 12.1666667,9 L9,9 L9,12.1666667 C9,12.626904 8.55228475,13 8,13 C7.44771525,13 7,12.626904 7,12.1666667 L7,9 L3.83333333,9 C3.37309604,9 3,8.55228475 3,8 C3,7.44771525 3.37309604,7 3.83333333,7 L7,7 Z" transform="rotate(45 8 8)"/>
</svg>
