<svg xmlns="http://www.w3.org/2000/svg" xmlns:xlink="http://www.w3.org/1999/xlink" width="16" height="16" viewBox="0 0 16 16"><defs><path id="icons-solid-x-small" d="m8 6.5858 2.2392-2.2392c.3254-.3254.9058-.2727 1.2963.1179.3906.3905.4433.9709.1179 1.2963L9.4142 8l2.2392 2.2392c.3254.3254.2727.9058-.1179 1.2963-.3905.3906-.9709.4433-1.2963.1179L8 9.4142l-2.2392 2.2392c-.3254.3254-.9058.2727-1.2963-.1179-.3906-.3905-.4433-.9709-.1179-1.2963L6.5858 8 4.3466 5.7608c-.3254-.3254-.2727-.9058.1179-1.2963.3905-.3906.9709-.4433 1.2963-.1179L8 6.5858z" /></defs><use xlink:href="#icons-solid-x-small" fill="#758CA3" fill-rule="evenodd" /></svg>