<svg xmlns="http://www.w3.org/2000/svg" xmlns:xlink="http://www.w3.org/1999/xlink" width="16" height="16" viewBox="0 0 16 16"><defs><path id="icons-solid-x-square" d="m8 6.5858 1.4142-1.4142c.3905-.3906 1.0237-.3906 1.4142 0 .3906.3905.3906 1.0237 0 1.4142L9.4142 8l1.4142 1.4142c.3906.3905.3906 1.0237 0 1.4142-.3905.3906-1.0237.3906-1.4142 0L8 9.4142l-1.4142 1.4142c-.3905.3906-1.0237.3906-1.4142 0-.3906-.3905-.3906-1.0237 0-1.4142L6.5858 8 5.1716 6.5858c-.3906-.3905-.3906-1.0237 0-1.4142.3905-.3906 1.0237-.3906 1.4142 0L8 6.5858zM2 0h12c1.1046 0 2 .8954 2 2v12c0 1.1046-.8954 2-2 2H2c-1.1046 0-2-.8954-2-2V2C0 .8954.8954 0 2 0zm0 2v12h12V2H2z" /></defs><use xlink:href="#icons-solid-x-square" fill="#758CA3" fill-rule="evenodd" /></svg>