<svg xmlns="http://www.w3.org/2000/svg" width="24" height="24" viewBox="0 0 24 24">
  <path fill="#758CA3" fill-rule="evenodd" d="M3.82842712,13 L11,20.1715729 L22,9.17157288 L22,2 L14.8284271,2 L3.82842712,13 Z M1.70710678,12.2928932 L13.7071068,0.292893219 C13.8946432,0.10535684 14.1489971,4.87194788e-17 14.4142136,0 L22,8.8817842e-16 C23.1045695,7.55265584e-15 24,0.8954305 24,2 L24,9.58578644 C24,9.85100293 23.8946432,10.1053568 23.7071068,10.2928932 L11.7071068,22.2928932 C11.3165825,22.6834175 10.6834175,22.6834175 10.2928932,22.2928932 L1.70710678,13.7071068 C1.31658249,13.3165825 1.31658249,12.6834175 1.70710678,12.2928932 Z M18,8 C19.1045695,8 20,7.1045695 20,6 C20,4.8954305 19.1045695,4 18,4 C16.8954305,4 16,4.8954305 16,6 C16,7.1045695 16.8954305,8 18,8 Z"/>
</svg>
