<svg xmlns="http://www.w3.org/2000/svg" width="24" height="24" viewBox="0 0 24 24">
  <path fill="#758CA3" fill-rule="evenodd" d="M4,9 C4.55228475,9 5,9.44771525 5,10 C5,10.5522847 4.55228475,11 4,11 C3.44771525,11 3,10.5522847 3,10 C3,9.44771525 3.44771525,9 4,9 Z M8,7 L8.24569859,7 C8.69217895,7 9.08456495,6.70402269 9.20722253,6.27472113 L10.3783324,2.17583662 C10.7463052,0.887931943 11.9234632,6.80019734e-15 13.2629042,4.17482889e-15 L15.02281,0 C16.6796643,-3.65289396e-15 18.02281,1.34314575 18.02281,3 C18.02281,3.27874958 17.9839603,3.55613898 17.9073819,3.82416338 L17,7 L21,7 C22.6568542,7 24,8.34314575 24,10 L24,15 C24,19.418278 20.418278,23 16,23 L8,23 C8,23.5522847 7.55228475,24 7,24 L1,24 C0.44771525,24 2.02974496e-15,23.5522847 0,23 L0,7 C-6.76353751e-17,6.44771525 0.44771525,6 1,6 L7,6 C7.55228475,6 8,6.44771525 8,7 Z M6,8 L2,8 L2,22 L6,22 L6,8 Z M8,9 L8,21 L16,21 C19.3137085,21 22,18.3137085 22,15 L22,10 C22,9.44771525 21.5522847,9 21,9 L14.34854,9 L15.984334,3.27472113 C16.0098601,3.18537966 16.02281,3.09291653 16.02281,3 C16.02281,2.44771525 15.5750948,2 15.02281,2 L13.2629042,2 C12.8164239,2 12.4240379,2.29597731 12.3013803,2.72527887 L11.1302704,6.82416338 C10.7622977,8.11206806 9.58513967,9 8.24569859,9 L8,9 Z"/>
</svg>
