<svg xmlns="http://www.w3.org/2000/svg" width="24" height="24" viewBox="0 0 24 24">
  <path fill="#758CA3" fill-rule="evenodd" d="M13,14.5857864 L17.2928932,10.2928932 C17.6834175,9.90236893 18.3165825,9.90236893 18.7071068,10.2928932 C19.0976311,10.6834175 19.0976311,11.3165825 18.7071068,11.7071068 L12.7071068,17.7071068 C12.3165825,18.0976311 11.6834175,18.0976311 11.2928932,17.7071068 L5.29289322,11.7071068 C4.90236893,11.3165825 4.90236893,10.6834175 5.29289322,10.2928932 C5.68341751,9.90236893 6.31658249,9.90236893 6.70710678,10.2928932 L11,14.5857864 L11,1 C11,0.44771525 11.4477153,0 12,0 C12.5522847,0 13,0.44771525 13,1 L13,14.5857864 Z M2,22.0415946 L22,22.0415946 L22,17 C22,16.4477153 22.4477153,16 23,16 C23.5522847,16 24,16.4477153 24,17 L24,23.0415946 C24,23.5938793 23.5522847,24.0415946 23,24.0415946 L1,24.0415946 C0.44771525,24.0415946 0,23.5938793 0,23.0415946 L0,17.0621778 C0,16.5098931 0.44771525,16.0621778 1,16.0621778 C1.55228475,16.0621778 2,16.5098931 2,17.0621778 L2,22.0415946 Z"/>
</svg>
