<svg xmlns="http://www.w3.org/2000/svg" width="24" height="24" viewBox="0 0 24 24">
  <path fill="#758CA3" fill-rule="evenodd" d="M2.46883827,11 L6,11 C7.1045695,11 8,11.8954305 8,13 L8,14 L16,14 L16,13 C16,11.8954305 16.8954305,11 18,11 L21.5311617,11 L20.1978284,5 L3.80217161,5 L2.46883827,11 Z M-4.93859502e-12,13.0215684 C-0.000335131789,13.0054345 -0.000278068625,12.9892394 0.000178596065,12.9729947 C0.00347043773,12.724249 0.0521727911,12.4864622 0.138373706,12.2675461 L2.02381294,3.78306954 C2.12548795,3.32553199 2.53130135,3 3,3 L21,3 C21.4686986,3 21.874512,3.32553199 21.9761871,3.78306954 L23.8616263,12.2675461 C23.9478272,12.4864622 23.9965296,12.724249 23.9998214,12.9729947 C24.0002781,12.9892394 24.0003351,13.0054345 24,13.0215684 L24,19 C24,20.1045695 23.1045695,21 22,21 L2,21 C0.8954305,21 3.4702601e-16,20.1045695 3.4702601e-16,19 L3.4702601e-16,13.0215684 Z M2,13 L2,19 L22,19 L22,13 L18,13 L18,14 C18,15.1045695 17.1045695,16 16,16 L8,16 C6.8954305,16 6,15.1045695 6,14 L6,13 L2,13 Z"/>
</svg>
