<svg xmlns="http://www.w3.org/2000/svg" width="24" height="24" viewBox="0 0 24 24">
  <path fill="#758CA3" fill-rule="evenodd" d="M21.4256932,15.0299707 L19.3230196,3.81571146 C19.2343372,3.34273856 18.8213625,3 18.3401474,3 L5.65985257,3 C5.1786375,3 4.76566281,3.34273856 4.67698039,3.81571146 L2.57430679,15.0299707 C2.71336263,15.0102179 2.85548806,15 3,15 L21,15 C21.1445119,15 21.2866374,15.0102179 21.4256932,15.0299707 Z M23.8306437,17.003826 C23.9380952,17.309158 23.9975423,17.6371105 23.9999254,17.9786241 C24.0002382,17.9924701 24.0002615,18.0062755 24,18.0200333 L24,20 C24,21.6568542 22.6568542,23 21,23 L3,23 C1.34314575,23 1.10393465e-15,21.6568542 9.01026215e-16,20 L-4.17905727e-16,18.0200333 C-0.000261486034,18.0062755 -0.00023821829,17.9924701 7.45618339e-05,17.9786241 C0.00245769482,17.6371105 0.0619048323,17.309158 0.169356332,17.003826 L2.71123601,3.44713439 C2.97728327,2.02821567 4.21620736,1 5.65985257,1 L18.3401474,1 C19.7837926,1 21.0227167,2.02821567 21.288764,3.44713439 L23.8306437,17.003826 Z M21.9012182,17.5661041 C21.7396467,17.2311273 21.3968147,17 21,17 L3,17 C2.6031853,17 2.26035329,17.2311273 2.09878176,17.5661041 L2,18.0929402 L2,20 C2,20.5522847 2.44771525,21 3,21 L21,21 C21.5522847,21 22,20.5522847 22,20 L22,18.0929402 L21.9012182,17.5661041 Z M17,18 C17.5522847,18 18,18.4477153 18,19 C18,19.5522847 17.5522847,20 17,20 C16.4477153,20 16,19.5522847 16,19 C16,18.4477153 16.4477153,18 17,18 Z M20,18 C20.5522847,18 21,18.4477153 21,19 C21,19.5522847 20.5522847,20 20,20 C19.4477153,20 19,19.5522847 19,19 C19,18.4477153 19.4477153,18 20,18 Z"/>
</svg>
