<svg xmlns="http://www.w3.org/2000/svg" width="24" height="24" viewBox="0 0 24 24">
  <path fill="#758CA3" fill-rule="evenodd" d="M5,7 L5,21 C5,21.5522847 5.44771525,22 6,22 L18,22 C18.5522847,22 19,21.5522847 19,21 L19,3 C19,2.44771525 18.5522847,2 18,2 L10,2 L10,6 C10,6.55228475 9.55228475,7 9,7 L5,7 Z M5.12601749,5 L8,5 L8,2.12601749 C6.59439271,2.4877958 5.4877958,3.59439271 5.12601749,5 Z M18,5.42101086e-20 C19.6568542,-3.33012697e-16 21,1.34314575 21,3 L21,21 C21,22.6568542 19.6568542,24 18,24 L6,24 C4.34314575,24 3,22.6568542 3,21 L3,6 C3,2.6862915 5.6862915,5.32961262e-16 9,5.42101086e-20 L18,5.42101086e-20 Z M8,11 C7.44771525,11 7,10.5522847 7,10 C7,9.44771525 7.44771525,9 8,9 L16,9 C16.5522847,9 17,9.44771525 17,10 C17,10.5522847 16.5522847,11 16,11 L8,11 Z M8,15 C7.44771525,15 7,14.5522847 7,14 C7,13.4477153 7.44771525,13 8,13 L16,13 C16.5522847,13 17,13.4477153 17,14 C17,14.5522847 16.5522847,15 16,15 L8,15 Z M8,19 C7.44771525,19 7,18.5522847 7,18 C7,17.4477153 7.44771525,17 8,17 L16,17 C16.5522847,17 17,17.4477153 17,18 C17,18.5522847 16.5522847,19 16,19 L8,19 Z"/>
</svg>
