<svg xmlns="http://www.w3.org/2000/svg" width="24" height="24" viewBox="0 0 24 24">
  <path fill="#758CA3" fill-rule="evenodd" d="M12.7684823,23.0865622 C12.729608,23.13325 12.68656,23.176298 12.6398722,23.2151723 C12.2154477,23.5685675 11.5849002,23.5109868 11.231505,23.0865622 C5.74383748,16.4959053 3,11.6797559 3,8.63810779 C3,3.86741259 7.2293048,0 12,0 C16.7706952,0 21,3.86741259 21,8.63810779 C21,11.6797569 18.2561608,16.4959084 12.7684823,23.0865622 Z M19,8.63810779 C19,5.06317934 15.7595324,2 12,2 C8.24046757,2 5,5.06317934 5,8.63810779 C5,10.9291798 7.31851165,15.1146759 12.0000002,20.8729903 C16.6814821,15.1146871 19,10.9291829 19,8.63810779 Z M12,11 C10.8954305,11 10,10.1045695 10,9 C10,7.8954305 10.8954305,7 12,7 C13.1045695,7 14,7.8954305 14,9 C14,10.1045695 13.1045695,11 12,11 Z"/>
</svg>
