<svg xmlns="http://www.w3.org/2000/svg" width="16" height="16" viewBox="0 0 16 16">
  <path fill="#758CA3" fill-rule="evenodd" d="M11.5857864,12 L8,12 C7.44771525,12 7,11.5522847 7,11 C7,10.4477153 7.44771525,10 8,10 L11.5857864,10 L10.2928932,8.70710678 C9.90236893,8.31658249 9.90236893,7.68341751 10.2928932,7.29289322 C10.6834175,6.90236893 11.3165825,6.90236893 11.7071068,7.29289322 L14.7071068,10.2928932 C15.0976311,10.6834175 15.0976311,11.3165825 14.7071068,11.7071068 L11.7071068,14.7071068 C11.3165825,15.0976311 10.6834175,15.0976311 10.2928932,14.7071068 C9.90236893,14.3165825 9.90236893,13.6834175 10.2928932,13.2928932 L11.5857864,12 Z M4.41421356,4 L8,4 C8.55228475,4 9,4.44771525 9,5 C9,5.55228475 8.55228475,6 8,6 L4.41421356,6 L5.70710678,7.29289322 C6.09763107,7.68341751 6.09763107,8.31658249 5.70710678,8.70710678 C5.31658249,9.09763107 4.68341751,9.09763107 4.29289322,8.70710678 L1.29289322,5.70710678 C0.902368927,5.31658249 0.902368927,4.68341751 1.29289322,4.29289322 L4.29289322,1.29289322 C4.68341751,0.902368927 5.31658249,0.902368927 5.70710678,1.29289322 C6.09763107,1.68341751 6.09763107,2.31658249 5.70710678,2.70710678 L4.41421356,4 Z"/>
</svg>
