<svg xmlns="http://www.w3.org/2000/svg" width="12" height="12" viewBox="0 0 12 12">
  <path fill="#758CA3" fill-rule="evenodd" d="M2,4 C2,1.790861 3.790861,-2.22044605e-16 6,-2.22044605e-16 C8.209139,-2.22044605e-16 10,1.790861 10,4 C10,4.55228475 9.55228475,5 9,5 C8.44771525,5 8,4.55228475 8,4 C8,2.8954305 7.1045695,2 6,2 C4.8954305,2 4,2.8954305 4,4 C4,4.55228475 3.55228475,5 3,5 C2.44771525,5 2,4.55228475 2,4 Z M2,8 C2,7.44771525 2.44771525,7 3,7 C3.55228475,7 4,7.44771525 4,8 C4,9.1045695 4.8954305,10 6,10 C7.1045695,10 8,9.1045695 8,8 C8,7.44771525 8.44771525,7 9,7 C9.55228475,7 10,7.44771525 10,8 C10,10.209139 8.209139,12 6,12 C3.790861,12 2,10.209139 2,8 Z M7,8 C7,8.55228475 6.55228475,9 6,9 C5.44771525,9 5,8.55228475 5,8 L5,4 C5,3.44771525 5.44771525,3 6,3 C6.55228475,3 7,3.44771525 7,4 L7,8 Z" transform="rotate(45 6 6)"/>
</svg>
