<svg xmlns="http://www.w3.org/2000/svg" width="24" height="24" viewBox="0 0 24 24">
  <path fill="#758CA3" fill-rule="evenodd" d="M11.9743687,10.4743687 C11.4220839,10.4743687 10.9743687,10.0266534 10.9743687,9.47436866 C10.9743687,8.92208391 11.4220839,8.47436866 11.9743687,8.47436866 C14.7357924,8.47436866 16.9743687,10.7129449 16.9743687,13.4743687 L16.9743687,21.4743687 C16.9743687,24.2357924 14.7357924,26.4743687 11.9743687,26.4743687 C9.21294492,26.4743687 6.97436866,24.2357924 6.97436866,21.4743687 L6.97436866,16.4743687 C6.97436866,15.9220839 7.42208391,15.4743687 7.97436866,15.4743687 C8.52665341,15.4743687 8.97436866,15.9220839 8.97436866,16.4743687 L8.97436866,21.4743687 C8.97436866,23.1312229 10.3175144,24.4743687 11.9743687,24.4743687 C13.6312229,24.4743687 14.9743687,23.1312229 14.9743687,21.4743687 L14.9743687,13.4743687 C14.9743687,11.8175144 13.6312229,10.4743687 11.9743687,10.4743687 Z M11.9743687,13.4743687 C12.5266534,13.4743687 12.9743687,13.9220839 12.9743687,14.4743687 C12.9743687,15.0266534 12.5266534,15.4743687 11.9743687,15.4743687 C9.21294492,15.4743687 6.97436866,13.2357924 6.97436866,10.4743687 L6.97436866,2.47436866 C6.97436866,-0.287055084 9.21294492,-2.52563134 11.9743687,-2.52563134 C14.7357924,-2.52563134 16.9743687,-0.287055084 16.9743687,2.47436866 L16.9743687,7.47436866 C16.9743687,8.02665341 16.5266534,8.47436866 15.9743687,8.47436866 C15.4220839,8.47436866 14.9743687,8.02665341 14.9743687,7.47436866 L14.9743687,2.47436866 C14.9743687,0.817514415 13.6312229,-0.525631335 11.9743687,-0.525631335 C10.3175144,-0.525631335 8.97436866,0.817514415 8.97436866,2.47436866 L8.97436866,10.4743687 C8.97436866,12.1312229 10.3175144,13.4743687 11.9743687,13.4743687 Z" transform="scale(-1 1) rotate(-45 0 40.883)"/>
</svg>
