<svg xmlns="http://www.w3.org/2000/svg" xmlns:xlink="http://www.w3.org/1999/xlink" width="24" height="24" viewBox="0 0 24 24"><defs><path d="M3 21H2c-.5523 0-1-.4477-1-1s.4477-1 1-1h1v-2H2c-.5523 0-1-.4477-1-1s.4477-1 1-1h1v-2H2c-.5523 0-1-.4477-1-1s.4477-1 1-1h1V9H2c-.5523 0-1-.4477-1-1s.4477-1 1-1h1V5H2c-.5523 0-1-.4477-1-1s.4477-1 1-1h1c0-1.6569 1.3431-3 3-3h13c1.6569 0 3 1.3431 3 3v18c0 1.6569-1.3431 3-3 3H6c-1.6569 0-3-1.3431-3-3zm15 1h1c.5523 0 1-.4477 1-1V3c0-.5523-.4477-1-1-1H6c-.5523 0-1 .4477-1 1v18c0 .5523.4477 1 1 1h1v-3c0-2.2091 1.7909-4 4-4h3c2.2091 0 4 1.7909 4 4v3zm-2 0v-3c0-1.1046-.8954-2-2-2h-3c-1.1046 0-2 .8954-2 2v3h7zM12.5 5C14.9853 5 17 7.0147 17 9.5S14.9853 14 12.5 14 8 11.9853 8 9.5 10.0147 5 12.5 5zm0 2C11.1193 7 10 8.1193 10 9.5s1.1193 2.5 2.5 2.5S15 10.8807 15 9.5 13.8807 7 12.5 7z" id="icons-default-address" /></defs><use xlink:href="#icons-default-address" fill="#758CA3" fill-rule="evenodd" /></svg>