<svg xmlns="http://www.w3.org/2000/svg" xmlns:xlink="http://www.w3.org/1999/xlink" width="24" height="24" viewBox="0 0 24 24"><defs><path d="M24 12c0 6.6274-5.3726 12-12 12S0 18.6274 0 12 5.3726 0 12 0s12 5.3726 12 12zM12 2C6.4772 2 2 6.4772 2 12s4.4772 10 10 10 10-4.4772 10-10S17.5228 2 12 2zm0 13c.5523 0 1 .4477 1 1s-.4477 1-1 1-1-.4477-1-1 .4477-1 1-1zm-1-7c0-.5523.4477-1 1-1s1 .4477 1 1v5c0 .5523-.4477 1-1 1s-1-.4477-1-1V8z" id="icons-default-alert" /></defs><use xlink:href="#icons-default-alert" fill="#758CA3" fill-rule="evenodd" /></svg>