<svg xmlns="http://www.w3.org/2000/svg" xmlns:xlink="http://www.w3.org/1999/xlink" width="24" height="24" viewBox="0 0 24 24"><defs><path d="M8 5c-.5523 0-1-.4477-1-1s.4477-1 1-1h12c.5523 0 1 .4477 1 1s-.4477 1-1 1H8zm0 4c-.5523 0-1-.4477-1-1s.4477-1 1-1h9c.5523 0 1 .4477 1 1s-.4477 1-1 1H8zm0 4c-.5523 0-1-.4477-1-1s.4477-1 1-1h11c.5523 0 1 .4477 1 1s-.4477 1-1 1H8zm0 4c-.5523 0-1-.4477-1-1s.4477-1 1-1h12c.5523 0 1 .4477 1 1s-.4477 1-1 1H8zm0 4c-.5523 0-1-.4477-1-1s.4477-1 1-1h9c.5523 0 1 .4477 1 1s-.4477 1-1 1H8zM3 3c0-.5523.4477-1 1-1s1 .4477 1 1v18c0 .5523-.4477 1-1 1s-1-.4477-1-1V3z" id="icons-default-align-left" /></defs><use xlink:href="#icons-default-align-left" fill="#758CA3" fill-rule="evenodd" /></svg>