<svg xmlns="http://www.w3.org/2000/svg" xmlns:xlink="http://www.w3.org/1999/xlink" width="24" height="24" viewBox="0 0 24 24"><defs><path d="M4 5c-.5523 0-1-.4477-1-1s.4477-1 1-1h16c.5523 0 1 .4477 1 1s-.4477 1-1 1H4zm3 4c-.5523 0-1-.4477-1-1s.4477-1 1-1h11c.5523 0 1 .4477 1 1s-.4477 1-1 1H7zm-1 4c-.5523 0-1-.4477-1-1s.4477-1 1-1h13c.5523 0 1 .4477 1 1s-.4477 1-1 1H6zm-2 4c-.5523 0-1-.4477-1-1s.4477-1 1-1h16c.5523 0 1 .4477 1 1s-.4477 1-1 1H4zm3 4c-.5523 0-1-.4477-1-1s.4477-1 1-1h11c.5523 0 1 .4477 1 1s-.4477 1-1 1H7z" id="icons-default-align-center" /></defs><use xlink:href="#icons-default-align-center" fill="#758CA3" fill-rule="evenodd" /></svg>