<svg xmlns="http://www.w3.org/2000/svg" xmlns:xlink="http://www.w3.org/1999/xlink" width="24" height="24" viewBox="0 0 24 24"><defs><path d="M24 12c0-6.6274-5.3726-12-12-12S0 5.3726 0 12s5.3726 12 12 12 12-5.3726 12-12zM12 22C6.4772 22 2 17.5228 2 12S6.4772 2 12 2s10 4.4772 10 10-4.4772 10-10 10zm4.4855-11.8575L12 12.8338l-4.4855-2.6913c-.4736-.2841-1.0878-.1306-1.372.343-.2841.4736-.1306 1.0878.343 1.372l5 3a1 1 0 0 0 1.029 0l5-3c.4736-.2842.6271-.8984.343-1.372-.2842-.4736-.8984-.6271-1.372-.343z" id="icons-default-arrow-circle-down" /></defs><use xlink:href="#icons-default-arrow-circle-down" fill="#758CA3" fill-rule="evenodd" /></svg>