<svg xmlns="http://www.w3.org/2000/svg" xmlns:xlink="http://www.w3.org/1999/xlink" width="24" height="24" viewBox="0 0 24 24"><defs><path d="M12 14v6H6v-6h6zM5.4142 6H16c2.2091 0 4 1.7909 4 4v13c0 .5523.4477 1 1 1s1-.4477 1-1V10c0-3.3137-2.6863-6-6-6H5.4142l2.293-2.2929c.3904-.3905.3904-1.0237 0-1.4142-.3906-.3905-1.0238-.3905-1.4143 0l-4 4c-.3905.3905-.3905 1.0237 0 1.4142l4 4c.3905.3905 1.0237.3905 1.4142 0 .3905-.3905.3905-1.0237 0-1.4142L5.4142 6zM12 12H6c-1.1046 0-2 .8954-2 2v6c0 1.1046.8954 2 2 2h6c1.1046 0 2-.8954 2-2v-6c0-1.1046-.8954-2-2-2z" id="icons-default-arrow-turn-left" /></defs><use xlink:href="#icons-default-arrow-turn-left" fill="#758CA3" fill-rule="evenodd" /></svg>