<svg xmlns="http://www.w3.org/2000/svg" width="24" height="24" viewBox="0 0 24 24">
  <path fill="#758CA3" fill-rule="evenodd" d="M16.5857864,6 L11.5,6 C7.35786438,6 4,9.35786438 4,13.5 C4,17.6421356 7.35786438,21 11.5,21 C15.6421356,21 19,17.6421356 19,13.5 C19,12.9477153 19.4477153,12.5 20,12.5 C20.5522847,12.5 21,12.9477153 21,13.5 C21,18.7467051 16.7467051,23 11.5,23 C6.25329488,23 2,18.7467051 2,13.5 C2,8.25329488 6.25329488,4 11.5,4 L16.5857864,4 L14.2928932,1.70710678 C13.9023689,1.31658249 13.9023689,0.683417511 14.2928932,0.292893219 C14.6834175,-0.0976310729 15.3165825,-0.0976310729 15.7071068,0.292893219 L19.7071068,4.29289322 C20.0976311,4.68341751 20.0976311,5.31658249 19.7071068,5.70710678 L15.7071068,9.70710678 C15.3165825,10.0976311 14.6834175,10.0976311 14.2928932,9.70710678 C13.9023689,9.31658249 13.9023689,8.68341751 14.2928932,8.29289322 L16.5857864,6 Z" transform="matrix(-1 0 0 1 23 0)"/>
</svg>
