<svg xmlns="http://www.w3.org/2000/svg" xmlns:xlink="http://www.w3.org/1999/xlink" width="24" height="24" viewBox="0 0 24 24"><defs><path d="m18 20.5858 1.2929-1.293c.3905-.3904 1.0237-.3904 1.4142 0 .3905.3906.3905 1.0238 0 1.4143l-3 3c-.3905.3905-1.0237.3905-1.4142 0l-3-3c-.3905-.3905-.3905-1.0237 0-1.4142.3905-.3905 1.0237-.3905 1.4142 0L16 20.5858V1c0-.5523.4477-1 1-1s1 .4477 1 1v19.5858zM8 3.4142V23c0 .5523-.4477 1-1 1s-1-.4477-1-1V3.4142l-1.2929 1.293c-.3905.3904-1.0237.3904-1.4142 0-.3905-.3906-.3905-1.0238 0-1.4143l3-3c.3905-.3905 1.0237-.3905 1.4142 0l3 3c.3905.3905.3905 1.0237 0 1.4142-.3905.3905-1.0237.3905-1.4142 0L8 3.4142z" id="icons-default-arrow-up-down" /></defs><use xlink:href="#icons-default-arrow-up-down" fill="#758CA3" fill-rule="evenodd" /></svg>