<svg xmlns="http://www.w3.org/2000/svg" xmlns:xlink="http://www.w3.org/1999/xlink" width="24" height="24" viewBox="0 0 24 24"><defs><path d="M12 0C5.3726 0 0 5.3726 0 12s5.3726 12 12 12 12-5.3726 12-12S18.6274 0 12 0zm10 12c0 5.5228-4.4772 10-10 10S2 17.5228 2 12 6.4772 2 12 2s10 4.4772 10 10zM10.1425 7.5145 12.8338 12l-2.6913 4.4855c-.2841.4736-.1306 1.0878.343 1.372.4736.2841 1.0878.1306 1.372-.343l3-5a1 1 0 0 0 0-1.029l-3-5c-.2842-.4736-.8984-.6271-1.372-.343-.4736.2842-.6271.8984-.343 1.372z" id="icons-default-arrow-circle-right" /></defs><use xlink:href="#icons-default-arrow-circle-right" fill="#758CA3" fill-rule="evenodd" /></svg>