<svg xmlns="http://www.w3.org/2000/svg" xmlns:xlink="http://www.w3.org/1999/xlink" width="24" height="24" viewBox="0 0 24 24"><defs><path d="M17.5858 6H12.5C8.3579 6 5 9.3579 5 13.5S8.3579 21 12.5 21s7.5-3.3579 7.5-7.5c0-.5523.4477-1 1-1s1 .4477 1 1c0 5.2467-4.2533 9.5-9.5 9.5S3 18.7467 3 13.5 7.2533 4 12.5 4h5.0858l-2.293-2.2929c-.3904-.3905-.3904-1.0237 0-1.4142.3906-.3905 1.0238-.3905 1.4143 0l4 4c.3905.3905.3905 1.0237 0 1.4142l-4 4c-.3905.3905-1.0237.3905-1.4142 0-.3905-.3905-.3905-1.0237 0-1.4142L17.5858 6z" id="icons-default-arrow-360-right" /></defs><use xlink:href="#icons-default-arrow-360-right" fill="#758CA3" fill-rule="evenodd" /></svg>