<svg xmlns="http://www.w3.org/2000/svg" xmlns:xlink="http://www.w3.org/1999/xlink" width="24" height="24" viewBox="0 0 24 24"><defs><path d="M7.7071 16.2929 12 20.5858l4.2929-4.293c.3905-.3904 1.0237-.3904 1.4142 0 .3905.3906.3905 1.0238 0 1.4143l-5 5c-.3905.3905-1.0237.3905-1.4142 0l-5-5c-.3905-.3905-.3905-1.0237 0-1.4142.3905-.3905 1.0237-.3905 1.4142 0zm0-8.5858c-.3905.3905-1.0237.3905-1.4142 0-.3905-.3905-.3905-1.0237 0-1.4142l5-5c.3905-.3905 1.0237-.3905 1.4142 0l5 5c.3905.3905.3905 1.0237 0 1.4142-.3905.3905-1.0237.3905-1.4142 0L12 3.4142l-4.2929 4.293zM23 11c.5523 0 1 .4477 1 1s-.4477 1-1 1h-1c-.5523 0-1-.4477-1-1s.4477-1 1-1h1zm-7 0c.5523 0 1 .4477 1 1s-.4477 1-1 1h-1c-.5523 0-1-.4477-1-1s.4477-1 1-1h1zm-7 0c.5523 0 1 .4477 1 1s-.4477 1-1 1H8c-.5523 0-1-.4477-1-1s.4477-1 1-1h1zm-7 0c.5523 0 1 .4477 1 1s-.4477 1-1 1H1c-.5523 0-1-.4477-1-1s.4477-1 1-1h1z" id="icons-default-arrow-move-horizontal-axis" /></defs><use xlink:href="#icons-default-arrow-move-horizontal-axis" fill="#758CA3" fill-rule="evenodd" /></svg>