<svg xmlns="http://www.w3.org/2000/svg" width="24" height="24" viewBox="0 0 24 24">
  <g fill="none" fill-rule="evenodd">
    <path fill="#758CA3" d="M21,20.5857864 L22.2928932,19.2928932 C22.6834175,18.9023689 23.3165825,18.9023689 23.7071068,19.2928932 C24.0976311,19.6834175 24.0976311,20.3165825 23.7071068,20.7071068 L20.7071068,23.7071068 C20.3165825,24.0976311 19.6834175,24.0976311 19.2928932,23.7071068 L16.2928932,20.7071068 C15.9023689,20.3165825 15.9023689,19.6834175 16.2928932,19.2928932 C16.6834175,18.9023689 17.3165825,18.9023689 17.7071068,19.2928932 L19,20.5857864 L19,7.68181818 C19,7.3052604 19.4477153,7 20,7 C20.5522847,7 21,7.3052604 21,7.68181818 L21,20.5857864 Z M5,3.41421356 L5,17.2727273 C5,17.6743889 4.55228475,18 4,18 C3.44771525,18 3,17.6743889 3,17.2727273 L3,3.41421356 L1.70710678,4.70710678 C1.31658249,5.09763107 0.683417511,5.09763107 0.292893219,4.70710678 C-0.0976310729,4.31658249 -0.0976310729,3.68341751 0.292893219,3.29289322 L3.29289322,0.292893219 C3.68341751,-0.0976310729 4.31658249,-0.0976310729 4.70710678,0.292893219 L7.70710678,3.29289322 C8.09763107,3.68341751 8.09763107,4.31658249 7.70710678,4.70710678 C7.31658249,5.09763107 6.68341751,5.09763107 6.29289322,4.70710678 L5,3.41421356 Z" transform="matrix(0 -1 -1 0 24 24)"/>
    <path fill="#758CA3" d="M6,5 L17,5 C19.209139,5 21,6.790861 21,9 L21,12 C21,12.5522847 21.4477153,13 22,13 C22.5522847,13 23,12.5522847 23,12 L23,9 C23,5.6862915 20.3137085,3 17,3 L6,3 C5.44771525,3 5,3.44771525 5,4 C5,4.55228475 5.44771525,5 6,5 Z"/>
    <path fill="#758CA3" d="M2,13 L13,13 C15.209139,13 17,14.790861 17,17 L17,20 C17,20.5522847 17.4477153,21 18,21 C18.5522847,21 19,20.5522847 19,20 L19,17 C19,13.6862915 16.3137085,11 13,11 L2,11 C1.44771525,11 1,11.4477153 1,12 C1,12.5522847 1.44771525,13 2,13 Z" transform="rotate(-180 10 16)"/>
  </g>
</svg>
