<svg xmlns="http://www.w3.org/2000/svg" xmlns:xlink="http://www.w3.org/1999/xlink" width="24" height="24" viewBox="0 0 24 24"><defs><g id="icons-default-arrow-switch"><path d="m3.4142 3 1.293-1.2929c.3904-.3905.3904-1.0237 0-1.4142-.3906-.3905-1.0238-.3905-1.4143 0l-3 3c-.3905.3905-.3905 1.0237 0 1.4142l3 3c.3905.3905 1.0237.3905 1.4142 0 .3905-.3905.3905-1.0237 0-1.4142L3.4142 5h12.904C16.6947 5 17 4.5523 17 4s-.3053-1-.6818-1H3.4142zm17.1716 16H6.7273C6.3256 19 6 19.4477 6 20s.3256 1 .7273 1h13.8585l-1.293 1.2929c-.3904.3905-.3904 1.0237 0 1.4142.3906.3905 1.0238.3905 1.4143 0l3-3c.3905-.3905.3905-1.0237 0-1.4142l-3-3c-.3905-.3905-1.0237-.3905-1.4142 0-.3905.3905-.3905 1.0237 0 1.4142L20.5858 19z" /><path d="M6 5h11c2.2091 0 4 1.7909 4 4v3c0 .5523.4477 1 1 1s1-.4477 1-1V9c0-3.3137-2.6863-6-6-6H6c-.5523 0-1 .4477-1 1s.4477 1 1 1zm12 14H7c-2.2091 0-4-1.7909-4-4v-3c0-.5523-.4477-1-1-1s-1 .4477-1 1v3c0 3.3137 2.6863 6 6 6h11c.5523 0 1-.4477 1-1s-.4477-1-1-1z" /></g></defs><use xlink:href="#icons-default-arrow-switch" fill="#758CA3" fill-rule="evenodd" /></svg>