<svg width="18" height="18" viewBox="0 0 18 18" fill="none" xmlns="http://www.w3.org/2000/svg">
<path d="M0 1.5C0 0.671573 0.671573 0 1.5 0H3C3.41421 0 3.75 0.335786 3.75 0.75C3.75 1.16421 3.41421 1.5 3 1.5H1.5V3C1.5 3.41421 1.16421 3.75 0.75 3.75C0.335786 3.75 0 3.41421 0 3V1.5Z" fill="#4A545B"/>
<path fill-rule="evenodd" clip-rule="evenodd" d="M8.6413 0.957093C8.86327 0.828943 9.13673 0.828943 9.3587 0.957093L15.786 4.66791C16.008 4.79606 16.1447 5.03289 16.1447 5.28919V12.7108C16.1447 12.9671 16.008 13.2039 15.786 13.3321L9.3587 17.0429C9.13673 17.1711 8.86327 17.1711 8.6413 17.0429L2.21399 13.3321C1.99202 13.2039 1.85529 12.9671 1.85529 12.7108V5.28919C1.85529 5.03289 1.99202 4.79606 2.21399 4.66791L8.6413 0.957093ZM4.06032 5.33398L9 2.48205L13.9397 5.33396L8.99998 8.13756L4.06032 5.33398ZM3.35529 6.65859V12.259L8.24998 15.0849V9.43665L3.35529 6.65859ZM9.74998 15.085L14.6447 12.259V6.65856L9.74998 9.43665V15.085Z" fill="#4A545B"/>
<path d="M1.5 18C0.671573 18 0 17.3284 0 16.5V15C0 14.5858 0.335786 14.25 0.75 14.25C1.16421 14.25 1.5 14.5858 1.5 15V16.5H3C3.41421 16.5 3.75 16.8358 3.75 17.25C3.75 17.6642 3.41421 18 3 18H1.5Z" fill="#4A545B"/>
<path d="M18 1.5C18 0.671573 17.3284 0 16.5 0H15C14.5858 0 14.25 0.335786 14.25 0.75C14.25 1.16421 14.5858 1.5 15 1.5H16.5V3C16.5 3.41421 16.8358 3.75 17.25 3.75C17.6642 3.75 18 3.41421 18 3V1.5Z" fill="#4A545B"/>
<path d="M16.5 18C17.3284 18 18 17.3284 18 16.5V15C18 14.5858 17.6642 14.25 17.25 14.25C16.8358 14.25 16.5 14.5858 16.5 15V16.5H15C14.5858 16.5 14.25 16.8358 14.25 17.25C14.25 17.6642 14.5858 18 15 18H16.5Z" fill="#4A545B"/>
</svg>
