<svg xmlns="http://www.w3.org/2000/svg" xmlns:xlink="http://www.w3.org/1999/xlink" width="24" height="24" viewBox="0 0 24 24"><defs><path d="M8 3C5.7909 3 4 4.7909 4 7c0 2.2091 1.7909 4 4 4 2.2091 0 4-1.7909 4-4 0-2.2091-1.7909-4-4-4zm0-2c3.3137 0 6 2.6863 6 6s-2.6863 6-6 6-6-2.6863-6-6 2.6863-6 6-6zM2 22.099c0 .5523-.4477 1-1 1s-1-.4477-1-1V20c0-2.7614 2.2386-5 5-5h6.0007c2.7614 0 5 2.2386 5 5v2.099c0 .5523-.4477 1-1 1s-1-.4477-1-1V20c0-1.6569-1.3431-3-3-3H5c-1.6569 0-3 1.3431-3 3v2.099zM15.801 3.08c-.5412-.1098-.8909-.6377-.781-1.179.1099-.5412.6377-.8909 1.179-.781C18.975 1.6835 21 4.1334 21 7s-2.0249 5.3165-4.801 5.88c-.5413.1099-1.0691-.2398-1.179-.781-.1099-.5413.2398-1.0692.781-1.179C17.6496 10.5448 19 8.9108 19 7s-1.3505-3.5448-3.199-3.92zM19.0008 17c-.5523 0-1-.4477-1-1s.4477-1 1-1c2.7614 0 5 2.2386 5 5v2.099c0 .5523-.4477 1-1 1s-1-.4477-1-1V20c0-1.6569-1.3431-3-3-3z" id="icons-default-avatar-multiple" /></defs><use xlink:href="#icons-default-avatar-multiple" fill="#758CA3" fill-rule="evenodd" /></svg>