<svg xmlns="http://www.w3.org/2000/svg" xmlns:xlink="http://www.w3.org/1999/xlink" width="24" height="24" viewBox="0 0 24 24"><defs><path d="M12 3C9.7909 3 8 4.7909 8 7c0 2.2091 1.7909 4 4 4 2.2091 0 4-1.7909 4-4 0-2.2091-1.7909-4-4-4zm0-2c3.3137 0 6 2.6863 6 6s-2.6863 6-6 6-6-2.6863-6-6 2.6863-6 6-6zM4 22.099c0 .5523-.4477 1-1 1s-1-.4477-1-1V20c0-2.7614 2.2386-5 5-5h10.0007c2.7614 0 5 2.2386 5 5v2.099c0 .5523-.4477 1-1 1s-1-.4477-1-1V20c0-1.6569-1.3431-3-3-3H7c-1.6569 0-3 1.3431-3 3v2.099z" id="icons-default-avatar" /></defs><use xlink:href="#icons-default-avatar" fill="#758CA3" fill-rule="evenodd" /></svg>