<svg xmlns="http://www.w3.org/2000/svg" xmlns:xlink="http://www.w3.org/1999/xlink" width="24" height="24" viewBox="0 0 24 24"><defs><path d="M5.892 3c.5523 0 1 .4477 1 1s-.4477 1-1 1H3.7895a1 1 0 0 0-.9986.9474l-.7895 15c-.029.5516.3946 1.0222.946 1.0512A.9999.9999 0 0 0 3 22h5.392c.5523 0 1 .4477 1 1s-.4477 1-1 1H3c-.0788-.0007-.0788-.0007-.1576-.0041-1.6546-.0871-2.9253-1.499-2.8382-3.1536l.7895-15C.8775 4.249 2.1939 3 3.7895 3H5.892zm17.244 5.1077c.029.5515-.3945 1.0221-.946 1.0512-.5516.029-1.0222-.3946-1.0512-.9461l-.1193-2.2654A1 1 0 0 0 20.0208 5H17.892c-.5523 0-1-.4477-1-1s.4477-1 1-1h2.1288c1.5956 0 2.912 1.249 2.9959 2.8423l.1192 2.2654zM9.892 5c0 .5523-.4477 1-1 1s-1-.4477-1-1V3c0-1.6569 1.3432-3 3-3h2c1.6569 0 3 1.3431 3 3v2c0 .5523-.4477 1-1 1s-1-.4477-1-1V3c0-.5523-.4477-1-1-1h-2c-.5523 0-1 .4477-1 1v2zm4 6h7c1.6569 0 3 1.3431 3 3v7c0 1.6569-1.3431 3-3 3h-7c-1.6568 0-3-1.3431-3-3v-7c0-1.6569 1.3432-3 3-3zm0 2c-.5523 0-1 .4477-1 1v7c0 .5523.4477 1 1 1h7c.5523 0 1-.4477 1-1v-7c0-.5523-.4477-1-1-1h-7z" id="icons-default-bag-product" /></defs><use xlink:href="#icons-default-bag-product" fill="#758CA3" fill-rule="evenodd" /></svg>