<svg xmlns="http://www.w3.org/2000/svg" xmlns:xlink="http://www.w3.org/1999/xlink" width="24" height="24" viewBox="0 0 24 24"><defs><path d="M5.892 3c.5523 0 1 .4477 1 1s-.4477 1-1 1H3.7895a1 1 0 0 0-.9986.9475l-.7895 15c-.029.5515.3946 1.0221.9987 1.0525h17.8102c.5523 0 1-.4477.9986-1.0525l-.7895-15A1 1 0 0 0 20.0208 5H17.892c-.5523 0-1-.4477-1-1s.4477-1 1-1h2.1288c1.5956 0 2.912 1.249 2.9959 2.8423l.7894 15c.0035.0788.0035.0788.0042.1577 0 1.6569-1.3432 3-3 3H3c-.079-.0007-.079-.0007-.1577-.0041-1.6546-.0871-2.9253-1.499-2.8382-3.1536l.7895-15C.8775 4.249 2.1939 3 3.7895 3H5.892zm4 2c0 .5523-.4477 1-1 1s-1-.4477-1-1V3c0-1.6569 1.3432-3 3-3h2c1.6569 0 3 1.3431 3 3v2c0 .5523-.4477 1-1 1s-1-.4477-1-1V3c0-.5523-.4477-1-1-1h-2c-.5523 0-1 .4477-1 1v2z" id="icons-default-bag" /></defs><use xlink:href="#icons-default-bag" fill="#758CA3" fill-rule="evenodd" /></svg>