<svg xmlns="http://www.w3.org/2000/svg" xmlns:xlink="http://www.w3.org/1999/xlink" width="24" height="24" viewBox="0 0 24 24"><defs><path d="M8 7V6c0-1.6569 1.3431-3 3-3h2c1.6569 0 3 1.3431 3 3v1h5.8458a2 2 0 0 1 .3288.0272c1.0896.1816 1.8256 1.212 1.644 2.3016l-1.5274 9.1644C22.0502 19.9398 20.7986 21 19.332 21H4.6943c-1.4666 0-2.7181-1.0602-2.9592-2.5068L.2077 9.3288A2 2 0 0 1 .1805 9c0-1.1045.8954-2 2-2H8zm2 0h4V6c0-.5523-.4477-1-1-1h-2c-.5523 0-1 .4477-1 1v1zM2.1805 9l1.5274 9.1644A1 1 0 0 0 4.6943 19H19.332a1 1 0 0 0 .9864-.8356L21.8458 9H2.1805zM6 11c.5523 0 1 .4477 1 1s-.4477 1-1 1-1-.4477-1-1 .4477-1 1-1zm6 0c.5523 0 1 .4477 1 1s-.4477 1-1 1-1-.4477-1-1 .4477-1 1-1zm6 0c.5523 0 1 .4477 1 1s-.4477 1-1 1-1-.4477-1-1 .4477-1 1-1zm-3 4c.5523 0 1 .4477 1 1s-.4477 1-1 1-1-.4477-1-1 .4477-1 1-1zm-6 0c.5523 0 1 .4477 1 1s-.4477 1-1 1-1-.4477-1-1 .4477-1 1-1z" id="icons-default-basket" /></defs><use xlink:href="#icons-default-basket" fill="#758CA3" fill-rule="evenodd" /></svg>