<svg xmlns="http://www.w3.org/2000/svg" xmlns:xlink="http://www.w3.org/1999/xlink" width="24" height="24" viewBox="0 0 24 24"><defs><path d="M14 6h4.134a.9995.9995 0 0 1 .2654-.2994A1.496 1.496 0 0 0 19 4.5c0-.8284-.6716-1.5-1.5-1.5a1.492 1.492 0 0 0-1.0658.4445c-.4906.4954-1.3249.3492-1.6179-.2835A2.0002 2.0002 0 0 0 13 2a1.9996 1.9996 0 0 0-1.7821 1.0909c-.2946.5756-1.0498.7246-1.5409.3038C9.392 3.1506 8.968 3 8.5 3c-.7264 0-1.3134.3611-1.4636.7894-.2157.6148-.9523.8625-1.4956.5028C5.2616 4.1074 4.8957 4 4.5 4 3.6287 4 3 4.503 3 5v1.5C3 7.3284 3.6716 8 4.5 8c.7165 0 1.3295-.5067 1.47-1.199A1 1 0 0 1 6.95 6H14zm-3 2H7.6633C7.0971 9.1938 5.8816 10 4.5 10c-.1698 0-.3367-.012-.5-.0354V22h14V8h-7zm-9 .9495C1.3814 8.3182 1 7.4537 1 6.5V5c0-1.712 1.61-3 3.5-3 .4177 0 .826.0626 1.2088.1823C6.3605 1.4459 7.3887 1 8.5 1c.5432 0 1.0698.106 1.544.3045A3.9958 3.9958 0 0 1 13 0a3.997 3.997 0 0 1 2.9897 1.342A3.493 3.493 0 0 1 17.5 1C19.433 1 21 2.567 21 4.5c0 .9325-.368 1.8051-1 2.4497V9h1c1.6569 0 3 1.3431 3 3v5c0 1.6569-1.3431 3-3 3h-1v2c0 1.1046-.8954 2-2 2H4c-1.1046 0-2-.8954-2-2V8.9495zM20 11v7h1c.5523 0 1-.4477 1-1v-5c0-.5523-.4477-1-1-1h-1zM6 12c0-.5523.4477-1 1-1s1 .4477 1 1v6c0 .5523-.4477 1-1 1s-1-.4477-1-1v-6zm4 0c0-.5523.4477-1 1-1s1 .4477 1 1v6c0 .5523-.4477 1-1 1s-1-.4477-1-1v-6zm4 0c0-.5523.4477-1 1-1s1 .4477 1 1v6c0 .5523-.4477 1-1 1s-1-.4477-1-1v-6z" id="icons-default-beer" /></defs><use xlink:href="#icons-default-beer" fill="#758CA3" fill-rule="evenodd" /></svg>