<svg xmlns="http://www.w3.org/2000/svg" xmlns:xlink="http://www.w3.org/1999/xlink" width="24" height="24" viewBox="0 0 24 24"><defs><path d="M11.602 2C8.5082 2 6 4.5081 6 7.602v4.162a5.6827 5.6827 0 0 1-2.4271 4.6577l-.7706.5386A1.8786 1.8786 0 0 0 2 18.5a.5.5 0 0 0 .5.5h19a.5.5 0 0 0 .5-.5 1.9531 1.9531 0 0 0-.8011-1.5772l-.7887-.576A5.876 5.876 0 0 1 18 11.6016V7.5392C18 4.48 15.52 2 12.4608 2h-.8587zm4.3626 19c-.2427 1.6961-1.7014 3-3.4646 3-1.7632 0-3.222-1.3039-3.4646-3H2.5C1.1193 21 0 19.8807 0 18.5a3.8786 3.8786 0 0 1 1.6565-3.179l.7706-.5386A3.6827 3.6827 0 0 0 4 11.764V7.602C4 3.4037 7.4036 0 11.602 0h.8588C16.6246 0 20 3.3754 20 7.5392v4.0625a3.876 3.876 0 0 0 1.5898 3.13l.7887.576A3.9531 3.9531 0 0 1 24 18.5c0 1.3807-1.1193 2.5-2.5 2.5h-5.5354zm-2.05 0h-2.8292c.2059.5826.7615 1 1.4146 1 .6531 0 1.2087-.4174 1.4146-1z" id="icons-default-bell-bell" /></defs><use xlink:href="#icons-default-bell-bell" fill="#758CA3" fill-rule="evenodd" /></svg>