<svg xmlns="http://www.w3.org/2000/svg" xmlns:xlink="http://www.w3.org/1999/xlink" width="24" height="24" viewBox="0 0 24 24"><defs><path d="M2 18.5c0 .5523-.4477 1-1 1s-1-.4477-1-1a3.8786 3.8786 0 0 1 1.6565-3.179l.7706-.5386A3.6827 3.6827 0 0 0 4 11.764V7.602C4 3.4037 7.4036 0 11.602 0h.8588c1.772 0 3.4522.6145 4.7919 1.7185.4262.3513.487.9815.1357 1.4077-.3512.4262-.9814.487-1.4076.1358C14.996 2.4505 13.7643 2 12.4608 2h-.8587C8.508 2 6 4.5081 6 7.602v4.162a5.6827 5.6827 0 0 1-2.4271 4.6577l-.7706.5386A1.8786 1.8786 0 0 0 2 18.5zM15.9646 21c-.2427 1.6961-1.7014 3-3.4646 3-1.7709 0-3.2346-1.3152-3.4677-3.0221-.4513-.0966-.7897-.4978-.7897-.9779 0-.5523.4478-1 1-1H21.5a.5.5 0 0 0 .5-.5 1.9531 1.9531 0 0 0-.8011-1.5772l-.7887-.576A5.876 5.876 0 0 1 18 11.6016v-1.359c0-.5523.4477-1 1-1s1 .4477 1 1v1.359a3.876 3.876 0 0 0 1.5898 3.13l.7887.576A3.9531 3.9531 0 0 1 24 18.5c0 1.3807-1.1193 2.5-2.5 2.5h-5.5354zm-2.05 0h-2.8292c.2059.5826.7615 1 1.4146 1 .6531 0 1.2087-.4174 1.4146-1zM20.293 2.2929c.3905-.3905 1.0237-.3905 1.4142 0 .3905.3905.3905 1.0237 0 1.4142l-18 18c-.3905.3905-1.0237.3905-1.4142 0-.3905-.3905-.3905-1.0237 0-1.4142l18-18z" id="icons-default-bell-crossed" /></defs><use xlink:href="#icons-default-bell-crossed" fill="#758CA3" fill-rule="evenodd" /></svg>