<svg xmlns="http://www.w3.org/2000/svg" xmlns:xlink="http://www.w3.org/1999/xlink" width="24" height="24" viewBox="0 0 24 24"><defs><path d="M5 3c-.5523 0-1-.4477-1-1s.4477-1 1-1h7c3.3137 0 6 2.6863 6 6 0 1.7272-.7298 3.2839-1.8978 4.3786C18.3791 12.2304 20 14.4259 20 17c0 3.3137-2.6863 6-6 6H5c-.5523 0-1-.4477-1-1s.4477-1 1-1V3zm2 0v8h5c2.2091 0 4-1.7909 4-4 0-2.2091-1.7909-4-4-4H7zm0 10v8h7c2.2091 0 4-1.7909 4-4 0-2.2091-1.7909-4-4-4H7z" id="icons-default-bold" /></defs><use xlink:href="#icons-default-bold" fill="#758CA3" fill-rule="evenodd" /></svg>