<svg xmlns="http://www.w3.org/2000/svg" xmlns:xlink="http://www.w3.org/1999/xlink" width="24" height="24" viewBox="0 0 24 24"><defs><path d="M6 2v18.47l4.3346-2.893a3 3 0 0 1 3.3308 0L18 20.47V2H6zM5 0h14c.5523 0 1 .4477 1 1v21.3398c0 .5523-.4477 1-1 1a1 1 0 0 1-.5551-.1683l-5.8898-3.931a1 1 0 0 0-1.1102 0l-5.8898 3.931c-.4593.3066-1.0803.1828-1.3869-.2766A1 1 0 0 1 4 22.3398V1c0-.5523.4477-1 1-1z" id="icons-default-bookmark" /></defs><use xlink:href="#icons-default-bookmark" fill="#758CA3" fill-rule="evenodd" /></svg>