<svg xmlns="http://www.w3.org/2000/svg" xmlns:xlink="http://www.w3.org/1999/xlink" width="24" height="24" viewBox="0 0 24 24"><defs><path d="M8 4V3c0-1.1046.8954-2 2-2h4c1.1046 0 2 .8954 2 2h4c1.1046 0 2 .8954 2 2v16c0 1.1046-.8954 2-2 2h-4a1.9908 1.9908 0 0 1-1-.2676A1.9908 1.9908 0 0 1 14 23h-4a1.9908 1.9908 0 0 1-1-.2676A1.9908 1.9908 0 0 1 8 23H4c-1.1046 0-2-.8954-2-2V6c0-1.1046.8954-2 2-2h4zm0 2H4v15h4V6zm8 15h4V5h-4v16zM10 3v18h4V3h-4zM5 15c0-.5523.4477-1 1-1s1 .4477 1 1v4c0 .5523-.4477 1-1 1s-1-.4477-1-1v-4zm6-2c0-.5523.4477-1 1-1s1 .4477 1 1v6c0 .5523-.4477 1-1 1s-1-.4477-1-1v-6zm6 4c0-.5523.4477-1 1-1s1 .4477 1 1v2c0 .5523-.4477 1-1 1s-1-.4477-1-1v-2z" id="icons-default-books" /></defs><use xlink:href="#icons-default-books" fill="#758CA3" fill-rule="evenodd" /></svg>