<svg xmlns="http://www.w3.org/2000/svg" xmlns:xlink="http://www.w3.org/1999/xlink" width="24" height="24" viewBox="0 0 24 24"><defs><path d="M20 8v1c0 .5523-.4477 1-1 1s-1-.4477-1-1V8H6v1c0 .5523-.4477 1-1 1s-1-.4477-1-1V8H3c-.5523 0-1 .4477-1 1v10c0 .5523.4477 1 1 1h18c.5523 0 1-.4477 1-1V9c0-.5523-.4477-1-1-1h-1zM7 6V4c0-1.1046.8954-2 2-2h6c1.1046 0 2 .8954 2 2v2h4c1.6569 0 3 1.3431 3 3v10c0 1.6569-1.3431 3-3 3H3c-1.6569 0-3-1.3431-3-3V9c0-1.6569 1.3431-3 3-3h4zm2 0h6V4H9v2z" id="icons-default-briefcase" /></defs><use xlink:href="#icons-default-briefcase" fill="#758CA3" fill-rule="evenodd" /></svg>