<svg xmlns="http://www.w3.org/2000/svg" xmlns:xlink="http://www.w3.org/1999/xlink" width="24" height="24" viewBox="0 0 24 24"><defs><path d="M11 20.8939V14c0-.5523.4477-1 1-1s1 .4477 1 1v6.8939c2.7816-.595 5-3.6253 5-7.3939C18 9.289 15.2303 6 12 6s-6 3.289-6 7.5c0 3.7686 2.2184 6.7989 5 7.3939zM4.841 9.2552l-1.548-1.548c-.3905-.3906-.3905-1.0238 0-1.4143.3905-.3905 1.0237-.3905 1.4142 0l1.138 1.138c.6112-.873 1.3515-1.614 2.1863-2.1814A1.0018 1.0018 0 0 1 8 5c0-2.2091 1.7909-4 4-4 2.2091 0 4 1.7909 4 4 0 .0861-.0109.1697-.0314.2495.8348.5674 1.5751 1.3084 2.1863 2.1814l1.138-1.138c.3905-.3905 1.0237-.3905 1.4142 0 .3905.3905.3905 1.0237 0 1.4142L19.159 9.2552c.479 1.1371.7716 2.4042.8301 3.7449L20 13h2c.5523 0 1 .4477 1 1s-.4477 1-1 1h-2a1.012 1.012 0 0 1-.0985-.0048c-.1296.9736-.3838 1.898-.7425 2.7496l1.5481 1.548c.3905.3906.3905 1.0238 0 1.4143-.3905.3905-1.0237.3905-1.4142 0l-1.138-1.138C16.6874 21.6654 14.4749 23 12 23c-2.475 0-4.6874-1.3346-6.1549-3.4309l-1.138 1.138c-.3905.3905-1.0237.3905-1.4142 0-.3905-.3905-.3905-1.0237 0-1.4142l1.5481-1.5481c-.3587-.8515-.6129-1.776-.7425-2.7496A1.012 1.012 0 0 1 4 15H2c-.5523 0-1-.4477-1-1s.4477-1 1-1h2.0109c.0585-1.3406.3511-2.6077.8301-3.7448zm9.0166-4.9978C13.5628 3.5205 12.8422 3 12 3c-.8422 0-1.5628.5205-1.8576 1.2574A6.8207 6.8207 0 0 1 12 4c.6395 0 1.2615.0891 1.8576.2574z" id="icons-default-bug" /></defs><use xlink:href="#icons-default-bug" fill="#758CA3" fill-rule="evenodd" /></svg>