<svg xmlns="http://www.w3.org/2000/svg" xmlns:xlink="http://www.w3.org/1999/xlink" width="24" height="24" viewBox="0 0 24 24"><defs><path d="M10 18H8c-1.6569 0-3-1.3431-3-3v-2H3c-1.6569 0-3-1.3431-3-3V3c0-1.6569 1.3431-3 3-3h7c1.6569 0 3 1.3431 3 3v2h2c1.6569 0 3 1.3431 3 3v2h2c1.6569 0 3 1.3431 3 3v7c0 1.6569-1.3431 3-3 3h-7c-1.6569 0-3-1.3431-3-3v-2zm0-2v-3c0-1.6569 1.3431-3 3-3h3V8c0-.5523-.4477-1-1-1H8c-.5523 0-1 .4477-1 1v7c0 .5523.4477 1 1 1h2zm-5-5V8c0-1.6569 1.3431-3 3-3h3V3c0-.5523-.4477-1-1-1H3c-.5523 0-1 .4477-1 1v7c0 .5523.4477 1 1 1h2zm8 1c-.5523 0-1 .4477-1 1v7c0 .5523.4477 1 1 1h7c.5523 0 1-.4477 1-1v-7c0-.5523-.4477-1-1-1h-7z" id="icons-default-bulk-edit" /></defs><use xlink:href="#icons-default-bulk-edit" fill="#758CA3" fill-rule="evenodd" /></svg>