<svg xmlns="http://www.w3.org/2000/svg" xmlns:xlink="http://www.w3.org/1999/xlink" width="24" height="24" viewBox="0 0 24 24"><defs><path d="M21 6V5c0-.5523-.4477-1-1-1H4c-.5523 0-1 .4477-1 1v1h18zm0 2H3v13c0 .5523.4477 1 1 1h16c.5523 0 1-.4477 1-1V8zm-2-6h1c1.6569 0 3 1.3431 3 3v16c0 1.6569-1.3431 3-3 3H4c-1.6569 0-3-1.3431-3-3V5c0-1.6569 1.3431-3 3-3h1V1c0-.5523.4477-1 1-1s1 .4477 1 1v1h10V1c0-.5523.4477-1 1-1s1 .4477 1 1v1z" id="icons-default-calendar-empty" /></defs><use xlink:href="#icons-default-calendar-empty" fill="#758CA3" fill-rule="evenodd" /></svg>