<svg xmlns="http://www.w3.org/2000/svg" xmlns:xlink="http://www.w3.org/1999/xlink" width="24" height="24" viewBox="0 0 24 24"><defs><path d="M7.8341 20.9863C7.4261 22.1586 6.3113 23 5 23c-1.6569 0-3-1.3431-3-3 0-1.397.9549-2.571 2.2475-2.9048l.4429-1.3286c-1.008-.4238-1.7408-1.3832-1.8295-2.5365l-.7046-9.1593A1.1598 1.1598 0 0 0 1 3c-.5523 0-1-.4477-1-1s.4477-1 1-1c1.651 0 3.0238 1.2712 3.1504 2.9174L23 3.9446c.6306 0 1.1038.5766.9808 1.195l-1.6798 8.4456C22.0218 14.989 20.7899 16 19.3586 16H6.7208l-.4304 1.291a3.0095 3.0095 0 0 1 1.5437 1.7227C7.8881 19.0047 7.9435 19 8 19h8.1707c.4118-1.1652 1.523-2 2.8293-2 1.6569 0 3 1.3431 3 3s-1.3431 3-3 3c-1.3062 0-2.4175-.8348-2.8293-2H8c-.0565 0-.112-.0047-.1659-.0137zm-2.8506-1.9862C4.439 19.009 4 19.4532 4 20c0 .5523.4477 1 1 1s1-.4477 1-1c0-.5467-.4388-.991-.9834-.9999a.9923.9923 0 0 1-.033 0zM6.0231 14h13.3355a1 1 0 0 0 .9808-.805l1.4421-7.2504H4.3064l.5486 7.1321A1 1 0 0 0 5.852 14h.1247a.9921.9921 0 0 1 .0464 0zM19 21c.5523 0 1-.4477 1-1s-.4477-1-1-1-1 .4477-1 1 .4477 1 1 1z" id="icons-default-cart" /></defs><use xlink:href="#icons-default-cart" fill="#758CA3" fill-rule="evenodd" /></svg>