<svg xmlns="http://www.w3.org/2000/svg" xmlns:xlink="http://www.w3.org/1999/xlink" width="24" height="24" viewBox="0 0 24 24"><defs><path d="M0 1c0-.5523.4477-1 1-1s1 .4477 1 1v20c0 .5523.4477 1 1 1h20c.5523 0 1 .4477 1 1s-.4477 1-1 1H3c-1.6569 0-3-1.3431-3-3V1zm4 14c0-.5523.4477-1 1-1s1 .4477 1 1v4c0 .5523-.4477 1-1 1s-1-.4477-1-1v-4zm12-9c0-.5523.4477-1 1-1s1 .4477 1 1v13c0 .5523-.4477 1-1 1s-1-.4477-1-1V6zm-4 3c0-.5523.4477-1 1-1s1 .4477 1 1v10c0 .5523-.4477 1-1 1s-1-.4477-1-1V9zm-4 3c0-.5523.4477-1 1-1s1 .4477 1 1v7c0 .5523-.4477 1-1 1s-1-.4477-1-1v-7zm12-9c0-.5523.4477-1 1-1s1 .4477 1 1v16c0 .5523-.4477 1-1 1s-1-.4477-1-1V3z" id="icons-default-chart-bar" /></defs><use xlink:href="#icons-default-chart-bar" fill="#758CA3" fill-rule="evenodd" /></svg>