<svg xmlns="http://www.w3.org/2000/svg" xmlns:xlink="http://www.w3.org/1999/xlink" width="24" height="24" viewBox="0 0 24 24"><defs><path d="m11.1274 13.2868-5.4203 5.4203c-.3905.3905-1.0237.3905-1.4142 0-.3905-.3905-.3905-1.0237 0-1.4142l6-6a1 1 0 0 1 1.2618-.125l2.3179 1.5453 6.4203-6.4203c.3905-.3905 1.0237-.3905 1.4142 0 .3905.3905.3905 1.0237 0 1.4142l-7 7a1 1 0 0 1-1.2618.125l-2.3179-1.5453zM0 1c0-.5523.4477-1 1-1s1 .4477 1 1v20c0 .5523.4477 1 1 1h20c.5523 0 1 .4477 1 1s-.4477 1-1 1H3c-1.6569 0-3-1.3431-3-3V1z" id="icons-default-chart" /></defs><use xlink:href="#icons-default-chart" fill="#758CA3" fill-rule="evenodd" /></svg>