<svg xmlns="http://www.w3.org/2000/svg" xmlns:xlink="http://www.w3.org/1999/xlink" width="24" height="24" viewBox="0 0 24 24"><defs><path d="M20.9883 14c-.261 5.5668-4.857 10-10.4883 10C4.701 24 0 19.299 0 13.5 0 7.8686 4.4332 3.2727 10 3.0117V2c0-.5523.4477-1 1-1 6.6274 0 12 5.3726 12 12 0 .5523-.4477 1-1 1h-1.0117zM10 5.0145c-4.4617.2588-8 3.959-8 8.4855 0 4.6944 3.8056 8.5 8.5 8.5 4.5266 0 8.2267-3.5383 8.4855-8H11c-.5523 0-1-.4477-1-1V5.0145zm2-1.9651V12h8.9506C20.4816 7.2756 16.7244 3.5184 12 3.0494z" id="icons-default-chart-pie" /></defs><use xlink:href="#icons-default-chart-pie" fill="#758CA3" fill-rule="evenodd" /></svg>