<svg xmlns="http://www.w3.org/2000/svg" xmlns:xlink="http://www.w3.org/1999/xlink" width="24" height="24" viewBox="0 0 24 24"><defs><path d="M4 15c-.5523 0-1 .4477-1 1v5c0 .5523.4477 1 1 1s1-.4477 1-1v-5c0-.5523-.4477-1-1-1zm0-2c1.6569 0 3 1.3431 3 3v5c0 1.6569-1.3431 3-3 3s-3-1.3431-3-3v-5c0-1.6569 1.3431-3 3-3zm8-13c1.6569 0 3 1.3431 3 3v18c0 1.6569-1.3431 3-3 3s-3-1.3431-3-3V3c0-1.6569 1.3431-3 3-3zm0 2c-.5523 0-1 .4477-1 1v18c0 .5523.4477 1 1 1s1-.4477 1-1V3c0-.5523-.4477-1-1-1zm8 5c1.6569 0 3 1.3431 3 3v11c0 1.6569-1.3431 3-3 3s-3-1.3431-3-3V10c0-1.6569 1.3431-3 3-3zm0 2c-.5523 0-1 .4477-1 1v11c0 .5523.4477 1 1 1s1-.4477 1-1V10c0-.5523-.4477-1-1-1z" id="icons-default-chart-bar-filled" /></defs><use xlink:href="#icons-default-chart-bar-filled" fill="#758CA3" fill-rule="evenodd" /></svg>