<svg xmlns="http://www.w3.org/2000/svg" xmlns:xlink="http://www.w3.org/1999/xlink" width="24" height="24" viewBox="0 0 24 24"><defs><path d="M18.5858 6H16c-.5523 0-1-.4477-1-1s.4477-1 1-1h5c.5523 0 1 .4477 1 1v5c0 .5523-.4477 1-1 1s-1-.4477-1-1V7.4142l-5.2929 5.293c-.3905.3904-1.0237.3904-1.4142 0L12 11.4141l-6.2929 6.293c-.3905.3904-1.0237.3904-1.4142 0-.3905-.3906-.3905-1.0238 0-1.4143l7-7c.3905-.3905 1.0237-.3905 1.4142 0L14 10.5858 18.5858 6zM0 1c0-.5523.4477-1 1-1s1 .4477 1 1v20c0 .5523.4477 1 1 1h20c.5523 0 1 .4477 1 1s-.4477 1-1 1H3c-1.6569 0-3-1.3431-3-3V1z" id="icons-default-chart-sales" /></defs><use xlink:href="#icons-default-chart-sales" fill="#758CA3" fill-rule="evenodd" /></svg>