<svg xmlns="http://www.w3.org/2000/svg" xmlns:xlink="http://www.w3.org/1999/xlink" width="24" height="24" viewBox="0 0 24 24"><defs><path d="M16.5858 4H3c-.5523 0-1 .4477-1 1v14c0 .5523.4477 1 1 1h14c.5523 0 1-.4477 1-1v-7.5858L12.4142 17c-.781.781-2.0474.781-2.8284 0L5 12.4142c-.781-.781-.781-2.0474 0-2.8284L6.5858 8c.781-.781 2.0474-.781 2.8284 0L11 9.5858 16.5858 4zM20 9.4142V19c0 1.6569-1.3431 3-3 3H3c-1.6569 0-3-1.3431-3-3V5c0-1.6569 1.3431-3 3-3h15.5858c.781-.781 2.0474-.781 2.8284 0L23 3.5858c.781.781.781 2.0474 0 2.8284l-3 3zm-9 6.1716L21.5858 5 20 3.4142l-9 9-3-3L6.4142 11 11 15.5858z" id="icons-default-checkmark-wide-block" /></defs><use xlink:href="#icons-default-checkmark-wide-block" fill="#758CA3" fill-rule="evenodd" /></svg>