<svg xmlns="http://www.w3.org/2000/svg" xmlns:xlink="http://www.w3.org/1999/xlink" width="24" height="24" viewBox="0 0 24 24"><defs><path d="M8 11.5858 16.5858 3c.781-.781 2.0474-.781 2.8284 0L22 5.5858c.781.781.781 2.0474 0 2.8284L9.4142 21c-.781.781-2.0474.781-2.8284 0L1 15.4142c-.781-.781-.781-2.0474 0-2.8284L3.5858 10c.781-.781 2.0474-.781 2.8284 0L8 11.5858zM2.4142 14 8 19.5858 20.5858 7 18 4.4142l-10 10-3-3L2.4142 14z" id="icons-default-checkmark-wide" /></defs><use xlink:href="#icons-default-checkmark-wide" fill="#758CA3" fill-rule="evenodd" /></svg>