<svg xmlns="http://www.w3.org/2000/svg" xmlns:xlink="http://www.w3.org/1999/xlink" width="24" height="24" viewBox="0 0 24 24"><defs><path d="m13 14.5858 1.2929-1.293c.3905-.3904 1.0237-.3904 1.4142 0 .3905.3906.3905 1.0238 0 1.4143l-3 3c-.3905.3905-1.0237.3905-1.4142 0l-3-3c-.3905-.3905-.3905-1.0237 0-1.4142.3905-.3905 1.0237-.3905 1.4142 0L11 14.5858V1c0-.5523.4477-1 1-1s1 .4477 1 1v13.5858zM7.4993 7.1344c.478-.2765 1.0898-.1132 1.3663.3649.2765.478.1132 1.0898-.3649 1.3663C6.3511 10.1091 5 12.4012 5 14.9297c0 3.866 3.134 7 7 7s7-3.134 7-7c0-2.5285-1.3511-4.8206-3.5007-6.064-.478-.2766-.6414-.8884-.365-1.3664.2766-.478.8884-.6414 1.3664-.365C19.2622 8.7319 21 11.68 21 14.9298c0 4.9706-4.0294 9-9 9s-9-4.0294-9-9c0-3.2498 1.7378-6.198 4.4993-7.7954z" id="icons-default-circle-download" /></defs><use xlink:href="#icons-default-circle-download" fill="#758CA3" fill-rule="evenodd" /></svg>