<svg xmlns="http://www.w3.org/2000/svg" xmlns:xlink="http://www.w3.org/1999/xlink" width="24" height="24" viewBox="0 0 24 24"><defs><path d="M13 11V6c0-.5523-.4477-1-1-1s-1 .4477-1 1v6c0 .5523.4477 1 1 1h4c.5523 0 1-.4477 1-1s-.4477-1-1-1h-3zm-1 13C5.3726 24 0 18.6274 0 12S5.3726 0 12 0s12 5.3726 12 12-5.3726 12-12 12zm0-2c5.5228 0 10-4.4772 10-10S17.5228 2 12 2 2 6.4772 2 12s4.4772 10 10 10z" id="icons-default-clock" /></defs><use xlink:href="#icons-default-clock" fill="#758CA3" fill-rule="evenodd" /></svg>