<svg xmlns="http://www.w3.org/2000/svg" xmlns:xlink="http://www.w3.org/1999/xlink" width="24" height="24" viewBox="0 0 24 24"><defs><path d="M13 10.4142V22c0 .5523-.4477 1-1 1s-1-.4477-1-1V10.4142l-1.2929 1.293c-.3905.3904-1.0237.3904-1.4142 0-.3905-.3906-.3905-1.0238 0-1.4143l3-3c.3905-.3905 1.0237-.3905 1.4142 0l3 3c.3905.3905.3905 1.0237 0 1.4142-.3905.3905-1.0237.3905-1.4142 0L13 10.4142zM13 1c2.8074 0 5.2963 1.6679 6.402 4.1647C22.061 5.8004 24 8.1925 24 11c0 3.3137-2.6863 6-6 6h-2c-.5523 0-1-.4477-1-1s.4477-1 1-1h2c2.2091 0 4-1.7909 4-4 0-2.0081-1.489-3.6983-3.4593-3.9639l-.611-.0824-.2009-.583C17.0398 4.3704 15.1506 3 13 3c-1.5047 0-2.8983.6674-3.8434 1.8016l-.3963.4756-.6025-.1427A5.0166 5.0166 0 0 0 7 5c-2.7614 0-5 2.2386-5 5s2.2386 5 5 5h1c.5523 0 1 .4477 1 1s-.4477 1-1 1H7c-3.866 0-7-3.134-7-7s3.134-7 7-7c.3455 0 .6881.0251 1.0257.0747A6.982 6.982 0 0 1 13 1z" id="icons-default-cloud-upload" /></defs><use xlink:href="#icons-default-cloud-upload" fill="#758CA3" fill-rule="evenodd" /></svg>