<svg xmlns="http://www.w3.org/2000/svg" xmlns:xlink="http://www.w3.org/1999/xlink" width="24" height="24" viewBox="0 0 24 24"><defs><path d="M2.0494 12H3c.5523 0 1 .4477 1 1s-.4477 1-1 1h-.9504c.2786 2.7977 1.7172 5.3236 3.9493 7h1.9733c.5523 0 1 .4477 1 1s-.4477 1-1 1H5.6738a1 1 0 0 1-.5757-.1824C1.9267 20.5843 0 16.9533 0 13 0 6.3726 5.3726 1 12 1s12 5.3726 12 12c0 3.9533-1.9267 7.5843-5.098 9.8176a1 1 0 0 1-.5758.1824H15.876c-.5523 0-1-.4477-1-1s.4477-1 1-1h2.1251c2.2321-1.6764 3.6707-4.2023 3.9493-7H21c-.5523 0-1-.4477-1-1s.4477-1 1-1h.9506C21.4816 7.2756 17.7244 3.5184 13 3.0494V4c0 .5523-.4477 1-1 1s-1-.4477-1-1v-.9506C6.2756 3.5184 2.5184 7.2756 2.0494 12zm10.6878 1.6757c-.3732.4071-1.0058.4346-1.413.0615-.407-.3732-.4345-1.0058-.0614-1.413l4.0907-4.4624c.3732-.4072 1.0058-.4347 1.4129-.0615.407.3732.4346 1.0058.0614 1.4129l-4.0906 4.4625z" id="icons-default-cockpit" /></defs><use xlink:href="#icons-default-cockpit" fill="#758CA3" fill-rule="evenodd" /></svg>