<svg xmlns="http://www.w3.org/2000/svg" xmlns:xlink="http://www.w3.org/1999/xlink" width="24" height="24" viewBox="0 0 24 24"><defs><path d="M13.0299 3.7575c.134-.5358.6768-.8616 1.2126-.7276.5358.134.8616.6768.7276 1.2126l-4 16c-.134.5358-.6768.8616-1.2126.7276-.5358-.134-.8616-.6768-.7276-1.2126l4-16zM6.707 7.707 2.4142 12l4.293 4.2929c.3904.3905.3904 1.0237 0 1.4142-.3906.3905-1.0238.3905-1.4143 0l-5-5c-.3905-.3905-.3905-1.0237 0-1.4142l5-5c.3905-.3905 1.0237-.3905 1.4142 0 .3905.3905.3905 1.0237 0 1.4142zm10.586 8.586L21.5858 12l-4.293-4.2929c-.3904-.3905-.3904-1.0237 0-1.4142.3906-.3905 1.0238-.3905 1.4143 0l5 5c.3905.3905.3905 1.0237 0 1.4142l-5 5c-.3905.3905-1.0237.3905-1.4142 0-.3905-.3905-.3905-1.0237 0-1.4142z" id="icons-default-code" /></defs><use xlink:href="#icons-default-code" fill="#758CA3" fill-rule="evenodd" /></svg>