<svg xmlns="http://www.w3.org/2000/svg" xmlns:xlink="http://www.w3.org/1999/xlink" width="24" height="24" viewBox="0 0 24 24"><defs><path d="M17.8248 8.5251 19.057 7.293c.714-.714.714-1.8717 0-2.5858-.714-.714-1.8717-.714-2.5857 0L15.239 5.9393l2.5858 2.5858zm-4-4L15.057 3.293c1.4951-1.4951 3.9192-1.4951 5.4143 0 1.495 1.495 1.495 3.9191 0 5.4142L19.239 9.9393l.1318.1318c.781.781.781 2.0473 0 2.8284l-1.114 1.114c-.781.781-2.0474.781-2.8284 0l-.1318-.1318-6.5324 6.5325A2 2 0 0 1 7.3499 21H6.0002l-1.1056.5528a2 2 0 0 1-1.7888 0c-.988-.494-1.3884-1.6953-.8944-2.6833l.5528-1.1056v-1.3497A2 2 0 0 1 3.3499 15l6.5325-6.5325-.1109-.1109c-.781-.781-.781-2.0474 0-2.8284l1.114-1.114c.781-.781 2.0473-.781 2.8284 0l.111.111zm-2.5282 5.3566-6.5324 6.5325V18a1 1 0 0 1-.1056.4472l-.6584 1.3167 1.3167-.6583A1 1 0 0 1 5.7642 19h1.5857l6.5325-6.5325-2.5858-2.5858zm1.003-4.0533-1.1139 1.114 5.6569 5.6568 1.114-1.114-5.657-5.6568z" id="icons-default-colorpicker" /></defs><use xlink:href="#icons-default-colorpicker" fill="#758CA3" fill-rule="evenodd" /></svg>