<svg xmlns="http://www.w3.org/2000/svg" xmlns:xlink="http://www.w3.org/1999/xlink" width="24" height="24" viewBox="0 0 24 24"><defs><g id="icons-default-content"><path d="M11.077 24C10.4821 24 10 23.5523 10 23s.4822-1 1.077-1h11.846c.5948 0 1.077.4477 1.077 1s-.4822 1-1.077 1H11.077zm0-6C10.4821 18 10 17.5523 10 17s.4822-1 1.077-1h11.846c.5948 0 1.077.4477 1.077 1s-.4822 1-1.077 1H11.077zm0-6C10.4821 12 10 11.5523 10 11s.4822-1 1.077-1h11.846c.5948 0 1.077.4477 1.077 1s-.4822 1-1.077 1H11.077zM18 6c0 .5523-.4477 1-1 1s-1-.4477-1-1V3c0-.5523-.4477-1-1-1H3c-.5523 0-1 .4477-1 1v12c0 .5523.4477 1 1 1h3c.5523 0 1 .4477 1 1s-.4477 1-1 1H3c-1.6569 0-3-1.3431-3-3V3c0-1.6569 1.3431-3 3-3h12c1.6569 0 3 1.3431 3 3v3z" id="Combined-Shape" /></g></defs><use xlink:href="#icons-default-content" fill="#758CA3" fill-rule="evenodd" /></svg>