<svg xmlns="http://www.w3.org/2000/svg" width="192" height="227" fill="none" xmlns:v="https://vecta.io/nano"><g filter="url(#A)"><path d="M23.753 175h144.494L185 220H7l16.753-45z" fill="#000" fill-opacity=".10" style="fill: #000"/></g><path d="M186 198H6V18L25.375 1h142.5L186 18v180z" fill="#fff"/><path d="M6 198h180M6 198V18m0 180l19.375-49.375M186 198V18m0 180l-18.125-50.125M186 18H6m180 0L167.875 1M6 18L25.375 1m142.5 0h-142.5m142.5 0v146.875M25.375 1v147.625m0 0l142.5-.75" stroke="#848484" stroke-linejoin="round" stroke-dasharray="12 8"/><defs><filter id="A" x="0" y="168" width="192" height="59" filterUnits="userSpaceOnUse" color-interpolation-filters="sRGB"><feFlood flood-opacity="0"/><feBlend in="SourceGraphic"/><feGaussianBlur stdDeviation="3.5"/></filter></defs></svg>
