<svg xmlns="http://www.w3.org/2000/svg" xmlns:xlink="http://www.w3.org/1999/xlink" width="24" height="24" viewBox="0 0 24 24"><defs><path d="M3 2c-.5523 0-1 .4477-1 1v3c0 .5523.4477 1 1 1h3c.5523 0 1-.4477 1-1V3c0-.5523-.4477-1-1-1H3zm0-2h3c1.6569 0 3 1.3431 3 3v3c0 1.6569-1.3431 3-3 3H3C1.3431 9 0 7.6569 0 6V3c0-1.6569 1.3431-3 3-3zm11 16h7c1.6569 0 3 1.3431 3 3v2c0 1.6569-1.3431 3-3 3h-7c-1.6569 0-3-1.3431-3-3v-2c0-1.6569 1.3431-3 3-3zm0 2c-.5523 0-1 .4477-1 1v2c0 .5523.4477 1 1 1h7c.5523 0 1-.4477 1-1v-2c0-.5523-.4477-1-1-1h-7zM3 11h3c1.6569 0 3 1.3431 3 3v7c0 1.6569-1.3431 3-3 3H3c-1.6569 0-3-1.3431-3-3v-7c0-1.6569 1.3431-3 3-3zm0 2c-.5523 0-1 .4477-1 1v7c0 .5523.4477 1 1 1h3c.5523 0 1-.4477 1-1v-7c0-.5523-.4477-1-1-1H3zM21 0c1.6569 0 3 1.3431 3 3v8c0 1.6569-1.3431 3-3 3h-7c-1.6569 0-3-1.3431-3-3V3c0-1.6569 1.3431-3 3-3h7zm-8 3v8c0 .5523.4477 1 1 1h7c.5523 0 1-.4477 1-1V3c0-.5523-.4477-1-1-1h-7c-.5523 0-1 .4477-1 1z" id="icons-default-dashboard" /></defs><use xlink:href="#icons-default-dashboard" fill="#758CA3" fill-rule="evenodd" /></svg>