<svg xmlns="http://www.w3.org/2000/svg" xmlns:xlink="http://www.w3.org/1999/xlink" width="24" height="24" viewBox="0 0 24 24"><defs><path d="M24 6.0175v5.9635a.999.999 0 0 1 0 .0361V19a.9998.9998 0 0 1-.5205.8778c-7.1136 4.063-15.8454 4.063-22.959 0A.9998.9998 0 0 1 0 19v-6.9829a.9991.9991 0 0 1 0-.036V6.0174a.9983.9983 0 0 1 .0005-.055.9999.9999 0 0 1 .5028-.9055c7.1225-4.0762 15.871-4.0762 22.9934 0a.9999.9999 0 0 1 .5028.9055.9983.9983 0 0 1 .0005.055zm-2 1.636c-6.3196 3.0288-13.6804 3.0288-20 0v3.7632c6.229 3.4098 13.771 3.4098 20 0V7.6536zm0 6.0141c-6.3087 3.0753-13.6913 3.0753-20 0v4.7435c6.2438 3.352 13.7562 3.352 20 0v-4.7435zM3.1029 5.9625c5.6397 2.6168 12.1545 2.6168 17.7942 0-5.6397-2.6169-12.1545-2.6169-17.7942 0z" id="icons-default-database" /></defs><use xlink:href="#icons-default-database" fill="#758CA3" fill-rule="evenodd" /></svg>