<svg xmlns="http://www.w3.org/2000/svg" xmlns:xlink="http://www.w3.org/1999/xlink" width="24" height="24" viewBox="0 0 24 24"><defs><path d="M3 4c-.5523 0-1 .4477-1 1v11c0 .5523.4477 1 1 1h18c.5523 0 1-.4477 1-1V5c0-.5523-.4477-1-1-1H3zm0-2h18c1.6569 0 3 1.3431 3 3v11c0 1.6569-1.3431 3-3 3H3c-1.6569 0-3-1.3431-3-3V5c0-1.6569 1.3431-3 3-3zm13 18c.5523 0 1 .4477 1 1s-.4477 1-1 1H8c-.5523 0-1-.4477-1-1s.4477-1 1-1h8z" id="icons-default-desktop" /></defs><use xlink:href="#icons-default-desktop" fill="#758CA3" fill-rule="evenodd" /></svg>