<svg xmlns="http://www.w3.org/2000/svg" xmlns:xlink="http://www.w3.org/1999/xlink" width="24" height="24" viewBox="0 0 24 24"><defs><path d="m18.6064 17.1922 4.515 4.515c.3904.3904.3904 1.0236 0 1.4141-.3906.3905-1.0238.3905-1.4143 0l-4.515-4.515C16.0237 19.4817 14.5724 20 13 20c-3.866 0-7-3.134-7-7s3.134-7 7-7 7 3.134 7 7c0 1.5723-.5184 3.0236-1.3936 4.1922zM7 2v4c0 .5523-.4477 1-1 1H2v14c0 .5523.4477 1 1 1h11c.5523 0 1 .4477 1 1s-.4477 1-1 1H3c-1.6569 0-3-1.3431-3-3V6c0-3.3137 2.6863-6 6-6h9c1.6569 0 3 1.3431 3 3v1c0 .5523-.4477 1-1 1s-1-.4477-1-1V3c0-.5523-.4477-1-1-1H7zM2.126 5H5V2.126C3.5944 2.4878 2.4878 3.5944 2.126 5zM13 18c2.7614 0 5-2.2386 5-5s-2.2386-5-5-5-5 2.2386-5 5 2.2386 5 5 5z" id="icons-default-document-view" /></defs><use xlink:href="#icons-default-document-view" fill="#758CA3" fill-rule="evenodd" /></svg>