<svg xmlns="http://www.w3.org/2000/svg" xmlns:xlink="http://www.w3.org/1999/xlink" width="24" height="24" viewBox="0 0 24 24"><defs><path d="M18 6h-2V3c0-.5523-.4477-1-1-1H3c-.5523 0-1 .4477-1 1v12c0 .5523.4477 1 1 1h3v2H3c-1.6569 0-3-1.3431-3-3V3c0-1.6569 1.3431-3 3-3h12c1.6569 0 3 1.3431 3 3v3zm-2 8h2c.5523 0 1 .4477 1 1s-.4477 1-1 1h-2v2c0 .5523-.4477 1-1 1s-1-.4477-1-1v-2h-2c-.5523 0-1-.4477-1-1s.4477-1 1-1h2v-2c0-.5523.4477-1 1-1s1 .4477 1 1v2zM9 6h12c1.6569 0 3 1.3431 3 3v12c0 1.6569-1.3431 3-3 3H9c-1.6569 0-3-1.3431-3-3V9c0-1.6569 1.3431-3 3-3zm0 2c-.5523 0-1 .4477-1 1v12c0 .5523.4477 1 1 1h12c.5523 0 1-.4477 1-1V9c0-.5523-.4477-1-1-1H9z" id="icons-default-duplicate" /></defs><use xlink:href="#icons-default-duplicate" fill="#758CA3" fill-rule="evenodd" /></svg>