<svg xmlns="http://www.w3.org/2000/svg" xmlns:xlink="http://www.w3.org/1999/xlink" width="12" height="12" viewBox="0 0 12 12"><defs><path d="M3.4142 10H5c.5523 0 1 .4477 1 1s-.4477 1-1 1H1c-.5523 0-1-.4477-1-1V7c0-.5523.4477-1 1-1s1 .4477 1 1v1.5858l1.7929-1.793c.3905-.3904 1.0237-.3904 1.4142 0 .3905.3906.3905 1.0238 0 1.4143L3.4142 10zm5.1716-8H7c-.5523 0-1-.4477-1-1s.4477-1 1-1h4c.5523 0 1 .4477 1 1v4c0 .5523-.4477 1-1 1s-1-.4477-1-1V3.4142l-1.7929 1.793c-.3905.3904-1.0237.3904-1.4142 0-.3905-.3906-.3905-1.0238 0-1.4143L8.5858 2z" id="icons-default-editor-expand" /></defs><use xlink:href="#icons-default-editor-expand" fill="#758CA3" fill-rule="evenodd" /></svg>