<svg xmlns="http://www.w3.org/2000/svg" xmlns:xlink="http://www.w3.org/1999/xlink" width="12" height="12" viewBox="0 0 12 12"><defs><path d="M8 1h3c.5523 0 1 .4477 1 1s-.4477 1-1 1H8c-.5523 0-1-.4477-1-1s.4477-1 1-1zm1 4h2c.5523 0 1 .4477 1 1s-.4477 1-1 1H9c-.5523 0-1-.4477-1-1s.4477-1 1-1zM8 9h3c.5523 0 1 .4477 1 1s-.4477 1-1 1H8c-.5523 0-1-.4477-1-1s.4477-1 1-1zM3 9C1.3431 9 0 7.6569 0 6s1.3431-3 3-3 3 1.3431 3 3-1.3431 3-3 3zm0-2c.5523 0 1-.4477 1-1s-.4477-1-1-1-1 .4477-1 1 .4477 1 1 1z" id="icons-default-editor-list-unordered" /></defs><use xlink:href="#icons-default-editor-list-unordered" fill="#758CA3" fill-rule="evenodd" /></svg>