<svg xmlns="http://www.w3.org/2000/svg" xmlns:xlink="http://www.w3.org/1999/xlink" width="12" height="12" viewBox="0 0 12 12"><defs><path d="M2.2019 6 3.832 8.4453c.3063.4595.1821 1.0804-.2774 1.3868-.4595.3063-1.0804.1821-1.3868-.2774l-2-3a1 1 0 0 1 0-1.1094l2-3c.3064-.4595.9273-.5837 1.3868-.2774.4595.3064.5837.9273.2774 1.3868L2.2019 6zM8.168 3.5547c-.3064-.4595-.1822-1.0804.2773-1.3868.4595-.3063 1.0804-.1821 1.3868.2774l2 3a1 1 0 0 1 0 1.1094l-2 3c-.3064.4595-.9273.5837-1.3868.2774-.4595-.3064-.5837-.9273-.2773-1.3868L9.7983 6 8.168 3.5547zM5.5077 1.876c.0685-.548.5683-.9368 1.1163-.8683s.9368.5683.8683 1.1163l-1 8c-.0685.548-.5683.9368-1.1163.8683s-.9368-.5683-.8683-1.1163l1-8z" id="icons-default-editor-code" /></defs><use xlink:href="#icons-default-editor-code" fill="#758CA3" fill-rule="evenodd" /></svg>