<svg xmlns="http://www.w3.org/2000/svg" width="12" height="12" viewBox="0 0 12 12">
  <path fill="#758CA3" fill-rule="evenodd" d="M3.41421356,9 L4.70710678,10.2928932 C5.09763107,10.6834175 5.09763107,11.3165825 4.70710678,11.7071068 C4.31658249,12.0976311 3.68341751,12.0976311 3.29289322,11.7071068 L0.292893219,8.70710678 C-0.0976310729,8.31658249 -0.0976310729,7.68341751 0.292893219,7.29289322 L3.29289322,4.29289322 C3.68341751,3.90236893 4.31658249,3.90236893 4.70710678,4.29289322 C5.09763107,4.68341751 5.09763107,5.31658249 4.70710678,5.70710678 L3.41421356,7 L6.5,7 C7.88071187,7 9,5.88071187 9,4.5 C9,3.11928813 7.88071187,2 6.5,2 L5.03566885,2 C4.4833841,2 4.03566885,1.55228475 4.03566885,1 C4.03566885,0.44771525 4.4833841,-1.67491962e-16 5.03566885,0 L6.5,4.4408921e-16 C8.98528137,-1.26882631e-16 11,2.01471863 11,4.5 C11,6.98528137 8.98528137,9 6.5,9 L3.41421356,9 Z"/>
</svg>
