<svg xmlns="http://www.w3.org/2000/svg" xmlns:xlink="http://www.w3.org/1999/xlink" width="12" height="12" viewBox="0 0 12 12"><defs><path d="M8 5V1c0-.5523.4477-1 1-1s1 .4477 1 1v7c0 .5523-.4477 1-1 1a1.0002 1.0002 0 0 1-.9114-.588A3.9813 3.9813 0 0 1 6 9C3.7909 9 2 7.2091 2 5V1c0-.5523.4477-1 1-1s1 .4477 1 1v4c0 1.1046.8954 2 2 2s2-.8954 2-2zm-6 5h8c.5523 0 1 .4477 1 1s-.4477 1-1 1H2c-.5523 0-1-.4477-1-1s.4477-1 1-1z" id="icons-default-editor-underline" /></defs><use xlink:href="#icons-default-editor-underline" fill="#758CA3" fill-rule="evenodd" /></svg>