<svg xmlns="http://www.w3.org/2000/svg" xmlns:xlink="http://www.w3.org/1999/xlink" width="12" height="12" viewBox="0 0 12 12"><defs><path d="M12 9.9884v.0254C11.9925 11.112 11.1 12 10 12H2c-1.1046 0-2-.8954-2-2V2C0 .8954.8954 0 2 0h8c1.1046 0 2 .8954 2 2v7.9884zM10 7V2H2v8h1.5194l2.8934-3.6167c.69-.8626 1.9486-1.0024 2.811-.3124a2 2 0 0 1 .3507.3618L10 7zm-.25 3L7.9745 7.6327 6.0806 10H9.75zM4.5 6C3.6716 6 3 5.3284 3 4.5S3.6716 3 4.5 3 6 3.6716 6 4.5 5.3284 6 4.5 6z" id="icons-default-editor-media" /></defs><use xlink:href="#icons-default-editor-media" fill="#758CA3" fill-rule="evenodd" /></svg>