<svg xmlns="http://www.w3.org/2000/svg" xmlns:xlink="http://www.w3.org/1999/xlink" width="12" height="12" viewBox="0 0 12 12"><defs><path d="M4.1429 5H7c.5523 0 1-.4477 1-1V3c0-.5523-.4477-1-1-1H4v3h.1429zM4 10h4c.5523 0 1-.4477 1-1V8c0-.5523-.4477-1-1-1H4v3zm-2 0V2c-.5523 0-1-.4477-1-1s.4477-1 1-1h5c1.6569 0 3 1.3431 3 3v1a2.9863 2.9863 0 0 1-.385 1.4714C10.448 6.0044 11 6.9377 11 8v1c0 1.6569-1.3431 3-3 3H2c-.5523 0-1-.4477-1-1s.4477-1 1-1z" id="icons-default-editor-bold" /></defs><use xlink:href="#icons-default-editor-bold" fill="#758CA3" fill-rule="evenodd" /></svg>