<svg xmlns="http://www.w3.org/2000/svg" xmlns:xlink="http://www.w3.org/1999/xlink" width="12" height="12" viewBox="0 0 12 12"><defs><path d="M8 1h3c.5523 0 1 .4477 1 1s-.4477 1-1 1H8c-.5523 0-1-.4477-1-1s.4477-1 1-1zm0 4h3c.5523 0 1 .4477 1 1s-.4477 1-1 1H8c-.5523 0-1-.4477-1-1s.4477-1 1-1zm2 4h1c.5523 0 1 .4477 1 1s-.4477 1-1 1h-1c-.5523 0-1-.4477-1-1s.4477-1 1-1zM3 3.4142l-.2929.293c-.3905.3904-1.0237.3904-1.4142 0-.3905-.3906-.3905-1.0238 0-1.4143l2-2C3.9229-.3371 5 .109 5 1v9h1c.5523 0 1 .4477 1 1s-.4477 1-1 1H2c-1.3333 0-1.3333-2 0-2h1V3.4142z" id="icons-default-editor-list-numberd" /></defs><use xlink:href="#icons-default-editor-list-numberd" fill="#758CA3" fill-rule="evenodd" /></svg>