<svg xmlns="http://www.w3.org/2000/svg" xmlns:xlink="http://www.w3.org/1999/xlink" width="12" height="12" viewBox="0 0 12 12"><defs><path d="M6.4595 7H7c.5523 0 1 .4477 1 1s-.4477 1-1 1H5.7595l-.8156 2.3304c-.1825.5212-.753.796-1.2743.6135-.5212-.1825-.796-.753-.6135-1.2743l3.5-10c.3125-.8928 1.5753-.8928 1.8878 0l3.5 10c.1824.5213-.0923 1.0918-.6135 1.2743-.5213.1824-1.0918-.0923-1.2743-.6135L7.5 4.027 6.4595 7zm-4.5171 4.3346c-.1848.5204-.7565.7925-1.277.6078-.5204-.1848-.7925-.7565-.6078-1.277l3.5-9.8581c.1848-.5205.7565-.7926 1.277-.6078.5204.1848.7925.7565.6078 1.277l-3.5 9.858z" id="icons-default-editor-style" /></defs><use xlink:href="#icons-default-editor-style" fill="#758CA3" fill-rule="evenodd" /></svg>