<svg xmlns="http://www.w3.org/2000/svg" xmlns:xlink="http://www.w3.org/1999/xlink" width="12" height="12" viewBox="0 0 12 12"><defs><path d="M7 10c.5523 0 1 .4477 1 1s-.4477 1-1 1H5c-.5523 0-1-.4477-1-1s.4477-1 1-1V8h2v2zm0-8v2H5V2H3c0 .5523-.4477 1-1 1s-1-.4477-1-1V1c0-.5523.4477-1 1-1h8c.5523 0 1 .4477 1 1v1c0 .5523-.4477 1-1 1s-1-.4477-1-1H7zM1 7c-.5523 0-1-.4477-1-1s.4477-1 1-1h10c.5523 0 1 .4477 1 1s-.4477 1-1 1H1z" id="icons-default-editor-strikethrough" /></defs><use xlink:href="#icons-default-editor-strikethrough" fill="#758CA3" fill-rule="evenodd" /></svg>