<svg xmlns="http://www.w3.org/2000/svg" xmlns:xlink="http://www.w3.org/1999/xlink" width="12" height="12" viewBox="0 0 12 12"><defs><path d="m3.4142 9 1.293 1.2929c.3904.3905.3904 1.0237 0 1.4142-.3906.3905-1.0238.3905-1.4143 0l-3-3c-.3905-.3905-.3905-1.0237 0-1.4142l3-3c.3905-.3905 1.0237-.3905 1.4142 0 .3905.3905.3905 1.0237 0 1.4142L3.4142 7H6.5C7.8807 7 9 5.8807 9 4.5S7.8807 2 6.5 2H5.0357c-.5523 0-1-.4477-1-1s.4477-1 1-1H6.5C8.9853 0 11 2.0147 11 4.5S8.9853 9 6.5 9H3.4142z" id="icons-default-editor-undo" /></defs><use xlink:href="#icons-default-editor-undo" fill="#758CA3" fill-rule="evenodd" /></svg>