<svg xmlns="http://www.w3.org/2000/svg" xmlns:xlink="http://www.w3.org/1999/xlink" width="12" height="12" viewBox="0 0 12 12"><defs><path d="m8.5858 9-1.293 1.2929c-.3904.3905-.3904 1.0237 0 1.4142.3906.3905 1.0238.3905 1.4143 0l3-3c.3905-.3905.3905-1.0237 0-1.4142l-3-3c-.3905-.3905-1.0237-.3905-1.4142 0-.3905.3905-.3905 1.0237 0 1.4142L8.5858 7H5.5C4.1193 7 3 5.8807 3 4.5S4.1193 2 5.5 2h1.4643c.5523 0 1-.4477 1-1s-.4477-1-1-1H5.5C3.0147 0 1 2.0147 1 4.5S3.0147 9 5.5 9h3.0858z" id="icons-default-editor-redo" /></defs><use xlink:href="#icons-default-editor-redo" fill="#758CA3" fill-rule="evenodd" /></svg>