<svg xmlns="http://www.w3.org/2000/svg" xmlns:xlink="http://www.w3.org/1999/xlink" width="12" height="12" viewBox="0 0 12 12"><defs><path d="M4 1h7c.5523 0 1 .4477 1 1s-.4477 1-1 1H4c-.5523 0-1-.4477-1-1s.4477-1 1-1zM1 1c.5523 0 1 .4477 1 1s-.4477 1-1 1-1-.4477-1-1 .4477-1 1-1zm3 4h7c.5523 0 1 .4477 1 1s-.4477 1-1 1H4c-.5523 0-1-.4477-1-1s.4477-1 1-1zM1 5c.5523 0 1 .4477 1 1s-.4477 1-1 1-1-.4477-1-1 .4477-1 1-1zm3 4h7c.5523 0 1 .4477 1 1s-.4477 1-1 1H4c-.5523 0-1-.4477-1-1s.4477-1 1-1zM1 9c.5523 0 1 .4477 1 1s-.4477 1-1 1-1-.4477-1-1 .4477-1 1-1z" id="icons-default-editor-list" /></defs><use xlink:href="#icons-default-editor-list" fill="#758CA3" fill-rule="evenodd" /></svg>