<svg xmlns="http://www.w3.org/2000/svg" xmlns:xlink="http://www.w3.org/1999/xlink" width="12" height="12" viewBox="0 0 12 12"><defs><path d="M8.5858 3H7C3.6863 3 1 5.6863 1 9v2c0 .5523.4477 1 1 1s1-.4477 1-1V9c0-2.2091 1.7909-4 4-4h1.5858l-1.293 1.2929c-.3904.3905-.3904 1.0237 0 1.4142.3906.3905 1.0238.3905 1.4143 0l3-3c.3905-.3905.3905-1.0237 0-1.4142l-3-3c-.3905-.3905-1.0237-.3905-1.4142 0-.3905.3905-.3905 1.0237 0 1.4142L8.5858 3z" id="icons-default-editor-re-undo" /></defs><use xlink:href="#icons-default-editor-re-undo" fill="#758CA3" fill-rule="evenodd" /></svg>