<svg xmlns="http://www.w3.org/2000/svg" xmlns:xlink="http://www.w3.org/1999/xlink" width="12" height="12" viewBox="0 0 12 12"><defs><path d="M4.5858 1.7574c1.562-1.5621 4.0947-1.5621 5.6568 0 1.5621 1.562 1.5621 4.0947 0 5.6568-.3905.3905-1.0236.3905-1.4142 0-.3905-.3905-.3905-1.0237 0-1.4142.781-.781.781-2.0474 0-2.8284-.781-.781-2.0474-.781-2.8284 0-.3905.3905-1.0237.3905-1.4142 0-.3905-.3906-.3905-1.0237 0-1.4142zM1.7574 4.5858c.3905-.3905 1.0236-.3905 1.4142 0 .3905.3905.3905 1.0237 0 1.4142-.781.781-.781 2.0474 0 2.8284.781.781 2.0474.781 2.8284 0 .3905-.3905 1.0237-.3905 1.4142 0 .3905.3906.3905 1.0237 0 1.4142-1.562 1.5621-4.0947 1.5621-5.6568 0-1.5621-1.562-1.5621-4.0947 0-5.6568zm3.5355 3.5355c-.3905.3905-1.0237.3905-1.4142 0-.3905-.3905-.3905-1.0237 0-1.4142L6.707 3.8787c.3905-.3905 1.0237-.3905 1.4142 0 .3905.3905.3905 1.0237 0 1.4142L5.293 8.1213z" id="icons-default-editor-link" /></defs><use xlink:href="#icons-default-editor-link" fill="#758CA3" fill-rule="evenodd" /></svg>