<svg xmlns="http://www.w3.org/2000/svg" xmlns:xlink="http://www.w3.org/1999/xlink" width="12" height="12" viewBox="0 0 12 12"><defs><path d="M2.8338 6 .1425 1.5145C-.1416 1.0409.012.4267.4855.1425c.4736-.2841 1.0878-.1306 1.372.343L4 4.0563 6.1425.4855c.2842-.4736.8984-.6271 1.372-.343.4736.2842.6271.8984.343 1.372L5.1662 6l2.6913 4.4855c.2841.4736.1306 1.0878-.343 1.372-.4736.2841-1.0878.1306-1.372-.343L4 7.9437l-2.1425 3.5708c-.2842.4736-.8984.6271-1.372.343-.4736-.2842-.6271-.8984-.343-1.372L2.8338 6zM10.5 4C9.6716 4 9 3.3284 9 2.5S9.6716 1 10.5 1s1.5.6716 1.5 1.5S11.3284 4 10.5 4z" id="icons-default-editor-superscript" /></defs><use xlink:href="#icons-default-editor-superscript" fill="#758CA3" fill-rule="evenodd" /></svg>