<svg xmlns="http://www.w3.org/2000/svg" xmlns:xlink="http://www.w3.org/1999/xlink" width="12" height="12" viewBox="0 0 12 12"><defs><path d="M2.834 6.0002.1427 1.5146C-.1415 1.0411.012.4268.4857.1426c.4735-.284 1.0878-.1305 1.372.343l2.1425 3.5709L6.1427.4857c.2841-.4736.8984-.6272 1.372-.343.4735.2841.627.8984.343 1.372L5.1662 6.0001l2.6913 4.4855c.2842.4735.1306 1.0878-.343 1.372-.4735.284-1.0878.1305-1.372-.343L4.0003 7.9437l-2.1426 3.5708c-.2841.4736-.8984.6272-1.372.343-.4735-.2841-.627-.8984-.343-1.372L2.834 6.0003zm7.6662 5c-.8285 0-1.5-.6716-1.5-1.5 0-.8285.6715-1.5 1.5-1.5.8284 0 1.5.6715 1.5 1.5 0 .8284-.6716 1.5-1.5 1.5z" id="icons-default-editor-subscript" /></defs><use xlink:href="#icons-default-editor-subscript" fill="#758CA3" fill-rule="evenodd" /></svg>