<svg xmlns="http://www.w3.org/2000/svg" xmlns:xlink="http://www.w3.org/1999/xlink" width="24" height="24" viewBox="0 0 24 24"><defs><path d="M12 24C5.3726 24 0 18.6274 0 12S5.3726 0 12 0s12 5.3726 12 12-5.3726 12-12 12zm0-2c5.5228 0 10-4.4772 10-10S17.5228 2 12 2 2 6.4772 2 12s4.4772 10 10 10zm-5.9487-6.6838c-.1746-.524.1085-1.0902.6325-1.2649.524-.1746 1.0902.1085 1.2649.6325.0797.2391.3188.6695.7584 1.109C9.4601 16.5459 10.5197 17 12 17s2.54-.4541 3.2929-1.2071c.4396-.4396.6787-.87.7584-1.1091.1747-.524.741-.8071 1.265-.6325.5239.1747.807.741.6324 1.265-.1703.5108-.5562 1.2054-1.2416 1.8908C15.5851 18.3291 14.0197 19 12 19s-3.585-.6709-4.7071-1.7929c-.6854-.6854-1.0713-1.38-1.2416-1.8909zm1.5034-5.4841c-.4595.3063-1.0804.1821-1.3868-.2774-.3063-.4595-.1821-1.0804.2774-1.3868l.3906-.2604a3 3 0 0 1 3.3282 0l.3906.2604c.4595.3064.5837.9273.2774 1.3868-.3064.4595-.9273.5837-1.3868.2774l-.3906-.2604a1 1 0 0 0-1.1094 0l-.3906.2604zm7 0c-.4595.3063-1.0804.1821-1.3868-.2774-.3063-.4595-.1821-1.0804.2774-1.3868l.3906-.2604a3 3 0 0 1 3.3282 0l.3906.2604c.4595.3064.5837.9273.2774 1.3868-.3064.4595-.9273.5837-1.3868.2774l-.3906-.2604a1 1 0 0 0-1.1094 0l-.3906.2604z" id="icons-default-emoji" /></defs><use xlink:href="#icons-default-emoji" fill="#758CA3" fill-rule="evenodd" /></svg>