<svg xmlns="http://www.w3.org/2000/svg" xmlns:xlink="http://www.w3.org/1999/xlink" width="24" height="24" viewBox="0 0 24 24"><defs><path d="m3.7438 5 7.1093 4.9765a2 2 0 0 0 2.2938 0L20.2562 5H3.7438zM22 6.2207l-7.7062 5.3943a4 4 0 0 1-4.5876 0L2 6.2207V18c0 .5523.4477 1 1 1h18c.5523 0 1-.4477 1-1V6.2207zM3 3h18c1.6569 0 3 1.3431 3 3v12c0 1.6569-1.3431 3-3 3H3c-1.6569 0-3-1.3431-3-3V6c0-1.6569 1.3431-3 3-3z" id="icons-default-envelope" /></defs><use xlink:href="#icons-default-envelope" fill="#758CA3" fill-rule="evenodd" /></svg>