<svg xmlns="http://www.w3.org/2000/svg" xmlns:xlink="http://www.w3.org/1999/xlink" width="24" height="24" viewBox="0 0 24 24"><defs><path d="m10.5858 12-2.293-2.2929c-.3904-.3905-.3904-1.0237 0-1.4142.3906-.3905 1.0238-.3905 1.4143 0L12 10.5858l2.2929-2.293c.3905-.3904 1.0237-.3904 1.4142 0 .3905.3906.3905 1.0238 0 1.4143L13.4142 12l2.293 2.2929c.3904.3905.3904 1.0237 0 1.4142-.3906.3905-1.0238.3905-1.4143 0L12 13.4142l-2.2929 2.293c-.3905.3904-1.0237.3904-1.4142 0-.3905-.3906-.3905-1.0238 0-1.4143L10.5858 12zM7.2426 0h9.5148a3 3 0 0 1 2.1213.8787l4.2426 4.2426A3 3 0 0 1 24 7.2426v9.5148a3 3 0 0 1-.8787 2.1213l-4.2426 4.2426A3 3 0 0 1 16.7574 24H7.2426a3 3 0 0 1-2.1213-.8787L.8787 18.8787A3 3 0 0 1 0 16.7574V7.2426a3 3 0 0 1 .8787-2.1213L5.1213.8787A3 3 0 0 1 7.2426 0zm0 2a1 1 0 0 0-.707.2929L2.2928 6.5355A1 1 0 0 0 2 7.2426v9.5148a1 1 0 0 0 .2929.707l4.2426 4.2427A1 1 0 0 0 7.2426 22h9.5148a1 1 0 0 0 .707-.2929l4.2427-4.2426A1 1 0 0 0 22 16.7574V7.2426a1 1 0 0 0-.2929-.707l-4.2426-4.2427A1 1 0 0 0 16.7574 2H7.2426z" id="icons-default-error" /></defs><use xlink:href="#icons-default-error" fill="#758CA3" fill-rule="evenodd" /></svg>