<svg xmlns="http://www.w3.org/2000/svg" xmlns:xlink="http://www.w3.org/1999/xlink" width="24" height="24" viewBox="0 0 24 24"><defs><path d="M3.055 13A9.099 9.099 0 0 1 3 12c0-.338.0186-.6717.055-1H2c-.5523 0-1-.4477-1-1s.4477-1 1-1h1.5121C4.7476 5.5044 8.0813 3 12 3c1.5834 0 3.1095.4103 4.456 1.179.4796.2737.6465.8845.3727 1.3642-.2738.4796-.8846.6465-1.3642.3727C14.418 5.3185 13.2334 5 12 5 9.2076 5 6.7971 6.635 5.6736 9H10c.5523 0 1 .4477 1 1s-.4477 1-1 1H5.0709A7.0594 7.0594 0 0 0 5 12c0 .3395.0242.6734.0709 1H10c.5523 0 1 .4477 1 1s-.4477 1-1 1H5.6736c1.1235 2.365 3.534 4 6.3264 4 1.2087 0 2.3707-.3059 3.4021-.8807.4824-.2689 1.0915-.0957 1.3603.3867.2689.4824.0958 1.0914-.3866 1.3603C15.0486 20.606 13.5518 21 12 21c-3.9187 0-7.2524-2.5044-8.4879-6H2c-.5523 0-1-.4477-1-1s.4477-1 1-1h1.055z" id="icons-default-euro" /></defs><use xlink:href="#icons-default-euro" fill="#758CA3" fill-rule="evenodd" /></svg>