<svg xmlns="http://www.w3.org/2000/svg" xmlns:xlink="http://www.w3.org/1999/xlink" width="24" height="24" viewBox="0 0 24 24"><defs><path d="M22 3.4142 9.7071 15.7072c-.3905.3904-1.0237.3904-1.4142 0-.3905-.3906-.3905-1.0238 0-1.4143L20.5858 2H18c-.5523 0-1-.4477-1-1s.4477-1 1-1h5c.5523 0 1 .4477 1 1v5c0 .5523-.4477 1-1 1s-1-.4477-1-1V3.4142zM12.9838 3c.5522 0 1 .4477 1 1s-.4478 1-1 1H3c-.5523 0-1 .4477-1 1v15c0 .5523.4477 1 1 1h15.0011c.5523 0 1-.4477 1-1.0027l-.0277-9.9945c-.0015-.5523.445-1.0013.9972-1.0028.5523-.0015 1.0013.445 1.0028.9972L21.0011 21c0 1.6569-1.3431 3-3 3H3c-1.6569 0-3-1.3431-3-3V6c0-1.6569 1.3431-3 3-3h9.9838z" id="icons-default-external" /></defs><use xlink:href="#icons-default-external" fill="#758CA3" fill-rule="evenodd" /></svg>