<svg xmlns="http://www.w3.org/2000/svg" xmlns:xlink="http://www.w3.org/1999/xlink" width="24" height="24" viewBox="0 0 24 24"><defs><path d="M12.001 20C7.7019 20 3.827 17.7042.412 13.21a2 2 0 0 1 0-2.4201C3.827 6.2959 7.7018 4 12.001 4c4.2994 0 8.1741 2.2958 11.5892 6.79a2 2 0 0 1 0 2.4201C20.175 17.7041 16.3004 20 12.001 20zm0-2c3.6119 0 6.9325-1.9675 9.9968-6-3.0643-4.0325-6.3849-6-9.9967-6-3.6118 0-6.9324 1.9675-9.9968 6 3.0644 4.0325 6.385 6 9.9968 6zM12 16c-2.2091 0-4-1.7909-4-4 0-2.2091 1.7909-4 4-4 2.2091 0 4 1.7909 4 4 0 2.2091-1.7909 4-4 4zm0-2c1.1046 0 2-.8954 2-2s-.8954-2-2-2-2 .8954-2 2 .8954 2 2 2z" id="icons-default-eye-open" /></defs><use xlink:href="#icons-default-eye-open" fill="#758CA3" fill-rule="evenodd" /></svg>