<svg xmlns="http://www.w3.org/2000/svg" xmlns:xlink="http://www.w3.org/1999/xlink" width="24" height="24" viewBox="0 0 24 24"><defs><path d="M2.9877 16.101c-.8852-.8319-1.7435-1.7957-2.5758-2.891a2 2 0 0 1 0-2.4201C3.8271 6.2958 7.7018 4 12.0011 4c.6958 0 1.3825.0605 2.0593.1815.5436.0972.9056.6167.8084 1.1604-.0972.5436-.6168.9056-1.1604.8084A9.6795 9.6795 0 0 0 12.001 6c-3.6118 0-6.9324 1.9675-9.9968 6 .7668 1.009 1.5512 1.8898 2.3522 2.6428a1.018 1.018 0 0 1 .026.025c.3904.3906.3904 1.0237 0 1.4143-.3842.384-1.003.3904-1.3948.019zM20.293 2.293c.3905-.3905 1.0237-.3905 1.4142 0 .3905.3905.3905 1.0237 0 1.4142l-18 18c-.3905.3905-1.0237.3905-1.4142 0-.3905-.3905-.3905-1.0237 0-1.4142l18-18zm-.6518 7.06c-.4026-.3781-.4224-1.011-.0442-1.4135.378-.4026 1.011-.4224 1.4135-.0443.8866.8329 1.7463 1.798 2.5798 2.8948a2 2 0 0 1 0 2.4202C20.1751 17.7042 16.3004 20 12.0011 20c-.6966 0-1.3839-.0606-2.0613-.1818-.5437-.0973-.9055-.617-.8082-1.1606.0973-.5436.6169-.9055 1.1605-.8082a9.6793 9.6793 0 0 0 1.709.1506c3.6118 0 6.9324-1.9675 9.9967-6-.7682-1.011-1.554-1.8932-2.3567-2.6471z" id="icons-default-eye-crossed" /></defs><use xlink:href="#icons-default-eye-crossed" fill="#758CA3" fill-rule="evenodd" /></svg>