<svg xmlns="http://www.w3.org/2000/svg" xmlns:xlink="http://www.w3.org/1999/xlink" width="24" height="24" viewBox="0 0 24 24"><defs><path d="M5 7v14c0 .5523.4477 1 1 1h12c.5523 0 1-.4477 1-1V3c0-.5523-.4477-1-1-1h-8v4c0 .5523-.4477 1-1 1H5zm.126-2H8V2.126C6.5944 2.4878 5.4878 3.5944 5.126 5zM18 0c1.6569 0 3 1.3431 3 3v18c0 1.6569-1.3431 3-3 3H6c-1.6569 0-3-1.3431-3-3V6c0-3.3137 2.6863-6 6-6h9zM8 11c-.5523 0-1-.4477-1-1s.4477-1 1-1h8c.5523 0 1 .4477 1 1s-.4477 1-1 1H8zm0 4c-.5523 0-1-.4477-1-1s.4477-1 1-1h8c.5523 0 1 .4477 1 1s-.4477 1-1 1H8zm0 4c-.5523 0-1-.4477-1-1s.4477-1 1-1h8c.5523 0 1 .4477 1 1s-.4477 1-1 1H8z" id="icons-default-file" /></defs><use xlink:href="#icons-default-file" fill="#758CA3" fill-rule="evenodd" /></svg>