<svg xmlns="http://www.w3.org/2000/svg" xmlns:xlink="http://www.w3.org/1999/xlink" viewBox="0 0 24 24"><defs><path d="M2 3c0-1.1046.8954-2 2-2h16c1.1046 0 2 .8954 2 2v5.5858A2 2 0 0 1 21.4142 10L16 15.4142V21c0 1.1046-.8954 2-2 2h-4c-1.1046 0-2-.8954-2-2v-5.5858L2.5858 10A2 2 0 0 1 2 8.5858V3zm2 0v5.5858L9.4142 14A2 2 0 0 1 10 15.4142V21h4v-5.5858A2 2 0 0 1 14.5858 14L20 8.5858V3H4z" id="icons-default-filter" /></defs><use xlink:href="#icons-default-filter" fill="#758CA3" fill-rule="evenodd" /></svg>