<svg width="375" height="316" fill="none" xmlns="http://www.w3.org/2000/svg"><path d="M612.826 387h-853.63m853.63 0H1125m-512.174 0-52.508-66.881-40.869-52.053-32.708-41.664-26.779-34.097-22.316-28.432-18.881-24.058-16.19-20.624-14.046-17.891-12.296-15.66-10.852-13.822-9.648-12.27-8.62-10.979-7.767-9.885-7.023-8.945-6.388-8.136-5.842-7.437-5.338-6.801-4.923-6.277H70.307l-5.054 6.277-5.491 6.801-5.995 7.437-6.564 8.136-7.22 8.945-7.963 9.885-8.86 10.98-9.89 12.27L2.134 85.64-10.49 101.3l-14.418 17.891-16.628 20.624-19.406 24.058-22.928 28.432-27.501 34.097-33.584 41.664-41.963 52.053L-240.826 387H-753m1877.98 0-116.35-66.881H709.748l-57.431-52.053-45.966-41.664-37.632-34.097-31.373-28.432-26.539-24.058-22.753-20.624-19.735-17.891-17.262-15.66-15.249-13.822-13.543-12.27-12.121-10.979-10.917-9.885H-19.876L-30.99 48.57l-12.361 10.98-13.806 12.27L-72.69 85.64-90.28 101.3l-20.107 17.891-23.191 20.624-27.064 24.058-31.964 28.432-38.353 34.097-46.842 41.664-58.524 52.053h-298.882L-752.978 387M845.591 226.402H-470.178M954.283 387l-95.062-66.881-73.992-52.053m0 0H-410.646m1195.875 0h132.867l90.554 52.053m-223.421-52.053-59.225-41.664-48.483-34.097-40.41-28.432-34.196-24.058M-410.646 268.066l-75.087 52.053L-582.217 387m171.571-118.934 60.1-41.664 49.204-34.097 41.022-28.432 34.721-24.058m-185.047 128.251h-132.868m133.415-75.761H786.279m-1196.378 0 50.057-28.432 42.379-24.058h92.064m-184.5 52.49-60.057 34.097-73.358 41.664M602.915 139.815h-828.514m828.514 0h92.065l41.853 24.058m-133.918-24.058-29.316-20.624-25.423-17.891-22.251-15.66-19.624-13.822-17.46-12.27L473.22 48.57l-14.068-9.885h-59.881l-9.867-8.945-8.97-8.136-8.205-7.437-7.504-6.801H15.414l-7.657 6.801-8.358 7.437-9.145 8.136-10.064 8.945h-59.881l-14.265 9.885-15.862 10.98-17.722 12.27-19.931 13.822-22.578 15.659-25.795 17.891-29.755 20.624m-317.915 128.251-91.649 52.053M736.833 163.873H-360.02m1096.853 0 49.468 28.432 59.334 34.097 72.483 41.664M783.588 387l-73.796-66.881H-336.282L-411.478 387m130.155-267.831h940.4m-908.917-17.891h877.806m-27.238-15.659h-823.001M118.265 1.044l-3.064 6.277-3.325 6.802-3.632 7.436-3.96 8.136-4.376 8.945-4.835 9.886-5.36 10.979-5.995 12.27-6.738 13.822-7.636 15.66-8.73 17.89-10.063 20.624-11.749 24.058-13.87 28.433-16.65 34.096-20.326 41.664-25.4 52.053-32.643 66.882M-198.01 71.775h774.649M166.113 1.022l-1.072 6.277-1.16 6.802-1.269 7.436-1.378 8.136-1.51 8.945-1.684 9.886-1.86 10.979-2.079 12.27-2.34 13.822-2.648 15.66-3.041 17.89-3.501 20.625-4.091 24.058-4.813 28.432-5.798 34.096L120.802 268l-8.838 52.053-11.355 66.882M555.264 59.483h-731.658m731.658 0 21.354 12.27 24.022 13.822 27.239 15.66 31.111 17.89 35.902 20.625M555.264 59.483l-19.122-10.979-17.218-9.886h-59.881l-12.712-8.945-11.573-8.136-10.567-7.436H-44.423l-10.72 7.436-11.75 8.136-12.908 8.945h-59.881l-17.415 9.886-19.341 10.979-21.616 12.27-24.328 13.822-27.567 15.66-31.483 17.89-36.319 20.625m853.915-91.246h-693.196m633.337-34.403-11.858-6.802-10.896-6.277h-95.805M476.305 14.1l12.93 7.436 14.156 8.136 15.577 8.945m-42.663-24.517h-52.07l-9.693-6.802h-49.905l-6.913-6.277H309.81m193.537 28.63h-627.255m0 0-15.752 8.944m15.752-8.945 14.331-8.136m598.768 0h-598.768m0 0 13.083-7.436M70.242 1h-95.806m0 0L-34.6 7.277l-9.823 6.802h-52.071M-25.564 1h-47.914l-11.027 6.277m-11.99 6.802 11.99-6.802M22.35 1l-7.046 6.277h-99.809M405.594 1l8.904 6.277h49.905m-22.382 379.658-31.22-66.882L386.494 268l-19.45-41.664-15.927-34.096-13.281-28.432-11.223-24.058-9.627-20.625-8.357-17.89-7.308-15.66-6.454-13.822-5.732-12.27-5.12-10.979-4.616-9.886-4.179-8.945-3.806-8.136-3.479-7.436-3.173-6.802-2.931-6.277m-47.914 0 .941 6.277 1.006 6.802 1.116 7.436 1.203 8.136 1.335 8.945 1.466 9.886 1.641 10.979 1.816 12.27 2.056 13.822 2.319 15.66 2.647 17.89 3.064 20.625 3.566 24.058 4.222 28.432 5.076 34.096L253.583 268l7.723 52.053 9.933 66.882" stroke="url(#a)" stroke-width="1.085" stroke-linecap="round" stroke-linejoin="round" style="fill: #fff"/><defs><linearGradient id="a" x1="186" y1="1" x2="186" y2="387" gradientUnits="userSpaceOnUse"><stop stop-opacity="0"/><stop offset="1" stop-opacity=".2"/></linearGradient></defs></svg>
