<svg xmlns="http://www.w3.org/2000/svg" xmlns:xlink="http://www.w3.org/1999/xlink" width="64" height="56" viewBox="0 0 64 56"><defs><path d="M4 1C2.3431 1 1 2.3431 1 4v48c0 1.6569 1.3431 3 3 3h56c1.6569 0 3-1.3431 3-3V12.7273c0-1.6569-1.3431-3-3-3H30.4835a4 4 0 0 1-3.0552-1.4182l-5.5774-6.6A2 2 0 0 0 20.3233 1H4zm0-1h16.3233a3 3 0 0 1 2.2914 1.0636l5.5774 6.6a3 3 0 0 0 2.2914 1.0637H60c2.2091 0 4 1.7908 4 4V52c0 2.2091-1.7909 4-4 4H4c-2.2091 0-4-1.7909-4-4V4c0-2.2091 1.7909-4 4-4z" id="icons-default-folder-thumbnail" /></defs><use xlink:href="#icons-default-folder-thumbnail" fill="#758CA3" fill-rule="evenodd" /></svg>