<svg xmlns="http://www.w3.org/2000/svg" xmlns:xlink="http://www.w3.org/1999/xlink" width="24" height="24" viewBox="0 0 24 24"><defs><path d="M15.5858 9H10c-4.4183 0-8 3.5817-8 8v2.0312c0 .5523-.4477 1-1 1s-1-.4477-1-1V17C0 11.4772 4.4772 7 10 7h5.5858l-2.293-2.2929c-.3904-.3905-.3904-1.0237 0-1.4142.3906-.3905 1.0238-.3905 1.4143 0l4 4c.3905.3905.3905 1.0237 0 1.4142l-4 4c-.3905.3905-1.0237.3905-1.4142 0-.3905-.3905-.3905-1.0237 0-1.4142L15.5858 9zm6-1-3.293-3.2929c-.3904-.3905-.3904-1.0237 0-1.4142.3906-.3905 1.0238-.3905 1.4143 0l4 4c.3905.3905.3905 1.0237 0 1.4142l-4 4c-.3905.3905-1.0237.3905-1.4142 0-.3905-.3905-.3905-1.0237 0-1.4142L21.5858 8z" id="icons-default-forward" /></defs><use xlink:href="#icons-default-forward" fill="#758CA3" fill-rule="evenodd" /></svg>