<svg xmlns="http://www.w3.org/2000/svg" xmlns:xlink="http://www.w3.org/1999/xlink" width="24" height="24" viewBox="0 0 24 24"><defs><path d="M7 11h1c.5523 0 1 .4477 1 1s-.4477 1-1 1H7v1c0 .5523-.4477 1-1 1s-1-.4477-1-1v-1H4c-.5523 0-1-.4477-1-1s.4477-1 1-1h1v-1c0-.5523.4477-1 1-1s1 .4477 1 1v1zm-7 .5C0 7.9101 2.9101 5 6.5 5h11c3.5899 0 6.5 2.9101 6.5 6.5v2.8074a4.977 4.977 0 0 1-3.1286 4.621l-.4128.1652a5 5 0 0 1-4.857-.6424l-1.135-.8512a3 3 0 0 0-1.8-.6h-1.3333a3 3 0 0 0-1.8.6l-1.135.8512a5 5 0 0 1-4.8569.6424l-.4128-.1651A4.977 4.977 0 0 1 0 14.3075V11.5zm2 0v2.8074a2.977 2.977 0 0 0 1.8714 2.7641l.4128.1651a3 3 0 0 0 2.9142-.3854L8.3334 16a5 5 0 0 1 3-1h1.3333a5 5 0 0 1 3 1l1.135.8512a3 3 0 0 0 2.9141.3854l.4128-.165A2.977 2.977 0 0 0 22 14.3073V11.5C22 9.0147 19.9853 7 17.5 7h-11C4.0147 7 2 9.0147 2 11.5zm15 .5c.5523 0 1 .4477 1 1s-.4477 1-1 1-1-.4477-1-1 .4477-1 1-1zm2-2c.5523 0 1 .4477 1 1s-.4477 1-1 1-1-.4477-1-1 .4477-1 1-1z" id="icons-default-gamecontroler" /></defs><use xlink:href="#icons-default-gamecontroler" fill="#758CA3" fill-rule="evenodd" /></svg>