<svg xmlns="http://www.w3.org/2000/svg" xmlns:xlink="http://www.w3.org/1999/xlink" width="24" height="24" viewBox="0 0 24 24"><defs><path d="M12 16c3.866 0 7-3.134 7-7s-3.134-7-7-7-7 3.134-7 7 3.134 7 7 7zm1 4.959V22h2c.5523 0 1 .4477 1 1s-.4477 1-1 1H9c-.5523 0-1-.4477-1-1s.4477-1 1-1h2v-1.0412c-2.8368-.2347-5.4653-1.4627-7.4657-3.454-.3915-.3897-.393-1.0228-.0033-1.4142.3897-.3915 1.0228-.3929 1.4142-.0033C6.8078 17.9413 9.319 19 12 19c5.5228 0 10-4.4772 10-10 0-2.6684-1.0485-5.1686-2.887-7.0289-.3882-.3928-.3844-1.026.0084-1.4141.3928-.3883 1.026-.3845 1.4142.0083C22.7403 2.7963 24 5.8 24 9c0 6.2907-4.8405 11.4508-11 11.959zM12 18c-4.9706 0-9-4.0294-9-9s4.0294-9 9-9 9 4.0294 9 9-4.0294 9-9 9z" id="icons-default-globe" /></defs><use xlink:href="#icons-default-globe" fill="#758CA3" fill-rule="evenodd" /></svg>