<svg xmlns="http://www.w3.org/2000/svg" xmlns:xlink="http://www.w3.org/1999/xlink" width="24" height="24" viewBox="0 0 24 24"><defs><path d="M20.2357 3.7642 13.489 19.7107l-1.84-7.3599-7.36-1.84 15.9466-6.7466zM.7549 9.8345c-.5087.2152-.7466.802-.5314 1.3106a1 1 0 0 0 .6785.5805L9.9998 14l2.2745 9.098c.134.5357.6769.8615 1.2127.7275a1 1 0 0 0 .6784-.5805l8.8733-20.9732c.2152-.5087-.0227-1.0955-.5313-1.3106a1 1 0 0 0-.7793 0L.755 9.8345z" id="icons-default-gps" /></defs><use xlink:href="#icons-default-gps" fill="#758CA3" fill-rule="evenodd" /></svg>