<svg xmlns="http://www.w3.org/2000/svg" xmlns:xlink="http://www.w3.org/1999/xlink" width="24" height="24" viewBox="0 0 24 24"><defs><path d="M3.4166 10 12 13.9015 20.5834 10 12 6.0985 3.4166 10zM0 10c0-.3664.1954-.7327.5862-.9104l10.5862-4.8119a2 2 0 0 1 1.6552 0l10.5862 4.812c.7816.3552.7816 1.4654 0 1.8207L20 12.462v4.262a2 2 0 0 1-.3051 1.0617C18.1427 20.2634 15.5333 21.5 12 21.5c-3.5333 0-6.1427-1.2366-7.6948-3.714A2.0006 2.0006 0 0 1 4 16.724v-4.262l-2-.9091V14.5c0 .5523-.4477 1-1 1s-1-.4477-1-1V10zm18 3.3712-5.1724 2.351a2 2 0 0 1-1.6552 0L6 13.3713v3.3529C7.1585 18.5733 9.114 19.5 12 19.5s4.8415-.9268 6-2.776v-3.3528z" id="icons-default-graduate-cap" /></defs><use xlink:href="#icons-default-graduate-cap" fill="#758CA3" fill-rule="evenodd" /></svg>