<svg xmlns="http://www.w3.org/2000/svg" width="24" height="24" viewBox="0 0 24 24">
  <path fill="#758CA3" fill-rule="evenodd" d="M3.41660919,10 L12,13.9015413 L20.5833908,10 L12,6.09845872 L3.41660919,10 Z M7.02346172e-16,10 C-1.39011567e-12,9.6336345 0.195399019,9.26726899 0.586197056,9.08963352 L11.1723941,4.27772577 C11.6982441,4.03870304 12.3017559,4.03870304 12.8276059,4.27772577 L23.4138029,9.08963352 C24.195399,9.44490447 24.195399,10.5550955 23.4138029,10.9103665 L20,12.4620951 L20,16.7240422 C20,17.0996093 19.8942521,17.4675877 19.6948633,17.7858495 C18.1427268,20.263381 15.5333209,21.5 12,21.5 C8.46671514,21.5 5.85732615,20.2634065 4.30518322,17.7859238 C4.10583186,17.4677253 4.00008553,17.0998345 4,16.724121 L4,12.4620951 L2,11.5530042 L2,14.5 C2,15.0522847 1.55228475,15.5 1,15.5 C0.44771525,15.5 7.16223955e-16,15.0522847 7.16223955e-16,14.5 L7.16223955e-16,10.0000001 Z M18,13.371186 L12.8276059,15.7222742 C12.3017559,15.961297 11.6982441,15.961297 11.1723941,15.7222742 L6.00001052,13.3711908 L6.00003624,16.7240983 C7.15854076,18.5732676 9.11407862,19.5 12,19.5 C14.8859499,19.5 16.8414981,18.5732496 18,16.7240422 L18,13.371186 Z"/>
</svg>
