<svg width="72.744" height="107.743" viewBox="0 0 19.247 28.507" xml:space="preserve" xmlns="http://www.w3.org/2000/svg"><g style="opacity:1;mix-blend-mode:normal"><path d="M2.5 13.016 5.928 2.953" stroke="#fff" stroke-width="4" stroke-linecap="round" transform="matrix(.26458 0 0 .26458 9.079 -.252)" style="fill:none"/><path d="M60.238 45.85v-1.977a5.338 5.338 0 0 1 8.915-3.961l.059.053A5.423 5.423 0 0 1 71 43.99v9.063c0 8.714-4.395 16.84-11.687 21.61l-2.753 1.8c-8.68 5.679-19.68 6.743-29.322 2.92-6.373-2.527-11.838-7.045-15.483-12.85L2.835 52.332a3.835 3.835 0 0 1 .88-5.057 9.98 9.98 0 0 1 9.478-1.561l1.543.543a12.957 12.957 0 0 1 4.644 2.852l3.674 3.51a.16.16 0 0 0 .27-.116V9.376c0-1.707.672-3.352 1.862-4.575 2.574-2.643 6.838-2.642 9.394.019a6.525 6.525 0 0 1 1.82 4.52V36.6v-2.004a6.23 6.23 0 0 1 3.35-5.524l.09-.047a6.042 6.042 0 0 1 8.834 5.358v7.197-2.371c0-1.663.698-3.25 1.925-4.372l.23-.211a5.616 5.616 0 0 1 9.407 4.142z" stroke="#fff" stroke-width="4" transform="matrix(.26458 0 0 .26458 -.068 6.376)" style="fill:none"/><path d="m2 9.954 8-7" stroke="#fff" stroke-width="4" stroke-linecap="round" transform="matrix(.26458 0 0 .26458 11.216 3.291)" style="fill:none"/><path d="m10 9.954-8-7" stroke="#fff" stroke-width="4" stroke-linecap="round" transform="matrix(.26458 0 0 .26458 .618 3.576)" style="fill:none"/><path d="M5.928 13.016 2.5 2.953" stroke="#fff" stroke-width="4" stroke-linecap="round" transform="matrix(.26458 0 0 .26458 4.229 -.252)" style="fill:none"/></g></svg>
