<svg xmlns="http://www.w3.org/2000/svg" xmlns:xlink="http://www.w3.org/1999/xlink" width="24" height="24" viewBox="0 0 24 24"><defs><path d="M21.4257 15.03 19.323 3.8157A1 1 0 0 0 18.3401 3H5.66a1 1 0 0 0-.983.8157L2.5744 15.03c.139-.0198.2812-.03.4257-.03h18c.1445 0 .2866.0102.4257.03zm2.405 1.9738A2.9942 2.9942 0 0 1 24 18.02V20c0 1.6569-1.3431 3-3 3H3c-1.6569 0-3-1.3431-3-3v-1.98a2.9942 2.9942 0 0 1 .1694-1.0162L2.7112 3.4471C2.9772 2.0282 4.2162 1 5.66 1h12.68c1.4437 0 2.6826 1.0282 2.9487 2.4471l2.5418 13.5567zm-1.9295.5623A1 1 0 0 0 21 17H3a1 1 0 0 0-.9012.5661L2 18.0929V20c0 .5523.4477 1 1 1h18c.5523 0 1-.4477 1-1v-1.907l-.0988-.5269zM17 18c.5523 0 1 .4477 1 1s-.4477 1-1 1-1-.4477-1-1 .4477-1 1-1zm3 0c.5523 0 1 .4477 1 1s-.4477 1-1 1-1-.4477-1-1 .4477-1 1-1z" id="icons-default-harddisk" /></defs><use xlink:href="#icons-default-harddisk" fill="#758CA3" fill-rule="evenodd" /></svg>