<svg xmlns="http://www.w3.org/2000/svg" xmlns:xlink="http://www.w3.org/1999/xlink" width="24" height="24" viewBox="0 0 24 24"><defs><path d="M2 11v4h2v-4H2zm20-2c1.1046 0 2 .8954 2 2v4c0 1.1046-.8954 2-2 2v3c0 1.6569-1.3431 3-3 3h-1c0 .5523-.4477 1-1 1h-2c-.5523 0-1-.4477-1-1v-2c0-.5523.4477-1 1-1h2c.5523 0 1 .4477 1 1h1c.5523 0 1-.4477 1-1v-3c-1.1046 0-2-.8954-2-2v-4c0-1.1046.8954-2 2-2 0-3.866-3.134-7-7-7h-2C7.134 2 4 5.134 4 9c1.1046 0 2 .8954 2 2v4c0 1.1046-.8954 2-2 2H2c-1.1046 0-2-.8954-2-2v-4c0-1.1046.8954-2 2-2 0-4.9706 4.0294-9 9-9h2c4.9706 0 9 4.0294 9 9zm-2 2v4h2v-4h-2z" id="icons-default-headset" /></defs><use xlink:href="#icons-default-headset" fill="#758CA3" fill-rule="evenodd" /></svg>