<svg xmlns="http://www.w3.org/2000/svg" width="24" height="24" viewBox="0 0 24 24">
  <path fill="#758CA3" fill-rule="evenodd" d="M4,12.3333333 C4,14.9106622 6.08933783,17 8.66666667,17 C11.2439955,17 13.3333333,14.9106622 13.3333333,12.3333333 L13.3333333,10.3333333 L15.3333333,10.3333333 C17.9106622,10.3333333 20,8.2439955 20,5.66666667 C20,3.08933783 17.9106622,1 15.3333333,1 L4.69999993,1 C4.31340064,1 4,1.31340064 4,1.69999993 L4,12.3333333 Z M2,12.3333333 L2,1.69999993 C2,0.208831143 3.20883114,-1 4.69999993,-1 L15.3333333,-1 C19.0152317,-1 22,1.98476833 22,5.66666667 C22,9.348565 19.0152317,12.3333333 15.3333333,12.3333333 C15.3333333,16.0152317 12.348565,19 8.66666667,19 C4.98476833,19 2,16.0152317 2,12.3333333 Z" transform="rotate(-135 12 9)"/>
</svg>
