<svg xmlns="http://www.w3.org/2000/svg" xmlns:xlink="http://www.w3.org/1999/xlink" width="24" height="24" viewBox="0 0 24 24"><defs><path d="M20.0139 12.2998c1.8224-1.8224 1.8224-4.7772 0-6.5996-1.8225-1.8225-4.7772-1.8225-6.5997 0L12 7.1144l-1.4142-1.4142c-1.8225-1.8225-4.7772-1.8225-6.5997 0-1.8224 1.8224-1.8224 4.7772 0 6.5996l7.519 7.519a.7.7 0 0 0 .9899 0l7.5189-7.519zm1.4142 1.4142-7.519 7.519c-1.0543 1.0544-2.7639 1.0544-3.8183 0L2.572 13.714c-2.6035-2.6035-2.6035-6.8245 0-9.428 2.6035-2.6035 6.8246-2.6035 9.4281 0 2.6035-2.6035 6.8246-2.6035 9.428 0 2.6036 2.6035 2.6036 6.8245 0 9.428z" id="icons-default-heart" /></defs><use xlink:href="#icons-default-heart" fill="#758CA3" fill-rule="evenodd" /></svg>