<svg xmlns="http://www.w3.org/2000/svg" xmlns:xlink="http://www.w3.org/1999/xlink" width="24" height="24" viewBox="0 0 24 24"><defs><path d="M24 12c0 6.6274-5.3726 12-12 12S0 18.6274 0 12 5.3726 0 12 0s12 5.3726 12 12zM12 2C6.4772 2 2 6.4772 2 12s4.4772 10 10 10 10-4.4772 10-10S17.5228 2 12 2zm0 13c.5523 0 1 .4477 1 1s-.4477 1-1 1-1-.4477-1-1 .4477-1 1-1zm-1-5c0 .5523-.4477 1-1 1s-1-.4477-1-1c0-1.8856 1.1144-3 3-3s3 1.1144 3 3c0 1.1817-.434 1.7713-1.3587 2.3496l-.1078.0674c-.4464.2817-.5335.4154-.5335 1.083 0 .5523-.4477 1-1 1s-1-.4477-1-1c0-1.4161.4788-2.1515 1.4665-2.7745l.1142-.0716C12.9784 10.4052 13 10.376 13 10c0-.781-.219-1-1-1s-1 .219-1 1z" id="icons-default-help" /></defs><use xlink:href="#icons-default-help" fill="#758CA3" fill-rule="evenodd" /></svg>