<svg xmlns="http://www.w3.org/2000/svg" xmlns:xlink="http://www.w3.org/1999/xlink" width="24" height="24" viewBox="0 0 24 24"><defs><path d="m6.4142 6 2.293 2.2929c.3904.3905.3904 1.0237 0 1.4142-.3906.3905-1.0238.3905-1.4143 0l-4-4c-.3905-.3905-.3905-1.0237 0-1.4142l4-4c.3905-.3905 1.0237-.3905 1.4142 0 .3905.3905.3905 1.0237 0 1.4142L6.4142 4H12.5c5.2467 0 9.5 4.2533 9.5 9.5S17.7467 23 12.5 23 3 18.7467 3 13.5c0-.5523.4477-1 1-1s1 .4477 1 1c0 4.1421 3.3579 7.5 7.5 7.5s7.5-3.3579 7.5-7.5S16.6421 6 12.5 6H6.4142zM13 9v4h2c.5523 0 1 .4477 1 1s-.4477 1-1 1h-3c-.5523 0-1-.4477-1-1V9c0-.5523.4477-1 1-1s1 .4477 1 1z" id="icons-default-history" /></defs><use xlink:href="#icons-default-history" fill="#758CA3" fill-rule="evenodd" /></svg>