<svg xmlns="http://www.w3.org/2000/svg" xmlns:xlink="http://www.w3.org/1999/xlink" width="24" height="24" viewBox="0 0 24 24"><defs><path d="M13 21v-7c0-1.1046.8954-2 2-2h2c1.1046 0 2 .8954 2 2v7h2.0499v-8.9246L12 7.139l-9 4.909V21h10zm10.0499-8v8c0 1.1046-.8955 2-2 2H3c-1.1046 0-2-.8954-2-2v-7.9986C.4771 13.0008 0 12.5817 0 12V7a1 1 0 0 1 .5211-.8779l11-6a1 1 0 0 1 .9578 0l11 6A1 1 0 0 1 24 7v5c0 .5631-.4472.974-.9501 1zM2 10.3156l9.5211-5.1934a1 1 0 0 1 .9578 0L22 10.3155V7.5936L12 2.1391 2 7.5936v2.7219zM15 14v7h2v-7h-2zm-8-2h2c1.1046 0 2 .8954 2 2v2c0 1.1046-.8954 2-2 2H7c-1.1046 0-2-.8954-2-2v-2c0-1.1046.8954-2 2-2zm0 2v2h2v-2H7z" id="icons-default-home" /></defs><use xlink:href="#icons-default-home" fill="#758CA3" fill-rule="evenodd" /></svg>