<svg xmlns="http://www.w3.org/2000/svg" xmlns:xlink="http://www.w3.org/1999/xlink" width="24" height="24" viewBox="0 0 24 24"><defs><path d="M19 22c.5523 0 1 .4477 1 1s-.4477 1-1 1H5c-.5523 0-1-.4477-1-1s.4477-1 1-1v-3.9477a3 3 0 0 1 .6574-1.874L9 12 5.6574 7.8217A3 3 0 0 1 5 5.9477V2c-.5523 0-1-.4477-1-1s.4477-1 1-1h14c.5523 0 1 .4477 1 1s-.4477 1-1 1v3.9477a3 3 0 0 1-.6574 1.874L15 12l3.3426 4.1783A3 3 0 0 1 19 18.0523V22zM7 22h10v-3.9477a1 1 0 0 0-.2191-.6247l-3.3426-4.1782a2 2 0 0 1 0-2.4988l3.3426-4.1782A1 1 0 0 0 17 5.9477V2H7v3.9477a1 1 0 0 0 .2191.6247l3.3426 4.1782a2 2 0 0 1 0 2.4988l-3.3426 4.1782A1 1 0 0 0 7 18.0523V22z" id="icons-default-hourglass" /></defs><use xlink:href="#icons-default-hourglass" fill="#758CA3" fill-rule="evenodd" /></svg>