<svg xmlns="http://www.w3.org/2000/svg" xmlns:xlink="http://www.w3.org/1999/xlink" width="24" height="24" viewBox="0 0 24 24"><defs><path d="m2 20.4948 7.2526-8.1592c.3822-.43 1.0477-.4496 1.4545-.0427l2 2a1.066 1.066 0 0 1 .0427.0453l2.482-2.9784c.3764-.4517 1.0595-.4827 1.4753-.067L22 16.5859V3c0-.5523-.4477-1-1-1H3c-.5523 0-1 .4477-1 1v17.4948zM3.338 22H21c.5523 0 1-.4477 1-1v-1.5858l-5.9328-5.9328-4.299 5.1588c-.3535.4243-.9841.4816-1.4084.128-.4243-.3535-.4816-.9841-.128-1.4084l1.2524-1.5028a1.0023 1.0023 0 0 1-.1913-.1499l-1.25-1.25L3.3378 22zM3 0h18c1.6569 0 3 1.3431 3 3v18c0 1.6569-1.3431 3-3 3H3c-1.6569 0-3-1.3431-3-3V3c0-1.6569 1.3431-3 3-3zm4.5 11C5.567 11 4 9.433 4 7.5S5.567 4 7.5 4 11 5.567 11 7.5 9.433 11 7.5 11zm0-2C8.3284 9 9 8.3284 9 7.5S8.3284 6 7.5 6 6 6.6716 6 7.5 6.6716 9 7.5 9z" id="icons-default-image" /></defs><use xlink:href="#icons-default-image" fill="#758CA3" fill-rule="evenodd" /></svg>