<svg xmlns="http://www.w3.org/2000/svg" xmlns:xlink="http://www.w3.org/1999/xlink" width="24" height="24" viewBox="0 0 24 24"><defs><path d="M2.4688 11H6c1.1046 0 2 .8954 2 2v1h8v-1c0-1.1046.8954-2 2-2h3.5312l-1.3334-6H3.8022l-1.3334 6zM0 13.0216a1.9937 1.9937 0 0 1 .1384-.754L2.0238 3.783A1 1 0 0 1 3 3h18a1 1 0 0 1 .9762.783l1.8854 8.4845a1.9937 1.9937 0 0 1 .1384.754V19c0 1.1046-.8954 2-2 2H2c-1.1046 0-2-.8954-2-2v-5.9784zM2 13v6h20v-6h-4v1c0 1.1046-.8954 2-2 2H8c-1.1046 0-2-.8954-2-2v-1H2z" id="icons-default-inbox" /></defs><use xlink:href="#icons-default-inbox" fill="#758CA3" fill-rule="evenodd" /></svg>