<svg xmlns="http://www.w3.org/2000/svg" xmlns:xlink="http://www.w3.org/1999/xlink" width="24" height="24" viewBox="0 0 24 24"><defs><path d="m11.9978 13.607-1.8181 2.2868c-.1352.17-.2802.332-.4342.4851-2.1846 2.171-5.7154 2.16-7.8863-.0246l-.1242-.1249c-2.3255-2.34-2.3255-6.1187 0-8.4587l.1242-.125c.153-.154.315-.299.485-.4342 2.4109-1.9166 5.9189-1.516 7.8355.8948l1.8181 2.2868 1.8181-2.2868c1.9166-2.4108 5.4246-2.8114 7.8354-.8948.17.1352.332.2802.4851.4343l.1242.1249c2.3255 2.34 2.3255 6.1186 0 8.4587l-.1242.1249c-2.171 2.1845-5.7017 2.1956-7.8863.0246a5.5765 5.5765 0 0 1-.4342-.4851l-1.8181-2.2869zm3.3836 1.0422c.0867.109.1797.2129.2785.3111 1.401 1.3923 3.6656 1.3853 5.058-.0158l.124-.1249c1.5504-1.56 1.5504-4.0791 0-5.6392l-.124-.1249a3.5765 3.5765 0 0 0-.3112-.2785c-1.5462-1.2292-3.796-.9723-5.0253.5739L13.2754 12l2.106 2.6492zM8.6142 9.3509C7.3849 7.8047 5.135 7.5479 3.5889 8.777a3.5765 3.5765 0 0 0-.3111.2785l-.1241.125c-1.5504 1.56-1.5504 4.079 0 5.6391l.124.125c1.3924 1.401 3.657 1.408 5.058.0157a3.5765 3.5765 0 0 0 .2785-.3111L10.7202 12 8.6143 9.351z" id="icons-default-infinity" /></defs><use xlink:href="#icons-default-infinity" fill="#758CA3" fill-rule="evenodd" /></svg>