<svg xmlns="http://www.w3.org/2000/svg" width="24" height="24" viewBox="0 0 24 24">
  <path fill="#758CA3" fill-rule="evenodd" d="M12.1049876,21 L13,21 C13.5522847,21 14,21.4477153 14,22 C14,22.5522847 13.5522847,23 13,23 L9,23 C8.44771525,23 8,22.5522847 8,22 C8,21.4477153 8.44771525,21 9,21 L10.0950124,21 L11.8950124,3 L11,3 C10.4477153,3 10,2.55228475 10,2 C10,1.44771525 10.4477153,1 11,1 L15,1 C15.5522847,1 16,1.44771525 16,2 C16,2.55228475 15.5522847,3 15,3 L13.9049876,3 L12.1049876,21 Z"/>
</svg>
