<svg xmlns="http://www.w3.org/2000/svg" xmlns:xlink="http://www.w3.org/1999/xlink" width="24" height="24" viewBox="0 0 24 24"><defs><path d="M3 3h18c1.6569 0 3 1.3431 3 3v12c0 1.6569-1.3431 3-3 3H3c-1.6569 0-3-1.3431-3-3V6c0-1.6569 1.3431-3 3-3zm0 2c-.5523 0-1 .4477-1 1v12c0 .5523.4477 1 1 1h18c.5523 0 1-.4477 1-1V6c0-.5523-.4477-1-1-1H3zm11 2c.5523 0 1 .4477 1 1s-.4477 1-1 1-1-.4477-1-1 .4477-1 1-1zm-4 0c.5523 0 1 .4477 1 1s-.4477 1-1 1-1-.4477-1-1 .4477-1 1-1zm8 0c.5523 0 1 .4477 1 1s-.4477 1-1 1-1-.4477-1-1 .4477-1 1-1zm-4 4c.5523 0 1 .4477 1 1s-.4477 1-1 1-1-.4477-1-1 .4477-1 1-1zm-4 0c.5523 0 1 .4477 1 1s-.4477 1-1 1-1-.4477-1-1 .4477-1 1-1zm-1 6c-.5523 0-1-.4477-1-1s.4477-1 1-1h6c.5523 0 1 .4477 1 1s-.4477 1-1 1H9zm9-6c.5523 0 1 .4477 1 1s-.4477 1-1 1-1-.4477-1-1 .4477-1 1-1zM6 7c.5523 0 1 .4477 1 1s-.4477 1-1 1-1-.4477-1-1 .4477-1 1-1zm0 4c.5523 0 1 .4477 1 1s-.4477 1-1 1-1-.4477-1-1 .4477-1 1-1z" id="icons-default-keyboard" /></defs><use xlink:href="#icons-default-keyboard" fill="#758CA3" fill-rule="evenodd" /></svg>