<svg xmlns="http://www.w3.org/2000/svg" xmlns:xlink="http://www.w3.org/1999/xlink" width="24" height="24" viewBox="0 0 24 24"><defs><path d="M20.9672 18.5777c.7855 1.4588.2397 3.2782-1.2191 4.0637A3 3 0 0 1 18.3258 23H5.6742c-1.6568 0-3-1.3431-3-3a3 3 0 0 1 .3586-1.4223L8 9.3529V6.9497A3.496 3.496 0 0 1 7 4.5V4c0-1.657 1.3431-3 3-3h4c1.6569 0 3 1.343 3 3v.5a3.495 3.495 0 0 1-.8561 2.2937l.2536 3.2975 4.5697 8.4865zM14.071 5.9233C14.6147 5.665 15 5.1275 15 4.5V4c0-.5524-.4477-1-1-1h-4c-.5523 0-1 .4476-1 1v.5c0 .6544.419 1.211 1.0035 1.4159A1.0133 1.0133 0 0 0 10 6v3.8571L4.7937 19.526a1 1 0 0 0-.1195.474c0 .5523.4477 1 1 1h12.6516a1 1 0 0 0 .474-.1195c.4864-.2619.6683-.8683.4065-1.3546l-4.7704-8.8592-.3649-4.7434zM12 17c.5523 0 1 .4477 1 1s-.4477 1-1 1-1-.4477-1-1 .4477-1 1-1zm0-3c.5523 0 1 .4477 1 1s-.4477 1-1 1-1-.4477-1-1 .4477-1 1-1zm0-3c.5523 0 1 .4477 1 1s-.4477 1-1 1-1-.4477-1-1 .4477-1 1-1z" id="icons-default-lab-flask" /></defs><use xlink:href="#icons-default-lab-flask" fill="#758CA3" fill-rule="evenodd" /></svg>