<svg xmlns="http://www.w3.org/2000/svg" xmlns:xlink="http://www.w3.org/1999/xlink" width="24" height="24" viewBox="0 0 24 24"><defs><path d="M21.79 16.105C23.0634 16.4519 24 17.6166 24 19c0 1.6569-1.3431 3-3 3H3c-1.6569 0-3-1.3431-3-3 0-1.3835.9365-2.5482 2.21-2.895A2.992 2.992 0 0 1 2 15V5c0-1.6569 1.3431-3 3-3h14c1.6569 0 3 1.3431 3 3v10c0 .3902-.0745.763-.21 1.105zM19 16c.5523 0 1-.4477 1-1V5c0-.5523-.4477-1-1-1H5c-.5523 0-1 .4477-1 1v10c0 .5523.4477 1 1 1h14zM3 18c-.5523 0-1 .4477-1 1s.4477 1 1 1h18c.5523 0 1-.4477 1-1s-.4477-1-1-1H3z" id="icons-default-laptop" /></defs><use xlink:href="#icons-default-laptop" fill="#758CA3" fill-rule="evenodd" /></svg>