<svg xmlns="http://www.w3.org/2000/svg" xmlns:xlink="http://www.w3.org/1999/xlink" width="24" height="24" viewBox="0 0 24 24"><defs><path d="M.0038 7.9103c-.0371-.4114.185-.8196.5824-1.0002l10.5862-4.8119a2 2 0 0 1 1.6552 0l10.5862 4.812c.3973.1805.6195.5887.5824 1 .0371.4114-.185.8196-.5824 1.0002l-10.5862 4.8119a2 2 0 0 1-1.6552 0L.5862 8.9103c-.3973-.1805-.6195-.5887-.5824-1zm3.2154 0L12 11.9015l8.7808-3.9912L12 3.919 3.2192 7.9103zm-2.633 5c-.5028-.2285-.7251-.8213-.4966-1.3241.2286-.5028.8214-.7251 1.3242-.4966L12 15.9016l10.5862-4.812c.5028-.2285 1.0956-.0062 1.3242.4966.2285.5028.0062 1.0956-.4966 1.3242l-10.5862 4.8119a2 2 0 0 1-1.6552 0L.5862 12.9103zm0 4c-.5028-.2285-.7251-.8213-.4966-1.3241.2286-.5028.8214-.7251 1.3242-.4966L12 19.9016l10.5862-4.812c.5028-.2285 1.0956-.0062 1.3242.4966.2285.5028.0062 1.0956-.4966 1.3242l-10.5862 4.8119a2 2 0 0 1-1.6552 0L.5862 16.9103z" id="icons-default-layers" /></defs><use xlink:href="#icons-default-layers" fill="#758CA3" fill-rule="evenodd" /></svg>