<svg xmlns="http://www.w3.org/2000/svg" xmlns:xlink="http://www.w3.org/1999/xlink" width="24" height="24" viewBox="0 0 24 24"><defs><path d="M14.8376 16v-3.5l.6053-.454c1.9218-1.4413 2.7057-3.9508 1.946-6.2298C16.6293 3.5372 14.4965 2 12.0942 2h-.5132C9.1787 2 7.046 3.5372 6.2863 5.8162c-.7592 2.2777.0263 4.7855 1.9492 6.2231l.6021.4502V16h6zm2 0c0 1.1046-.8954 2-2 2h-6c-1.1046 0-2-.8954-2-2v-2.5138C4.3706 11.5108 3.384 8.1989 4.389 5.1838 5.421 2.088 8.318 0 11.581 0h.5132c3.2631 0 6.1602 2.088 7.192 5.1838 1.006 3.0175.0196 6.3325-2.4486 8.3112V16zm-8 5c-.5523 0-1-.4477-1-1s.4477-1 1-1h6c.5523 0 1 .4477 1 1s-.4477 1-1 1h-6zm1 3c-.5523 0-1-.4477-1-1s.4477-1 1-1h4c.5523 0 1 .4477 1 1s-.4477 1-1 1h-4z" id="icons-default-lightbulb" /></defs><use xlink:href="#icons-default-lightbulb" fill="#758CA3" fill-rule="evenodd" /></svg>