<svg xmlns="http://www.w3.org/2000/svg" width="24" height="24" viewBox="0 0 24 24">
  <path fill="#758CA3" fill-rule="evenodd" d="M14.8376051,16 L14.8376051,12.5 L15.4428719,12.0460499 C17.3647054,10.6046748 18.1485932,8.09524193 17.3889218,5.81622777 C16.6292505,3.5372136 14.4964805,2 12.0941887,2 L11.5810216,2 C9.17872977,2 7.04595983,3.5372136 6.28628844,5.81622777 C5.52706797,8.09388919 6.31256895,10.6017452 8.23546297,12.039325 L8.83760514,12.4894941 L8.83760514,16 L14.8376051,16 Z M16.8376051,16 C16.8376051,17.1045695 15.9421746,18 14.8376051,18 L8.83760514,18 C7.73303564,18 6.83760514,17.1045695 6.83760514,16 L6.83760514,13.4861577 C4.37064839,11.5107681 3.3838919,8.19886207 4.38892184,5.18377223 C5.42082133,2.08807379 8.31786895,5.11568292e-16 11.5810216,0 L12.0941887,0 C15.3573413,-6.39460365e-16 18.254389,2.08807379 19.2862884,5.18377223 C20.292139,8.20132406 19.3058165,11.5162625 16.8376051,13.495032 L16.8376051,16 Z M8.83760514,21 C8.28532039,21 7.83760514,20.5522847 7.83760514,20 C7.83760514,19.4477153 8.28532039,19 8.83760514,19 L14.8376051,19 C15.3898899,19 15.8376051,19.4477153 15.8376051,20 C15.8376051,20.5522847 15.3898899,21 14.8376051,21 L8.83760514,21 Z M9.83760514,24 C9.28532039,24 8.83760514,23.5522847 8.83760514,23 C8.83760514,22.4477153 9.28532039,22 9.83760514,22 L13.8376051,22 C14.3898899,22 14.8376051,22.4477153 14.8376051,23 C14.8376051,23.5522847 14.3898899,24 13.8376051,24 L9.83760514,24 Z"/>
</svg>
