<svg xmlns="http://www.w3.org/2000/svg" xmlns:xlink="http://www.w3.org/1999/xlink" width="24" height="24" viewBox="0 0 24 24"><defs><path d="M13.035 10.9137c.3905.3905 1.0237.3905 1.4142 0 .3905-.3905.3905-1.0237 0-1.4142-1.9526-1.9526-5.1184-1.9526-7.071 0l-5.657 5.6568c-1.9525 1.9527-1.9525 5.1185 0 7.0711 1.9527 1.9526 5.1185 1.9526 7.0712 0l3.5355-3.5355c.3905-.3906.3905-1.0237 0-1.4142-.3905-.3906-1.0237-.3906-1.4142 0L7.378 20.8132c-1.1715 1.1716-3.071 1.1716-4.2426 0-1.1716-1.1716-1.1716-3.071 0-4.2427l5.6569-5.6568c1.1715-1.1716 3.071-1.1716 4.2426 0zm-2.1213 2.1213c-.3906-.3905-1.0237-.3905-1.4142 0-.3906.3905-.3906 1.0237 0 1.4142 1.9526 1.9526 5.1184 1.9526 7.071 0l5.6569-5.6568c1.9526-1.9526 1.9526-5.1185 0-7.071-1.9526-1.9527-5.1185-1.9527-7.071 0l-3.5356 3.5354c-.3905.3906-.3905 1.0237 0 1.4143.3905.3905 1.0237.3905 1.4142 0l3.5355-3.5356c1.1716-1.1716 3.071-1.1716 4.2427 0 1.1715 1.1716 1.1715 3.071 0 4.2427l-5.6569 5.6568c-1.1716 1.1716-3.071 1.1716-4.2426 0z" id="icons-default-link" /></defs><use xlink:href="#icons-default-link" fill="#758CA3" fill-rule="evenodd" /></svg>