<svg xmlns="http://www.w3.org/2000/svg" xmlns:xlink="http://www.w3.org/1999/xlink" width="24" height="24" viewBox="0 0 24 24"><defs><path d="M7.6362.8184c.5145-.201 1.0944.0533 1.2953.5677.2009.5145-.0533 1.0944-.5677 1.2953C4.5578 4.1677 2 7.8448 2 12c0 5.5228 4.4772 10 10 10 4.1552 0 7.8323-2.5578 9.3186-6.3638.201-.5144.7808-.7686 1.2953-.5677.5144.201.7686.7808.5677 1.2953C21.398 20.9309 16.986 24 12 24 5.3726 24 0 18.6274 0 12 0 7.0141 3.069 2.602 7.6362.8184zM24 12c0 .5523-.4477 1-1 1s-1-.4477-1-1c0-5.5228-4.4772-10-10-10-.5523 0-1-.4477-1-1s.4477-1 1-1c6.6274 0 12 5.3726 12 12z" id="icons-default-loading-circle" /></defs><use xlink:href="#icons-default-loading-circle" fill="#758CA3" fill-rule="evenodd" /></svg>