<svg xmlns="http://www.w3.org/2000/svg" xmlns:xlink="http://www.w3.org/1999/xlink" width="24" height="24" viewBox="0 0 24 24"><defs><path d="M12 1c.5523 0 1 .4477 1 1v5c0 .5523-.4477 1-1 1s-1-.4477-1-1V2c0-.5523.4477-1 1-1zm0 15c.5523 0 1 .4477 1 1v5c0 .5523-.4477 1-1 1s-1-.4477-1-1v-5c0-.5523.4477-1 1-1zM2.4737 6.5c.2762-.4783.8878-.6422 1.366-.366l4.3302 2.5c.4783.2761.6421.8877.366 1.366-.2761.4783-.8877.6422-1.366.366l-4.3302-2.5c-.4782-.2761-.6421-.8877-.366-1.366zM15.4641 14c.2761-.4783.8877-.6422 1.366-.366l4.3302 2.5c.4782.2761.6421.8877.366 1.366-.2762.4783-.8878.6422-1.366.366l-4.3302-2.5c-.4783-.2761-.6421-.8877-.366-1.366zM2.4737 17.5c-.2761-.4783-.1122-1.0899.366-1.366l4.3302-2.5c.4783-.2762 1.0899-.1123 1.366.366s.1123 1.0899-.366 1.366l-4.3302 2.5c-.4782.2762-1.0898.1123-1.366-.366zM15.4641 10c-.2761-.4783-.1123-1.0899.366-1.366l4.3302-2.5c.4782-.2762 1.0898-.1123 1.366.366.2761.4783.1122 1.0899-.366 1.366l-4.3302 2.5c-.4783.2762-1.0899.1123-1.366-.366z" id="icons-default-loading-star" /></defs><use xlink:href="#icons-default-loading-star" fill="#758CA3" fill-rule="evenodd" /></svg>