<svg xmlns="http://www.w3.org/2000/svg" xmlns:xlink="http://www.w3.org/1999/xlink" width="24" height="24" viewBox="0 0 24 24"><defs><path d="M18 14v-1c0-.5523.4477-1 1-1s1 .4477 1 1v1h1c.5523 0 1-.4477 1-1v-2c0-.5523-.4477-1-1-1h-9.416C10.8124 8.2341 9.0503 7 7 7c-2.7614 0-5 2.2386-5 5s2.2386 5 5 5c2.0503 0 3.8124-1.2341 4.584-3H14v-1c0-.5523.4477-1 1-1s1 .4477 1 1v1h2zm3-6c1.6569 0 3 1.3431 3 3v2c0 1.6569-1.3431 3-3 3h-8.2543C11.4611 17.8444 9.3363 19 7 19c-3.866 0-7-3.134-7-7s3.134-7 7-7c2.3363 0 4.4611 1.1556 5.7457 3H21zM5 13c-.5523 0-1-.4477-1-1s.4477-1 1-1 1 .4477 1 1-.4477 1-1 1z" id="icons-default-lock-key" /></defs><use xlink:href="#icons-default-lock-key" fill="#758CA3" fill-rule="evenodd" /></svg>