<svg xmlns="http://www.w3.org/2000/svg" xmlns:xlink="http://www.w3.org/1999/xlink" width="24" height="24" viewBox="0 0 24 24"><defs><path d="M19.7886 8.164c-.1262-.5376.2074-1.0758.745-1.202.5377-.1261 1.0759.2074 1.202.7451.1727.7354.2618 1.4922.2644 2.263V14c0 5.5228-4.4772 10-10 10-1.4822 0-2.9206-.3234-4.2353-.9388-.5002-.2342-.7158-.8295-.4817-1.3297.2342-.5001.8295-.7158 1.3297-.4817C9.6633 21.7417 10.8124 22 12 22c4.4183 0 8-3.5817 8-8V9.9733a8.024 8.024 0 0 0-.2114-1.8092zm-7.835-2.165a1.017 1.017 0 0 1-.0464.002 3.9737 3.9737 0 0 0-2.0049.5923c-.47.2902-1.086.1444-1.3762-.3255-.2901-.47-.1444-1.0861.3255-1.3762a5.9735 5.9735 0 0 1 3.0102-.89 1.0147 1.0147 0 0 1 .0691.0007A1.0147 1.0147 0 0 1 12 4c2.088 0 3.9927 1.076 5.083 2.8109.294.4676.1531 1.0849-.3145 1.3788-.4676.2939-1.0849.153-1.3788-.3146C14.6617 6.7168 13.393 6 12 6a1.017 1.017 0 0 1-.0464-.001zM5.2689 18.3253c.299.4644.165 1.0832-.2992 1.3822-.4643.2991-1.0832.1651-1.3822-.2992C2.5568 17.8082 2 15.9441 2 14v-2.8553c0-.5523.4477-1 1-1s1 .4477 1 1V14c0 1.557.4446 3.0457 1.2689 4.3254zM16 11.3464c0-.5524.4477-1 1-1s1 .4476 1 1V14c0 .9641-.2284 1.8976-.66 2.738-.2522.4912-.855.685-1.3463.4326-.4913-.2523-.685-.855-.4327-1.3464C15.8482 15.265 16 14.6445 16 14v-2.6537zm-2.8964 6.4997c.531-.152 1.0846.1552 1.2366.6862.152.531-.1553 1.0846-.6862 1.2366-.5014.1435-1.022.2214-1.5679.2304-1.623.0008-3.0891-.583-4.2045-1.6359-.4015-.3791-.4197-1.012-.0406-1.4136.3792-.4016 1.012-.4198 1.4136-.0407.7443.7027 1.7189 1.0907 2.8142 1.0903a3.998 3.998 0 0 0 1.0348-.1533zM8 13.9611c0 .5522-.4477 1-1 1s-1-.4478-1-1V10c0-.4197.0432-.8344.1284-1.2393.1136-.5405.6438-.8866 1.1843-.773.5404.1137.8865.6439.7729 1.1844A4.0209 4.0209 0 0 0 8 10v3.961zM11 11c0-.5523.4477-1 1-1s1 .4477 1 1v3c0 .5523-.4477 1-1 1s-1-.4477-1-1v-3zM4.3022 7.8135c-.1506.5313-.7034.84-1.2348.6894-.5313-.1506-.84-.7034-.6894-1.2348C3.5877 3.0001 7.4985 0 12 0c3.2951 0 6.3219 1.6065 8.1826 4.2503.318.4516.2095 1.0754-.2421 1.3933-.4517.3179-1.0755.2094-1.3934-.2422C17.0571 3.2844 14.6373 2 12 2 8.3989 2 5.2695 4.4006 4.3022 7.8135z" id="icons-default-lock-fingerprint" /></defs><use xlink:href="#icons-default-lock-fingerprint" fill="#758CA3" fill-rule="evenodd" /></svg>