<svg xmlns="http://www.w3.org/2000/svg" xmlns:xlink="http://www.w3.org/1999/xlink" width="24" height="24" viewBox="0 0 24 24"><defs><path d="M8 9h9c1.6569 0 3 1.3431 3 3v9c0 1.6569-1.3431 3-3 3H7c-1.6569 0-3-1.3431-3-3v-9c0-1.3062.8348-2.4175 2-2.8293V4c0-2.2091 1.7909-4 4-4h4.0554c2.2091 0 4 1.7909 4 4v1.0002c0 .5523-.4477 1-1 1s-1-.4477-1-1V4c0-1.1046-.8954-2-2-2H10c-1.1046 0-2 .8954-2 2v5zm-1 2c-.5523 0-1 .4477-1 1v9c0 .5523.4477 1 1 1h10c.5523 0 1-.4477 1-1v-9c0-.5523-.4477-1-1-1H7zm4 4c0-.5523.4477-1 1-1s1 .4477 1 1v3c0 .5523-.4477 1-1 1s-1-.4477-1-1v-3z" id="icons-default-lock-open" /></defs><use xlink:href="#icons-default-lock-open" fill="#758CA3" fill-rule="evenodd" /></svg>