<svg xmlns="http://www.w3.org/2000/svg" xmlns:xlink="http://www.w3.org/1999/xlink" width="24" height="24" viewBox="0 0 24 24"><defs><path d="M16.5858 13H1c-.5523 0-1-.4477-1-1s.4477-1 1-1h15.5858l-2.293-2.2929c-.3904-.3905-.3904-1.0237 0-1.4142.3906-.3905 1.0238-.3905 1.4143 0l4 4c.3905.3905.3905 1.0237 0 1.4142l-4 4c-.3905.3905-1.0237.3905-1.4142 0-.3905-.3905-.3905-1.0237 0-1.4142L16.5858 13zM10 7V4.6943c0-1.4666 1.0602-2.7181 2.5068-2.9592l8-1.3334c1.6343-.2723 3.18.8317 3.4524 2.466A3 3 0 0 1 24 3.361v17.2782c0 1.6568-1.3431 3-3 3a3 3 0 0 1-.4932-.0408l-8-1.3334C11.0602 22.024 10 20.7723 10 19.3057V17c0-.5523.4477-1 1-1s1 .4477 1 1v2.3057a1 1 0 0 0 .8356.9864l8 1.3334A1 1 0 0 0 21 21.639c.5523 0 1-.4477 1-1V3.3609a1 1 0 0 0-.0136-.1644c-.0908-.5447-.606-.9128-1.1508-.822l-8 1.3334A1 1 0 0 0 12 4.6943V7c0 .5523-.4477 1-1 1s-1-.4477-1-1z" id="icons-default-log-in" /></defs><use xlink:href="#icons-default-log-in" fill="#758CA3" fill-rule="evenodd" /></svg>