<svg xmlns="http://www.w3.org/2000/svg" xmlns:xlink="http://www.w3.org/1999/xlink" width="24" height="24" viewBox="0 0 24 24"><defs><path d="M9.9296 4H4c-.5523 0-1 .4477-1 1v14c0 .5523.4477 1 1 1h16c.5523 0 1-.4477 1-1V8c0-.5523-.4477-1-1-1h-8.0704l-2-3zM4 2h6.4648a1 1 0 0 1 .832.4453L13 5h7c1.6569 0 3 1.3431 3 3v11c0 1.6569-1.3431 3-3 3H4c-1.6569 0-3-1.3431-3-3V5c0-1.6569 1.3431-3 3-3z" id="icons-default-map-closed" /></defs><use xlink:href="#icons-default-map-closed" fill="#758CA3" fill-rule="evenodd" /></svg>