<svg xmlns="http://www.w3.org/2000/svg" xmlns:xlink="http://www.w3.org/1999/xlink" width="24" height="24" viewBox="0 0 24 24"><defs><path d="M21.1679 10h.5c1.1045 0 2 .8954 2 2a2 2 0 0 1-.1539.7692l-3.3333 8A2 2 0 0 1 18.3345 22H4.3687c-1.5353 0-2.8228-1.1591-2.9836-2.686l-1.3684-13C-.1567 4.6664 1.0384 3.19 2.6862 3.0166A3 3 0 0 1 3.0002 3h5.947a1 1 0 0 1 .9486.6838L10.6678 6h8.7345c1.1046 0 2 .8954 2 2a2 2 0 0 1-.0154.248L21.1679 10zm-2.0156 0 .25-2H9.2263l-1-3h-5.226a1 1 0 0 0-.1047.0055c-.5493.0578-.9477.55-.8899 1.0992l1.2676 12.0422 2.8818-6.9161A2 2 0 0 1 8.0012 10h11.1511zm-11.151 2-3.3334 8h13.6666l3.3334-8H8.0012z" id="icons-default-map-open" /></defs><use xlink:href="#icons-default-map-open" fill="#758CA3" fill-rule="evenodd" /></svg>