<svg xmlns="http://www.w3.org/2000/svg" xmlns:xlink="http://www.w3.org/1999/xlink" width="24" height="24" viewBox="0 0 24 24"><defs><path d="M15.7357 2.0353A1.0011 1.0011 0 0 1 16 2a.9997.9997 0 0 1 .297.0448l6.9777 1.9937A1 1 0 0 1 24 5v16c0 .6644-.6359 1.144-1.2747.9615l-6.7425-1.9264-7.7185 1.9296A1.0011 1.0011 0 0 1 8 22a.9997.9997 0 0 1-.297-.0448L.7254 19.9615A1 1 0 0 1 0 19V3c0-.6644.6359-1.144 1.2747-.9615l6.7425 1.9264 7.7185-1.9296zM15 4.2808l-6 1.5v13.9384l6-1.5V4.2808zm2 .045v13.9199l5 1.4286v-13.92l-5-1.4286zM7 5.7542 2 4.3257v13.92l5 1.4286v-13.92z" id="icons-default-map" /></defs><use xlink:href="#icons-default-map" fill="#758CA3" fill-rule="evenodd" /></svg>