<svg xmlns="http://www.w3.org/2000/svg" xmlns:xlink="http://www.w3.org/1999/xlink" width="24" height="24" viewBox="0 0 24 24"><defs><path d="M12.7685 23.0866a1 1 0 0 1-.1286.1286c-.4245.3534-1.055.2958-1.4084-.1286C5.7438 16.4959 3 11.6798 3 8.638 3 3.8674 7.2293 0 12 0s9 3.8674 9 8.6381c0 3.0417-2.7438 7.8578-8.2315 14.4485zM19 8.638C19 5.0631 15.7595 2 12 2S5 5.0632 5 8.6381c0 2.291 2.3185 6.4766 7 12.2349 4.6815-5.7583 7-9.9438 7-12.2349zM12 11c-1.1046 0-2-.8954-2-2s.8954-2 2-2 2 .8954 2 2-.8954 2-2 2z" id="icons-default-marker" /></defs><use xlink:href="#icons-default-marker" fill="#758CA3" fill-rule="evenodd" /></svg>