<svg xmlns="http://www.w3.org/2000/svg" xmlns:xlink="http://www.w3.org/1999/xlink" width="24" height="24" viewBox="0 0 24 24"><defs><path d="M6 14v-3.7743H2V14h4zm0 2.0043H2c-1.1046 0-2-.8954-2-2V10.23c0-1.1046.8954-2 2-2h4v-.0043l15.3675-5.1225c1.048-.3493 2.1806.217 2.5299 1.2649A2 2 0 0 1 24 5.0005V19c0 1.1046-.8954 2-2 2a2 2 0 0 1-.6325-.1026l-7.3684-2.3482a3 3 0 0 1-.1524.8506c-.5239 1.5718-2.2229 2.4213-3.7947 1.8973l-2.0007-.6669A3 3 0 0 1 6 17.7842v-1.7799zm2 .633v1.1469a1 1 0 0 0 .6838.9487l2.0007.6669c.5239.1746 1.0902-.1086 1.2649-.6325a1 1 0 0 0 .0513-.3193l-.0003-.5358L8 16.6374zm0-6.97v4.8912L22 19V5.0005L8 9.6672z" id="icons-default-marketing" /></defs><use xlink:href="#icons-default-marketing" fill="#758CA3" fill-rule="evenodd" /></svg>