<svg xmlns="http://www.w3.org/2000/svg" xmlns:xlink="http://www.w3.org/1999/xlink" width="24" height="24" viewBox="0 0 24 24"><defs><path d="M13.3974 8.1216a7.9512 7.9512 0 0 1 2.8813 1.1176L21.1258.5144c.2683-.4828.877-.6568 1.3598-.3886.4828.2683.6568.877.3886 1.3598l-5 9a1.0156 1.0156 0 0 1-.0303.051C19.1813 11.9665 20 13.8876 20 16c0 4.4183-3.5817 8-8 8s-8-3.5817-8-8c0-2.1124.8187-4.0335 2.1561-5.4634a1.0156 1.0156 0 0 1-.0303-.051l-5-9C.8576 1.003 1.0316.3941 1.5144.1258 1.997-.1424 2.6059.0316 2.8742.5144l4.847 8.7248a7.9512 7.9512 0 0 1 2.8814-1.1176l-2.539-6.7705C7.8699.834 8.1319.2576 8.649.0637c.5171-.194 1.0935.068 1.2874.5852L12 6.152 14.0637.6489c.1939-.5171.7703-.7791 1.2874-.5852.5171.1939.7791.7703.5852 1.2874l-2.539 6.7705zM11.9786 10C8.6747 10.0116 6 12.6934 6 16c0 3.3137 2.6863 6 6 6s6-2.6863 6-6c0-3.3065-2.6746-5.9883-5.9784-6a1.0033 1.0033 0 0 1-.043 0zM12 13c.5523 0 1 .4477 1 1v3c.5523 0 1 .4477 1 1s-.4477 1-1 1h-2c-.5523 0-1-.4477-1-1s.4477-1 1-1v-2c-.5523 0-1-.4477-1-1s.4477-1 1-1h1z" id="icons-default-medal" /></defs><use xlink:href="#icons-default-medal" fill="#758CA3" fill-rule="evenodd" /></svg>