<svg xmlns="http://www.w3.org/2000/svg" xmlns:xlink="http://www.w3.org/1999/xlink" width="24" height="24" viewBox="0 0 24 24"><defs><path d="M12 2c-1.6569 0-3 1.3431-3 3v6c0 1.6569 1.3431 3 3 3s3-1.3431 3-3V5c0-1.6569-1.3431-3-3-3zm-1 20v-3.057c-3.931-.451-7-3.5265-7-7.296v-1.0588c0-.5522.4477-1 1-1s1 .4478 1 1v1.0589C6 14.5806 8.6658 17 12 17s6-2.4194 6-5.353v-1.0588c0-.5522.4477-1 1-1s1 .4478 1 1v1.0589c0 3.7694-3.069 6.8449-7 7.296V22h2c.5523 0 1 .4477 1 1s-.4477 1-1 1H9c-.5523 0-1-.4477-1-1s.4477-1 1-1h2zm1-22c2.7614 0 5 2.2386 5 5v6c0 2.7614-2.2386 5-5 5s-5-2.2386-5-5V5c0-2.7614 2.2386-5 5-5z" id="icons-default-micophone" /></defs><use xlink:href="#icons-default-micophone" fill="#758CA3" fill-rule="evenodd" /></svg>