<svg xmlns="http://www.w3.org/2000/svg" xmlns:xlink="http://www.w3.org/1999/xlink" width="24" height="24" viewBox="0 0 24 24"><defs><path d="M12 19c.5523 0 1 .4477 1 1s-.4477 1-1 1-1-.4477-1-1 .4477-1 1-1zM7 0h10c1.6569 0 3 1.3431 3 3v18c0 1.6569-1.3431 3-3 3H7c-1.6569 0-3-1.3431-3-3V3c0-1.6569 1.3431-3 3-3zm0 2c-.5523 0-1 .4477-1 1v18c0 .5523.4477 1 1 1h10c.5523 0 1-.4477 1-1V3c0-.5523-.4477-1-1-1H7z" id="icons-default-mobile" /></defs><use xlink:href="#icons-default-mobile" fill="#758CA3" fill-rule="evenodd" /></svg>