<svg xmlns="http://www.w3.org/2000/svg" xmlns:xlink="http://www.w3.org/1999/xlink" width="24" height="24" viewBox="0 0 24 24"><defs><path d="M17 14c-.5523 0-1-.4477-1-1s.4477-1 1-1h2c.5523 0 1 .4477 1 1s-.4477 1-1 1h-2zm-9 0c-.5523 0-1-.4477-1-1s.4477-1 1-1h6c.5523 0 1 .4477 1 1s-.4477 1-1 1H8zm14-6V6c0-.5523-.4477-1-1-1H3c-.5523 0-1 .4477-1 1v2h20zm0 2H2v8c0 .5523.4477 1 1 1h18c.5523 0 1-.4477 1-1v-8zM3 3h18c1.6569 0 3 1.3431 3 3v12c0 1.6569-1.3431 3-3 3H3c-1.6569 0-3-1.3431-3-3V6c0-1.6569 1.3431-3 3-3z" id="icons-default-money-card" /></defs><use xlink:href="#icons-default-money-card" fill="#758CA3" fill-rule="evenodd" /></svg>