<svg xmlns="http://www.w3.org/2000/svg" xmlns:xlink="http://www.w3.org/1999/xlink" width="24" height="24" viewBox="0 0 24 24"><defs><path d="M12.993 7.1194C14.2703 7.4534 15 8.4743 15 10c0 .5523-.4477 1-1 1s-1-.4477-1-1c0-.781-.219-1-1-1s-1 .219-1 1c0 .2811.3025.5332 1.4472 1.1056C14.3025 12.0332 15 12.6145 15 14c0 1.5257-.7296 2.5466-2.007 2.8806.0046.0392.007.079.007.1194 0 .5523-.4477 1-1 1s-1-.4477-1-1c0-.0404.0024-.0802.007-.1194C9.7297 16.5466 9 15.5257 9 14c0-.5523.4477-1 1-1s1 .4477 1 1c0 .781.219 1 1 1s1-.219 1-1c0-.2811-.3025-.5332-1.4472-1.1056C9.6975 11.9668 9 11.3855 9 10c0-1.5257.7296-2.5466 2.007-2.8806A1.0103 1.0103 0 0 1 11 7c0-.5523.4477-1 1-1s1 .4477 1 1c0 .0404-.0024.0802-.007.1194zM2 3h20c1.1046 0 2 .8954 2 2v14c0 1.1046-.8954 2-2 2H2c-1.1046 0-2-.8954-2-2V5c0-1.1046.8954-2 2-2zm0 2v14h20V5H2z" id="icons-default-money-cash" /></defs><use xlink:href="#icons-default-money-cash" fill="#758CA3" fill-rule="evenodd" /></svg>