<svg xmlns="http://www.w3.org/2000/svg" xmlns:xlink="http://www.w3.org/1999/xlink" width="24" height="24" viewBox="0 0 24 24"><defs><path d="M2.0027 7.8303c.0019 2.3086.0051 5.8599.014 11.1718.0011.5515.4485.9979 1 .9979h16.0041c.5523 0 1-.4477 1-1v-2H19c-1.1046 0-2-.8954-2-2v-2c0-1.1046.8954-2 2-2h1.0208V9c0-.5523-.4477-1-1-1H3a2.9952 2.9952 0 0 1-.9973-.1697zM2 5.0017C2.001 5.5532 2.4483 6 3 6h14.0125l.0125-1c0-.5523-.4477-1-1-1H3c-.5523 0-1 .4477-1 1v.0017zm20.0208 11.9982V19c0 1.6569-1.3431 3-3 3H3.0167c-1.6545 0-2.9966-1.3393-3-2.9942L.005 12H0V5c0-1.6569 1.3431-3 3-3h13.025c1.6568 0 3 1.3431 3 3.0125L19.0125 6h.0082c1.6569 0 3 1.3431 3 3v2.0001C23.1158 11.0113 24 11.9024 24 13v2c0 1.0976-.8842 1.9887-1.9792 1.9999zM19 13v2h3v-2h-3z" id="icons-default-money-wallet" /></defs><use xlink:href="#icons-default-money-wallet" fill="#758CA3" fill-rule="evenodd" /></svg>