<svg xmlns="http://www.w3.org/2000/svg" xmlns:xlink="http://www.w3.org/1999/xlink" width="24" height="24" viewBox="0 0 24 24"><defs><path d="M4.6474 20.0771c3.3505-1.313 5.5932-4.5097 5.5932-8.1203 0-3.6095-2.2428-6.8061-5.5932-8.119a.9954.9954 0 0 1-.4765-.3767c-.3089-.4578-.1881-1.0794.2697-1.3882C6.431.7299 8.7824 0 11.2406 0c6.6733 0 12.0868 5.3506 12.0868 11.958 0 6.6064-5.4137 11.9569-12.0868 11.9569-2.4582 0-4.8096-.73-6.8-2.0729-.4578-.3089-.5786-.9304-.2697-1.3882a.9954.9954 0 0 1 .4765-.3767zm2.494.98c1.2738.5609 2.6635.8578 4.0992.8578 5.5738 0 10.0868-4.4603 10.0868-9.9569C21.3274 6.4605 16.8145 2 11.2406 2c-1.4357 0-2.8254.2969-4.0993.8577 3.1128 1.9262 5.0993 5.3273 5.0993 9.0991 0 3.7728-1.9864 7.174-5.0993 9.1004z" id="icons-default-moon" /></defs><use xlink:href="#icons-default-moon" fill="#758CA3" fill-rule="evenodd" /></svg>