<svg xmlns="http://www.w3.org/2000/svg" xmlns:xlink="http://www.w3.org/1999/xlink" width="24" height="24" viewBox="0 0 24 24"><defs><path d="M3 7v14c0 .5523.4477 1 1 1h12c.5523 0 1-.4477 1-1v-1c0-.5523.4477-1 1-1s1 .4477 1 1v1c0 1.6569-1.3431 3-3 3H4c-1.6569 0-3-1.3431-3-3V6c0-3.3137 2.6863-6 6-6h9c1.6569 0 3 1.3431 3 3v1c0 .5523-.4477 1-1 1s-1-.4477-1-1V3c0-.5523-.4477-1-1-1H8v4c0 .5523-.4477 1-1 1H3zm.126-2H6V2.126C4.5944 2.4878 3.4878 3.5944 3.126 5zm17.4598 8H9c-.5523 0-1-.4477-1-1s.4477-1 1-1h11.5858l-2.293-2.2929c-.3904-.3905-.3904-1.0237 0-1.4142.3906-.3905 1.0238-.3905 1.4143 0l4 4c.3905.3905.3905 1.0237 0 1.4142l-4 4c-.3905.3905-1.0237.3905-1.4142 0-.3905-.3905-.3905-1.0237 0-1.4142L20.5858 13z" id="icons-default-move-file" /></defs><use xlink:href="#icons-default-move-file" fill="#758CA3" fill-rule="evenodd" /></svg>