<svg xmlns="http://www.w3.org/2000/svg" xmlns:xlink="http://www.w3.org/1999/xlink" width="24" height="24" viewBox="0 0 24 24"><defs><path d="M13 7v3h9V7h-9zm-2 0H2v3h9V7zm0 5H3v10h8V12zm2 0v10h8V12h-8zM6.3368 5A3.4864 3.4864 0 0 1 6 3.5C6 1.567 7.567 0 9.5 0c.9793 0 1.8647.4022 2.5 1.0505C12.6353.4022 13.5207 0 14.5 0 16.433 0 18 1.567 18 3.5a3.4864 3.4864 0 0 1-.3368 1.5H22c1.1046 0 2 .8954 2 2v4c0 .5523-.4477 1-1 1v11c0 .5523-.4477 1-1 1H2c-.5523 0-1-.4477-1-1V12c-.5523 0-1-.4477-1-1V7c0-1.1046.8954-2 2-2h4.3368zM14.5 5c.8284 0 1.5-.6716 1.5-1.5S15.3284 2 14.5 2 13 2.6716 13 3.5 13.6716 5 14.5 5zm-5 0c.8284 0 1.5-.6716 1.5-1.5S10.3284 2 9.5 2 8 2.6716 8 3.5 8.6716 5 9.5 5z" id="icons-default-package-gift" /></defs><use xlink:href="#icons-default-package-gift" fill="#758CA3" fill-rule="evenodd" /></svg>