<svg xmlns="http://www.w3.org/2000/svg" xmlns:xlink="http://www.w3.org/1999/xlink" width="24" height="24" viewBox="0 0 24 24"><defs><path d="M13 3.6995v3.7463l2.4181 1.5113L18.941 7 13 3.6995zm.4203 6.3675L12 9.1792l-1.4203.8878L12 10.856l1.4203-.789zM8.582 8.957 11 7.4459V3.6995L5.0591 7 8.582 8.957zm13.4126-2.063 1.934 4.835a1 1 0 0 1-.4429 1.2455L22 13.7999V17a1 1 0 0 1-.5144.8742l-9 5a1 1 0 0 1-.9712 0l-9-5A1 1 0 0 1 2 17v-3.2001l-1.4856-.8254a1 1 0 0 1-.4429-1.2455l1.934-4.835c.0318-.305.2015-.5974.5089-.7682l9-5a1 1 0 0 1 .9712 0l9 5c.3074.1708.477.4632.5089.7682zM20 14.911l-5.5144 3.0635c-.5265.2925-1.1904.0565-1.414-.5028L12 14.793l-1.0715 2.6788c-.2237.5593-.8876.7953-1.4141.5028L4 14.911v1.5006l8 4.4444 8-4.4444V14.911zm-9.2556-2.4646L3.5068 8.4255l-1.2512 3.128 7.2376 4.021 1.2512-3.128zm2.5112 0 1.2512 3.128 7.2376-4.0208-1.2512-3.128-7.2376 4.0208z" id="icons-default-package-open" /></defs><use xlink:href="#icons-default-package-open" fill="#758CA3" fill-rule="evenodd" /></svg>