<svg xmlns="http://www.w3.org/2000/svg" xmlns:xlink="http://www.w3.org/1999/xlink" width="24" height="24" viewBox="0 0 24 24"><defs><path d="M8 22v-6h8v6h5c.5523 0 1-.4477 1-1V3c0-.5523-.4477-1-1-1h-5v4c0 .5523-.4477 1-1 1H9c-.5523 0-1-.4477-1-1V2H3c-.5523 0-1 .4477-1 1v18c0 .5523.4477 1 1 1h5zM3 0h18c1.6569 0 3 1.3431 3 3v18c0 1.6569-1.3431 3-3 3H3c-1.6569 0-3-1.3431-3-3V3c0-1.6569 1.3431-3 3-3zm7 2v3h4V2h-4zm0 20h4v-4h-4v4z" id="icons-default-package-closed" /></defs><use xlink:href="#icons-default-package-closed" fill="#758CA3" fill-rule="evenodd" /></svg>