<svg xmlns="http://www.w3.org/2000/svg" xmlns:xlink="http://www.w3.org/1999/xlink" width="24" height="24" viewBox="0 0 24 24"><defs><path d="M5 11.0193V19c0 .5523.4477 1 1 1h12c.5523 0 1-.4477 1-1v-3h-7c-1.1046 0-2-.8954-2-2v-4c0-1.1046.8954-2 2-2h7V4h-5c0 1.1046-.8954 2-2 2a1.9955 1.9955 0 0 1-.7078-.1288L5 11.0193zm0-2.584 5.026-4.1122A2.0142 2.0142 0 0 1 10 4H5v4.4352zm-2 4.2204L1.6332 13.774c-.4274.3497-1.0574.2867-1.4072-.1408-.3497-.4274-.2867-1.0574.1408-1.4072L3 10.0716V3c0-.5523.4477-1 1-1h16c.5523 0 1 .4477 1 1v16c0 1.6569-1.3431 3-3 3H6c-1.6569 0-3-1.3431-3-3v-6.3443zM19 10h-7v4h7v-4z" id="icons-default-paint" /></defs><use xlink:href="#icons-default-paint" fill="#758CA3" fill-rule="evenodd" /></svg>