<svg xmlns="http://www.w3.org/2000/svg" xmlns:xlink="http://www.w3.org/1999/xlink" width="24" height="24" viewBox="0 0 24 24"><defs><path id="icons-default-paperclip" d="M8 16V5.5C8 3.567 9.567 2 11.5 2S15 3.567 15 5.5v14.5294c0 1.1045-.8954 2-2 2s-2-.8955-2-2V5.4618a.5001.5001 0 1 1 1.0002 0v10.5934c0 .5523.4477 1 1 1s1-.4477 1-1V5.4618c0-1.3808-1.1194-2.5001-2.5001-2.5001-1.3808 0-2.5002 1.1193-2.5002 2.5001v14.5676c0 2.2091 1.791 4 4 4 2.2092 0 4.0001-1.7909 4.0001-4V5.5C17 2.4624 14.5376 0 11.5 0S6 2.4624 6 5.5V16c0 .5523.4477 1 1 1s1-.4477 1-1z" /></defs><use xlink:href="#icons-default-paperclip" fill="#758CA3" fill-rule="evenodd" /></svg>