<svg xmlns="http://www.w3.org/2000/svg" xmlns:xlink="http://www.w3.org/1999/xlink" width="24" height="24" viewBox="0 0 24 24"><defs><path d="M3 7v14c0 .5523.4477 1 1 1h12c.5523 0 1-.4477 1-1v-6.5858l-3.2929 3.293A1 1 0 0 1 13 18H6c-.5523 0-1-.4477-1-1s.4477-1 1-1h3v-2a1 1 0 0 1 .2929-.7071L17 5.5858V3c0-.5523-.4477-1-1-1H8v4c0 .5523-.4477 1-1 1H3zm.126-2H6V2.126C4.5944 2.4878 3.4878 3.5944 3.126 5zM19 12.4142V21c0 1.6569-1.3431 3-3 3H4c-1.6569 0-3-1.3431-3-3V6c0-3.3137 2.6863-6 6-6h9c1.6569 0 3 1.3431 3 3v1c.256 0 .5118.0976.7071.2929l3 3c.3905.3905.3905 1.0237 0 1.4142L19 12.4142zM12.5858 16l8-8L19 6.4142l-8 8V16h1.5858z" id="icons-default-paper-pencil-signed" /></defs><use xlink:href="#icons-default-paper-pencil-signed" fill="#758CA3" fill-rule="evenodd" /></svg>