<svg xmlns="http://www.w3.org/2000/svg" xmlns:xlink="http://www.w3.org/1999/xlink" width="24" height="24" viewBox="0 0 24 24"><defs><path d="M14.9046 8.7502C15.6048 8.011 16 7.0392 16 6c0-2.209-1.7908-3.9999-3.9999-3.9999C9.7908 2.0001 8 3.791 8 6c0 1.0395.3955 2.0117 1.0961 2.7509l.9224.9732-3.1387 6.9793A10 10 0 0 0 6 20.8049v1.195h12.0015v-1.195a10 10 0 0 0-.8798-4.1015l-3.139-6.98.9219-.9732zm4.0411 7.1329a12 12 0 0 1 1.0558 4.9218v1.195c0 1.1046-.8954 2-2 2H6c-1.1046 0-2-.8954-2-2v-1.195a12 12 0 0 1 1.0558-4.9218l2.5887-5.7564C6.6252 9.0513 6 7.5987 6 6 6 2.6864 8.6862.0001 11.9999.0001 15.3138.0001 18 2.6864 18 6c0 1.5981-.6248 3.0503-1.6435 4.1256l2.5892 5.7575z" id="icons-default-pawn" /></defs><use xlink:href="#icons-default-pawn" fill="#758CA3" fill-rule="evenodd" /></svg>