<svg xmlns="http://www.w3.org/2000/svg" xmlns:xlink="http://www.w3.org/1999/xlink" width="24" height="24" viewBox="0 0 24 24"><defs><path d="M6.5032 12.0826a26.041 26.041 0 0 1-4.4635-8.8079c-.2155-.7543.4819-1.4518 1.2362-1.2362a26.041 26.041 0 0 1 8.808 4.4635l5.209-5.2091c.3905-.3905 1.0237-.3905 1.4142 0l4 4c.3905.3905.3905 1.0237 0 1.4142l-5.215 5.215 1.1759 1.3228A7.737 7.737 0 0 1 22 19.6056V21c0 .5523-.4477 1-1 1h-1.3944a7.737 7.737 0 0 1-6.3648-3.338l-1.3175-1.171-4.2162 4.2161A1 1 0 0 1 7 22H3c-.5523 0-1-.4477-1-1v-4a1 1 0 0 1 .2929-.7071l4.2103-4.2103zm1.2908 1.5376L4 17.4142V20h2.5858l3.8401-3.8401-.6478-.5758a26.0408 26.0408 0 0 1-1.9841-1.9639zm6.1662 3.0054 2.6666-2.6666-2.5363-2.8534a24.0413 24.0413 0 0 0-9.519-6.5353 24.0413 24.0413 0 0 0 6.5353 9.519l2.8534 2.5363zm-.3387-8.8328a26.0408 26.0408 0 0 1 1.9638 1.984l.5758.6479L18.0858 8.5 15.5 5.9142l-1.8785 1.8786zM16.9142 4.5 19.5 7.0858 20.5858 6 18 3.4142 16.9142 4.5zM20 19.6056a5.7373 5.7373 0 0 0-1.9138-4.2776l-2.7582 2.7582A5.7373 5.7373 0 0 0 19.6056 20H20v-.3944z" id="icons-default-pencil-brush" /></defs><use xlink:href="#icons-default-pencil-brush" fill="#758CA3" fill-rule="evenodd" /></svg>