<svg xmlns="http://www.w3.org/2000/svg" xmlns:xlink="http://www.w3.org/1999/xlink" width="24" height="24" viewBox="0 0 24 24"><defs><path d="M3 6h2.5858L8 3.5858A2 2 0 0 1 9.4142 3h5.1716A2 2 0 0 1 16 3.5858L18.4142 6H21c1.6569 0 3 1.3431 3 3v9c0 1.6569-1.3431 3-3 3H3c-1.6569 0-3-1.3431-3-3V9c0-1.6569 1.3431-3 3-3zm0 2c-.5523 0-1 .4477-1 1v9c0 .5523.4477 1 1 1h18c.5523 0 1-.4477 1-1V9c0-.5523-.4477-1-1-1h-2.5858A2 2 0 0 1 17 7.4142L14.5858 5H9.4142L7 7.4142A2 2 0 0 1 5.5858 8H3zm2 2c.5523 0 1 .4477 1 1s-.4477 1-1 1-1-.4477-1-1 .4477-1 1-1zm7 8c-2.7614 0-5-2.2386-5-5s2.2386-5 5-5 5 2.2386 5 5-2.2386 5-5 5zm0-2c1.6569 0 3-1.3431 3-3s-1.3431-3-3-3-3 1.3431-3 3 1.3431 3 3 3z" id="icons-default-photocamera" /></defs><use xlink:href="#icons-default-photocamera" fill="#758CA3" fill-rule="evenodd" /></svg>