<svg xmlns="http://www.w3.org/2000/svg" xmlns:xlink="http://www.w3.org/1999/xlink" width="24" height="24" viewBox="0 0 24 24"><defs><path d="M1.6734 4.5473C1.9075 1.972 4.0668 0 6.6529 0h10.7205c2.586 0 4.7454 1.972 4.9795 4.5473l1.5702 17.2717a2 2 0 0 1 .0082.181c0 1.1046-.8955 2-2 2H2.095a2 2 0 0 1-.181-.0082c-1.1-.1-1.9108-1.0728-1.8108-2.1728L1.6734 4.5473zm1.9918.1811L2.095 22h19.8363L20.361 4.7284C20.2206 3.1832 18.9251 2 17.3734 2H6.653C5.1012 2 3.8057 3.1832 3.6652 4.7284zM9 7c-.5523 0-1-.4477-1-1s.4477-1 1-1h6c.5523 0 1 .4477 1 1s-.4477 1-1 1H9z" id="icons-default-plastic-bag" /></defs><use xlink:href="#icons-default-plastic-bag" fill="#758CA3" fill-rule="evenodd" /></svg>