<svg xmlns="http://www.w3.org/2000/svg" xmlns:xlink="http://www.w3.org/1999/xlink" width="24" height="24" viewBox="0 0 24 24"><defs><path d="M19 16v1c0 1.1046-.8954 2-2 2H9c-2.2091 0-4-1.7909-4-4v-2H1c-.5523 0-1-.4477-1-1s.4477-1 1-1h4V9c0-2.2091 1.7909-4 4-4h8c1.1046 0 2 .8954 2 2v1h3c.5523 0 1 .4477 1 1s-.4477 1-1 1h-3v4h3c.5523 0 1 .4477 1 1s-.4477 1-1 1h-3zM9 7c-1.1046 0-2 .8954-2 2v6c0 1.1046.8954 2 2 2h8V7H9zm-1 4c0-.5523.4477-1 1-1s1 .4477 1 1v2c0 .5523-.4477 1-1 1s-1-.4477-1-1v-2z" id="icons-default-plug" /></defs><use xlink:href="#icons-default-plug" fill="#758CA3" fill-rule="evenodd" /></svg>