<svg xmlns="http://www.w3.org/2000/svg" xmlns:xlink="http://www.w3.org/1999/xlink" width="24" height="24" viewBox="0 0 24 24"><defs><path d="M11 11V7c0-.5523.4477-1 1-1s1 .4477 1 1v4h4c.5523 0 1 .4477 1 1s-.4477 1-1 1h-4v4c0 .5523-.4477 1-1 1s-1-.4477-1-1v-4H7c-.5523 0-1-.4477-1-1s.4477-1 1-1h4zM3 0h18c1.6569 0 3 1.3431 3 3v18c0 1.6569-1.3431 3-3 3H3c-1.6569 0-3-1.3431-3-3V3c0-1.6569 1.3431-3 3-3zm0 2c-.5523 0-1 .4477-1 1v18c0 .5523.4477 1 1 1h18c.5523 0 1-.4477 1-1V3c0-.5523-.4477-1-1-1H3z" id="icons-default-plus-block" /></defs><use xlink:href="#icons-default-plus-block" fill="#758CA3" fill-rule="evenodd" /></svg>