<svg xmlns="http://www.w3.org/2000/svg" xmlns:xlink="http://www.w3.org/1999/xlink" width="24" height="24" viewBox="0 0 24 24"><defs><path d="M10 10H3c-.5523 0-1 .4477-1 1v2c0 .5523.4477 1 1 1h7v7c0 .5523.4477 1 1 1h2c.5523 0 1-.4477 1-1v-7h7c.5523 0 1-.4477 1-1v-2c0-.5523-.4477-1-1-1h-7V3c0-.5523-.4477-1-1-1h-2c-.5523 0-1 .4477-1 1v7zM8 8V3c0-1.6569 1.3431-3 3-3h2c1.6569 0 3 1.3431 3 3v5h5c1.6569 0 3 1.3431 3 3v2c0 1.6569-1.3431 3-3 3h-5v5c0 1.6569-1.3431 3-3 3h-2c-1.6569 0-3-1.3431-3-3v-5H3c-1.6569 0-3-1.3431-3-3v-2c0-1.6569 1.3431-3 3-3h5z" id="icons-default-plus-wide" /></defs><use xlink:href="#icons-default-plus-wide" fill="#758CA3" fill-rule="evenodd" /></svg>