<svg xmlns="http://www.w3.org/2000/svg" xmlns:xlink="http://www.w3.org/1999/xlink" width="24" height="24" viewBox="0 0 24 24"><defs><path d="M22 8H2v13c0 .5523.4477 1 1 1s1 .4477 1 1-.4477 1-1 1c-1.6569 0-3-1.3431-3-3V3c0-1.6569 1.3431-3 3-3h18c1.6569 0 3 1.3431 3 3v8c0 .5523-.4477 1-1 1s-1-.4477-1-1V8zm0-2V3c0-.5523-.4477-1-1-1H3c-.5523 0-1 .4477-1 1v3h20zm-5-3c.5523 0 1 .4477 1 1s-.4477 1-1 1-1-.4477-1-1 .4477-1 1-1zm3 0c.5523 0 1 .4477 1 1s-.4477 1-1 1-1-.4477-1-1 .4477-1 1-1zm-6 21c-3.0935 0-5.9292-1.3154-8.468-3.8961-1.1486-1.1675-1.1486-3.0403 0-4.2078C8.0708 13.3154 10.9065 12 14 12c3.0935 0 5.9292 1.3154 8.468 3.8961 1.1486 1.1675 1.1486 3.0403 0 4.2078C19.9292 22.6846 17.0935 24 14 24zm0-2c2.528 0 4.8624-1.0828 7.0423-3.2987a1 1 0 0 0 0-1.4026C18.8623 15.0828 16.528 14 14 14c-2.528 0-4.8624 1.0828-7.0423 3.2987a1 1 0 0 0 0 1.4026C9.1377 20.9172 11.472 22 14 22zm0-2c-1.1046 0-2-.8954-2-2s.8954-2 2-2 2 .8954 2 2-.8954 2-2 2z" id="icons-default-preview" /></defs><use xlink:href="#icons-default-preview" fill="#758CA3" fill-rule="evenodd" /></svg>