<svg xmlns="http://www.w3.org/2000/svg" xmlns:xlink="http://www.w3.org/1999/xlink" width="24" height="24" viewBox="0 0 24 24"><defs><path d="M5.1707 22H3c-1.6569 0-3-1.3431-3-3v-7c0-1.6569 1.3431-3 3-3h2V1c0-.5523.4477-1 1-1h12c.5523 0 1 .4477 1 1v8h2c1.6569 0 3 1.3431 3 3v7c0 1.6569-1.3431 3-3 3h-2.1707c-.4118 1.1652-1.523 2-2.8293 2H8c-1.3062 0-2.4175-.8348-2.8293-2zm0-2c.4118-1.1652 1.523-2 2.8293-2h8c1.3062 0 2.4175.8348 2.8293 2H21c.5523 0 1-.4477 1-1v-7c0-.5523-.4477-1-1-1H3c-.5523 0-1 .4477-1 1v7c0 .5523.4477 1 1 1h2.1707zM7 2v7h10V2H7zm1 18c-.5523 0-1 .4477-1 1s.4477 1 1 1h8c.5523 0 1-.4477 1-1s-.4477-1-1-1H8zm-3-7c.5523 0 1 .4477 1 1s-.4477 1-1 1-1-.4477-1-1 .4477-1 1-1z" id="icons-default-printer" /></defs><use xlink:href="#icons-default-printer" fill="#758CA3" fill-rule="evenodd" /></svg>