<svg xmlns="http://www.w3.org/2000/svg" xmlns:xlink="http://www.w3.org/1999/xlink" width="24" height="24" viewBox="0 0 24 24"><defs><path d="M10 9c-.5523 0-1 .4477-1 1v11c0 .5523.4477 1 1 1h11c.5523 0 1-.4477 1-1V10c0-.5523-.4477-1-1-1H10zm5-2V3c0-.5523-.4477-1-1-1H3c-.5523 0-1 .4477-1 1v11c0 .5523.4477 1 1 1h4v-5c0-1.6569 1.3431-3 3-3h5zm2 0h4c1.6569 0 3 1.3431 3 3v11c0 1.6569-1.3431 3-3 3H10c-1.6569 0-3-1.3431-3-3v-4H3c-1.6569 0-3-1.3431-3-3V3c0-1.6569 1.3431-3 3-3h11c1.6569 0 3 1.3431 3 3v4z" id="icons-default-products" /></defs><use xlink:href="#icons-default-products" fill="#758CA3" fill-rule="evenodd" /></svg>