<svg xmlns="http://www.w3.org/2000/svg" xmlns:xlink="http://www.w3.org/1999/xlink" width="24" height="24" viewBox="0 0 24 24"><defs><path d="M21.9506 11C21.449 5.9467 17.1853 2 12 2s-9.4489 3.9467-9.9506 9h4.4154l3.7031-5.5547c.503-.7543 1.6695-.5039 1.8185.3903l1.5843 9.5056 2.5972-3.8959A1 1 0 0 1 17 11h4.9506zm0 2h-4.4154l-3.7031 5.5547c-.503.7543-1.6695.5039-1.8185-.3903l-1.5843-9.5056-2.5972 3.8959A1 1 0 0 1 7 13H2.0494C2.551 18.0533 6.8147 22 12 22s9.4489-3.9467 9.9506-9zM24 12c0 6.6274-5.3726 12-12 12S0 18.6274 0 12 5.3726 0 12 0s12 5.3726 12 12z" id="icons-default-pulse" /></defs><use xlink:href="#icons-default-pulse" fill="#758CA3" fill-rule="evenodd" /></svg>