<svg xmlns="http://www.w3.org/2000/svg" xmlns:xlink="http://www.w3.org/1999/xlink" width="24" height="24" viewBox="0 0 24 24"><defs><path d="M8 9.9186V5.8293C6.8348 5.4175 6 4.3063 6 3c0-1.6569 1.3431-3 3-3h6c1.6569 0 3 1.3431 3 3 0 1.3062-.8348 2.4175-2 2.8293v4.0893c.1699.1764.3195.375.444.593l1.7144 3c.822 1.4385.3222 3.2711-1.1163 4.0931A3 3 0 0 1 15.5536 18H13v5c0 .5523-.4477 1-1 1s-1-.4477-1-1v-5H8.4464c-1.6569 0-3-1.3431-3-3a3 3 0 0 1 .3952-1.4884l1.7143-3A2.9983 2.9983 0 0 1 8 9.9186zM13.8394 9H14V6h-4v3h3.8394zM15 4c.5523 0 1-.4477 1-1s-.4477-1-1-1H9c-.5523 0-1 .4477-1 1s.4477 1 1 1h6zm-4.8394 7a1 1 0 0 0-.8682.5039l-1.7143 3A1 1 0 0 0 7.4464 15c0 .5523.4477 1 1 1h7.1072a1 1 0 0 0 .4962-.1318c.4795-.274.646-.8848.372-1.3643l-1.7142-3A1 1 0 0 0 13.8394 11h-3.6788z" id="icons-default-pushpin" /></defs><use xlink:href="#icons-default-pushpin" fill="#758CA3" fill-rule="evenodd" /></svg>