<svg xmlns="http://www.w3.org/2000/svg" xmlns:xlink="http://www.w3.org/1999/xlink" width="24" height="24" viewBox="0 0 24 24"><defs><path d="M20 16c-2.2091 0-4-1.7909-4-4 0-2.2091 1.7909-4 4-4V6h-6V4c0-1.1046-.8954-2-2-2s-2 .8954-2 2v2H4v2c2.2091 0 4 1.7909 4 4 0 2.2091-1.7909 4-4 4v2h6v2c0 1.1046.8954 2 2 2s2-.8954 2-2v-2h6v-2zm-8 8c-2.2091 0-4-1.7909-4-4H3c-.5523 0-1-.4477-1-1v-4c0-.5523.4477-1 1-1h1c1.1046 0 2-.8954 2-2s-.8954-2-2-2H3c-.5523 0-1-.4477-1-1V5c0-.5523.4477-1 1-1h5c0-2.2091 1.7909-4 4-4 2.2091 0 4 1.7909 4 4h5c.5523 0 1 .4477 1 1v4c0 .5523-.4477 1-1 1h-1c-1.1046 0-2 .8954-2 2s.8954 2 2 2h1c.5523 0 1 .4477 1 1v4c0 .5523-.4477 1-1 1h-5c0 2.2091-1.7909 4-4 4z" id="icons-default-puzzle-piece" /></defs><use xlink:href="#icons-default-puzzle-piece" fill="#758CA3" fill-rule="evenodd" /></svg>