<svg xmlns="http://www.w3.org/2000/svg" xmlns:xlink="http://www.w3.org/1999/xlink" width="24" height="24" viewBox="0 0 24 24"><defs><path d="M9 6v12h6V6H9zm0-2h6c1.1046 0 2 .8954 2 2v12c0 1.1046-.8954 2-2 2H9c-1.1046 0-2-.8954-2-2V6c0-1.1046.8954-2 2-2zM0 8V6h3c1.1046 0 2 .8954 2 2v8c0 1.1046-.8954 2-2 2H0v-2h3V8H0zm24 0h-3v8h3v2h-3c-1.1046 0-2-.8954-2-2V8c0-1.1046.8954-2 2-2h3v2z" id="icons-default-quickjump" /></defs><use xlink:href="#icons-default-quickjump" fill="#758CA3" fill-rule="evenodd" /></svg>