<svg xmlns="http://www.w3.org/2000/svg" xmlns:xlink="http://www.w3.org/1999/xlink" width="24" height="24" viewBox="0 0 24 24"><defs><path d="M20 11v3c0 1.6569-1.3431 3-3 3h-1c-.5523 0-1-.4477-1-1s.4477-1 1-1h1c.5523 0 1-.4477 1-1h-3c-1.1046 0-2-.8954-2-2V9c0-1.1046.8954-2 2-2h3c1.1046 0 2 .8954 2 2v2zm-9 1v2c0 1.6569-1.3431 3-3 3H7c-.5523 0-1-.4477-1-1s.4477-1 1-1h1c.5523 0 1-.4477 1-1H6c-1.1046 0-2-.8954-2-2V9c0-1.1046.8954-2 2-2h3c1.1046 0 2 .8954 2 2v3zm-2-1V9H6v3h3v-1zm6-2v3h3V9h-3z" id="icons-default-quote" /></defs><use xlink:href="#icons-default-quote" fill="#758CA3" fill-rule="evenodd" /></svg>