<svg xmlns="http://www.w3.org/2000/svg" width="24" height="24" viewBox="0 0 24 24">
  <path fill="#758CA3" fill-rule="evenodd" d="M20,11 L20,14 C20,15.6568542 18.6568542,17 17,17 L16,17 C15.4477153,17 15,16.5522847 15,16 C15,15.4477153 15.4477153,15 16,15 L17,15 C17.5522847,15 18,14.5522847 18,14 L15,14 C13.8954305,14 13,13.1045695 13,12 L13,9 C13,7.8954305 13.8954305,7 15,7 L18,7 C19.1045695,7 20,7.8954305 20,9 L20,11 Z M11,12 L11,14 C11,15.6568542 9.65685425,17 8,17 L7,17 C6.44771525,17 6,16.5522847 6,16 C6,15.4477153 6.44771525,15 7,15 L8,15 C8.55228475,15 9,14.5522847 9,14 L6,14 C4.8954305,14 4,13.1045695 4,12 L4,9 C4,7.8954305 4.8954305,7 6,7 L9,7 C10.1045695,7 11,7.8954305 11,9 L11,12 Z M9,11 L9,9 L6,9 L6,12 L9,12 L9,11 Z M15,9 L15,12 L18,12 L18,9 L15,9 Z"/>
</svg>
