<svg xmlns="http://www.w3.org/2000/svg" xmlns:xlink="http://www.w3.org/1999/xlink" width="24" height="24" viewBox="0 0 24 24"><defs><path d="M16 4h4c1.6569 0 3 1.3431 3 3v14c0 1.6569-1.3431 3-3 3h-9c-1.6569 0-3-1.3431-3-3v-1H4c-1.6569 0-3-1.3431-3-3V6c0-3.3137 2.6863-6 6-6h6c1.6569 0 3 1.3431 3 3v1zm0 2v11c0 1.6569-1.3431 3-3 3h-3v1c0 .5523.4477 1 1 1h9c.5523 0 1-.4477 1-1V7c0-.5523-.4477-1-1-1h-4zM3 7v10c0 .5523.4477 1 1 1h9c.5523 0 1-.4477 1-1V3c0-.5523-.4477-1-1-1H8v4c0 .5523-.4477 1-1 1H3zm.126-2H6V2.126C4.5944 2.4878 3.4878 3.5944 3.126 5z" id="icons-default-replace" /></defs><use xlink:href="#icons-default-replace" fill="#758CA3" fill-rule="evenodd" /></svg>