<svg xmlns="http://www.w3.org/2000/svg" xmlns:xlink="http://www.w3.org/1999/xlink" width="24" height="24" viewBox="0 0 24 24"><defs><path d="m3.4142 9 2.293 2.2929c.3904.3905.3904 1.0237 0 1.4142-.3906.3905-1.0238.3905-1.4143 0l-4-4c-.3905-.3905-.3905-1.0237 0-1.4142l4-4c.3905-.3905 1.0237-.3905 1.4142 0 .3905.3905.3905 1.0237 0 1.4142L3.4142 7H14c5.5228 0 10 4.4772 10 10v2.0312c0 .5523-.4477 1-1 1s-1-.4477-1-1V17c0-4.4183-3.5817-8-8-8H3.4142z" id="icons-default-reply" /></defs><use xlink:href="#icons-default-reply" fill="#758CA3" fill-rule="evenodd" /></svg>