<svg xmlns="http://www.w3.org/2000/svg" xmlns:xlink="http://www.w3.org/1999/xlink" width="24" height="24" viewBox="0 0 24 24"><defs><path d="M5.2213 14.4042a12.7324 12.7324 0 0 0-3.4638-1.434c-.7541-.1886-1.0142-1.1277-.4646-1.6773l1.8284-1.8284A5 5 0 0 1 6.657 8h2.47l.47-.6462A13 13 0 0 1 20.1107 2H21c.5523 0 1 .4477 1 1v.8893a13 13 0 0 1-5.3538 10.5136l-.4355.3167.2102.8407a5 5 0 0 1-1.3152 4.7482l-2.3986 2.3986c-.5496.5496-1.4887.2895-1.6772-.4646a12.7324 12.7324 0 0 0-1.434-3.4638 41.8718 41.8718 0 0 1-5.2797 2.17c-.7817.2606-1.5255-.4832-1.2649-1.265a41.8718 41.8718 0 0 1 2.17-5.2795zm.9287-1.7747A41.8718 41.8718 0 0 1 7.7358 10h-1.079a3 3 0 0 0-2.1213.8787l-.661.661c.794.2997 1.5546.665 2.2755 1.0898zm8.309 3.33a41.8717 41.8717 0 0 1-3.0885 1.8905 14.7187 14.7187 0 0 1 1.0897 2.2755l1.2313-1.2312a3 3 0 0 0 .789-2.849l-.0214-.0858zm-4.2242.2328a39.8717 39.8717 0 0 0 4.292-2.721l.943-.6859a11 11 0 0 0 4.5296-8.7848A11 11 0 0 0 11.2146 8.53l-.686.9432a39.8717 39.8717 0 0 0-2.721 4.2919 14.762 14.762 0 0 1 2.4272 2.4271zm-1.8172.936a12.7602 12.7602 0 0 0-1.5459-1.5459c-.4347.9-.8358 1.8167-1.202 2.748a39.8718 39.8718 0 0 0 2.7479-1.2021z" id="icons-default-rocket" /></defs><use xlink:href="#icons-default-rocket" fill="#758CA3" fill-rule="evenodd" /></svg>