<svg xmlns="http://www.w3.org/2000/svg" xmlns:xlink="http://www.w3.org/1999/xlink" width="24" height="24" viewBox="0 0 24 24"><defs><path d="m11 18.4142-3.2929 3.293A1 1 0 0 1 7 22H3c-.5523 0-1-.4477-1-1v-4a1 1 0 0 1 .2929-.7071L5.5858 13l-4.293-4.2929c-.3904-.3905-.3904-1.0237 0-1.4142l6-6c.3906-.3905 1.0238-.3905 1.4143 0L13 5.5858l4.2929-4.293c.3905-.3904 1.0237-.3904 1.4142 0l4 4c.3905.3906.3905 1.0238 0 1.4143L18.4142 11l4.293 4.2929c.3904.3905.3904 1.0237 0 1.4142l-6 6c-.3906.3905-1.0238.3905-1.4143 0L11 18.4142zM12.4142 17 13.5 18.0858l.7929-.793c.3905-.3904 1.0237-.3904 1.4142 0 .3905.3906.3905 1.0238 0 1.4143l-.7929.7929L16 20.5858 20.5858 16 17 12.4142 12.4142 17zM15.5 5.9142 4 17.4142V20h2.5858l11.5-11.5L15.5 5.9142zM16.9142 4.5 19.5 7.0858 20.5858 6 18 3.4142 16.9142 4.5zM11.5858 7 8 3.4142 3.4142 8 4.5 9.0858l.7929-.793c.3905-.3904 1.0237-.3904 1.4142 0 .3905.3906.3905 1.0238 0 1.4143l-.7929.7929L7 11.5858 11.5858 7z" id="icons-default-ruler-pencil" /></defs><use xlink:href="#icons-default-ruler-pencil" fill="#758CA3" fill-rule="evenodd" /></svg>