<svg xmlns="http://www.w3.org/2000/svg" xmlns:xlink="http://www.w3.org/1999/xlink" width="24" height="24" viewBox="0 0 24 24"><defs><path d="M4.0008 3a1 1 0 0 0-.3846.077c-.5098.2123-.751.7978-.5385 1.3076l2.9487 6.077a4 4 0 0 1 0 3.0769l-2.9487 6.0769a1 1 0 0 0-.077.3846c0 .5523.4478 1 1 1h12.5a1 1 0 0 0 .9232-.6154l3.75-8a1 1 0 0 0 0-.7692l-3.75-8A1 1 0 0 0 16.5008 3h-12.5zm0-2h12.5A3 3 0 0 1 19.27 2.8462l3.75 8a3 3 0 0 1 0 2.3076l-3.75 8A3 3 0 0 1 16.5008 23h-12.5c-1.6569 0-3-1.3431-3-3a3 3 0 0 1 .2308-1.1538l2.9487-6.077a2 2 0 0 0 0-1.5384l-2.9487-6.077c-.6373-1.5294.086-3.2858 1.6153-3.923A3 3 0 0 1 4.0008 1z" id="icons-default-rule" /></defs><use xlink:href="#icons-default-rule" fill="#758CA3" fill-rule="evenodd" /></svg>