<svg xmlns="http://www.w3.org/2000/svg" xmlns:xlink="http://www.w3.org/1999/xlink" width="24" height="24" viewBox="0 0 24 24"><defs><path d="M7 2H4c-.5523 0-1 .4477-1 1v18c0 .5523.4477 1 1 1h16c.5523 0 1-.4477 1-1V5.7016L18.0388 2H17v6c0 .5523-.4477 1-1 1H8c-.5523 0-1-.4477-1-1V2zM4 0h15l4 5v16c0 1.6569-1.3431 3-3 3H4c-1.6569 0-3-1.3431-3-3V3c0-1.6569 1.3431-3 3-3zm5 7h6V2H9v5zm-1 8c-.5523 0-1-.4477-1-1s.4477-1 1-1h8c.5523 0 1 .4477 1 1s-.4477 1-1 1H8zm0 4c-.5523 0-1-.4477-1-1s.4477-1 1-1h8c.5523 0 1 .4477 1 1s-.4477 1-1 1H8z" id="icons-default-save" /></defs><use xlink:href="#icons-default-save" fill="#758CA3" fill-rule="evenodd" /></svg>