<svg xmlns="http://www.w3.org/2000/svg" xmlns:xlink="http://www.w3.org/1999/xlink" width="24" height="24" viewBox="0 0 24 24"><defs><path d="M18.4142 7H22c.5523 0 1 .4477 1 1s-.4477 1-1 1h-6c-.5523 0-1-.4477-1-1V2c0-.5523.4477-1 1-1s1 .4477 1 1v3.5858l5.2929-5.293c.3905-.3904 1.0237-.3904 1.4142 0 .3905.3906.3905 1.0238 0 1.4143L18.4142 7zM17 18.4142V22c0 .5523-.4477 1-1 1s-1-.4477-1-1v-6c0-.5523.4477-1 1-1h6c.5523 0 1 .4477 1 1s-.4477 1-1 1h-3.5858l5.293 5.2929c.3904.3905.3904 1.0237 0 1.4142-.3906.3905-1.0238.3905-1.4143 0L17 18.4142zM7 5.5858V2c0-.5523.4477-1 1-1s1 .4477 1 1v6c0 .5523-.4477 1-1 1H2c-.5523 0-1-.4477-1-1s.4477-1 1-1h3.5858L.2928 1.7071C-.0975 1.3166-.0975.6834.2929.293c.3906-.3905 1.0238-.3905 1.4143 0L7 5.5858zM5.5858 17H2c-.5523 0-1-.4477-1-1s.4477-1 1-1h6c.5523 0 1 .4477 1 1v6c0 .5523-.4477 1-1 1s-1-.4477-1-1v-3.5858l-5.2929 5.293c-.3905.3904-1.0237.3904-1.4142 0-.3905-.3906-.3905-1.0238 0-1.4143L5.5858 17z" id="icons-default-screen-minimize" /></defs><use xlink:href="#icons-default-screen-minimize" fill="#758CA3" fill-rule="evenodd" /></svg>