<svg xmlns="http://www.w3.org/2000/svg" xmlns:xlink="http://www.w3.org/1999/xlink" width="24" height="24" viewBox="0 0 24 24"><defs><path d="M22 20.5858V17c0-.5523.4477-1 1-1s1 .4477 1 1v6c0 .5523-.4477 1-1 1h-6c-.5523 0-1-.4477-1-1s.4477-1 1-1h3.5858l-5.293-5.2929c-.3904-.3905-.3904-1.0237 0-1.4142.3906-.3905 1.0238-.3905 1.4143 0L22 20.5858zM20.5858 2H17c-.5523 0-1-.4477-1-1s.4477-1 1-1h6c.5523 0 1 .4477 1 1v6c0 .5523-.4477 1-1 1s-1-.4477-1-1V3.4142l-5.2929 5.293c-.3905.3904-1.0237.3904-1.4142 0-.3905-.3906-.3905-1.0238 0-1.4143L20.5858 2zM3.4142 22H7c.5523 0 1 .4477 1 1s-.4477 1-1 1H1c-.5523 0-1-.4477-1-1v-6c0-.5523.4477-1 1-1s1 .4477 1 1v3.5858l5.2929-5.293c.3905-.3904 1.0237-.3904 1.4142 0 .3905.3906.3905 1.0238 0 1.4143L3.4142 22zM2 3.4142V7c0 .5523-.4477 1-1 1s-1-.4477-1-1V1c0-.5523.4477-1 1-1h6c.5523 0 1 .4477 1 1s-.4477 1-1 1H3.4142l5.293 5.2929c.3904.3905.3904 1.0237 0 1.4142-.3906.3905-1.0238.3905-1.4143 0L2 3.4142z" id="icons-default-screen-full" /></defs><use xlink:href="#icons-default-screen-full" fill="#758CA3" fill-rule="evenodd" /></svg>