<svg xmlns="http://www.w3.org/2000/svg" xmlns:xlink="http://www.w3.org/1999/xlink" width="24" height="24" viewBox="0 0 24 24"><defs><path d="M10.0944 16.3199 4.707 21.707c-.3905.3905-1.0237.3905-1.4142 0-.3905-.3905-.3905-1.0237 0-1.4142L8.68 14.9056C7.6271 13.551 7 11.8487 7 10c0-4.4183 3.5817-8 8-8s8 3.5817 8 8-3.5817 8-8 8c-1.8487 0-3.551-.627-4.9056-1.6801zM15 16c3.3137 0 6-2.6863 6-6s-2.6863-6-6-6-6 2.6863-6 6 2.6863 6 6 6z" id="icons-default-search" /></defs><use xlink:href="#icons-default-search" fill="#758CA3" fill-rule="evenodd" /></svg>