<svg xmlns="http://www.w3.org/2000/svg" xmlns:xlink="http://www.w3.org/1999/xlink" width="24" height="24" viewBox="0 0 24 24"><defs><path d="M2.3542 15C1.5238 14.267 1 13.1947 1 12s.5238-2.267 1.3542-3C1.5238 8.267 1 7.1947 1 6c0-2.2091 1.7909-4 4-4h14c2.2091 0 4 1.7909 4 4 0 1.1947-.5238 2.267-1.3542 3C22.4762 9.733 23 10.8053 23 12s-.5238 2.267-1.3542 3C22.4762 15.733 23 16.8053 23 18c0 2.2091-1.7909 4-4 4H5c-2.2091 0-4-1.7909-4-4 0-1.1947.5238-2.267 1.3542-3zM19 14c1.1046 0 2-.8954 2-2s-.8954-2-2-2H5c-1.1046 0-2 .8954-2 2s.8954 2 2 2h14zm0-6c1.1046 0 2-.8954 2-2s-.8954-2-2-2H5c-1.1046 0-2 .8954-2 2s.8954 2 2 2h14zM5 5c.5523 0 1 .4477 1 1s-.4477 1-1 1-1-.4477-1-1 .4477-1 1-1zm0 6c.5523 0 1 .4477 1 1s-.4477 1-1 1-1-.4477-1-1 .4477-1 1-1zm0 5c-1.1046 0-2 .8954-2 2s.8954 2 2 2h14c1.1046 0 2-.8954 2-2s-.8954-2-2-2H5zm0 1c.5523 0 1 .4477 1 1s-.4477 1-1 1-1-.4477-1-1 .4477-1 1-1z" id="icons-default-server" /></defs><use xlink:href="#icons-default-server" fill="#758CA3" fill-rule="evenodd" /></svg>