<svg xmlns="http://www.w3.org/2000/svg" xmlns:xlink="http://www.w3.org/1999/xlink" width="24" height="24" viewBox="0 0 24 24"><defs><path d="M12 16c-2.2091 0-4-1.7909-4-4 0-2.2091 1.7909-4 4-4 2.2091 0 4 1.7909 4 4 0 2.2091-1.7909 4-4 4zm0-2c1.1046 0 2-.8954 2-2s-.8954-2-2-2-2 .8954-2 2 .8954 2 2 2zm8.2988-5.2848A.6474.6474 0 0 0 20.83 9H21c1.6569 0 3 1.3431 3 3s-1.3431 3-3 3h-.086a.65.65 0 0 0-.5949.394l-.0042.0098c-.1073.243-.0558.527.1222.709l.0596.0597a3 3 0 0 1 .0008 4.2442 3 3 0 0 1-4.2446.0004l-.0522-.0522c-.19-.1858-.4738-.2373-.7268-.1258-.238.1021-.3929.3358-.3939.5909V21c0 1.6569-1.3431 3-3 3s-3-1.3431-3-3l.0003-.0666c-.0063-.2668-.175-.5027-.484-.6185-.2432-.1073-.527-.0558-.7092.1222l-.0596.0596a3 3 0 0 1-4.2442.0008 3 3 0 0 1-.0004-4.2446l.0522-.0522c.1858-.19.2373-.4738.1258-.7268-.1021-.238-.3358-.3929-.5909-.3939H3c-1.6569 0-3-1.3431-3-3s1.3431-3 3-3l.0666.0003c.2668-.0063.5027-.175.6185-.484.1073-.2432.0558-.527-.1222-.7092l-.0596-.0596a3 3 0 0 1-.0008-4.2442 3 3 0 0 1 4.2446-.0004l.0522.0522a.65.65 0 0 0 .717.13 1 1 0 0 1 .1989-.0639A.6474.6474 0 0 0 9 3.17V3c0-1.6569 1.3431-3 3-3s3 1.3431 3 3v.086c.001.259.1558.4928.4038.5991.243.1073.527.0558.709-.1222l.0597-.0596a3 3 0 0 1 4.2442-.0008 3 3 0 0 1 .0004 4.2446l-.0522.0522a.65.65 0 0 0-.13.717 1 1 0 0 1 .0639.1989zM20.91 13H21c.5523 0 1-.4477 1-1s-.4477-1-1-1h-.174a2.65 2.65 0 0 1-2.4251-1.606 1 1 0 0 1-.0724-.2642c-.3313-.945-.1015-2.0052.6144-2.737l.0604-.0603a1 1 0 0 0-.0008-1.4158 1 1 0 0 0-1.4154.0004l-.0678.0678c-.7745.7575-1.932.9674-2.9132.5342C13.6353 5.1031 13.0042 4.1502 13 3.09V3c0-.5523-.4477-1-1-1s-1 .4477-1 1v.174a2.65 2.65 0 0 1-1.606 2.425 1 1 0 0 1-.2642.0724c-.945.3313-2.0052.1015-2.737-.6144l-.0603-.0604a1 1 0 0 0-1.4158.0008 1 1 0 0 0 .0004 1.4154l.0678.0678c.7575.7745.9674 1.932.5536 2.8645-.3756 1.0212-1.3373 1.709-2.4485 1.7348H3c-.5523 0-1 .4477-1 1s.4477 1 1 1h.174c1.0562.0042 2.009.6353 2.4209 1.5962.4374.9911.2275 2.1486-.5378 2.931l-.0604.0603a1 1 0 0 0 .0008 1.4158 1 1 0 0 0 1.4154-.0004l.0678-.0678c.7745-.7575 1.932-.9674 2.8645-.5536 1.0212.3756 1.709 1.3373 1.7348 2.4485V21c0 .5523.4477 1 1 1s1-.4477 1-1v-.174c.0042-1.0562.6353-2.009 1.5962-2.4209.9911-.4374 2.1486-.2275 2.931.5378l.0603.0604a1 1 0 0 0 1.4158-.0008 1 1 0 0 0-.0004-1.4154l-.0678-.0678a2.65 2.65 0 0 1-.5321-2.9182c.4172-.968 1.3686-1.5969 2.427-1.6011z" id="icons-default-settings" /></defs><use xlink:href="#icons-default-settings" fill="#758CA3" fill-rule="evenodd" /></svg>