<svg xmlns="http://www.w3.org/2000/svg" xmlns:xlink="http://www.w3.org/1999/xlink" width="24" height="24" viewBox="0 0 24 24"><defs><path d="M2 13c0 1.6569 1.3431 3 3 3s3-1.3431 3-3-1.3431-3-3-3-3 1.3431-3 3zm7.8241-1.3192C9.9388 12.1011 10 12.5434 10 13c0 .4391-.0566.865-.163 1.2708l4.9074 2.1031C15.6254 14.9492 17.2018 14 19 14c2.7614 0 5 2.2386 5 5s-2.2386 5-5 5-5-2.2386-5-5a5.04 5.04 0 0 1 .0552-.7455l-5.1056-2.1881C8.0348 17.243 6.6058 18 5 18c-2.7614 0-5-2.2386-5-5s2.2386-5 5-5c1.588 0 3.003.7403 3.919 1.8946l5.415-3.0943A4.9879 4.9879 0 0 1 14 5c0-2.7614 2.2386-5 5-5s5 2.2386 5 5-2.2386 5-5 5c-1.4058 0-2.6762-.5802-3.5846-1.5142l-5.5913 3.195zM19 2c-1.6569 0-3 1.3431-3 3s1.3431 3 3 3 3-1.3431 3-3-1.3431-3-3-3zm0 14c-1.6569 0-3 1.3431-3 3s1.3431 3 3 3 3-1.3431 3-3-1.3431-3-3-3z" id="icons-default-share" /></defs><use xlink:href="#icons-default-share" fill="#758CA3" fill-rule="evenodd" /></svg>