<svg xmlns="http://www.w3.org/2000/svg" xmlns:xlink="http://www.w3.org/1999/xlink" width="24" height="24" viewBox="0 0 24 24"><defs><path d="M4 12.8348A6 6 0 0 0 6.5592 17.75L12 21.5587l5.4408-3.8086A6 6 0 0 0 20 12.8348v-9.442a24.9264 24.9264 0 0 0-16 0v9.442zM22 2v10.8348a8 8 0 0 1-3.4123 6.5538l-6.0142 4.21a1 1 0 0 1-1.147 0l-6.0142-4.21A8 8 0 0 1 2 12.8348V2a26.9258 26.9258 0 0 1 20 0z" id="icons-default-shield" /></defs><use xlink:href="#icons-default-shield" fill="#758CA3" fill-rule="evenodd" /></svg>