<svg xmlns="http://www.w3.org/2000/svg" xmlns:xlink="http://www.w3.org/1999/xlink" width="24" height="24" viewBox="0 0 24 24"><defs><path d="M8 22h3v-7H8v7zm8 0v-7h-3v7h3zM3 10.584V22h3v-7c0-1.1046.8954-2 2-2h8c1.1046 0 2 .8954 2 2v7h3V10.584A4.9831 4.9831 0 0 1 19 11c-1.3627 0-2.5981-.5452-3.5-1.4293C14.5981 10.4548 13.3627 11 12 11c-1.3627 0-2.5981-.5452-3.5-1.4293C7.5981 10.4548 6.3627 11 5 11a4.9831 4.9831 0 0 1-2-.416zM1 9.0005A4.9779 4.9779 0 0 1 0 6V4.4142A3 3 0 0 1 .8787 2.293L2.2929.8787A3 3 0 0 1 4.4142 0h15.1716a3 3 0 0 1 2.1213.8787l1.4142 1.4142A3 3 0 0 1 24 4.4142V6a4.9779 4.9779 0 0 1-1 3.0005V22c0 1.1046-.8954 2-2 2H3c-1.1046 0-2-.8954-2-2V9.0005zM15 6a.5.5 0 1 1 1 0c0 1.6569 1.3431 3 3 3s3-1.3431 3-3V4.4142a1 1 0 0 0-.2929-.707L20.293 2.2928A1 1 0 0 0 19.5858 2H4.4142a1 1 0 0 0-.707.2929L2.2928 3.707A1 1 0 0 0 2 4.4142V6c0 1.6569 1.3431 3 3 3s3-1.3431 3-3a.5.5 0 0 1 1 0c0 1.6569 1.3431 3 3 3s3-1.3431 3-3z" id="icons-default-shop" /></defs><use xlink:href="#icons-default-shop" fill="#758CA3" fill-rule="evenodd" /></svg>