<svg xmlns="http://www.w3.org/2000/svg" xmlns:xlink="http://www.w3.org/1999/xlink" width="24" height="24" viewBox="0 0 24 24"><defs><path d="M19.0876 21.3016a.172.172 0 0 1 .067.1384.17.17 0 0 1-.0692.1362c-2.0605 1.5243-4.506 2.3308-7.0746 2.3308-3.1805 0-6.1686-1.2389-8.4151-3.4854C1.347 18.1751.1103 15.187.1103 12.0086c0-3.1762 1.2389-6.1643 3.4854-8.4108C5.8443 1.3492 8.8324.1124 12.0108.1124c2.9406 0 5.7643 1.0811 7.9481 3.0465A.1685.1685 0 0 1 20 3.358a.1682.1682 0 0 1-.1773.0972c-.8476-.1167-1.7622-.1751-2.72-.1751-3.466 0-6.281.774-8.1384 2.2357-1.6562 1.3038-2.5319 3.107-2.5319 5.2173 0 2.3502.9017 4.2097 2.7525 5.6843 1.6346 1.2995 3.8119 2.1449 5.7319 2.8886 1.613.625 3.1373 1.2173 4.1708 1.9957zm4.7697-10.3913c.0346.3783.0497.748.0519 1.0983 0 1.4941-.2746 2.9536-.8151 4.3373-.0173.0476-.0563.0822-.1017.0995a.1854.1854 0 0 1-.0583.0108.1612.1612 0 0 1-.0822-.0216c-1.414-.7849-2.9557-1.36-4.4454-1.9157-2.893-1.0789-5.3903-2.0108-5.3903-4.054 0-.7287.3049-1.3514.8822-1.7968.666-.5146 1.6648-.7762 2.9665-.7762 2.441 0 4.4497.841 6.9319 2.9016a.172.172 0 0 1 .0605.1168z" id="icons-default-shopware" /></defs><use xlink:href="#icons-default-shopware" fill="#758CA3" fill-rule="evenodd" /></svg>