<svg xmlns="http://www.w3.org/2000/svg" xmlns:xlink="http://www.w3.org/1999/xlink" width="24" height="24" viewBox="0 0 24 24"><defs><path d="M15 2v2c0 .5523.4477 1 1 1s1-.4477 1-1V2h4c.5523 0 1 .4477 1 1v18c0 .5523-.4477 1-1 1h-4v-2c0-.5523-.4477-1-1-1s-1 .4477-1 1v2H3c-.5523 0-1-.4477-1-1V3c0-.5523.4477-1 1-1h12zm6-2H3C1.3431 0 0 1.3431 0 3v18c0 1.6569 1.3431 3 3 3h18c1.6569 0 3-1.3431 3-3V3c0-1.6569-1.3431-3-3-3zM10.7809 16.3753 7.2806 12l3.5003-4.3753c.345-.4312.275-1.0605-.1562-1.4056-.4313-.345-1.0606-.275-1.4056.1562l-4 5a1 1 0 0 0 0 1.2494l4 5c.345.4313.9743.5012 1.4056.1562.4312-.345.5012-.9743.1562-1.4056zM15 16c0 .5523.4477 1 1 1s1-.4477 1-1v-2c0-.5523-.4477-1-1-1s-1 .4477-1 1v2zm0-6c0 .5523.4477 1 1 1s1-.4477 1-1V8c0-.5523-.4477-1-1-1s-1 .4477-1 1v2z" id="icons-default-sidebar-close" /></defs><use xlink:href="#icons-default-sidebar-close" fill="#758CA3" fill-rule="evenodd" /></svg>