<svg xmlns="http://www.w3.org/2000/svg" xmlns:xlink="http://www.w3.org/1999/xlink" width="24" height="24" viewBox="0 0 24 24"><defs><path d="M21 10.8293V23c0 .5523-.4477 1-1 1s-1-.4477-1-1V10.8293c-1.1652-.4118-2-1.523-2-2.8293 0-1.3113.8414-2.4262 2.0137-2.8341A1.0068 1.0068 0 0 1 19 5V1c0-.5523.4477-1 1-1s1 .4477 1 1v4c0 .0565-.0047.112-.0137.1659C22.1586 5.5739 23 6.6887 23 8c0 1.3062-.8348 2.4175-2 2.8293zm-8 3.3414c1.1652.4118 2 1.523 2 2.8293 0 1.3062-.8348 2.4175-2 2.8293V23c0 .5523-.4477 1-1 1s-1-.4477-1-1v-3.1707C9.8348 19.4175 9 18.3063 9 17c0-1.3062.8348-2.4175 2-2.8293V1c0-.5523.4477-1 1-1s1 .4477 1 1v13.1707zm-8-3.3414V23c0 .5523-.4477 1-1 1s-1-.4477-1-1V10.8293C1.8348 10.4175 1 9.3063 1 8c0-1.3062.8348-2.4175 2-2.8293V1c0-.5523.4477-1 1-1s1 .4477 1 1v4.1707C6.1652 5.5825 7 6.6937 7 8c0 1.3062-.8348 2.4175-2 2.8293zM3 8c0 .5523.4477 1 1 1s1-.4477 1-1-.4477-1-1-1-1 .4477-1 1zm17-1c-.5523 0-1 .4477-1 1s.4477 1 1 1 1-.4477 1-1-.4477-1-1-1zm-8 9c-.5523 0-1 .4477-1 1s.4477 1 1 1 1-.4477 1-1-.4477-1-1-1z" id="icons-default-sliders" /></defs><use xlink:href="#icons-default-sliders" fill="#758CA3" fill-rule="evenodd" /></svg>