<svg xmlns="http://www.w3.org/2000/svg" xmlns:xlink="http://www.w3.org/1999/xlink" width="20" height="20" viewBox="0 0 20 20"><defs><g id="icons-default-sliders-horizontal"><g id="Productlistig" transform="translate(-156 -444)"><g id="Components-Forms-Button-large-secondary-normal" transform="translate(28 432)"><g id="Group" transform="translate(128 12)"><g id="icons-default-sliders-horizontal-down" transform="rotate(90 10 10)"><path d="M3.3333 0a.8333.8333 0 0 1 .8334.8333l.0002 3.4757c.9709.3433 1.6664 1.2693 1.6664 2.3577 0 1.0884-.6955 2.0143-1.6664 2.3576l-.0002 10.1424a.8333.8333 0 0 1-1.6667 0L2.4997 9.0243C1.529 8.681.8333 7.7551.8333 6.6667S1.529 4.6523 2.4997 4.309L2.5.8333A.8333.8333 0 0 1 3.3333 0zM10 0a.8333.8333 0 0 1 .8333.8333l.0013 10.976c.9703.3436 1.6654 1.2693 1.6654 2.3574 0 1.088-.695 2.0137-1.6654 2.3573l-.0013 2.6427a.8333.8333 0 1 1-1.6666 0l-.0003-2.6424C8.1955 16.181 7.5 15.2551 7.5 14.1667s.6955-2.0144 1.6664-2.3577L9.1667.8333A.8333.8333 0 0 1 10 0zm6.6667 0A.8333.8333 0 0 1 17.5.8333v3.3334a.839.839 0 0 1-.0116.1392c.977.3387 1.6783 1.2678 1.6783 2.3608 0 1.0884-.6956 2.0143-1.6664 2.3576L17.5 19.1667a.8333.8333 0 1 1-1.6667 0l-.0002-10.1424c-.9709-.3433-1.6664-1.2692-1.6664-2.3576 0-1.093.7013-2.022 1.6784-2.362a.7927.7927 0 0 1-.0118-.138V.8333A.8333.8333 0 0 1 16.6667 0zM10 13.3333A.8333.8333 0 1 0 10 15a.8333.8333 0 0 0 0-1.6667zm-6.6667-7.5a.8333.8333 0 1 0 0 1.6667.8333.8333 0 0 0 0-1.6667zm13.3334 0a.8333.8333 0 1 0 0 1.6667.8333.8333 0 0 0 0-1.6667z" id="Shape" /></g></g></g></g></g></defs><use xlink:href="#icons-default-sliders-horizontal" fill="#758CA3" fill-rule="evenodd" /></svg>