<svg xmlns="http://www.w3.org/2000/svg" xmlns:xlink="http://www.w3.org/1999/xlink" width="24" height="24" viewBox="0 0 24 24"><defs><path d="M20 10V8c0-2.2091-1.7909-4-4-4H8C5.7909 4 4 5.7909 4 8v2c1.6569 0 3 1.3431 3 3v1h10v-1c0-1.6569 1.3431-3 3-3zm2 .1707c1.1652.4118 2 1.523 2 2.8293v8c0 .5523-.4477 1-1 1h-5c-.5523 0-1-.4477-1-1H7c0 .5523-.4477 1-1 1H1c-.5523 0-1-.4477-1-1v-8c0-1.3062.8348-2.4175 2-2.8293V8c0-3.3137 2.6863-6 6-6h8c3.3137 0 6 2.6863 6 6v2.1707zM17 16H7v3h10v-3zm5 4v-7c0-.5523-.4477-1-1-1h-1c-.5523 0-1 .4477-1 1v7h3zM2 20h3v-7c0-.5523-.4477-1-1-1H3c-.5523 0-1 .4477-1 1v7zM9 8c.5523 0 1 .4477 1 1s-.4477 1-1 1-1-.4477-1-1 .4477-1 1-1zm6 0c.5523 0 1 .4477 1 1s-.4477 1-1 1-1-.4477-1-1 .4477-1 1-1z" id="icons-default-sofa" /></defs><use xlink:href="#icons-default-sofa" fill="#758CA3" fill-rule="evenodd" /></svg>