<svg xmlns="http://www.w3.org/2000/svg" xmlns:xlink="http://www.w3.org/1999/xlink" width="24" height="24" viewBox="0 0 24 24"><defs><path d="M3 21c-.5523 0-1-.4477-1-1s.4477-1 1-1h18c.5523 0 1 .4477 1 1s-.4477 1-1 1H3zm0-4c-.5523 0-1-.4477-1-1s.4477-1 1-1h15c.5523 0 1 .4477 1 1s-.4477 1-1 1H3zm0-4c-.5523 0-1-.4477-1-1s.4477-1 1-1h12c.5523 0 1 .4477 1 1s-.4477 1-1 1H3zm0-4c-.5523 0-1-.4477-1-1s.4477-1 1-1h9c.5523 0 1 .4477 1 1s-.4477 1-1 1H3zm0-4c-.5523 0-1-.4477-1-1s.4477-1 1-1h6c.5523 0 1 .4477 1 1s-.4477 1-1 1H3z" id="icons-default-sort-up" /></defs><use xlink:href="#icons-default-sort-up" fill="#758CA3" fill-rule="evenodd" /></svg>