<svg viewBox="1 0 23 24" fill="none" xmlns="http://www.w3.org/2000/svg"><g clip-path="url(#clip0_2356_3948)"><path fill-rule="evenodd" clip-rule="evenodd" d="M12.7791 0.707511C12.6792 0.454267 12.3208 0.454267 12.2209 0.707511L11.5578 2.38874C11.5273 2.46606 11.4661 2.52726 11.3888 2.55775L9.7076 3.22082C9.45436 3.32069 9.45436 3.6791 9.7076 3.77898L11.3888 4.44204C11.4661 4.47254 11.5273 4.53374 11.5578 4.61105L12.2209 6.29228C12.3208 6.54553 12.6792 6.54553 12.7791 6.29228L13.4421 4.61105C13.4726 4.53374 13.5338 4.47254 13.6111 4.44204L15.2924 3.77898C15.5456 3.6791 15.5456 3.32069 15.2924 3.22082L13.6111 2.55775C13.5338 2.52726 13.4726 2.46606 13.4421 2.38874L12.7791 0.707511ZM5.03486 4.17935C5.20132 3.75727 5.79866 3.75728 5.96512 4.17935L6.97595 6.74234C7.02677 6.8712 7.12878 6.97321 7.25764 7.02403L9.82063 8.03486C10.2427 8.20132 10.2427 8.79866 9.82063 8.96512L7.25764 9.97595C7.12878 10.0268 7.02677 10.1288 6.97595 10.2576L5.96512 12.8206C5.79866 13.2427 5.20132 13.2427 5.03486 12.8206L4.02403 10.2576C3.97321 10.1288 3.8712 10.0268 3.74234 9.97595L1.17935 8.96512C0.757274 8.79866 0.757275 8.20132 1.17935 8.03486L3.74234 7.02403C3.8712 6.97321 3.97321 6.8712 4.02403 6.74234L5.03486 4.17935ZM13.0341 12.7524C12.9833 12.8813 12.8813 12.9833 12.7524 13.0341L7.67935 15.0349C7.25728 15.2013 7.25727 15.7987 7.67935 15.9651L12.7524 17.9659C12.8813 18.0167 12.9833 18.1187 13.0341 18.2476L15.0349 23.3206C15.2013 23.7427 15.7987 23.7427 15.9651 23.3206L17.9659 18.2476C18.0167 18.1187 18.1187 18.0167 18.2476 17.9659L23.3206 15.9651C23.7427 15.7987 23.7427 15.2013 23.3206 15.0349L18.2476 13.0341C18.1187 12.9833 18.0167 12.8813 17.9659 12.7524L15.9651 7.67935C15.7987 7.25728 15.2013 7.25727 15.0349 7.67935L13.0341 12.7524ZM15.5 11.9512L14.8946 13.4862C14.6405 14.1305 14.1305 14.6405 13.4862 14.8946L11.9512 15.5L13.4862 16.1054C14.1305 16.3595 14.6405 16.8695 14.8946 17.5138L15.5 19.0488L16.1054 17.5138C16.3595 16.8695 16.8695 16.3595 17.5138 16.1054L19.0488 15.5L17.5138 14.8946C16.8695 14.6405 16.3595 14.1305 16.1054 13.4862L15.5 11.9512Z" fill="#758CA3"/></g><defs><clipPath id="clip0_2356_3948"><rect width="24" height="24" fill="white"/></clipPath></defs></svg>
