<svg xmlns="http://www.w3.org/2000/svg" xmlns:xlink="http://www.w3.org/1999/xlink" width="24" height="24" viewBox="0 0 24 24"><defs><path d="M8 14H6.3576l-3.0894 2.5333c-.8542.7004-2.1144.5758-2.8147-.2784A2 2 0 0 1 0 14.9868V6c0-2.7614 2.2386-5 5-5h6c2.7614 0 5 2.2386 5 5v1h3c2.7614 0 5 2.2386 5 5v8.9868a2 2 0 0 1-.4535 1.2681c-.7003.8542-1.9605.9788-2.8147.2784L17.6424 20H13c-2.7614 0-5-2.2386-5-5v-1zm0-2c0-2.7614 2.2386-5 5-5h1V6c0-1.6569-1.3431-3-3-3H5C3.3431 3 2 4.3431 2 6v8.9868L5.6424 12H8zm6-3h-1c-1.6569 0-3 1.3431-3 3v3c0 1.6569 1.3431 3 3 3h5.3576L22 20.9868V12c0-1.6569-1.3431-3-3-3h-5z" id="icons-default-speech-bubbles" /></defs><use xlink:href="#icons-default-speech-bubbles" fill="#758CA3" fill-rule="evenodd" /></svg>