<svg xmlns="http://www.w3.org/2000/svg" xmlns:xlink="http://www.w3.org/1999/xlink" width="24" height="24" viewBox="0 0 24 24"><defs><path d="M5 4C3.3431 4 2 5.3431 2 7v12.9868L5.6424 17H19c1.6569 0 3-1.3431 3-3V7c0-1.6569-1.3431-3-3-3H5zm1.3576 15-3.0894 2.5333c-.8542.7004-2.1144.5758-2.8147-.2784A2 2 0 0 1 0 19.9868V7c0-2.7614 2.2386-5 5-5h14c2.7614 0 5 2.2386 5 5v7c0 2.7614-2.2386 5-5 5H6.3576z" id="icons-default-speech-bubble" /></defs><use xlink:href="#icons-default-speech-bubble" fill="#758CA3" fill-rule="evenodd" /></svg>