<svg xmlns="http://www.w3.org/2000/svg" xmlns:xlink="http://www.w3.org/1999/xlink" width="24" height="24" viewBox="0 0 24 24"><defs><path d="m12 18.8398 6.0066 2.647-.6612-6.5307 4.3735-4.8947-6.4153-1.3892L12 3.0002l-3.3037 5.672-6.4153 1.3892 4.3735 4.8947-.6612 6.5306L12 18.8397zm-5.2002 4.4771c-1.0108.4454-2.1912-.0129-2.6367-1.0237a2 2 0 0 1-.1596-1.008l.5724-5.6537L.7896 11.394c-.736-.8237-.6648-2.088.1588-2.824a2 2 0 0 1 .9093-.4633l5.554-1.2027 2.86-4.9104c.556-.9545 1.7804-1.2776 2.7349-.7217a2 2 0 0 1 .7216.7217l2.86 4.9104 5.554 1.2027c1.0796.2338 1.7652 1.2984 1.5314 2.378a2 2 0 0 1-.4633.9093l-3.7863 4.2375.5724 5.6538c.1113 1.0989-.6894 2.08-1.7883 2.1912a2 2 0 0 1-1.008-.1596L12 21.0254l-5.2002 2.2915z" id="icons-default-star" /></defs><use xlink:href="#icons-default-star" fill="#758CA3" fill-rule="evenodd" /></svg>