<svg xmlns="http://www.w3.org/2000/svg" xmlns:xlink="http://www.w3.org/1999/xlink" width="24" height="24" viewBox="0 0 24 24"><defs><path d="M7.4524 6.8952 1.8577 8.1067a2 2 0 0 0-.9093.4633c-.8236.736-.8947 2.0003-.1588 2.824l3.7863 4.2375-.5724 5.6538a2 2 0 0 0 .1596 1.008c.4455 1.0107 1.626 1.469 2.6367 1.0236l5.6034-2.4692c.5054-.2227.7346-.813.5119-1.3184-.2228-.5054-.813-.7345-1.3184-.5118l-5.6034 2.4692.6612-6.5306-4.3735-4.8947L8.6555 8.681l4.1708-6.1177c.311-.4563.1933-1.0785-.263-1.3896-.4563-.311-1.0785-.1933-1.3896.263L7.4524 6.8952z" id="icons-default-star-half" /></defs><use xlink:href="#icons-default-star-half" fill="#758CA3" fill-rule="evenodd" /></svg>