<svg xmlns="http://www.w3.org/2000/svg" xmlns:xlink="http://www.w3.org/1999/xlink" width="24" height="24" viewBox="0 0 24 24"><defs><path d="M12 20c-4.4183 0-8-3.5817-8-8s3.5817-8 8-8 8 3.5817 8 8-3.5817 8-8 8zm0-2c3.3137 0 6-2.6863 6-6s-2.6863-6-6-6-6 2.6863-6 6 2.6863 6 6 6zm0-18c.5523 0 1 .4477 1 1v1c0 .5523-.4477 1-1 1s-1-.4477-1-1V1c0-.5523.4477-1 1-1zm0 21c.5523 0 1 .4477 1 1v1c0 .5523-.4477 1-1 1s-1-.4477-1-1v-1c0-.5523.4477-1 1-1zm10-10h1c.5523 0 1 .4477 1 1s-.4477 1-1 1h-1c-.5523 0-1-.4477-1-1s.4477-1 1-1zM1 11h1c.5523 0 1 .4477 1 1s-.4477 1-1 1H1c-.5523 0-1-.4477-1-1s.4477-1 1-1zm19.4853-7.4853c.3905.3905.3905 1.0237 0 1.4142l-.7071.7071c-.3905.3906-1.0237.3906-1.4142 0-.3906-.3905-.3906-1.0237 0-1.4142l.707-.707c.3906-.3906 1.0238-.3906 1.4143 0zM5.636 18.364c.3906.3905.3906 1.0237 0 1.4142l-.707.707c-.3906.3906-1.0238.3906-1.4143 0-.3905-.3904-.3905-1.0236 0-1.4141l.7071-.7071c.3905-.3906 1.0237-.3906 1.4142 0zm14.1422 0 .707.707c.3906.3906.3906 1.0238 0 1.4143-.3904.3905-1.0236.3905-1.4141 0l-.7071-.7071c-.3906-.3905-.3906-1.0237 0-1.4142.3905-.3906 1.0237-.3906 1.4142 0zM4.9289 3.5147l.7071.7071c.3906.3905.3906 1.0237 0 1.4142-.3905.3906-1.0237.3906-1.4142 0l-.707-.707c-.3906-.3906-.3906-1.0238 0-1.4143.3904-.3905 1.0236-.3905 1.4141 0z" id="icons-default-sun" /></defs><use xlink:href="#icons-default-sun" fill="#758CA3" fill-rule="evenodd" /></svg>