<svg xmlns="http://www.w3.org/2000/svg" xmlns:xlink="http://www.w3.org/1999/xlink" width="24" height="24" viewBox="0 0 24 24"><defs><path d="M3.8284 13 11 20.1716l11-11V2h-7.1716l-11 11zm-2.1213-.7071 12-12A1 1 0 0 1 14.4142 0H22c1.1046 0 2 .8954 2 2v7.5858a1 1 0 0 1-.2929.707l-12 12c-.3905.3906-1.0237.3906-1.4142 0L1.707 13.7072c-.3905-.3905-.3905-1.0237 0-1.4142zM18 8c1.1046 0 2-.8954 2-2s-.8954-2-2-2-2 .8954-2 2 .8954 2 2 2z" id="icons-default-tags" /></defs><use xlink:href="#icons-default-tags" fill="#758CA3" fill-rule="evenodd" /></svg>