<svg xmlns="http://www.w3.org/2000/svg" xmlns:xlink="http://www.w3.org/1999/xlink" width="24" height="24" viewBox="0 0 24 24"><defs><path d="M12 11c.5523 0 1 .4477 1 1s-.4477 1-1 1-1-.4477-1-1 .4477-1 1-1zm-1 9.945C6.8284 20.484 3.516 17.1717 3.055 13H1c-.5523 0-1-.4477-1-1s.4477-1 1-1h2.055C3.516 6.8284 6.8283 3.516 11 3.055V1c0-.5523.4477-1 1-1s1 .4477 1 1v2.055c4.1716.461 7.484 3.7734 7.945 7.945H23c.5523 0 1 .4477 1 1s-.4477 1-1 1h-2.055c-.461 4.1716-3.7734 7.484-7.945 7.945V23c0 .5523-.4477 1-1 1s-1-.4477-1-1v-2.055zM12 19c3.866 0 7-3.134 7-7s-3.134-7-7-7-7 3.134-7 7 3.134 7 7 7z" id="icons-default-target-big" /></defs><use xlink:href="#icons-default-target-big" fill="#758CA3" fill-rule="evenodd" /></svg>