<svg xmlns="http://www.w3.org/2000/svg" xmlns:xlink="http://www.w3.org/1999/xlink" width="24" height="24" viewBox="0 0 24 24"><defs><path d="M16 21.9c-1.9591-.3977-3.5023-1.9409-3.9-3.9H11c-.5523 0-1-.4477-1-1s.4477-1 1-1h1.1c.3977-1.9591 1.9409-3.5023 3.9-3.9V11c0-.5523.4477-1 1-1s1 .4477 1 1v1.1c1.9591.3977 3.5023 1.9409 3.9 3.9H23c.5523 0 1 .4477 1 1s-.4477 1-1 1h-1.1c-.3977 1.9591-1.9409 3.5023-3.9 3.9V23c0 .5523-.4477 1-1 1s-1-.4477-1-1v-1.1zM11.0384 20c.5523 0 1 .4477 1 1s-.4477 1-1 1H3c-1.6569 0-3-1.3431-3-3V3c0-1.6569 1.3431-3 3-3h16c1.6569 0 3 1.3431 3 3v8c0 .5523-.4477 1-1 1s-1-.4477-1-1V3c0-.5523-.4477-1-1-1H3c-.5523 0-1 .4477-1 1v16c0 .5523.4477 1 1 1h8.0384zM17 20c1.6569 0 3-1.3431 3-3s-1.3431-3-3-3-3 1.3431-3 3 1.3431 3 3 3z" id="icons-default-target-with-block" /></defs><use xlink:href="#icons-default-target-with-block" fill="#758CA3" fill-rule="evenodd" /></svg>