<svg xmlns="http://www.w3.org/2000/svg" xmlns:xlink="http://www.w3.org/1999/xlink" width="24" height="24" viewBox="0 0 24 24"><defs><path d="M22 6V3c0-.5523-.4477-1-1-1H3c-.5523 0-1 .4477-1 1v3h20zm0 2H2v13c0 .5523.4477 1 1 1h18c.5523 0 1-.4477 1-1V8zM3 0h18c1.6569 0 3 1.3431 3 3v18c0 1.6569-1.3431 3-3 3H3c-1.6569 0-3-1.3431-3-3V3c0-1.6569 1.3431-3 3-3zm14 3c.5523 0 1 .4477 1 1s-.4477 1-1 1-1-.4477-1-1 .4477-1 1-1zM5 10h3c.5523 0 1 .4477 1 1s-.4477 1-1 1H5c-.5523 0-1-.4477-1-1s.4477-1 1-1zm6 0c.5523 0 1 .4477 1 1s-.4477 1-1 1-1-.4477-1-1 .4477-1 1-1zm9-7c.5523 0 1 .4477 1 1s-.4477 1-1 1-1-.4477-1-1 .4477-1 1-1z" id="icons-default-terminal" /></defs><use xlink:href="#icons-default-terminal" fill="#758CA3" fill-rule="evenodd" /></svg>