<svg xmlns="http://www.w3.org/2000/svg" xmlns:xlink="http://www.w3.org/1999/xlink" width="24" height="24" viewBox="0 0 24 24"><defs><path d="M4 15c.5523 0 1-.4477 1-1s-.4477-1-1-1-1 .4477-1 1 .4477 1 1 1zm4 2h.2457a1 1 0 0 1 .9615.7253l1.1711 4.0989A3 3 0 0 0 13.263 24h1.76c1.6568 0 3-1.3431 3-3a3 3 0 0 0-.1155-.8242L17 17h4c1.6569 0 3-1.3431 3-3V9c0-4.4183-3.5817-8-8-8H8c0-.5523-.4477-1-1-1H1C.4477 0 0 .4477 0 1v16c0 .5523.4477 1 1 1h6c.5523 0 1-.4477 1-1zm-2-1H2V2h4v14zm2-1V3h8c3.3137 0 6 2.6863 6 6v5c0 .5523-.4477 1-1 1h-6.6515l1.6358 5.7253a1 1 0 0 1 .0385.2747c0 .5523-.4477 1-1 1H13.263a1 1 0 0 1-.9615-.7253l-1.1711-4.0989A3 3 0 0 0 8.2457 15H8z" id="icons-default-thumb-down" /></defs><use xlink:href="#icons-default-thumb-down" fill="#758CA3" fill-rule="evenodd" /></svg>