<svg xmlns="http://www.w3.org/2000/svg" xmlns:xlink="http://www.w3.org/1999/xlink" width="24" height="24" viewBox="0 0 24 24"><defs><path d="M4 9c.5523 0 1 .4477 1 1s-.4477 1-1 1-1-.4477-1-1 .4477-1 1-1zm4-2h.2457a1 1 0 0 0 .9615-.7253l1.1711-4.0989A3 3 0 0 1 13.263 0h1.76c1.6568 0 3 1.3431 3 3a3 3 0 0 1-.1155.8242L17 7h4c1.6569 0 3 1.3431 3 3v5c0 4.4183-3.5817 8-8 8H8c0 .5523-.4477 1-1 1H1c-.5523 0-1-.4477-1-1V7c0-.5523.4477-1 1-1h6c.5523 0 1 .4477 1 1zM6 8H2v14h4V8zm2 1v12h8c3.3137 0 6-2.6863 6-6v-5c0-.5523-.4477-1-1-1h-6.6515l1.6358-5.7253A1 1 0 0 0 16.0228 3c0-.5523-.4477-1-1-1H13.263a1 1 0 0 0-.9615.7253l-1.1711 4.0989A3 3 0 0 1 8.2457 9H8z" id="icons-default-thumb-up" /></defs><use xlink:href="#icons-default-thumb-up" fill="#758CA3" fill-rule="evenodd" /></svg>