<svg xmlns="http://www.w3.org/2000/svg" xmlns:xlink="http://www.w3.org/1999/xlink" width="24" height="24" viewBox="0 0 24 24"><defs><path d="M7 7.6499V16.35l2.4061 1.0694a1 1 0 0 1 .5939.9138V21c0 .5523-.4477 1-1 1s-1-.4477-1-1v-2.0168l-2-.8889-2 .889V21c0 .5523-.4477 1-1 1s-1-.4477-1-1v-2.6667a1 1 0 0 1 .5939-.9138L5 16.3501V7.65L2.5939 6.5805A1 1 0 0 1 2 5.6667V3c0-.5523.4477-1 1-1s1 .4477 1 1v2.0168l2 .8889 2-.889V3c0-.5523.4477-1 1-1s1 .4477 1 1v2.6667a1 1 0 0 1-.5939.9138L7 7.6499zM18 9v12c0 .5523-.4477 1-1 1s-1-.4477-1-1V9h-2.523c-1.1045 0-2-.8954-2-2a2 2 0 0 1 .143-.7428l1.2-3A2 2 0 0 1 14.677 2H20c1.1046 0 2 .8954 2 2v3c0 1.1046-.8954 2-2 2h-2zm-4.523-2H20V4h-5.323l-1.2 3z" id="icons-default-tools" /></defs><use xlink:href="#icons-default-tools" fill="#758CA3" fill-rule="evenodd" /></svg>