<svg xmlns="http://www.w3.org/2000/svg" xmlns:xlink="http://www.w3.org/1999/xlink" width="24" height="24" viewBox="0 0 24 24"><defs><path d="m6.4692 12 2.182-8.7276C8.985 1.9369 10.1848 1 11.5615 1h.8768c1.3767 0 2.5766.9369 2.9105 2.2724L17.5308 12h2.667a2 2 0 0 1 1.9524 1.5661l1.5556 7a2 2 0 0 1 .0476.4339c0 1.1046-.8954 2-2 2H2.2466a2 2 0 0 1-.4338-.0476C.7345 22.7128.0546 21.6444.2942 20.566l1.5556-7A2 2 0 0 1 3.8022 12h2.667zm9.5 2-1-4H9.0308l-1 4h7.9384zm-10 0h-2.167l-1.5556 7h19.5068l-1.5556-7h-2.167l.9393 3.7575c.134.5358-.1918 1.0787-.7276 1.2126-.5358.134-1.0787-.1918-1.2126-.7276L16.4692 16H7.5308L6.97 18.2425c-.134.5358-.6768.8616-1.2126.7276-.5358-.134-.8616-.6768-.7276-1.2126L5.9692 14zm3.5616-6h4.9384l-1.0606-4.2425A1 1 0 0 0 12.4384 3h-.8768a1 1 0 0 0-.9702.7575L9.5308 8z" id="icons-default-traffic-pawn" /></defs><use xlink:href="#icons-default-traffic-pawn" fill="#758CA3" fill-rule="evenodd" /></svg>