<svg xmlns="http://www.w3.org/2000/svg" xmlns:xlink="http://www.w3.org/1999/xlink" width="24" height="24" viewBox="0 0 24 24"><defs><path d="M5 21c0 .5523.4477 1 1 1h12c.5523 0 1-.4477 1-1V9H5v12zM17 3h2c1.6569 0 3 1.3431 3 3v2c0 .5523-.4477 1-1 1v12c0 1.6569-1.3431 3-3 3H6c-1.6569 0-3-1.3431-3-3V9c-.5523 0-1-.4477-1-1V6c0-1.6569 1.3431-3 3-3h2c0-1.6569 1.3431-3 3-3h4c1.6569 0 3 1.3431 3 3zM7 13v5c0 .5523.4477 1 1 1s1-.4477 1-1v-5c0-.5523-.4477-1-1-1s-1 .4477-1 1zm4 0v5c0 .5523.4477 1 1 1s1-.4477 1-1v-5c0-.5523-.4477-1-1-1s-1 .4477-1 1zm4 0v5c0 .5523.4477 1 1 1s1-.4477 1-1v-5c0-.5523-.4477-1-1-1s-1 .4477-1 1zM10 2c-.5523 0-1 .4477-1 1h6c0-.5523-.4477-1-1-1h-4zM4 7h16V6c0-.5523-.4477-1-1-1H5c-.5523 0-1 .4477-1 1v1z" id="icons-default-trash" /></defs><use xlink:href="#icons-default-trash" fill="#758CA3" fill-rule="evenodd" /></svg>