<svg xmlns="http://www.w3.org/2000/svg" xmlns:xlink="http://www.w3.org/1999/xlink" width="24" height="24" viewBox="0 0 24 24"><defs><path d="M19.9912 11.8667c.0058.0436.0088.0881.0088.1333v6c0 .5523-.4477 1-1 1s-1-.4477-1-1v-1.401C16.6303 18.0759 14.673 19 12.5 19 8.3579 19 5 15.6421 5 11.5V3c-.5523 0-1-.4477-1-1s.4477-1 1-1h2c.5523 0 1 .4477 1 1s-.4477 1-1 1v8.5c0 3.0376 2.4624 5.5 5.5 5.5s5.5-2.4624 5.5-5.5V3c-.5523 0-1-.4477-1-1s.4477-1 1-1h2c.5523 0 1 .4477 1 1s-.4477 1-1 1v8.5c0 .123-.003.2452-.0088.3667zM5 23c-.5523 0-1-.4477-1-1s.4477-1 1-1h15c.5523 0 1 .4477 1 1s-.4477 1-1 1H5z" id="icons-default-underline" /></defs><use xlink:href="#icons-default-underline" fill="#758CA3" fill-rule="evenodd" /></svg>