<svg xmlns="http://www.w3.org/2000/svg" xmlns:xlink="http://www.w3.org/1999/xlink" width="24" height="24" viewBox="0 0 24 24"><defs><path d="M7.972 20.6224c-.3453-.431-.2758-1.0604.1553-1.4057.431-.3452 1.0604-.2756 1.4057.1554C10.8544 21.0221 12.8458 22 15 22c3.866 0 7-3.134 7-7 0-2.1542-.978-4.1456-2.6279-5.467-.431-.3453-.5006-.9746-.1554-1.4057.3453-.431.9746-.5006 1.4057-.1554C22.7413 9.669 24 12.2321 24 15c0 4.9706-4.0294 9-9 9-2.768 0-5.331-1.2587-7.028-3.3776zM9 18c-4.9706 0-9-4.0294-9-9s4.0294-9 9-9 9 4.0294 9 9-4.0294 9-9 9zm0-2c3.866 0 7-3.134 7-7s-3.134-7-7-7-7 3.134-7 7 3.134 7 7 7zm-.8982-2.1973c-.0937.5443-.6109.9095-1.1551.8158-.5443-.0937-.9096-.6109-.8159-1.1551.644-3.7401 3.5925-6.6886 7.3326-7.3326.5442-.0937 1.0614.2716 1.1551.8159.0937.5442-.2715 1.0614-.8158 1.1551-2.9056.5003-5.2006 2.7953-5.7009 5.701z" id="icons-default-variants" /></defs><use xlink:href="#icons-default-variants" fill="#758CA3" fill-rule="evenodd" /></svg>