<svg xmlns="http://www.w3.org/2000/svg" xmlns:xlink="http://www.w3.org/1999/xlink" width="24" height="24" viewBox="0 0 24 24"><defs><path d="M5 8c.5523 0 1 .4477 1 1s-.4477 1-1 1-1-.4477-1-1 .4477-1 1-1zm13-.3874 4.6838-1.5613C23.3313 5.8355 24 6.3174 24 7v10c0 .6826-.6687 1.1645-1.3162.9487L18 16.3874V17c0 1.6569-1.3431 3-3 3H3c-1.6569 0-3-1.3431-3-3V7c0-1.6569 1.3431-3 3-3h12c1.6569 0 3 1.3431 3 3v.6126zm0 2.1082v4.5584l4 1.3334V8.3874l-4 1.3334zm-2-.7441V7c0-.5523-.4477-1-1-1H3c-.5523 0-1 .4477-1 1v10c0 .5523.4477 1 1 1h12c.5523 0 1-.4477 1-1v-1.9767a.9921.9921 0 0 1 0-.0464V9.0231a.9921.9921 0 0 1 0-.0464z" id="icons-default-video-camera" /></defs><use xlink:href="#icons-default-video-camera" fill="#758CA3" fill-rule="evenodd" /></svg>