<svg xmlns="http://www.w3.org/2000/svg" xmlns:xlink="http://www.w3.org/1999/xlink" width="24" height="24" viewBox="0 0 24 24"><defs><path d="M14 2v20h8V2h-8zm0-2h8c1.1046 0 2 .8954 2 2v20c0 1.1046-.8954 2-2 2h-8c-1.1046 0-2-.8954-2-2V2c0-1.1046.8954-2 2-2zM9 1c.5523 0 1 .4477 1 1s-.4477 1-1 1H1c-.5523 0-1-.4477-1-1s.4477-1 1-1h8zm0 4c.5523 0 1 .4477 1 1s-.4477 1-1 1H1c-.5523 0-1-.4477-1-1s.4477-1 1-1h8zm0 4c.5523 0 1 .4477 1 1s-.4477 1-1 1H1c-.5523 0-1-.4477-1-1s.4477-1 1-1h8zm0 4c.5523 0 1 .4477 1 1s-.4477 1-1 1H1c-.5523 0-1-.4477-1-1s.4477-1 1-1h8zm0 4c.5523 0 1 .4477 1 1s-.4477 1-1 1H1c-.5523 0-1-.4477-1-1s.4477-1 1-1h8zm0 4c.5523 0 1 .4477 1 1s-.4477 1-1 1H1c-.5523 0-1-.4477-1-1s.4477-1 1-1h8z" id="icons-default-view-split" /></defs><use xlink:href="#icons-default-view-split" fill="#758CA3" fill-rule="evenodd" /></svg>