<svg xmlns="http://www.w3.org/2000/svg" xmlns:xlink="http://www.w3.org/1999/xlink" width="24" height="24" viewBox="0 0 24 24"><defs><path d="M2 2v7h7V2H2zm0-2h7c1.1046 0 2 .8954 2 2v7c0 1.1046-.8954 2-2 2H2c-1.1046 0-2-.8954-2-2V2C0 .8954.8954 0 2 0zm13 0h7c1.1046 0 2 .8954 2 2v7c0 1.1046-.8954 2-2 2h-7c-1.1046 0-2-.8954-2-2V2c0-1.1046.8954-2 2-2zm0 2v7h7V2h-7zM2 13h7c1.1046 0 2 .8954 2 2v7c0 1.1046-.8954 2-2 2H2c-1.1046 0-2-.8954-2-2v-7c0-1.1046.8954-2 2-2zm0 2v7h7v-7H2zm13-2h7c1.1046 0 2 .8954 2 2v7c0 1.1046-.8954 2-2 2h-7c-1.1046 0-2-.8954-2-2v-7c0-1.1046.8954-2 2-2zm0 9h7v-7h-7v7z" id="icons-default-view-grid" /></defs><use xlink:href="#icons-default-view-grid" fill="#758CA3" fill-rule="evenodd" /></svg>