<svg xmlns="http://www.w3.org/2000/svg" xmlns:xlink="http://www.w3.org/1999/xlink" width="24" height="24" viewBox="0 0 24 24"><defs><path d="m13.7744 1.4124 9.7058 18.6649c.5096.98.1283 2.1875-.8517 2.6971a2 2 0 0 1-.9227.2256H2.2942c-1.1045 0-2-.8954-2-2a2 2 0 0 1 .2256-.9227l9.7058-18.665c.5096-.98 1.7171-1.3613 2.6971-.8517a2 2 0 0 1 .8517.8518zM2.2942 21h19.4116L12 2.335 2.2942 21zM12 17c.5523 0 1 .4477 1 1s-.4477 1-1 1-1-.4477-1-1 .4477-1 1-1zm1-2c0 .5523-.4477 1-1 1s-1-.4477-1-1v-5c0-.5523.4477-1 1-1s1 .4477 1 1v5z" id="icons-default-warning" /></defs><use xlink:href="#icons-default-warning" fill="#758CA3" fill-rule="evenodd" /></svg>