<svg xmlns="http://www.w3.org/2000/svg" xmlns:xlink="http://www.w3.org/1999/xlink" width="24" height="24" viewBox="0 0 24 24"><defs><path d="m10.5858 12-3.293-3.2929c-.3904-.3905-.3904-1.0237 0-1.4142.3906-.3905 1.0238-.3905 1.4143 0L12 10.5858l3.2929-3.293c.3905-.3904 1.0237-.3904 1.4142 0 .3905.3906.3905 1.0238 0 1.4143L13.4142 12l3.293 3.2929c.3904.3905.3904 1.0237 0 1.4142-.3906.3905-1.0238.3905-1.4143 0L12 13.4142l-3.2929 3.293c-.3905.3904-1.0237.3904-1.4142 0-.3905-.3906-.3905-1.0238 0-1.4143L10.5858 12zM12 2C6.4772 2 2 6.4772 2 12s4.4772 10 10 10 10-4.4772 10-10S17.5228 2 12 2zm12 10c0 6.6274-5.3726 12-12 12S0 18.6274 0 12 5.3726 0 12 0s12 5.3726 12 12z" id="icons-default-x-circle" /></defs><use xlink:href="#icons-default-x-circle" fill="#758CA3" fill-rule="evenodd" /></svg>