<svg xmlns="http://www.w3.org/2000/svg" xmlns:xlink="http://www.w3.org/1999/xlink" width="24" height="24" viewBox="0 0 24 24"><defs><path d="M6.5858 12 2 7.4142c-.781-.781-.781-2.0474 0-2.8284L4.5858 2c.781-.781 2.0474-.781 2.8284 0L12 6.5858 16.5858 2c.781-.781 2.0474-.781 2.8284 0L22 4.5858c.781.781.781 2.0474 0 2.8284L17.4142 12 22 16.5858c.781.781.781 2.0474 0 2.8284L19.4142 22c-.781.781-2.0474.781-2.8284 0L12 17.4142 7.4142 22c-.781.781-2.0474.781-2.8284 0L2 19.4142c-.781-.781-.781-2.0474 0-2.8284L6.5858 12zm-3.1716 6L6 20.5858l6-6 6 6L20.5858 18l-6-6 6-6L18 3.4142l-6 6-6-6L3.4142 6l6 6-6 6z" id="icons-default-x-wide" /></defs><use xlink:href="#icons-default-x-wide" fill="#758CA3" fill-rule="evenodd" /></svg>