<?xml version="1.0" encoding="UTF-8"?>
<svg width="182px" height="126px" viewBox="0 0 182 126" version="1.1" xmlns="http://www.w3.org/2000/svg" xmlns:xlink="http://www.w3.org/1999/xlink">
    <title>Group 4</title>
    <g id="App-store" stroke="none" stroke-width="1" fill="none" fill-rule="evenodd">
        <g id="App-store-/-detail-/-Permissions" transform="translate(-909.000000, -274.000000)">
            <g id="Group-5" transform="translate(770.000000, 174.000000)">
                <g id="Group-4" transform="translate(139.000000, 100.000000)">
                    <path d="M141.008073,4.20817091 C151.74338,10.6178999 157.440337,25.5296527 162.182313,40.6406718 C166.891359,55.7516908 168.249477,56.1985373 167.056807,70.2684678 C165.864136,84.3383984 164.320765,108.742417 152.664419,116.926409 C141.008073,125.110401 116.870097,122.10733 102.380726,116.926409 C87.8584244,111.712278 77.0901871,109.088606 63.720449,104.671539 C50.3507109,100.221261 34.4124025,94.0440093 25.4224063,81.8555611 C16.465349,69.6671127 14.4895171,51.5006789 22.4916017,39.6775518 C30.4936863,27.8876359 48.5066092,22.4078158 62.8642589,17.160473 C77.2219086,11.9131301 87.9242851,6.83184235 101.162302,3.31147308 C114.433249,-0.242107223 130.239835,-2.23476908 141.008073,4.20817091 Z" id="Mask" fill="#F4F7F9" fill-rule="nonzero" transform="translate(92.465349, 61.000000) scale(-1, 1) translate(-92.465349, -61.000000) "></path>
                    <g id="Group-9" transform="translate(37.500000, 5.761484)">
                        <path d="M100.364592,9.92979874 L100.364592,64.1898922 C100.364592,77.2630639 94.0047734,89.5140538 83.3265257,97.0113543 L53.29571,118.094789 C51.5766767,119.301617 49.2884592,119.301617 47.5688218,118.094789 L17.5383082,97.0113543 C6.85975831,89.5140538 0.499939577,77.2630639 0.499939577,64.1898922 L0.499939577,9.92979874 C32.553716,-2.92941338 68.3111178,-2.92941338 100.364592,9.92979874" id="Fill-1" fill="#94B0D5"></path>
                        <path d="M50.5,1 C33.5239394,1.01045469 16.5490909,4.20540809 0.5,10.586055 L0.5,64.5212056 C0.5,77.5163858 6.87909091,89.6940092 17.59,97.1461125 L47.7115152,118.103286 C48.549697,118.686359 49.5230303,118.983571 50.5,119 L50.5,1 Z" id="Fill-4" fill="#849EBF"></path>
                        <path d="M0.499939577,9.92979874 L0.499939577,64.1898922 C0.499939577,77.2630639 6.85975831,89.5140538 17.5386103,97.0113543 L47.5688218,118.094789 C49.2884592,119.301617 51.5766767,119.301617 53.29571,118.094789 L83.3265257,97.0113543 C94.0047734,89.5140538 100.364894,77.2630639 100.364894,64.1898922 L100.364894,9.92979874 C68.3111178,-2.92941338 32.553716,-2.92941338 0.499939577,9.92979874 L0.499939577,9.92979874 Z M96.4322659,64.0339373 C96.4322659,75.8940564 90.6364928,87.033903 80.9279295,93.8329617 L51.8551784,114.193283 C51.4351779,114.487254 50.94352,114.6428 50.4325583,114.6428 C49.9213042,114.6428 49.4293538,114.486963 49.0093533,114.193283 L19.9366022,93.8329617 C10.2283314,87.033903 4.43226586,75.8940564 4.43226586,64.0339373 L4.43226586,13.212069 C19.1580219,7.52534087 34.6263832,4.6428 50.4325583,4.6428 C66.2387335,4.6428 81.7065099,7.52534087 96.4322659,13.212069 L96.4322659,64.0339373 Z" id="Path-2" fill="#768CAA"></path>
                    </g>
                    <g id="Group-3" transform="translate(0.000000, 75.761484)">
                        <rect id="Rectangle" fill="#94B0D5" x="19" y="20" width="15" height="15" rx="3"></rect>
                        <rect id="Rectangle" fill="#849EBF" x="11" y="0" width="11" height="11" rx="3"></rect>
                        <rect id="Rectangle" fill="#E8EDF7" x="0" y="17" width="11" height="11" rx="3"></rect>
                    </g>
                    <g id="Group-2" transform="translate(152.000000, 27.761484)">
                        <rect id="Rectangle" fill="#94B0D5" x="15" y="23" width="15" height="15" rx="3"></rect>
                        <rect id="Rectangle" fill="#849EBF" x="0" y="4" width="11" height="11" rx="3"></rect>
                        <rect id="Rectangle" fill="#E8EDF7" x="19" y="0" width="11" height="11" rx="3"></rect>
                    </g>
                </g>
            </g>
        </g>
    </g>
</svg>