<svg xmlns="http://www.w3.org/2000/svg" width="24" height="24" viewBox="0 0 24 24">
  <path fill="#758CA3" fill-rule="evenodd" d="M16,4 L20,4 C21.6568542,4 23,5.34314575 23,7 L23,21 C23,22.6568542 21.6568542,24 20,24 L11,24 C9.34314575,24 8,22.6568542 8,21 L8,20 L4,20 C2.34314575,20 1,18.6568542 1,17 L1,6 C1,2.6862915 3.6862915,5.32907052e-16 7,0 L13,0 C14.6568542,-3.33066907e-16 16,1.34314575 16,3 L16,4 Z M16,6 L16,17 C16,18.6568542 14.6568542,20 13,20 L10,20 L10,21 C10,21.5522847 10.4477153,22 11,22 L20,22 C20.5522847,22 21,21.5522847 21,21 L21,7 C21,6.44771525 20.5522847,6 20,6 L16,6 Z M3,7 L3,17 C3,17.5522847 3.44771525,18 4,18 L13,18 C13.5522847,18 14,17.5522847 14,17 L14,3 C14,2.44771525 13.5522847,2 13,2 L8,2 L8,6 C8,6.55228475 7.55228475,7 7,7 L3,7 Z M3.12601749,5 L6,5 L6,2.12601749 C4.59439271,2.4877958 3.4877958,3.59439271 3.12601749,5 L3.12601749,5 Z"/>
</svg>
