<svg xmlns="http://www.w3.org/2000/svg" width="24" height="24" viewBox="0 0 24 24">
  <path fill="#758CA3" fill-rule="evenodd" d="M2,13 C2,14.6568542 3.34314575,16 5,16 C6.65685425,16 8,14.6568542 8,13 C8,11.3431458 6.65685425,10 5,10 C3.34314575,10 2,11.3431458 2,13 Z M9.82413819,11.680815 C9.93879379,12.1010766 10,12.5433906 10,13 C10,13.4391145 9.94339414,13.865008 9.83708138,14.2707816 L14.7443531,16.373898 C15.6253792,14.9492108 17.2018396,14 19,14 C21.7614237,14 24,16.2385763 24,19 C24,21.7614237 21.7614237,24 19,24 C16.2385763,24 14,21.7614237 14,19 C14,18.7466518 14.0188426,18.4977045 14.0552029,18.2544831 L8.94963482,16.0663825 C8.03482734,17.242996 6.60581755,18 5,18 C2.23857625,18 3.38176876e-16,15.7614237 0,13 C-3.38176876e-16,10.2385763 2.23857625,8 5,8 C6.58797815,8 8.00305511,8.74027797 8.91895647,9.89455948 L14.3339111,6.80029968 C14.1182468,6.24170402 14,5.63466102 14,5 C14,2.23857625 16.2385763,1.39544273e-15 19,0 C21.7614237,-5.07264315e-16 24,2.23857625 24,5 C24,7.76142375 21.7614237,10 19,10 C17.5941641,10 16.3238403,9.41980358 15.4154167,8.48579873 L9.82413819,11.680815 Z M19,2 C17.3431458,2 16,3.34314575 16,5 C16,6.65685425 17.3431458,8 19,8 C20.6568542,8 22,6.65685425 22,5 C22,3.34314575 20.6568542,2 19,2 Z M19,16 C17.3431458,16 16,17.3431458 16,19 C16,20.6568542 17.3431458,22 19,22 C20.6568542,22 22,20.6568542 22,19 C22,17.3431458 20.6568542,16 19,16 Z"/>
</svg>
