<svg xmlns="http://www.w3.org/2000/svg" width="24" height="24" viewBox="0 0 24 24">
  <path fill="#758CA3" fill-rule="evenodd" d="M3,7 L3,21 C3,21.5522847 3.44771525,22 4,22 L16,22 C16.5522847,22 17,21.5522847 17,21 L17,20 C17,19.4477153 17.4477153,19 18,19 C18.5522847,19 19,19.4477153 19,20 L19,21 C19,22.6568542 17.6568542,24 16,24 L4,24 C2.34314575,24 1,22.6568542 1,21 L1,6 C1,2.6862915 3.6862915,5.32907052e-16 7,0 L16,0 C17.6568542,-3.33066907e-16 19,1.34314575 19,3 L19,4 C19,4.55228475 18.5522847,5 18,5 C17.4477153,5 17,4.55228475 17,4 L17,3 C17,2.44771525 16.5522847,2 16,2 L8,2 L8,6 C8,6.55228475 7.55228475,7 7,7 L3,7 Z M3.12601749,5 L6,5 L6,2.12601749 C4.59439271,2.4877958 3.4877958,3.59439271 3.12601749,5 Z M20.5857864,13 L9,13 C8.44771525,13 8,12.5522847 8,12 C8,11.4477153 8.44771525,11 9,11 L20.5857864,11 L18.2928932,8.70710678 C17.9023689,8.31658249 17.9023689,7.68341751 18.2928932,7.29289322 C18.6834175,6.90236893 19.3165825,6.90236893 19.7071068,7.29289322 L23.7071068,11.2928932 C24.0976311,11.6834175 24.0976311,12.3165825 23.7071068,12.7071068 L19.7071068,16.7071068 C19.3165825,17.0976311 18.6834175,17.0976311 18.2928932,16.7071068 C17.9023689,16.3165825 17.9023689,15.6834175 18.2928932,15.2928932 L20.5857864,13 Z"/>
</svg>
