<svg xmlns="http://www.w3.org/2000/svg" width="24" height="24" viewBox="0 0 24 24">
  <path fill="#758CA3" fill-rule="evenodd" d="M17.5857864,6 L12.5,6 C8.35786438,6 5,9.35786438 5,13.5 C5,17.6421356 8.35786438,21 12.5,21 C16.6421356,21 20,17.6421356 20,13.5 C20,12.9477153 20.4477153,12.5 21,12.5 C21.5522847,12.5 22,12.9477153 22,13.5 C22,18.7467051 17.7467051,23 12.5,23 C7.25329488,23 3,18.7467051 3,13.5 C3,8.25329488 7.25329488,4 12.5,4 L17.5857864,4 L15.2928932,1.70710678 C14.9023689,1.31658249 14.9023689,0.683417511 15.2928932,0.292893219 C15.6834175,-0.0976310729 16.3165825,-0.0976310729 16.7071068,0.292893219 L20.7071068,4.29289322 C21.0976311,4.68341751 21.0976311,5.31658249 20.7071068,5.70710678 L16.7071068,9.70710678 C16.3165825,10.0976311 15.6834175,10.0976311 15.2928932,9.70710678 C14.9023689,9.31658249 14.9023689,8.68341751 15.2928932,8.29289322 L17.5857864,6 Z"/>
</svg>
