<svg xmlns="http://www.w3.org/2000/svg" width="24" height="24" viewBox="0 0 24 24">
  <path fill="#758CA3" fill-rule="evenodd" d="M20.9883049,14 C20.7273284,19.5668168 16.1313769,24 10.5,24 C4.70101013,24 0,19.2989899 0,13.5 C0,7.86862308 4.4331832,3.27267158 10,3.0116951 L10,2 C10,1.44771525 10.4477153,1 11,1 C17.627417,1 23,6.372583 23,13 C23,13.5522847 22.5522847,14 22,14 L20.9883049,14 Z M10,5.01446179 C5.53831026,5.27327069 2,8.97342702 2,13.5 C2,18.1944204 5.80557963,22 10.5,22 C15.026573,22 18.7267293,18.4616897 18.9855382,14 L11,14 C10.4477153,14 10,13.5522847 10,13 L10,5.01446179 Z M12,3.04937524 L12,12 L20.9506248,12 C20.4815561,7.27558355 16.7244165,3.51844387 12,3.04937524 Z"/>
</svg>
