<svg xmlns="http://www.w3.org/2000/svg" width="24" height="24" viewBox="0 0 24 24">
  <path fill="#758CA3" fill-rule="evenodd" d="M0.00376172141,7.91025382 C-0.0333065086,7.49886493 0.188869677,7.09074451 0.586197056,6.91014116 L11.1723941,2.09823341 C11.6982441,1.85921068 12.3017559,1.85921068 12.8276059,2.09823341 L23.4138029,6.91014116 C23.8111303,7.09074451 24.0333065,7.49886493 23.9962383,7.91025382 C24.0333065,8.32164271 23.8111303,8.72976312 23.4138029,8.91036648 L12.8276059,13.7222742 C12.3017559,13.961297 11.6982441,13.961297 11.1723941,13.7222742 L0.586197056,8.91036648 C0.188869677,8.72976312 -0.0333065086,8.32164271 0.00376172141,7.91025382 Z M3.21916759,7.91025382 L12,11.9015413 L20.7808324,7.91025382 L12,3.91896636 L3.21916759,7.91025382 Z M0.586197056,12.9103665 C0.0834155334,12.6818294 -0.138903533,12.0889786 0.0896335225,11.5861971 C0.318170578,11.0834155 0.911021422,10.8610965 1.41380294,11.0896335 L12,15.9015413 L22.5861971,11.0896335 C23.0889786,10.8610965 23.6818294,11.0834155 23.9103665,11.5861971 C24.1389035,12.0889786 23.9165845,12.6818294 23.4138029,12.9103665 L12.8276059,17.7222742 C12.3017559,17.961297 11.6982441,17.961297 11.1723941,17.7222742 L0.586197056,12.9103665 Z M0.586197056,16.9103665 C0.0834155334,16.6818294 -0.138903533,16.0889786 0.0896335225,15.5861971 C0.318170578,15.0834155 0.911021422,14.8610965 1.41380294,15.0896335 L12,19.9015413 L22.5861971,15.0896335 C23.0889786,14.8610965 23.6818294,15.0834155 23.9103665,15.5861971 C24.1389035,16.0889786 23.9165845,16.6818294 23.4138029,16.9103665 L12.8276059,21.7222742 C12.3017559,21.961297 11.6982441,21.961297 11.1723941,21.7222742 L0.586197056,16.9103665 Z"/>
</svg>
