<svg xmlns="http://www.w3.org/2000/svg" width="24" height="24" viewBox="0 0 24 24">
  <path fill="#758CA3" fill-rule="evenodd" d="M8,9 L17,9 C18.6568542,9 20,10.3431458 20,12 L20,21 C20,22.6568542 18.6568542,24 17,24 L7,24 C5.34314575,24 4,22.6568542 4,21 L4,12 C4,10.6937812 4.83480763,9.58254212 6,9.17070571 L6,4 C6,1.790861 7.790861,2.96059473e-16 10,0 L14.0553851,0 C16.2645241,8.8817842e-16 18.0553851,1.790861 18.0553851,4 L18.0553851,5.00017042 C18.0553851,5.55245517 17.6076699,6.00017042 17.0553851,6.00017042 C16.5031004,6.00017042 16.0553851,5.55245517 16.0553851,5.00017042 L16.0553851,4 C16.0553851,2.8954305 15.1599546,2 14.0553851,2 L10,2 C8.8954305,2 8,2.8954305 8,4 L8,9 Z M7,11 C6.44771525,11 6,11.4477153 6,12 L6,21 C6,21.5522847 6.44771525,22 7,22 L17,22 C17.5522847,22 18,21.5522847 18,21 L18,12 C18,11.4477153 17.5522847,11 17,11 L7,11 Z M11,15 C11,14.4477153 11.4477153,14 12,14 C12.5522847,14 13,14.4477153 13,15 L13,18 C13,18.5522847 12.5522847,19 12,19 C11.4477153,19 11,18.5522847 11,18 L11,15 Z"/>
</svg>
