<svg xmlns="http://www.w3.org/2000/svg" width="24" height="24" viewBox="0 0 24 24">
  <path fill="#758CA3" fill-rule="evenodd" d="M3,10 C2.44771525,10 2,10.4477153 2,11 L2,13 C2,13.5522847 2.44771525,14 3,14 L21,14 C21.5522847,14 22,13.5522847 22,13 L22,11 C22,10.4477153 21.5522847,10 21,10 L3,10 Z M3,8 L21,8 C22.6568542,8 24,9.34314575 24,11 L24,13 C24,14.6568542 22.6568542,16 21,16 L3,16 C1.34314575,16 9.3869722e-16,14.6568542 0,13 L0,11 C-2.02906125e-16,9.34314575 1.34314575,8 3,8 Z"/>
</svg>
