<svg xmlns="http://www.w3.org/2000/svg" width="24" height="24" viewBox="0 0 24 24">
  <path fill="#758CA3" fill-rule="evenodd" d="M2.00271973,7.8302541 C2.00460206,10.1389231 2.00781137,13.6901703 2.01665843,19.002082 C2.01780661,19.5535527 2.46518442,20 3.01665626,20 L19.020816,20 C19.5731007,20 20.020816,19.5522847 20.020816,19 L20.020816,17 L19,17 C17.8954305,17 17,16.1045695 17,15 L17,13 C17,11.8954305 17.8954305,11 19,11 L20.020816,11 L20.020816,9 C20.020816,8.44771525 19.5731007,8 19.020816,8 L6,8 L3,8 C2.65038066,8 2.31472977,7.94019391 2.00271973,7.8302541 Z M2.00000141,5.00170003 C2.00091905,5.55320322 2.44828204,6 3,6 L6,6 L17.0124529,6 L17.0249844,5 C17.0249844,4.44771525 16.5772691,4 16.0249844,4 L3,4 C2.44771525,4 2,4.44771525 2,5 C2.00000095,5.00056978 2.0000019,5.00113984 2.00000285,5.00171017 Z M22.020816,16.9998939 L22.020816,19 C22.020816,20.6568542 20.6776702,22 19.020816,22 L3.01665626,22 C1.36224074,22 0.0201073053,20.660658 0.016661985,19.0058297 C0.00948531272,14.6970076 0.00905351995,14.4377624 0.00499358938,12 L-6.66133815e-16,12 L-6.66133815e-16,5 C-8.32667268e-16,3.34314575 1.34314575,2 3,2 L16.0249844,2 C17.6818386,2 19.0249844,3.34314575 19.0249064,5.01249122 L19.0125702,6 L19.020816,6 C20.6776702,6 22.020816,7.34314575 22.020816,9 L22.020816,11.0001061 C23.1157974,11.0112716 24,11.9023775 24,13 L24,15 C24,16.0976225 23.1157974,16.9887284 22.020816,16.9998939 Z M19,13 L19,15 L22,15 L22,13 L19,13 Z"/>
</svg>
