<svg xmlns="http://www.w3.org/2000/svg" width="24" height="24" viewBox="0 0 24 24">
  <path fill="#758CA3" fill-rule="evenodd" d="M3,21 L2,21 C1.44771525,21 1,20.5522847 1,20 C1,19.4477153 1.44771525,19 2,19 L3,19 L3,17 L2,17 C1.44771525,17 1,16.5522847 1,16 C1,15.4477153 1.44771525,15 2,15 L3,15 L3,13 L2,13 C1.44771525,13 1,12.5522847 1,12 C1,11.4477153 1.44771525,11 2,11 L3,11 L3,9 L2,9 C1.44771525,9 1,8.55228475 1,8 C1,7.44771525 1.44771525,7 2,7 L3,7 L3,5 L2,5 C1.44771525,5 1,4.55228475 1,4 C1,3.44771525 1.44771525,3 2,3 L3,3 C3,1.34314575 4.34314575,3.04359188e-16 6,0 L19,0 C20.6568542,-3.04359188e-16 22,1.34314575 22,3 L22,21 C22,22.6568542 20.6568542,24 19,24 L6,24 C4.34314575,24 3,22.6568542 3,21 Z M18,22 L19,22 C19.5522847,22 20,21.5522847 20,21 L20,3 C20,2.44771525 19.5522847,2 19,2 L6,2 C5.44771525,2 5,2.44771525 5,3 L5,21 C5,21.5522847 5.44771525,22 6,22 L7,22 L7,19 C7,16.790861 8.790861,15 11,15 L14,15 C16.209139,15 18,16.790861 18,19 L18,22 Z M16,22 L16,19 C16,17.8954305 15.1045695,17 14,17 L11,17 C9.8954305,17 9,17.8954305 9,19 L9,22 L16,22 Z M12.5,5 C14.9852814,5 17,7.01471863 17,9.5 C17,11.9852814 14.9852814,14 12.5,14 C10.0147186,14 8,11.9852814 8,9.5 C8,7.01471863 10.0147186,5 12.5,5 Z M12.5,7 C11.1192881,7 10,8.11928813 10,9.5 C10,10.8807119 11.1192881,12 12.5,12 C13.8807119,12 15,10.8807119 15,9.5 C15,8.11928813 13.8807119,7 12.5,7 Z"/>
</svg>
