<svg xmlns="http://www.w3.org/2000/svg" width="24" height="24" viewBox="0 0 24 24">
  <path fill="#758CA3" fill-rule="evenodd" d="M7,2 L4,2 C3.44771525,2 3,2.44771525 3,3 L3,21 C3,21.5522847 3.44771525,22 4,22 L20,22 C20.5522847,22 21,21.5522847 21,21 L21,5.70156212 L18.0387503,2 L17,2 L17,8 C17,8.55228475 16.5522847,9 16,9 L8,9 C7.44771525,9 7,8.55228475 7,8 L7,2 Z M4,8.8817842e-16 L19,8.8817842e-16 L23,5 L23,21 C23,22.6568542 21.6568542,24 20,24 L4,24 C2.34314575,24 1,22.6568542 1,21 L1,3 C1,1.34314575 2.34314575,1.19253761e-15 4,8.8817842e-16 Z M9,7 L15,7 L15,2 L9,2 L9,7 Z M8,15 C7.44771525,15 7,14.5522847 7,14 C7,13.4477153 7.44771525,13 8,13 L16,13 C16.5522847,13 17,13.4477153 17,14 C17,14.5522847 16.5522847,15 16,15 L8,15 Z M8,19 C7.44771525,19 7,18.5522847 7,18 C7,17.4477153 7.44771525,17 8,17 L16,17 C16.5522847,17 17,17.4477153 17,18 C17,18.5522847 16.5522847,19 16,19 L8,19 Z"/>
</svg>
