<svg xmlns="http://www.w3.org/2000/svg" width="24" height="24" viewBox="0 0 24 24">
  <path fill="#758CA3" fill-rule="evenodd" d="M7.83409843,20.9863016 C7.42615464,22.158644 6.31133193,23 5,23 C3.34314575,23 2,21.6568542 2,20 C2,18.6030124 2.95485988,17.4290442 4.24752357,17.0951516 L4.69038867,15.7665563 C3.68248994,15.3428262 2.9496145,14.3833933 2.86089882,13.2300895 L2.15633851,4.07080547 C2.10985937,3.46657661 1.60601388,3 1,3 C0.44771525,3 1.08663177e-16,2.55228475 0,2 C-1.08663177e-16,1.44771525 0.44771525,1 1,1 C2.6510865,1 4.02381493,2.27118927 4.15044748,3.91741247 L23,3.94461486 C23.6306142,3.94461486 24.1038063,4.52119321 23.9807879,5.139692 L22.3009836,13.5852314 C22.0217818,14.9889724 20.789858,16 19.3586199,16 L6.72075922,16 L6.29044246,17.2909503 C7.00909189,17.6338892 7.56987096,18.2543657 7.83409843,19.0136984 C7.88805868,19.0046887 7.94348179,19 8,19 L16.1707057,19 C16.5825421,17.8348076 17.6937812,17 19,17 C20.6568542,17 22,18.3431458 22,20 C22,21.6568542 20.6568542,23 19,23 C17.6937812,23 16.5825421,22.1651924 16.1707057,21 L8,21 C7.94348179,21 7.88805868,20.9953113 7.83409843,20.9863016 Z M4.98354988,19.0001326 C4.43885229,19.0089176 4,19.4532091 4,20 C4,20.5522847 4.44771525,21 5,21 C5.55228475,21 6,20.5522847 6,20 C6,19.453257 5.56122457,19.0089954 5.01659322,19.0001349 C5.00559915,19.0003172 4.99458336,19.0003171 4.98354988,19.0001326 Z M6.02305932,14 L19.3586199,14 C19.8356993,14 20.2463406,13.6629908 20.3394078,13.1950771 L21.7815132,5.94461486 L4.30638613,5.94461486 L4.85500779,13.0766965 C4.8950845,13.5976937 5.32952597,14 5.85206228,14 L5.97665767,14 C5.99208425,13.9996392 6.00755514,13.9996373 6.02305932,14 Z M19,21 C19.5522847,21 20,20.5522847 20,20 C20,19.4477153 19.5522847,19 19,19 C18.4477153,19 18,19.4477153 18,20 C18,20.5522847 18.4477153,21 19,21 Z"/>
</svg>
