<svg xmlns="http://www.w3.org/2000/svg" width="16" height="16" viewBox="0 0 16 16">
  <path fill="#758CA3" fill-rule="evenodd" d="M3.29289322,10.2928932 L5.58578644,8 L3.29289322,5.70710678 C2.90236893,5.31658249 2.90236893,4.68341751 3.29289322,4.29289322 C3.68341751,3.90236893 4.31658249,3.90236893 4.70710678,4.29289322 L7.70710678,7.29289322 C8.09763107,7.68341751 8.09763107,8.31658249 7.70710678,8.70710678 L4.70710678,11.7071068 C4.31658249,12.0976311 3.68341751,12.0976311 3.29289322,11.7071068 C2.90236893,11.3165825 2.90236893,10.6834175 3.29289322,10.2928932 Z M8.29289322,10.2928932 L10.5857864,8 L8.29289322,5.70710678 C7.90236893,5.31658249 7.90236893,4.68341751 8.29289322,4.29289322 C8.68341751,3.90236893 9.31658249,3.90236893 9.70710678,4.29289322 L12.7071068,7.29289322 C13.0976311,7.68341751 13.0976311,8.31658249 12.7071068,8.70710678 L9.70710678,11.7071068 C9.31658249,12.0976311 8.68341751,12.0976311 8.29289322,11.7071068 C7.90236893,11.3165825 7.90236893,10.6834175 8.29289322,10.2928932 Z"/>
</svg>
