<svg xmlns="http://www.w3.org/2000/svg" width="16" height="16" viewBox="0 0 16 16">
  <path fill="#758CA3" fill-rule="evenodd" d="M4.70710678,2.29289322 L8,5.58578644 L11.2928932,2.29289322 C11.6834175,1.90236893 12.3165825,1.90236893 12.7071068,2.29289322 C13.0976311,2.68341751 13.0976311,3.31658249 12.7071068,3.70710678 L8.70710678,7.70710678 C8.31658249,8.09763107 7.68341751,8.09763107 7.29289322,7.70710678 L3.29289322,3.70710678 C2.90236893,3.31658249 2.90236893,2.68341751 3.29289322,2.29289322 C3.68341751,1.90236893 4.31658249,1.90236893 4.70710678,2.29289322 Z M4.70710678,8.29289322 L8,11.5857864 L11.2928932,8.29289322 C11.6834175,7.90236893 12.3165825,7.90236893 12.7071068,8.29289322 C13.0976311,8.68341751 13.0976311,9.31658249 12.7071068,9.70710678 L8.70710678,13.7071068 C8.31658249,14.0976311 7.68341751,14.0976311 7.29289322,13.7071068 L3.29289322,9.70710678 C2.90236893,9.31658249 2.90236893,8.68341751 3.29289322,8.29289322 C3.68341751,7.90236893 4.31658249,7.90236893 4.70710678,8.29289322 Z" transform="rotate(-90 8 8)"/>
</svg>
