<svg xmlns="http://www.w3.org/2000/svg" width="24" height="24" viewBox="0 0 24 24">
  <path fill="#758CA3" fill-rule="evenodd" d="M4.00078261,3 C3.8687566,3 3.7380374,3.02614384 3.61616723,3.07692308 C3.10636592,3.28934029 2.86528848,3.87481408 3.07770569,4.38461538 L6.02642364,10.4615385 C6.43668005,11.4461538 6.43668005,12.5538462 6.02642364,13.5384615 L3.07770569,19.6153846 C3.02692645,19.7372548 3.00078261,19.867974 3.00078261,20 C3.00078261,20.5522847 3.44849786,21 4.00078261,21 L16.5007826,21 C16.9044835,21 17.26859,20.7572623 17.4238595,20.3846154 L21.1738595,12.3846154 C21.2764236,12.1384615 21.2764236,11.8615385 21.1738595,11.6153846 L17.4238595,3.61538462 C17.26859,3.24273768 16.9044835,3 16.5007826,3 L4.00078261,3 Z M4.00078261,1 L16.5007826,1 C17.7118852,1 18.8042047,1.72821303 19.2700134,2.84615385 L23.0200134,10.8461538 C23.3277057,11.5846154 23.3277057,12.4153846 23.0200134,13.1538462 L19.2700134,21.1538462 C18.8042047,22.271787 17.7118852,23 16.5007826,23 L4.00078261,23 C2.34392836,23 1.00078261,21.6568542 1.00078261,20 C1.00078261,19.6039219 1.07921413,19.2117644 1.23155184,18.8461538 L4.18026979,12.7692308 C4.385398,12.2769231 4.385398,11.7230769 4.18026979,11.2307692 L1.23155184,5.15384615 C0.59430021,3.62444223 1.31753254,1.86802087 2.84693646,1.23076923 C3.21254697,1.07843152 3.60470456,1 4.00078261,1 Z"/>
</svg>
