<svg xmlns="http://www.w3.org/2000/svg" width="24" height="24" viewBox="0 0 24 24">
  <path fill="#758CA3" fill-rule="evenodd" d="M11.9977978,13.6069282 L10.179693,15.8937919 C10.0445175,16.0638194 9.89952322,16.2258037 9.7454513,16.3789168 C7.56091444,18.5498578 4.03010201,18.5388362 1.85916099,16.3542993 L1.73504224,16.2294033 C-0.590473008,13.8893241 -0.590473008,10.1107294 1.73504224,7.77065032 L1.85916099,7.64575425 C2.01227402,7.49168233 2.17425832,7.34668804 2.34428583,7.21151259 C4.7550519,5.29490278 8.26308316,5.69549559 10.179693,8.10626165 L11.9977978,10.3931254 L13.8159027,8.10626165 C15.7325125,5.69549559 19.2405437,5.29490278 21.6513098,7.21151259 C21.8213373,7.34668804 21.9833216,7.49168233 22.1364346,7.64575425 L22.2605534,7.77065032 C24.5860686,10.1107294 24.5860686,13.8893241 22.2605534,16.2294033 L22.1364346,16.3542993 C19.9654936,18.5388362 16.4346812,18.5498578 14.2501443,16.3789168 C14.0960724,16.2258037 13.9510781,16.0638194 13.8159027,15.8937919 L11.9977978,13.6069282 Z M15.3814353,14.6491605 C15.4681302,14.7582077 15.5611224,14.8620964 15.6599365,14.9602956 C17.0609905,16.3526299 19.3254791,16.3455612 20.7178135,14.9445072 L20.8419322,14.8196111 C22.3922757,13.2595583 22.3922757,10.7404952 20.8419322,9.18044247 L20.7178135,9.05554641 C20.6196143,8.95673229 20.5157256,8.86374012 20.4066783,8.77704526 C18.8605321,7.54782643 16.6106542,7.80474686 15.3814353,9.3508931 L13.2753183,12.0000268 L15.3814353,14.6491605 Z M8.61416029,9.3508931 C7.38494146,7.80474686 5.13506353,7.54782643 3.58891728,8.77704526 C3.47987004,8.86374012 3.37598131,8.95673229 3.27778218,9.05554641 L3.15366343,9.18044247 C1.60331993,10.7404952 1.60331993,13.2595583 3.15366343,14.8196111 L3.27778218,14.9445072 C4.67011648,16.3455612 6.93460513,16.3526299 8.33565914,14.9602956 C8.43447326,14.8620964 8.52746543,14.7582077 8.61416029,14.6491605 L10.7202774,12.0000268 L8.61416029,9.3508931 Z"/>
</svg>
