<svg width="531" height="234" viewBox="0 0 531 234" xmlns="http://www.w3.org/2000/svg"><g id="Templates" stroke="none" stroke-width="1" fill="none" fill-rule="evenodd"><g id="404-Page" transform="translate(-694 -276)"><g id="404-illustration" transform="translate(695 278)"><line x1=".5586" y1="230.8" x2="529.0413" y2="230.8" id="desk" stroke="#C4C4C4" stroke-width="1.6" stroke-linecap="square"/><g id="monitor" transform="translate(109.6)"><g id="stand" transform="translate(107.2 193.6)"><path d="M10.1522-.8h77.2956l11.226 37.6H-1.0738L10.1522-.8z" id="shadow" stroke="#C4C4C4" stroke-width="1.6" fill="#E3E3E3"/><path d="M25.3996 5.6h46.0008c4.659 0 8.7494 3.0985 10.0113 7.5833l2.8698 10.2c1.5556 5.529-1.6656 11.2724-7.1946 12.828a10.4 10.4 0 0 1-2.8167.3887H22.5298c-5.7437 0-10.4-4.6562-10.4-10.4 0-.9523.1308-1.9.3887-2.8167l2.8698-10.2C16.6502 8.6985 20.7407 5.6 25.3996 5.6z" id="light" fill="#F3F3F3"/></g><g id="body"><rect id="shadow" stroke="#C4C4C4" stroke-width="1.6" fill="#F6F6F6" x="-.8" y="-.8" width="312.8" height="196" rx="5.6"/><rect id="light" fill="#FFF" x="2.4" y="2.4" width="306.4" height="188" rx="4"/></g><g id="logo" transform="translate(150.4 177.6)"><circle id="shadow" fill="#D8D8D8" cx="5.6" cy="5.6" r="5.6"/><circle id="light" fill="#FFF" cx="5.2" cy="4.4" r="5.2"/></g><g id="screen" transform="translate(9.4 10.4)"><rect id="screen-BG" stroke="#C4C4C4" stroke-width="1.6" fill="#FFF" x=".2" y="-.8" width="292.8" height="163.2" rx="2.4"/><g id="browser-bar" transform="translate(.6529)"><path d="M2.7471 0h286.4c1.3255 0 2.4 1.0745 2.4 2.4v14.3172H.3471V2.4c0-1.3255 1.0745-2.4 2.4-2.4z" id="BG" fill="#E0E0E0"/><rect id="plugin" fill="#C4C4C4" x="274.8115" y="4.4579" width="8.9257" height="7.8014" rx="1.6"/><rect id="search-bar" fill="#FFF" x="60.5954" y="4.4579" width="175.1663" height="7.8014" rx="1.6"/><g id="options" transform="translate(7.0414 5.5724)" fill="#C4C4C4"><ellipse id="Oval-Copy-2" cx="18.4092" cy="2.7862" rx="2.7893" ry="2.7862"/><ellipse id="Oval-Copy" cx="10.5992" cy="2.7862" rx="2.7893" ry="2.7862"/><ellipse id="Oval" cx="2.7893" cy="2.7862" rx="2.7893" ry="2.7862"/></g></g></g><path d="M128.1364 124v-7.3636h5.1954v-7.0978h-5.1954V82.1091H117.05l-17.4886 27.5523v6.975h20.1068V124h8.4682zm-8.3046-14.4614h-11.3523v-.3272l11.025-17.4478h.3273v17.775zm35.8364 15.3819c5.2636 0 9.3954-1.9125 12.3954-5.7375 3-3.825 4.5069-9.1875 4.5207-16.0875.0134-4.5682-.6616-8.458-2.0252-11.6694-1.3636-3.2113-3.3102-5.6625-5.8398-7.3534-2.5295-1.6909-5.5466-2.5363-9.0511-2.5363-5.25 0-9.3784 1.8784-12.3852 5.6352-3.0069 3.7568-4.517 9.0648-4.531 15.9239-.0134 4.5818.6582 8.5022 2.015 11.7613 1.3569 3.2591 3.3 5.7477 5.8296 7.466 2.5295 1.7181 5.5534 2.584 9.0716 2.5977zm0-7.3432c-2.4 0-4.3193-1.2068-5.758-3.6205-1.4386-2.4136-2.1511-6.034-2.1375-10.8613.0137-4.7591.7364-8.3319 2.1682-10.7182 1.4318-2.3864 3.341-3.5796 5.7273-3.5796 2.3863 0 4.2954 1.1932 5.7273 3.5796 1.4318 2.3863 2.1477 5.959 2.1477 10.7182.0136 4.8272-.6955 8.4477-2.1273 10.8613-1.4318 2.4137-3.3477 3.6205-5.7477 3.6205zM206.825 124v-7.3636h5.1955v-7.0978h-5.1955V82.1091h-11.0864L178.25 109.6614v6.975h20.1068V124h8.4682zm-8.3045-14.4614h-11.3523v-.3272l11.025-17.4478h.3273v17.775z" id="404" fill="#C1C1C1" fill-rule="nonzero"/></g><g id="keyboard" transform="translate(156 219.2)"><g id="keys" transform="translate(4.8)" fill="#FFF" stroke="#C4C4C4" stroke-width="1.6"><path d="M165.6 4.2h12V1.6a.8.8 0 0 0-.8-.8h-10.4a.8.8 0 0 0-.8.8v2.6z" id="key7"/><path d="M148 4.2h12V1.6a.8.8 0 0 0-.8-.8h-10.4a.8.8 0 0 0-.8.8v2.6z" id="key6"/><path d="M130.4 4.2h12V1.6a.8.8 0 0 0-.8-.8h-10.4a.8.8 0 0 0-.8.8v2.6z" id="key5"/><path d="M53.6 4.2H116V1.6a.8.8 0 0 0-.8-.8H54.4a.8.8 0 0 0-.8.8v2.6z" id="space"/><path d="M36 4.2h12V1.6a.8.8 0 0 0-.8-.8H36.8a.8.8 0 0 0-.8.8v2.6z" id="key3"/><path d="M18.4 4.2h12V1.6a.8.8 0 0 0-.8-.8H19.2a.8.8 0 0 0-.8.8v2.6z" id="key2"/><path d="M.8 4.2h12V1.6a.8.8 0 0 0-.8-.8H1.6a.8.8 0 0 0-.8.8v2.6z" id="key1"/></g><g id="board" transform="translate(0 4.8)"><path d="M1.6-.8h184.8c1.3255 0 2.4 1.0745 2.4 2.4v4.8H-.8V1.6C-.8.2745.2745-.8 1.6-.8z" id="shadow" stroke="#C4C4C4" stroke-width="1.6" fill="#ECECEC"/><path d="M1.6 0h184.8c.8837 0 1.6.7163 1.6 1.6V3H0V1.6C0 .7163.7163 0 1.6 0z" id="light" fill="#FFF"/></g></g><g id="plant" transform="translate(437.6 100.8)"><g id="leaf"><g id="leaf-middle"><path d="M25.2979 23.8187c4.668-6.7073 8.3662-14.7207 11.0917-24.0432l.3912-1.3382.958 1.013c17.3537 18.354 18.3377 46.7537 2.2958 66.2647L29.9267 78.0087l-.6232-.659c-13.845-14.643-15.5172-36.9907-4.0056-53.531z" id="shadow" stroke="#C4C4C4" stroke-width="1.6" fill="#D8D8D8"/><path d="M32.2166 55.607 22.931 66.901c-6.7507-13.4024-5.9063-29.7947 3.0235-42.6254 4.6996-6.7525 8.4221-14.8042 11.1676-24.155 9.7723 17.3721 8.2615 39.472-4.9055 55.4864z" id="Combined-Shape" fill="#F3F3F3"/></g><g id="leaf-left" transform="translate(.8 47.2)"><path d="M8.4802-.6542C12.2251 1.981 16.5637 3.984 21.4999 5.354c20.0603 5.5672 32.574 25.5026 28.8675 45.9884l-.1367.7554-5.722-.7933C20.4243 47.9652 3.6071 25.7339 6.9464 1.6495a43.931 43.931 0 0 1 .2862-1.792l.223-1.2327 1.0246.721z" id="shadow" stroke="#C4C4C4" stroke-width="1.6" fill="#D8D8D8"/><path d="m9.6622 1.0913.0323.0217a39.4567 39.4567 0 0 0 2.838 1.6186c13.1745 8.2702 20.5978 23.8534 17.952 39.8662l-.1043.6022-4.9616-.688-.6162-.089C12.5372 33.3105 5.4924 17.962 7.7388 1.7594A43.019 43.019 0 0 1 7.9181.5852L7.9729.27a39.3289 39.3289 0 0 1 1.6893.8213z" id="Combined-Shape" fill="#F3F3F3"/></g><g id="leaf-right" transform="translate(19.2 37.6)"><path d="M25.7622 14.3239c3.9091-3.3833 7.3667-8.2691 10.3639-14.6634l.697-1.4872.7413 1.4657c10.3506 20.4664 2.233 45.45-18.1705 55.9241l-1.395.7162-.3633-.7183c-7.0714-13.9824-3.721-30.983 8.1266-41.2371z" id="shadow" stroke="#C4C4C4" stroke-width="1.6" fill="#D8D8D8"/><path d="m15.8286 46.8514-.3537.1815c-2.459-11.651 1.4738-24.023 10.8109-32.104 3.959-3.4266 7.4484-8.3344 10.468-14.7235 4.7168 18.1372-3.5757 37.7397-20.9252 46.646z" id="Combined-Shape" fill="#F3F3F3"/></g></g><g id="pot" transform="translate(5.6 78.4)"><g id="element2" transform="translate(4 .8)"><path d="M2.7241-.8h45.7454c1.7674 0 3.2 1.4327 3.2 3.2a3.2 3.2 0 0 1-.0264.4105L45.4353 50.8H5.6458L-.4504 2.8032C-.673 1.05.5676-.5518 2.321-.7745A3.2 3.2 0 0 1 2.7241-.8z" id="shadow" stroke="#C4C4C4" stroke-width="1.6" fill="#ECECEC"/><path d="M1.9596 12h38.5618c1.3255 0 2.4 1.0745 2.4 2.4a2.4 2.4 0 0 1-.0144.2625L39.0185 50H6.3505L1.5629 12.4506A.4.4 0 0 1 1.9596 12z" id="light" fill="#FFF"/></g><g id="element1"><path d="M5.1444-.8h50.7092c1.8883 0 3.9487 1.25 4.6844 2.869.3258.717.3551 1.4603.0303 2.1344l-2.1858 4.0335C57.8467 9.1213 56.7448 9.6 55.45 9.6H5.5479c-1.2947 0-2.3966-.4787-2.9515-1.3966l-2.187-4.04C-.3187 2.6178.8952.7029 2.8937-.253 3.6251-.6076 4.4086-.8 5.1444-.8z" id="shadow" stroke="#C4C4C4" stroke-width="1.6" fill="#ECECEC"/><path d="M4.9444 0h43.7092c1.5826 0 3.3538 1.0745 3.9561 2.4.2326.5118.2532 1.0102.0552 1.4224l-2.1667 4c-.3724.6147-1.21.9776-2.2481.9776H5.3479c-1.038 0-1.8757-.363-2.2481-.9776l-2.1667-4c-.503-1.0676.467-2.57 2.1095-3.3555C3.6683.1636 4.3333 0 4.9444 0z" id="light" fill="#FFF"/></g></g></g><g id="mouse" transform="translate(378.4 215.2)"><path d="M14.4-.8h6.4C29.1947-.8 36 6.0053 36 14.4v.8H-.8v-.8C-.8 6.0053 6.0053-.8 14.4-.8z" id="shadow" stroke="#C4C4C4" stroke-width="1.6" fill="#F3F3F3"/><path d="M20.8 0c4.0885 0 7.779 1.7039 10.4002 4.4403L31.2 4.8c0 3.0928-2.5072 5.6-5.6 5.6l-25.0373.0004C2.296 4.3934 7.835 0 14.4 0h6.4z" id="Combined-Shape" fill="#FFF"/></g><g id="books" transform="translate(17.6 198.4)"><g id="book-large" transform="translate(8 18.4)"><rect id="shadow" stroke="#C4C4C4" stroke-width="1.6" fill="#ECECEC" x="-.8" y="-.8" width="96.8" height="14.4" rx="1.6"/><path d="M4.4 0h89.2c.8837 0 1.6.7163 1.6 1.6V10H6c-.8837 0-1.6-.7163-1.6-1.6V0z" id="light" fill="#FFF"/><g id="bond-left" transform="translate(17.6)"><rect id="shadow" stroke="#C4C4C4" stroke-width="1.6" fill="#DDDCDC" x="-.8" y="-.8" width="8.8" height="14.4"/><path d="M2.4 0h4.8v10H3.4c-.5523 0-1-.4477-1-1V0z" id="light" fill="#F3F3F3"/></g><g id="bond-right" transform="translate(69.6)"><rect id="shadow" stroke="#C4C4C4" stroke-width="1.6" fill="#DDDCDC" x="-.8" y="-.8" width="8.8" height="14.4"/><path d="M2.4 0h4.8v10H3.4c-.5523 0-1-.4477-1-1V0z" id="light" fill="#F3F3F3"/></g></g><g id="book-medium" transform="translate(0 6.2)"><rect id="shadow" stroke="#C4C4C4" stroke-width="1.6" fill="#ECECEC" x="-.8" y=".2" width="96.8" height="11.2" rx="1.6"/><path d="M4 1h89.6c.8837 0 1.6.7163 1.6 1.6v5.6H5.6C4.7163 8.2 4 7.4837 4 6.6V1z" id="light" fill="#FFF"/><g id="bond-right" transform="translate(17.6 .2)"><rect id="shadow" stroke="#C4C4C4" stroke-width="1.6" fill="#DDDCDC" x="-.8" y="-.6" width="8.8" height="11.8"/><path d="M2.4.8h4.8v7.2889H3.4c-.5523 0-1-.4477-1-1V.8z" id="light" fill="#F3F3F3"/></g><g id="bond-left" transform="translate(69.6 .2)"><rect id="shadow" stroke="#C4C4C4" stroke-width="1.6" fill="#DDDCDC" x="-.8" y="-.6" width="8.8" height="11.8"/><path d="M2.4.8h4.8v7.2889H3.4c-.5523 0-1-.4477-1-1V.8z" id="light" fill="#F3F3F3"/></g></g><g id="magazine" transform="translate(15.2)"><rect id="shadow" stroke="#C4C4C4" stroke-width="1.6" fill="#ECECEC" x="-.8" y="-.8" width="71.2" height="7.2" rx="1.6"/><path d="M3.2 0H68c.8837 0 1.6.7163 1.6 1.6V4H4.8c-.8837 0-1.6-.7163-1.6-1.6V0z" id="light" fill="#FFF"/></g></g><g id="cup-of-coffee" transform="translate(39.8 154.4)"><g id="cup" transform="translate(.6)"><path d="M8.8 10.4c.4074 0 .808.04 1.2.1175l-.0004 5.7082C9.6182 16.0787 9.2159 16 8.8 16c-2.43 0-4.4 2.6863-4.4 6s1.97 6 4.4 6c.4159 0 .8182-.0787 1.1996-.2257l.0003 5.7082A6.1832 6.1832 0 0 1 8.8 33.6C4.1608 33.6.4 28.4065.4 22c0-6.4065 3.7608-11.6 8.4-11.6z" id="Combined-Shape" stroke="#C4C4C4" stroke-width="1.6" fill="#ECECEC"/><path d="M11.6-.8h33.6c1.3255 0 2.4 1.0745 2.4 2.4V36c0 3.9765-3.2235 7.2-7.2 7.2h-24c-3.9765 0-7.2-3.2235-7.2-7.2V1.6c0-1.3255 1.0745-2.4 2.4-2.4z" id="shadow" stroke="#C4C4C4" stroke-width="1.6" fill="#ECECEC"/><path d="M17.2 0h28.2c.8837 0 1.6.7163 1.6 1.6V36c0 3.5346-2.8654 6.4-6.4 6.4h-17c-3.5346 0-6.4-2.8654-6.4-6.4V0z" id="light" fill="#FFF"/></g></g></g></g></g></svg>