<?xml version="1.0" encoding="UTF-8"?>
<svg width="531px" height="234px" viewBox="0 0 531 234" version="1.1" xmlns="http://www.w3.org/2000/svg" xmlns:xlink="http://www.w3.org/1999/xlink">
    <!-- Generator: sketchtool 60.1 (101010) - https://sketch.com -->
    <title>0E1432F0-24BE-4B16-A3BC-6DCA7FB32319@2.00x</title>
    <desc>Created with sketchtool.</desc>
    <g id="Templates" stroke="none" stroke-width="1" fill="none" fill-rule="evenodd">
        <g id="404-Page" transform="translate(-694.000000, -276.000000)">
            <g id="404-illustration" transform="translate(695.000000, 278.000000)">
                <line x1="0.558649789" y1="230.8" x2="529.04135" y2="230.8" id="desk" stroke="#C4C4C4" stroke-width="1.6" stroke-linecap="square"></line>
                <g id="monitor" transform="translate(109.600000, 0.000000)">
                    <g id="stand" transform="translate(107.200000, 193.600000)">
                        <path d="M10.1521725,-0.8 L87.4478275,-0.8 L98.6737439,36.8 L-1.07374388,36.8 L10.1521725,-0.8 Z" id="shadow" stroke="#C4C4C4" stroke-width="1.6" fill="#E3E3E3"></path>
                        <path d="M25.3996409,5.6 L71.4003591,5.6 C76.0593267,5.6 80.1498434,8.6984588 81.4116625,13.183299 L84.2814537,23.383299 C85.8370747,28.9123892 82.6159415,34.6556824 77.0868513,36.2113034 C76.1701742,36.4692124 75.2224181,36.6 74.2701503,36.6 L22.5298497,36.6 C16.7860883,36.6 12.1298497,31.9437614 12.1298497,26.2 C12.1298497,25.2477322 12.2606373,24.2999761 12.5185463,23.383299 L15.3883375,13.183299 C16.6501566,8.6984588 20.7406733,5.6 25.3996409,5.6 Z" id="light" fill="#F3F3F3"></path>
                    </g>
                    <g id="body">
                        <rect id="shadow" stroke="#C4C4C4" stroke-width="1.6" fill="#F6F6F6" x="-0.8" y="-0.8" width="312.8" height="196" rx="5.6"></rect>
                        <rect id="light" fill="#FFFFFF" x="2.4" y="2.4" width="306.4" height="188" rx="4"></rect>
                    </g>
                    <g id="logo" transform="translate(150.400000, 177.600000)">
                        <circle id="shadow" fill="#D8D8D8" cx="5.6" cy="5.6" r="5.6"></circle>
                        <circle id="light" fill="#FFFFFF" cx="5.2" cy="4.4" r="5.2"></circle>
                    </g>
                    <g id="screen" transform="translate(9.400000, 10.400000)">
                        <rect id="screen-BG" stroke="#C4C4C4" stroke-width="1.6" fill="#FFFFFF" x="0.2" y="-0.8" width="292.8" height="163.2" rx="2.4"></rect>
                        <g id="browser-bar" transform="translate(0.652874, 0.000000)">
                            <path d="M2.74712644,0 L289.147126,0 C290.47261,-3.20296626e-14 291.547126,1.0745166 291.547126,2.4 L291.547126,16.7172414 L291.547126,16.7172414 L0.347126437,16.7172414 L0.347126437,2.4 C0.347126437,1.0745166 1.42164304,-6.44691069e-16 2.74712644,0 Z" id="BG" fill="#E0E0E0"></path>
                            <rect id="plugin" fill="#C4C4C4" x="274.811494" y="4.45793103" width="8.9256705" height="7.80137931" rx="1.6"></rect>
                            <rect id="search-bar" fill="#FFFFFF" x="60.5954023" y="4.45793103" width="175.166284" height="7.80137931" rx="1.6"></rect>
                            <g id="options" transform="translate(7.041379, 5.572414)" fill="#C4C4C4">
                                <ellipse id="Oval-Copy-2" cx="18.4091954" cy="2.7862069" rx="2.78927203" ry="2.7862069"></ellipse>
                                <ellipse id="Oval-Copy" cx="10.5992337" cy="2.7862069" rx="2.78927203" ry="2.7862069"></ellipse>
                                <ellipse id="Oval" cx="2.78927203" cy="2.7862069" rx="2.78927203" ry="2.7862069"></ellipse>
                            </g>
                        </g>
                    </g>
                    <path d="M128.136364,124 L128.136364,116.636364 L133.331818,116.636364 L133.331818,109.538636 L128.136364,109.538636 L128.136364,82.1090909 L117.05,82.1090909 L99.5613636,109.661364 L99.5613636,116.636364 L119.668182,116.636364 L119.668182,124 L128.136364,124 Z M119.831818,109.538636 L108.479545,109.538636 L108.479545,109.211364 L119.504545,91.7636364 L119.831818,91.7636364 L119.831818,109.538636 Z M155.668182,124.920455 C160.931818,124.920455 165.063636,123.007955 168.063636,119.182955 C171.063636,115.357955 172.570455,109.995455 172.584293,103.095455 C172.597727,98.5272727 171.922727,94.6375 170.559091,91.4261364 C169.195455,88.2147727 167.248864,85.7636364 164.719318,84.0727273 C162.189773,82.3818182 159.172727,81.5363636 155.668182,81.5363636 C150.418182,81.5363636 146.289773,83.4147727 143.282955,87.1715909 C140.276136,90.9284091 138.765909,96.2363636 138.752069,103.095455 C138.738636,107.677273 139.410227,111.597727 140.767045,114.856818 C142.123864,118.115909 144.067045,120.604545 146.596591,122.322727 C149.126136,124.040909 152.15,124.906818 155.668182,124.920455 Z M155.668182,117.577273 C153.268182,117.577273 151.348864,116.370455 149.910227,113.956818 C148.471591,111.543182 147.759091,107.922727 147.772727,103.095455 C147.786364,98.3363636 148.509091,94.7636364 149.940909,92.3772727 C151.372727,89.9909091 153.281818,88.7977273 155.668182,88.7977273 C158.054545,88.7977273 159.963636,89.9909091 161.395455,92.3772727 C162.827273,94.7636364 163.543182,98.3363636 163.543182,103.095455 C163.556818,107.922727 162.847727,111.543182 161.415909,113.956818 C159.984091,116.370455 158.068182,117.577273 155.668182,117.577273 Z M206.825,124 L206.825,116.636364 L212.020455,116.636364 L212.020455,109.538636 L206.825,109.538636 L206.825,82.1090909 L195.738636,82.1090909 L178.25,109.661364 L178.25,116.636364 L198.356818,116.636364 L198.356818,124 L206.825,124 Z M198.520455,109.538636 L187.168182,109.538636 L187.168182,109.211364 L198.193182,91.7636364 L198.520455,91.7636364 L198.520455,109.538636 Z" id="404" fill="#C1C1C1" fill-rule="nonzero"></path>
                </g>
                <g id="keyboard" transform="translate(156.000000, 219.200000)">
                    <g id="keys" transform="translate(4.800000, 0.000000)" fill="#FFFFFF" stroke="#C4C4C4" stroke-width="1.6">
                        <path d="M165.6,4.2 L177.6,4.2 L177.6,1.6 C177.6,1.1581722 177.241828,0.8 176.8,0.8 L166.4,0.8 C165.958172,0.8 165.6,1.1581722 165.6,1.6 L165.6,4.2 Z" id="key7"></path>
                        <path d="M148,4.2 L160,4.2 L160,1.6 C160,1.1581722 159.641828,0.8 159.2,0.8 L148.8,0.8 C148.358172,0.8 148,1.1581722 148,1.6 L148,4.2 Z" id="key6"></path>
                        <path d="M130.4,4.2 L142.4,4.2 L142.4,1.6 C142.4,1.1581722 142.041828,0.8 141.6,0.8 L131.2,0.8 C130.758172,0.8 130.4,1.1581722 130.4,1.6 L130.4,4.2 Z" id="key5"></path>
                        <path d="M53.6,4.2 L116,4.2 L116,1.6 C116,1.1581722 115.641828,0.8 115.2,0.8 L54.4,0.8 C53.9581722,0.8 53.6,1.1581722 53.6,1.6 L53.6,4.2 Z" id="space"></path>
                        <path d="M36,4.2 L48,4.2 L48,1.6 C48,1.1581722 47.6418278,0.8 47.2,0.8 L36.8,0.8 C36.3581722,0.8 36,1.1581722 36,1.6 L36,4.2 Z" id="key3"></path>
                        <path d="M18.4,4.2 L30.4,4.2 L30.4,1.6 C30.4,1.1581722 30.0418278,0.8 29.6,0.8 L19.2,0.8 C18.7581722,0.8 18.4,1.1581722 18.4,1.6 L18.4,4.2 Z" id="key2"></path>
                        <path d="M0.8,4.2 L12.8,4.2 L12.8,1.6 C12.8,1.1581722 12.4418278,0.8 12,0.8 L1.6,0.8 C1.1581722,0.8 0.8,1.1581722 0.8,1.6 L0.8,4.2 Z" id="key1"></path>
                    </g>
                    <g id="board" transform="translate(0.000000, 4.800000)">
                        <path d="M1.6,-0.8 L186.4,-0.8 C187.725483,-0.8 188.8,0.2745166 188.8,1.6 L188.8,6.4 L-0.8,6.4 L-0.8,1.6 C-0.8,0.2745166 0.2745166,-0.8 1.6,-0.8 Z" id="shadow" stroke="#C4C4C4" stroke-width="1.6" fill="#ECECEC"></path>
                        <path d="M1.6,0 L186.4,0 C187.283656,-1.623249e-16 188,0.7163444 188,1.6 L188,3 L188,3 L0,3 L0,1.6 C-1.082166e-16,0.7163444 0.7163444,1.623249e-16 1.6,0 Z" id="light" fill="#FFFFFF"></path>
                    </g>
                </g>
                <g id="plant" transform="translate(437.600000, 100.800000)">
                    <g id="leaf">
                        <g id="leaf-middle">
                            <path d="M25.2978985,23.8187029 C29.9659879,17.1113997 33.6640737,9.09796795 36.3895585,-0.224488432 L36.7808069,-1.56274435 L37.7387181,-0.549625151 C55.0925169,17.8043395 56.0764659,46.2040329 40.0345547,65.715041 L29.9267155,78.0087215 L29.3035355,77.3496252 C15.4585684,62.7067197 13.7863215,40.3589942 25.2978987,23.8187025 Z" id="shadow" stroke="#C4C4C4" stroke-width="1.6" fill="#D8D8D8"></path>
                            <path d="M32.216607,55.6069656 L22.9310271,66.901144 C16.1802861,53.498729 17.0247044,37.1064159 25.9545245,24.2756956 C30.6541288,17.5231105 34.3766483,9.47141129 37.1220831,0.120598001 C46.8943702,17.4927409 45.3836284,39.5925483 32.216607,55.6069656 Z" id="Combined-Shape" fill="#F3F3F3"></path>
                        </g>
                        <g id="leaf-left" transform="translate(0.800000, 47.200000)">
                            <path d="M8.48020031,-0.654248252 C12.2250826,1.98100134 16.563655,3.98407842 21.4999159,5.35399951 C41.5601638,10.9211604 54.0738861,30.8566101 50.3674088,51.3424307 L50.2307317,52.0978498 L44.5087257,51.3044989 C20.4243341,47.9652197 3.60709781,25.733942 6.94637701,1.64955047 C7.02945972,1.05032043 7.12488471,0.452866502 7.23259117,-0.14243065 L7.45563935,-1.37522522 L8.48020031,-0.654248252 Z" id="shadow" stroke="#C4C4C4" stroke-width="1.6" fill="#D8D8D8"></path>
                            <path d="M9.66221866,1.0912976 L9.69452974,1.11296999 C10.6090605,1.68649779 11.5550642,2.2260482 12.532541,2.73162122 C25.7069942,11.0018346 33.1303095,26.5849514 30.4844151,42.5978057 L30.38019,43.2 L25.418594,42.5120792 L24.8024032,42.4230053 C12.5372131,33.3104994 5.4923142,17.9620663 7.7387967,1.75941875 C7.7931787,1.36719119 7.85294648,0.97573867 7.91808235,0.585171931 L7.97291995,0.269968572 C8.54442943,0.531155756 9.10761924,0.805075859 9.66221866,1.0912976 Z" id="Combined-Shape" fill="#F3F3F3"></path>
                        </g>
                        <g id="leaf-right" transform="translate(19.200000, 37.600000)">
                            <path d="M25.7622208,14.3239031 C29.6713171,10.9406156 33.1288769,6.05480243 36.1261049,-0.339536124 L36.8231642,-1.82665466 L37.5643741,-0.361041776 C47.9149693,20.1054491 39.7974946,45.0890311 19.3939246,55.5631135 L17.998856,56.2792658 L17.6356259,55.5610418 C10.5642381,41.5786098 13.9145525,24.5779665 25.7622204,14.3239035 Z" id="shadow" stroke="#C4C4C4" stroke-width="1.6" fill="#D8D8D8"></path>
                            <path d="M15.8285755,46.8514113 L15.4748784,47.0328886 C13.0158312,35.3819058 16.9486786,23.0099756 26.285759,14.9288062 C30.2448041,11.5022885 33.734155,6.59447864 36.7538117,0.205376716 C41.4705589,18.3426321 33.178118,37.9451005 15.8285755,46.8514113 Z" id="Combined-Shape" fill="#F3F3F3"></path>
                        </g>
                    </g>
                    <g id="pot" transform="translate(5.600000, 78.400000)">
                        <g id="element2" transform="translate(4.000000, 0.800000)">
                            <path d="M2.72410929,-0.8 L48.4695455,-0.8 C50.2368567,-0.8 51.6695455,0.632688801 51.6695455,2.4 C51.6695455,2.53726659 51.6607133,2.67439095 51.6431035,2.81052329 L45.4353085,50.8 L5.64577282,50.8 L-0.450387664,2.80319859 C-0.673068099,1.04997234 0.567684438,-0.551816516 2.32091069,-0.774496951 C2.4546389,-0.791482012 2.58930675,-0.8 2.72410929,-0.8 Z" id="shadow" stroke="#C4C4C4" stroke-width="1.6" fill="#ECECEC"></path>
                            <path d="M1.95956359,12 L40.521419,12 C41.8469024,12 42.921419,13.0745166 42.921419,14.4 C42.921419,14.4877006 42.9166118,14.5753354 42.9070192,14.6625098 L39.0185059,50 L39.0185059,50 L6.35059035,50 L1.56277608,12.4505932 C1.53483422,12.2314535 1.68983069,12.0311543 1.90897038,12.0032125 C1.92574989,12.001073 1.94264822,12 1.95956359,12 Z" id="light" fill="#FFFFFF"></path>
                        </g>
                        <g id="element1">
                            <path d="M5.14438847,-0.8 L55.8536244,-0.8 C57.7419317,-0.8 59.802326,0.449957444 60.5380476,2.06904182 C60.8638002,2.78591737 60.8931203,3.52934755 60.5683046,4.20339383 L58.3824586,8.2368834 C57.8466632,9.12131897 56.7447879,9.6 55.4500789,9.6 L5.547934,9.6 C4.25322497,9.6 3.15134967,9.12131897 2.59635509,8.20339383 L0.409465438,4.16338357 C-0.318842929,2.61781248 0.895121709,0.702880223 2.89361165,-0.252969267 C3.62507261,-0.607562374 4.40852557,-0.8 5.14438847,-0.8 Z" id="shadow" stroke="#C4C4C4" stroke-width="1.6" fill="#ECECEC"></path>
                            <path d="M4.94438847,0 L48.6536244,0 C50.236206,0 52.0074086,1.0745166 52.6097162,2.4 C52.8422711,2.9117777 52.8628699,3.41015507 52.6648695,3.82237002 L50.4982228,7.82237002 C50.1258437,8.43705495 49.2881194,8.8 48.2500789,8.8 L5.347934,8.8 C4.30989347,8.8 3.47216925,8.43705495 3.09979013,7.82237002 L0.933143374,3.82237002 C0.430056505,2.75475009 1.40017338,1.25245639 3.04258692,0.466903124 C3.66825438,0.163595936 4.33334353,0 4.94438847,0 Z" id="light" fill="#FFFFFF"></path>
                        </g>
                    </g>
                </g>
                <g id="mouse" transform="translate(378.400000, 215.200000)">
                    <path d="M14.4,-0.8 L20.8,-0.8 C29.1947282,-0.8 36,6.0052718 36,14.4 L36,15.2 L-0.8,15.2 L-0.8,14.4 C-0.8,6.0052718 6.0052718,-0.8 14.4,-0.8 Z" id="shadow" stroke="#C4C4C4" stroke-width="1.6" fill="#F3F3F3"></path>
                    <path d="M20.8,0 C24.8884976,1.62160462e-16 28.5790311,1.70388703 31.2002401,4.44030065 L31.2,4.8 C31.2,7.8927946 28.6927946,10.4 25.6,10.4 L0.562711159,10.4004003 C2.29593175,4.39334434 7.8349056,1.20598828e-15 14.4,0 L20.8,0 Z" id="Combined-Shape" fill="#FFFFFF"></path>
                </g>
                <g id="books" transform="translate(17.600000, 198.400000)">
                    <g id="book-large" transform="translate(8.000000, 18.400000)">
                        <rect id="shadow" stroke="#C4C4C4" stroke-width="1.6" fill="#ECECEC" x="-0.8" y="-0.8" width="96.8" height="14.4" rx="1.6"></rect>
                        <path d="M4.4,9.09494702e-13 L93.6,9.09494702e-13 C94.4836556,9.09110332e-13 95.2,0.7163444 95.2,1.6 L95.2,10 L95.2,10 L6,10 C5.1163444,10 4.4,9.2836556 4.4,8.4 L4.4,9.09494702e-13 L4.4,9.09494702e-13 Z" id="light" fill="#FFFFFF"></path>
                        <g id="bond-left" transform="translate(17.600000, 0.000000)">
                            <rect id="shadow" stroke="#C4C4C4" stroke-width="1.6" fill="#DDDCDC" x="-0.8" y="-0.8" width="8.8" height="14.4"></rect>
                            <path d="M2.4,9.09494702e-13 L7.2,9.09494702e-13 L7.2,10 L3.4,10 C2.84771525,10 2.4,9.55228475 2.4,9 L2.4,9.09494702e-13 L2.4,9.09494702e-13 Z" id="light" fill="#F3F3F3"></path>
                        </g>
                        <g id="bond-right" transform="translate(69.600000, 0.000000)">
                            <rect id="shadow" stroke="#C4C4C4" stroke-width="1.6" fill="#DDDCDC" x="-0.8" y="-0.8" width="8.8" height="14.4"></rect>
                            <path d="M2.4,9.09494702e-13 L7.2,9.09494702e-13 L7.2,10 L3.4,10 C2.84771525,10 2.4,9.55228475 2.4,9 L2.4,9.09494702e-13 L2.4,9.09494702e-13 Z" id="light" fill="#F3F3F3"></path>
                        </g>
                    </g>
                    <g id="book-medium" transform="translate(0.000000, 6.200000)">
                        <rect id="shadow" stroke="#C4C4C4" stroke-width="1.6" fill="#ECECEC" x="-0.8" y="0.2" width="96.8" height="11.2" rx="1.6"></rect>
                        <path d="M4,1 L93.6,1 C94.4836556,1 95.2,1.7163444 95.2,2.6 L95.2,8.2 L95.2,8.2 L5.6,8.2 C4.7163444,8.2 4,7.4836556 4,6.6 L4,1 L4,1 Z" id="light" fill="#FFFFFF"></path>
                        <g id="bond-right" transform="translate(17.600000, 0.200000)">
                            <rect id="shadow" stroke="#C4C4C4" stroke-width="1.6" fill="#DDDCDC" x="-0.8" y="-0.6" width="8.8" height="11.8"></rect>
                            <path d="M2.4,0.8 L7.2,0.8 L7.2,8.08888889 L3.4,8.08888889 C2.84771525,8.08888889 2.4,7.64117364 2.4,7.08888889 L2.4,0.8 L2.4,0.8 Z" id="light" fill="#F3F3F3"></path>
                        </g>
                        <g id="bond-left" transform="translate(69.600000, 0.200000)">
                            <rect id="shadow" stroke="#C4C4C4" stroke-width="1.6" fill="#DDDCDC" x="-0.8" y="-0.6" width="8.8" height="11.8"></rect>
                            <path d="M2.4,0.8 L7.2,0.8 L7.2,8.08888889 L3.4,8.08888889 C2.84771525,8.08888889 2.4,7.64117364 2.4,7.08888889 L2.4,0.8 L2.4,0.8 Z" id="light" fill="#F3F3F3"></path>
                        </g>
                    </g>
                    <g id="magazine" transform="translate(15.200000, 0.000000)">
                        <rect id="shadow" stroke="#C4C4C4" stroke-width="1.6" fill="#ECECEC" x="-0.8" y="-0.8" width="71.2" height="7.2" rx="1.6"></rect>
                        <path d="M3.2,9.09494702e-13 L68,9.09494702e-13 C68.8836556,9.09332377e-13 69.6,0.7163444 69.6,1.6 L69.6,4 L69.6,4 L4.8,4 C3.9163444,4 3.2,3.2836556 3.2,2.4 L3.2,9.09494702e-13 L3.2,9.09494702e-13 Z" id="light" fill="#FFFFFF"></path>
                    </g>
                </g>
                <g id="cup-of-coffee" transform="translate(39.800000, 154.400000)">
                    <g id="cup" transform="translate(0.600000, 0.000000)">
                        <path d="M8.8,10.4 C9.20740288,10.4 9.60803171,10.4400519 9.9999344,10.51746 L9.99958122,16.2256921 C9.61823997,16.0786702 9.21585727,16 8.8,16 C6.3699471,16 4.4,18.6862915 4.4,22 C4.4,25.3137085 6.3699471,28 8.8,28 C9.21585727,28 9.61823997,27.9213298 9.99958122,27.7743079 L9.9999344,33.48254 C9.60803171,33.5599481 9.20740288,33.6 8.8,33.6 C4.1608081,33.6 0.4,28.4065031 0.4,22 C0.4,15.5934969 4.1608081,10.4 8.8,10.4 Z" id="Combined-Shape" stroke="#C4C4C4" stroke-width="1.6" fill="#ECECEC"></path>
                        <path d="M11.6,-0.8 L45.2,-0.8 C46.5254834,-0.8 47.6,0.2745166 47.6,1.6 L47.6,36 C47.6,39.9764502 44.3764502,43.2 40.4,43.2 L16.4,43.2 C12.4235498,43.2 9.2,39.9764502 9.2,36 L9.2,1.6 C9.2,0.2745166 10.2745166,-0.8 11.6,-0.8 Z" id="shadow" stroke="#C4C4C4" stroke-width="1.6" fill="#ECECEC"></path>
                        <path d="M17.2,0 L45.4,0 C46.2836556,-3.84369505e-16 47,0.7163444 47,1.6 L47,36 C47,39.5346224 44.1346224,42.4 40.6,42.4 L23.6,42.4 C20.0653776,42.4 17.2,39.5346224 17.2,36 L17.2,0 L17.2,0 Z" id="light" fill="#FFFFFF"></path>
                    </g>
                </g>
            </g>
        </g>
    </g>
</svg>