<svg width="531" height="294" viewBox="0 0 531 294" xmlns="http://www.w3.org/2000/svg"><g id="Templates" stroke="none" stroke-width="1" fill="none" fill-rule="evenodd"><g id="Maintenance-Page" transform="translate(-694 -329)"><g id="Group-2" transform="translate(695 331)"><g id="maintenance-illustration"><line x1=".5586" y1="290.8" x2="529.0413" y2="290.8" id="desk" stroke="#C4C4C4" stroke-width="1.6" stroke-linecap="square"/><g id="monitor" transform="translate(136.6 101)"><g id="stand" transform="translate(88.3026 159.4718)"><path d="M8.2634-.8h63.8681l9.3479 30.2538H-1.0845L8.2634-.8z" id="shadow" stroke="#C4C4C4" stroke-width="1.6" fill="#E3E3E3"/><path d="M22.3108 4.6128h35.1143c4.659 0 8.7494 3.0985 10.0113 7.5833l1.4586 5.1843c1.5027 5.3413-1.609 10.8894-6.9502 12.3922a10.0466 10.0466 0 0 1-2.721.3755H20.5121c-5.5486 0-10.0467-4.498-10.0467-10.0467 0-.9199.1264-1.8354.3755-2.721l1.4586-5.1843c1.2619-4.4848 5.3524-7.5833 10.0113-7.5833z" id="light" fill="#F3F3F3"/></g><g id="body"><rect id="shadow" stroke="#C4C4C4" stroke-width="1.6" fill="#F6F6F6" x="-.8" y="-.8" width="257.941" height="161.7308" rx="5.6"/><rect id="light" fill="#FFF" x="1.9769" y="1.9769" width="252.3872" height="154.859" rx="4"/></g><g id="logo" transform="translate(123.8872 146.2923)"><circle id="shadow" fill="#D8D8D8" cx="4.6128" cy="4.6128" r="4.6128"/><circle id="light" fill="#FFF" cx="4.2833" cy="3.6244" r="4.2833"/></g><g id="screen" transform="translate(9 8.6)"><rect id="shadow" stroke="#C4C4C4" stroke-width="1.6" fill="#FAFAFA" x="-.8" y="-.8" width="240.8" height="134.4" rx="2.4"/><rect id="light" fill="#FFF" x="5.6" y="2.4" width="228" height="123.2" rx="2.4"/></g></g><g id="keyboard" transform="translate(175 281.2)"><g id="keys" transform="translate(3.9574)" fill="#FFF" stroke="#C4C4C4" stroke-width="1.6"><path d="M136.6723 3.3223h9.6128V1.6a.8.8 0 0 0-.8-.8h-8.0128a.8.8 0 0 0-.8.8v1.7223z" id="key7"/><path d="M122.1617 3.3223h9.6128V1.6a.8.8 0 0 0-.8-.8h-8.0128a.8.8 0 0 0-.8.8v1.7223z" id="key6"/><path d="M107.651 3.3223h9.6128V1.6a.8.8 0 0 0-.8-.8h-8.0127a.8.8 0 0 0-.8.8v1.7223z" id="key5"/><path d="M44.332 3.3223h51.1659V1.6a.8.8 0 0 0-.8-.8h-49.566a.8.8 0 0 0-.8.8v1.7223z" id="space"/><path d="M29.8213 3.3223h9.6127V1.6a.8.8 0 0 0-.8-.8h-8.0127a.8.8 0 0 0-.8.8v1.7223z" id="key3"/><path d="M15.3106 3.3223h9.6128V1.6a.8.8 0 0 0-.8-.8h-8.0128a.8.8 0 0 0-.8.8v1.7223z" id="key2"/><path d="M.8 3.3223h9.6128V1.6a.8.8 0 0 0-.8-.8H1.6a.8.8 0 0 0-.8.8v1.7223z" id="key1"/></g><g id="board" transform="translate(0 3.9574)"><path d="M1.6-.8h151.8c1.3255 0 2.4 1.0745 2.4 2.4v3.817H-.8V1.6C-.8.2745.2745-.8 1.6-.8z" id="shadow" stroke="#C4C4C4" stroke-width="1.6" fill="#ECECEC"/><path d="M1.6 0h151.8c.8837 0 1.6.7163 1.6 1.6v.8734H0V1.6C0 .7163.7163 0 1.6 0z" id="light" fill="#FFF"/></g></g><g id="mouse" transform="translate(351.4 277.9)"><path d="M12-.8h5.3333c7.0693 0 12.8 5.7308 12.8 12.8v.8H-.8V12C-.8 4.9308 4.9308-.8 12-.8z" id="shadow" stroke="#C4C4C4" stroke-width="1.6" fill="#F3F3F3"/><path d="M17.3333 0c3.39 0 6.4518 1.4057 8.634 3.6661C25.6688 6.4774 23.29 8.6667 20.4 8.6667L.4692 8.666C1.914 3.6606 6.5295 0 12 0h5.3333z" id="Combined-Shape" fill="#FFF"/></g><g id="browser-element" transform="translate(163.2 85.6)"><rect id="screen" stroke="#C4C4C4" stroke-width="1.6" fill="#FFF" x="-.8" y="-.8" width="203.2" height="124" rx="2.4"/><g id="browser-bar"><path d="M2.4 0h196.8c1.3255 0 2.4 1.0745 2.4 2.4v8.9519H0V2.4C0 1.0745 1.0745 0 2.4 0z" id="BG" fill="#E0E0E0"/><rect id="plugin" fill="#C4C4C4" x="187.9322" y="3.0272" width="6.8339" height="5.2975" rx="1.6"/><rect id="search-bar" fill="#FFF" x="43.5661" y="3.0272" width="117.8847" height="5.2975" rx="1.6"/><g id="options" transform="translate(6.8339 3.784)" fill="#C4C4C4"><circle id="Oval" cx="14.8" cy="2" r="2"/><circle id="Oval" cx="8.4" cy="2" r="2"/><circle id="Oval" cx="2" cy="2" r="2"/></g></g></g><g id="crane" transform="translate(95.2)"><g id="hook" transform="translate(156 48.8)"><g transform="translate(6.4 21.6)"><g id="base" transform="translate(1.6)"><circle id="shadow" stroke="#C4C4C4" stroke-width="1.6" fill="#E1DEDE" cx="4.8" cy="4.8" r="5.6"/><circle id="light" fill="#F3F3F3" cx="4.8" cy="6.4" r="4.8"/></g><path d="M3.4557 17.6h5.8886c.813 0 1.7258-.7163 2.0388-1.6L12.8 12H0l1.4169 4c.313.8837 1.2258 1.6 2.0388 1.6z" id="element-bottom" stroke="#C4C4C4" stroke-width="1.6" fill="#FFF" stroke-linejoin="round"/><path d="M3.1763 6.4h6.4474c.8902 0 1.812.7163 2.0589 1.6L12.8 12H0l1.1174-4c.2469-.8837 1.1687-1.6 2.0589-1.6z" id="element-top" stroke="#C4C4C4" stroke-width="1.6" fill="#F3F3F3" stroke-linejoin="round"/></g><g id="ropes" transform="translate(10.4 11.2)" stroke="#C4C4C4" stroke-linecap="round" stroke-width="1.6"><line x1="4" y1="0" x2="4" y2="9.6" id="rope"/><line x1=".8" y1="0" x2=".8" y2="9.6" id="rope"/></g><g id="base"><g id="element-bottom" transform="translate(4)"><path d="M1.6-.8H16c1.3255 0 2.4 1.0745 2.4 2.4v3.6c0 3.3137-2.6863 6-6 6H5.2c-3.3137 0-6-2.6863-6-6V1.6C-.8.2745.2745-.8 1.6-.8z" id="shadow" stroke="#C4C4C4" stroke-width="1.6" fill="#E1DEDE"/><path d="M12.4 10.4H5.2C3.359 10.4 1.7415 9.4433.8175 8h15.965c-.924 1.4433-2.5416 2.4-4.3825 2.4z" id="Combined-Shape" fill="#F3F3F3"/></g><g id="element-top"><path d="M-.8-.8h27.2V4c0 1.3255-1.0745 2.4-2.4 2.4H1.6C.2745 6.4-.8 5.3255-.8 4V-.8z" id="shadow" stroke="#C4C4C4" stroke-width="1.6" fill="#E1DEDE"/><path d="M0 2.4h25.6V4c0 .8837-.7163 1.6-1.6 1.6H1.6C.7163 5.6 0 4.8837 0 4V2.4z" id="light" fill="#F3F3F3"/></g></g></g><g id="basic-scaffolding" transform="translate(312)"><g id="base" transform="translate(0 262.4)"><g id="element-bottom" transform="translate(0 12)"><path d="M1.6-.8h76.8c1.3255 0 2.4 1.0745 2.4 2.4V16H-.8V1.6C-.8.2745.2745-.8 1.6-.8z" id="shadow" stroke="#C4C4C4" stroke-width="1.6" fill="#E1DEDE"/><path d="M1.6 0H75v10.4c0 .8837-.7163 1.6-1.6 1.6H0V1.6C0 .7163.7163 0 1.6 0z" id="light" fill="#F4F4F4"/></g><g id="element-top" transform="translate(12)"><path d="M1.6-.8h52.8c1.3255 0 2.4 1.0745 2.4 2.4v9.6H-.8V1.6C-.8.2745.2745-.8 1.6-.8z" id="shadow" stroke="#C4C4C4" stroke-width="1.6" fill="#E1DEDE"/><path d="M1.6 0H53v6.4c0 .8837-.7163 1.6-1.6 1.6H0V1.6C0 .7163.7163 0 1.6 0z" id="light" fill="#F4F4F4"/></g></g><g id="element-bottom" transform="translate(20.8 231.2)"><path d="M1.6-.8h35.2c1.3255 0 2.4 1.0745 2.4 2.4v28.8h-40V1.6C-.8.2745.2745-.8 1.6-.8z" id="shadow" stroke="#C4C4C4" stroke-width="1.6" fill="#F3F3F3"/><path d="M1.6 0H31v25.4c0 .8837-.7163 1.6-1.6 1.6H0V1.6C0 .7163.7163 0 1.6 0z" id="light" fill="#FFF"/></g><g id="element-middle" transform="translate(28.8 105.6)"><path d="M1.6-.8h19.2c1.3255 0 2.4 1.0745 2.4 2.4v123.2h-24V1.6C-.8.2745.2745-.8 1.6-.8z" id="shadow" stroke="#C4C4C4" stroke-width="1.6" fill="#F3F3F3"/><path d="M1.6 0H16v124H0V1.6C0 .7163.7163 0 1.6 0z" id="light" fill="#FFF"/></g><g id="element-top" transform="translate(35.2)"><path d="M4.8-.8c3.0928 0 5.6 2.5072 5.6 5.6v100H-.8V4.8c0-3.0928 2.5072-5.6 5.6-5.6z" id="shadow" stroke="#C4C4C4" stroke-width="1.6" fill="#E1DEDE"/><path d="M3 3c1.6569 0 3 1.3431 3 3v98H0V6c0-1.6569 1.3431-3 3-3z" id="light" fill="#F4F4F4"/></g><g id="driver's-cab" transform="translate(4.8 62.4)"><g id="cab"><path d="M23.0699-.8H27.2c1.3255 0 2.4 1.0745 2.4 2.4v28c0 1.3255-1.0745 2.4-2.4 2.4H1.6C.2745 32-.8 30.9255-.8 29.6V15.849a2.4 2.4 0 0 1 1.0729-1.9997L21.7428-.3997A2.4 2.4 0 0 1 23.0699-.8z" id="shadow" stroke="#C4C4C4" stroke-width="1.6" fill="#F3F3F3"/><path d="M23.0343 2.4h1.0383c.8436 0 1.5274.6838 1.5274 1.5274V29.6c0 .8837-.7163 1.6-1.6 1.6H1.6c-.8837 0-1.6-.7163-1.6-1.6V18.4569a1.6 1.6 0 0 1 .7053-1.3265L22.1396 2.6735a1.6 1.6 0 0 1 .8947-.2735z" id="light" fill="#FFF"/></g><g id="window" transform="translate(3.2 4.8)"><path d="M19.739-.8h.69c1.0899 0 1.9734.8835 1.9734 1.9735V11.206c0 1.3255-1.0745 2.4-2.4 2.4H2.6475c-.8836 0-1.6-.7163-1.6-1.6a1.6 1.6 0 0 1 .714-1.3322L18.4099-.3984A2.4 2.4 0 0 1 19.739-.8z" id="shadow" stroke="#C4C4C4" stroke-width="1.6" fill="#E1DEDE"/><path d="M18.539.8h.69c.648 0 1.1734.5254 1.1734 1.1735v9.2326c0 .8837-.7163 1.6-1.6 1.6H2.648a.8.8 0 0 1-.443-1.4661L17.653 1.0677A1.6 1.6 0 0 1 18.539.8z" id="light" fill="#F4F4F4"/><g id="light-reflection" transform="translate(8.2 3.8)" stroke="#FFF" stroke-linecap="round" stroke-width="1.6"><line x1="6.1" y1="5.5" x2="9.1" y2="3.5" id="element-2"/><line x1=".4" y1="6" x2="9.2" y2=".4" id="element-1"/></g></g></g></g><g id="steering-frame" transform="translate(0 4.8)"><g id="ropes" transform="translate(100.8)" stroke="#C4C4C4" stroke-linecap="round" stroke-width="1.6"><path d="M242.4 44s-29.0915 13.6-81.9885 13.6C132.4038 57.6 107.2 53.0667 84.8 44" id="hook-rope"/><line x1="256.8" y1="0" x2="303.2" y2="26.4" id="rope"/><line x1="245.6" y1="0" x2="0" y2="32.8" id="rope"/></g><g id="weight" transform="translate(374.4 27.2)"><rect id="shadow" stroke="#C4C4C4" stroke-width="1.6" fill="#E1DEDE" x="-.8" y="-.8" width="40" height="37.6" rx="1.6"/><path d="M0 19h30.4c.8837 0 1.6.7163 1.6 1.6V36H1.6C.7163 36 0 35.2837 0 34.4V19z" id="light" fill="#F4F4F4"/></g><g id="element-right" transform="translate(362.4 32.8)"><path d="m66.4706 6.4562-2.6292-1.9041A26.0514 26.0514 0 0 0 48.5609-.4H10C4.2562-.4-.4 4.2562-.4 10v.8h65.463c1.3254 0 2.4-1.0745 2.4-2.4a2.4 2.4 0 0 0-.9924-1.9438z" id="shadow" stroke="#C4C4C4" stroke-width="1.6" fill="#F3F3F3"/><path d="M34.067-20.2208 34.7-19.18a24.729 24.729 0 0 1 3.6 12.8487v37.0287c0 3.8719-3.1388 7.0107-7.0107 7.0107a7.0106 7.0106 0 0 1-.1893-.0025v-57.095c0-.8837.7163-1.6 1.6-1.6a1.6 1.6 0 0 1 1.367.7686z" id="light" fill="#FFF" transform="matrix(0 -1 -1 0 41.1 41.1)"/></g><g id="element-middle" transform="translate(343.2 18.4)"><rect id="shadow" stroke="#C4C4C4" stroke-width="1.6" fill="#F3F3F3" x="-.8" y="-.8" width="19.2" height="29.6" rx="1.6"/><path d="M0 2.4h12c.8837 0 1.6.7163 1.6 1.6v22.4c0 .8837-.7163 1.6-1.6 1.6H1.6C.7163 28 0 27.2837 0 26.4v-24z" id="light" fill="#FFF"/></g><g id="element-left" transform="translate(0 33.6)"><path d="M4.2708 5.9685 7.205 4.1228A32.0637 32.0637 0 0 1 24.277-.8H331.2c5.7438 0 10.4 4.6562 10.4 10.4v.8H5.5487c-1.3255 0-2.4-1.0745-2.4-2.4a2.4 2.4 0 0 1 1.1221-2.0315z" id="shadow" stroke="#C4C4C4" stroke-width="1.6" fill="#F3F3F3"/><path d="m169.8649-157.1869 1.6351 2.8173a25.9033 25.9033 0 0 1 3.5 13.0028V165.6c0 3.866-3.134 7-7 7v-329.285c0-.5522.4477-1 1-1a1 1 0 0 1 .8649.4981z" id="light" fill="#FFF" transform="rotate(-90 171.5 6.1)"/></g></g></g><g id="books" transform="translate(23 258.8)"><g id="book-large" transform="translate(8 18.4)"><rect id="shadow" stroke="#C4C4C4" stroke-width="1.6" fill="#ECECEC" x="-.8" y="-.8" width="96.8" height="14.4" rx="1.6"/><path d="M4.4 0h89.2c.8837 0 1.6.7163 1.6 1.6V10H6c-.8837 0-1.6-.7163-1.6-1.6V0z" id="light" fill="#FFF"/><g id="bond-left" transform="translate(17.6)"><rect id="shadow" stroke="#C4C4C4" stroke-width="1.6" fill="#DDDCDC" x="-.8" y="-.8" width="8.8" height="14.4"/><path d="M2.4 0h4.8v10H3.4c-.5523 0-1-.4477-1-1V0z" id="light" fill="#F3F3F3"/></g><g id="bond-right" transform="translate(69.6)"><rect id="shadow" stroke="#C4C4C4" stroke-width="1.6" fill="#DDDCDC" x="-.8" y="-.8" width="8.8" height="14.4"/><path d="M2.4 0h4.8v10H3.4c-.5523 0-1-.4477-1-1V0z" id="light" fill="#F3F3F3"/></g></g><g id="book-medium" transform="translate(0 6.2)"><rect id="shadow" stroke="#C4C4C4" stroke-width="1.6" fill="#ECECEC" x="-.8" y=".2" width="96.8" height="11.2" rx="1.6"/><path d="M4 1h89.6c.8837 0 1.6.7163 1.6 1.6v5.6H5.6C4.7163 8.2 4 7.4837 4 6.6V1z" id="light" fill="#FFF"/><g id="bond-right" transform="translate(17.6 .2)"><rect id="shadow" stroke="#C4C4C4" stroke-width="1.6" fill="#DDDCDC" x="-.8" y="-.6" width="8.8" height="11.8"/><path d="M2.4.8h4.8v7.2889H3.4c-.5523 0-1-.4477-1-1V.8z" id="light" fill="#F3F3F3"/></g><g id="bond-left" transform="translate(69.6 .2)"><rect id="shadow" stroke="#C4C4C4" stroke-width="1.6" fill="#DDDCDC" x="-.8" y="-.6" width="8.8" height="11.8"/><path d="M2.4.8h4.8v7.2889H3.4c-.5523 0-1-.4477-1-1V.8z" id="light" fill="#F3F3F3"/></g></g><g id="magazine" transform="translate(15.2)"><rect id="shadow" stroke="#C4C4C4" stroke-width="1.6" fill="#ECECEC" x="-.8" y="-.8" width="71.2" height="7.2" rx="1.6"/><path d="M3.2 0H68c.8837 0 1.6.7163 1.6 1.6V4H4.8c-.8837 0-1.6-.7163-1.6-1.6V0z" id="light" fill="#FFF"/></g></g><g id="plant" transform="matrix(-1 0 0 1 109 128)"><g id="leaf"><g id="leaf-middle"><path d="M25.2979 23.8187c4.668-6.7073 8.3662-14.7207 11.0917-24.0432l.3912-1.3382.958 1.013c17.3537 18.354 18.3377 46.7537 2.2958 66.2647L29.9267 78.0087l-.6232-.659c-13.845-14.643-15.5172-36.9907-4.0056-53.531z" id="shadow" stroke="#C4C4C4" stroke-width="1.6" fill="#D8D8D8"/><path d="M32.2166 55.607 22.931 66.901c-6.7507-13.4024-5.9063-29.7947 3.0235-42.6254 4.6996-6.7525 8.4221-14.8042 11.1676-24.155 9.7723 17.3721 8.2615 39.472-4.9055 55.4864z" id="Combined-Shape" fill="#F3F3F3"/></g><g id="leaf-left" transform="translate(.8 47.2)"><path d="M8.4802-.6542C12.2251 1.981 16.5637 3.984 21.4999 5.354c20.0603 5.5672 32.574 25.5026 28.8675 45.9884l-.1367.7554-5.722-.7933C20.4243 47.9652 3.6071 25.7339 6.9464 1.6495a43.931 43.931 0 0 1 .2862-1.792l.223-1.2327 1.0246.721z" id="shadow" stroke="#C4C4C4" stroke-width="1.6" fill="#D8D8D8"/><path d="m9.6622 1.0913.0323.0217a39.4567 39.4567 0 0 0 2.838 1.6186c13.1745 8.2702 20.5978 23.8534 17.952 39.8662l-.1043.6022-4.9616-.688-.6162-.089C12.5372 33.3105 5.4924 17.962 7.7388 1.7594A43.019 43.019 0 0 1 7.9181.5852L7.9729.27a39.3289 39.3289 0 0 1 1.6893.8213z" id="Combined-Shape" fill="#F3F3F3"/></g><g id="leaf-right" transform="translate(19.2 37.6)"><path d="M25.7622 14.3239c3.9091-3.3833 7.3667-8.2691 10.3639-14.6634l.697-1.4872.7413 1.4657c10.3506 20.4664 2.233 45.45-18.1705 55.9241l-1.395.7162-.3633-.7183c-7.0714-13.9824-3.721-30.983 8.1266-41.2371z" id="shadow" stroke="#C4C4C4" stroke-width="1.6" fill="#D8D8D8"/><path d="m15.8286 46.8514-.3537.1815c-2.459-11.651 1.4738-24.023 10.8109-32.104 3.959-3.4266 7.4484-8.3344 10.468-14.7235 4.7168 18.1372-3.5757 37.7397-20.9252 46.646z" id="Combined-Shape" fill="#F3F3F3"/></g></g><g id="pot" transform="translate(5.6 78.4)"><g id="element2" transform="translate(4 .8)"><path d="M2.7241-.8h45.7454c1.7674 0 3.2 1.4327 3.2 3.2a3.2 3.2 0 0 1-.0264.4105L45.4353 50.8H5.6458L-.4504 2.8032C-.673 1.05.5676-.5518 2.321-.7745A3.2 3.2 0 0 1 2.7241-.8z" id="shadow" stroke="#C4C4C4" stroke-width="1.6" fill="#ECECEC"/><path d="M1.9596 12h38.5618c1.3255 0 2.4 1.0745 2.4 2.4a2.4 2.4 0 0 1-.0144.2625L39.0185 50H6.3505L1.5629 12.4506A.4.4 0 0 1 1.9596 12z" id="light" fill="#FFF"/></g><g id="element1"><path d="M5.1444-.8h50.7092c1.8883 0 3.9487 1.25 4.6844 2.869.3258.717.3551 1.4603.0303 2.1344l-2.1858 4.0335C57.8467 9.1213 56.7448 9.6 55.45 9.6H5.5479c-1.2947 0-2.3966-.4787-2.9515-1.3966l-2.187-4.04C-.3187 2.6178.8952.7029 2.8937-.253 3.6251-.6076 4.4086-.8 5.1444-.8z" id="shadow" stroke="#C4C4C4" stroke-width="1.6" fill="#ECECEC"/><path d="M4.9444 0h43.7092c1.5826 0 3.3538 1.0745 3.9561 2.4.2326.5118.2532 1.0102.0552 1.4224l-2.1667 4c-.3724.6147-1.21.9776-2.2481.9776H5.3479c-1.038 0-1.8757-.363-2.2481-.9776l-2.1667-4c-.503-1.0676.467-2.57 2.1095-3.3555C3.6683.1636 4.3333 0 4.9444 0z" id="light" fill="#FFF"/></g></g></g></g></g></g></g></svg>