<?xml version="1.0" encoding="UTF-8"?>
<svg width="531px" height="294px" viewBox="0 0 531 294" version="1.1" xmlns="http://www.w3.org/2000/svg" xmlns:xlink="http://www.w3.org/1999/xlink">
    <!-- Generator: sketchtool 60.1 (101010) - https://sketch.com -->
    <title>FC6752E6-4D4B-44F5-9C72-6AAB6B681791@1.00x</title>
    <desc>Created with sketchtool.</desc>
    <g id="Templates" stroke="none" stroke-width="1" fill="none" fill-rule="evenodd">
        <g id="Maintenance-Page" transform="translate(-694.000000, -329.000000)">
            <g id="Group-2" transform="translate(695.000000, 331.000000)">
                <g id="maintenance-illustration">
                    <line x1="0.558649789" y1="290.8" x2="529.04135" y2="290.8" id="desk" stroke="#C4C4C4" stroke-width="1.6" stroke-linecap="square"></line>
                    <g id="monitor" transform="translate(136.600000, 101.000000)">
                        <g id="stand" transform="translate(88.302564, 159.471795)">
                            <path d="M8.26336749,-0.8 L72.1315043,-0.8 L81.4793741,29.4538462 L-1.08450235,29.4538462 L8.26336749,-0.8 Z" id="shadow" stroke="#C4C4C4" stroke-width="1.6" fill="#E3E3E3"></path>
                            <path d="M22.3108419,4.61282051 L57.4250556,4.61282051 C62.0840231,4.61282051 66.1745398,7.71127931 67.4363589,12.1961195 L68.8949808,17.3804487 C70.3977454,22.7216733 67.2860588,28.2698227 61.9448343,29.7725873 C61.0593037,30.0217332 60.1437502,30.1480769 59.2238382,30.1480769 L20.5120592,30.1480769 C14.9634575,30.1480769 10.4654271,25.6500465 10.4654271,20.1014448 C10.4654271,19.1815328 10.5917708,18.2659793 10.8409167,17.3804487 L12.2995385,12.1961195 C13.5613576,7.71127931 17.6518743,4.61282051 22.3108419,4.61282051 Z" id="light" fill="#F3F3F3"></path>
                        </g>
                        <g id="body">
                            <rect id="shadow" stroke="#C4C4C4" stroke-width="1.6" fill="#F6F6F6" x="-0.8" y="-0.8" width="257.941026" height="161.730769" rx="5.6"></rect>
                            <rect id="light" fill="#FFFFFF" x="1.97692308" y="1.97692308" width="252.387179" height="154.858974" rx="4"></rect>
                        </g>
                        <g id="logo" transform="translate(123.887179, 146.292308)">
                            <circle id="shadow" fill="#D8D8D8" cx="4.61282051" cy="4.61282051" r="4.61282051"></circle>
                            <circle id="light" fill="#FFFFFF" cx="4.28333333" cy="3.62435897" r="4.28333333"></circle>
                        </g>
                        <g id="screen" transform="translate(9.000000, 8.600000)">
                            <rect id="shadow" stroke="#C4C4C4" stroke-width="1.6" fill="#FAFAFA" x="-0.8" y="-0.8" width="240.8" height="134.4" rx="2.4"></rect>
                            <rect id="light" fill="#FFFFFF" x="5.6" y="2.4" width="228" height="123.2" rx="2.4"></rect>
                        </g>
                    </g>
                    <g id="keyboard" transform="translate(175.000000, 281.200000)">
                        <g id="keys" transform="translate(3.957447, 0.000000)" fill="#FFFFFF" stroke="#C4C4C4" stroke-width="1.6">
                            <path d="M136.67234,3.32234043 L146.285106,3.32234043 L146.285106,1.6 C146.285106,1.1581722 145.926934,0.8 145.485106,0.8 L137.47234,0.8 C137.030513,0.8 136.67234,1.1581722 136.67234,1.6 L136.67234,3.32234043 Z" id="key7"></path>
                            <path d="M122.161702,3.32234043 L131.774468,3.32234043 L131.774468,1.6 C131.774468,1.1581722 131.416296,0.8 130.974468,0.8 L122.961702,0.8 C122.519874,0.8 122.161702,1.1581722 122.161702,1.6 L122.161702,3.32234043 Z" id="key6"></path>
                            <path d="M107.651064,3.32234043 L117.26383,3.32234043 L117.26383,1.6 C117.26383,1.1581722 116.905658,0.8 116.46383,0.8 L108.451064,0.8 C108.009236,0.8 107.651064,1.1581722 107.651064,1.6 L107.651064,3.32234043 Z" id="key5"></path>
                            <path d="M44.3319149,3.32234043 L95.4978723,3.32234043 L95.4978723,1.6 C95.4978723,1.1581722 95.1397001,0.8 94.6978723,0.8 L45.1319149,0.8 C44.6900871,0.8 44.3319149,1.1581722 44.3319149,1.6 L44.3319149,3.32234043 Z" id="space"></path>
                            <path d="M29.8212766,3.32234043 L39.4340426,3.32234043 L39.4340426,1.6 C39.4340426,1.1581722 39.0758704,0.8 38.6340426,0.8 L30.6212766,0.8 C30.1794488,0.8 29.8212766,1.1581722 29.8212766,1.6 L29.8212766,3.32234043 Z" id="key3"></path>
                            <path d="M15.3106383,3.32234043 L24.9234043,3.32234043 L24.9234043,1.6 C24.9234043,1.1581722 24.5652321,0.8 24.1234043,0.8 L16.1106383,0.8 C15.6688105,0.8 15.3106383,1.1581722 15.3106383,1.6 L15.3106383,3.32234043 Z" id="key2"></path>
                            <path d="M0.8,3.32234043 L10.412766,3.32234043 L10.412766,1.6 C10.412766,1.1581722 10.0545938,0.8 9.61276596,0.8 L1.6,0.8 C1.1581722,0.8 0.8,1.1581722 0.8,1.6 L0.8,3.32234043 Z" id="key1"></path>
                        </g>
                        <g id="board" transform="translate(0.000000, 3.957447)">
                            <path d="M1.6,-0.8 L153.4,-0.8 C154.725483,-0.8 155.8,0.2745166 155.8,1.6 L155.8,5.41702128 L-0.8,5.41702128 L-0.8,1.6 C-0.8,0.2745166 0.2745166,-0.8 1.6,-0.8 Z" id="shadow" stroke="#C4C4C4" stroke-width="1.6" fill="#ECECEC"></path>
                            <path d="M1.6,0 L153.4,0 C154.283656,-3.84369505e-16 155,0.7163444 155,1.6 L155,2.47340426 L155,2.47340426 L0,2.47340426 L0,1.6 C-3.30261205e-16,0.7163444 0.7163444,-5.97197047e-17 1.6,0 Z" id="light" fill="#FFFFFF"></path>
                        </g>
                    </g>
                    <g id="mouse" transform="translate(351.400000, 277.900000)">
                        <path d="M12,-0.8 L17.3333333,-0.8 C24.4025781,-0.8 30.1333333,4.9307552 30.1333333,12 L30.1333333,12.8 L-0.8,12.8 L-0.8,12 C-0.8,4.9307552 4.9307552,-0.8 12,-0.8 Z" id="shadow" stroke="#C4C4C4" stroke-width="1.6" fill="#F3F3F3"></path>
                        <path d="M17.3333333,0 C20.7233877,1.19454015e-15 23.7851117,1.40574925 25.9673844,3.66612676 C25.6687421,6.47742626 23.2900333,8.66666667 20.4,8.66666667 L0.469226839,8.66595766 C1.91391738,3.66061194 6.52946783,1.00492046e-15 12,0 L17.3333333,0 Z" id="Combined-Shape" fill="#FFFFFF"></path>
                    </g>
                    <g id="browser-element" transform="translate(163.200000, 85.600000)">
                        <rect id="screen" stroke="#C4C4C4" stroke-width="1.6" fill="#FFFFFF" x="-0.8" y="-0.8" width="203.2" height="124" rx="2.4"></rect>
                        <g id="browser-bar" transform="translate(-0.000000, 0.000000)">
                            <path d="M2.4,6.08402217e-13 L199.2,6.08402217e-13 C200.525483,6.23463185e-13 201.6,1.0745166 201.6,2.4 L201.6,11.3518777 L201.6,11.3518777 L0,11.3518777 L0,2.4 C-1.623249e-16,1.0745166 1.0745166,6.09089794e-13 2.4,6.08402217e-13 Z" id="BG" fill="#E0E0E0"></path>
                            <rect id="plugin" fill="#C4C4C4" x="187.932203" y="3.02716738" width="6.83389831" height="5.29754291" rx="1.6"></rect>
                            <rect id="search-bar" fill="#FFFFFF" x="43.5661017" y="3.02716738" width="117.884746" height="5.29754291" rx="1.6"></rect>
                            <g id="options" transform="translate(6.833898, 3.783959)" fill="#C4C4C4">
                                <circle id="Oval" cx="14.8" cy="2" r="2"></circle>
                                <circle id="Oval" cx="8.4" cy="2" r="2"></circle>
                                <circle id="Oval" cx="2" cy="2" r="2"></circle>
                            </g>
                        </g>
                    </g>
                    <g id="crane" transform="translate(95.200000, -0.000000)">
                        <g id="hook" transform="translate(156.000000, 48.800000)">
                            <g transform="translate(6.400000, 21.600000)">
                                <g id="base" transform="translate(1.600000, 0.000000)">
                                    <circle id="shadow" stroke="#C4C4C4" stroke-width="1.6" fill="#E1DEDE" cx="4.8" cy="4.8" r="5.6"></circle>
                                    <circle id="light" fill="#F3F3F3" cx="4.8" cy="6.4" r="4.8"></circle>
                                </g>
                                <path d="M3.45573174,17.6 L9.34426826,17.6 C10.1573055,17.6 11.0701415,16.8836556 11.3831446,16 L12.8,12 L0,12 L1.41685544,16 C1.7298585,16.8836556 2.64269452,17.6 3.45573174,17.6 Z" id="element-bottom" stroke="#C4C4C4" stroke-width="1.6" fill="#FFFFFF" stroke-linejoin="round"></path>
                                <path d="M3.17627158,6.4 L9.62372842,6.4 C10.5139364,6.4 11.4357095,7.1163444 11.6825662,8 L12.8,12 L0,12 L1.11743383,8 C1.3642905,7.1163444 2.28606355,6.4 3.17627158,6.4 Z" id="element-top" stroke="#C4C4C4" stroke-width="1.6" fill="#F3F3F3" stroke-linejoin="round"></path>
                            </g>
                            <g id="ropes" transform="translate(10.400000, 11.200000)" stroke="#C4C4C4" stroke-linecap="round" stroke-width="1.6">
                                <line x1="4" y1="0" x2="4" y2="9.6" id="rope"></line>
                                <line x1="0.8" y1="0" x2="0.8" y2="9.6" id="rope"></line>
                            </g>
                            <g id="base">
                                <g id="element-bottom" transform="translate(4.000000, 0.000000)">
                                    <path d="M1.6,-0.8 L16,-0.8 C17.3254834,-0.8 18.4,0.2745166 18.4,1.6 L18.4,5.2 C18.4,8.5137085 15.7137085,11.2 12.4,11.2 L5.2,11.2 C1.8862915,11.2 -0.8,8.5137085 -0.8,5.2 L-0.8,1.6 C-0.8,0.2745166 0.2745166,-0.8 1.6,-0.8 Z" id="shadow" stroke="#C4C4C4" stroke-width="1.6" fill="#E1DEDE"></path>
                                    <path d="M12.4,10.4 L5.2,10.4 C3.35905083,10.4 1.74154077,9.44334348 0.817480971,8.00004161 L16.782519,8.00004161 C15.8584592,9.44334348 14.2409492,10.4 12.4,10.4 Z" id="Combined-Shape" fill="#F3F3F3"></path>
                                </g>
                                <g id="element-top">
                                    <path d="M-0.8,-0.8 L26.4,-0.8 L26.4,4 C26.4,5.3254834 25.3254834,6.4 24,6.4 L1.6,6.4 C0.2745166,6.4 -0.8,5.3254834 -0.8,4 L-0.8,-0.8 Z" id="shadow" stroke="#C4C4C4" stroke-width="1.6" fill="#E1DEDE"></path>
                                    <path d="M0,2.4 L25.6,2.4 L25.6,4 C25.6,4.8836556 24.8836556,5.6 24,5.6 L1.6,5.6 C0.7163444,5.6 -5.57917215e-16,4.8836556 0,4 L0,2.4 L0,2.4 Z" id="light" fill="#F3F3F3"></path>
                                </g>
                            </g>
                        </g>
                        <g id="basic-scaffolding" transform="translate(312.000000, 0.000000)">
                            <g id="base" transform="translate(0.000000, 262.400000)">
                                <g id="element-bottom" transform="translate(0.000000, 12.000000)">
                                    <path d="M1.6,-0.8 L78.4,-0.8 C79.7254834,-0.8 80.8,0.2745166 80.8,1.6 L80.8,16 L-0.8,16 L-0.8,1.6 C-0.8,0.2745166 0.2745166,-0.8 1.6,-0.8 Z" id="shadow" stroke="#C4C4C4" stroke-width="1.6" fill="#E1DEDE"></path>
                                    <path d="M1.6,-1.8189894e-12 L75,-1.8189894e-12 L75,-1.8189894e-12 L75,10.4 C75,11.2836556 74.2836556,12 73.4,12 L0,12 L0,12 L0,1.6 C3.3587261e-16,0.7163444 0.7163444,-1.81927117e-12 1.6,-1.8189894e-12 Z" id="light" fill="#F4F4F4"></path>
                                </g>
                                <g id="element-top" transform="translate(12.000000, 0.000000)">
                                    <path d="M1.6,-0.8 L54.4,-0.8 C55.7254834,-0.8 56.8,0.2745166 56.8,1.6 L56.8,11.2 L-0.8,11.2 L-0.8,1.6 C-0.8,0.2745166 0.2745166,-0.8 1.6,-0.8 Z" id="shadow" stroke="#C4C4C4" stroke-width="1.6" fill="#E1DEDE"></path>
                                    <path d="M1.6,-1.8189894e-12 L53,-1.8189894e-12 L53,-1.8189894e-12 L53,6.4 C53,7.2836556 52.2836556,8 51.4,8 L0,8 L0,8 L0,1.6 C1.13828005e-16,0.7163444 0.7163444,-1.81927117e-12 1.6,-1.8189894e-12 Z" id="light" fill="#F4F4F4"></path>
                                </g>
                            </g>
                            <g id="element-bottom" transform="translate(20.800000, 231.200000)">
                                <path d="M1.6,-0.8 L36.8,-0.8 C38.1254834,-0.8 39.2,0.2745166 39.2,1.6 L39.2,30.4 L-0.8,30.4 L-0.8,1.6 C-0.8,0.2745166 0.2745166,-0.8 1.6,-0.8 Z" id="shadow" stroke="#C4C4C4" stroke-width="1.6" fill="#F3F3F3"></path>
                                <path d="M1.6,9.09494702e-13 L31,9.09494702e-13 L31,9.09494702e-13 L31,25.4 C31,26.2836556 30.2836556,27 29.4,27 L0,27 L0,27 L0,1.6 C-1.082166e-16,0.7163444 0.7163444,9.07436581e-13 1.6,9.09494702e-13 Z" id="light" fill="#FFFFFF"></path>
                            </g>
                            <g id="element-middle" transform="translate(28.800000, 105.600000)">
                                <path d="M1.6,-0.8 L20.8,-0.8 C22.1254834,-0.8 23.2,0.2745166 23.2,1.6 L23.2,124.8 L-0.8,124.8 L-0.8,1.6 C-0.8,0.2745166 0.2745166,-0.8 1.6,-0.8 Z" id="shadow" stroke="#C4C4C4" stroke-width="1.6" fill="#F3F3F3"></path>
                                <path d="M1.6,0 L16,0 L16,0 L16,124 L0,124 L0,1.6 C-1.082166e-16,0.7163444 0.7163444,8.60001989e-15 1.6,0 Z" id="light" fill="#FFFFFF"></path>
                            </g>
                            <g id="element-top" transform="translate(35.200000, 0.000000)">
                                <path d="M4.8,-0.8 C7.8927946,-0.8 10.4,1.7072054 10.4,4.8 L10.4,104.8 L-0.8,104.8 L-0.8,4.8 C-0.8,1.7072054 1.7072054,-0.8 4.8,-0.8 Z" id="shadow" stroke="#C4C4C4" stroke-width="1.6" fill="#E1DEDE"></path>
                                <path d="M3,3 C4.65685425,3 6,4.34314575 6,6 L6,104 L6,104 L0,104 L0,6 C-2.02906125e-16,4.34314575 1.34314575,3 3,3 Z" id="light" fill="#F4F4F4"></path>
                            </g>
                            <g id="driver's-cab" transform="translate(4.800000, 62.400000)">
                                <g id="cab">
                                    <path d="M23.0699024,-0.8 L27.2,-0.8 C28.5254834,-0.8 29.6,0.2745166 29.6,1.6 L29.6,29.6 C29.6,30.9254834 28.5254834,32 27.2,32 L1.6,32 C0.2745166,32 -0.8,30.9254834 -0.8,29.6 L-0.8,15.8489678 C-0.8,15.0447545 -0.397202187,14.2939943 0.272868538,13.8492873 L21.742771,-0.399680495 C22.1361437,-0.660750846 22.5977798,-0.8 23.0699024,-0.8 Z" id="shadow" stroke="#C4C4C4" stroke-width="1.6" fill="#F3F3F3"></path>
                                    <path d="M23.0343145,2.4 L24.072583,2.4 C24.9161521,2.4 25.6,3.08384788 25.6,3.92741699 L25.6,29.6 C25.6,30.4836556 24.8836556,31.2 24,31.2 L1.6,31.2 C0.7163444,31.2 -2.27709548e-13,30.4836556 -2.27373675e-13,29.6 L-2.27373675e-13,18.4568934 C-2.27216771e-13,17.9249804 0.264339656,17.4278439 0.705322586,17.1304123 L22.1396371,2.67351882 C22.4039517,2.49524542 22.7154985,2.4 23.0343145,2.4 Z" id="light" fill="#FFFFFF"></path>
                                </g>
                                <g id="window" transform="translate(3.200000, 4.800000)">
                                    <g>
                                        <path d="M19.738984,-0.8 L20.4289646,-0.8 C21.5188718,-0.8 22.4024162,0.0835443889 22.4024162,1.17345163 L22.4024162,11.2061342 C22.4024162,12.5316176 21.3278996,13.6061342 20.0024162,13.6061342 L2.64752169,13.6061342 C1.76386609,13.6061342 1.04752169,12.8897898 1.04752169,12.0061342 C1.04752169,11.4705393 1.31550919,10.970468 1.76148081,10.6738686 L18.4099226,-0.398398358 C18.8037002,-0.660285362 19.2660721,-0.8 19.738984,-0.8 Z" id="shadow" stroke="#C4C4C4" stroke-width="1.6" fill="#E1DEDE"></path>
                                        <path d="M18.5389195,0.8 L19.2289646,0.8 C19.877044,0.8 20.4024162,1.32537219 20.4024162,1.97345163 L20.4024162,11.2061342 C20.4024162,12.0897898 19.6860718,12.8061342 18.8024162,12.8061342 L2.64787499,12.8061342 C2.20604719,12.8061342 1.84787499,12.447962 1.84787499,12.0061342 C1.84787499,11.7383158 1.98188956,11.4882635 2.20490377,11.3399687 L17.652977,1.06766896 C17.9154748,0.893119322 18.2236852,0.8 18.5389195,0.8 Z" id="light" fill="#F4F4F4"></path>
                                    </g>
                                    <g id="light-reflection" transform="translate(8.200000, 3.800000)" stroke="#FFFFFF" stroke-linecap="round" stroke-width="1.6">
                                        <line x1="6.1" y1="5.5" x2="9.1" y2="3.5" id="element-2"></line>
                                        <line x1="0.4" y1="6" x2="9.2" y2="0.4" id="element-1"></line>
                                    </g>
                                </g>
                            </g>
                        </g>
                        <g id="steering-frame" transform="translate(0.000000, 4.800000)">
                            <g id="ropes" transform="translate(100.800000, 0.000000)" stroke="#C4C4C4" stroke-linecap="round" stroke-width="1.6">
                                <path d="M242.4,44 C242.4,44 213.30855,57.6 160.411453,57.6 C132.403818,57.6 107.2,53.0666667 84.8,44" id="hook-rope"></path>
                                <line x1="256.8" y1="6.56541488e-13" x2="303.2" y2="26.4" id="rope"></line>
                                <line x1="245.6" y1="7.57438556e-13" x2="0" y2="32.8" id="rope"></line>
                            </g>
                            <g id="weight" transform="translate(374.400000, 27.200000)">
                                <rect id="shadow" stroke="#C4C4C4" stroke-width="1.6" fill="#E1DEDE" x="-0.8" y="-0.8" width="40" height="37.6" rx="1.6"></rect>
                                <path d="M0,19 L30.4,19 C31.2836556,19 32,19.7163444 32,20.6 L32,36 L32,36 L1.6,36 C0.7163444,36 1.44048423e-15,35.2836556 0,34.4 L0,19 L0,19 Z" id="light" fill="#F4F4F4"></path>
                            </g>
                            <g id="element-right" transform="translate(362.400000, 32.800000)">
                                <path d="M33.9437878,-26.0706373 L35.8479293,-23.4413968 C39.0669003,-18.9966384 40.8,-13.6488479 40.8,-8.16089266 L40.8,30.4 C40.8,36.1437614 36.1437614,40.8 30.4,40.8 L29.6,40.8 L29.6,-24.6629125 C29.6,-25.9883959 30.6745166,-27.0629125 32,-27.0629125 C32.7695412,-27.0629125 33.4924118,-26.6938976 33.9437878,-26.0706373 Z" id="shadow" stroke="#C4C4C4" stroke-width="1.6" fill="#F3F3F3" transform="translate(35.200000, 5.200000) scale(-1, 1) rotate(-90.000000) translate(-35.200000, -5.200000) "></path>
                                <path d="M34.0670743,-20.2208107 L34.7,-19.1799995 C37.0546607,-15.3078905 38.3,-10.8631827 38.3,-6.33133362 L38.3,30.6973747 C38.3,34.5692947 35.1611887,37.708106 31.2892687,37.708106 C31.2261705,37.708106 31.1630752,37.7072542 31.1,37.7055507 L31.1,37.7055507 L31.1,37.7055507 L31.1,-19.3894818 C31.1,-20.2731374 31.8163444,-20.9894818 32.7,-20.9894818 C33.2586337,-20.9894818 33.7768191,-20.6981194 34.0670743,-20.2208107 Z" id="light" fill="#FFFFFF" transform="translate(34.700000, 6.400000) scale(-1, 1) rotate(-90.000000) translate(-34.700000, -6.400000) "></path>
                            </g>
                            <g id="element-middle" transform="translate(343.200000, 18.400000)">
                                <rect id="shadow" stroke="#C4C4C4" stroke-width="1.6" fill="#F3F3F3" x="-0.8" y="-0.8" width="19.2" height="29.6" rx="1.6"></rect>
                                <path d="M0,2.4 L12,2.4 C12.8836556,2.4 13.6,3.1163444 13.6,4 L13.6,26.4 C13.6,27.2836556 12.8836556,28 12,28 L1.6,28 C0.7163444,28 3.30261205e-16,27.2836556 0,26.4 L0,2.4 L0,2.4 Z" id="light" fill="#FFFFFF"></path>
                            </g>
                            <g id="element-left" transform="translate(0.000000, 33.600000)">
                                <path d="M169.231522,-161.329167 L171.077174,-158.394972 C174.293533,-153.281644 176,-147.363734 176,-141.322948 L176,165.6 C176,171.343761 171.343761,176 165.6,176 L164.8,176 L164.8,-160.05131 C164.8,-161.376793 165.874517,-162.45131 167.2,-162.45131 C168.025037,-162.45131 168.792239,-162.027534 169.231522,-161.329167 Z" id="shadow" stroke="#C4C4C4" stroke-width="1.6" fill="#F3F3F3" transform="translate(170.400000, 4.800000) rotate(-90.000000) translate(-170.400000, -4.800000) "></path>
                                <path d="M169.864882,-157.186886 L171.5,-154.369647 C173.792534,-150.419707 175,-145.933863 175,-141.366836 L175,165.6 C175,169.465993 171.865993,172.6 168,172.6 L168,172.6 L168,172.6 L168,-156.684911 C168,-157.237196 168.447715,-157.684911 169,-157.684911 C169.35645,-157.684911 169.685953,-157.495174 169.864882,-157.186886 Z" id="light" fill="#FFFFFF" transform="translate(171.500000, 6.100000) rotate(-90.000000) translate(-171.500000, -6.100000) "></path>
                            </g>
                        </g>
                    </g>
                    <g id="books" transform="translate(23.000000, 258.800000)">
                        <g id="book-large" transform="translate(8.000000, 18.400000)">
                            <rect id="shadow" stroke="#C4C4C4" stroke-width="1.6" fill="#ECECEC" x="-0.8" y="-0.8" width="96.8" height="14.4" rx="1.6"></rect>
                            <path d="M4.4,9.09494702e-13 L93.6,9.09494702e-13 C94.4836556,9.09110332e-13 95.2,0.7163444 95.2,1.6 L95.2,10 L95.2,10 L6,10 C5.1163444,10 4.4,9.2836556 4.4,8.4 L4.4,9.09494702e-13 L4.4,9.09494702e-13 Z" id="light" fill="#FFFFFF"></path>
                            <g id="bond-left" transform="translate(17.600000, 0.000000)">
                                <rect id="shadow" stroke="#C4C4C4" stroke-width="1.6" fill="#DDDCDC" x="-0.8" y="-0.8" width="8.8" height="14.4"></rect>
                                <path d="M2.4,9.09494702e-13 L7.2,9.09494702e-13 L7.2,10 L3.4,10 C2.84771525,10 2.4,9.55228475 2.4,9 L2.4,9.09494702e-13 L2.4,9.09494702e-13 Z" id="light" fill="#F3F3F3"></path>
                            </g>
                            <g id="bond-right" transform="translate(69.600000, 0.000000)">
                                <rect id="shadow" stroke="#C4C4C4" stroke-width="1.6" fill="#DDDCDC" x="-0.8" y="-0.8" width="8.8" height="14.4"></rect>
                                <path d="M2.4,9.09494702e-13 L7.2,9.09494702e-13 L7.2,10 L3.4,10 C2.84771525,10 2.4,9.55228475 2.4,9 L2.4,9.09494702e-13 L2.4,9.09494702e-13 Z" id="light" fill="#F3F3F3"></path>
                            </g>
                        </g>
                        <g id="book-medium" transform="translate(0.000000, 6.200000)">
                            <rect id="shadow" stroke="#C4C4C4" stroke-width="1.6" fill="#ECECEC" x="-0.8" y="0.2" width="96.8" height="11.2" rx="1.6"></rect>
                            <path d="M4,1 L93.6,1 C94.4836556,1 95.2,1.7163444 95.2,2.6 L95.2,8.2 L95.2,8.2 L5.6,8.2 C4.7163444,8.2 4,7.4836556 4,6.6 L4,1 L4,1 Z" id="light" fill="#FFFFFF"></path>
                            <g id="bond-right" transform="translate(17.600000, 0.200000)">
                                <rect id="shadow" stroke="#C4C4C4" stroke-width="1.6" fill="#DDDCDC" x="-0.8" y="-0.6" width="8.8" height="11.8"></rect>
                                <path d="M2.4,0.8 L7.2,0.8 L7.2,8.08888889 L3.4,8.08888889 C2.84771525,8.08888889 2.4,7.64117364 2.4,7.08888889 L2.4,0.8 L2.4,0.8 Z" id="light" fill="#F3F3F3"></path>
                            </g>
                            <g id="bond-left" transform="translate(69.600000, 0.200000)">
                                <rect id="shadow" stroke="#C4C4C4" stroke-width="1.6" fill="#DDDCDC" x="-0.8" y="-0.6" width="8.8" height="11.8"></rect>
                                <path d="M2.4,0.8 L7.2,0.8 L7.2,8.08888889 L3.4,8.08888889 C2.84771525,8.08888889 2.4,7.64117364 2.4,7.08888889 L2.4,0.8 L2.4,0.8 Z" id="light" fill="#F3F3F3"></path>
                            </g>
                        </g>
                        <g id="magazine" transform="translate(15.200000, 0.000000)">
                            <rect id="shadow" stroke="#C4C4C4" stroke-width="1.6" fill="#ECECEC" x="-0.8" y="-0.8" width="71.2" height="7.2" rx="1.6"></rect>
                            <path d="M3.2,9.09494702e-13 L68,9.09494702e-13 C68.8836556,9.09332377e-13 69.6,0.7163444 69.6,1.6 L69.6,4 L69.6,4 L4.8,4 C3.9163444,4 3.2,3.2836556 3.2,2.4 L3.2,9.09494702e-13 L3.2,9.09494702e-13 Z" id="light" fill="#FFFFFF"></path>
                        </g>
                    </g>
                    <g id="plant" transform="translate(71.000000, 193.000000) scale(-1, 1) translate(-71.000000, -193.000000) translate(33.000000, 128.000000)">
                        <g id="leaf">
                            <g id="leaf-middle">
                                <path d="M25.2978985,23.8187029 C29.9659879,17.1113997 33.6640737,9.09796795 36.3895585,-0.224488432 L36.7808069,-1.56274435 L37.7387181,-0.549625151 C55.0925169,17.8043395 56.0764659,46.2040329 40.0345547,65.715041 L29.9267155,78.0087215 L29.3035355,77.3496252 C15.4585684,62.7067197 13.7863215,40.3589942 25.2978987,23.8187025 Z" id="shadow" stroke="#C4C4C4" stroke-width="1.6" fill="#D8D8D8"></path>
                                <path d="M32.216607,55.6069656 L22.9310271,66.901144 C16.1802861,53.498729 17.0247044,37.1064159 25.9545245,24.2756956 C30.6541288,17.5231105 34.3766483,9.47141129 37.1220831,0.120598001 C46.8943702,17.4927409 45.3836284,39.5925483 32.216607,55.6069656 Z" id="Combined-Shape" fill="#F3F3F3"></path>
                            </g>
                            <g id="leaf-left" transform="translate(0.800000, 47.200000)">
                                <path d="M8.48020031,-0.654248252 C12.2250826,1.98100134 16.563655,3.98407842 21.4999159,5.35399951 C41.5601638,10.9211604 54.0738861,30.8566101 50.3674088,51.3424307 L50.2307317,52.0978498 L44.5087257,51.3044989 C20.4243341,47.9652197 3.60709781,25.733942 6.94637701,1.64955047 C7.02945972,1.05032043 7.12488471,0.452866502 7.23259117,-0.14243065 L7.45563935,-1.37522522 L8.48020031,-0.654248252 Z" id="shadow" stroke="#C4C4C4" stroke-width="1.6" fill="#D8D8D8"></path>
                                <path d="M9.66221866,1.0912976 L9.69452974,1.11296999 C10.6090605,1.68649779 11.5550642,2.2260482 12.532541,2.73162122 C25.7069942,11.0018346 33.1303095,26.5849514 30.4844151,42.5978057 L30.38019,43.2 L25.418594,42.5120792 L24.8024032,42.4230053 C12.5372131,33.3104994 5.4923142,17.9620663 7.7387967,1.75941875 C7.7931787,1.36719119 7.85294648,0.97573867 7.91808235,0.585171931 L7.97291995,0.269968572 C8.54442943,0.531155756 9.10761924,0.805075859 9.66221866,1.0912976 Z" id="Combined-Shape" fill="#F3F3F3"></path>
                            </g>
                            <g id="leaf-right" transform="translate(19.200000, 37.600000)">
                                <path d="M25.7622208,14.3239031 C29.6713171,10.9406156 33.1288769,6.05480243 36.1261049,-0.339536124 L36.8231642,-1.82665466 L37.5643741,-0.361041776 C47.9149693,20.1054491 39.7974946,45.0890311 19.3939246,55.5631135 L17.998856,56.2792658 L17.6356259,55.5610418 C10.5642381,41.5786098 13.9145525,24.5779665 25.7622204,14.3239035 Z" id="shadow" stroke="#C4C4C4" stroke-width="1.6" fill="#D8D8D8"></path>
                                <path d="M15.8285755,46.8514113 L15.4748784,47.0328886 C13.0158312,35.3819058 16.9486786,23.0099756 26.285759,14.9288062 C30.2448041,11.5022885 33.734155,6.59447864 36.7538117,0.205376716 C41.4705589,18.3426321 33.178118,37.9451005 15.8285755,46.8514113 Z" id="Combined-Shape" fill="#F3F3F3"></path>
                            </g>
                        </g>
                        <g id="pot" transform="translate(5.600000, 78.400000)">
                            <g id="element2" transform="translate(4.000000, 0.800000)">
                                <path d="M2.72410929,-0.8 L48.4695455,-0.8 C50.2368567,-0.8 51.6695455,0.632688801 51.6695455,2.4 C51.6695455,2.53726659 51.6607133,2.67439095 51.6431035,2.81052329 L45.4353085,50.8 L5.64577282,50.8 L-0.450387664,2.80319859 C-0.673068099,1.04997234 0.567684438,-0.551816516 2.32091069,-0.774496951 C2.4546389,-0.791482012 2.58930675,-0.8 2.72410929,-0.8 Z" id="shadow" stroke="#C4C4C4" stroke-width="1.6" fill="#ECECEC"></path>
                                <path d="M1.95956359,12 L40.521419,12 C41.8469024,12 42.921419,13.0745166 42.921419,14.4 C42.921419,14.4877006 42.9166118,14.5753354 42.9070192,14.6625098 L39.0185059,50 L39.0185059,50 L6.35059035,50 L1.56277608,12.4505932 C1.53483422,12.2314535 1.68983069,12.0311543 1.90897038,12.0032125 C1.92574989,12.001073 1.94264822,12 1.95956359,12 Z" id="light" fill="#FFFFFF"></path>
                            </g>
                            <g id="element1">
                                <path d="M5.14438847,-0.8 L55.8536244,-0.8 C57.7419317,-0.8 59.802326,0.449957444 60.5380476,2.06904182 C60.8638002,2.78591737 60.8931203,3.52934755 60.5683046,4.20339383 L58.3824586,8.2368834 C57.8466632,9.12131897 56.7447879,9.6 55.4500789,9.6 L5.547934,9.6 C4.25322497,9.6 3.15134967,9.12131897 2.59635509,8.20339383 L0.409465438,4.16338357 C-0.318842929,2.61781248 0.895121709,0.702880223 2.89361165,-0.252969267 C3.62507261,-0.607562374 4.40852557,-0.8 5.14438847,-0.8 Z" id="shadow" stroke="#C4C4C4" stroke-width="1.6" fill="#ECECEC"></path>
                                <path d="M4.94438847,0 L48.6536244,0 C50.236206,0 52.0074086,1.0745166 52.6097162,2.4 C52.8422711,2.9117777 52.8628699,3.41015507 52.6648695,3.82237002 L50.4982228,7.82237002 C50.1258437,8.43705495 49.2881194,8.8 48.2500789,8.8 L5.347934,8.8 C4.30989347,8.8 3.47216925,8.43705495 3.09979013,7.82237002 L0.933143374,3.82237002 C0.430056505,2.75475009 1.40017338,1.25245639 3.04258692,0.466903124 C3.66825438,0.163595936 4.33334353,0 4.94438847,0 Z" id="light" fill="#FFFFFF"></path>
                            </g>
                        </g>
                    </g>
                </g>
            </g>
        </g>
    </g>
</svg>