<?xml version="1.0" encoding="UTF-8"?>
<svg width="403px" height="251px" viewBox="0 0 403 251" version="1.1" xmlns="http://www.w3.org/2000/svg" xmlns:xlink="http://www.w3.org/1999/xlink">
    <title>88BF1F31-6E33-4DA5-9A3E-8286139E0344@1x</title>
    <g id="Emptystate" stroke="none" stroke-width="1" fill="none" fill-rule="evenodd">
        <g id="Desktop" transform="translate(-762.000000, -295.000000)">
            <g id="Group" transform="translate(761.000000, 295.000000)">
                <g id="Illustration-list" transform="translate(1.000000, 0.000000)">
                    <path d="M297.09204,1.09415423 L296.645522,1.09415423 C286.767413,2.41007463 284.124378,11.555597 283.54602,18.3516169 C283.547264,18.374005 283.547264,24.8192786 283.548507,35.4585821 L315.5,35.4585821 C317.159204,35.4585821 318.488806,34.0817164 318.435323,32.4237562 C317.587065,6.05310945 305.645522,1.67873134 299.983831,1.09415423 L297.047264,1.10037313 C297.047264,1.10037313 297.063433,1.09788557 297.09204,1.09415423" id="Fill-1" fill="#F3F3F3"></path>
                    <path d="M297.09204,1.09415423 L296.645522,1.09415423 C286.767413,2.41007463 284.124378,11.555597 283.54602,18.3516169 C283.547264,18.374005 283.547264,24.8192786 283.548507,35.4585821 L315.5,35.4585821 C317.159204,35.4585821 318.488806,34.0817164 318.435323,32.4237562 C317.587065,6.05310945 305.645522,1.67873134 299.983831,1.09415423 L297.047264,1.10037313 C297.047264,1.10037313 297.063433,1.09788557 297.09204,1.09415423 Z" id="Stroke-3" stroke="#C4C4C4" stroke-width="1.6" stroke-linecap="round"></path>
                    <path d="M297.09204,1.09415423 L299.983831,1.09415423 C298.404229,0.931218905 297.31592,1.0630597 297.09204,1.09415423" id="Fill-5" fill="#FFFFFF"></path>
                    <path d="M297.09204,1.09415423 L299.983831,1.09415423 C298.404229,0.931218905 297.31592,1.0630597 297.09204,1.09415423 Z" id="Stroke-7" stroke="#C4C4C4" stroke-width="1.6" stroke-linecap="round"></path>
                    <path d="M283.548259,35.4584577 C283.548259,24.8191542 283.547015,18.3738806 283.547015,18.3527363 C284.124129,11.5554726 286.767164,2.40995025 296.645274,1.09402985 L297.091791,1.09402985 C297.064428,1.09900498 297.047015,1.10024876 297.047015,1.10024876 L299.984826,1.09402985 C303.866667,1.49452736 310.703731,3.68109453 314.890299,13.5243781 C314.886567,13.5281095 314.891542,13.5243781 314.886567,13.5281095 C306.11791,6.66492537 298.840547,7.36517413 295.147761,9.45970149 C292.252239,11.1014925 290.555721,14.2669154 290.555721,17.5965174 L290.555721,35.0952736 L283.548259,35.4584577" id="Fill-9" fill="#E3E3E3"></path>
                    <path d="M297.09204,1.09415423 L296.645522,1.09415423 C286.767413,2.41007463 284.124378,11.555597 283.54602,18.3516169 C283.547264,18.374005 283.547264,24.8192786 283.548507,35.4585821 L315.5,35.4585821 C317.159204,35.4585821 318.488806,34.0817164 318.435323,32.4237562 C317.587065,6.05310945 305.645522,1.67873134 299.983831,1.09415423 L297.047264,1.10037313 C297.047264,1.10037313 297.063433,1.09788557 297.09204,1.09415423 Z" id="Stroke-11" stroke="#C4C4C4" stroke-width="1.6" stroke-linecap="round"></path>
                    <path d="M299.15199,0.933208955 L128.93806,1.2590796 C119.293781,1.2590796 111.475373,9.07748756 111.475373,18.7217662 L111.475373,215.234204 L243.858458,215.234204 C245.443035,215.234204 246.745274,216.49291 246.792537,218.076244 C247.588557,244.592413 259.553731,249.004104 265.23408,249.596144 L128.026368,249.597388 C128.328607,249.613557 128.63209,249.62102 128.93806,249.62102 L266.092289,249.62102 C275.736567,249.62102 283.554975,241.802612 283.554975,232.158333 C283.554975,232.158333 283.548756,18.4754975 283.546269,18.3523632 C284.170647,11.0128109 287.200498,0.933208955 299.15199,0.933208955" id="Fill-13" fill="#FFFFFF"></path>
                    <path d="M299.15199,0.933208955 L128.93806,1.2590796 C119.293781,1.2590796 111.475373,9.07748756 111.475373,18.7217662 L111.475373,215.234204 L243.858458,215.234204 C245.443035,215.234204 246.745274,216.49291 246.792537,218.076244 C247.588557,244.592413 259.553731,249.004104 265.23408,249.596144 L128.026368,249.597388 C128.328607,249.613557 128.63209,249.62102 128.93806,249.62102 L266.092289,249.62102 C275.736567,249.62102 283.554975,241.802612 283.554975,232.158333 C283.554975,232.158333 283.548756,18.4754975 283.546269,18.3523632 C284.170647,11.0128109 287.200498,0.933208955 299.15199,0.933208955 Z" id="Stroke-15" stroke="#C4C4C4" stroke-width="1.6" stroke-linecap="round"></path>
                    <path d="M232.406904,58.3087065 C232.43296,48.328607 224.34092,40.0649254 214.362065,39.890796 C208.419279,39.7875622 203.10709,42.5064677 199.677985,46.7962687 C199.593408,46.90199 199.434204,46.90199 199.349627,46.7962687 C195.920522,42.5064677 190.608333,39.7875622 184.665547,39.890796 C174.829726,40.0624378 166.791169,48.100995 166.623259,57.9380597 C166.619527,58.1208955 166.619527,58.3037313 166.622015,58.4853234 C166.644403,60.4069652 167.016294,62.2925373 167.697886,64.0599502 C168.552363,66.2763682 169.929229,68.2552239 171.641915,69.9007463 L199.299876,96.4766169 C199.383209,96.5723881 199.532463,96.5736318 199.61704,96.4791045 L226.78495,71.2589552 C228.451617,69.7129353 229.837189,67.8771144 230.783706,65.811194 C230.985199,65.3708955 231.168035,64.9218905 231.333458,64.4641791 C232.022512,62.5412935 232.401866,60.4679104 232.406904,58.3087065" id="Fill-17" fill="#F3F3F3"></path>
                    <path d="M232.406904,58.3087065 C232.43296,48.328607 224.34092,40.0649254 214.362065,39.890796 C208.419279,39.7875622 203.10709,42.5064677 199.677985,46.7962687 C199.593408,46.90199 199.434204,46.90199 199.349627,46.7962687 C195.920522,42.5064677 190.608333,39.7875622 184.665547,39.890796 C174.829726,40.0624378 166.791169,48.100995 166.623259,57.9380597 C166.619527,58.1208955 166.619527,58.3037313 166.622015,58.4853234 C166.644403,60.4069652 167.016294,62.2925373 167.697886,64.0599502 C168.552363,66.2763682 169.929229,68.2552239 171.641915,69.9007463 L199.299876,96.4766169 C199.383209,96.5723881 199.532463,96.5736318 199.61704,96.4791045 L226.78495,71.2589552 C228.451617,69.7129353 229.837189,67.8771144 230.783706,65.811194 C230.985199,65.3708955 231.168035,64.9218905 231.333458,64.4641791 C232.022512,62.5412935 232.401866,60.4679104 232.406904,58.3087065 Z" id="Stroke-19" stroke="#C4C4C4" stroke-width="1.6" stroke-linecap="round"></path>
                    <path d="M151.114179,129.973134 C151.114179,133.351244 148.375373,136.09005 144.997264,136.09005 C141.61791,136.09005 138.879104,133.351244 138.879104,129.973134 C138.879104,126.595025 141.61791,123.856219 144.997264,123.856219 C148.375373,123.856219 151.114179,126.595025 151.114179,129.973134" id="Fill-21" fill="#F3F3F3"></path>
                    <path d="M151.114179,129.973134 C151.114179,133.351244 148.375373,136.09005 144.997264,136.09005 C141.61791,136.09005 138.879104,133.351244 138.879104,129.973134 C138.879104,126.595025 141.61791,123.856219 144.997264,123.856219 C148.375373,123.856219 151.114179,126.595025 151.114179,129.973134 Z" id="Stroke-23" stroke="#C4C4C4" stroke-width="1.6" stroke-linecap="round"></path>
                    <path d="M251.981219,134.255224 L166.313308,134.255224 C163.947637,134.255224 162.03097,132.337313 162.03097,129.972886 C162.03097,127.608458 163.947637,125.690547 166.313308,125.690547 L251.981219,125.690547 C254.345647,125.690547 256.263557,127.608458 256.263557,129.972886 C256.263557,132.337313 254.345647,134.255224 251.981219,134.255224" id="Fill-25" fill="#F3F3F3"></path>
                    <path d="M251.981219,134.255224 L166.313308,134.255224 C163.947637,134.255224 162.03097,132.337313 162.03097,129.972886 C162.03097,127.608458 163.947637,125.690547 166.313308,125.690547 L251.981219,125.690547 C254.345647,125.690547 256.263557,127.608458 256.263557,129.972886 C256.263557,132.337313 254.345647,134.255224 251.981219,134.255224 Z" id="Stroke-27" stroke="#C4C4C4" stroke-width="1.6" stroke-linecap="round"></path>
                    <path d="M151.114179,152.975746 C151.114179,156.3551 148.375373,159.093905 144.997264,159.093905 C141.61791,159.093905 138.879104,156.3551 138.879104,152.975746 C138.879104,149.597637 141.61791,146.858831 144.997264,146.858831 C148.375373,146.858831 151.114179,149.597637 151.114179,152.975746" id="Fill-29" fill="#F3F3F3"></path>
                    <path d="M151.114179,152.975746 C151.114179,156.3551 148.375373,159.093905 144.997264,159.093905 C141.61791,159.093905 138.879104,156.3551 138.879104,152.975746 C138.879104,149.597637 141.61791,146.858831 144.997264,146.858831 C148.375373,146.858831 151.114179,149.597637 151.114179,152.975746 Z" id="Stroke-31" stroke="#C4C4C4" stroke-width="1.6" stroke-linecap="round"></path>
                    <path d="M251.981219,157.258582 L166.313308,157.258582 C163.947637,157.258582 162.03097,155.340672 162.03097,152.976244 C162.03097,150.610572 163.947637,148.693905 166.313308,148.693905 L251.981219,148.693905 C254.345647,148.693905 256.263557,150.610572 256.263557,152.976244 C256.263557,155.340672 254.345647,157.258582 251.981219,157.258582" id="Fill-33" fill="#F3F3F3"></path>
                    <path d="M251.981219,157.258582 L166.313308,157.258582 C163.947637,157.258582 162.03097,155.340672 162.03097,152.976244 C162.03097,150.610572 163.947637,148.693905 166.313308,148.693905 L251.981219,148.693905 C254.345647,148.693905 256.263557,150.610572 256.263557,152.976244 C256.263557,155.340672 254.345647,157.258582 251.981219,157.258582 Z" id="Stroke-35" stroke="#C4C4C4" stroke-width="1.6" stroke-linecap="round"></path>
                    <path d="M151.114179,175.978483 C151.114179,179.357836 148.375373,182.096642 144.997264,182.096642 C141.61791,182.096642 138.879104,179.357836 138.879104,175.978483 C138.879104,172.600373 141.61791,169.861567 144.997264,169.861567 C148.375373,169.861567 151.114179,172.600373 151.114179,175.978483" id="Fill-37" fill="#F3F3F3"></path>
                    <path d="M151.114179,175.978483 C151.114179,179.357836 148.375373,182.096642 144.997264,182.096642 C141.61791,182.096642 138.879104,179.357836 138.879104,175.978483 C138.879104,172.600373 141.61791,169.861567 144.997264,169.861567 C148.375373,169.861567 151.114179,172.600373 151.114179,175.978483 Z" id="Stroke-39" stroke="#C4C4C4" stroke-width="1.6" stroke-linecap="round"></path>
                    <path d="M251.981219,180.261194 L166.313308,180.261194 C163.947637,180.261194 162.03097,178.343284 162.03097,175.978856 C162.03097,173.613184 163.947637,171.696517 166.313308,171.696517 L251.981219,171.696517 C254.345647,171.696517 256.263557,173.613184 256.263557,175.978856 C256.263557,178.343284 254.345647,180.261194 251.981219,180.261194" id="Fill-41" fill="#F3F3F3"></path>
                    <path d="M251.981219,180.261194 L166.313308,180.261194 C163.947637,180.261194 162.03097,178.343284 162.03097,175.978856 C162.03097,173.613184 163.947637,171.696517 166.313308,171.696517 L251.981219,171.696517 C254.345647,171.696517 256.263557,173.613184 256.263557,175.978856 C256.263557,178.343284 254.345647,180.261194 251.981219,180.261194 Z" id="Stroke-43" stroke="#C4C4C4" stroke-width="1.6" stroke-linecap="round"></path>
                    <path d="M381.933333,143.149378 L383.746766,135.732711 C383.909701,135.062313 384.862438,135.062313 385.026617,135.732711 L386.84005,143.149378 C387.719403,146.747637 390.529104,149.556095 394.127363,150.436692 L401.54403,152.248881 C402.214428,152.41306 402.214428,153.365796 401.54403,153.529975 L394.127363,155.343408 C390.529104,156.222761 387.719403,159.032463 386.84005,162.630721 L385.026617,170.047388 C384.862438,170.717786 383.909701,170.717786 383.746766,170.047388 L381.933333,162.630721 C381.052736,159.032463 378.244279,156.222761 374.64602,155.343408 L367.228109,153.529975 C366.558955,153.365796 366.558955,152.41306 367.228109,152.248881 L374.64602,150.436692 C378.244279,149.556095 381.052736,146.747637 381.933333,143.149378" id="Fill-45" fill="#FFFFFF"></path>
                    <path d="M381.933333,143.149378 L383.746766,135.732711 C383.909701,135.062313 384.862438,135.062313 385.026617,135.732711 L386.84005,143.149378 C387.719403,146.747637 390.529104,149.556095 394.127363,150.436692 L401.54403,152.248881 C402.214428,152.41306 402.214428,153.365796 401.54403,153.529975 L394.127363,155.343408 C390.529104,156.222761 387.719403,159.032463 386.84005,162.630721 L385.026617,170.047388 C384.862438,170.717786 383.909701,170.717786 383.746766,170.047388 L381.933333,162.630721 C381.052736,159.032463 378.244279,156.222761 374.64602,155.343408 L367.228109,153.529975 C366.558955,153.365796 366.558955,152.41306 367.228109,152.248881 L374.64602,150.436692 C378.244279,149.556095 381.052736,146.747637 381.933333,143.149378 Z" id="Stroke-47" stroke="#C4C4C4" stroke-width="1.6" stroke-linecap="round"></path>
                    <path d="M16.1401741,41.2516169 L17.953607,33.8349502 C18.1165423,33.1645522 19.0692786,33.1645522 19.2334577,33.8349502 L21.0468905,41.2516169 C21.9262438,44.8498756 24.7359453,47.6595771 28.334204,48.5389303 L35.7508706,50.3523632 C36.4212687,50.5152985 36.4212687,51.4692786 35.7508706,51.6334577 L28.334204,53.4456468 C24.7359453,54.325 21.9262438,57.1347015 21.0468905,60.7329602 L19.2334577,68.1496269 C19.0692786,68.8212687 18.1165423,68.8212687 17.953607,68.1496269 L16.1401741,60.7329602 C15.2595771,57.1347015 12.4511194,54.325 8.8528607,53.4456468 L1.43495025,51.6334577 C0.76579602,51.4692786 0.76579602,50.5152985 1.43495025,50.3523632 L8.8528607,48.5389303 C12.4511194,47.6595771 15.2595771,44.8498756 16.1401741,41.2516169" id="Fill-49" fill="#FFFFFF"></path>
                    <path d="M16.1401741,41.2516169 L17.953607,33.8349502 C18.1165423,33.1645522 19.0692786,33.1645522 19.2334577,33.8349502 L21.0468905,41.2516169 C21.9262438,44.8498756 24.7359453,47.6595771 28.334204,48.5389303 L35.7508706,50.3523632 C36.4212687,50.5152985 36.4212687,51.4692786 35.7508706,51.6334577 L28.334204,53.4456468 C24.7359453,54.325 21.9262438,57.1347015 21.0468905,60.7329602 L19.2334577,68.1496269 C19.0692786,68.8212687 18.1165423,68.8212687 17.953607,68.1496269 L16.1401741,60.7329602 C15.2595771,57.1347015 12.4511194,54.325 8.8528607,53.4456468 L1.43495025,51.6334577 C0.76579602,51.4692786 0.76579602,50.5152985 1.43495025,50.3523632 L8.8528607,48.5389303 C12.4511194,47.6595771 15.2595771,44.8498756 16.1401741,41.2516169 Z" id="Stroke-51" stroke="#C4C4C4" stroke-width="1.6" stroke-linecap="round"></path>
                    <path d="M344.260323,89.2271144 L345.123507,85.6947761 C345.201866,85.3763682 345.655846,85.3763682 345.734204,85.6947761 L346.596144,89.2271144 C347.015299,90.9410448 348.353607,92.2781095 350.066294,92.6972637 L353.598632,93.5604478 C353.918284,93.638806 353.918284,94.0927861 353.598632,94.1711443 L350.066294,95.0330846 C348.353607,95.4522388 347.015299,96.7905473 346.596144,98.5032338 L345.734204,102.035572 C345.655846,102.355224 345.201866,102.355224 345.123507,102.035572 L344.260323,98.5032338 C343.841169,96.7905473 342.502861,95.4522388 340.790174,95.0330846 L337.257836,94.1711443 C336.939428,94.0927861 336.939428,93.638806 337.257836,93.5604478 L340.790174,92.6972637 C342.502861,92.2781095 343.841169,90.9410448 344.260323,89.2271144" id="Fill-53" fill="#FFFFFF"></path>
                    <path d="M344.260323,89.2271144 L345.123507,85.6947761 C345.201866,85.3763682 345.655846,85.3763682 345.734204,85.6947761 L346.596144,89.2271144 C347.015299,90.9410448 348.353607,92.2781095 350.066294,92.6972637 L353.598632,93.5604478 C353.918284,93.638806 353.918284,94.0927861 353.598632,94.1711443 L350.066294,95.0330846 C348.353607,95.4522388 347.015299,96.7905473 346.596144,98.5032338 L345.734204,102.035572 C345.655846,102.355224 345.201866,102.355224 345.123507,102.035572 L344.260323,98.5032338 C343.841169,96.7905473 342.502861,95.4522388 340.790174,95.0330846 L337.257836,94.1711443 C336.939428,94.0927861 336.939428,93.638806 337.257836,93.5604478 L340.790174,92.6972637 C342.502861,92.2781095 343.841169,90.9410448 344.260323,89.2271144 Z" id="Stroke-55" stroke="#C4C4C4" stroke-width="1.6" stroke-linecap="round"></path>
                    <path d="M51.3905473,74.2507463 L52.2537313,70.7196517 C52.3320896,70.4 52.7860697,70.4 52.8644279,70.7196517 L53.7276119,74.2507463 C54.1455224,75.9646766 55.4838308,77.3029851 57.1977612,77.7208955 L60.7288557,78.5840796 C61.0485075,78.6624378 61.0485075,79.1164179 60.7288557,79.1947761 L57.1977612,80.0579602 C55.4838308,80.4758706 54.1455224,81.8141791 53.7276119,83.5281095 L52.8644279,87.059204 C52.7860697,87.3788557 52.3320896,87.3788557 52.2537313,87.059204 L51.3905473,83.5281095 C50.9726368,81.8141791 49.6343284,80.4758706 47.920398,80.0579602 L44.3893035,79.1947761 C44.0696517,79.1164179 44.0696517,78.6624378 44.3893035,78.5840796 L47.920398,77.7208955 C49.6343284,77.3029851 50.9726368,75.9646766 51.3905473,74.2507463" id="Fill-57" fill="#FFFFFF"></path>
                    <path d="M51.3905473,74.2507463 L52.2537313,70.7196517 C52.3320896,70.4 52.7860697,70.4 52.8644279,70.7196517 L53.7276119,74.2507463 C54.1455224,75.9646766 55.4838308,77.3029851 57.1977612,77.7208955 L60.7288557,78.5840796 C61.0485075,78.6624378 61.0485075,79.1164179 60.7288557,79.1947761 L57.1977612,80.0579602 C55.4838308,80.4758706 54.1455224,81.8141791 53.7276119,83.5281095 L52.8644279,87.059204 C52.7860697,87.3788557 52.3320896,87.3788557 52.2537313,87.059204 L51.3905473,83.5281095 C50.9726368,81.8141791 49.6343284,80.4758706 47.920398,80.0579602 L44.3893035,79.1947761 C44.0696517,79.1164179 44.0696517,78.6624378 44.3893035,78.5840796 L47.920398,77.7208955 C49.6343284,77.3029851 50.9726368,75.9646766 51.3905473,74.2507463 Z" id="Stroke-59" stroke="#C4C4C4" stroke-width="1.6" stroke-linecap="round"></path>
                    <path d="M299.15199,0.933208955 L128.93806,1.2590796 C119.293781,1.2590796 111.475373,9.07748756 111.475373,18.7217662 L111.475373,215.234204 L243.858458,215.234204 C245.443035,215.234204 246.745274,216.49291 246.792537,218.076244 C247.588557,244.592413 259.553731,249.004104 265.23408,249.596144 L128.026368,249.597388 C128.328607,249.613557 128.63209,249.62102 128.93806,249.62102 L266.092289,249.62102 C275.736567,249.62102 283.554975,241.802612 283.554975,232.158333 C283.554975,232.158333 283.548756,18.4754975 283.546269,18.3523632 C284.170647,11.0128109 287.200498,0.933208955 299.15199,0.933208955 Z" id="Stroke-61" stroke="#C4C4C4" stroke-width="1.6" stroke-linecap="round"></path>
                    <path d="M243.85908,215.23408 L96.0568408,215.23408 C94.3976368,215.23408 93.0680348,216.609701 93.1199586,218.268905 C93.9697761,244.639552 105.911318,249.01393 111.57301,249.597264 L114.509577,249.591045 C114.509577,249.591045 113.350373,249.781343 111.57301,249.597264 L265.234701,249.59602 C259.553109,249.00398 247.589179,244.592289 246.793159,218.076119 C246.745896,216.492786 245.443657,215.23408 243.85908,215.23408" id="Fill-63" fill="#FFFFFF"></path>
                    <path d="M243.85908,215.23408 L96.0568408,215.23408 C94.3976368,215.23408 93.0680348,216.609701 93.1199586,218.268905 C93.9697761,244.639552 105.911318,249.01393 111.57301,249.597264 L114.509577,249.591045 C114.509577,249.591045 113.350373,249.781343 111.57301,249.597264 L265.234701,249.59602 C259.553109,249.00398 247.589179,244.592289 246.793159,218.076119 C246.745896,216.492786 245.443657,215.23408 243.85908,215.23408 Z" id="Stroke-65" stroke="#C4C4C4" stroke-width="1.6" stroke-linecap="round"></path>
                </g>
            </g>
        </g>
    </g>
</svg>