<svg width="403" height="251" viewBox="0 0 403 251" xmlns="http://www.w3.org/2000/svg"><g id="Emptystate" stroke="none" stroke-width="1" fill="none" fill-rule="evenodd"><g id="Desktop" transform="translate(-762 -295)"><g id="Group" transform="translate(761 295)"><g id="Illustration-list" transform="translate(1)"><path d="M297.092 1.0942h-.4465c-9.878 1.3159-12.5211 10.4614-13.0995 17.2574.0013.0224.0013 6.4677.0025 17.107H315.5c1.6592 0 2.9888-1.3769 2.9353-3.0348-.8482-26.3707-12.7898-30.745-18.4515-31.3296l-2.9365.0062s.0161-.0025.0447-.0062" id="Fill-1" fill="#F3F3F3"/><path d="M297.092 1.0942h-.4465c-9.878 1.3159-12.5211 10.4614-13.0995 17.2574.0013.0224.0013 6.4677.0025 17.107H315.5c1.6592 0 2.9888-1.3769 2.9353-3.0348-.8482-26.3707-12.7898-30.745-18.4515-31.3296l-2.9365.0062s.0161-.0025.0447-.0062z" id="Stroke-3" stroke="#C4C4C4" stroke-width="1.6" stroke-linecap="round"/><path d="M297.092 1.0942h2.8918c-1.5796-.163-2.6679-.0311-2.8918 0" id="Fill-5" fill="#FFF"/><path d="M297.092 1.0942h2.8918c-1.5796-.163-2.6679-.0311-2.8918 0z" id="Stroke-7" stroke="#C4C4C4" stroke-width="1.6" stroke-linecap="round"/><path d="M283.5483 35.4585c0-10.6393-.0013-17.0846-.0013-17.1058.5771-6.7972 3.2202-15.9427 13.0983-17.2587h.4465c-.0274.005-.0448.0062-.0448.0062l2.9378-.0062c3.8819.4005 10.719 2.587 14.9055 12.4304-.0037.0037.0012 0-.0037.0037-8.7687-6.8632-16.046-6.163-19.7388-4.0684-2.8956 1.6418-4.592 4.8072-4.592 8.1368v17.4988l-7.0075.3632" id="Fill-9" fill="#E3E3E3"/><path d="M297.092 1.0942h-.4465c-9.878 1.3159-12.5211 10.4614-13.0995 17.2574.0013.0224.0013 6.4677.0025 17.107H315.5c1.6592 0 2.9888-1.3769 2.9353-3.0348-.8482-26.3707-12.7898-30.745-18.4515-31.3296l-2.9365.0062s.0161-.0025.0447-.0062z" id="Stroke-11" stroke="#C4C4C4" stroke-width="1.6" stroke-linecap="round"/><path d="m299.152.9332-170.214.3259c-9.6442 0-17.4626 7.8184-17.4626 17.4627v196.5124h132.383c1.5846 0 2.8869 1.2587 2.9341 2.842.796 26.5162 12.7612 30.9279 18.4416 31.52l-137.2077.0012c.3022.0162.6057.0236.9117.0236h137.1542c9.6443 0 17.4627-7.8184 17.4627-17.4627 0 0-.0062-213.6828-.0087-213.806.6243-7.3395 3.6542-17.419 15.6057-17.419" id="Fill-13" fill="#FFF"/><path d="m299.152.9332-170.214.3259c-9.6442 0-17.4626 7.8184-17.4626 17.4627v196.5124h132.383c1.5846 0 2.8869 1.2587 2.9341 2.842.796 26.5162 12.7612 30.9279 18.4416 31.52l-137.2077.0012c.3022.0162.6057.0236.9117.0236h137.1542c9.6443 0 17.4627-7.8184 17.4627-17.4627 0 0-.0062-213.6828-.0087-213.806.6243-7.3395 3.6542-17.419 15.6057-17.419z" id="Stroke-15" stroke="#C4C4C4" stroke-width="1.6" stroke-linecap="round"/><path d="M232.4069 58.3087c.026-9.98-8.066-18.2438-18.0448-18.4179-5.9428-.1032-11.255 2.6157-14.6841 6.9055a.2096.2096 0 0 1-.3284 0c-3.429-4.2898-8.7413-7.0087-14.684-6.9055-9.8359.1716-17.8744 8.2102-18.0423 18.0473a16.0588 16.0588 0 0 0-.0013.5472c.0224 1.9217.3943 3.8072 1.0759 5.5747.8545 2.2164 2.2313 4.1952 3.944 5.8407l27.658 26.576a.2119.2119 0 0 0 .3171.0024l27.168-25.2201c1.6666-1.546 3.0522-3.3819 3.9987-5.4478.2015-.4403.3843-.8893.5498-1.347.689-1.923 1.0684-3.9963 1.0734-6.1555" id="Fill-17" fill="#F3F3F3"/><path d="M232.4069 58.3087c.026-9.98-8.066-18.2438-18.0448-18.4179-5.9428-.1032-11.255 2.6157-14.6841 6.9055a.2096.2096 0 0 1-.3284 0c-3.429-4.2898-8.7413-7.0087-14.684-6.9055-9.8359.1716-17.8744 8.2102-18.0423 18.0473a16.0588 16.0588 0 0 0-.0013.5472c.0224 1.9217.3943 3.8072 1.0759 5.5747.8545 2.2164 2.2313 4.1952 3.944 5.8407l27.658 26.576a.2119.2119 0 0 0 .3171.0024l27.168-25.2201c1.6666-1.546 3.0522-3.3819 3.9987-5.4478.2015-.4403.3843-.8893.5498-1.347.689-1.923 1.0684-3.9963 1.0734-6.1555z" id="Stroke-19" stroke="#C4C4C4" stroke-width="1.6" stroke-linecap="round"/><path d="M151.1142 129.9731c0 3.3781-2.7388 6.117-6.117 6.117-3.3793 0-6.1181-2.7389-6.1181-6.117 0-3.378 2.7388-6.1169 6.1182-6.1169 3.378 0 6.1169 2.7388 6.1169 6.117" id="Fill-21" fill="#F3F3F3"/><path d="M151.1142 129.9731c0 3.3781-2.7388 6.117-6.117 6.117-3.3793 0-6.1181-2.7389-6.1181-6.117 0-3.378 2.7388-6.1169 6.1182-6.1169 3.378 0 6.1169 2.7388 6.1169 6.117z" id="Stroke-23" stroke="#C4C4C4" stroke-width="1.6" stroke-linecap="round"/><path d="M251.9812 134.2552h-85.6679c-2.3657 0-4.2823-1.9179-4.2823-4.2823 0-2.3644 1.9166-4.2824 4.2823-4.2824h85.668c2.3643 0 4.2823 1.918 4.2823 4.2824s-1.918 4.2823-4.2824 4.2823" id="Fill-25" fill="#F3F3F3"/><path d="M251.9812 134.2552h-85.6679c-2.3657 0-4.2823-1.9179-4.2823-4.2823 0-2.3644 1.9166-4.2824 4.2823-4.2824h85.668c2.3643 0 4.2823 1.918 4.2823 4.2824s-1.918 4.2823-4.2824 4.2823z" id="Stroke-27" stroke="#C4C4C4" stroke-width="1.6" stroke-linecap="round"/><path d="M151.1142 152.9757c0 3.3794-2.7388 6.1182-6.117 6.1182-3.3793 0-6.1181-2.7388-6.1181-6.1182 0-3.378 2.7388-6.1169 6.1182-6.1169 3.378 0 6.1169 2.7388 6.1169 6.117" id="Fill-29" fill="#F3F3F3"/><path d="M151.1142 152.9757c0 3.3794-2.7388 6.1182-6.117 6.1182-3.3793 0-6.1181-2.7388-6.1181-6.1182 0-3.378 2.7388-6.1169 6.1182-6.1169 3.378 0 6.1169 2.7388 6.1169 6.117z" id="Stroke-31" stroke="#C4C4C4" stroke-width="1.6" stroke-linecap="round"/><path d="M251.9812 157.2586h-85.6679c-2.3657 0-4.2823-1.918-4.2823-4.2824 0-2.3656 1.9166-4.2823 4.2823-4.2823h85.668c2.3643 0 4.2823 1.9167 4.2823 4.2823 0 2.3645-1.918 4.2824-4.2824 4.2824" id="Fill-33" fill="#F3F3F3"/><path d="M251.9812 157.2586h-85.6679c-2.3657 0-4.2823-1.918-4.2823-4.2824 0-2.3656 1.9166-4.2823 4.2823-4.2823h85.668c2.3643 0 4.2823 1.9167 4.2823 4.2823 0 2.3645-1.918 4.2824-4.2824 4.2824z" id="Stroke-35" stroke="#C4C4C4" stroke-width="1.6" stroke-linecap="round"/><path d="M151.1142 175.9785c0 3.3793-2.7388 6.1181-6.117 6.1181-3.3793 0-6.1181-2.7388-6.1181-6.1181 0-3.3781 2.7388-6.117 6.1182-6.117 3.378 0 6.1169 2.7389 6.1169 6.117" id="Fill-37" fill="#F3F3F3"/><path d="M151.1142 175.9785c0 3.3793-2.7388 6.1181-6.117 6.1181-3.3793 0-6.1181-2.7388-6.1181-6.1181 0-3.3781 2.7388-6.117 6.1182-6.117 3.378 0 6.1169 2.7389 6.1169 6.117z" id="Stroke-39" stroke="#C4C4C4" stroke-width="1.6" stroke-linecap="round"/><path d="M251.9812 180.2612h-85.6679c-2.3657 0-4.2823-1.918-4.2823-4.2823 0-2.3657 1.9166-4.2824 4.2823-4.2824h85.668c2.3643 0 4.2823 1.9167 4.2823 4.2824 0 2.3644-1.918 4.2823-4.2824 4.2823" id="Fill-41" fill="#F3F3F3"/><path d="M251.9812 180.2612h-85.6679c-2.3657 0-4.2823-1.918-4.2823-4.2823 0-2.3657 1.9166-4.2824 4.2823-4.2824h85.668c2.3643 0 4.2823 1.9167 4.2823 4.2824 0 2.3644-1.918 4.2823-4.2824 4.2823z" id="Stroke-43" stroke="#C4C4C4" stroke-width="1.6" stroke-linecap="round"/><path d="m381.9333 143.1494 1.8135-7.4167c.1629-.6704 1.1156-.6704 1.2798 0l1.8135 7.4167c.8793 3.5982 3.689 6.4067 7.2873 7.2873l7.4166 1.8122c.6704.1642.6704 1.1169 0 1.281l-7.4166 1.8135c-3.5983.8794-6.408 3.689-7.2874 7.2873l-1.8134 7.4167c-.1642.6704-1.1169.6704-1.2798 0l-1.8135-7.4167c-.8806-3.5982-3.689-6.408-7.2873-7.2873l-7.4179-1.8134c-.6691-.1642-.6691-1.117 0-1.2811l7.418-1.8122c3.5982-.8806 6.4066-3.689 7.2872-7.2873" id="Fill-45" fill="#FFF"/><path d="m381.9333 143.1494 1.8135-7.4167c.1629-.6704 1.1156-.6704 1.2798 0l1.8135 7.4167c.8793 3.5982 3.689 6.4067 7.2873 7.2873l7.4166 1.8122c.6704.1642.6704 1.1169 0 1.281l-7.4166 1.8135c-3.5983.8794-6.408 3.689-7.2874 7.2873l-1.8134 7.4167c-.1642.6704-1.1169.6704-1.2798 0l-1.8135-7.4167c-.8806-3.5982-3.689-6.408-7.2873-7.2873l-7.4179-1.8134c-.6691-.1642-.6691-1.117 0-1.2811l7.418-1.8122c3.5982-.8806 6.4066-3.689 7.2872-7.2873z" id="Stroke-47" stroke="#C4C4C4" stroke-width="1.6" stroke-linecap="round"/><path d="m16.1402 41.2516 1.8134-7.4166c.163-.6704 1.1157-.6704 1.2799 0l1.8134 7.4166c.8793 3.5983 3.689 6.408 7.2873 7.2873l7.4167 1.8135c.6704.1629.6704 1.1169 0 1.281l-7.4167 1.8122c-3.5983.8794-6.408 3.6891-7.2873 7.2874l-1.8134 7.4166c-.1642.6717-1.117.6717-1.2799 0l-1.8134-7.4166c-.8806-3.5983-3.689-6.408-7.2873-7.2874l-7.418-1.8121c-.6691-.1642-.6691-1.1182 0-1.2811l7.418-1.8135c3.5982-.8793 6.4067-3.689 7.2873-7.2873" id="Fill-49" fill="#FFF"/><path d="m16.1402 41.2516 1.8134-7.4166c.163-.6704 1.1157-.6704 1.2799 0l1.8134 7.4166c.8793 3.5983 3.689 6.408 7.2873 7.2873l7.4167 1.8135c.6704.1629.6704 1.1169 0 1.281l-7.4167 1.8122c-3.5983.8794-6.408 3.6891-7.2873 7.2874l-1.8134 7.4166c-.1642.6717-1.117.6717-1.2799 0l-1.8134-7.4166c-.8806-3.5983-3.689-6.408-7.2873-7.2874l-7.418-1.8121c-.6691-.1642-.6691-1.1182 0-1.2811l7.418-1.8135c3.5982-.8793 6.4067-3.689 7.2873-7.2873z" id="Stroke-51" stroke="#C4C4C4" stroke-width="1.6" stroke-linecap="round"/><path d="m344.2603 89.2271.8632-3.5323c.0784-.3184.5323-.3184.6107 0l.862 3.5323a4.7295 4.7295 0 0 0 3.47 3.4702l3.5324.8631c.3197.0784.3197.5324 0 .6107l-3.5323.862a4.7315 4.7315 0 0 0-3.4702 3.4701l-.8619 3.5324c-.0784.3196-.5323.3196-.6107 0l-.8632-3.5324a4.7315 4.7315 0 0 0-3.4701-3.4701l-3.5324-.862c-.3184-.0783-.3184-.5323 0-.6107l3.5324-.8631a4.7295 4.7295 0 0 0 3.4701-3.4702" id="Fill-53" fill="#FFF"/><path d="m344.2603 89.2271.8632-3.5323c.0784-.3184.5323-.3184.6107 0l.862 3.5323a4.7295 4.7295 0 0 0 3.47 3.4702l3.5324.8631c.3197.0784.3197.5324 0 .6107l-3.5323.862a4.7315 4.7315 0 0 0-3.4702 3.4701l-.8619 3.5324c-.0784.3196-.5323.3196-.6107 0l-.8632-3.5324a4.7315 4.7315 0 0 0-3.4701-3.4701l-3.5324-.862c-.3184-.0783-.3184-.5323 0-.6107l3.5324-.8631a4.7295 4.7295 0 0 0 3.4701-3.4702z" id="Stroke-55" stroke="#C4C4C4" stroke-width="1.6" stroke-linecap="round"/><path d="m51.3905 74.2507.8632-3.531c.0784-.3197.5324-.3197.6107 0l.8632 3.531a4.7237 4.7237 0 0 0 3.4702 3.4702l3.531.8632c.3197.0783.3197.5323 0 .6107l-3.531.8632a4.7237 4.7237 0 0 0-3.4702 3.4701l-.8632 3.5311c-.0783.3197-.5323.3197-.6107 0l-.8632-3.531a4.7237 4.7237 0 0 0-3.4701-3.4702l-3.5311-.8632c-.3196-.0784-.3196-.5324 0-.6107l3.5311-.8632a4.7237 4.7237 0 0 0 3.4701-3.4702" id="Fill-57" fill="#FFF"/><path d="m51.3905 74.2507.8632-3.531c.0784-.3197.5324-.3197.6107 0l.8632 3.531a4.7237 4.7237 0 0 0 3.4702 3.4702l3.531.8632c.3197.0783.3197.5323 0 .6107l-3.531.8632a4.7237 4.7237 0 0 0-3.4702 3.4701l-.8632 3.5311c-.0783.3197-.5323.3197-.6107 0l-.8632-3.531a4.7237 4.7237 0 0 0-3.4701-3.4702l-3.5311-.8632c-.3196-.0784-.3196-.5324 0-.6107l3.5311-.8632a4.7237 4.7237 0 0 0 3.4701-3.4702z" id="Stroke-59" stroke="#C4C4C4" stroke-width="1.6" stroke-linecap="round"/><path d="m299.152.9332-170.214.3259c-9.6442 0-17.4626 7.8184-17.4626 17.4627v196.5124h132.383c1.5846 0 2.8869 1.2587 2.9341 2.842.796 26.5162 12.7612 30.9279 18.4416 31.52l-137.2077.0012c.3022.0162.6057.0236.9117.0236h137.1542c9.6443 0 17.4627-7.8184 17.4627-17.4627 0 0-.0062-213.6828-.0087-213.806.6243-7.3395 3.6542-17.419 15.6057-17.419z" id="Stroke-61" stroke="#C4C4C4" stroke-width="1.6" stroke-linecap="round"/><path d="M243.859 215.234H96.0569c-1.6592 0-2.9888 1.3757-2.9368 3.0349.8498 26.3707 12.7913 30.745 18.453 31.3284l2.9366-.0063s-1.1592.1903-2.9366.0063l153.6617-.0013c-5.6816-.592-17.6455-5.0037-18.4415-31.5199-.0473-1.5833-1.3495-2.842-2.9341-2.842" id="Fill-63" fill="#FFF"/><path d="M243.859 215.234H96.0569c-1.6592 0-2.9888 1.3757-2.9368 3.0349.8498 26.3707 12.7913 30.745 18.453 31.3284l2.9366-.0063s-1.1592.1903-2.9366.0063l153.6617-.0013c-5.6816-.592-17.6455-5.0037-18.4415-31.5199-.0473-1.5833-1.3495-2.842-2.9341-2.842z" id="Stroke-65" stroke="#C4C4C4" stroke-width="1.6" stroke-linecap="round"/></g></g></g></g></svg>