<?xml version="1.0" encoding="utf-8"?>
<!-- Generator: Adobe Illustrator 22.0.1, SVG Export Plug-In . SVG Version: 6.00 Build 0)  -->
<svg version="1.1" id="Ebene_1" xmlns="http://www.w3.org/2000/svg" xmlns:xlink="http://www.w3.org/1999/xlink" x="0px" y="0px"
	 viewBox="0 0 566.9 165.1" style="enable-background:new 0 0 566.9 165.1;" xml:space="preserve">
<style type="text/css">
	.st0{fill:#FFFFFF;}
</style>
<g id="XMLID_462_">
	<g id="XMLID_564_">
		<path id="XMLID_565_" class="st0" d="M177.7,83.1c-4.7-2-8.5-3.9-8.5-6.9c0-2.1,2.4-4.2,6.5-4.2c3.7,0,6.8,0.9,10.1,2.3
			c0.9,0.4,2.3,0.5,3.1-0.9l1.6-3.3c0.6-1.2,0.1-2.7-1-3.5c-2.3-1.5-7.2-3.5-13.7-3.5c-11.4,0-16.1,6.9-16.1,12.8
			c0,7.7,6,11.6,13.2,14.9c6.5,2.9,10.1,5,10.1,8.1c0,2.7-2.2,4.6-6.2,4.6c-5.6,0-8.9-1.9-11.7-3.5c-1.2-0.7-2.5-0.4-3.1,0.6
			l-2.1,4.4c-0.5,1,0.1,1.9,0.8,2.4c2.6,1.8,8,4.8,15.5,4.8c10.5,0,16.8-6.4,16.8-13.7C192.8,89.9,186.3,86.7,177.7,83.1z"/>
	</g>
	<g id="XMLID_561_">
		<path id="XMLID_563_" class="st0" d="M115.3,125.5c-4.8-3.6-11.8-6.3-19.3-9.2c-8.9-3.4-19-7.3-26.5-13.4
			c-8.6-6.8-12.7-15.4-12.7-26.3c0-9.8,4-18.1,11.7-24.1c8.6-6.8,21.6-10.3,37.6-10.3c4.4,0,8.7,0.3,12.6,0.8c0.3,0,0.7-0.1,0.8-0.5
			c0.2-0.3,0.1-0.7-0.2-0.9c-10.1-9.1-23.2-14.1-36.8-14.1c-14.7,0-28.5,5.7-38.9,16.1C33.2,54,27.5,67.8,27.5,82.5
			c0,14.7,5.7,28.5,16.1,38.9c10.4,10.4,24.2,16.1,38.9,16.1c11.9,0,23.2-3.7,32.7-10.8c0.2-0.2,0.3-0.4,0.3-0.6
			C115.6,125.9,115.5,125.7,115.3,125.5z"/>
		<path id="XMLID_562_" class="st0" d="M137.3,77.5c0-0.2-0.1-0.4-0.3-0.5c-11.5-9.5-20.8-13.4-32.1-13.4c-6,0-10.6,1.2-13.7,3.6
			c-2.7,2.1-4.1,4.9-4.1,8.3c0,9.4,11.6,13.8,24.9,18.8c6.9,2.6,14,5.2,20.6,8.9c0.1,0.1,0.2,0.1,0.4,0.1c0.1,0,0.2,0,0.3-0.1
			c0.2-0.1,0.4-0.2,0.5-0.5c2.5-6.4,3.8-13.2,3.8-20.1C137.6,80.9,137.5,79.2,137.3,77.5z"/>
	</g>
	<path id="XMLID_558_" class="st0" d="M453.6,111.8c1.4-0.2,2.4-1.2,2.4-2.5V85.4c0-12.2-1.5-21.7-17.2-21.7c-9,0-16,2.4-16.9,2.8
		c-1.2,0.4-1.9,1.2-1.6,2.9l1,4c0.3,1.4,1.3,2.3,2.8,2c2.5-0.7,8.1-2.3,13.7-2.3c6.2,0,8.1,3.5,7.9,11.3c0,0-4.8-1.5-9.9-1.5
		c-12.6,0-19.6,6.8-19.6,15.8c0,10.2,6.5,13.7,15.7,13.7c7.5,0,15.3-0.1,18.5-0.3L453.6,111.8z M445.5,103.1
		c-1.5,2.4-6.8,1.8-11.4,1.7c-5.1-0.1-7.6-1.9-7.6-6.2c0-5.1,4.4-8.1,10.1-8.1c4.5,0,8.3,1.3,8.9,1.7L445.5,103.1L445.5,103.1z"/>
	<path id="XMLID_555_" class="st0" d="M533.8,63.2c3.1,0,5.6-2.5,5.6-5.6c0-3.1-2.5-5.6-5.6-5.6s-5.6,2.5-5.6,5.6
		C528.2,60.7,530.7,63.2,533.8,63.2z M533.8,52.9c2.6,0,4.7,2.1,4.7,4.8s-2.1,4.8-4.7,4.8c-2.6,0-4.7-2.1-4.7-4.8
		S531.2,52.9,533.8,52.9z"/>
	<path id="XMLID_552_" class="st0" d="M531.9,60.5h0.5c0.1,0,0.2-0.1,0.2-0.2v-2h1.2l1,2.1c0,0.1,0.1,0.1,0.2,0.1h0.6
		c0.1,0,0.2-0.1,0.1-0.2l-1.1-2c0.7-0.3,1.2-0.9,1.2-1.6c0-1-0.8-1.7-1.8-1.7h-2.2c-0.1,0-0.2,0.1-0.2,0.2v5.3
		C531.8,60.4,531.8,60.5,531.9,60.5z M532.6,55.6h1.4c0.5,0,1,0.4,1,1c0,0.6-0.5,1-1,1h-1.4V55.6z"/>
	<path id="XMLID_551_" class="st0" d="M224.1,63.2c-7.4,0-12.5,4.1-13.6,4.9v-21c0-1.1-1.1-2.2-2.2-2.2h-5.7c-1.2,0-2.2,1.1-2.2,2.2
		v63c0,1.2,1,2.2,2.2,2.2h5.6c1.4,0,2.3-0.9,2.3-2.2V79.7c1-2,5.1-6.8,12.3-6.8c6.1,0,9.4,4.6,9.4,12.3v24.9c0,1.2,1,2.2,2.2,2.2
		h5.7c1.1,0,2.2-1,2.2-2.2V85.4C242.3,72.6,237.4,63.2,224.1,63.2z"/>
	<path id="XMLID_548_" class="st0" d="M343.3,85.9c-0.6-16-7.2-22.7-22.7-22.7c-7.4,0-16.2,2.2-17.5,2.8c-1.6,0.7-2.8,1.5-2.8,2.6
		v0.9V73v11v1.5v43c0,1.2,1,2.2,2.2,2.2h4.7c1.5,0,2.4-0.9,2.4-2.2l0-16.9c1.4,0.4,8.7,1,14.8,0.8c10.9-0.3,18.2-8.2,18.8-21.6
		c0.1-1.8,0.1-4.3,0-6V85.9z M333.5,90.8c-0.2,9.1-2.8,13.1-10.5,13.5c-3.8,0.2-12.7-0.8-12.7-0.8c-0.4-0.1-0.6-0.3-0.6-0.6l0-18.3
		V74c0-0.3,0.2-0.5,0.5-0.5c1-0.1,4.9-1.3,10.4-1.3c9.3,0,12.5,1.4,12.9,13.1C333.5,86.8,333.5,89,333.5,90.8z"/>
	<path id="XMLID_525_" class="st0" d="M410.7,64.2h-4.3c-1.2,0-3,0-3.6,1.4l-7.5,27.1h-0.2l-12.6-28.4c-0.2-0.6-0.9-1.1-2-1.1h-0.7
		c-0.9,0-1.6,0.5-1.9,1.1l-12.7,28.3h-0.2l-7.7-27c-0.2-0.9-1.2-1.4-2-1.4H349c-1.6,0-2.3,1.2-1.6,2.7l13.7,44.3
		c0.2,0.7,0.9,1.2,1.9,1.2h0.6c1,0,1.6-0.5,1.8-1.1l14.5-32h0.2l14.4,31.9c0.3,0.6,1,1.1,2,1.1h0.4c1,0,1.9-0.5,2.1-1.2l13.4-44.3
		C413.2,65.4,412.3,64.2,410.7,64.2z"/>
	<path id="XMLID_482_" class="st0" d="M485.7,63.8c-0.2,0-0.5,0-0.7,0c-0.4,0-0.8,0-1.2,0c-2.4,0-4.8,0.1-7,0.2l0,0
		c-4.2,0.2-6.7,0.5-8.5,0.7c0,0-1.1,0.1-2.5,0.3c-0.9,0.1-1.5,0.5-1.9,1c-0.3,0.3-0.4,0.7-0.4,1.1v0.2v0.9v3.4V81v29.1
		c0,1.2,1,2.2,2.2,2.2h4.7c1.9,0,3.3-0.2,3.3-2.2V81l0,0v-6.7c0-0.3,0.4-0.6,0.7-0.8c1.1-0.7,3.9-1.2,9.5-1.2c0.5,0,0.9,0,1.3,0
		c1.3,0.1,3.3,0.5,3.9,0.9c1,0.5,2.2,0.2,2.9-1.1l2.4-4C495.8,65,490.2,63.8,485.7,63.8z"/>
	<path id="XMLID_470_" class="st0" d="M518,63.2c-14.1,0-23.4,11.3-23.4,24.5c0,13.4,9.3,24.6,23.5,24.6c7.8,0,14-2.8,17.4-5.8
		c1.4-1.2,1-2.1,0.2-3.2l-2.8-4.3c-0.8-1.2-1.7-0.9-2.8-0.2c-2.8,2-6.1,4-11.5,4c-8.2,0-13.9-6.5-14-12.8h32.5c1,0,2-0.8,2.1-2
		c0.1-0.8,0.2-2.4,0.2-3.3C539.4,72.3,530.2,63.2,518,63.2z M505.1,82.5c0.7-5.9,5.2-10.7,12.6-10.7c6.9,0,11.4,5,11.6,10.7H505.1z"
		/>
	<path id="XMLID_463_" class="st0" d="M292.1,77.8c-1.1-3-2.5-5.6-4.5-7.8s-4.2-3.8-6.9-5s-6.4-1.8-9.5-1.8s-6.9,0.6-9.5,1.8
		s-4.9,2.8-6.9,5c-1.9,2.2-3.4,4.8-4.5,7.8c-1.1,3-1.6,6.4-1.6,10c0,3.7,0.5,7.1,1.6,10.1s2.6,5.6,4.5,7.7c1.9,2.2,4.2,3.8,6.9,5
		s6.4,1.8,9.5,1.8s6.9-0.6,9.5-1.8s4.9-2.8,6.9-5c1.9-2.2,3.4-4.7,4.5-7.7s1.6-6.4,1.6-10.1C293.7,84.1,293.2,80.8,292.1,77.8z
		 M271,104.3c-8.5,0-12.8-7.2-12.8-16.1s4.3-16.1,12.8-16.1s12.8,7.2,12.8,16.1S279.5,104.3,271,104.3z"/>
</g>
</svg>
