<?xml version="1.0" encoding="UTF-8"?>
<svg width="925px" height="400px" viewBox="0 0 925 400" version="1.1" xmlns="http://www.w3.org/2000/svg" xmlns:xlink="http://www.w3.org/1999/xlink">
    <title>39CEE8DD-832D-4256-B1FF-B4F1E0A4EB99@1x</title>
    <g id="Symbols" stroke="none" stroke-width="1" fill="none" fill-rule="evenodd">
        <g id="Group-241" transform="translate(27.000000, 0.000000)">
            <path d="M502.48528,6.9037609 C583.625006,-22.9231382 700.23995,48.8143462 720.677808,127.689315 C741.115666,206.564035 673.585156,209.533649 626.03721,289.476613 C578.488767,369.419577 529.136588,430.112976 446.2001,383.896787 C339.436463,324.403138 352.09325,264.458182 280.125629,276.655691 C208.158007,288.852951 118.144558,250.387696 184.955268,158.722939 C251.765729,67.0581818 265.419029,-6.19785803 339.427497,14.228792 C424.349041,37.6671482 502.48528,6.9037609 502.48528,6.9037609" id="Fill-1" fill="#F4F7F9"></path>
            <path d="M463.04528,273.0934 L421.681146,236.780075 C417.462466,233.076712 417.045031,226.654795 420.748394,222.436115 L503.076413,128.657036 C506.779776,124.438605 513.201694,124.020922 517.420374,127.724284 L558.784508,164.037609 C563.002939,167.740971 563.420623,174.162889 559.71726,178.381569 L477.38924,272.160648 C473.685878,276.379078 467.263711,276.796762 463.04528,273.0934" id="Fill-3" fill="#304056"></path>
            <path d="M559.940498,165.621071 L552.575616,159.287821 L557.414969,153.659676 C559.305131,151.46142 560.226177,148.65868 560.008493,145.767771 C559.790809,142.876613 558.460299,140.243487 556.261793,138.353325 L554.719078,137.02655 L561.052329,129.661669 L562.595044,130.988194 C566.760672,134.570012 569.281968,139.559552 569.69467,145.038007 C570.107372,150.516214 568.362167,155.827298 564.7801,159.992927 L559.940498,165.621071 Z" id="Fill-5" fill="#304056"></path>
            <path d="M554.480996,157.071831 L552.575641,159.287771 L559.940523,165.621021 L561.739527,163.528867 C557.146002,160.745554 555.138281,158.095492 554.480996,157.071831" id="Fill-7" fill-opacity="0.1" fill="#000000"></path>
            <path d="M562.595093,130.988244 L561.052379,129.661469 L554.719128,137.0266 L556.261843,138.353375 C557.240922,139.195218 558.04665,140.185006 558.659851,141.278655 C562.340797,139.530461 565.00929,136.23457 566.049639,134.797958 C565.0733,133.406177 563.918132,132.125729 562.595093,130.988244" id="Fill-9" fill-opacity="0.1" fill="#000000"></path>
            <path d="M524.103213,293.870237 C524.103213,293.870237 518.896737,313.629888 513.544558,314.294147 C508.192379,314.958655 496.389141,309.912827 503.934097,295.276961 C503.934097,295.276961 490.95477,293.145704 498.660872,289.307597 C506.366974,285.469489 511.284533,283.782565 511.284533,283.782565 L524.103213,293.870237 Z" id="Fill-11" fill="#304056"></path>
            <path d="M511.006326,283.881196 C511.27208,284.155915 519.739328,292.928269 522.566227,298.983064 C523.528867,296.049066 524.103213,293.870237 524.103213,293.870237 L511.284533,283.782565 C511.284533,283.782565 511.187895,283.815691 511.006326,283.881196" id="Fill-13" fill-opacity="0.1" fill="#000000"></path>
            <path d="M367.065131,101.573649 C367.065131,101.573649 358.445455,92.170411 348.258904,92.0137484 C338.072105,91.8570859 327.728394,94.3646824 331.489788,100.790087 C335.251183,107.215492 339.012329,108.625953 346.691532,108.625953 C346.691532,108.625953 335.878082,109.409514 340.266127,114.58137 C344.654172,119.752976 353.430511,114.894695 357.818555,117.245629 C362.206849,119.596314 367.065131,101.573649 367.065131,101.573649" id="Fill-15" fill="#304056"></path>
            <path d="M364.73061,99.367198 C362.71467,100.880772 356.291258,106.440922 354.988643,116.572428 C356.044932,116.622989 357.007073,116.810785 357.81878,117.245654 C362.206824,119.596339 367.065106,101.573674 367.065106,101.573674 C367.065106,101.573674 366.213549,100.645156 364.73061,99.367198" id="Fill-17" fill-opacity="0.1" fill="#000000"></path>
            <path d="M535.917808,149.059278 C535.917808,149.059278 547.210461,171.174844 553.502117,217.662267 C553.964384,221.07746 553.833873,224.546949 553.108095,227.915816 C550.669988,239.230884 545.574097,274.754421 526.722291,293.931507 C525.990286,294.676214 524.820174,294.763636 523.995517,294.123288 L510.957908,283.998257 C510.284932,283.475467 510.005729,282.591781 510.257036,281.777335 C512.329514,275.063761 521.375841,245.1467 521.616438,233.739726 C521.694894,230.022914 520.124284,222.338481 519.195019,214.96812 C518.891905,212.56264 518.578331,209.907098 518.436613,207.343462 C518.384807,206.408468 517.227148,206.007223 516.609465,206.711083 L468.498381,261.535243 C468.498381,261.535243 454.497385,275.396513 433.791034,280.365878 C413.084932,285.335492 395.691905,292.127024 391.219427,295.936986 C386.7467,299.746949 351.629141,342.318804 345.334247,343.975342 L331.088667,323.931756 L354.316314,277.865504 C358.60274,269.364384 364.878456,262.024408 372.613948,256.474222 C381.441594,250.140473 393.033873,242.050062 399.501619,238.456787 C405.184309,235.299626 408.667746,233.433375 410.757908,232.344458 C411.404234,232.007721 411.139228,231.027895 410.410959,231.064259 C399.253051,231.616936 362.940224,231.112827 348.812951,229.014695 C332.082441,226.530012 301.106102,234.978082 283.21594,240.444583 L275.099128,215.431382 C275.099128,215.431382 332.082441,188.927522 333.242092,189.093151 C334.401494,189.25878 370.76538,188.152428 386.170859,190.471731 C401.57609,192.790785 420.625654,184.839601 433.380822,169.102864 C433.380822,169.102864 440.835118,161.482939 427.748692,159.992279 C414.662516,158.50137 394.4533,148.783313 394.4533,148.783313 L357.874471,119.377833 C357.235616,118.864259 356.9066,118.060025 357.002242,117.245828 C357.371606,114.105106 359.032379,106.167372 366.48792,100.96538 C367.247073,100.435616 368.258032,100.441843 369.017186,100.971357 C375.663263,105.60523 407.425903,127.560648 413.688667,128.310336 C429.369614,130.187796 461.209963,125.371357 478.934496,127.027895 C478.934496,127.027895 497.321544,153.200498 535.917808,149.059278" id="Fill-19" fill="#FFFFFF"></path>
            <path d="M486.185081,87.3760399 C486.299153,87.0781569 486.415218,86.7800249 486.532777,86.4826401 C486.415218,86.7800249 486.299153,87.0779078 486.185081,87.3760399" id="Fill-21" fill="#FFFFFF"></path>
            <path d="M485.784234,88.4454047 C485.897808,88.1358157 486.013375,87.8262267 486.131432,87.5168867 C486.013624,87.8262267 485.897808,88.1358157 485.784234,88.4454047" id="Fill-23" fill="#FFFFFF"></path>
            <path d="M486.584209,86.3532752 C486.712727,86.0307347 486.842989,85.7086924 486.97599,85.3868991 C486.842989,85.7086924 486.712727,86.0307347 486.584209,86.3532752" id="Fill-25" fill="#FFFFFF"></path>
            <path d="M486.991133,85.3504359 C487.420772,84.3125778 487.874819,83.2787049 488.355019,82.2520548 C487.875068,83.2787049 487.420772,84.3125778 486.991133,85.3504359" id="Fill-27" fill="#FFFFFF"></path>
            <path d="M488.369514,82.2209465 C488.51995,81.8991532 488.673375,81.5783562 488.829041,81.2583064 C488.673375,81.5783562 488.51995,81.8991532 488.369514,82.2209465" id="Fill-29" fill="#FFFFFF"></path>
            <path d="M484.363786,92.64 C484.463412,92.319203 484.565529,91.9979078 484.66939,91.6766127 C484.565529,91.9981569 484.463412,92.319203 484.363786,92.64" id="Fill-31" fill="#FFFFFF"></path>
            <path d="M483.747198,94.7014695 C483.83188,94.4065753 483.918306,94.1111831 484.005978,93.8152927 C483.918306,94.1111831 483.83188,94.4065753 483.747198,94.7014695" id="Fill-33" fill="#FFFFFF"></path>
            <path d="M484.054645,93.6529265 C484.141569,93.3622665 484.229988,93.0716065 484.320149,92.7804483 C484.229988,93.0716065 484.141569,93.3622665 484.054645,93.6529265" id="Fill-35" fill="#FFFFFF"></path>
            <path d="M497.009465,68.5567123 C497.249813,68.2742715 497.492902,67.9940722 497.739975,67.7163636 C497.493151,67.9940722 497.249813,68.2742715 497.009465,68.5567123" id="Fill-37" fill="#FFFFFF"></path>
            <path d="M493.45858,73.223188 C494.323836,71.9524533 495.24264,70.7118555 496.21873,69.5083686 C495.242889,70.7118555 494.323836,71.9524533 493.45858,73.223188" id="Fill-39" fill="#FFFFFF"></path>
            <path d="M496.258132,69.4601993 C496.486526,69.1792528 496.718157,68.9002989 496.952777,68.6235866 C496.718157,68.9002989 496.486526,69.1792528 496.258132,69.4601993" id="Fill-41" fill="#FFFFFF"></path>
            <path d="M482.893699,97.8698879 C483.148244,96.8601743 483.42122,95.8417435 483.713624,94.8178331 C483.42122,95.8417435 483.147995,96.8601743 482.893699,97.8698879" id="Fill-43" fill="#FFFFFF"></path>
            <path d="M501.05193,64.3296638 C499.893275,65.4048817 498.796638,66.5286675 497.759278,67.6942964 C498.796638,66.5289166 499.893275,65.4046326 501.05193,64.3296638" id="Fill-45" fill="#FFFFFF"></path>
            <path d="M489.892852,79.1607472 C490.601694,77.8210212 491.358854,76.499726 492.167323,75.2043337 C491.358854,76.499726 490.601694,77.8210212 489.892852,79.1607472" id="Fill-47" fill="#FFFFFF"></path>
            <path d="M492.835666,74.1579078 C493.034919,73.8530511 493.236663,73.5494396 493.441893,73.2478207 C493.236663,73.5496887 493.034919,73.852802 492.835666,74.1579078" id="Fill-49" fill="#FFFFFF"></path>
            <path d="M489.384508,80.1414446 C489.546152,79.8233873 489.710535,79.5060772 489.87741,79.1900125 C489.710535,79.5060772 489.546152,79.8233873 489.384508,80.1414446" id="Fill-51" fill="#FFFFFF"></path>
            <path d="M488.880772,81.1521793 C489.028219,80.8505604 489.177659,80.5496887 489.329838,80.2493151 C489.177659,80.5496887 489.028219,80.8505604 488.880772,81.1521793" id="Fill-53" fill="#FFFFFF"></path>
            <path d="M492.215691,75.1270486 C492.400996,74.8314072 492.589041,74.5367621 492.779826,74.2438605 C492.589041,74.5367621 492.400996,74.8314072 492.215691,75.1270486" id="Fill-55" fill="#FFFFFF"></path>
            <path d="M484.681669,91.6382565 C485.01741,90.6026401 485.374072,89.5647821 485.753898,88.5274222 C485.374321,89.5647821 485.01741,90.6026401 484.681669,91.6382565" id="Fill-57" fill="#FFFFFF"></path>
            <path d="M507.739502,59.1710087 C507.409738,59.3802242 507.083213,59.5924284 506.760672,59.8086177 C507.083213,59.5924284 507.409738,59.3799751 507.739502,59.1710087" id="Fill-59" fill="#FFFFFF"></path>
            <path d="M506.734969,59.8257783 C505.38005,60.7351183 504.092877,61.7049813 502.869714,62.7278954 C504.092877,61.7052304 505.38005,60.7351183 506.734969,59.8257783" id="Fill-61" fill="#FFFFFF"></path>
            <path d="M540.59726,51.698929 C530.860274,51.1377833 522.683935,52.4633126 515.811706,55.1148692 C516.209963,54.9611955 516.611955,54.8115068 517.018929,54.6670486 C526.617186,57.6959402 545.205978,65.9320548 543.082192,79.030934 C540.321046,96.0593275 526.351681,119.449614 518.731507,124.915866 C511.111582,130.382366 501.669738,123.756463 501.669738,123.756463 L480.246077,112.15721 C479.160897,120.808269 479.250311,126.857833 478.975841,126.903661 L478.864757,132.370162 L499.847821,145.622217 L521.547696,151.750984 L535.959153,148.935044 C587.641843,140.818232 598.077709,55.0117559 540.59726,51.698929" id="Fill-63" fill="#FFFFFF"></path>
            <path d="M501.080872,64.3031382 C501.355841,64.0488418 501.634296,63.7970361 501.916239,63.5482192 C501.634296,63.7970361 501.355841,64.0485928 501.080872,64.3031382" id="Fill-65" fill="#FFFFFF"></path>
            <path d="M502.836737,62.7558406 C502.547821,62.9979328 502.262391,63.2432628 501.980448,63.4913325 C502.262391,63.2432628 502.547821,62.9979328 502.836737,62.7558406" id="Fill-67" fill="#FFFFFF"></path>
            <path d="M508.801196,58.51868 C508.470934,58.7156912 508.144159,58.9159402 507.821121,59.1194271 C508.144159,58.9159402 508.470934,58.7154421 508.801196,58.51868" id="Fill-69" fill="#FFFFFF"></path>
            <path d="M515.702839,55.1572603 C515.333973,55.3007223 514.968344,55.4479203 514.606949,55.5988543 C514.968344,55.4479203 515.333973,55.3007223 515.702839,55.1572603" id="Fill-71" fill="#FFFFFF"></path>
            <path d="M514.49203,55.6469988 C514.114446,55.8056538 513.741096,55.9682939 513.37198,56.1351681 C513.741096,55.9682939 514.114446,55.8056538 514.49203,55.6469988" id="Fill-73" fill="#FFFFFF"></path>
            <path d="M508.86274,58.4818431 C510.284159,57.6382565 511.77457,56.8584309 513.33746,56.1505853 C511.77457,56.8584309 510.284159,57.6382565 508.86274,58.4818431" id="Fill-75" fill="#FFFFFF"></path>
            <path d="M481.380573,104.821121 C481.613948,103.560598 481.873973,102.27193 482.163387,100.962092 C481.873973,102.27193 481.613948,103.560598 481.380573,104.821121" id="Fill-77" fill="#FFFFFF"></path>
            <path d="M481.211781,105.752453 C481.260349,105.478232 481.310411,105.202516 481.361469,104.925554 C481.310411,105.202516 481.260349,105.478232 481.211781,105.752453" id="Fill-79" fill="#FFFFFF"></path>
            <path d="M482.191009,100.838007 C482.253275,100.557061 482.317036,100.275367 482.382291,99.9926775 C482.317036,100.275367 482.253275,100.557061 482.191009,100.838007" id="Fill-81" fill="#FFFFFF"></path>
            <path d="M482.652902,98.8459776 C482.729365,98.5296638 482.807572,98.2126027 482.887522,97.8945455 C482.807572,98.2126027 482.729365,98.5296638 482.652902,98.8459776" id="Fill-83" fill="#FFFFFF"></path>
            <path d="M482.420374,99.8282441 C482.48538,99.5480448 482.551631,99.2670984 482.619377,98.9851557 C482.551631,99.2670984 482.48538,99.5480448 482.420374,99.8282441" id="Fill-85" fill="#FFFFFF"></path>
            <path d="M480.246899,112.15056 C480.281519,111.87609 480.317136,111.599128 480.353998,111.319427 C480.317136,111.599128 480.281519,111.87609 480.246899,112.15056" id="Fill-87" fill="#FFFFFF"></path>
            <path d="M481.048095,106.698481 C481.093923,106.428493 481.140498,106.157011 481.188568,105.883786 C481.140498,106.157011 481.093923,106.428493 481.048095,106.698481" id="Fill-89" fill="#FFFFFF"></path>
            <path d="M480.359751,111.275915 C480.396613,110.996712 480.43472,110.715268 480.474072,110.431083 C480.43472,110.715268 480.396613,110.996712 480.359751,111.275915" id="Fill-91" fill="#FFFFFF"></path>
            <path d="M480.476513,110.412827 C480.638406,109.2467 480.822217,108.040473 481.030685,106.801868 C480.822217,108.040722 480.638406,109.2467 480.476513,110.412827" id="Fill-93" fill="#FFFFFF"></path>
            <path d="M513.173001,188.518481 C509.801395,192.380747 503.937385,192.778506 500.075118,189.406899 C496.212852,186.035542 495.814844,180.171283 499.1867,176.309016 C502.558057,172.446999 508.422316,172.048991 512.284583,175.420598 C516.1466,178.792204 516.544608,184.656214 513.173001,188.518481" id="Fill-95" fill="#94B0D5"></path>
            <path d="M510.372229,186.073549 C508.351059,188.388867 504.835243,188.627472 502.520174,186.606301 C500.204608,184.584882 499.966252,181.069564 501.987422,178.753998 C504.008593,176.43868 507.52391,176.200075 509.839477,178.221494 C512.154795,180.242665 512.3934,183.758232 510.372229,186.073549" id="Fill-97" fill-opacity="0.1" fill="#000000"></path>
            <path d="M482.769913,223.603711 L468.528817,211.17208 C467.074271,209.90259 466.924832,207.694371 468.194321,206.240075 L485.574396,186.330237 C486.843885,184.87594 489.052105,184.726252 490.506401,185.995741 L504.747248,198.427372 C506.201793,199.696862 506.351731,201.905081 505.081993,203.359377 L487.701918,223.269215 C486.432179,224.723512 484.224209,224.8732 482.769913,223.603711" id="Fill-99" fill-opacity="0.1" fill="#000000"></path>
            <path d="M491.807049,195.969788 C490.468817,197.503039 488.140797,197.660946 486.607547,196.322466 C485.074296,194.983985 484.916389,192.656214 486.254869,191.122964 C487.59335,189.589714 489.921121,189.431806 491.454371,190.770286 C492.987621,192.108767 493.145529,194.436538 491.807049,195.969788" id="Fill-101" fill="#94B0D5"></path>
            <path d="M500.241245,203.332329 C498.902765,204.865579 496.574994,205.023487 495.041743,203.685255 C493.508493,202.346526 493.350585,200.018755 494.689066,198.485504 C496.027547,196.952254 498.355318,196.794346 499.888568,198.132827 C501.421818,199.471308 501.579726,201.799078 500.241245,203.332329" id="Fill-103" fill="#94B0D5"></path>
            <path d="M487.021295,218.476463 C485.682814,220.009714 483.355044,220.167621 481.821793,218.829141 C480.288543,217.49066 480.130635,215.162889 481.469116,213.629639 C482.807597,212.096389 485.135367,211.938481 486.668618,213.276961 C488.201868,214.615442 488.359776,216.943213 487.021295,218.476463" id="Fill-105" fill="#94B0D5"></path>
            <path d="M493.2134,205.891806 L484.585255,198.359801 C484.579527,198.354819 484.5733,198.350834 484.567323,198.345853 C484.561843,198.340623 484.556862,198.335143 484.551133,198.329913 C483.094346,197.058431 480.882391,197.208369 479.61066,198.665156 L473.121743,206.09878 C471.877908,207.523686 471.898829,209.709489 473.267696,211.014844 C474.720747,212.400648 477.018879,212.282839 478.32523,210.786451 L480.69335,208.073624 C481.737435,206.877609 483.553126,206.754321 484.749141,207.798406 L488.690859,211.239502 C490.187497,212.545853 492.480399,212.351831 493.732951,210.782715 C494.912777,209.304508 494.638555,207.135641 493.2134,205.891806" id="Fill-107" fill="#94B0D5"></path>
            <path d="M411.231656,155.708045 C411.231656,155.708045 411.231656,155.708045 411.231905,155.708045 C411.991308,155.977285 412.758929,156.24254 413.532279,156.50132 C413.672503,156.537684 413.806501,156.579527 413.928294,156.632578 C413.928294,156.632578 413.928543,156.632578 413.928792,156.632578 C414.808244,156.923736 415.693425,157.206177 416.578356,157.475915 C416.599776,157.482391 416.621196,157.488867 416.642615,157.495342 C416.915093,157.578281 417.187821,157.659975 417.46005,157.740423 C417.480722,157.74665 417.501395,157.752628 417.521818,157.758854 C418.102142,157.929714 418.681719,158.094844 419.258555,158.252752 C419.285953,158.260473 419.313599,158.267696 419.340996,158.275168 C419.589315,158.342914 419.837136,158.409166 420.084209,158.474172 C420.139502,158.488867 420.194545,158.503313 420.249589,158.517509 C420.488194,158.579776 420.72655,158.640797 420.96391,158.700324 C421.003014,158.710037 421.042366,158.720249 421.081719,158.729963 C421.629664,158.8667 422.173624,158.995218 422.712354,159.115766 C422.780598,159.131208 422.848593,159.145903 422.916837,159.160847 C423.116837,159.205181 423.31609,159.247771 423.514595,159.289614 C423.588568,159.305056 423.66279,159.320747 423.736513,159.33594 C423.956687,159.38127 424.175866,159.424857 424.394047,159.467198 C424.434645,159.475168 424.475741,159.483387 424.516588,159.491108 C424.77462,159.540423 425.030411,159.587248 425.284707,159.631831 C425.343985,159.642042 425.402267,159.651507 425.460797,159.661719 C425.654072,159.694844 425.846102,159.726725 426.037136,159.756862 C426.118082,159.769564 426.19878,159.782017 426.279228,159.794222 C426.455318,159.821121 426.629913,159.846526 426.803761,159.870934 C426.87873,159.881146 426.953948,159.892105 427.028169,159.902067 C427.270511,159.934446 427.511108,159.965081 427.748717,159.992229 C428.56665,160.08538 429.304384,160.202441 429.968643,160.340174 C434.286202,161.235068 435.50264,162.99995 435.494919,164.712528 C435.484458,166.952379 433.380847,169.102814 433.380847,169.102814 C433.37736,169.107049 433.373873,169.111283 433.370386,169.115517 C433.157933,169.377534 432.943238,169.63731 432.727298,169.894844 C432.65457,169.981768 432.580847,170.067198 432.50787,170.153624 C432.359925,170.328219 432.211482,170.502565 432.061793,170.675417 C431.975118,170.775542 431.887447,170.874919 431.800274,170.974545 C431.661544,171.132453 431.522814,171.289614 431.382839,171.446027 C431.291432,171.548144 431.199527,171.649763 431.107621,171.751382 C430.968394,171.904807 430.828418,172.057235 430.687945,172.209166 C430.596538,172.308045 430.505131,172.406924 430.413225,172.505056 C430.26528,172.662715 430.116588,172.818879 429.967397,172.974795 C429.882715,173.063213 429.798531,173.15213 429.713599,173.24005 C429.533275,173.426351 429.351706,173.61066 429.169639,173.794222 C429.115093,173.849016 429.061046,173.905056 429.006501,173.959601 C428.76939,174.196961 428.530535,174.43208 428.290187,174.664707 C428.228418,174.724483 428.166152,174.783014 428.104134,174.84254 C427.924558,175.015143 427.744732,175.18675 427.56391,175.356613 C427.475243,175.439552 427.386326,175.521494 427.29741,175.603935 C427.140747,175.749141 426.984334,175.893599 426.826675,176.036812 C426.730037,176.124732 426.632902,176.211656 426.536015,176.29858 C426.383337,176.435567 426.230411,176.571806 426.076737,176.7068 C425.978356,176.793474 425.879975,176.879651 425.781096,176.965579 C425.623686,177.102067 425.465778,177.23731 425.307621,177.372055 C425.213225,177.452503 425.119078,177.5332 425.024184,177.612902 C424.847597,177.761345 424.670262,177.908045 424.492428,178.054247 C424.416214,178.116762 424.340498,178.180025 424.264284,178.242291 C424.008493,178.450511 423.751706,178.656737 423.493425,178.860224 C423.477484,178.872677 423.461793,178.884633 423.445853,178.897086 C423.204259,179.087123 422.961669,179.274919 422.717833,179.460722 C422.636139,179.523238 422.553699,179.584259 422.471507,179.646276 C422.292677,179.78127 422.113599,179.915766 421.933524,180.048518 C421.837385,180.119751 421.740498,180.189738 421.643861,180.260224 C421.47599,180.382516 421.30787,180.504309 421.139004,180.624608 C421.03863,180.696339 420.938007,180.767323 420.837385,180.838306 C420.668518,180.957111 420.499402,181.074919 420.329788,181.191731 C420.231407,181.259726 420.132777,181.327721 420.034147,181.394969 C419.853574,181.517758 419.672503,181.638804 419.491432,181.759352 C419.404259,181.817385 419.317584,181.875666 419.230411,181.932951 C418.998531,182.08538 418.765903,182.235816 418.532777,182.384508 C418.496413,182.407671 418.460299,182.431582 418.423935,182.454745 C418.151208,182.627846 417.877484,182.798456 417.602765,182.966575 C417.538506,183.006177 417.473748,183.044284 417.40924,183.083636 C417.201021,183.209913 416.992553,183.335691 416.783587,183.458979 C416.691432,183.513524 416.599029,183.566824 416.507123,183.620623 C416.323811,183.727472 416.140498,183.833574 415.956936,183.938182 C415.856563,183.995218 415.75594,184.051756 415.655318,184.108294 C415.476986,184.208418 415.298406,184.307547 415.119328,184.40543 C415.018705,184.460722 414.917584,184.516015 414.816712,184.57056 C414.631407,184.670685 414.445604,184.769315 414.259801,184.866949 C414.167148,184.915766 414.074745,184.965081 413.981843,185.013151 C413.768394,185.123985 413.554197,185.233076 413.34,185.341171 C413.275492,185.373549 413.211233,185.406924 413.146725,185.439054 C412.86279,185.580523 412.578605,185.72 412.293674,185.856239 C412.277983,185.863711 412.262291,185.870934 412.2466,185.878406 C411.982341,186.004433 411.717584,186.128219 411.452578,186.249763 C411.370884,186.287123 411.288692,186.323487 411.206999,186.360598 C411.006999,186.451258 410.80675,186.540922 410.606501,186.628842 C410.509116,186.671432 410.411731,186.713275 410.314346,186.755367 C410.1268,186.836563 409.939004,186.916513 409.750959,186.995218 C409.650585,187.03731 409.550461,187.079153 409.449838,187.120498 C409.261046,187.198207 409.072254,187.274421 408.883213,187.349888 C408.786575,187.388493 408.689938,187.427347 408.593051,187.465205 C408.388817,187.545405 408.184334,187.623611 407.979851,187.701071 C407.900399,187.731208 407.820946,187.762092 407.741245,187.791731 C407.460797,187.896339 407.1801,187.998705 406.899153,188.098082 L406.891183,188.101071 L407.50812,189.038057 C407.50812,189.038057 425.950461,183.074421 435.778854,170.264458 C445.406999,157.715268 427.612478,159.961345 411.231656,155.708045" id="Fill-109" fill-opacity="0.1" fill="#000000"></path>
            <path d="M537.606052,152.600697 C536.579153,150.152379 535.959228,148.934944 535.959228,148.934944 C535.957484,148.935193 535.955492,148.935442 535.953748,148.935691 C535.412528,148.993724 534.876538,149.043786 534.343039,149.090112 C534.183885,149.103811 534.025479,149.116264 533.866824,149.128966 C533.4733,149.160598 533.082017,149.18924 532.692478,149.214894 C532.536314,149.225106 532.379651,149.235816 532.223985,149.245031 C531.702441,149.275915 531.183636,149.303313 530.669813,149.323238 C530.666326,149.323238 530.662839,149.323487 530.659103,149.323487 C530.144533,149.343412 529.635193,149.356364 529.128593,149.36533 C528.976912,149.36807 528.825978,149.369564 528.675044,149.371308 C528.301694,149.375791 527.930336,149.377534 527.561469,149.376289 C527.412279,149.375791 527.263088,149.375791 527.114894,149.374296 C526.62,149.369813 526.127597,149.361843 525.640672,149.347148 C524.546775,149.314271 523.473051,149.256737 522.418506,149.176289 C521.928095,149.139178 521.442665,149.095841 520.960473,149.048767 C520.799078,149.032827 520.639925,149.014396 520.479278,148.99746 C520.155741,148.963587 519.8332,148.928966 519.5134,148.89061 C519.327597,148.868443 519.143786,148.844035 518.959228,148.820374 C518.667572,148.783014 518.376663,148.744907 518.088244,148.703811 C517.897958,148.676912 517.709166,148.649016 517.520374,148.620623 C517.239178,148.578281 516.959228,148.534197 516.680772,148.488867 C516.494969,148.458232 516.309415,148.427597 516.124857,148.395965 C515.842665,148.347148 515.563213,148.296339 515.284259,148.244284 C515.110162,148.211905 514.935318,148.180274 514.762217,148.14665 C514.460847,148.08787 514.162466,148.026351 513.865081,147.964085 C513.720623,147.933699 513.57467,147.904807 513.430959,147.873923 C512.553748,147.683885 511.693724,147.478655 510.850635,147.259228 C510.71066,147.222864 510.572927,147.184259 510.43345,147.147148 C510.153001,147.07193 509.873051,146.996463 509.596339,146.918257 C509.434944,146.872677 509.275791,146.825604 509.11589,146.779278 C508.974919,146.738182 508.835193,146.695841 508.695218,146.654247 C525.942291,152.425604 537.591606,152.600448 537.606052,152.600697" id="Fill-111" fill="#000000"></path>
            <path d="M348.813026,229.014695 C362.94005,231.112827 399.253126,231.616936 410.411034,231.064259 C410.59609,231.055044 410.75076,231.111831 410.868568,231.206476 C410.592603,230.282939 409.636189,228.446575 406.049141,228.381569 C401.828468,228.305106 366.877534,229.469988 348.12411,228.920548 C348.35599,228.950436 348.586376,228.981071 348.813026,229.014695" id="Fill-113" fill-opacity="0.1" fill="#000000"></path>
            <path d="M377.3599,306.317709 C366.943711,319.828045 357.299128,333.047721 356.06924,334.736887 C368.866002,321.548842 387.996762,298.682092 391.219427,295.937136 C392.043836,295.23477 393.308593,294.430785 394.950934,293.556065 C394.950934,293.556065 388.513574,291.850959 377.3599,306.317709" id="Fill-115" fill-opacity="0.1" fill="#000000"></path>
            <path d="M456.650685,250.05213 L436.386426,237.904682 C436.386426,237.904682 443.444707,249.610286 465.791656,263.94254 C467.552055,262.471308 468.498506,261.535068 468.498506,261.535068 L472.75604,256.683512 L456.650685,250.05213 Z" id="Fill-117" fill-opacity="0.1" fill="#000000"></path>
            <path d="M283.342466,211.606949 C278.362889,213.913549 275.099128,215.431357 275.099128,215.431357 L283.21594,240.444558 C284.788045,239.824633 286.485181,239.153649 288.282192,238.449788 C285.921544,224.928742 283.511083,215.137958 283.342466,211.606949" id="Fill-119" fill="#94B0D5"></path>
            <path d="M333.420672,319.306575 L331.088667,323.931731 L345.334247,343.975318 C346.912578,343.559875 350.282192,340.457758 354.515567,335.98254 C344.340473,328.735467 335.943213,322.008692 333.420672,319.306575" id="Fill-121" fill="#94B0D5"></path>
            <path d="M501.80812,144.151781 C501.568518,144.048169 501.329415,143.944309 501.093798,143.839203 C500.958306,143.778431 500.824807,143.717161 500.690809,143.656139 C500.476115,143.558506 500.262665,143.460374 500.051457,143.361245 C499.913724,143.296488 499.776737,143.231482 499.640249,143.165978 C499.435019,143.067846 499.231283,142.969215 499.029041,142.869838 C498.894795,142.803836 498.761046,142.737584 498.627796,142.671083 C498.423562,142.568966 498.221818,142.465853 498.020822,142.362242 C497.89604,142.298232 497.771009,142.234471 497.647721,142.169714 C497.429539,142.055641 497.214595,141.940573 497.000399,141.825255 C496.899278,141.77071 496.796912,141.716912 496.696787,141.662117 C496.071133,141.320897 495.462665,140.974944 494.870884,140.625504 C494.773499,140.56797 494.678107,140.509938 494.581469,140.452154 C494.384458,140.334346 494.187945,140.216538 493.99467,140.097983 C493.883587,140.029738 493.774247,139.961494 493.664408,139.893001 C493.48807,139.783412 493.312727,139.673823 493.139377,139.563736 C493.027547,139.492503 492.916961,139.42127 492.806127,139.350286 C492.638257,139.241694 492.471631,139.13335 492.306501,139.024508 C492.198157,138.953026 492.090062,138.881793 491.983213,138.81056 C491.816588,138.699228 491.652453,138.588144 491.489066,138.476812 C491.389191,138.408817 491.288817,138.340822 491.190187,138.272827 C491.01335,138.150785 490.839751,138.028742 490.667148,137.9067 C490.5867,137.850162 490.505255,137.793873 490.426052,137.737335 C489.924682,137.379925 489.440249,137.023014 488.972254,136.668344 C488.89604,136.61056 488.822067,136.553026 488.746849,136.495492 C488.590187,136.375691 488.434521,136.25589 488.281594,136.136588 C488.195417,136.069091 488.110735,136.002092 488.025554,135.934844 C487.887073,135.825504 487.749838,135.716413 487.614595,135.607821 C487.527173,135.537584 487.440747,135.467597 487.355068,135.397609 C487.224558,135.291756 487.095791,135.186152 486.968518,135.080797 C486.88533,135.012055 486.80264,134.943562 486.720946,134.875068 C486.591432,134.766974 486.464658,134.659626 486.338381,134.552528 C486.263412,134.488767 486.187945,134.425006 486.114222,134.361494 C485.977983,134.244682 485.84523,134.128867 485.713225,134.0133 C485.653699,133.961245 485.592927,133.908941 485.534147,133.857136 C485.155567,133.523387 484.793674,133.195367 484.44797,132.874819 C484.393674,132.824508 484.341619,132.775193 484.288319,132.72538 C484.171258,132.61604 484.055193,132.506949 483.942117,132.399601 C483.880349,132.340573 483.819826,132.28254 483.759054,132.224259 C483.657684,132.126874 483.557061,132.029988 483.45868,131.934097 C483.397659,131.874819 483.337634,131.815791 483.277858,131.757011 C483.183213,131.66411 483.090311,131.572204 482.998904,131.481046 C482.940623,131.423014 482.882839,131.364981 482.825554,131.307696 C482.734147,131.215791 482.64523,131.125131 482.557061,131.035218 C482.506002,130.982914 482.454197,130.93061 482.404384,130.879054 C482.308991,130.780922 482.216588,130.684782 482.12543,130.589141 C482.085828,130.548045 482.04523,130.506202 482.006874,130.465604 C481.749838,130.195118 481.509489,129.93609 481.285579,129.690012 C481.251208,129.652154 481.219078,129.616289 481.185455,129.579178 C481.109738,129.495243 481.034521,129.411806 480.96254,129.331108 C480.923437,129.287522 480.886575,129.24543 480.848966,129.202839 C480.785205,129.13061 480.722441,129.059626 480.662167,128.990137 C480.624807,128.947796 480.588941,128.906202 480.552827,128.864857 C480.495542,128.798356 480.439502,128.733599 480.385205,128.670087 C480.351582,128.630486 480.318207,128.591631 480.285828,128.553275 C480.231532,128.489514 480.179726,128.427995 480.128917,128.367223 C480.101021,128.333848 480.072379,128.299975 480.045729,128.267846 C479.989938,128.201096 479.937634,128.137584 479.886575,128.075068 C479.868144,128.052653 479.848468,128.028991 479.830785,128.007073 C479.693798,127.839203 479.573499,127.688767 479.469639,127.556513 C479.455442,127.53858 479.443487,127.523138 479.429788,127.505953 C479.393674,127.459377 479.358306,127.414296 479.326426,127.372702 C479.310984,127.352528 479.297285,127.334844 479.282839,127.315915 C479.256438,127.281793 479.231283,127.248917 479.208618,127.21878 C479.19467,127.200349 479.182217,127.18391 479.169514,127.166974 C479.148593,127.139328 479.129664,127.114172 479.112478,127.09076 C479.102765,127.077808 479.093798,127.065853 479.08533,127.054147 C479.067397,127.029988 479.052702,127.009813 479.039253,126.991631 C479.034271,126.984907 479.029539,126.978431 479.025305,126.972702 C479.010859,126.952528 478.999651,126.937086 478.991681,126.925878 C478.990685,126.924384 478.98944,126.922889 478.988443,126.921644 C478.980473,126.910436 478.975741,126.903711 478.975741,126.903711 C476.884832,126.708194 474.687073,126.617783 472.4268,126.609813 C472.832528,127.02924 473.246227,127.456638 473.675118,127.897484 C499.109489,154.06934 526.864159,155.833225 538.900523,155.820344 C537.118954,151.208319 535.959054,148.935093 535.959054,148.935093 C535.95731,148.935342 535.955567,148.935342 535.953823,148.935592 C535.412603,148.993624 534.876613,149.043935 534.343113,149.090012 C534.183711,149.10396 534.025554,149.116164 533.866899,149.128867 C533.473375,149.160747 533.082092,149.18939 532.692553,149.214795 C532.536139,149.225006 532.379477,149.235716 532.223811,149.244932 C531.702516,149.276065 531.183711,149.303213 530.669888,149.323138 C530.666152,149.323387 530.662914,149.323387 530.659178,149.323636 C530.144608,149.343562 529.635268,149.356264 529.128667,149.365479 C528.976737,149.368219 528.826052,149.369465 528.674869,149.371457 C528.301519,149.37594 527.930411,149.377435 527.561544,149.376438 C527.412354,149.37594 527.262914,149.37594 527.114969,149.374446 C526.619826,149.369714 526.127671,149.361743 525.640747,149.347049 C524.546849,149.314421 523.472877,149.256887 522.41858,149.176438 C521.92792,149.139078 521.442491,149.09599 520.960548,149.048667 C520.798904,149.032976 520.639751,149.014296 520.479352,148.997609 C520.155816,148.963487 519.833026,148.928867 519.513474,148.890511 C519.327671,148.868344 519.143861,148.844184 518.959054,148.820523 C518.667646,148.783163 518.376737,148.744807 518.08807,148.70396 C517.898032,148.676812 517.70924,148.648917 517.520448,148.620523 C517.239004,148.578182 516.959054,148.534346 516.680847,148.488767 C516.495044,148.458381 516.309489,148.427497 516.124932,148.395866 C515.84274,148.347049 515.563288,148.296239 515.284334,148.244433 C515.109988,148.212055 514.935143,148.180174 514.762291,148.14655 C514.460922,148.08802 514.16254,148.026252 513.864907,147.963985 C513.720448,147.933848 513.574496,147.904956 513.431034,147.873823 C512.553823,147.684035 511.693798,147.478555 510.85071,147.259377 C510.710486,147.222765 510.573001,147.184408 510.433524,147.147049 C510.153076,147.07208 509.873126,146.996364 509.596413,146.918157 C509.435019,146.872578 509.275616,146.825753 509.115965,146.779178 C508.863661,146.705704 508.612603,146.63198 508.363786,146.556015 C508.198904,146.505953 508.035517,146.454894 507.87213,146.403836 C507.629788,146.32787 507.389191,146.25066 507.150087,146.172702 C506.98944,146.120149 506.829041,146.067347 506.669888,146.014047 C506.427547,145.932603 506.187696,145.849664 505.948842,145.766227 C505.798904,145.713923 505.648468,145.661868 505.499776,145.608817 C505.240996,145.516164 504.985455,145.421519 504.730411,145.326376 C504.606874,145.280299 504.481843,145.235218 504.359303,145.188643 C503.608867,144.903213 502.875367,144.607821 502.158555,144.303462 C502.040747,144.253649 501.925181,144.202341 501.80812,144.151781" id="Fill-123" fill="#94B0D5"></path>
            <path d="M406.930511,187.296638 C404.798755,188.064508 402.657036,188.681445 400.526027,189.144209 C400.163387,189.222914 399.941968,189.594022 400.057285,189.9467 C408.214446,214.906351 450.709838,256.44533 468.552428,262.27472 C468.831631,262.365878 469.136986,262.286177 469.330511,262.065006 C470.175841,261.100872 472.47995,258.475467 473.569116,257.23462 C473.872229,256.889166 473.780573,256.35467 473.382814,256.124782 C431.014197,231.657036 412.572852,197.27721 407.70137,187.6 C407.558655,187.317061 407.228643,187.18929 406.930511,187.296638" id="Fill-125" fill="#94B0D5"></path>
            <path d="M384.864334,128.601445 L366.568692,115.649763 C366.007547,115.252254 365.874545,114.475168 366.272055,113.913773 L367.855118,111.677659 C368.252379,111.116264 369.029465,110.983263 369.590859,111.380772 L387.886501,124.332453 C388.447895,124.729963 388.580648,125.507049 388.183387,126.068443 L386.600324,128.304558 C386.203064,128.865953 385.425729,128.998954 384.864334,128.601445" id="Fill-127" fill="#94B0D5"></path>
            <path d="M528.198456,258.01472 L522.073425,279.577609 C521.885629,280.239128 521.196961,280.623188 520.535193,280.435392 L517.899826,279.6867 C517.238306,279.498904 516.854247,278.810237 517.042291,278.148468 L523.167073,256.585579 C523.355118,255.92406 524.043537,255.54 524.705305,255.727796 L527.340672,256.476488 C528.002441,256.664533 528.386252,257.3532 528.198456,258.01472" id="Fill-129" fill="#94B0D5"></path>
            <path d="M391.472628,138.397958 C391.503512,138.423861 391.534396,138.450262 391.565529,138.477161 C395.59741,141.917758 400.166276,144.67741 405.087572,146.645778 L405.500772,146.811158 C406.61335,147.256239 407.170262,148.505305 406.757808,149.630087 L405.510984,153.030585 C405.062914,154.252005 403.66391,154.826102 402.487323,154.271681 L397.182964,151.771806 C394.746351,150.623611 392.409116,149.275168 390.195666,147.740423 L386.015592,144.842291 C384.903761,144.071432 384.736887,142.492354 385.662665,141.506052 L388.42132,138.567821 C389.230535,137.705803 390.572254,137.631582 391.472628,138.397958" id="Fill-131" fill="#94B0D5"></path>
            <path d="M545.160722,233.585455 C545.171183,233.543113 545.181644,233.500025 545.192354,233.456936 C546.572428,227.879601 547.031706,222.11198 546.55325,216.386451 L546.512902,215.905504 C546.404807,214.611108 547.34528,213.465654 548.63594,213.319701 L552.53731,212.879352 C553.938555,212.720946 555.173674,213.798904 555.2068,215.208618 L555.356488,221.563039 C555.424981,224.482092 555.251382,227.401893 554.837186,230.292055 L554.054869,235.750087 C553.846899,237.201893 552.397335,238.129415 550.991856,237.710237 L546.805554,236.461171 C545.57741,236.094795 544.85462,234.830037 545.160722,233.585455" id="Fill-133" fill="#94B0D5"></path>
            <path d="M349.248144,197.873176 C349.195342,197.870934 349.142042,197.868692 349.088244,197.866202 C342.152254,197.559103 335.210037,198.387746 328.540548,200.317509 L327.980399,200.479651 C326.472802,200.916015 324.891482,200.074172 324.411532,198.580025 L322.960971,194.062964 C322.439925,192.440548 323.42274,190.720498 325.085006,190.345654 L332.578157,188.65599 C336.02,187.8799 339.520125,187.390735 343.042914,187.193474 L349.695467,186.820872 C351.464832,186.721743 352.908917,188.218381 352.746775,189.983014 L352.263587,195.24005 C352.121868,196.782516 350.795342,197.939676 349.248144,197.873176" id="Fill-135" fill="#94B0D5"></path>
            <path d="M374.886501,264.079851 C374.847646,264.115716 374.808294,264.151582 374.768692,264.187945 C369.647148,268.875616 365.324608,274.37076 361.973674,280.451457 L361.692229,280.96254 C360.934819,282.337136 359.221494,282.859925 357.825479,282.142864 L353.605554,279.974745 C352.089988,279.196164 351.568443,277.285081 352.47878,275.844483 L356.581893,269.351083 C358.466575,266.368269 360.595592,263.547098 362.946775,260.916463 L367.387123,255.948842 C368.568194,254.627547 370.647397,254.664408 371.780648,256.0268 L375.156488,260.085579 C376.147024,261.276364 376.027472,263.032528 374.886501,264.079851" id="Fill-137" fill="#94B0D5"></path>
            <path d="M517.278456,76.727746 C498.337733,78.901345 489.780573,104.706575 489.780573,108.311557 C489.780573,114.215168 502.166625,118.786775 502.166625,118.786775 L499.641594,122.658506 L501.669738,123.756389 C501.669738,123.756389 511.111831,130.382291 518.731756,124.91604 C525.285181,120.214421 536.53599,102.254022 541.312578,86.4859029 C534.347198,84.0166625 530.751183,75.1815442 517.278456,76.727746" id="Fill-139" fill="#CC9987"></path>
            <path d="M535.46929,63.8473225 C529.278506,64.2368618 523.403786,66.0209215 515.253101,66.1103362 C500.178879,66.2759651 493.884234,73.5646326 500.841644,82.8408468 C507.798804,92.1173101 522.210262,89.3013699 530.492951,89.4669988 C533.985355,89.5367372 536.535293,91.5803238 538.639651,93.9823163 C540.722092,88.8540473 542.324334,83.7031133 543.081993,79.0308842 C544.078007,72.8886675 540.519352,67.8156912 535.46929,63.8473225" id="Fill-141" fill="#293445"></path>
            <path d="M502.16665,118.786824 L500.207497,121.791059 C505.932777,121.562665 512.75071,118.786824 512.75071,118.786824 C509.106376,119.102391 502.16665,118.786824 502.16665,118.786824" id="Fill-143" fill-opacity="0.1" fill="#000000"></path>
            <path d="M330.304782,354.549539 L302.649988,333.359253 C299.877883,331.235218 299.352603,327.265853 301.476638,324.493499 L302.736912,322.848917 C308.398431,315.460374 318.977509,314.060125 326.366301,319.721644 L351.02533,338.616538 C352.466675,339.720648 352.739651,341.784159 351.635542,343.225504 L344.386476,352.685778 C341.012628,357.089016 334.70802,357.923387 330.304782,354.549539" id="Fill-145" fill="#304056"></path>
            <path d="M349.972603,345.355741 C332.965878,353.472553 312.756663,341.048892 312.756663,341.048892 L312.761146,341.106924 L330.304857,354.549514 C334.707846,357.923362 341.012453,357.088991 344.38655,352.685753 L350.019427,345.334321 C350.003487,345.341793 349.988792,345.34802 349.972603,345.355741" id="Fill-147" fill-opacity="0.1" fill="#000000"></path>
            <path d="M257.999029,235.565081 L252.890685,201.102067 C252.378605,197.647273 254.76391,194.431582 258.218705,193.919253 L260.268269,193.615641 C269.47599,192.25076 278.046849,198.608667 279.411482,207.816139 L283.96665,238.546401 C284.232902,240.342416 282.992802,242.014147 281.196787,242.280399 L269.407248,244.027846 C263.920075,244.841295 258.812478,241.052254 257.999029,235.565081" id="Fill-149" fill="#304056"></path>
            <path d="M269.407298,244.027846 L277.058605,242.893848 C264.73208,241.781021 259.28675,234.497584 256.885753,228.053499 L257.999078,235.565081 C258.812279,241.052254 263.920125,244.841295 269.407298,244.027846" id="Fill-151" fill-opacity="0.1" fill="#000000"></path>
            <path d="M517.018954,54.666924 C490.010984,64.2621918 482.528543,93.9635616 480.246102,112.157086 L501.669763,123.756339 C501.669763,123.756339 511.111856,130.382491 518.731781,124.91599 C526.351706,119.449489 540.321071,96.0594521 543.082217,79.0310585 C545.206002,65.9321793 526.61721,57.6958157 517.018954,54.666924" id="Fill-153" fill-opacity="0.1" fill="#000000"></path>
            <path d="M129.881071,67.0859278 C129.881071,95.8124533 106.593649,119.099875 77.8673724,119.099875 C49.1408468,119.099875 25.8534247,95.8124533 25.8534247,67.0859278 C25.8534247,38.3594022 49.1408468,15.0719801 77.8673724,15.0719801 C106.593649,15.0719801 129.881071,38.3594022 129.881071,67.0859278" id="Fill-155" fill="#DCE4EF"></path>
            <path d="M141.748692,64.85868 C138.600249,62.6820922 134.376339,60.549589 129.172105,58.5022665 C129.635866,61.2950436 129.881196,64.1617933 129.881196,67.0858281 C129.881196,67.6556912 129.869988,68.2225654 129.851806,68.7879452 C137.216438,72.145604 141.349191,75.5886924 140.932503,78.6414944 C140.248319,83.654944 127.466252,86.3956663 108.760399,86.3956663 C98.3696139,86.3956663 86.1494396,85.549589 73.1631382,83.7774844 C36.7992528,78.8155915 8.18331258,68.4711333 9.24732254,60.6726276 C9.74620174,57.0165878 16.679203,54.5697634 27.6498132,53.5124782 C28.5439601,50.1951681 29.7571606,47.0088667 31.2560399,43.9891905 C25.5307597,44.3324035 20.5815691,44.9837111 16.4801993,45.9413699 C12.6371108,46.8385056 9.5867995,47.9911831 7.15491905,49.4654047 C2.03785803,52.5675218 0.503113325,56.59467 0.116562889,59.4265504 C-0.41120797,63.2955417 0.602739726,69.0432379 8.43113325,74.455193 C12.1706102,77.0402491 17.4209215,79.5637858 24.0368618,81.9553176 C36.7016189,86.5333998 53.7058531,90.4233126 71.917061,92.9084932 C84.8747198,94.6763636 97.614944,95.6111083 108.760399,95.6111083 C118.946949,95.6111083 127.337733,94.8579328 133.699626,93.3727522 C137.542715,92.4756164 140.593026,91.3226899 143.024907,89.8484682 C148.141968,86.7463512 149.676961,82.719203 150.063263,79.8873225 C150.591283,76.0185803 149.577335,70.2706351 141.748692,64.85868" id="Fill-157" fill="#E8EDF7"></path>
            <path d="M660.198331,67.8370112 C663.314396,63.7702615 669.13731,62.9999004 673.203811,66.1157161 C677.270311,69.2317808 678.041171,75.0544458 674.925106,79.1211955 C671.808792,83.1876961 665.986127,83.9585554 661.919626,80.8422416 C657.852877,77.7264259 657.082267,71.9037609 660.198331,67.8370112" id="Fill-159" fill="#DCE4EF"></path>
            <path d="M640.325828,47.7998506 C642.243636,45.2967372 645.827696,44.8222665 648.330809,46.7403238 C650.833674,48.6583811 651.308144,52.2421918 649.390336,54.7453051 C647.472279,57.2484184 643.888468,57.7228892 641.385355,55.8048319 C638.881993,53.8867746 638.407771,50.3029639 640.325828,47.7998506" id="Fill-161" fill="#DCE4EF"></path>
            <path d="M681.708966,35.1625405 C683.065131,33.3926775 685.599377,33.0571856 687.369489,34.4133499 C689.139352,35.7697634 689.474844,38.3037609 688.118431,40.073873 C686.762267,41.843736 684.22802,42.1792279 682.458157,40.8230635 C680.688045,39.4666501 680.352802,36.9324035 681.708966,35.1625405" id="Fill-163" fill="#DCE4EF"></path>
            <path d="M105.755741,368.21594 C105.755741,375.306849 100.007547,381.054795 92.9168867,381.054795 C85.8259776,381.054795 80.0777833,375.306849 80.0777833,368.21594 C80.0777833,361.12528 85.8259776,355.377086 92.9168867,355.377086 C100.007547,355.377086 105.755741,361.12528 105.755741,368.21594" id="Fill-165" fill="#DCE4EF"></path>
            <path d="M43.2219178,379.4801 C43.2219178,383.871382 39.6620174,387.431283 35.2707347,387.431283 C30.8794521,387.431283 27.3195517,383.871382 27.3195517,379.4801 C27.3195517,375.088817 30.8794521,371.528917 35.2707347,371.528917 C39.6620174,371.528917 43.2219178,375.088817 43.2219178,379.4801" id="Fill-167" fill="#DCE4EF"></path>
            <path d="M33.7590037,341.341395 C33.7590037,343.434047 32.0626152,345.130436 29.9699626,345.130436 C27.8773101,345.130436 26.1809215,343.434047 26.1809215,341.341395 C26.1809215,339.248742 27.8773101,337.552354 29.9699626,337.552354 C32.0626152,337.552354 33.7590037,339.248742 33.7590037,341.341395" id="Fill-169" fill="#DCE4EF"></path>
            <path d="M145.700174,211.200274 L148.793574,198.544981 C148.954471,197.8867 149.89071,197.8867 150.051606,198.544981 L153.145006,211.200274 C153.202291,211.434894 153.385355,211.618207 153.620224,211.675492 L166.275268,214.768892 C166.933549,214.929788 166.933549,215.865778 166.275268,216.026924 L153.620224,219.120075 C153.385355,219.17736 153.202291,219.360672 153.145006,219.595542 L150.051606,232.250585 C149.89071,232.908867 148.954471,232.908867 148.793574,232.250585 L145.700174,219.595542 C145.642889,219.360672 145.459577,219.17736 145.224956,219.120075 L132.569913,216.026924 C131.911382,215.865778 131.911382,214.929788 132.569913,214.768892 L145.224956,211.675492 C145.459577,211.618207 145.642889,211.434894 145.700174,211.200274" id="Fill-171" fill="#E8EDF7"></path>
            <path d="M169.371781,240.83731 L172.464932,228.182017 C172.625828,227.523736 173.562067,227.523736 173.723213,228.182017 L176.816364,240.83731 C176.873898,241.07193 177.056961,241.255243 177.291582,241.312528 L189.946874,244.405928 C190.605156,244.566824 190.605156,245.502814 189.946874,245.66396 L177.291582,248.757111 C177.056961,248.814396 176.873898,248.997709 176.816364,249.232578 L173.723213,261.887621 C173.562067,262.545903 172.625828,262.545903 172.464932,261.887621 L169.371781,249.232578 C169.314496,248.997709 169.131183,248.814396 168.896563,248.757111 L156.24127,245.66396 C155.582989,245.502814 155.582989,244.566824 156.24127,244.405928 L168.896563,241.312528 C169.131183,241.255243 169.314496,241.07193 169.371781,240.83731" id="Fill-173" fill="#E8EDF7"></path>
            <path d="M806.115019,85.4787298 L810.647024,66.9370112 C810.882889,65.9723786 812.254496,65.9723786 812.490361,66.9370112 L817.022366,85.4787298 C817.10655,85.8224408 817.375044,86.090934 817.718755,86.1748692 L836.260473,90.7071233 C837.225106,90.9429888 837.225106,92.3145953 836.260473,92.5504608 L817.718755,97.0824658 C817.375044,97.1666501 817.10655,97.4351432 817.022366,97.7788543 L812.490361,116.320822 C812.254496,117.285455 810.882889,117.285455 810.647024,116.320822 L806.115019,97.7788543 C806.030834,97.4351432 805.762341,97.1666501 805.41863,97.0824658 L786.876912,92.5504608 C785.912279,92.3145953 785.912279,90.9429888 786.876912,90.7071233 L805.41863,86.1748692 C805.762341,86.090934 806.030834,85.8224408 806.115019,85.4787298" id="Fill-175" fill="#E8EDF7"></path>
            <path d="M826.38787,60.7245081 L828.424981,52.3907597 C828.530834,51.9568867 829.147522,51.9568867 829.253624,52.3907597 L831.290735,60.7245081 C831.328344,60.878929 831.448892,60.999726 831.603313,61.037335 L839.93731,63.0744458 C840.370934,63.1805479 840.370934,63.7969863 839.93731,63.9028394 L831.603313,65.9399502 C831.448892,65.9778082 831.328344,66.0983562 831.290735,66.2530262 L829.253624,74.5867746 C829.147522,75.0203985 828.530834,75.0203985 828.424981,74.5867746 L826.38787,66.2530262 C826.350262,66.0983562 826.229465,65.9778082 826.075044,65.9399502 L817.741046,63.9028394 C817.307671,63.7969863 817.307671,63.1805479 817.741046,63.0744458 L826.075044,61.037335 C826.229465,60.999726 826.350262,60.878929 826.38787,60.7245081" id="Fill-177" fill="#E8EDF7"></path>
            <path d="M606.145181,371.473151 L608.182291,363.139402 C608.288144,362.705778 608.904832,362.705778 609.010685,363.139402 L611.047796,371.473151 C611.085654,371.627821 611.206202,371.748369 611.360623,371.785978 L619.69462,373.823088 C620.128244,373.929191 620.128244,374.545629 619.69462,374.651731 L611.360623,376.688593 C611.206202,376.726451 611.085654,376.846999 611.047796,377.001669 L609.010685,385.335417 C608.904832,385.769041 608.288144,385.769041 608.182291,385.335417 L606.145181,377.001669 C606.107572,376.846999 605.986775,376.726451 605.832354,376.688593 L597.498356,374.651731 C597.064732,374.545629 597.064732,373.929191 597.498356,373.823088 L605.832354,371.785978 C605.986775,371.748369 606.107572,371.627821 606.145181,371.473151" id="Fill-179" fill="#E8EDF7"></path>
            <path d="M579.503138,347.939078 L582.818705,334.375442 C582.991059,333.669589 583.994296,333.669589 584.166899,334.375442 L587.482217,347.939078 C587.543736,348.190635 587.74,348.386899 587.991557,348.448418 L601.555193,351.763736 C602.261046,351.936339 602.261046,352.939826 601.555193,353.112179 L587.991557,356.427497 C587.74,356.489016 587.543736,356.68528 587.482217,356.936837 L584.166899,370.500473 C583.994296,371.206077 582.991059,371.206077 582.818705,370.500473 L579.503138,356.936837 C579.441619,356.68528 579.245355,356.489016 578.993798,356.427497 L565.430162,353.112179 C564.724558,352.939826 564.724558,351.936339 565.430162,351.763736 L578.993798,348.448418 C579.245355,348.386899 579.441619,348.190635 579.503138,347.939078" id="Fill-181" fill="#E8EDF7"></path>
            <path d="M852.796638,260.346675 C887.235243,272.867721 864.230012,317.459253 845.295517,327.53472 C826.360772,337.610187 847.989415,367.354645 814.150311,376.63858 C780.311208,385.922267 746.544583,377.824134 738.469116,343.220897 C730.393151,308.617908 685.746824,303.052777 740.912702,272.415666 C796.07858,241.779054 818.358032,247.825629 852.796638,260.346675" id="Fill-183" fill="#F4F7F9"></path>
            <path d="M755.967621,251.617186 C755.967621,251.617186 755.889664,253.812204 758.323537,257.802491 C760.75741,261.792777 753.201993,259.205479 753.067497,258.950934 C752.933001,258.696139 753.700125,253.983313 755.967621,251.617186" id="Fill-185" fill="#DCE4EF"></path>
            <path d="M814.749614,299.618207 C814.749614,299.618207 824.043014,299.970884 830.176513,297.108867 C836.310511,294.246849 844.889589,287.690436 843.93193,277.019452 C842.974521,266.348219 846.419601,263.18807 850.857958,258.488941 C855.296065,253.789564 859.841021,257.998032 858.009141,261.229415 C856.176762,264.460797 850.511756,269.701893 850.992453,275.613474 C851.472902,281.524807 854.581993,292.607497 846.004408,299.530286 C837.426824,306.453325 825.842516,309.94797 825.842516,309.94797 L814.749614,299.618207 Z" id="Fill-187" fill="#DCE4EF"></path>
            <path d="M801.725953,326.182665 C802.264932,326.641694 808.362565,335.836463 815.286351,339.499228 C819.741644,341.856139 824.293076,344.498979 826.972279,346.083537 C828.580996,347.035218 829.529938,348.804832 829.420349,350.670585 C829.345131,351.95203 829.117484,353.288767 828.543636,353.968717 C827.243263,355.508941 823.495318,358.844682 825.573275,361.331606 C827.924956,364.145803 830.798431,362.177933 836.38274,355.862117 C841.967547,349.546301 836.777758,336.278306 836.777758,336.278306 L808.468418,321.630486 L801.725953,326.182665 Z" id="Fill-189" fill="#DCE4EF"></path>
            <path d="M754.101071,254.702665 C753.959601,255.052852 753.833574,255.402291 753.722491,255.742017 L757.313773,255.977883 C757.150137,255.646874 757.006426,255.333798 756.8799,255.038406 C756.091606,254.948742 754.806426,254.799801 754.101071,254.702665" id="Fill-191" fill="#DCE4EF"></path>
            <path d="M764.181918,250.831719 C764.181918,250.831719 768.214795,258.341644 767.025504,262.74812 C765.836214,267.154844 759.42127,264.876638 759.42127,264.876638 L757.58391,256.467422 C757.58391,256.467422 759.887024,255.771532 760.913176,253.275392 C761.939328,250.779004 764.181918,250.831719 764.181918,250.831719" id="Fill-193" fill="#DCE4EF"></path>
            <path d="M747.105579,297.415168 C747.105579,297.415168 740.60122,299.25726 737.367347,301.825131 C735.012428,303.695367 729.796737,311.296115 729.49736,313.600971 C729.197983,315.905828 728.631357,322.000971 732.981046,321.883163 C736.451034,321.789016 738.426625,317.579303 739.08391,315.880672 C739.26797,315.404458 739.583039,314.992005 739.992752,314.687646 C741.909066,313.263487 747.50533,309.154396 750.21193,307.695118 C753.50807,305.917783 747.105579,297.415168 747.105579,297.415168" id="Fill-195" fill="#DCE4EF"></path>
            <path d="M755.967621,251.617186 C755.967621,251.617186 755.889664,253.812204 758.323537,257.802491 C760.75741,261.792777 753.201993,259.205479 753.067497,258.950934 C752.933001,258.696139 753.700125,253.983313 755.967621,251.617186" id="Fill-197" fill="#DCE4EF"></path>
            <path d="M814.749614,299.618207 C814.749614,299.618207 824.043014,299.970884 830.176513,297.108867 C836.310511,294.246849 844.889589,287.690436 843.93193,277.019452 C842.974521,266.348219 846.419601,263.18807 850.857958,258.488941 C855.296065,253.789564 859.841021,257.998032 858.009141,261.229415 C856.176762,264.460797 850.511756,269.701893 850.992453,275.613474 C851.472902,281.524807 854.581993,292.607497 846.004408,299.530286 C837.426824,306.453325 825.842516,309.94797 825.842516,309.94797 L814.749614,299.618207 Z" id="Fill-199" fill="#DCE4EF"></path>
            <path d="M801.725953,326.182665 C802.264932,326.641694 808.362565,335.836463 815.286351,339.499228 C819.741644,341.856139 824.293076,344.498979 826.972279,346.083537 C828.580996,347.035218 829.529938,348.804832 829.420349,350.670585 C829.345131,351.95203 829.117484,353.288767 828.543636,353.968717 C827.243263,355.508941 823.495318,358.844682 825.573275,361.331606 C827.924956,364.145803 830.798431,362.177933 836.38274,355.862117 C841.967547,349.546301 836.777758,336.278306 836.777758,336.278306 L808.468418,321.630486 L801.725953,326.182665 Z" id="Fill-201" fill="#DCE4EF"></path>
            <path d="M836.861519,336.501743 L818.603487,333.27335 L817.707597,334.124159 C817.707597,334.124159 830.081196,337.801121 838.5467,342.896264 C838.012951,339.778954 837.134496,337.246202 836.861519,336.501743" id="Fill-203" fill-opacity="0.1" fill="#000000"></path>
            <path d="M754.101071,254.702665 C753.959601,255.052852 753.833574,255.402291 753.722491,255.742017 L757.313773,255.977883 C757.150137,255.646874 757.006426,255.333798 756.8799,255.038406 C756.091606,254.948742 754.806426,254.799801 754.101071,254.702665" id="Fill-205" fill="#DCE4EF"></path>
            <path d="M764.181918,250.831719 C764.181918,250.831719 768.214795,258.341644 767.025504,262.74812 C765.836214,267.154844 759.42127,264.876638 759.42127,264.876638 L757.58391,256.467422 C757.58391,256.467422 759.887024,255.771532 760.913176,253.275392 C761.939328,250.779004 764.181918,250.831719 764.181918,250.831719" id="Fill-207" fill="#DCE4EF"></path>
            <path d="M747.105579,297.415168 C747.105579,297.415168 740.60122,299.25726 737.367347,301.825131 C735.012428,303.695367 729.796737,311.296115 729.49736,313.600971 C729.197983,315.905828 728.631357,322.000971 732.981046,321.883163 C736.451034,321.789016 738.426625,317.579303 739.08391,315.880672 C739.26797,315.404458 739.583039,314.992005 739.992752,314.687646 C741.909066,313.263487 747.50533,309.154396 750.21193,307.695118 C753.50807,305.917783 747.105579,297.415168 747.105579,297.415168" id="Fill-209" fill="#DCE4EF"></path>
            <path d="M850.780772,341.55726 C850.604932,341.246924 850.420374,340.943064 850.260971,340.624259 C849.209913,338.521395 842.592478,329.380423 840.974545,328.277559 C840.334446,327.841196 839.615143,327.76523 838.228344,327.369963 C836.002192,326.735592 834.054745,325.384159 832.666451,323.531856 C831.111781,321.457385 829.810909,319.300473 828.85873,317.575193 C827.855243,315.756264 827.176538,313.780423 826.815641,311.734595 C826.225853,308.394869 824.449016,302.271333 819.140672,298.171208 C811.518257,292.283786 800.298331,289.940822 788.921993,286.676812 C785.422117,285.672827 781.761345,284.174944 778.369066,282.582416 C778.36807,282.581918 778.367073,282.58142 778.366077,282.581171 C772.085629,279.976189 771.738182,279.255143 770.841046,278.169465 C769.172304,276.149539 768.260473,273.603587 768.280897,270.983661 C768.383263,257.730859 755.884384,254.489016 749.796712,254.81604 C743.209166,255.169714 741.844782,258.669838 739.922989,260.29325 C738.001445,261.916413 736.827846,261.667846 735.526227,261.834471 C734.224608,262.001096 733.935193,264.412055 733.935193,264.412055 C733.217136,265.361993 732.940423,266.36 732.939676,267.335592 L732.939178,267.335592 C732.939178,267.335592 732.390486,273.068344 737.786252,277.9067 C737.940423,278.055143 738.097833,278.189888 738.255492,278.309191 C738.683138,278.645928 739.147148,278.89873 739.641295,279.076314 L742.797958,280.708194 C739.750386,282.665853 743.961345,298.731108 743.961345,298.731108 L743.392976,312.325629 C743.392976,312.325629 738.876912,316.794869 736.825106,323.175691 C734.773051,329.556513 738.927472,331.846177 742.229589,331.758506 C745.531208,331.670585 746.279651,325.831731 746.42934,324.679303 C746.579029,323.526625 751.095342,319.211059 751.095342,319.211059 C751.095342,319.211059 752.781021,318.130361 758.297335,314.27208 C763.8134,310.413798 766.661469,312.324134 766.661469,312.324134 C781.294097,324.792379 800.345903,326.878306 800.345903,326.878306 C807.889863,332.228493 819.647024,334.569714 819.647024,334.569714 C819.647024,334.569714 837.481893,340.115666 838.711532,340.41878 C839.438804,340.597858 840.562839,342.43721 841.411158,343.916663 C841.844284,344.671582 842.731208,346.067846 843.474172,347.42401 C844.218879,348.783163 844.617385,350.305205 844.620374,351.854894 C844.622615,353.032478 844.615143,355.840946 844.902316,356.39736 C845.790486,358.119153 847.540174,360.053898 849.816139,359.867846 C852.752628,359.627497 851.389738,348.285778 851.325479,346.212553 C851.273425,344.542814 851.427846,342.699975 850.780772,341.55726" id="Fill-211" fill="#DCE4EF"></path>
            <path d="M765.290062,265.220125 C760.022316,257.456737 756.768269,247.447522 755.636762,243.59746 C745.116214,243.825604 735.266899,250.228593 731.17325,260.607671 C728.383711,267.6799 728.808618,275.226849 731.744608,281.643288 C742.228543,284.992727 755.276862,279.171308 763.014097,274.767821 C766.386202,272.848767 767.452702,268.406924 765.290062,265.220125" id="Fill-213" fill-opacity="0.1" fill="#000000"></path>
            <path d="M770.389838,277.580498 C770.290212,277.442017 770.193574,277.301544 770.100672,277.159078 C770.084981,277.135168 770.069041,277.111756 770.053599,277.087597 C769.82396,276.730187 769.615741,276.360822 769.428941,275.981245 L760.875019,292.908767 C760.875019,292.908767 763.840648,304.863935 770.883985,308.756339 C777.927572,312.648742 789.418979,317.653225 797.945255,316.911756 C803.618481,316.418356 807.649863,302.509514 809.712877,293.255467 C809.375143,293.02807 809.05061,292.818356 808.731308,292.616613 C802.701669,290.30802 795.841644,288.662192 788.921843,286.676887 C788.484483,286.551357 788.044633,286.418107 787.60279,286.277883 C786.719352,285.997684 785.82944,285.689589 784.939278,285.360075 C784.494446,285.195193 784.049365,285.025081 783.60528,284.850237 C782.272528,284.325953 780.947746,283.760324 779.652852,283.174271 C779.22122,282.979004 778.793076,282.781494 778.368917,282.582491 C778.36792,282.581993 778.366924,282.581494 778.365928,282.580996 C777.667049,282.291333 777.04538,282.025828 776.484483,281.779502 C773.895193,280.642267 772.677758,279.935417 771.960448,279.355592 C771.873026,279.285106 771.793076,279.216364 771.718854,279.149116 C771.663313,279.098804 771.612005,279.04924 771.562192,278.999925 C771.512379,278.95061 771.46406,278.901793 771.41873,278.853225 C771.32807,278.756339 771.245131,278.660448 771.164184,278.563811 C771.083487,278.467422 771.00528,278.370037 770.923836,278.270162 C770.896438,278.236787 770.869041,278.203163 770.841146,278.16929 C770.713375,278.015118 770.59208,277.856463 770.473275,277.696065 C770.445131,277.657958 770.417484,277.619103 770.389838,277.580498" id="Fill-215" fill="#94B0D5"></path>
            <path d="M781.333176,310.517161 L780.84675,313.436463 C780.84675,313.436463 780.186227,317.299477 778.25995,319.893499 C778.113748,320.090262 778.186725,320.370461 778.408144,320.475068 C780.246501,321.345056 780.684359,321.713674 782.381743,322.321893 C782.591208,322.396613 782.825081,322.326127 782.959826,322.14929 C784.818854,319.7067 787.701046,316.910934 788.144882,314.618032 C788.978755,310.308692 781.333176,310.517161 781.333176,310.517161" id="Fill-217" fill="#94B0D5"></path>
            <path d="M795.155367,299.786899 L791.535442,298.577186 C791.144159,298.446426 790.932702,298.023014 791.063462,297.631731 L792.273176,294.011806 C792.403935,293.620274 792.192478,293.197111 791.801196,293.066351 L789.229589,292.206824 C788.838306,292.076314 788.415143,292.287522 788.284134,292.678804 L787.07467,296.298979 C786.943661,296.690262 786.520498,296.901469 786.129215,296.77071 L782.509041,295.560996 C782.117509,295.430237 781.694346,295.641445 781.563587,296.032976 L780.704309,298.604583 C780.5733,298.995866 780.784757,299.419278 781.17604,299.550037 L784.795965,300.759751 C785.187497,300.890511 785.398705,301.313674 785.267945,301.705205 L784.058232,305.325131 C783.927472,305.716663 784.138929,306.139826 784.530212,306.270585 L787.101818,307.129863 C787.493101,307.260623 787.916513,307.049415 788.047273,306.658132 L789.256737,303.038207 C789.387746,302.646675 789.810909,302.435467 790.202441,302.566227 L793.822366,303.77594 C794.213898,303.9067 794.637061,303.695243 794.767821,303.30396 L795.627347,300.732354 C795.758107,300.341071 795.54665,299.917659 795.155367,299.786899" id="Fill-219" fill="#FFFFFF"></path>
            <path d="M776.373748,281.730461 C776.34411,281.71726 776.313973,281.703811 776.283836,281.69061 L762.455442,290.123487 L760.934147,293.133948 C761.111731,293.790735 761.694795,295.81863 762.736887,298.251009 C776.320697,295.104558 779.463412,286.343412 780.682839,283.632827 C780.338132,283.481644 779.994919,283.329215 779.653948,283.174795 C779.653699,283.174545 779.65345,283.174545 779.652951,283.174296 C779.22132,282.979029 778.792927,282.781519 778.369016,282.582267 L778.368269,282.582017 C778.367273,282.581519 778.366775,282.581519 778.366027,282.581021 C777.666899,282.291108 777.04523,282.025853 776.484334,281.779527 C776.446227,281.76259 776.411108,281.746899 776.373748,281.730461" id="Fill-221" fill-opacity="0.1" fill="#000000"></path>
            <path d="M766.129689,245.483587 C762.681619,244.123686 759.122466,243.521943 755.636787,243.59741 C756.768294,247.447472 760.022341,257.456687 765.290087,265.220075 C767.452727,268.407123 766.386227,272.848966 763.014122,274.767771 C755.276887,279.171258 742.228568,284.992677 731.744633,281.643238 C734.544882,287.763039 739.629813,292.854446 746.393699,295.522192 C760.249738,300.987198 775.900299,294.21609 781.350112,280.398157 C786.799925,266.580473 779.985729,250.948593 766.129689,245.483587" id="Fill-223" fill="#FFFFFF"></path>
            <path d="M745.936139,324.863387 L737.643487,321.911955 C737.199402,321.754047 736.709988,321.97746 736.538879,322.416812 L735.021818,326.308468 L733.112727,325.63873 C731.20812,324.970486 728.571756,325.914446 727.84274,327.480075 C726.731407,329.86787 726.844981,330.571731 728.592179,331.248194 L740.301021,335.624782 C741.698032,336.165504 743.265405,335.439975 743.757061,334.024782 L746.470137,325.963014 C746.621818,325.512204 746.384209,325.023039 745.936139,324.863387" id="Fill-225" fill="#FFFFFF"></path>
            <path d="M727.26396,328.923238 C726.881146,330.200448 727.262217,330.73345 728.592229,331.24802 L740.301071,335.624857 C741.331955,336.023861 742.454247,335.731706 743.169813,334.983512 L727.26396,328.923238 Z" id="Fill-227" fill-opacity="0.1" fill="#000000"></path>
            <path d="M738.638057,314.950486 L730.572553,311.425953 C730.140672,311.236912 729.636563,311.425953 729.435318,311.852105 L727.649265,315.627945 L725.791731,314.825953 C723.93868,314.026202 721.24279,314.783362 720.406177,316.294197 C719.130212,318.598306 719.194222,319.308394 720.889863,320.105405 L732.263462,325.290959 C733.619626,325.92807 735.233574,325.314122 735.823113,323.936787 L739.093848,316.084732 C739.276663,315.645629 739.073923,315.141021 738.638057,314.950486" id="Fill-229" fill="#FFFFFF"></path>
            <path d="M719.727547,317.693126 C719.256065,318.940448 719.599029,319.498854 720.889938,320.10533 L732.263537,325.290884 C733.264284,325.761121 734.40401,325.548418 735.170386,324.85203 L719.727547,317.693126 Z" id="Fill-231" fill-opacity="0.1" fill="#000000"></path>
            <path d="M837.265778,353.931507 L828.888941,351.228892 C828.440125,351.084184 827.957933,351.322291 827.799776,351.766625 L826.399278,355.701619 L824.471258,355.089166 C822.547472,354.477958 819.940498,355.500374 819.258804,357.087173 C818.218954,359.507098 818.3532,360.207223 820.120324,360.831133 L831.954446,364.856289 C833.367148,365.355168 834.912105,364.583064 835.36142,363.153674 L837.832403,355.014695 C837.970635,354.559402 837.718331,354.07746 837.265778,353.931507" id="Fill-233" fill="#FFFFFF"></path>
            <path d="M818.723238,358.546775 C818.378531,359.834695 818.775293,360.356239 820.120249,360.830959 L831.954371,364.856364 C832.996961,365.224483 834.109788,364.898954 834.802939,364.129589 L818.723238,358.546775 Z" id="Fill-235" fill-opacity="0.1" fill="#000000"></path>
            <path d="M851.921021,346.695816 L843.7534,349.977011 C843.315791,350.152603 843.09736,350.644508 843.26,351.086849 L844.700847,355.007397 L842.826874,355.770037 C840.957385,356.530685 839.607696,358.984234 840.098605,360.640025 C840.847298,363.165305 841.398481,363.61736 843.155641,362.9668 L854.826625,358.490585 C856.231856,357.970286 856.925255,356.388717 856.356389,355.002665 L853.04929,347.165803 C852.864234,346.727447 852.362117,346.518481 851.921021,346.695816" id="Fill-237" fill="#FFFFFF"></path>
            <path d="M840.620623,362.104583 C841.179527,363.315044 841.818132,363.461993 843.155616,362.9666 L854.8266,358.490635 C855.863462,358.106575 856.510785,357.144433 856.551382,356.109813 L840.620623,362.104583 Z" id="Fill-239" fill-opacity="0.1" fill="#000000"></path>
        </g>
    </g>
</svg>