<svg xmlns="http://www.w3.org/2000/svg" width="273" height="245" viewBox="0 0 273 245">
  <g fill="none" transform="translate(-1)">
    <path fill="#FFB71C" d="M1.83071187,229.41 C1.83071187,224.922 5.42771187,221.424 9.65171187,221.424 C12.0277119,221.424 13.7767119,222.315 15.1957119,224.064 C15.4927119,224.427 15.3937119,224.856 15.0637119,225.153 L13.8757119,226.242 C13.4467119,226.638 13.1497119,226.341 12.8857119,226.077 C12.1927119,225.318 10.9717119,224.559 9.75071187,224.559 C7.14371187,224.559 5.13071187,226.671 5.13071187,229.377 C5.13071187,232.116 7.11071187,234.228 9.65171187,234.228 C11.6317119,234.228 12.4237119,233.106 13.2487119,232.347 C13.5787119,232.017 13.9417119,232.017 14.2717119,232.281 L15.2947119,233.106 C15.6577119,233.436 15.8227119,233.799 15.5587119,234.195 C14.3047119,236.076 12.2587119,237.363 9.61871187,237.363 C5.36171187,237.363 1.83071187,233.997 1.83071187,229.41 Z M18.5051406,229.344 C18.5051406,225.054 22.0031406,221.424 26.2931406,221.424 C30.5501406,221.424 34.0481406,225.054 34.0481406,229.344 C34.0481406,233.7 30.5501406,237.363 26.2931406,237.363 C22.0031406,237.363 18.5051406,233.7 18.5051406,229.344 Z M21.7391406,229.344 C21.7391406,232.149 23.7191406,234.228 26.2931406,234.228 C28.8341406,234.228 30.8141406,232.149 30.8141406,229.344 C30.8141406,226.605 28.8341406,224.559 26.2931406,224.559 C23.7191406,224.559 21.7391406,226.605 21.7391406,229.344 Z M38.3475693,236.274 L38.3475693,222.48 C38.3475693,222.117 38.6775693,221.754 39.0735693,221.754 L39.8325693,221.754 C40.1955693,221.754 40.3935693,221.919 40.4925693,222.216 L40.9215693,223.536 C41.2515693,223.173 42.8685693,221.424 45.7725693,221.424 C47.9835693,221.424 49.3035693,222.282 50.4255693,223.833 C50.8545693,223.404 52.6695693,221.424 55.5735693,221.424 C60.2265693,221.424 61.3815693,224.658 61.3815693,228.618 L61.3815693,236.274 C61.3815693,236.67 61.0845693,237 60.6555693,237 L58.8075693,237 C58.3455693,237 58.0815693,236.67 58.0815693,236.274 L58.0815693,228.486 C58.0815693,226.044 57.1575693,224.559 55.0785693,224.559 C52.7685693,224.559 51.6795693,226.11 51.4155693,226.341 C51.4815693,226.671 51.5475693,227.595 51.5475693,228.387 L51.5475693,236.274 C51.5475693,236.67 51.2175693,237 50.8545693,237 L48.9735693,237 C48.5445693,237 48.2475693,236.67 48.2475693,236.274 L48.2475693,228.486 C48.2475693,226.011 47.3565693,224.559 45.2445693,224.559 C42.9675693,224.559 41.8125693,226.242 41.6475693,226.77 L41.6475693,236.274 C41.6475693,236.67 41.2845693,237 40.9215693,237 L39.0735693,237 C38.6775693,237 38.3475693,236.67 38.3475693,236.274 Z M69.838998,236.307 L69.838998,244.128 C69.838998,244.557 69.541998,244.854 69.046998,244.854 L67.198998,244.854 C66.802998,244.854 66.472998,244.524 66.472998,244.128 L66.472998,222.48 C66.472998,222.117 66.802998,221.754 67.198998,221.754 L68.023998,221.754 C68.353998,221.754 68.551998,221.886 68.683998,222.249 L69.079998,223.239 C69.343998,222.975 71.059998,221.424 73.864998,221.424 C78.055998,221.424 81.058998,225.021 81.058998,229.377 C81.058998,233.832 77.890998,237.363 73.732998,237.363 C71.752998,237.363 70.102998,236.472 69.838998,236.307 Z M69.772998,233.106 C69.772998,233.106 71.257998,234.228 73.303998,234.228 C75.778998,234.228 77.758998,232.116 77.758998,229.377 C77.758998,226.671 76.042998,224.559 73.435998,224.559 C71.224998,224.559 69.904998,226.242 69.772998,226.704 L69.772998,233.106 Z M84.4344267,229.344 C84.4344267,225.054 87.9324267,221.424 92.2224267,221.424 C96.4794267,221.424 99.9774267,225.054 99.9774267,229.344 C99.9774267,233.7 96.4794267,237.363 92.2224267,237.363 C87.9324267,237.363 84.4344267,233.7 84.4344267,229.344 Z M87.6684267,229.344 C87.6684267,232.149 89.6484267,234.228 92.2224267,234.228 C94.7634267,234.228 96.7434267,232.149 96.7434267,229.344 C96.7434267,226.605 94.7634267,224.559 92.2224267,224.559 C89.6484267,224.559 87.6684267,226.605 87.6684267,229.344 Z M104.276855,236.274 L104.276855,222.48 C104.276855,222.117 104.606855,221.754 105.002855,221.754 L105.794855,221.754 C106.124855,221.754 106.355855,221.919 106.421855,222.216 L106.883855,223.536 C107.213855,223.14 108.962855,221.424 111.998855,221.424 C116.651855,221.424 117.905855,224.658 117.905855,228.618 L117.905855,236.274 C117.905855,236.67 117.542855,237 117.179855,237 L115.331855,237 C114.935855,237 114.605855,236.67 114.605855,236.274 L114.605855,228.486 C114.605855,226.011 113.582855,224.559 111.602855,224.559 C109.193855,224.559 107.807855,226.242 107.576855,226.77 L107.576855,236.274 C107.576855,236.769 107.312855,237 106.685855,237 L105.002855,237 C104.606855,237 104.276855,236.67 104.276855,236.274 Z M122.073284,229.377 C122.073284,225.087 125.076284,221.424 129.663284,221.424 C133.623284,221.424 136.626284,224.361 136.626284,228.42 C136.626284,228.684 136.593284,229.212 136.560284,229.476 C136.527284,229.872 136.197284,230.136 135.867284,230.136 L125.340284,230.136 C125.373284,232.182 127.221284,234.294 129.894284,234.294 C131.643284,234.294 132.699284,233.667 133.623284,233.007 C133.953284,232.776 134.250284,232.677 134.514284,233.073 L135.405284,234.459 C135.669284,234.789 135.801284,235.086 135.339284,235.482 C134.250284,236.439 132.237284,237.363 129.696284,237.363 C125.076284,237.363 122.073284,233.733 122.073284,229.377 Z M125.505284,227.694 L133.359284,227.694 C133.293284,225.846 131.841284,224.229 129.597284,224.229 C127.188284,224.229 125.736284,225.78 125.505284,227.694 Z M140.727713,236.274 L140.727713,222.48 C140.727713,222.117 141.057713,221.754 141.453713,221.754 L142.245713,221.754 C142.575713,221.754 142.806713,221.919 142.872713,222.216 L143.334713,223.536 C143.664713,223.14 145.413713,221.424 148.449713,221.424 C153.102713,221.424 154.356713,224.658 154.356713,228.618 L154.356713,236.274 C154.356713,236.67 153.993713,237 153.630713,237 L151.782713,237 C151.386713,237 151.056713,236.67 151.056713,236.274 L151.056713,228.486 C151.056713,226.011 150.033713,224.559 148.053713,224.559 C145.644713,224.559 144.258713,226.242 144.027713,226.77 L144.027713,236.274 C144.027713,236.769 143.763713,237 143.136713,237 L141.453713,237 C141.057713,237 140.727713,236.67 140.727713,236.274 Z M160.273142,232.809 L160.273142,224.559 L158.524142,224.559 C158.095142,224.559 157.798142,224.196 157.798142,223.833 L157.798142,222.48 C157.798142,222.051 158.095142,221.754 158.524142,221.754 L160.273142,221.754 L160.273142,217.497 C160.273142,217.101 160.603142,216.771 160.999142,216.771 L162.880142,216.771 C163.276142,216.771 163.573142,217.101 163.573142,217.497 L163.573142,221.754 L167.599142,221.754 C167.995142,221.754 168.325142,222.051 168.325142,222.48 L168.325142,223.833 C168.325142,224.196 167.995142,224.559 167.599142,224.559 L163.573142,224.559 L163.573142,232.677 C163.573142,233.964 164.068142,234.228 164.794142,234.228 C165.751142,234.228 166.675142,233.832 167.236142,233.502 C167.698142,233.238 167.995142,233.502 168.127142,233.832 L168.721142,235.383 C168.886142,235.779 168.721142,236.043 168.358142,236.274 C167.731142,236.67 165.949142,237.363 164.134142,237.363 C161.098142,237.363 160.273142,235.515 160.273142,232.809 Z M181.081999,236.274 L181.081999,214.626 C181.081999,214.263 181.411999,213.9 181.807999,213.9 L183.655999,213.9 C184.018999,213.9 184.381999,214.263 184.381999,214.626 L184.381999,236.274 C184.381999,236.67 184.018999,237 183.655999,237 L181.807999,237 C181.411999,237 181.081999,236.67 181.081999,236.274 Z M189.737428,236.274 L189.737428,222.48 C189.737428,222.117 190.067428,221.754 190.463428,221.754 L192.311428,221.754 C192.674428,221.754 193.037428,222.117 193.037428,222.48 L193.037428,236.274 C193.037428,236.67 192.674428,237 192.311428,237 L190.463428,237 C190.067428,237 189.737428,236.67 189.737428,236.274 Z M191.387428,218.487 C190.166428,218.487 189.209428,217.497 189.209428,216.276 C189.209428,215.022 190.166428,214.032 191.387428,214.032 C192.641428,214.032 193.631428,215.022 193.631428,216.276 C193.631428,217.497 192.641428,218.487 191.387428,218.487 Z M198.293856,236.274 L198.293856,214.626 C198.293856,214.263 198.623856,213.9 199.019856,213.9 L200.900856,213.9 C201.263856,213.9 201.626856,214.263 201.626856,214.626 L201.626856,222.216 C201.956856,222.117 203.507856,221.424 205.454856,221.424 C209.678856,221.424 212.945856,224.922 212.945856,229.377 C212.945856,233.733 209.843856,237.363 205.850856,237.363 C202.814856,237.363 200.834856,235.218 200.834856,235.218 L200.504856,236.34 C200.405856,236.736 200.174856,237 199.811856,237 L199.019856,237 C198.623856,237 198.293856,236.67 198.293856,236.274 Z M201.593856,232.017 C201.791856,232.446 203.045856,234.228 205.355856,234.228 C207.830856,234.228 209.645856,231.951 209.645856,229.377 C209.645856,226.77 207.599856,224.559 205.091856,224.559 C203.111856,224.559 201.593856,225.384 201.593856,225.384 L201.593856,232.017 Z M217.278285,236.274 L217.278285,222.48 C217.278285,222.117 217.608285,221.754 218.004285,221.754 L218.796285,221.754 C219.093285,221.754 219.390285,221.985 219.456285,222.282 L219.885285,223.668 C220.149285,223.272 221.733285,221.424 224.505285,221.424 C225.957285,221.424 227.772285,221.82 227.277285,222.843 L226.485285,224.493 C226.287285,224.922 225.891285,225.021 225.561285,224.856 C225.330285,224.724 224.637285,224.559 224.175285,224.559 C221.931285,224.559 220.710285,226.341 220.578285,226.605 L220.578285,236.274 C220.578285,236.934 220.149285,237 219.522285,237 L218.004285,237 C217.608285,237 217.278285,236.67 217.278285,236.274 Z M229.365714,232.281 C229.365714,229.476 231.543714,227.364 235.470714,227.364 C237.054714,227.364 238.539714,227.826 238.539714,227.826 C238.605714,225.417 238.011714,224.328 236.097714,224.328 C234.348714,224.328 232.632714,224.823 231.840714,225.054 C231.378714,225.153 231.081714,224.856 230.982714,224.427 L230.685714,223.173 C230.586714,222.645 230.817714,222.414 231.180714,222.282 C231.444714,222.183 233.622714,221.424 236.427714,221.424 C241.311714,221.424 241.773714,224.361 241.773714,228.156 L241.773714,236.274 C241.773714,236.67 241.410714,237 241.047714,237 L239.958714,237 C239.661714,237 239.496714,236.868 239.331714,236.472 L238.968714,235.449 C238.143714,236.241 236.625714,237.363 234.282714,237.363 C231.411714,237.363 229.365714,235.449 229.365714,232.281 Z M232.599714,232.248 C232.599714,233.601 233.391714,234.657 234.975714,234.657 C236.493714,234.657 238.044714,233.568 238.506714,232.809 L238.506714,230.268 C238.308714,230.136 237.120714,229.74 235.734714,229.74 C233.952714,229.74 232.599714,230.664 232.599714,232.248 Z M246.898143,236.274 L246.898143,222.48 C246.898143,222.117 247.228143,221.754 247.624143,221.754 L248.416143,221.754 C248.713143,221.754 249.010143,221.985 249.076143,222.282 L249.505143,223.668 C249.769143,223.272 251.353143,221.424 254.125143,221.424 C255.577143,221.424 257.392143,221.82 256.897143,222.843 L256.105143,224.493 C255.907143,224.922 255.511143,225.021 255.181143,224.856 C254.950143,224.724 254.257143,224.559 253.795143,224.559 C251.551143,224.559 250.330143,226.341 250.198143,226.605 L250.198143,236.274 C250.198143,236.934 249.769143,237 249.142143,237 L247.624143,237 C247.228143,237 246.898143,236.67 246.898143,236.274 Z M263.968571,236.472 L258.721571,222.744 C258.523571,222.216 258.787571,221.754 259.381571,221.754 L261.559571,221.754 C261.790571,221.754 262.120571,221.919 262.219571,222.183 L265.750571,232.644 L265.816571,232.644 L270.106571,222.183 C270.238571,221.82 270.535571,221.754 270.898571,221.754 L272.944571,221.754 C273.571571,221.754 273.835571,222.216 273.604571,222.744 L264.298571,244.392 C264.166571,244.623 263.968571,244.854 263.671571,244.854 L261.559571,244.854 C260.998571,244.854 260.635571,244.359 260.899571,243.831 L263.968571,236.472 Z"/>
    <g fill="#FFF" transform="translate(24)">
      <g transform="translate(43)">
        <path d="M112.6,124.2 C106.5,119.6 97.5,116.2 87.9,112.5 C76.5,108.1 63.7,103.2 54,95.6 C43,87 37.7,76.1 37.7,62.3 C37.7,50 42.9,39.4 52.7,31.8 C63.7,23.2 80.3,18.7 100.9,18.7 C106.6,18.7 112,19 117,19.7 C117.4,19.8 117.9,19.5 118.1,19.1 C118.3,18.7 118.2,18.2 117.9,17.9 C105,6.4 88.3,0.1 70.9,0.1 C52.1,0.1 34.4,7.3 21.1,20.5 C7.6,33.7 0.3,51.2 0.3,69.8 C0.3,88.4 7.6,105.9 20.9,119 C34.2,132.2 51.9,139.4 70.7,139.4 C85.9,139.4 100.4,134.7 112.6,125.8 C112.9,125.6 113,125.3 113,125 C113,124.7 112.9,124.4 112.6,124.2 Z"/>
        <path d="M140.8,63.4 C140.8,63.1 140.6,62.9 140.4,62.7 C125.7,50.6 113.8,45.7 99.4,45.7 C91.7,45.7 85.8,47.2 81.8,50.2 C78.4,52.8 76.6,56.4 76.6,60.7 C76.6,72.7 91.4,78.1 108.5,84.4 C117.3,87.7 126.4,91 134.8,95.6 C134.9,95.7 135.1,95.7 135.3,95.7 C135.4,95.7 135.5,95.7 135.6,95.6 C135.9,95.5 136.1,95.3 136.2,95 C139.4,86.9 141,78.4 141,69.6 C141.1,67.7 141,65.6 140.8,63.4 Z"/>
      </g>
      <g transform="translate(0 161)">
        <path d="M51.2 11.7C50.8 11 51.2 10.3 52.1 10.3L55.4 10.3C56 10.3 56.3 10.6 56.5 11L63.1 26 63.2 26 70.1 11C70.4 10.3 71.1 10.3 71.8 10.3L74.2 10.3C75.1 10.3 75.5 10.9 75.1 11.7L64.4 34.7C64.2 35 63.9 35.3 63.4 35.3L63 35.3C62.5 35.3 62.1 35 61.9 34.7L51.2 11.7zM102.9 1.5C102.9.9 103.4.3 104.1.3L107.1.3C107.7.3 108.3.9 108.3 1.5L108.3 34.2C108.3 34.8 107.7 35.4 107.1 35.4L104.1 35.4C103.5 35.4 102.9 34.9 102.9 34.2L102.9 1.5zM38.9 9.8C31.5 9.8 26.6 15.7 26.6 22.5 26.6 29.5 31.5 35.3 39 35.3 43.1 35.3 46.4 33.8 48.1 32.3 48.8 31.7 48.6 31.2 48.2 30.7L46.8 28.5C46.4 27.9 45.9 28 45.4 28.4 43.9 29.5 42.2 30.5 39.4 30.5 35.1 30.5 32.1 27.1 32 23.8L49.1 23.8C49.6 23.8 50.2 23.4 50.2 22.7 50.3 22.3 50.3 21.4 50.3 21 50.1 14.5 45.3 9.8 38.9 9.8zM32.1 19.8C32.5 16.7 34.8 14.2 38.7 14.2 42.3 14.2 44.7 16.8 44.8 19.8L32.1 19.8zM88.1 9.8C80.7 9.8 75.8 15.7 75.8 22.5 75.8 29.5 80.7 35.3 88.2 35.3 92.3 35.3 95.6 33.8 97.3 32.3 98 31.7 97.8 31.2 97.4 30.7L96 28.5C95.6 27.9 95.1 28 94.6 28.4 93.1 29.5 91.4 30.5 88.6 30.5 84.3 30.5 81.3 27.1 81.2 23.8L98.3 23.8C98.8 23.8 99.4 23.4 99.4 22.7 99.5 22.3 99.5 21.4 99.5 21 99.4 14.5 94.5 9.8 88.1 9.8zM81.3 19.8C81.7 16.7 84 14.2 87.9 14.2 91.5 14.2 93.9 16.8 94 19.8L81.3 19.8zM176.6 9.8C169.2 9.8 164.3 15.7 164.3 22.5 164.3 29.5 169.2 35.3 176.7 35.3 180.8 35.3 184.1 33.8 185.8 32.3 186.5 31.7 186.3 31.2 185.9 30.7L184.5 28.5C184.1 27.9 183.6 28 183.1 28.4 181.6 29.5 179.9 30.5 177.1 30.5 172.8 30.5 169.8 27.1 169.7 23.8L186.8 23.8C187.3 23.8 187.9 23.4 187.9 22.7 188 22.3 188 21.4 188 21 187.8 14.5 183 9.8 176.6 9.8zM169.8 19.8C170.2 16.7 172.5 14.2 176.4 14.2 180 14.2 182.4 16.8 182.5 19.8L169.8 19.8zM203.5 10.1C203.4 10.1 203.2 10.1 203.1 10.1 202.9 10.1 202.7 10.1 202.4 10.1 201.1 10.1 199.9 10.1 198.7 10.2L198.7 10.2C196.5 10.3 195.2 10.5 194.2 10.6 194.2 10.6 193.6 10.7 192.9 10.7 192.4 10.8 192.1 11 191.9 11.2 191.8 11.4 191.7 11.5 191.7 11.8L191.7 11.9 191.7 12.4 191.7 14.2 191.7 19.1 191.7 34.2C191.7 34.8 192.2 35.4 192.9 35.4L195.4 35.4C196.4 35.4 197.1 35.3 197.1 34.2L197.1 19.1 197.1 19.1 197.1 15.6C197.1 15.5 197.3 15.3 197.5 15.2 198.1 14.8 199.6 14.6 202.5 14.6 202.8 14.6 203 14.6 203.2 14.6 203.9 14.7 204.9 14.9 205.3 15.1 205.8 15.4 206.5 15.2 206.8 14.5L208.1 12.4C208.7 10.7 205.8 10.1 203.5 10.1zM161.3 21.6C161 13.3 157.5 9.8 149.4 9.8 145.5 9.8 140.9 11 140.2 11.2 139.4 11.6 138.7 12 138.7 12.6L138.7 13.1 138.7 14.9 138.7 20.6 138.7 21.4 138.7 43.7C138.7 44.3 139.2 44.9 139.9 44.9L142.4 44.9C143.2 44.9 143.7 44.4 143.7 43.7L143.7 34.9C144.5 35.1 148.3 35.4 151.5 35.3 157.2 35.1 161.1 31 161.4 24.1 161.4 23.2 161.4 21.8 161.4 21L161.3 21.6zM156.2 24.1C156.1 28.8 154.7 30.9 150.7 31.1 148.7 31.2 144 30.7 144 30.7 143.8 30.6 143.7 30.6 143.7 30.4L143.7 20.9 143.7 15.5C143.7 15.4 143.8 15.2 144 15.2 144.6 15.1 146.6 14.5 149.5 14.5 154.4 14.5 156.1 15.2 156.3 21.3 156.2 22 156.2 23.2 156.2 24.1zM.5 23.5C.8 31.8 4.3 35.3 12.4 35.3 16.3 35.3 21.1 34.1 21.8 33.9 22.6 33.5 23.3 33.1 23.3 32.5L23.3 1.4C23.3.8 22.8.2 22.1.2L19.4.2C18.6.2 18.1.7 18.1 1.4L18.1 10.7C17.3 10.5 13.5 10.2 10.3 10.3 4.6 10.5.7 14.1.4 21 .4 21.9.4 23.3.4 24.1L.5 23.5zM5.7 21C5.8 16.3 7.2 14.7 11.2 14.5 13.2 14.4 17.9 14.9 17.9 14.9 18.1 15 18.2 15 18.2 15.2L18.2 24.2 18.2 29.6C18.2 29.7 18.1 29.8 17.9 29.9 17.1 30.1 15.3 30.6 12.4 30.6 7.5 30.6 5.8 29.9 5.6 23.8 5.7 23 5.7 21.9 5.7 21z"/>
        <path d="M10,11.1 C7.5,10 5.5,9.1 5.5,7.5 C5.5,6.4 6.8,5.3 8.9,5.3 C10.8,5.3 12.5,5.8 14.2,6.5 C14.7,6.7 15.4,6.8 15.8,6 L16.7,4.3 C17,3.7 16.8,2.9 16.2,2.5 C15,1.7 12.4,0.7 9,0.7 C3,0.7 0.6,4.3 0.6,7.4 C0.6,11.4 3.7,13.4 7.5,15.1 C10.9,16.6 12.8,17.7 12.8,19.3 C12.8,20.7 11.6,21.7 9.5,21.7 C6.6,21.7 4.8,20.7 3.4,19.9 C2.8,19.5 2.1,19.7 1.8,20.2 L0.7,22.5 C0.4,23 0.8,23.5 1.1,23.8 C2.5,24.8 5.3,26.3 9.2,26.3 C14.7,26.3 18,23 18,19.2 C18,14.6 14.6,13 10,11.1 Z" transform="translate(209 9)"/>
        <path d="M134.5,17.3 C133.9,15.7 133.2,14.4 132.2,13.3 C131.2,12.2 130,11.3 128.6,10.7 C127.2,10.1 125.2,9.8 123.6,9.8 C122,9.8 120,10.1 118.6,10.7 C117.2,11.3 116,12.2 115,13.3 C114,14.4 113.2,15.8 112.7,17.3 C112.1,18.9 111.9,20.6 111.9,22.5 C111.9,24.4 112.2,26.2 112.7,27.7 C113.3,29.3 114,30.6 115,31.7 C116,32.8 117.2,33.7 118.6,34.3 C120,34.9 122,35.2 123.6,35.2 C125.2,35.2 127.2,34.9 128.6,34.3 C130,33.7 131.2,32.8 132.2,31.7 C133.2,30.6 134,29.2 134.5,27.7 C135.1,26.1 135.3,24.4 135.3,22.5 C135.3,20.6 135.1,18.9 134.5,17.3 Z M123.4,31.1 C118.9,31.1 116.7,27.4 116.7,22.8 C116.7,18.2 118.9,14.5 123.4,14.5 C127.9,14.5 130.1,18.2 130.1,22.8 C130.1,27.4 127.9,31.1 123.4,31.1 Z"/>
      </g>
    </g>
  </g>
</svg>
