<svg xmlns="http://www.w3.org/2000/svg" xmlns:xlink="http://www.w3.org/1999/xlink"
     viewBox="0 0 600 397.36">
    <defs>
        <clipPath id="a">
            <rect y="388.06" width="600" height="9.3" style="fill:none"/>
        </clipPath>
        <clipPath id="b">
            <rect x="-1629.63" y="-889.33" width="2844.44" height="2008.13" style="fill:none"/>
        </clipPath>
    </defs>
    <path d="M344.18,258.92a1.16,1.16,0,0,1,0,.18.65.65,0,0,1,0,.13h0l0-.16-.06-.21v0Z"
          style="fill:#dfedfa"/>
    <path d="M309.26,54.83c0,.05,0,.09,0,.14v0h0s0,0,0,0h0V54.8a0,0,0,0,0,0,0Z" style="fill:#dfedfa"/>
    <path d="M309.26,54.83c0,.05,0,.09,0,.14v0h0s0,0,0,0h0V54.8s0,0,0,0Z" style="fill:#dfedfa"/>
    <path d="M379.7,158.25c-.24-5.49-2-10.59-4.12-15.61s-4.13-10.22-6.59-15.14c-1.68-4-3.43-8.32-5.43-12.34-2.32-4.67-5.41-8.91-8-13.4-4.35-7.45-7.7-18.22-17-20.84a114.27,114.27,0,0,0-11.83-2.68c-4.44-.75-9.46-1.9-12.73-5.22-3.56-3.62-4.31-11.08-4.91-16.06a3.63,3.63,0,0,1,.49-2.92c1.6-2.28,3.54-4,4.91-6.61a7.34,7.34,0,0,1-4.24-8.17c.89-3.95,3.94-3.72,7.16-4.18-1.19.78-1.24,3.66.4,2.48a28.93,28.93,0,0,1-2.23,3c-.34.42-2.16,1.94-2.3,2.42-.94,3.26,2.59.31,3.53-.52,1.5-1.32,3.68-2.75,4.06-4.89.24-1.34-.57-4-2.44-2.94,1.42-8.42.25-18.72-5.92-25.16-5.83-6.07-13.28-6.65-20.86-3.79-6.16,2.33-9.59,7.66-10.77,13.94a24.37,24.37,0,0,0,.12,9,3.91,3.91,0,0,0,.92,2.49,15.85,15.85,0,0,0,2.5,1.1,13,13,0,0,1,4.42,3.83,7.39,7.39,0,0,1,1.65,5.34,6.66,6.66,0,0,1-.93,2.67c-.45.71-1.78,1.34-2.07,1.95-.5,1.07,2.27,4.37,3.21,5.28a23.46,23.46,0,0,0,1.85,1.59c1.23,1,1.32.77,1.46,2.07a11.1,11.1,0,0,1-.75,3.37,60.18,60.18,0,0,1-2.72,8.34,14.34,14.34,0,0,1-10.27,8.42c-3.58.91-7.26.81-10.92,1.12-4,.34-7.85,2.85-11.6,4.42a17.27,17.27,0,0,0-5.51,2.94,37.62,37.62,0,0,0-4.75,5.18A80.44,80.44,0,0,0,240.64,100a236.24,236.24,0,0,0-11.73,25c-1.73,4.49-3.59,8.94-5.17,13.49s-4,9.35-3.68,14.15c.38,7,6.42,11.14,13,9.23a82.28,82.28,0,0,0,16.68-7.1c3-1.64,5.61-3.81,8.63-5.35,2-1,4.13-1.75,5.81-3.24,0,2.78-.71,5.53-1,8.29-.45,4.46-.75,8.93-1.16,13.39-.69,7.61-2.09,15.06-3.25,22.6-.56,3.64-.87,7.33-1.19,11-.14,1.71-.69,3.56-.39,5.22.26,1.51.94,3,1.25,4.54,1.61,8,3.53,15.91,3.51,24.17a37.29,37.29,0,0,1-5,18.34c.57.16,3,.32,3.29.71a7.06,7.06,0,0,1,.21,2c.11.95.25,1.91.4,2.85.45,2.76,1.14,5.47,1.66,8.21.89,4.66,2.16,9.24,2.78,13.95.75,5.71.59,11.44,1,17.17s.73,11.55.63,17.3c-.26,14.91,1.25,30,2.57,44.85.28,3.25.53,6.5.8,9.75q.27,3.25.55,6.51c.15,1.76-.06,4.56,1,6.11,1.54,2.34,6.84,3,9.45,2.67,3.05-.41,5-3.56,6.54-5.94.83-1.3,2.86-4.07,2.58-5.6-.36-2-1.87-.64-3.12-1.14-1.62-.64-.44-4.6-.36-6.1.21-4,0-7.84.74-11.8,1.27-6.75,1.47-13.12,1.78-19.94.35-7.51-.36-15-.45-22.46-.07-5.11.46-10.16.84-15.25.79-10.75,3.59-21,5.52-31.58-2.56-.43-3.94-.39-3.75-3.18.23-3.32,1.22-6.52,1.86-9.77.57-2.91.79-5.9,1.52-8.78.55-2.2,2.73-9.67,5.64-9.66,1.61,0,2.31,3.57,2.75,4.69,1.17,3,2.49,5.92,3.37,9,1,3.57,4.21,13-1,14,1.06,4.68,2,9.36,2.69,14.1.74,5,2.08,9.87,2.84,14.87,1.15,7.62,2.25,15.43,2.67,23.13.27,4.93-.31,9.82-.48,14.74-.18,5.42.36,10.94.66,16.35.53,9.58,1.1,19.29,2.06,28.83.29,2.88.48,5.76,1,8.61.27,1.34.38,2.88,1.41,3.87,2.08,2,7.94,2,10.48,1.08,1.34-.48,2.07-1.69,2.83-2.82,1.42-2.08,3.4-4.53,3.93-7,.57-2.7-1.95-3.67-4.25-3.66-1.32,0-1.38.68-1.57-.58a7.66,7.66,0,0,0,.69-1.69c.23-.88.31-1.81.51-2.7,1-4.41,1.66-8.79,2.29-13.27.8-5.67,1-11.42,1.62-17.11.51-4.71,1-9.42,1.17-14.15.39-10.9,0-21.76.22-32.66.13-6,1.41-11.65,2.61-17.45.63-3,1.33-6,2.05-9,.18-.76.74-6.05,1.81-6.11-1.26-1.69-2.36-3.3-2.52-5.47s.4-3.09-.26-5.06a53,53,0,0,1-2.45-10.86c-.71-6-.85-12.5,1.38-18.22.75-1.92,2.43-3.86,3-5.76.72-2.33-.4-6.52-.69-8.88a81,81,0,0,0-1.82-10c-1.65-6.39-3.39-13-4.42-19.54-1.43-9-2.14-20.5.68-29.6,8,4.61,15.23,10.8,23.88,14.06,1.48,1.48,4.78,2.38,6.66,3.32a34.9,34.9,0,0,0,4.14,1.86c2.62.9,5.78,1.31,8-.85C380.22,163.13,379.83,160.23,379.7,158.25ZM264,129.43c0,1.6-7.6,3-9,3.63,3.31-5.72,4.24-12,6.94-18,.61,4.15,1.54,8.59,2,12.51C263.92,128.21,264,128.82,264,129.43Zm82.79,3.76c-1.84-.88-7.57-1.74-7.88-3.17-.23-1,.91-3.05,1.14-4.14a19.52,19.52,0,0,1,1.35-4.73,70.64,70.64,0,0,0,3.33,8,36.33,36.33,0,0,1,1.91,3.45C346.78,133.12,347.24,133.3,346.74,133.19Z"
          style="fill:#dfedfa"/>
    <path d="M279,35.31a15.58,15.58,0,0,0,4.85,6.12c3.2,2,1.06-2.25.5-3.37-.37-.74-1.4-2-1.5-2.76-.12-.95.77-1.13-.29-2.29C280.68,31,278.11,32.58,279,35.31Z"
          style="fill:#dfedfa"/>
    <path d="M270.23,368.77c.11,0,.68,8.15.74,8.83.15,1.74,0,3.71.79,5.31s2.53,1.8,4.11,2.28c2.61.8,6,1.35,8.28-.62a20.47,20.47,0,0,0,2.9-3.46,31.85,31.85,0,0,0,2.63-4.48c.37-.77,1.24-2.42.51-3.19s-1.71-.39-2.51-.33-1-.24-1.05-1.11a17.59,17.59,0,0,1,.16-2.4c-3.22-.14-6.44-.21-9.66-.36-1.46-.06-2.92-.14-4.39-.24-.82-.05-1.68-.23-2.51-.23Z"
          style="fill:#41c0f0"/>
    <path d="M315.87,368.29c-.1,0,.68,9.83.76,10.77a47.7,47.7,0,0,0,1,5.55,3.61,3.61,0,0,0,2.74,3.1,16.73,16.73,0,0,0,5.22.54c.91,0,1.8-.17,2.71-.23a3,3,0,0,0,1.87-.64c1.35-1.09,2.07-2.78,3.05-4.17a18.67,18.67,0,0,0,2.68-5.07c.57-1.77-.36-2.81-1.93-3.37a6.07,6.07,0,0,0-2.19-.4,6.78,6.78,0,0,0-1.19.14c-.16,0-.24.1-.36,0-.31-.16,0-.46-.11-.76.1.22.41-.22.44-.26a2,2,0,0,0,.14-.7c0-.29.09-.58.14-.88.13-.82.29-1.65.47-2.46-2.47-.18-4.94-.35-7.41-.56-2.64-.21-5.34-.64-8-.64Z"
          style="fill:#41c0f0"/>
    <path d="M319.27,27.1c-.78-11.27-7-25.11-21-23.39C283.64,5.5,281.4,15.84,281.4,28.28c1,12.1,4.83,23.85,18.1,24.47,2.81.13,7.9,1.19,10.66,0C317.39,49.56,319.71,33.68,319.27,27.1Z"
          style="fill:#afdbf6"/>
    <path d="M314.55,352.31c.25,3.84.76,7.66,1,11.51q.21,3,.33,6c0,.49,0,1,.06,1.45,0,.21-.07.78,0,.94s.42.17.52.21a12.52,12.52,0,0,0,2.21.66,32.27,32.27,0,0,0,7,.61c1.05,0,2.1-.12,3.15-.22.32,0,.65-.08,1-.14a2.44,2.44,0,0,0,.72-.16c.13-.14.11-.71.14-.89.29-1.88.79-3.67,1.21-5.52.49-2.16.8-4.4,1.08-6.6.33-2.6.74-5.18,1-7.8a14.61,14.61,0,0,1-2.73.11c-.72,0-1.46.07-2.19.05a33.47,33.47,0,0,1-4.88-.57c-1.81-.34-3.61-.74-5.41-1.14-.76-.17-1.52-.33-2.27-.52a6.31,6.31,0,0,1-2.14-.66c.05.88.12,1.77.18,2.65Z"
          style="fill:#afdbf6"/>
    <path d="M268.51,347.06c0,3.48.51,6.93.81,10.39.31,3.66.67,7.31.88,11,0,.56.08,1.13.14,1.69s0,.41.43.59a17.23,17.23,0,0,0,3.09,1,30,30,0,0,0,5.71.53c.79,0,1.5-.16,2.29-.16a18,18,0,0,0,3-.35,14.1,14.1,0,0,0,1.47-.26c.35-.12.28-.12.31-.53s0-.53.07-.79c.16-1.49.28-3,.31-4.49,0-1.11,0-2.22,0-3.33a36.72,36.72,0,0,1,.73-7.32c.31-1.61.67-3.21.93-4.82a36.11,36.11,0,0,1-10.63-.36c-1.74-.3-3.48-.73-5.2-1.17a26.18,26.18,0,0,1-4.36-1.68v.1Z"
          style="fill:#71c9f3"/>
    <path d="M314.51,347.43c-.68,0-.42,1.9-.07,2.27.81.88,4,1.09,5.27,1.36A49.89,49.89,0,0,0,332,352.47c.93,0,3.45-.36,2.38-2-.44-.67-2.3-.08-3.19-.07a41.94,41.94,0,0,1-8.38-.57c-2.64-.51-5.68-2.41-8.29-2.41Z"
          style="fill:#71c9f3"/>
    <path d="M289.09,349.75c0-.61-4.81-.19-5.33-.2a44.67,44.67,0,0,1-9-.83c-1.31-.3-7-3.59-6.29-.42.36,1.6,2.22,1.3,3.79,1.58a67.25,67.25,0,0,0,8.48,1.16C282.43,351.11,289,352.36,289.09,349.75Z"
          style="fill:#71c9f3"/>
    <path d="M230.9,119.79l-.2.5-.16.38c-.14.32-.32.73-.48,1.17-.09.26-.18.52-.28.78s-.19.55-.29.82-.24.64-.37,1l0,.07-.2.52c-.06.15-.12.29-.17.45l-.06.13,0,.14c-.1.28-.2.56-.31.84s-.31.77-.47,1.16l0,.07,0,.07-.06.15,0,.06c-.21.52-.47,1.18-.69,1.79s-.54,1.37-.81,2l-.06.14-.06.14,0,.09-.09.22,0,.09c-.06.14-.12.28-.17.42-.16.38-.3.77-.44,1.15l-.19.49-.08.23-.5,1.32c-.11.3-.22.6-.32.9l-.21.61c-.2.54-.38,1.06-.55,1.58-.23.68-.47,1.36-.73,2.06l0,.05,0,.07-.14.35-.07.21-.15.41-.15.41-.07.21v0c-.11.3-.2.58-.31.87s-.18.46-.26.69-.17.55-.25.82v0c-.16.56-.28,1-.4,1.51l-.12.46v.07c-.09.35-.18.69-.24,1s-.16.87-.24,1.3l-.07.45c-.05.26-.09.53-.13.79a5.26,5.26,0,0,0-.05.81,11.67,11.67,0,0,0,.12,1.57c0,.12,0,.25.07.37l0,.19c.06.35.11.7.19,1.06a4,4,0,0,0,.18.66l0,.06v.05l0,.12.05.14c.06.19.11.37.18.55a5.53,5.53,0,0,0,.36.77l.21.35.2.34.07.12a3.74,3.74,0,0,0,.27.42,3.93,3.93,0,0,0,.5.57l.11.1.07.07.14.13.64.58a6.24,6.24,0,0,0,.66.51q.36.27.69.48l.07,0c.23.15.41.26.6.36a6,6,0,0,0,.76.37l.1,0a3.53,3.53,0,0,0,.6.21l.23.06.17,0,.24.06h.08l.18,0c.26.06.55.1.79.13h.07c.25,0,.51.05.76.06h.25a8.62,8.62,0,0,0,1-.08h.16c.27,0,.54-.09.81-.14l.31-.07h0l.13,0,.3-.08.05,0,.17-.06.83-.26c.76-.25,1.37-.46,1.92-.67.79-.28,1.64-.62,2.05-.78l.08,0,.22-.09,1.18-.47c1.07-.39,2.13-.79,3.19-1.2l.8-.31.69-.31.16-.07c.37-.17.75-.37,1.06-.53l.08,0,0,0,.06,0,.28-.15c.64-.34,1.29-.66,1.94-1l.08,0c.3-.14.59-.29.88-.44l.15-.06.54-.23c.45-.19.91-.35,1.39-.51l.06,0,.84-.3.79-.27.69-.41c.35-.19.7-.38,1-.58l1-.61,2-1.24,1-.58,1-.59c.63-.39,1.26-.78,1.91-1.14.33-.19.66-.38,1-.55l.59-.29a5,5,0,0,1,.53-.23v-.27c0-.26,0-.52-.05-.78s0-.27,0-.4c0-.36-.07-.71-.11-1.07l0-.15c-.05-.38-.11-.79-.2-1.26l0-.12,0-.19c0-.1,0-.2,0-.3,0-.27-.05-.53-.08-.79v-.29l0-.12c0-.39-.09-.79-.14-1.18l-.06-.41-.06-.4c-.1-.73-.22-1.55-.35-2.36-.06-.4-.13-.79-.21-1.19s-.15-.79-.25-1.22c0-.19-.09-.38-.14-.57l-.05-.2-.05-.19-.05-.22c-.09-.32-.2-.74-.29-1.19s-.16-.78-.23-1.17l-.06-.33-.06-.34-.12,0c-.42.11-.84.24-1.29.39l-2.18.73c-.33.11-.71.24-1.1.41l-.4.19.15-.24.18-.28.07-.12.07-.1.16-.26.11-.18.06-.09.19-.31c.14-.23.28-.48.42-.76l-.16,0h-.09a1.88,1.88,0,0,1-.53-.15l-1-.43-.08-.05-.57-.25c-.87-.36-1.61-.67-2.4-1-.47-.22-.93-.46-1.39-.7l-.66-.35-1.61-.82-.11-.05-.18-.09-.13-.06L246,126l-.16-.07-.15-.07-.21-.08-.28-.11-.13,0c-.93-.35-1.7-.66-2.48-1-.49-.21-1-.44-1.44-.67l-.2-.09-.57-.28-.19-.08c-1.66-.77-3.28-1.52-5-2.27l-.56-.24a12.37,12.37,0,0,1-3.36-1.88l-.08,0c-.11.25-.21.5-.31.75Z"
          style="fill:#c9e4f8"/>
    <path d="M364.64,121.16l-.22.15-.13.09-.14.1c-.21.15-.42.3-.63.43a5.2,5.2,0,0,1-1,.51l-.11,0-.24.09h0l.08,0h0c-.53.22-1.05.48-1.52.71l-.17.08-.13.06a11.2,11.2,0,0,1-1.2.54h0l-.27.12h0l0,0s0,0,0,0h0a7.18,7.18,0,0,0-.68.34c-.2.11-.4.22-.61.31l-.8.34c-.49.29-1.09.62-1.73.93-.47.23-.95.45-1.52.7s-1.49.81-2.28,1.15c-.54.25-1.06.51-1.67.82-.36.18-.79.4-1.23.57l-.08,0-.25.11h0l.09,0,0,0h.05c-.21.09-.41.19-.61.3l-.18.08-.17.09a10.3,10.3,0,0,1-1,.4l-.2.06-.19.05-.28.18-.18.14.11.19.14.25.08.15.5.88c.13.26.34.64.58,1l0,0,.07.09-.1-.06-.13-.08-.13-.06c-.38-.18-.76-.35-1.18-.52l-.2-.08c-.29-.12-.61-.25-.92-.36l-.64-.21-.18-.05c-.1.16-.17.31-.25.47s-.25.52-.39.86l0,.05a5.2,5.2,0,0,0-.21.55c-.07.19-.13.38-.19.57s-.14.5-.2.75l-.13.47c-.06.22-.12.45-.19.67l-.05.16v.05l-.08.27c-.11.4-.23.79-.33,1.19s-.19.77-.28,1.18v.05a5.2,5.2,0,0,0-.11.51c0,.2-.07.39-.1.59-.14.89-.26,1.68-.36,2.44,0,.28-.07.57-.1.86l0,.46,0,.45q-.06.62-.09,1.23v.13l0,.39,0,.4v.13c0,.23,0,.44,0,.66s0,.64,0,1v.46c0,.09,0,.19,0,.29l0,.18v.05h0l.36.25.39.27.33.27h0c.11.09.23.17.35.25l.33.21.7.45.75.49.62.43,1.45.94,1.47.94,1,.62.93.58c.34.2.68.41,1,.6l1,.53,2,1.1,1.05.57,1,.55c.68.37,1.35.76,2,1.15l1,.52,1,.54,1,.51,1.06.55,1,.47.59.28.48.22,0,0,.95.39.88.38.91.41.81.38.89.41.9.4c.27.12.53.27.81.39s.51.24.78.35h0a10.54,10.54,0,0,0,1.43.5l.72.17.29.07.39.08h0l.21,0,.23,0,.24,0a1.9,1.9,0,0,1,.25,0l.41.08.4.06a6,6,0,0,0,1.27,0l.68-.08.61-.07h0l.52-.09.17-.12.34-.22.16-.11a3.35,3.35,0,0,0,.52-.39,4.15,4.15,0,0,0,.44-.49,4.74,4.74,0,0,0,.58-1.13,5.68,5.68,0,0,0,.25-1.24c.05-.4.06-.8.07-1.19a13.15,13.15,0,0,0-.06-1.61c0-.36-.09-.74-.14-1.07V159l-.05-.35V158c0-.59-.07-1.11-.12-1.59s-.13-1.17-.2-1.75-.17-1.1-.28-1.65l-.05-.25c-.1-.53-.19-.93-.31-1.35l-.36-1.18-.16-.49q-.25-.85-.54-1.71l-.07-.22c-.14-.43-.28-.86-.44-1.29s-.41-1.09-.6-1.54-.44-1.12-.68-1.68l-.13-.3-.13-.3-.08-.18-.45-1.09-.33-.74-.19-.44-.23-.57-.12-.28-.06-.17-.09-.22-.09-.23-.27-.68-.14-.35-.21-.51c-.22-.54-.44-1.09-.68-1.63-.08-.2-.17-.39-.26-.59l0,0,0-.06,0-.07,0-.08,0-.07c-.09-.21-.19-.41-.28-.62l-.21-.47-.09-.21-.08-.16-.06-.13c-.07-.17-.15-.34-.22-.5l-.47-1-.32-.68c-.24-.5-.46-1-.69-1.53l-.24-.53-.06-.14c-.15-.32-.29-.64-.43-1l0-.06-.05-.13,0-.09,0,.05-.09-.23c-.15-.45-.33-.89-.5-1.32l0-.07-.08-.2-.09-.24c-.16-.39-.31-.78-.47-1.18-.54-1.32-.94-2.29-1.33-3.16-.13-.3-.26-.6-.4-.9-.42.31-.86.6-1.36.92Z"
          style="fill:#c9e4f8"/>
    <path d="M334.38,175.67h0Z" style="fill:#f0f7fd"/>
    <path d="M267,77.59v0a0,0,0,0,1,0,0l0,0v0Z" style="fill:#f0f7fd"/>
    <path d="M269.15,81.8h0l0,.08v0h0l.07,0s0-.1,0-.15a.23.23,0,0,1-.07.07Z" style="fill:#f0f7fd"/>
    <polygon points="271.67 74.97 271.68 74.97 271.67 74.97 271.67 74.97 271.67 74.97"
             style="fill:#f0f7fd"/>
    <path d="M282.51,110.18a28.84,28.84,0,0,0-4.9.41.91.91,0,0,0-.56.43,1.06,1.06,0,0,0-.13.46.55.55,0,0,0-.18.08,1,1,0,0,0-.44.56,4.81,4.81,0,0,0-.25,1.52l0,.55,0,.56a3.55,3.55,0,0,0,.05.8,1.66,1.66,0,0,0,.15.46,1.63,1.63,0,0,0,.58.67,3.56,3.56,0,0,0,.51.27,6.56,6.56,0,0,0,.79.32,3.86,3.86,0,0,0,1.11.12h1.74c.53,0,1.06.07,1.58.12l1,.08c.63,0,1.27.07,2,.07,1.34,0,2.67-.08,3.8-.16.5,0,1,0,1.71,0h1.11c1,0,1.95.05,2.92.09l2.24.13c1.19.07,2.42.15,3.63.18h3.49c.76,0,1.52,0,2.28,0,1.49,0,3,.16,4.47.27l1,.08c1,.07,1.91.16,2.87.24h.16c.44,0,.88.08,1.32.09H317a2.34,2.34,0,0,0,1.71-.51,3,3,0,0,0,.65-2,9.34,9.34,0,0,0,0-1.41c0-.3-.06-.59-.1-.89a2.68,2.68,0,0,0-.57-1.33,1.78,1.78,0,0,0-.65-.49,1.74,1.74,0,0,0-.48-.14l-.34,0-.61,0-.7,0-.58,0-1.4-.07c-1-.05-1.93-.09-2.9-.12l-1.37-.07-1.38-.08-1.38,0q-.75,0-1.5,0c-.71,0-1.42-.08-2.13-.13l-.7-.06c-.95-.06-1.9-.14-2.85-.22-.75-.08-1.5-.14-2.25-.21l-.73-.07-.39,0c-.8-.07-1.6-.15-2.4-.2s-1.31-.06-2-.08l-.93,0c-1,0-1.94,0-2.89,0-1.78,0-3.39,0-4.93-.06Z"
          style="fill:#dfedfa"/>
    <path d="M280.82,122.9a5.88,5.88,0,0,0-1.38.18c-.25.07-.52.15-.84.27a4.23,4.23,0,0,0-.76.4l-.44.29a3.41,3.41,0,0,0-.61.56,4.45,4.45,0,0,0-.93,1.79,15.64,15.64,0,0,0-.33,3.34l-.06,1.8,0,1.06c0,.93-.09,1.9-.17,3s-.14,1.95-.19,2.93v.21c-.05.85-.09,1.74-.21,2.6l-.18,1.34c-.08.54-.16,1.08-.22,1.62-.1.79-.17,1.58-.24,2.37l0,.52c-.05.53-.1,1.06-.16,1.59s-.09.92-.13,1.39-.07.68-.1,1c-.07.61-.13,1.23-.17,1.85-.11,1.61-.21,3.21-.31,4.82-.06.38-.13.75-.19,1.12s-.12.65-.17,1c-.11.66-.19,1.33-.27,2l0,.31c-.08.66-.16,1.31-.25,2v.08h0v.14l0-.08-.11.62-.1.67c-.06.45-.15.9-.24,1.35l0,.15c-.09.45-.16.91-.23,1.36,0,.26-.07.52-.1.79a1.24,1.24,0,0,0,.06.43l0,.15a1.26,1.26,0,0,0,.05.28,1.36,1.36,0,0,0,.57.72,1.3,1.3,0,0,0,.48.18,4.37,4.37,0,0,0,.91.59,6.24,6.24,0,0,0,1.06.39l.56.17.52.15.52.14.63.16c.25.06.5.12.76.16l.87.14.2,0,.63.08,1.39.16.57.06,1.13.13,1.58.19,1.68.2,2.43.25.66.07c.93.09,2.05.19,3.19.23h.66c.83,0,1.68.05,2.52.14.64.06,1.29.14,1.94.23.82.11,1.64.24,2.45.38l.57.08c.58.1,1.16.19,1.74.26s1.08.1,1.63.13l1.58.11,1.64.12c.88.06,1.78.08,2.65.11h.49c.89,0,1.78,0,2.66,0h1.27l.43,0h.36l.19,0a.91.91,0,0,0,.76.41h.75a4.39,4.39,0,0,0,2-.59,6.9,6.9,0,0,0,1.12-.88l.11-.11c.12-.11.25-.23.37-.36a5.76,5.76,0,0,0,.53-.65,4.43,4.43,0,0,0,.67-1.38,9.87,9.87,0,0,0,.27-1.42,15,15,0,0,0,.14-1.58c0-.95,0-1.91,0-2.86,0-.72-.06-1.45-.08-2.18,0-1.07-.06-2.14-.12-3.2,0-.9-.06-1.8-.06-2.58a3.25,3.25,0,0,0-.24-1.52v-.09c0-.51,0-1,0-1.52s0-1,0-1.43-.08-1-.13-1.5v-.16c-.07-.6-.12-1.21-.17-1.81l-.1-1-.06-.8c-.09-1.55-.06-3.12,0-4.64l0-1c0-1,.07-2.05.12-3.08,0-.84.07-1.68.1-2.52v-.15c0-.86.05-1.75,0-2.62s-.06-1.84-.09-2.76c0-.55-.06-1-.11-1.45a5.82,5.82,0,0,0-.24-1.26,9.6,9.6,0,0,0-.57-1.46,4.79,4.79,0,0,0-1.26-1.39,3.4,3.4,0,0,0-.54-.33c-.29-.15-.58-.3-.88-.43a6.92,6.92,0,0,0-1.22-.41c-.41-.1-.82-.18-1.23-.26l-.3,0-.3-.06c-.38-.07-.76-.15-1.15-.21a22.08,22.08,0,0,0-2.75-.25c-.48,0-.95,0-1.43-.08l-1.37-.08h-3c-.52,0-1,0-1.55-.07l-1.3-.06c-1,0-1.93-.07-2.89-.14l-1.18,0c-.53,0-1.07,0-1.6-.09-1-.09-1.92-.16-2.87-.22-.38,0-.76,0-1.14,0h-.18l-.54,0h-.8c-1,0-2.1-.08-3.13-.15-.74,0-1.49-.09-2.23-.12-.9,0-1.81-.1-2.8-.18l-1.19-.1Z"
          style="fill:#dfedfa"/>
    <path d="M336.88,28.68c-.2-2.14-4.21-3.09-5.82-3.57s-6.72-1-7.62-2.15c-.42-.55-.14-3.11-.28-3.87a31.73,31.73,0,0,0-4.35-11.26c-3.67-5.95-9.1-7.3-15.83-7.6S290.16.18,285.65,6.06a31.58,31.58,0,0,0-5.12,9.7c-.3.9-.42,4.23-1,4.83-1,1-5.85,1-7.43,1.24-1.77.29-5.46.7-6.32,2.57-2.15,4.66,10.16,7,13,7.18,6.82.5,13.67.84,20.48,1.28s13.83.38,20.8.91a38,38,0,0,0,7.91.1C330.48,33.53,337.13,32,336.88,28.68Z"
          style="fill:#93d2f5"/>
    <path d="M299,0c-.52,0,.11.92.24,1.13.56.87,2.28,1.27,3.23,1.31s2.71-.1,3.25-1c1-1.61-1.38-1.18-2.47-1.26C301.87.13,300.45.09,299,0Z"
          style="fill:#71c9f3"/>
    <path d="M323.49,21s-21.76,1.5-23.05,1.5a53.43,53.43,0,0,1-17.23-2.35c-1.3-.43-3.19-1.74-3.73-.56-.68,1.51,1.25,1.72,2.37,2.13,7,2.57,14.54,2.2,21.74,3.47,3.85.66,8.62-.49,12.51-1.06C318.07,23.88,324.18,24.26,323.49,21Z"
          style="fill:#71c9f3"/>
    <path d="M259.09,196l.52.3c.18.11.37.21.56.31l.53.26h0c-.15-.09-.3-.18-.46-.26s-.45-.25-.68-.37l-.22-.11L259,196l.1,0Z"
          style="fill:#c9e4f8"/>
    <path d="M257.21,195.58a.38.38,0,0,0,.69.22l-.51-.33-.16-.11a.82.82,0,0,0,0,.22Z"
          style="fill:#c9e4f8"/>
    <path d="M341.68,199.32h0Z" style="fill:#c9e4f8"/>
    <path d="M255.35,193.77V194a.06.06,0,0,1,0,0,.06.06,0,0,0,0,0l0,.1a.18.18,0,0,0,.17-.18.19.19,0,0,0-.18-.19Z"
          style="fill:#afdbf6"/>
    <path d="M368.55,116.94c-.41-3.51-3.47-7.26-5.26-10.19-2.18-3.57-4.43-7.14-6.89-10.52A88,88,0,0,0,348.63,87c-.76-.78-7.88-7.37-8.66-6.26-2.52-1.34-4.71-.7-7.23-1.25-1.4-.3-2.77-.71-4.16-1-3.67-.82-7.05-.88-9.8-3.65A17.05,17.05,0,0,1,316,71.17c-.4-.69-.81-2.09-1.45-2.56a3.14,3.14,0,0,0-2.16-.3c-1.38.31-.92.12-.83,1.33-3.18,1.16-7.81.78-11.06.6a38.17,38.17,0,0,1-10.76-1.88c1.15-.11,0-1.45-1-1.16-1.32.36-2.12,3-2.95,4a11.06,11.06,0,0,1-6.65,4.12c-4.32.89-8.85.31-13.17,1.26a49.76,49.76,0,0,0-7.31,2.78c-10.15,4.08-17.28,11.41-23.27,20.4a78.4,78.4,0,0,0-5.18,9.08c-.85,1.76-3,4.45-2.93,6.42,0,2.76,5.42,4.84,7.42,5.74,2.17,1,4.35,2,6.51,3,4.3,2,8.69,4.19,13.07,6,2.68,1.1,4.31,1.32,5.85-1.52,1.15-2.14,2.13-4.39,3.12-6.61,0,2.94.64,5.9.83,8.83.2,3.22-.34,6.52-.56,9.75-.27,3.87-.69,7.73-.94,11.6-.29,4.46-1.6,8.58-2.38,13-1.36,7.63-2.09,15.39-3.84,22.94-.35,1.53-1.57,5.22-.83,6.7.59,1.17,2.15,1.06,2.49,2.08.28.85-.23,2.36-.31,3.24s-.67,3.27-.24,3.71,2.83.8,3.63,1c2.61.72,5.23,1.32,7.88,1.89,4.75,1,9.55,2,14.36,2.65,11.25,1.63,22.72,2.13,34.07,2.7,6.23.31,12.47.77,18.7.8,1.18,0,5.34.55,6.12-.2.54-.51-.22-4-.3-4.73-.12-1.12-.28-2.23-.42-3.35-.18-1.48-.35-3-.61-4.44,2.15.06,4.61-1.12,4.27-3.39-.39-2.63-1.91-5.41-2.74-7.93-2.05-6.21-4.05-12.39-5.51-18.77-2.61-11.36-1.73-22.5.73-33.81.8-3.71,2-7.4,2.64-11.11.41,1.6,1.66,5.59,3.52,6.07,1.31.34,3.3-1.07,4.54-1.61l-.21,0c4.73-1.48,9.25-4.53,13.38-6.48C362.84,122.29,368.94,119.55,368.55,116.94Z"
          style="fill:#93d2f5"/>
    <path d="M257.94,197.73c-.62,2.07-.33,4.49-.61,6.61-.39,3-.76,6-.9,9.06-.3,6.59-.24,13.21-.76,19.79a26.44,26.44,0,0,0,.06,5.11,81.46,81.46,0,0,1-.29,17.52c-.77,7.5-2,17.8,5.23,22.55,5,3.27,11.53,2.65,17.24,2.79,5.07.12,16.63,1.44,18.7-4.82,1.13-3.41.95-7.68,1.62-11.26.95-5.1,1.62-10.22,2.53-15.32.61,5.19,1.52,10.39,2.56,15.5,1.1,5.46.66,10.81,6.49,13.23s11.68,2.31,18,2.4c5.35.08,13.23.61,16.4-4.61,1.7-2.81,1.58-5.74,2.24-8.8a23.76,23.76,0,0,0,.54-6.54c-.14-3-.64-6-1-9-.77-6.32-1.87-12.65-2.78-19a78,78,0,0,1-.7-10.59c0-2.52-.09-5-.21-7.51s.46-7.77-.83-9.44a9.37,9.37,0,0,0-.2-2.78c-.24-1.81-.5-1.46-2-1.11-1,.24-2,.46-3,.65-2.62.5-5.22,1.12-7.83,1.65a130.39,130.39,0,0,1-14.83,2.37c-13.78,1.18-27.55.73-41-2.55a67.37,67.37,0,0,1-7.77-2.32,30.29,30.29,0,0,1-3.51-1.53c-.81-.42-2.63-2.12-3.49-2.12Z"
          style="fill:#afdbf6"/>
    <path d="M257,195.55c.28,3.26-1.69,4.32,1.57,6.08,1.92,1.05,3.92,2,5.93,2.88,5.3,2.24,11.08,3.33,16.73,4.27,12.06,2,24.69,1.27,36.62-.28,5.28-.69,10.81-1.1,16-2.33,1.31-.31,2.61-.66,3.92-1,1-.23,4.21-.51,4.8-1.2s.25-1.5,0-2.69c-.28-1.56-.05-1.39-1.42-1.48-2.19-.14-5,1-7,1.46a66.87,66.87,0,0,1-8.17,1.56c-6.34.73-12.78,1.27-19.16,1.72a104.52,104.52,0,0,1-45.44-7,20.66,20.66,0,0,1-4.43-2.41l.05.42Z"
          style="fill:#c9e4f8"/>
    <path d="M263.36,220.45c-2.72,2.72,7.33,4.08,8.52,4.39,2.55.67,5.08,1.14,7.66,1.64,1.43.27,4.82,1.72,5.93.48,2.63-3-8.16-3.85-9.73-4.21-2.5-.56-5-1.22-7.49-1.86-1.33-.35-3.71-1.61-4.89-.44Z"
          style="fill:#c9e4f8"/>
    <path d="M332.11,220.55c-5.17.86-10.15,2.81-15.28,3.9-1.57.34-4.26.71-5.67,1.58-1.82,1.14-1.36,3.43.76,3.57,2.51.17,5.75-1.61,8.1-2.34s4.92-1.71,7.4-2.47c1.62-.5,3.93-.47,5.42-1.27,1.69-.9,1.48-3.3-.73-3Z"
          style="fill:#c9e4f8"/>
    <polygon points="325.55 179.16 270.82 173.12 270.82 104.66 319.39 104.66 325.55 179.16"
             style="fill:#c9e4f8"/>
    <path d="M338.51,175.89c-.82-2.89-1.64-5.79-2.18-8.74-2.27,0-4.35,1.81-6.65,2.08.17-9.22-.12-18.42-.21-27.63-.11-11.5,4.06-26-.25-36.6-.75-1.84-.85-.65-.9-3.14a24.9,24.9,0,0,1,1-5.5,100.1,100.1,0,0,1,2.89-10.74c.49-1.45,2.1-3.5,2.11-4.89,0-2.59-.3-1.7-4.19-2.46-2.88-.56-5.33-2.06-7.46-.28s-3.33,6.34-4.09,8.56c-1.14,3.32-2,6.78-2.85,10.19-.32,1.29-.72,6.36-1.51,7.05s-6.39.41-7.54.41A103.45,103.45,0,0,1,293,103.12c-1-.14-6.12-.21-6.77-1-1.29-1.62-.67-8.26-.95-10.34.2,1.5-.32-2.07-.4-2.55-.26-1.55-.5-3.14-.91-4.67-.71-2.7-1.77-6.13-3.52-8.34-1.32-1.68-.71-1.5-3.18-1.74-.55,0-8,.19-9,1-2.36,1.87,1.35,6.47,2.06,9.1,1.27,4.69,4.08,12.41,2.37,17.11-.75,2-3.08,2.57-4.28,4.68-2.11,3.7-1.38,9.48-1.57,13.71s0,8.39-.28,12.55c-.84,10.76-1.26,21.32-1.22,32-2.64-1.18-3.74-2.27-5.46,0-1.2,1.61-.29,5.49.68,6.5,1.36,1.41,6,2.73,8,3.91.92.55,1.87,1,2.83,1.52,6,3,13.82,3.46,20.38,4,7.64.57,15.35,1.08,23,1.17C317.64,181.63,339.63,179.74,338.51,175.89Zm-56-65.71c9.1,0,18.09.93,27.17,1.28,3,.11,8.26-.93,9.6,2.36,2.26,5.53-4.09,4.67-7.12,4.43-10.38-.82-20.91.09-31.24-.86-2.44-.22-4.47.15-4.93-2.78C275.32,110.36,279.38,110.18,282.51,110.18Zm39.1,59.1c-.37,11.84-21.77,5.53-29,5-5.16-.35-10.56-.56-15.62-1.7s-5.48-2.52-4.74-7.35c.86-5.63,1.33-12.15,1.95-18.13.29-2.89.67-5.76.9-8.65.28-3.6-.58-9.88,1.25-13,2.84-4.84,12.64-2.18,17.46-2,6.41.27,13.44,0,19.79,1.11,9.51,1.62,7.25,11.06,7.06,18.58C320.42,151.92,321.86,160.56,321.61,169.28Z"
          style="fill:#f0f7fd"/>
    <path d="M472.53,330Z" style="fill:#dfedfa"/>
    <path d="M441.52,364.67Z" style="fill:#dfedfa"/>
    <path d="M501.67,241.27c-9.84,7.89-13.89,31.83-14.64,43.93a72.71,72.71,0,0,0,1.27,17.67c1.32,7.23,4.36,14.51,5.21,21.66,1,8.47-1.44,18.07-1.89,26.49-.22,4.09-2.11,39.61.7,39.61-1,0,2.13-52.51,2.31-54.35,1.08-11.14,3.58-17.73,8.36-27.72,4-8.37,6.87-16.48,7.78-25.79a77.37,77.37,0,0,0-1-23.13C509,256,506.15,241.27,501.67,241.27Z"
          style="fill:#afdbf6"/>
    <path d="M446.23,302.7c8.93,0,12.76,21.56,13.32,27.49.29,3.05.13,6.11.37,9.16.44,5.51,2.4,10.52,4,16.09,2.4,8.58,4.77,17.2,6.64,25.91,2.57,12-.52,6.34-2.41-2.05-3.49-15.49-5.94-32.42-15.59-45.33-3.82-5.09-11.87-31.27-6.29-31.27Z"
          style="fill:#afdbf6"/>
    <path d="M546.86,299.13c4.09,0-4.71,25.25-5.69,26.95-4.23,7.36-9.92,10.87-15.55,16.56-4.8,4.87-7.08,12.16-10,18.4-1.11,2.39-11.94,28.95-12.35,28.95-2.65,0,8.14-23.22,8.29-23.53,3.32-7.19,8.08-15.29,10.38-22.75a38.78,38.78,0,0,0,1-4.91,69.71,69.71,0,0,1,6.24-19.21c2.92-5.9,9.53-20.46,17.66-20.46Z"
          style="fill:#afdbf6"/>
    <path d="M541.57,346.81c7.27,0-5.43,16.62-6.84,17.93-2.43,2.24-5.37,3.49-7.92,5.36-2.38,1.75-16.77,20.14-16.55,20.26-1-.57,12.71-21.16,12.83-21.48,2.9-7.81,7.51-22.07,18.48-22.07Z"
          style="fill:#93d2f5"/>
    <path d="M519,287.29c7.92,0-3.36,34-4.39,36.19-4.34,9.08-7.53,15.18-9.81,25-2.72,11.79-2.95,25.29-6.59,36.67-3.41,10.65-.86-5.1-.5-7.88.38-3,.78-6,1.27-9,1.43-8.86,4-17.47,5.49-26.3.8-4.73.41-9.14.35-14a65.27,65.27,0,0,1,3.68-21.48c.93-2.81,6.15-19.18,10.5-19.18Z"
          style="fill:#93d2f5"/>
    <path d="M463.19,260.84c10.69,0,17,35.39,17.3,40.42.76,11.32-2.73,22.18-1.8,33.25.55,6.49,6.7,53.61,4.57,53.61-1,0-5.08-50.21-6.61-56.06-3-11.45-11.55-20.88-14.56-33-1.17-4.71-3-38,1-36.16-.69-.47-1.46-2,.06-2Z"
          style="fill:#93d2f5"/>
    <path d="M434.53,344.3c16,1.32,17,24.84,22.56,35.74,1.06,2,4.87,6.7,2.7,8.64.2-.18-8.51-14-9.49-15-1.39-1.47-3.22-2.55-4.64-4a39.93,39.93,0,0,1-9.29-15.81c-.34-1.05-2.3-9.53-1.84-9.53Z"
          style="fill:#93d2f5"/>
    <polygon
            points="52.52 304.1 71.56 343.05 114.85 390.67 122.78 390.67 86.28 331.8 60.31 296.3 52.52 304.1"
            style="fill:#afdbf6"/>
    <polygon
            points="136.68 279.58 127.98 322.06 133.19 386.2 139.47 391.05 146.51 322.14 147.61 278.17 136.68 279.58"
            style="fill:#afdbf6"/>
    <path d="M36.09,342.94c6.45,5,17,9.7,18.51,18.48.87,5.14.54,9.6,5.17,13.11,3.22,2.43,7.24,3.78,11,5.19a144.4,144.4,0,0,1,17,7.74,24.74,24.74,0,0,0,6.72,2.3h25.24c-.27-.44-.56-.87-.85-1.3-4.1-3.88-10.44-14.59-12-16.68-1.84-2.43-3.61-4.91-5.36-7.4-1.49-2.05-3-4.12-4.38-6.23q-6.53-9.67-13.22-19.23c-3.68-5.15-7.39-10.29-11-15.51-1.84-2.69-12.19-14.66-12.37-18.12-.18-.89.24-1.47,2.11-.93.83.25,1.89,1.77,2.83,3.34,2,2.73,3.75,6.14,4,6.57,3.4,5.05,6.71,10.16,10.13,15.2,7.47,11,14.81,22,22.32,33,6,8.75,12.45,16.48,18,25.44a4.68,4.68,0,0,0,3,1.87h40.24q2.85-1.77,5.7-3.49c.73-.55,1.43-1.07,2.09-1.48q4.31-2.71,8.69-5.29c9.56-5.63,19.61-10.3,29.39-15.5l1.28-.68,1-.54c13.21-7.3,25.71-15.75,38.4-23.84,2.51-.45.62,1.79-.07,2.6l-.13.18c-1.95,2.46-6.34,4.14-9.41,5.83-2.56,1.59-5.09,3.23-7.63,4.87-1.16.76-2.32,1.52-3.5,2.27l-2.74,1.69-.37.23q-7.23,4.45-14.7,8.5l-.34.18-.45.24c-1,.51-1.93,1-2.89,1.55-10.84,5.66-21.54,11.13-32,17.24a47.57,47.57,0,0,1-7.16,4.31c-.6.38-1.21.74-1.82,1.13h55.18c4.06-1.34,7.95-5.92,9.94-9.41,1.26-2.22,1.88-5.16,3.39-7.25,2.28-3.13,6.18-3.69,9.7-4.66,7.59-2.11,15.72-5.16,18.76-13.13a23.47,23.47,0,0,0,.36-14.05,15.44,15.44,0,0,0-3.45-6.59c-.44-.51-1.76-.81-2.07-1.3s-.13-1.67-.55-2.37c-4.15-6.87-14.21-11.35-21.9-12.21-10.47-1.18-17.47,6.81-21.68,15.39-1.85,3.78-3,8.88-7.15,10.76-7.58,3.45-17.13-.09-25.1,3.22a26.71,26.71,0,0,0-13.08,11.33c-2.63,4.56-4.07,9.28-8.65,12.4-.73-7.64.19-11.83,5.7-17.37,5.12-5.14,7.17-10.4,6.81-17.62-.34-6.87-3.05-13.13-2.69-20.15a56.88,56.88,0,0,1,2.39-14.12c1.65-5.3,2.88-9.52,0-14.83-4.1-7.64-11.06-11.5-18.35-15.43-4.43-2.39-8.49-3.72-13.65-2.77,1.39-1.54-1.86-1.71-2.4-1.62-8.63,1.5-16,11.86-18.42,19.69-2.35,7.67-1.14,14.37.43,22.09,1.82,8.94-8.27,16.15-9.85,24.85-1.16,6.34.27,11.85,3.12,17.51,1.28,2.56,2.65,4.85,2.46,7.87-5.06-5-10.33-9.76-13.53-16.27-3.37-6.85-2.76-14.62-5-21.81a60.67,60.67,0,0,0-11.5-20.49,42.23,42.23,0,0,0-14-11.15c-4.45-2.13-5.64-4.2-9.39-7a22.74,22.74,0,0,0-17-3.76c-7.18,1.43-10.13,5.53-9.89,12.82.29,9.13,2,15.8-4.09,23.63C23.71,325.78,26.58,335.6,36.09,342.94Zm98.25,28.58c.15-8.38-.08-16.73.56-25.1.16-2.1.3-4.21.44-6.31,1-26.44,2.89-59.34,5.72-59.34a.69.69,0,0,1,.25,0h.07c2.24.66.74,9-.26,14.16-.34,2.23-.68,4.21-.85,5.47-.09.84-.17,1.68-.25,2.52-.85,9.24-1,18.51-1.75,27.75-1.15,13.49-1.94,26.7-2.14,40.23,0,2.39.18,17.75-1.87,17.87a.22.22,0,0,1-.17-.11c-.16.05-.33,0-.51-.21-1-1.11-.11-5.88.29-8.67.13-2.53.31-5,.4-6.52C134.29,372.71,134.33,372.12,134.34,371.52Z"
          style="fill:#93d2f5"/>
    <path d="M218.73,281.63c-4.73,0-4.51,29.48-4.54,31.8-11.57-24.11-14.73-8.39-11.3,8.36-1.16-1.5-23-28.43-30.22-28.43-6.23,0,5,32.08,6,34.38,0,0-21.08-14.06-24.46-12.48-7.72,3.39,10.18,28.16,15,33.33-29.4-17.21-36.52-5.55-12.66,10.26-33.58-16.79-2.89,10,11.81,15.78-10.47-2.64-48.21-9.2-24.77,3.77,13.71,7.58,38.11,7.05,54.11,7.71,28.68,1.17,78,6.53,104.06-3.26s20.6-20.35-4.82-11.19c17-9.61,25.79-34.74-.58-16.55,1.48-1.33,19-32.2,11.61-32.2-4.85,0-17.81,9.22-20.85,11.83.39-1.21,3.42-17.16.18-17.16-3.41,0-12.68,11.37-13.14,12,8.24-31.33.67-41.05-19.25-7.63-1.26-35.3-9.67-15.17-16.71,3.32-1.78-13.68-7.63-32.9-19.42-43.62Zm-12.14,103a103.43,103.43,0,0,1-15-3.38c4.75,1.24,11.87,2.69,15,3.38Z"
          style="fill:#afdbf6"/>
    <path d="M91.11,388.63h275c20.18-1,57-4.22,25.56-21.52-16.79-9.22-35.42-3.6-53.1-5.66-.85-30-53.13-20.94-76-10.59,1.53-14.39-17.48-20.37-31.45-20.37-14.24,0-41.19,1.77-46.6,16.4-19.21-17.28-77.71-21.21-69.67,15.06C87.3,346.13,63.07,377.26,91.11,388.63Z"
          style="fill:#dfedfa"/>
    <path d="M397.65,305.93c-11.45.3-2,22.25-1.28,25.44-9.63-29.6-28.05-15.55-20.68,9.65-20.19-36.79-35-14.64-21.27,13.85-2.62-8.23-26.1-29.33-22.69-11.17-9.54-11.14-25.86.33-15.59,12.39-24.45-7.62-11.9,22.7,2.52,26.26-30.53,2,48.6,9.63,62.92,9.53,26.25-.19,52.36-2.15,78.62-2.71,10.77-.23,20.39.91,31.34.51,24.07-.88,64.91-21.77,18.14-15.18,7.59-7.39,8.32-19.83-5.09-16.12,7.7-15.09-2.18-22.63-15.42-12.21,7-19-9.6-28.29-23-9.92,13-19.81-13.07-33.56-19.22-.59.34-21.51-27.18-44-31.33-13.81-2.14-6.61-9.12-16-18-15.92Z"
          style="fill:#93d2f5"/>
    <g style="clip-path:url(#a)">
        <g style="clip-path:url(#b)">
            <rect x="-7.41" y="378.76" width="614.81" height="27.89" style="fill:#fff"/>
        </g>
    </g>
    <rect y="385.39" width="600" height="4.47" style="fill:#93d2f5"/>
</svg>