<?xml version="1.0" encoding="utf-8"?>
<!-- Generator: Adobe Illustrator 22.0.1, SVG Export Plug-In . SVG Version: 6.00 Build 0)  -->
<svg version="1.1" xmlns="http://www.w3.org/2000/svg" xmlns:xlink="http://www.w3.org/1999/xlink" x="0px" y="0px"
	 viewBox="0 0 283.5 251.3" style="enable-background:new 0 0 283.5 251.3;" xml:space="preserve">
<style type="text/css">
	.st0{fill:#FFFFFF;}
	.st1{enable-background:new    ;}
	.st2{fill:#FFB71C;}
</style>
<g id="Ebene_2">
</g>
<g id="Ebene_1">
	<g>
		<g>
			<g id="XMLID_73_">
				<path id="XMLID_75_" class="st0" d="M183.6,127.2c-6.1-4.6-15.1-8-24.7-11.7c-11.4-4.4-24.2-9.3-33.9-16.9
					c-11-8.6-16.3-19.5-16.3-33.3c0-12.3,5.2-22.9,15-30.5c11-8.6,27.6-13.1,48.2-13.1c5.7,0,11.1,0.3,16.1,1
					c0.4,0.1,0.9-0.2,1.1-0.6c0.2-0.4,0.1-0.9-0.2-1.2C176,9.4,159.3,3.1,141.9,3.1c-18.8,0-36.5,7.2-49.8,20.4
					C78.6,36.7,71.3,54.2,71.3,72.8s7.3,36.1,20.6,49.2c13.3,13.2,31,20.4,49.8,20.4c15.2,0,29.7-4.7,41.9-13.6
					c0.3-0.2,0.4-0.5,0.4-0.8C184,127.7,183.9,127.4,183.6,127.2z"/>
				<path id="XMLID_74_" class="st0" d="M211.8,66.4c0-0.3-0.2-0.5-0.4-0.7c-14.7-12.1-26.6-17-41-17c-7.7,0-13.6,1.5-17.6,4.5
					c-3.4,2.6-5.2,6.2-5.2,10.5c0,12,14.8,17.4,31.9,23.7c8.8,3.3,17.9,6.6,26.3,11.2c0.1,0.1,0.3,0.1,0.5,0.1c0.1,0,0.2,0,0.3-0.1
					c0.3-0.1,0.5-0.3,0.6-0.6c3.2-8.1,4.8-16.6,4.8-25.4C212.1,70.7,212,68.6,211.8,66.4z"/>
			</g>
			<g id="XMLID_61_">
				<path id="XMLID_72_" class="st0" d="M79.2,175.7c-0.4-0.7,0-1.4,0.9-1.4h3.3c0.6,0,0.9,0.3,1.1,0.7l6.6,15h0.1l6.9-15
					c0.3-0.7,1-0.7,1.7-0.7h2.4c0.9,0,1.3,0.6,0.9,1.4l-10.7,23c-0.2,0.3-0.5,0.6-1,0.6H91c-0.5,0-0.9-0.3-1.1-0.6L79.2,175.7z"/>
				<path id="XMLID_71_" class="st0" d="M130.9,165.5c0-0.6,0.5-1.2,1.2-1.2h3c0.6,0,1.2,0.6,1.2,1.2v32.7c0,0.6-0.6,1.2-1.2,1.2h-3
					c-0.6,0-1.2-0.5-1.2-1.2V165.5z"/>
				<path id="XMLID_70_" class="st0" d="M66.9,173.8c-7.4,0-12.3,5.9-12.3,12.7c0,7,4.9,12.8,12.4,12.8c4.1,0,7.4-1.5,9.1-3
					c0.7-0.6,0.5-1.1,0.1-1.6l-1.4-2.2c-0.4-0.6-0.9-0.5-1.4-0.1c-1.5,1.1-3.2,2.1-6,2.1c-4.3,0-7.3-3.4-7.4-6.7h17.1
					c0.5,0,1.1-0.4,1.1-1.1c0.1-0.4,0.1-1.3,0.1-1.7C78.1,178.5,73.3,173.8,66.9,173.8z M60.1,183.8c0.4-3.1,2.7-5.6,6.6-5.6
					c3.6,0,6,2.6,6.1,5.6H60.1z"/>
				<path id="XMLID_69_" class="st0" d="M116.1,173.8c-7.4,0-12.3,5.9-12.3,12.7c0,7,4.9,12.8,12.4,12.8c4.1,0,7.4-1.5,9.1-3
					c0.7-0.6,0.5-1.1,0.1-1.6l-1.4-2.2c-0.4-0.6-0.9-0.5-1.4-0.1c-1.5,1.1-3.2,2.1-6,2.1c-4.3,0-7.3-3.4-7.4-6.7h17.1
					c0.5,0,1.1-0.4,1.1-1.1c0.1-0.4,0.1-1.3,0.1-1.7C127.4,178.5,122.5,173.8,116.1,173.8z M109.3,183.8c0.4-3.1,2.7-5.6,6.6-5.6
					c3.6,0,6,2.6,6.1,5.6H109.3z"/>
				<path id="XMLID_68_" class="st0" d="M204.6,173.8c-7.4,0-12.3,5.9-12.3,12.7c0,7,4.9,12.8,12.4,12.8c4.1,0,7.4-1.5,9.1-3
					c0.7-0.6,0.5-1.1,0.1-1.6l-1.4-2.2c-0.4-0.6-0.9-0.5-1.4-0.1c-1.5,1.1-3.2,2.1-6,2.1c-4.3,0-7.3-3.4-7.4-6.7h17.1
					c0.5,0,1.1-0.4,1.1-1.1c0.1-0.4,0.1-1.3,0.1-1.7C215.8,178.5,211,173.8,204.6,173.8z M197.8,183.8c0.4-3.1,2.7-5.6,6.6-5.6
					c3.6,0,6,2.6,6.1,5.6H197.8z"/>
				<path id="XMLID_67_" class="st0" d="M231.5,174.1c-0.1,0-0.3,0-0.4,0c-0.2,0-0.4,0-0.7,0c-1.3,0-2.5,0-3.7,0.1l0,0
					c-2.2,0.1-3.5,0.3-4.5,0.4c0,0-0.6,0.1-1.3,0.1c-0.5,0.1-0.8,0.3-1,0.5c-0.1,0.2-0.2,0.3-0.2,0.6v0.1v0.5v1.8v4.9v15.1
					c0,0.6,0.5,1.2,1.2,1.2h2.5c1,0,1.7-0.1,1.7-1.2v-15.1l0,0v-3.5c0-0.1,0.2-0.3,0.4-0.4c0.6-0.4,2.1-0.6,5-0.6c0.3,0,0.5,0,0.7,0
					c0.7,0.1,1.7,0.3,2.1,0.5c0.5,0.3,1.2,0.1,1.5-0.6l1.3-2.1C236.7,174.7,233.8,174.1,231.5,174.1z"/>
				<path id="XMLID_66_" class="st0" d="M189.3,185.6c-0.3-8.3-3.8-11.8-11.9-11.8c-3.9,0-8.5,1.2-9.2,1.4c-0.8,0.4-1.5,0.8-1.5,1.4
					v0.5v1.8v5.7v0.8v22.3c0,0.6,0.5,1.2,1.2,1.2h2.5c0.8,0,1.3-0.5,1.3-1.2v-8.8c0.8,0.2,4.6,0.5,7.8,0.4c5.7-0.2,9.6-4.3,9.9-11.2
					c0-0.9,0-2.3,0-3.1L189.3,185.6z M184.2,188.1c-0.1,4.7-1.5,6.8-5.5,7c-2,0.1-6.7-0.4-6.7-0.4c-0.2-0.1-0.3-0.1-0.3-0.3v-9.5
					v-5.4c0-0.1,0.1-0.3,0.3-0.3c0.6-0.1,2.6-0.7,5.5-0.7c4.9,0,6.6,0.7,6.8,6.8C184.2,186,184.2,187.2,184.2,188.1z"/>
				<path id="XMLID_65_" class="st0" d="M28.5,187.5c0.3,8.3,3.8,11.8,11.9,11.8c3.9,0,8.7-1.2,9.4-1.4c0.8-0.4,1.5-0.8,1.5-1.4
					v-31.1c0-0.6-0.5-1.2-1.2-1.2h-2.7c-0.8,0-1.3,0.5-1.3,1.2v9.3c-0.8-0.2-4.6-0.5-7.8-0.4c-5.7,0.2-9.6,3.8-9.9,10.7
					c0,0.9,0,2.3,0,3.1L28.5,187.5z M33.7,185c0.1-4.7,1.5-6.3,5.5-6.5c2-0.1,6.7,0.4,6.7,0.4c0.2,0.1,0.3,0.1,0.3,0.3v9v5.4
					c0,0.1-0.1,0.2-0.3,0.3c-0.8,0.2-2.6,0.7-5.5,0.7c-4.9,0-6.6-0.7-6.8-6.8C33.7,187,33.7,185.9,33.7,185z"/>
				<g id="XMLID_63_">
					<path id="XMLID_64_" class="st0" d="M247,184.1c-2.5-1.1-4.5-2-4.5-3.6c0-1.1,1.3-2.2,3.4-2.2c1.9,0,3.6,0.5,5.3,1.2
						c0.5,0.2,1.2,0.3,1.6-0.5l0.9-1.7c0.3-0.6,0.1-1.4-0.5-1.8c-1.2-0.8-3.8-1.8-7.2-1.8c-6,0-8.4,3.6-8.4,6.7c0,4,3.1,6,6.9,7.7
						c3.4,1.5,5.3,2.6,5.3,4.2c0,1.4-1.2,2.4-3.3,2.4c-2.9,0-4.7-1-6.1-1.8c-0.6-0.4-1.3-0.2-1.6,0.3l-1.1,2.3
						c-0.3,0.5,0.1,1,0.4,1.3c1.4,1,4.2,2.5,8.1,2.5c5.5,0,8.8-3.3,8.8-7.1C255,187.6,251.6,186,247,184.1z"/>
				</g>
				<path id="XMLID_62_" class="st0" d="M162.5,181.3c-0.6-1.6-1.3-2.9-2.3-4s-2.2-2-3.6-2.6c-1.4-0.6-3.4-0.9-5-0.9s-3.6,0.3-5,0.9
					c-1.4,0.6-2.6,1.5-3.6,2.6s-1.8,2.5-2.3,4c-0.6,1.6-0.8,3.3-0.8,5.2s0.3,3.7,0.8,5.2c0.6,1.6,1.3,2.9,2.3,4s2.2,2,3.6,2.6
					c1.4,0.6,3.4,0.9,5,0.9s3.6-0.3,5-0.9c1.4-0.6,2.6-1.5,3.6-2.6s1.8-2.5,2.3-4c0.6-1.6,0.8-3.3,0.8-5.2S163.1,182.9,162.5,181.3z
					 M151.4,195.1c-4.5,0-6.7-3.7-6.7-8.3s2.2-8.3,6.7-8.3s6.7,3.7,6.7,8.3C158.1,191.4,155.9,195.1,151.4,195.1z"/>
			</g>
		</g>
		<g class="st1">
			<path class="st2" d="M31.3,238.9c-0.2-0.2-0.4-0.5-0.3-0.8l0.7-1.6c0.2-0.3,0.6-0.4,1-0.2c0.9,0.5,2.1,1.3,4.1,1.3
				c1.4,0,2.2-0.6,2.2-1.6c0-1.2-1.3-1.8-3.6-2.8c-2.5-1.2-4.4-2.5-4.4-5.2c0-2.1,1.5-4.5,5.4-4.5c2.3,0,4,0.6,4.8,1.3
				c0.4,0.3,0.5,0.7,0.3,1.3l-0.5,1.2c-0.2,0.5-0.7,0.4-1,0.3c-1.2-0.5-2.2-0.8-3.6-0.8c-1.5,0-2.1,0.7-2.1,1.5c0,1,1.2,1.7,2.8,2.4
				c3,1.3,5.3,2.4,5.3,5.4c0,2.5-2.2,4.8-5.9,4.8C34.1,240.6,32.3,239.6,31.3,238.9z"/>
			<path class="st2" d="M47.4,226.8h-1.9c-0.4,0-0.7-0.4-0.7-0.7v-1.5c0-0.4,0.3-0.7,0.7-0.7h1.9v-4.6c0-0.4,0.3-0.7,0.7-0.7h2
				c0.4,0,0.7,0.3,0.7,0.7v4.6h4.3c0.4,0,0.7,0.3,0.7,0.7v1.5c0,0.4-0.3,0.7-0.7,0.7h-4.3v8.8c0,1.4,0.5,1.7,1.4,1.7
				c1,0,2-0.4,2.6-0.7c0.5-0.3,0.8,0,0.9,0.3l0.6,1.7c0.2,0.4,0,0.7-0.4,0.9c-0.6,0.4-2.6,1.2-4.6,1.2c-3.2,0-4.2-2-4.2-4.9v-8.9
				H47.4z"/>
			<path class="st2" d="M58.2,224.9c-0.2-0.5,0.1-1,0.7-1h2.3c0.2,0,0.6,0.2,0.7,0.4l3.8,11.3h0.1l4.6-11.3c0.1-0.4,0.4-0.4,0.8-0.4
				h2.2c0.6,0,0.9,0.5,0.7,1l-10,23.3c-0.1,0.2-0.3,0.5-0.6,0.5h-2.3c-0.6,0-1-0.5-0.7-1.2l3.3-8L58.2,224.9z"/>
			<path class="st2" d="M77.7,216.1c0-0.4,0.3-0.7,0.7-0.7h2c0.4,0,0.7,0.4,0.7,0.7v23.3c0,0.4-0.4,0.7-0.7,0.7h-2
				c-0.4,0-0.7-0.3-0.7-0.7V216.1z"/>
			<path class="st2" d="M93.5,223.5c4.3,0,7.5,3.1,7.5,7.5c0,0.3,0,0.8-0.1,1.2c0,0.4-0.4,0.7-0.7,0.7H88.9c0,2.2,2,4.5,4.9,4.5
				c1.9,0,3-0.6,4-1.4c0.3-0.2,0.6-0.3,0.9,0.1l0.9,1.5c0.3,0.3,0.4,0.6-0.1,1.2c-1.2,1-3.3,2-6.1,2c-5,0-8.3-3.9-8.3-8.6
				C85.3,227.4,88.5,223.5,93.5,223.5z M97.4,230.3c-0.1-2-1.7-3.8-4.1-3.8c-2.6,0-4.2,1.7-4.4,3.8H97.4z"/>
			<path class="st2" d="M112.9,226.8H111c-0.4,0-0.7-0.4-0.7-0.7v-1.5c0-0.4,0.3-0.7,0.7-0.7h1.9v-4.6c0-0.4,0.3-0.7,0.7-0.7h2
				c0.4,0,0.7,0.3,0.7,0.7v4.6h4.3c0.4,0,0.7,0.3,0.7,0.7v1.5c0,0.4-0.3,0.7-0.7,0.7h-4.3v8.8c0,1.4,0.5,1.7,1.4,1.7
				c1,0,2-0.4,2.6-0.7c0.5-0.3,0.8,0,0.9,0.3l0.6,1.7c0.2,0.4,0,0.7-0.4,0.9c-0.6,0.4-2.6,1.2-4.6,1.2c-3.2,0-4.2-2-4.2-4.9v-8.9
				H112.9z"/>
			<path class="st2" d="M124.8,217.9c0-1.4,1-2.4,2.3-2.4c1.4,0,2.4,1,2.4,2.4c0,1.4-1,2.4-2.4,2.4
				C125.8,220.3,124.8,219.3,124.8,217.9z M125.4,224.6c0-0.4,0.3-0.7,0.7-0.7h2c0.4,0,0.7,0.4,0.7,0.7v14.9c0,0.4-0.4,0.7-0.7,0.7
				h-2c-0.4,0-0.7-0.3-0.7-0.7V224.6z"/>
			<path class="st2" d="M134,216.1c0-0.4,0.3-0.7,0.7-0.7h2c0.4,0,0.7,0.4,0.7,0.7v23.3c0,0.4-0.4,0.7-0.7,0.7h-2
				c-0.4,0-0.7-0.3-0.7-0.7V216.1z"/>
			<path class="st2" d="M149.8,223.5c4.3,0,7.5,3.1,7.5,7.5c0,0.3,0,0.8-0.1,1.2c0,0.4-0.4,0.7-0.7,0.7h-11.3c0,2.2,2,4.5,4.9,4.5
				c1.9,0,3-0.6,4-1.4c0.3-0.2,0.6-0.3,0.9,0.1l0.9,1.5c0.3,0.3,0.4,0.6-0.1,1.2c-1.2,1-3.3,2-6.1,2c-5,0-8.3-3.9-8.3-8.6
				C141.7,227.4,144.9,223.5,149.8,223.5z M153.8,230.3c-0.1-2-1.7-3.8-4.1-3.8c-2.6,0-4.2,1.7-4.4,3.8H153.8z"/>
		</g>
	</g>
</g>
</svg>
