<?xml version="1.0" encoding="utf-8"?>
<!-- Generator: Adobe Illustrator 25.0.1, SVG Export Plug-In . SVG Version: 6.00 Build 0)  -->
<svg version="1.1" xmlns="http://www.w3.org/2000/svg" xmlns:xlink="http://www.w3.org/1999/xlink" x="0px" y="0px"
	 viewBox="0 0 922.8 390" style="enable-background:new 0 0 922.8 390;" xml:space="preserve">
<style type="text/css">
	.st0{fill:#FAFBFC;}
	.st1{fill:#F4F7F9;}
	.st2{fill:#FCFCFC;stroke:#EBEFF3;stroke-width:8;stroke-linejoin:round;stroke-miterlimit:10;}
	.st3{fill:#EBEFF3;}
	.st4{fill:#F5F7F9;}
	.st5{fill:#FCFCFC;}
	.st6{fill:#E8EDF7;}
	.st7{fill:#DCE4EF;}
	.st8{fill-rule:evenodd;clip-rule:evenodd;fill:#A37A66;}
	.st9{fill-rule:evenodd;clip-rule:evenodd;fill:#293446;}
	.st10{fill-rule:evenodd;clip-rule:evenodd;fill:#303F56;}
	.st11{fill:#A37A66;}
	.st12{fill:#FAFAFA;}
	.st13{fill:none;stroke:#DCE8F4;stroke-miterlimit:10;}
	.st14{fill:#303F56;}
	.st15{fill:#94B0D5;}
	.st16{fill:#293446;}
	.st17{opacity:0.1;enable-background:new    ;}
	.st18{opacity:0.5;fill:#F4F7F9;}
	.st19{fill:#FCFCFC;stroke:#EBEFF3;stroke-width:12;stroke-linecap:round;stroke-miterlimit:10;}
	.st20{opacity:0.2;fill:#EBEFF3;}
	.st21{fill:#FCFCFC;stroke:#EBEFF3;stroke-width:14;stroke-miterlimit:10;}
	.st22{fill:#FCFCFC;stroke:#EBEFF3;stroke-width:12;stroke-miterlimit:10;}
	.st23{fill:#FCFCFC;stroke:#EBEFF3;stroke-width:8;stroke-linecap:round;stroke-linejoin:round;stroke-miterlimit:10;}
	.st24{opacity:0.2;}
	.st25{fill:none;stroke:#FFFFFF;stroke-width:10;stroke-linecap:round;stroke-miterlimit:10;}
	.st26{fill:#CC9987;}
	.st27{fill:none;stroke:#E8EDF7;stroke-width:19;stroke-linecap:round;stroke-miterlimit:10;}
	.st28{fill:#765D50;}
	.st29{opacity:0.1;}
	.st30{fill:none;stroke:#000000;stroke-width:9;stroke-linecap:round;stroke-miterlimit:10;}
	.st31{display:none;opacity:0.25;}
	.st32{display:inline;}
	.st33{fill:#FF0000;}
	.st34{display:none;}
	.st35{display:inline;opacity:0.1;}
	.st36{display:inline;fill:#293446;}
	.st37{fill:#B8CAE0;}
	.st38{fill:#FFFFFF;}
	.st39{fill:#293445;}
	.st40{fill:none;stroke:#EBEFF3;stroke-width:20;stroke-linecap:round;stroke-miterlimit:10;}
	.st41{fill:none;stroke:#EBEFF3;stroke-width:20;stroke-miterlimit:10;}
	.st42{opacity:0.2;fill:#EBEFF3;enable-background:new    ;}
	.st43{fill:#DBE4EF;}
	.st44{fill:none;stroke:#E8EDF7;stroke-width:12;stroke-linecap:round;stroke-linejoin:round;stroke-miterlimit:10;}
	.st45{fill:#D8B4A4;}
	.st46{fill:#304056;}
	.st47{opacity:0.1;fill-rule:evenodd;clip-rule:evenodd;fill:#1D1D1B;}
	.st48{opacity:0.1;fill:#1D1D1B;}
</style>
<g id="Hintergrund">
</g>
<g id="Versuche_1_">
</g>
<g id="Objects" class="st34">
</g>
<g id="Farben">
</g>
<g id="aktuell">
	<g class="st34">
		<g id="Background_1_" class="st32">
			<path id="Background" class="st1" d="M-2204.9,520.8c0,0,769.7,3.9,1010.3,3.9c590.3,0,1180.6,0,1771,0c191.6,0,675.7,0,675.7,0
				s5.1-53.3,2.6-67c-11.2-60.1-58-111.3-120.4-152.1c-79.3-51.8-187-76.3-250.2-140.4C827.3,107.7,759,76.8,739.7,9.8
				C704.3-112.9,613.5-261,410.8-277.8c-192.1-15.9-336.5,20.7-521.2,48.6c-167.8,25.4-344.9,53.8-508.1,4.7
				C-825.7-287-1035-418.1-1268.1-386.7c-121.8,16.4-349.1,129.1-457.3,171.5c-64.2,25.2-77.5,53.6-100.7,101.5
				c-83.8,173.3-226.3,223.9-338.1,385c-38.3,55.2-61.1,116.5-56.7,178.2C-2220.4,456.3-2204.9,520.8-2204.9,520.8z"/>
			<g id="Window_3">
				<path class="st5" d="M958.5-220.5v636.6H301.8v-636.6c0-181.3,147-328.4,328.4-328.4C811.5-548.9,958.5-401.9,958.5-220.5z"/>
				<path class="st20" d="M301.8,58.2v357.8h656.7v-636.6c0-28.4-3.6-56-10.4-82.2c-5.7,13.7-11.9-21.3-18.8-4.8
					C821.2-46.1,389.3,42.8,301.8,58.2z"/>
				<path class="st3" d="M947-354.4c-17.3-40.9-42.1-77.7-73.7-109.3C841.7-495.2,805-520,764-537.3c-42.4-17.9-87.4-27-133.8-27
					c-46.4,0-91.4,9.1-133.8,27c-40.9,17.3-77.7,42.1-109.3,73.7c-31.6,31.6-56.4,68.3-73.7,109.3c-17.9,42.4-27,87.4-27,133.8
					v636.6v15.5h15.5h656.7H974v-15.5v-636.6C974-266.9,964.9-312,947-354.4z M834.6-425c26.6,26.6,47.4,57.5,62,91.9
					c15.1,35.6,22.7,73.5,22.7,112.5v18.4H637.7v-307.4c36.4,0.9,71.7,8.5,105,22.6C777.1-472.4,808.1-451.5,834.6-425z
					 M637.7-186.7h281.6V99.8H637.7V-186.7z M622.2,99.8H341v-286.5h281.2V99.8z M363.7-333.1c14.6-34.4,35.4-65.4,62-91.9
					c26.6-26.6,57.5-47.4,91.9-62c33.2-14,68.3-21.6,104.6-22.6v307.4H341v-18.4C341-259.6,348.6-297.4,363.7-333.1z M341,115.3
					h281.2v261.6H341V115.3z M637.7,376.9V115.3h281.6v261.6H637.7z"/>
			</g>
			<g id="Counter">
				<path class="st5" d="M74.3,75c1.6,0,2.8-1.3,2.8-2.8V44.3c0-1.6-1.3-2.8-2.8-2.8h-82c-1.6,0-2.8,1.3-2.8,2.8v27.8
					c0,1.6,1.3,2.8,2.8,2.8H20v24.9H-29c-1.1,0-2.1-0.9-2.1-2V43.3c0-1.1-0.9-2-2.1-2h-94.4c-1.1,0-2.1,0.9-2.1,2v75h0V192
					c0,1.1,0.9,2,2.1,2H75.1c1.1,0,2.1-0.9,2.1-2v-90.1c0-1.1-0.9-2-2.1-2H46.7V75H74.3z"/>
				<g>
					<g>
						<g>
							<path class="st5" d="M244.2,194.2h-77.9l4.3-93c0-0.8,0.8-1.4,1.6-1.4h66.1c0.9,0,1.6,0.6,1.6,1.4L244.2,194.2z"/>
							<path class="st1" d="M205.2,131.9c9.6,0,17.5-9.7,17.5-21.6c0-1.1-0.9-2-2-2s-2,0.9-2,2c0,9.8-6,17.7-13.4,17.7
								c-7.4,0-13.4-7.9-13.4-17.7c0-1.1-0.9-2-2-2s-2,0.9-2,2C187.8,122.2,195.6,131.9,205.2,131.9z"/>
						</g>
					</g>
				</g>
				<g>
					<g>
						<g>
							<path class="st5" d="M318.8,194.2H213.5l5.8-125.8c0-1.1,1-1.9,2.2-1.9h89.4c1.2,0,2.1,0.8,2.2,1.9L318.8,194.2z"/>
							<path class="st1" d="M266.2,110c13,0,23.6-13.1,23.6-29.2c0-1.5-1.2-2.7-2.7-2.7c-1.5,0-2.7,1.2-2.7,2.7
								c0,13.2-8.1,23.9-18.2,23.9c-10,0-18.2-10.7-18.2-23.9c0-1.5-1.2-2.7-2.7-2.7s-2.7,1.2-2.7,2.7
								C242.6,96.9,253.2,110,266.2,110z"/>
						</g>
					</g>
				</g>
				<path class="st3" d="M101.9,431h-259.2c-2.2,0-4-1.8-4-4V130.7c0-2.2,1.8-4,4-4h259.2c2.2,0,4,1.8,4,4V427
					C105.9,429.2,104.1,431,101.9,431z"/>
				<path class="st3" d="M459.1,192.4h-616.5c-2.2,0-4,1.8-4,4v281.2c0,2.2,1.8,4,4,4h27.3v39.2c0,2.2,1.8,4,4,4h554.6
					c2.2,0,4-1.8,4-4v-39.2h26.6c2.2,0,4-1.8,4-4V196.4C463.1,194.2,461.4,192.4,459.1,192.4z"/>
				<path class="st5" d="M427.3,307.7h-552.1c-2.2,0-4-1.8-4-4v-12.2c0-2.2,1.8-4,4-4h552.1c2.2,0,4,1.8,4,4v12.2
					C431.3,305.9,429.5,307.7,427.3,307.7z"/>
			</g>
		</g>
		<g id="Foreground" class="st32">
		</g>
	</g>
	<g id="FINAL_1_">
		<path id="Wave_1_" class="st1" d="M922.8,279c0,0-58.3-97.1-181.6-108.4c-131.2-12-116.1-50-182.7-99.5
			c-61.2-39.7-140.7-48-235,17.2c-89.3,61.7-71,81.3-161.3,109.8c-78.9,24.9-112.4,60-130,81.5L922.8,279z"/>
		<g id="Background_5_">
			<g id="Tree_small_1_">
				<path class="st3" d="M747.7,183.7c1.6-10.9,0.1-21.9-4.4-31.9c-2.2-4.1-3.4-9.2-3-15.2c0.8-5.3,2.7-9.7,5.4-13.1
					c6.7-9.8,10.4-21.4,10.7-33.3l0.1,0c0-0.7,0-1.5,0.1-2.3c4.3-28.5,41.1-28.9,49-5.9l0,0c2.4,6.5,6.6,12.1,12,16.4
					c9.5,5.9,16.2,16.8,15.2,32.3c-0.9,5.9-2.8,11-5.5,15.1c-7.4,12.5-11.1,27-10.4,41.6l-0.1,0c0.1,1.8,0.1,3.6,0,5.6
					c-6.9,45.2-72.3,38.8-69.1-7.9C747.6,184.5,747.6,184,747.7,183.7L747.7,183.7z"/>
				<path class="st5" d="M783.6,156.4l7.5,121.2h-8.3h-6.1l5.5-121.2C782.1,155.6,783.5,155.6,783.6,156.4z"/>
			</g>
			<g id="Tree_big_1_">
				<path class="st3" d="M684.8,147.8c3.5-16.9,1.9-34.5-4.8-50.4c-1.9-4.3-2.9-8.9-2.9-13.9c0-7,2.1-13.6,5.7-19.1
					c5-7.7,7.5-16.7,7.3-25.9l0,0c0-0.4,0-0.7,0-1.1c0-20.6,17-37.4,38-37.4c21,0,38,16.7,38,37.4c0,0.2,0,0.3,0,0.5l0,0
					c-0.1,9.8,2.7,19.4,8.2,27.5c2.8,4.1,4.5,9.1,4.5,14.5c0,2.9-0.5,5.6-1.4,8.2c-0.7,2.1-1.3,4.3-1.8,6.5
					c-1.3,6.6-1.2,13.3,0.5,19.9c0.8,2.7,1.2,5.5,1.2,8.4c0,3-0.4,5.8-1.2,8.5c-1.1,4.1-1.3,8.4-0.5,12.6c0.4,1.6,0.9,3.3,1.3,4.9
					c0.9,2.8,1.4,5.8,1.4,8.9c0,10.6-5.7,19.9-14.2,25.2c-4,2.5-7.1,6.1-9.1,10.3c-4.7,11-15.8,18.8-28.7,18.8
					c-16.5,0-30-12.6-31-28.6l0,0c-0.3-5-2.2-9.8-5.3-13.7c-3.6-4.5-5.7-10.1-5.7-16.3C684.2,151.5,684.4,149.6,684.8,147.8z"/>
				<path class="st5" d="M727.7,105.5l7.5,172.2h-8.3h-6.1l5.5-172.1C726.3,104.3,727.6,104.3,727.7,105.5z"/>
			</g>
			<path id="Bush_3_" class="st3" d="M699.6,277c1-6.6,6.8-23.4,38.5-14.9c1.1,0.3,2.3,0.1,3.2-0.4c6.7-4.2,35.8-20.6,57-4.7
				c0.9,0.6,2.2,0.8,3.3,0.6c10.5-2.7,59.4-13.6,48.3,20.3c-0.3,1-1.6,1.8-3.1,1.8H702.7C700.8,279.5,699.4,278.3,699.6,277z"/>
			<g id="Store_1_">
				<path id="Store_front_1_" class="st3" d="M620.2,155.2h-23.8c-0.8,0-1.5-0.7-1.5-1.5v-120c0-2.8-2.3-5-5-5h-306
					c-2.8,0-5,2.3-5,5v48.5c0,0.8-0.7,1.5-1.5,1.5h-60.6c-41.7,0-75.4,33.8-75.4,75.4v120.3h137.5h182.2h42.7h91.1h46.2V176.2
					C641.1,164.6,631.7,155.2,620.2,155.2z"/>
				<g id="Windows_1_">
					<path id="Window_2_4_" class="st5" d="M567.3,250.1H447v-84.8c0-33.2,26.9-60.1,60.1-60.1h0c33.2,0,60.1,26.9,60.1,60.1V250.1z
						"/>
					<path id="Window_2_Shadow_1_" class="st20" d="M567.3,249.6v-88c0-7.6-1.5-14.8-4.2-21.4c0,0,0,0,0,0
						c-13.7,11.4-59.6,46-116,51.4v58.1c0.1,0.3,0.3,0.4,0.6,0.4h119C566.9,250.1,567.2,249.9,567.3,249.6z"/>
					<path id="Window_2_struts_1_" class="st3" d="M566.9,155.2h-58.2v-50.1h-3.1v50.1h-58.2c-0.1,1-0.2,2.1-0.3,3.1h58.5v91.7h3.1
						v-91.7h58.5C567.1,157.3,567,156.3,566.9,155.2z"/>
					<path id="Window_1_2_" class="st5" d="M422.5,250.1H302.3v-84.8c0-33.2,26.9-60.1,60.1-60.1h0c33.2,0,60.1,26.9,60.1,60.1
						V250.1z"/>
					<path id="Window_1_shadow_1_" class="st20" d="M422.5,249.4v-87.3c0-1.3,0-2.6-0.1-3.9c-0.4-6.3-1.8-12.3-4.1-17.9
						c-13.7,11.4-59.8,48.6-116.1,54v55.2c0,0.3,0.3,0.6,0.7,0.6h118.9C422.2,250.1,422.5,249.8,422.5,249.4z"/>
					<path id="Window_1_struts_1_" class="st3" d="M422.2,155.2H364v-50.1h-3.1v50.1h-58.2c-0.1,1-0.2,2.1-0.3,3.1h58.5v91.7h3.1
						v-91.7h58.5C422.4,157.3,422.3,156.3,422.2,155.2z"/>
				</g>
				<g id="Store-Name_1_">
					<path id="_x35__2_" class="st5" d="M532.9,83.8c-1.2,0-2.1-1-2.1-2.2V49.3H520c-1.2,0-2.1-1-2.1-2.2c0-1.2,1-2.2,2.1-2.2h12.9
						c1.2,0,2.1,1,2.1,2.2v34.4C535,82.8,534,83.8,532.9,83.8z"/>
					<path id="_x34__2_" class="st5" d="M510.7,83.8c-0.3,0-0.5-0.1-0.8-0.2L491.3,76c-0.8-0.3-1.3-1.1-1.3-2V47.2
						c0-1.2,1-2.2,2.1-2.2c1.2,0,2.1,1,2.1,2.2v25.4l17.3,7.1c1.1,0.4,1.6,1.7,1.2,2.8C512.4,83.3,511.6,83.8,510.7,83.8z"/>
					<path id="_x33__2_" class="st5" d="M456.8,83.8c-3.2,0-6.4-0.9-9.2-2.7c-6.8-4.3-8.9-13.3-4.7-20.2c3.5-5.7,10.9-7.5,16.6-3.9
						c4.7,3,6.2,9.2,3.3,14c-0.6,1-1.9,1.3-2.9,0.7c-1-0.6-1.3-2-0.7-3c1.7-2.8,0.8-6.4-1.9-8.1c-1.8-1.1-3.9-1.4-5.9-1
						c-2,0.5-3.7,1.7-4.8,3.5c-1.4,2.4-1.9,5.1-1.3,7.8c0.6,2.7,2.3,5,4.6,6.4c3,1.9,6.6,2.5,10.1,1.7c3.5-0.8,6.4-3,8.3-6
						c5-8.2,2.5-18.9-5.6-24c-1-0.6-1.3-2-0.7-3c0.6-1,1.9-1.3,2.9-0.7c10.1,6.3,13.2,19.7,7,29.9c-2.5,4-6.4,6.9-10.9,8
						C459.5,83.6,458.1,83.8,456.8,83.8z"/>
					<path id="_x32__2_" class="st5" d="M413.9,83.8h-14.2c-1.2,0-2.1-1-2.1-2.2s1-2.2,2.1-2.2h12.1V47c0-1.2,1-2.2,2.1-2.2h22.8
						c1.2,0,2.1,1,2.1,2.2s-1,2.2-2.1,2.2h-20.6v32.4C416.1,82.8,415.1,83.8,413.9,83.8z"/>
					<path id="_x31__2_" class="st5" d="M385.4,83.8c-1.2,0-2.1-1-2.1-2.2V61.7c0-6.9-5.5-12.5-12.3-12.5c-6.8,0-12.3,5.6-12.3,12.5
						v19.8c0,1.2-1,2.2-2.1,2.2h-16c-1.2,0-2.1-1-2.1-2.2c0-1.2,1-2.2,2.1-2.2h13.9V61.7c0-9.3,7.4-16.8,16.6-16.8
						c9.1,0,16.6,7.5,16.6,16.8v19.9C387.5,82.8,386.6,83.8,385.4,83.8z"/>
				</g>
				<g id="Door_2_">
					<path id="Door_3_" class="st5" d="M277.6,279.5H163.9V162.9c0-31.4,25.4-56.8,56.8-56.8h0c31.4,0,56.8,25.4,56.8,56.8V279.5z"
						/>
					<path id="Door_shadow_1_" class="st20" d="M278.1,169.4c-7.4,8.5-58.8,65.8-114.4,77v33.1h114.4V169.4z"/>
					<path id="Door_struts_1_" class="st3" d="M277.4,155.8h-55.1V106h-3.1v49.8h-55.1c-0.1,1-0.1,2.1-0.2,3.1h55.3v120.6h3.1V158.9
						h55.3C277.5,157.9,277.5,156.8,277.4,155.8z"/>
					<g id="Doorknob_1_">
						<ellipse id="right_1_" class="st3" cx="228.8" cy="214" rx="2.3" ry="7.4"/>
						<ellipse id="left_1_" class="st3" cx="212.6" cy="214" rx="2.3" ry="7.4"/>
					</g>
				</g>
			</g>
			<g id="Lantern_1_">
				<g>
					<polygon class="st5" points="125.8,87.4 111.2,87.4 96.3,56.7 140.7,56.7 					"/>
					<path class="st3" d="M142.7,53.2L142.7,53.2c-0.2,0-0.3-0.1-0.4-0.2c-0.2-2.7-2.8-4.9-6.1-4.9l-6.4-2.4
						c-7.5-1.8-15.4-1.8-22.9,0l-6.3,2.4c-3.2,0-5.9,2.2-6.1,4.9c0,0.1-0.1,0.2-0.3,0.2h-0.1c-0.9,0-1.7,0.8-1.7,1.7V55
						c0,0.9,0.8,1.7,1.7,1.7h1.9c0.1,0,0.2,0.1,0.2,0.1l14.8,30.5h0.1v8.1c0,1,0.6,1.9,1.5,2.2c0.1,0,0.2,0.1,0.2,0.2l0,2.5
						c0,1.7,1.1,3.1,2.6,3.6c0.1,0,0.2,0.1,0.2,0.2v102.1c0,0.3-0.2,0.5-0.5,0.5h-3c-0.4,0-0.8,0.4-0.8,0.8v57.6
						c0,1.6-1.3,2.8-2.8,2.8h-3c-0.7,0-1.3,0.6-1.3,1.3v10.2h7.1h14.2h7.1v-10.2c0-0.7-0.6-1.3-1.3-1.3h-3c-1.6,0-2.8-1.3-2.8-2.8
						v-57.6c0-0.4-0.4-0.8-0.8-0.8h-3c-0.3,0-0.5-0.2-0.5-0.5v-102c0-0.1,0.1-0.2,0.2-0.2c1.5-0.4,2.6-1.4,2.6-3.1l0-3.2
						c0-0.1,0.1-0.2,0.2-0.2c0.9-0.3,1.5-1.2,1.5-2.2v-8.1h0.1l14.8-30.5c0-0.1,0.1-0.1,0.2-0.1h1.9c0.9,0,1.7-0.8,1.7-1.7v-0.2
						C144.4,53.9,143.6,53.2,142.7,53.2z M123.3,83.3h-9.5l-10.9-22.5h31.3L123.3,83.3z"/>
				</g>
			</g>
			<path id="Bush_2_" class="st3" d="M141.4,255.6c-5.8-0.4-11.5,1-14.3,2c-0.8,0.3-1.6,0-2.3-0.5c-19.6-14.7-33.7,1.5-39.1,4.7
				c-0.7,0.4-1.4,0.5-2.2,0.4c-22.4-3.8-26.6,13.4-26.4,14.9c0.2,1.3,0.9,2.5,2.2,2.5h82.1V255.6z"/>
		</g>
		<g id="Sign_1_">
			<ellipse class="st1" cx="824.7" cy="375" rx="66.9" ry="2.6"/>
			<path class="st7" d="M858.1,347.1h20.5c0.3,0,0.5,0.3,0.5,0.6l-4.7,25.9c0,0.2-0.2,0.4-0.5,0.4h-11.1c-0.2,0-0.4-0.2-0.5-0.4
				l-4.7-25.9C857.6,347.4,857.8,347.1,858.1,347.1z"/>
			<path class="st4" d="M870.2,190.6h-92.7c-0.4,0-0.7,0.3-0.7,0.7l-2.5,156.8c0,0.4,0.3,0.8,0.7,0.8h97.6c0.4,0,0.8-0.3,0.7-0.8
				l-2.5-156.8C870.9,190.9,870.6,190.6,870.2,190.6z"/>
			<path class="st7" d="M881.1,181.1c0-0.4-0.3-0.8-0.8-0.8h-113c-0.4,0-0.8,0.3-0.8,0.8l-2.5,177.3c0,0.4,0.3,0.8,0.8,0.8h118.1
				c0.4,0,0.8-0.4,0.8-0.8L881.1,181.1z M872.7,348.9H775c-0.4,0-0.8-0.3-0.7-0.8l2.5-156.8c0-0.4,0.3-0.7,0.7-0.7h92.7
				c0.4,0,0.7,0.3,0.7,0.7l2.5,156.8C873.4,348.5,873.1,348.9,872.7,348.9z"/>
			<g>
				<path class="st6" d="M776.5,359.2l2.8,15.5c0,0.2,0.2,0.4,0.5,0.4h11.1c0.2,0,0.4-0.2,0.5-0.4l2.8-15.5H776.5z"/>
			</g>
			<g>
				<path class="st6" d="M853.5,359.2l2.8,15.5c0,0.2,0.2,0.4,0.5,0.4h11.1c0.2,0,0.4-0.2,0.5-0.4l2.8-15.5H853.5z"/>
			</g>
			<g>
				<path class="st7" d="M871.1,359.2l-2.7,15.2h5.6c0.2,0,0.4-0.2,0.5-0.4l2.6-14.7H871.1z"/>
			</g>
			<g>
				<path class="st7" d="M794.1,359.2l-2.7,15.2h5.8c0.2,0,0.4-0.2,0.5-0.4l2.6-14.7H794.1z"/>
			</g>
			<g>
				<path class="st6" d="M808.1,266.3c-7,0-12.7-5.7-12.7-12.7c0-7,5.7-12.7,12.7-12.7c7,0,12.7,5.7,12.7,12.7
					C820.8,260.6,815.1,266.3,808.1,266.3z M808.1,245.7c-4.3,0-7.9,3.5-7.9,7.9c0,4.3,3.5,7.9,7.9,7.9c4.3,0,7.9-3.5,7.9-7.9
					C815.9,249.3,812.4,245.7,808.1,245.7z"/>
				<path class="st6" d="M839.7,297.6c-7,0-12.7-5.7-12.7-12.7c0-7,5.7-12.7,12.7-12.7c7,0,12.7,5.7,12.7,12.7
					C852.4,291.9,846.7,297.6,839.7,297.6z M839.7,277c-4.3,0-7.9,3.5-7.9,7.9c0,4.3,3.5,7.9,7.9,7.9c4.3,0,7.9-3.5,7.9-7.9
					C847.5,280.5,844,277,839.7,277z"/>
				<path class="st6" d="M807.5,301.6c-0.4,0-0.8-0.1-1.2-0.3c-1.2-0.7-1.6-2.2-0.9-3.3l33.6-58.8c0.7-1.2,2.2-1.6,3.3-0.9
					c1.2,0.7,1.6,2.2,0.9,3.3l-33.6,58.8C809.1,301.1,808.3,301.6,807.5,301.6z"/>
			</g>
		</g>
		<g id="Boxes_1_">
			<g id="Boxes_7_">
				<ellipse class="st1" cx="603.7" cy="375" rx="102.3" ry="5"/>
				<path class="st7" d="M694,237.7H586.1c-1.1,0-2,0.9-2,2v133.4c0,1.1,0.9,2,2,2H694c1.1,0,2-0.9,2-2V239.7
					C696,238.6,695.1,237.7,694,237.7z"/>
				
					<rect x="663.5" y="250.2" transform="matrix(-1 -5.793289e-11 5.793289e-11 -1 1351.9668 510.1004)" class="st6" width="24.9" height="9.7"/>
				<path class="st6" d="M655.4,320l-8.4-32.9c-0.1-0.3-0.3-0.5-0.6-0.5H504.1c-0.3,0-0.5,0.2-0.6,0.5l-8.4,32.9
					c-0.2,0.6,0.3,1.2,0.9,1.2h10.4v53.4c0,0.3,0.2,0.5,0.5,0.5h136.5c0.3,0,0.5-0.2,0.5-0.5v-53.4h10.6
					C655.1,321.2,655.5,320.6,655.4,320z"/>
				<path class="st4" d="M623.6,286.6h13.7c-0.7-7.1-4.3-9.9-11.5-12.4c-1.7-0.6-12.6-2.8-22.7-2.1c-18.2,1.3-28.9,4.1-46.4,0
					c-2.3-0.6-4.8-0.9-7.4-0.9c-3.9,0-7.6,0.7-10.9,2c-4.8,1.8-10.1,2.6-15.4,2.3l0,0c-0.4,0-0.7,0-1.1,0c-6.5,0-11.4,5.8-12.1,11.1
					h70.2c5.1,1.9,10.9,8,11.3,17.5c0.4,10.3,3,14.1,9.8,22.2c6.8,8,5.1,17.7,5.1,24.3c0,6.6,5.1,13.5,11.7,3
					c6.6-10.5,5.8-13.4,4.1-23.1c-1.7-9.7,4.7-22.2,5.2-25.7c0.5-3.5,0.3-6.4-1.8-11.3C624.3,290.5,623.8,288.1,623.6,286.6z"/>
				
					<rect x="513.8" y="348.9" transform="matrix(-1 -1.925006e-11 1.925006e-11 -1 1051.1864 707.8665)" class="st7" width="23.6" height="10.1"/>
			</g>
		</g>
		<g id="Bushes_1_">
			<ellipse class="st1" cx="133" cy="375" rx="133" ry="3.7"/>
			<path class="st7" d="M53.4,370.5c1.4-12.1,9.3-42.7,52.7-27.2c1.5,0.5,3.2,0.3,4.4-0.7c9.1-7.6,49-37.5,77.9-8.6
				c1.2,1.2,3,1.5,4.5,1c14.4-4.9,71.1-11.3,66,36.9c-0.2,1.9-2.2,3.2-4.2,3.2h-197C55.1,375.1,53.1,372.9,53.4,370.5z"/>
			<path class="st6" d="M197,370.5c-1.2-12.1-18.3-46.6-61.5-27.2c-1.2,0.6-2.7,0.3-3.7-0.7c-7.7-7.6-40.3-32.9-66.1-8.6
				c-1.1,1.1-2.5,1.5-3.9,1c-12.2-4.9-60.5-5.3-56,36.9c0.2,1.9,1.9,3.2,3.6,3.2h183.9C195.6,375.1,197.3,372.9,197,370.5z"/>
		</g>
		<g id="Human_3_">
			<ellipse id="Shadow_Human_1_" class="st1" cx="376.4" cy="385.7" rx="75.4" ry="4.3"/>
			<ellipse id="Shadow_coupon_1_" class="st1" cx="498.4" cy="384.8" rx="21.3" ry="2.2"/>
			<path id="Body_1_" class="st26" d="M494.9,182.6c-2.5-2.3-9.3-3.5-9.3-3.5s-35.3-23.2-37.8-23.9c-2.4-0.8-23.1-26.7-29.6-31.5
				c-6.5-4.8-17.2-11.3-15.9-23.4c1.3-12.1,8-12.7,12.8-22.5c5-10,5.9-45.2-16.4-42.8c-22.3,2.4-25.4,26.3-25,33.5
				c0.1,1.7,0.4,3.5,0.9,5.2c0,0.2,0.2,0.3,0.3,0.4c1.6,0.7,4.6,2.1,4.8,2.1c0.2,0-0.4,0.6-1,1.2c-0.3,0.3-1.1,0.6-1.8,0.8
				c-0.3,0.1-0.5,0.5-0.3,0.8c1.8,3.5,4.1,6.2,6.6,7c4.8,1.4,5.4,3.6,2,9.1c-3.4,5.5-8.5,5.5-11.6,5.9l0,0c-7-2.2-20,1.7-25.6,4
				c-0.7,0.3-3.7,1.2-3.3,0.6c1.2-1.9,2.7-4.4,4.8-7.1c0.7-0.9,6.5-9.3,8.5-12.3c0.4-0.6,1-1,1.7-1.2c2.8-0.7,9.8-2.2,12.2-0.9
				c0.5,0.2,1-0.1,1-0.6c0-0.4-0.2-1.3-1-2.1c-1.9-2.1-6.2-0.2-4.8-3.5c1.7-4.1,4.6-7.4,3.4-9.9c-1.3-3-5.3-2.7-9.4,1.4c0,0,0,0,0,0
				c-1,1-1.9,1.8-3.1,3c-1.2,1.2-2.9,3.3-3.9,5.4c-0.2,0.4-0.4,0.8-0.8,1c-4.3,3.1-31.5,23.7-37.7,42.5c-1.3,4,1.2,8.8,5.2,10.1
				c7.4,2.4,22.2-2.4,38.7-3.5c-7,15.5-9.9,41.7-9.4,67.5l70.3-0.3c-3.2-8.9-14.3-52.3-14.3-52.3s11.8,16.9,22.4,20.6
				c10.5,3.7,13.1,8.6,17.7,12.3s12.4,7.6,33.9,9.6c10,7.9,15.5,10.3,19.1,6.2C503,187.3,497.5,185,494.9,182.6z"/>
			<g id="Leg_back_1_">
				<path id="Leg_3_" class="st26" d="M394.4,217c-20.5,1.8-39.2-1.2-45.5-2.5l-0.6,68.6c0,1.4,0,2.7,0.2,4.1
					c0.3,3.4,1.2,6.7,2.5,9.8l26.5,62.3c0.7,1.7,0.6,3.7-0.5,5.2c-5.9,8.6-22.2,12.8-25,13.4c-3.1,0.7-1.3,8.1,11.4,5.2
					c12.7-2.9,18.3,0.7,25.3-0.1c7.1-0.8,8-9.5,7.1-12c-0.9-2.5-1.9-9.3-1.9-9.3s-3.5-28.2-5.6-43c-1.6-11.1-7.4-19.1-9.4-24.1
					c-0.8-2.1-0.8-4.4,0.1-6.4c3.1-6.8,11.4-22.5,27.4-36.8c19-17,21.6-40.6,22-45.1C424.5,210.1,414,215.3,394.4,217z"/>
				<path id="Shadow_Leg_1_" class="st29" d="M394.4,365.1c-0.3-1.9-0.5-3.5-0.5-3.5s-3.5-28.2-5.6-43c-1.1-7.9-4.4-14.2-6.9-19l0,0
					c-0.3-0.5-0.5-1-0.8-1.5c-11.8-2.8-26.2-7.5-31.9-9.5c0,0.3,0.1,0.7,0.2,1c0,0.1,0,0.2,0.1,0.3c0,0.3,0.1,0.5,0.2,0.8
					c0,0.1,0.1,0.3,0.1,0.4c0.1,0.3,0.1,0.6,0.2,0.9c0,0.2,0.1,0.4,0.1,0.5c0,0.2,0.1,0.3,0.1,0.5c0.1,0.2,0.1,0.4,0.2,0.6
					c0,0,0,0,0,0c5,1.5,14.4,4.3,23.2,6.6c2.1,0.6,4.2,1.5,5.8,3c2.5,2.4,4.2,6.1,5.6,11.5c1.6,6.5,4.9,45.2,4.6,46
					c0,0,0.2,3.5-1.5,5.4c-1.7,1.8,6.8-1,6.8-1C394.3,365.1,394.4,365.1,394.4,365.1z"/>
				<path id="Shoe_3_" class="st39" d="M394.6,366.8c0.5-0.3,1.3,0,1.4,0.6c0.5,2.6,1.5,8.6,0.9,13.1c-0.9,5.9-2.6,5.8-3.8,5.8
					h-39.3c0,0,0,0,0,0c-0.9-0.2-3.2-0.4-5.3-3.4c-2.3-3.4,0.9-5.3,2.3-5.6c1.1-0.3,3.1-0.4,4.4-0.5c0.3,0,0.6-0.1,1-0.2
					c3.8-1.2,13.6-5.3,18.5-12c0,0,1.7-2.6,4.4,0.2C381.7,367.3,386.4,371.7,394.6,366.8z"/>
				<path id="Pants_3_" class="st39" d="M428.8,205.9c-17,16-69.1,11.9-81.2,8.2c-2.5,35.9-2.8,72.8-1.1,73.7
					c1.3,0.2,36.7,13.4,36,9.2c35.7-65.6,46.9-62.9,46.5-91.3C428.9,205.8,428.8,205.9,428.8,205.9z"/>
			</g>
			<g id="Leg_front_1_">
				<path id="Leg_2_" class="st26" d="M425,208.9c-5.3,3.3-15.1,6.8-30.6,8.1c-18.3,1.6-35.2-0.6-43.1-2
					c5.8,30.9,34.7,77.7,34.7,77.7l5.2,70.3c-3.6,10.5-21.7,15.9-24.7,16.6s-1.2,8.2,11.4,5.1c12.7-3.1,18.7,0.5,25.8-0.4
					c7.1-0.9,7.9-9.6,7-12.1c-0.6-1.6-1.4-4.8-1.8-6.9c-0.3-1.4-0.4-2.8-0.2-4.2c0.6-5.1,2.4-19.2,5.7-38
					c4.2-23.9-3.1-40.7-3.1-40.7c0.5-8.2,7.4-44.3,10.8-54.4C423.8,222.6,424.6,215,425,208.9z"/>
				<path id="Pants_2_" class="st14" d="M394.4,217c-18.4,1.6-35.4-0.6-43.2-2c2.3,11.6,7,30,16,48.9c12.6,26.5,15,36.9,16,40.2
					c0.1,0.5,1.4,1.4,1.9,1.3c-0.3-0.2,16.8-3.6,24.5-5.9l5.9-1.8c0.4-0.1,0.8-0.5,0.8-0.9c0.3-3.3,1-18.7,1.4-34.5
					c0.3-11.8,2.7-23.4,7.3-34.3c3.7-8.8,4.3-17.2,4.1-22.4C425.6,209.5,415.1,215.2,394.4,217z"/>
				<path id="Shadow_Pants_1_" class="st29" d="M409.5,299.5c-6,1.8-17.7,4.3-22.5,5.3l0.3,4.1c4.3-1,19.1-4,28-5.4
					c-0.1-2.2-0.2-4-0.4-5.6L409.5,299.5z"/>
				<path id="Shadow_shirt_1_" class="st29" d="M394.4,217c-18.4,1.6-35.4-0.6-43.2-2c0.3,1.5,0.6,3.1,1,4.8
					c8.6,0.7,21.7,1.3,38.8,0.1c23.2-1.6,33.9-6.9,38-9.7c0.1-1.7,0.1-3.2,0.1-4.5C425.6,209.5,415.1,215.2,394.4,217z"/>
				<path id="Shoe_2_" class="st14" d="M408.8,366.3c0.5-0.3,1.2,0,1.4,0.6c0.5,2.6,1.6,8.6,1,13.1c-0.8,5.9-2.5,6.2-3.7,6.2
					l-39.2,0c0,0,0,0,0,0c-0.9-0.2-3.2-0.3-5.3-3.4c-2.3-3.3,0.8-5.3,2.3-5.6c1.1-0.3,3.1-0.4,4.4-0.5c0.3,0,0.6-0.1,0.9-0.2
					c2.4-0.8,12.8-4.5,18.4-12.2c0,0,1.6-2.6,4.4,0.2C396,367,400.7,371.4,408.8,366.3z"/>
			</g>
			<g id="Shirt_2_">
				<path id="Shirt_3_" class="st38" d="M418.3,123.7c-13.2-9.7-15-16.5-15.2-18.4c0-0.2-0.3-0.3-0.5-0.2
					c-20.9,16.9-27.1,2.3-28.3-3.2c-0.1-0.6-0.3-1.1-0.6-1.6c0,0,0,0,0,0c-5,3.8-16.2,23.9-16.4,24.3
					c-12.4,22.7-12.1,71.4-10.7,85.2c0.2,1.8-0.1,4.2,1.7,4.6c5.5,1.2,24.9,4.5,46.2,2.6c23.6-2,33.9-9.1,35.5-12.7
					c0.4-1-3.4-14.1-3.7-15.2c-4.2-14.8-13.2-27.4-14.3-31.6c-0.1-0.5,0.5-0.8,0.8-0.4c3.7,4.2,10.2,8.1,10.2,8.1
					c1.4-0.9,3-5,3-12.7c0-7.7,5.2-14,5.7-14.9C432.1,136.8,433.9,135.2,418.3,123.7z"/>
				<path id="Shadow_13_" class="st29" d="M411.9,157.5c-0.1-0.5,0.5-0.8,0.8-0.4c0,0-1.3-3.3-1.6,0c-0.3,3.3,5.4,14.9,8.3,22.8
					c2.5,6.8,6.6,23.6,7.6,27.7c1.6-1.2,2.6-2.4,3-3.3c0.4-1-3.4-14.1-3.7-15.2C422,174.4,413,161.8,411.9,157.5z"/>
				<path id="Shadow_12_" class="st29" d="M355.3,128.9C355.3,128.9,355.3,128.9,355.3,128.9c-0.1,0.1-0.1,0.3-0.2,0.4
					c-2.9,7-5.1,15.7-6.4,24.8c-0.1,0.6-0.2,1.3-0.3,2c1.2-6.1,2.3-6.7,4.7-14.9C355.7,132.2,355.6,129.9,355.3,128.9z"/>
			</g>
			<g id="Sleeve_left_1_">
				<path id="Sleeve_1_" class="st38" d="M373.7,100.3c0,0-6.7-3.1-31.7,6.7c0,0-6.5,9.9-5.8,15.1c0.7,5.1-1,12.2-0.6,14.7
					c0.1,0.4,0.5,0.7,1,0.6c2.1-0.7,17.8-9,18-9.1c0.4,0,0.6,0.4,0.5,0.7l-0.6,1.5L373.7,100.3z"/>
				<path id="Shadow_arm_left_1_" class="st29" d="M336.2,122.1c-0.2-1.9,0.4-4.3,1.4-6.7c-0.5,0.7-2.9,4.3-2.8,6.6
					c0,2.2-0.7,7.2-1.4,9.3c0,0,0.7-0.1,0.7-0.1c0.6-0.1,1.2-0.2,1.9-0.3C336.2,128.1,336.6,124.8,336.2,122.1z"/>
				<path id="Shadow_sleeve_left_1_" class="st29" d="M349.1,104.3c-0.1,0-0.2,0.1-0.2,0.1c-0.4,0.1-0.8,0.3-1.2,0.4c0,0,0,0-0.1,0
					c-0.4,0.1-0.8,0.3-1.3,0.5c-0.1,0-0.2,0.1-0.3,0.1c-0.3,0.1-0.7,0.2-1,0.4c-0.1,0.1-0.3,0.1-0.4,0.2c-0.3,0.1-0.6,0.2-0.9,0.4
					c-0.1,0.1-0.3,0.1-0.4,0.2c-0.4,0.2-0.9,0.3-1.3,0.5c0,0,0,0,0,0c0,0,0,0,0,0c0,0-2.8,4.4-4.5,8.7c3-2.1,6.2-6.6,15.1-12.4
					c-0.7,0.2-1.5,0.5-2.3,0.7c-0.1,0-0.1,0-0.2,0.1C349.8,104.1,349.4,104.2,349.1,104.3z"/>
			</g>
			<path id="Shadow_hand_right_1_" class="st29" d="M487.1,184.1c0.5,0.2,2.2,1.9,2.2,1.9s1.8-1.1,0.7-1.5
				C488.9,184.2,486.5,183.9,487.1,184.1z"/>
			<g id="Coupon_1_">
				<g>
					<g>
						<path class="st15" d="M508.3,209.2l-20.1-10.8c-2.4-1.3-3.4-4.3-2-6.8l4-7.4c1.3-2.4,4.3-3.4,6.8-2L517,193
							c2.4,1.3,3.4,4.3,2,6.8l-4,7.4C513.7,209.6,510.7,210.5,508.3,209.2z"/>
					</g>
					<g class="st29">
						<path d="M508.3,209.2l-20.1-10.8c-2.4-1.3-3.4-4.3-2-6.8l4-7.4c1.3-2.4,4.3-3.4,6.8-2L517,193c2.4,1.3,3.4,4.3,2,6.8l-4,7.4
							C513.7,209.6,510.7,210.5,508.3,209.2z"/>
					</g>
				</g>
				<g>
					<path class="st15" d="M504.8,211.2L486.9,197c-2.2-1.7-2.5-4.9-0.8-7l5.2-6.6c1.7-2.2,4.9-2.5,7-0.8l17.9,14.2
						c2.2,1.7,2.5,4.9,0.8,7l-5.2,6.6C510.1,212.5,506.9,212.9,504.8,211.2z"/>
				</g>
				<g class="st29">
					<path d="M506.5,209.9c-0.1,0-0.3,0-0.4-0.1l0.4-0.5l-0.4,0.5l-2.5-2c-0.3-0.2-0.3-0.6-0.1-0.8c0.2-0.3,0.6-0.3,0.8-0.1l2.5,2
						c0,0,0,0,0,0c0.3,0.2,0.3,0.6,0.1,0.8C506.8,209.9,506.7,209.9,506.5,209.9z M509,208.7c-0.1,0-0.3,0-0.4-0.1
						c-0.3-0.2-0.3-0.6-0.1-0.8l2-2.5c0.2-0.3,0.6-0.3,0.8-0.1c0.3,0.2,0.3,0.6,0.1,0.8l-2,2.5C509.3,208.6,509.1,208.7,509,208.7z
						 M501.5,206c-0.1,0-0.3,0-0.4-0.1l-2.5-2c-0.3-0.2-0.3-0.6-0.1-0.8c0.2-0.3,0.6-0.3,0.8-0.1l2.5,2c0.3,0.2,0.3,0.6,0.1,0.8
						C501.9,205.9,501.7,206,501.5,206z M512.9,203.7c-0.1,0-0.3,0-0.4-0.1c-0.3-0.2-0.3-0.6-0.1-0.8l2-2.5c0.2-0.3,0.6-0.3,0.8-0.1
						c0.3,0.2,0.3,0.6,0.1,0.8l-2,2.5C513.3,203.7,513.1,203.7,512.9,203.7z M496.6,202.1c-0.1,0-0.3,0-0.4-0.1l-2.5-2
						c-0.3-0.2-0.3-0.6-0.1-0.8c0.2-0.3,0.6-0.3,0.8-0.1l2.5,2c0.3,0.2,0.3,0.6,0.1,0.8C496.9,202,496.7,202.1,496.6,202.1z
						 M514,198.8c-0.1,0-0.3,0-0.4-0.1l-2.5-2c-0.3-0.2-0.3-0.6-0.1-0.8c0.2-0.3,0.6-0.3,0.8-0.1l2.5,2c0.3,0.2,0.3,0.6,0.1,0.8
						C514.3,198.7,514.1,198.8,514,198.8z M491.6,198.1c-0.1,0-0.3,0-0.4-0.1l-2.5-2c-0.3-0.2-0.3-0.6-0.1-0.8
						c0.2-0.3,0.6-0.3,0.8-0.1l2.5,2c0.3,0.2,0.3,0.6,0.1,0.8C491.9,198,491.8,198.1,491.6,198.1z M509,194.8c-0.1,0-0.3,0-0.4-0.1
						l-2.5-2c-0.3-0.2-0.3-0.6-0.1-0.8c0.2-0.3,0.6-0.3,0.8-0.1l2.5,2c0.3,0.2,0.3,0.6,0.1,0.8C509.3,194.7,509.2,194.8,509,194.8z
						 M488.2,193.6c-0.1,0-0.3,0-0.4-0.1c-0.3-0.2-0.3-0.6-0.1-0.8l2-2.5c0.2-0.3,0.6-0.3,0.8-0.1c0.3,0.2,0.3,0.6,0.1,0.8l-2,2.5
						C488.5,193.6,488.4,193.6,488.2,193.6z M504,190.9c-0.1,0-0.3,0-0.4-0.1l-2.5-2c-0.3-0.2-0.3-0.6-0.1-0.8
						c0.2-0.3,0.6-0.3,0.8-0.1l2.5,2c0.3,0.2,0.3,0.6,0.1,0.8C504.4,190.8,504.2,190.9,504,190.9z M492.1,188.7
						c-0.1,0-0.3,0-0.4-0.1c-0.3-0.2-0.3-0.6-0.1-0.8l2-2.5c0.2-0.3,0.6-0.3,0.8-0.1c0.3,0.2,0.3,0.6,0.1,0.8l-2,2.5
						C492.5,188.6,492.3,188.7,492.1,188.7z M499.1,186.9c-0.1,0-0.3,0-0.4-0.1l-2.5-2c-0.3-0.2-0.3-0.6-0.1-0.8
						c0.2-0.3,0.6-0.3,0.8-0.1c0,0,0,0,0,0l2.5,1.9c0.3,0.2,0.3,0.6,0.1,0.8C499.4,186.9,499.2,186.9,499.1,186.9z"/>
				</g>
			</g>
			<path id="Thumb_1_" class="st26" d="M487.9,185c0,0,5.8,3.5,6.3,6c0.5,2.5,0,2.5-1.7,2c-1.7-0.5-3.8-3.6-6.5-3.6
				c-2.7,0.1-6.5-2.3-6.7-5.9C479.1,180,485.7,182,487.9,185z"/>
			<path id="Arm_extra_left_1_" class="st26" d="M360,80.9c-9.5,21.4-25.1,38.9-28.8,40.2c-3.7,1.3-1.6-5.3-1.6-5.3l25.7-34.7
				L360,80.9z"/>
			<g id="Hair__x2B__Beard_1_">
				<path id="Hair_1_" class="st14" d="M406.2,34.7c-0.4,0-0.7-0.2-0.9-0.4c-2.5-2.7-16.4-17.2-29.4-7.3
					c-12.9,9.9-4.1,18.2,0.2,21.7c3.2,2.6,13,5.3,18,6.4c0.8,0.2,1.4,0.6,1.8,1.3l1.5,2.2c0.3,0.4,0.4,0.8,0.5,1.3
					c0.4,2.8,0.4,5.8,0.3,7.9c-0.1,3.3-5.8,7.3-6.8,7.2c-0.6-0.1-2.7,0.3-6.2,0.5c-0.1-0.1-0.1-0.1-0.2-0.2
					c-5.2-4.2-8.4-4.8-10.1-5.3c-0.6-0.2-1.2,0.4-1.1,1c0.1,0.4,0.2,0.8,0.3,1.2c0.1,0.4,0.6,0.9,1,1c1.7,0.4,4.5,2,6.4,3.1
					c-1.7,1-2.6,3.2-4.6,2.7l0,0c-0.7-0.2-1.5,0-2.1,0.5c0,0,0,0,0,0c-0.2,0.2-0.3,0.5-0.3,0.8c0.1,0.9,0.4,2.1,2.1,3.8
					c4,4,1,5.9,8,5.3c9.8-0.9,6.5-3.3,8.4-3.6c1.9-0.3,8.2-12.5,9-17.2c0.8-4.7,4.9-8.2,7.4-4.7c2,2.8,0.1,5.1-0.5,6.9
					c-0.2,0.5,5.3,9.5,5.7,8.8c1.6-2.4,3.2-3.3,7.1-18.7C426.1,42.9,408.8,34.7,406.2,34.7z"/>
				<path id="Shadow_11_" class="st29" d="M392.7,85.9c-1.7,0.3,0.6,2.2-5.2,3.2c0.1,0.5,0.1,1.1-0.1,1.8c4.9-2.9,6.8-6,7.2-6.9
					C393.8,85.1,393.2,85.8,392.7,85.9z"/>
				<path id="Shadow_3_" class="st29" d="M397.3,58.7l-1.5-2.2c-0.4-0.7-1.1-1.1-1.8-1.3c-4.2-1-12-3.1-16.1-5.3
					c-0.3,0.6-0.6,1.2-0.8,1.8c2.9,1.1,12.3,4.6,15.7,4.7c4.1,0.2,4.8,4.9,5.3,7.2c0,0.1,0.1,0.2,0.1,0.3c0-1.3-0.1-2.7-0.3-4
					C397.8,59.6,397.6,59.1,397.3,58.7z"/>
			</g>
		</g>
	</g>
</g>
</svg>
