<svg xmlns="http://www.w3.org/2000/svg" xmlns:xlink="http://www.w3.org/1999/xlink">
  <symbol viewBox="0 0 72 72" id="icon--default-action-play">
    <g fill="none" fill-rule="evenodd">
      <circle cx="36" cy="36" r="36" fill="#2C3649" opacity=".5" />
      <polygon fill="#FFF" fill-rule="nonzero" points="30 24 30 48 48 36" /> </g>
  </symbol>
  <symbol viewBox="0 0 42 56" id="icon--file-thumbnail-doc">
    <g fill="none" fill-rule="evenodd">
      <path fill="#2E73DC" fill-rule="nonzero" d="M-5.10702591e-14,42 L1,42 L1,26 L-5.10702591e-14,26 L-5.10702591e-14,4 C-5.13408006e-14,1.790861 1.790861,-4.54341539e-13 4,-4.53552904e-13 L28.1715729,-4.4986237e-13 C28.7020059,-4.4901757e-13 29.2107137,0.210713681 29.5857864,0.585786438 L41.4142136,12.4142136 C41.7892863,12.7892863 42,13.2979941 42,13.8284271 L42,52 C42,54.209139 40.209139,56 38,56 L4,56 C1.790861,56 -4.946745e-14,54.209139 -4.97379915e-14,52 L-5.00155473e-14,42 Z M28,1 L4,1 C2.34314575,1 1,2.34314575 1,4 L1,52 C1,53.6568542 2.34314575,55 4,55 L38,55 C39.6568542,55 41,53.6568542 41,52 L41,14 L30.5,14 C29.1192881,14 28,12.8807119 28,11.5 L28,1 Z M29,1.41421356 L29,11.5 C29,12.3284271 29.6715729,13 30.5,13 L40.5857864,13 L29,1.41421356 Z"
      />
      <g transform="translate(0 26)">
        <path fill="#EAF1FB" d="M0,0 L27,0 C28.1045695,-2.16501571e-15 29,0.8954305 29,2 L29,14 C29,15.1045695 28.1045695,16 27,16 L0,16 L0,0 Z" />
        <path fill="#2E73DC" d="M4.25,11.12 C4.0833325,11.12 3.94166725,11.0616672 3.825,10.945 C3.70833275,10.8283327 3.65,10.6800009 3.65,10.5 C3.65,10.3066657 3.70833275,10.1516672 3.825,10.035 C3.94166725,9.91833275 4.0833325,9.86 4.25,9.86 C4.4100008,9.86 4.54833275,9.91833275 4.665,10.035 C4.78166725,10.1516672 4.84,10.3066657 4.84,10.5 C4.84,10.6800009 4.78166725,10.8283327 4.665,10.945 C4.54833275,11.0616672 4.4100008,11.12 4.25,11.12 Z M6.48090909,11 L6.48090909,4.44 L8.12090909,4.44 C9.13424749,4.44 9.90423979,4.7199972 10.4309091,5.28 C10.9575784,5.8400028 11.2209091,6.6433281 11.2209091,7.69 C11.2209091,8.2100026 11.1542431,8.67499795 11.0209091,9.085 C10.8875751,9.49500205 10.6909104,9.84166525 10.4309091,10.125 C10.1709078,10.4083347 9.85091099,10.6249992 9.47090909,10.775 C9.09090719,10.9250007 8.65424489,11 8.16090909,11 L6.48090909,11 Z M7.31090909,10.32 L8.06090909,10.32 C8.82757959,10.32 9.40257384,10.0900023 9.78590909,9.63 C10.1692443,9.1699977 10.3609091,8.5233375 10.3609091,7.69 C10.3609091,6.8566625 10.1692443,6.2200022 9.78590909,5.78 C9.40257384,5.3399978 8.82757959,5.12 8.06090909,5.12 L7.31090909,5.12 L7.31090909,10.32 Z M15.1418182,11.12 C14.7284828,11.12 14.3501532,11.0400008 14.0068182,10.88 C13.6634831,10.7199992 13.3684861,10.4916681 13.1218182,10.195 C12.8751503,9.89833185 12.6834855,9.53833545 12.5468182,9.115 C12.4101508,8.69166455 12.3418182,8.2166693 12.3418182,7.69 C12.3418182,7.1633307 12.4101508,6.69166875 12.5468182,6.275 C12.6834855,5.85833125 12.8751503,5.50500145 13.1218182,5.215 C13.3684861,4.92499855 13.6634831,4.7033341 14.0068182,4.55 C14.3501532,4.3966659 14.7284828,4.32 15.1418182,4.32 C15.5551536,4.32 15.9334831,4.39833255 16.2768182,4.555 C16.6201532,4.71166745 16.9168169,4.93499855 17.1668182,5.225 C17.4168194,5.51500145 17.6101508,5.86833125 17.7468182,6.285 C17.8834855,6.70166875 17.9518182,7.1699974 17.9518182,7.69 C17.9518182,8.2166693 17.8834855,8.69166455 17.7468182,9.115 C17.6101508,9.53833545 17.4168194,9.89833185 17.1668182,10.195 C16.9168169,10.4916681 16.6201532,10.7199992 16.2768182,10.88 C15.9334831,11.0400008 15.5551536,11.12 15.1418182,11.12 Z M15.1418182,10.39 C15.435153,10.39 15.7001503,10.3266673 15.9368182,10.2 C16.173486,10.0733327 16.3768173,9.89166785 16.5468182,9.655 C16.716819,9.41833215 16.8484844,9.13500165 16.9418182,8.805 C17.035152,8.47499835 17.0818182,8.1033354 17.0818182,7.69 C17.0818182,7.2833313 17.035152,6.9166683 16.9418182,6.59 C16.8484844,6.2633317 16.716819,5.9866678 16.5468182,5.76 C16.3768173,5.5333322 16.173486,5.35833395 15.9368182,5.235 C15.7001503,5.11166605 15.435153,5.05 15.1418182,5.05 C14.8484834,5.05 14.583486,5.11166605 14.3468182,5.235 C14.1101503,5.35833395 13.906819,5.5333322 13.7368182,5.76 C13.5668173,5.9866678 13.435152,6.2633317 13.3418182,6.59 C13.2484844,6.9166683 13.2018182,7.2833313 13.2018182,7.69 C13.2018182,8.1033354 13.2484844,8.47499835 13.3418182,8.805 C13.435152,9.13500165 13.5668173,9.41833215 13.7368182,9.655 C13.906819,9.89166785 14.1101503,10.0733327 14.3468182,10.2 C14.583486,10.3266673 14.8484834,10.39 15.1418182,10.39 Z M21.9327273,11.12 C21.5193919,11.12 21.1393957,11.0433341 20.7927273,10.89 C20.4460589,10.7366659 20.1443952,10.5150014 19.8877273,10.225 C19.6310593,9.93499855 19.4310613,9.57833545 19.2877273,9.155 C19.1443932,8.73166455 19.0727273,8.253336 19.0727273,7.72 C19.0727273,7.1933307 19.1460599,6.7200021 19.2927273,6.3 C19.4393947,5.8799979 19.642726,5.5233348 19.9027273,5.23 C20.1627286,4.9366652 20.4693922,4.71166745 20.8227273,4.555 C21.1760624,4.39833255 21.5627252,4.32 21.9827273,4.32 C22.3827293,4.32 22.7343924,4.40166585 23.0377273,4.565 C23.3410621,4.72833415 23.589393,4.9166656 23.7827273,5.13 L23.3327273,5.67 C23.1593931,5.4833324 22.9627284,5.3333339 22.7427273,5.22 C22.5227262,5.1066661 22.2727287,5.05 21.9927273,5.05 C21.6793924,5.05 21.3960619,5.11166605 21.1427273,5.235 C20.8893927,5.35833395 20.6727282,5.53499885 20.4927273,5.765 C20.3127264,5.99500115 20.1743944,6.2733317 20.0777273,6.6 C19.9810601,6.9266683 19.9327273,7.2933313 19.9327273,7.7 C19.9327273,8.1133354 19.9810601,8.48499835 20.0777273,8.815 C20.1743944,9.14500165 20.3093931,9.4266655 20.4827273,9.66 C20.6560615,9.8933345 20.867726,10.0733327 21.1177273,10.2 C21.3677285,10.3266673 21.6493924,10.39 21.9627273,10.39 C22.2827289,10.39 22.5627261,10.3250006 22.8027273,10.195 C23.0427285,10.0649994 23.2693929,9.8833345 23.4827273,9.65 L23.9427273,10.17 C23.682726,10.4700015 23.3893956,10.7033325 23.0627273,10.87 C22.736059,11.0366675 22.3593961,11.12 21.9327273,11.12 Z"
        /> </g>
    </g>
  </symbol>
  <symbol viewBox="0 0 42 56" id="icon--file-thumbnail-jpg">
    <g fill="none" fill-rule="evenodd">
      <path fill="#E07F02" fill-rule="nonzero" d="M-5.10702591e-14,42 L1,42 L1,26 L-5.10702591e-14,26 L-5.10702591e-14,4 C-5.13408006e-14,1.790861 1.790861,-4.54341539e-13 4,-4.53552904e-13 L28.1715729,-4.4986237e-13 C28.7020059,-4.4901757e-13 29.2107137,0.210713681 29.5857864,0.585786438 L41.4142136,12.4142136 C41.7892863,12.7892863 42,13.2979941 42,13.8284271 L42,52 C42,54.209139 40.209139,56 38,56 L4,56 C1.790861,56 -4.946745e-14,54.209139 -4.97379915e-14,52 L-5.00155473e-14,42 Z M28,1 L4,1 C2.34314575,1 1,2.34314575 1,4 L1,52 C1,53.6568542 2.34314575,55 4,55 L38,55 C39.6568542,55 41,53.6568542 41,52 L41,14 L30.5,14 C29.1192881,14 28,12.8807119 28,11.5 L28,1 Z M29,1.41421356 L29,11.5 C29,12.3284271 29.6715729,13 30.5,13 L40.5857864,13 L29,1.41421356 Z"
      />
      <g transform="translate(0 26)">
        <path fill="#FEF5E6" d="M0,0 L26,0 C27.1045695,-2.02906125e-16 28,0.8954305 28,2 L28,14 C28,15.1045695 27.1045695,16 26,16 L0,16 L0,0 Z" />
        <path fill="#E07F02" d="M4.25,11.12 C4.0833325,11.12 3.94166725,11.0616672 3.825,10.945 C3.70833275,10.8283327 3.65,10.6800009 3.65,10.5 C3.65,10.3066657 3.70833275,10.1516672 3.825,10.035 C3.94166725,9.91833275 4.0833325,9.86 4.25,9.86 C4.4100008,9.86 4.54833275,9.91833275 4.665,10.035 C4.78166725,10.1516672 4.84,10.3066657 4.84,10.5 C4.84,10.6800009 4.78166725,10.8283327 4.665,10.945 C4.54833275,11.0616672 4.4100008,11.12 4.25,11.12 Z M7.70090909,11.12 C6.88090499,11.12 6.27757769,10.7700035 5.89090909,10.07 L6.49090909,9.65 C6.63757649,9.9100013 6.80424149,10.0983328 6.99090909,10.215 C7.17757669,10.3316672 7.38757459,10.39 7.62090909,10.39 C7.97424419,10.39 8.23757489,10.2816678 8.41090909,10.065 C8.58424329,9.84833225 8.67090909,9.4900025 8.67090909,8.99 L8.67090909,4.44 L9.51090909,4.44 L9.51090909,9.07 C9.51090909,9.3500014 9.47590944,9.61499875 9.40590909,9.865 C9.33590874,10.1150012 9.22924314,10.3333324 9.08590909,10.52 C8.94257504,10.7066676 8.75591024,10.8533328 8.52590909,10.96 C8.29590794,11.0666672 8.02091069,11.12 7.70090909,11.12 Z M11.3718182,11 L11.3718182,4.44 L13.2418182,4.44 C13.6084867,4.44 13.9434833,4.473333 14.2468182,4.54 C14.550153,4.606667 14.8084838,4.71499925 15.0218182,4.865 C15.2351526,5.01500075 15.4018176,5.2133321 15.5218182,5.46 C15.6418188,5.7066679 15.7018182,6.0099982 15.7018182,6.37 C15.7018182,6.7166684 15.6434854,7.0166654 15.5268182,7.27 C15.4101509,7.5233346 15.2451526,7.7333325 15.0318182,7.9 C14.8184838,8.0666675 14.5634863,8.19166625 14.2668182,8.275 C13.97015,8.35833375 13.64182,8.4 13.2818182,8.4 L12.2018182,8.4 L12.2018182,11 L11.3718182,11 Z M12.2018182,7.72 L13.1818182,7.72 C13.7551544,7.72 14.1801501,7.61166775 14.4568182,7.395 C14.7334862,7.17833225 14.8718182,6.836669 14.8718182,6.37 C14.8718182,5.8966643 14.7268196,5.56833425 14.4368182,5.385 C14.1468167,5.20166575 13.7151544,5.11 13.1418182,5.11 L12.2018182,5.11 L12.2018182,7.72 Z M19.7027273,11.12 C19.2693918,11.12 18.8710624,11.0433341 18.5077273,10.89 C18.1443921,10.7366659 17.8327286,10.5150014 17.5727273,10.225 C17.312726,9.93499855 17.1093947,9.57833545 16.9627273,9.155 C16.8160599,8.73166455 16.7427273,8.253336 16.7427273,7.72 C16.7427273,7.1933307 16.8177265,6.7200021 16.9677273,6.3 C17.117728,5.8799979 17.3260593,5.5233348 17.5927273,5.23 C17.8593953,4.9366652 18.1777254,4.71166745 18.5477273,4.555 C18.9177291,4.39833255 19.3193918,4.32 19.7527273,4.32 C19.9793951,4.32 20.1877263,4.3433331 20.3777273,4.39 C20.5677282,4.4366669 20.7410598,4.49833295 20.8977273,4.575 C21.0543947,4.65166705 21.1943933,4.73833285 21.3177273,4.835 C21.4410612,4.93166715 21.5493935,5.0299995 21.6427273,5.13 L21.1827273,5.67 C21.0160598,5.4966658 20.8227284,5.3500006 20.6027273,5.23 C20.3827262,5.1099994 20.1060623,5.05 19.7727273,5.05 C19.4393923,5.05 19.1393953,5.11166605 18.8727273,5.235 C18.6060593,5.35833395 18.3793949,5.53499885 18.1927273,5.765 C18.0060597,5.99500115 17.8610611,6.2733317 17.7577273,6.6 C17.6543934,6.9266683 17.6027273,7.2933313 17.6027273,7.7 C17.6027273,8.1133354 17.6510601,8.48499835 17.7477273,8.815 C17.8443944,9.14500165 17.984393,9.4266655 18.1677273,9.66 C18.3510615,9.8933345 18.5777259,10.0733327 18.8477273,10.2 C19.1177286,10.3266673 19.4293922,10.39 19.7827273,10.39 C20.0160618,10.39 20.2377262,10.3550003 20.4477273,10.285 C20.6577283,10.2149996 20.8293933,10.1200006 20.9627273,10 L20.9627273,8.29 L19.5727273,8.29 L19.5727273,7.6 L21.7227273,7.6 L21.7227273,10.36 C21.5093929,10.5800011 21.2293957,10.761666 20.8827273,10.905 C20.5360589,11.0483341 20.1427295,11.12 19.7027273,11.12 Z"
        /> </g>
    </g>
  </symbol>
  <symbol viewBox="0 0 42 56" id="icon--file-thumbnail-mov">
    <g fill="none" fill-rule="evenodd">
      <path fill="#932AEF" fill-rule="nonzero" d="M-5.10702591e-14,42 L1,42 L1,26 L-5.10702591e-14,26 L-5.10702591e-14,4 C-5.13408006e-14,1.790861 1.790861,-4.54341539e-13 4,-4.53552904e-13 L28.1715729,-4.4986237e-13 C28.7020059,-4.4901757e-13 29.2107137,0.210713681 29.5857864,0.585786438 L41.4142136,12.4142136 C41.7892863,12.7892863 42,13.2979941 42,13.8284271 L42,52 C42,54.209139 40.209139,56 38,56 L4,56 C1.790861,56 -4.946745e-14,54.209139 -4.97379915e-14,52 L-5.00155473e-14,42 Z M28,1 L4,1 C2.34314575,1 1,2.34314575 1,4 L1,52 C1,53.6568542 2.34314575,55 4,55 L38,55 C39.6568542,55 41,53.6568542 41,52 L41,14 L30.5,14 C29.1192881,14 28,12.8807119 28,11.5 L28,1 Z M29,1.41421356 L29,11.5 C29,12.3284271 29.6715729,13 30.5,13 L40.5857864,13 L29,1.41421356 Z"
      />
      <g transform="translate(0 26)">
        <path fill="#F5EDFD" d="M0,0 L28,0 C29.1045695,-2.16501571e-15 30,0.8954305 30,2 L30,14 C30,15.1045695 29.1045695,16 28,16 L0,16 L0,0 Z" />
        <path fill="#932AEF" d="M4.25,11.12 C4.0833325,11.12 3.94166725,11.0616672 3.825,10.945 C3.70833275,10.8283327 3.65,10.6800009 3.65,10.5 C3.65,10.3066657 3.70833275,10.1516672 3.825,10.035 C3.94166725,9.91833275 4.0833325,9.86 4.25,9.86 C4.4100008,9.86 4.54833275,9.91833275 4.665,10.035 C4.78166725,10.1516672 4.84,10.3066657 4.84,10.5 C4.84,10.6800009 4.78166725,10.8283327 4.665,10.945 C4.54833275,11.0616672 4.4100008,11.12 4.25,11.12 Z M6.48090909,11 L6.48090909,4.44 L7.48090909,4.44 L8.74090909,7.94 C8.82090949,8.1666678 8.89924204,8.39499885 8.97590909,8.625 C9.05257614,8.85500115 9.13090869,9.0833322 9.21090909,9.31 L9.25090909,9.31 C9.33090949,9.0833322 9.40590874,8.85500115 9.47590909,8.625 C9.54590944,8.39499885 9.62090869,8.1666678 9.70090909,7.94 L10.9409091,4.44 L11.9509091,4.44 L11.9509091,11 L11.1709091,11 L11.1709091,7.39 C11.1709091,7.0966652 11.1842423,6.7733351 11.2109091,6.42 C11.2375759,6.0666649 11.260909,5.7433348 11.2809091,5.45 L11.2409091,5.45 L10.7209091,6.94 L9.48090909,10.34 L8.93090909,10.34 L7.69090909,6.94 L7.17090909,5.45 L7.13090909,5.45 C7.15090919,5.7433348 7.17257564,6.0666649 7.19590909,6.42 C7.21924254,6.7733351 7.23090909,7.0966652 7.23090909,7.39 L7.23090909,11 L6.48090909,11 Z M16.2618182,11.12 C15.8484828,11.12 15.4701532,11.0400008 15.1268182,10.88 C14.7834831,10.7199992 14.4884861,10.4916681 14.2418182,10.195 C13.9951503,9.89833185 13.8034855,9.53833545 13.6668182,9.115 C13.5301508,8.69166455 13.4618182,8.2166693 13.4618182,7.69 C13.4618182,7.1633307 13.5301508,6.69166875 13.6668182,6.275 C13.8034855,5.85833125 13.9951503,5.50500145 14.2418182,5.215 C14.4884861,4.92499855 14.7834831,4.7033341 15.1268182,4.55 C15.4701532,4.3966659 15.8484828,4.32 16.2618182,4.32 C16.6751536,4.32 17.0534831,4.39833255 17.3968182,4.555 C17.7401532,4.71166745 18.0368169,4.93499855 18.2868182,5.225 C18.5368194,5.51500145 18.7301508,5.86833125 18.8668182,6.285 C19.0034855,6.70166875 19.0718182,7.1699974 19.0718182,7.69 C19.0718182,8.2166693 19.0034855,8.69166455 18.8668182,9.115 C18.7301508,9.53833545 18.5368194,9.89833185 18.2868182,10.195 C18.0368169,10.4916681 17.7401532,10.7199992 17.3968182,10.88 C17.0534831,11.0400008 16.6751536,11.12 16.2618182,11.12 Z M16.2618182,10.39 C16.555153,10.39 16.8201503,10.3266673 17.0568182,10.2 C17.293486,10.0733327 17.4968173,9.89166785 17.6668182,9.655 C17.836819,9.41833215 17.9684844,9.13500165 18.0618182,8.805 C18.155152,8.47499835 18.2018182,8.1033354 18.2018182,7.69 C18.2018182,7.2833313 18.155152,6.9166683 18.0618182,6.59 C17.9684844,6.2633317 17.836819,5.9866678 17.6668182,5.76 C17.4968173,5.5333322 17.293486,5.35833395 17.0568182,5.235 C16.8201503,5.11166605 16.555153,5.05 16.2618182,5.05 C15.9684834,5.05 15.703486,5.11166605 15.4668182,5.235 C15.2301503,5.35833395 15.026819,5.5333322 14.8568182,5.76 C14.6868173,5.9866678 14.555152,6.2633317 14.4618182,6.59 C14.3684844,6.9166683 14.3218182,7.2833313 14.3218182,7.69 C14.3218182,8.1033354 14.3684844,8.47499835 14.4618182,8.805 C14.555152,9.13500165 14.6868173,9.41833215 14.8568182,9.655 C15.026819,9.89166785 15.2301503,10.0733327 15.4668182,10.2 C15.703486,10.3266673 15.9684834,10.39 16.2618182,10.39 Z M21.6727273,11 L19.5727273,4.44 L20.4627273,4.44 L21.5127273,7.98 C21.6327279,8.3733353 21.7377268,8.736665 21.8277273,9.07 C21.9177277,9.403335 22.02606,9.7633314 22.1527273,10.15 L22.1927273,10.15 C22.3127279,9.7633314 22.4193935,9.403335 22.5127273,9.07 C22.6060611,8.736665 22.7093934,8.3733353 22.8227273,7.98 L23.8727273,4.44 L24.7227273,4.44 L22.6427273,11 L21.6727273,11 Z"
        /> </g>
    </g>
  </symbol>
  <symbol viewBox="0 0 42 56" id="icon--file-thumbnail-mp3">
    <g id="icon--file-thumbnail-mp3-icons-media-file-thumbnail-mp3" stroke="none" stroke-width="1" fill="none" fill-rule="evenodd">
      <g id="icon--file-thumbnail-mp3-File-icon" fill="#E517CA" fill-rule="nonzero">
        <path d="M28,0.5 L29,0.5 L29,11.5 C29,12.3284271 29.6715729,13 30.5,13 L41.5,13 L41.5,14 L30.5,14 C29.1192881,14 28,12.8807119 28,11.5 L28,0.5 Z M-5.10702591e-14,42 L1,42 L1,52 C1,53.6568542 2.34314575,55 4,55 L38,55 C39.6568542,55 41,53.6568542 41,52 L41,13.8284271 C41,13.5632106 40.8946432,13.3088567 40.7071068,13.1213203 L28.8786797,1.29289322 C28.6911433,1.10535684 28.4367894,1 28.1715729,1 L4,1 C2.34314575,1 1,2.34314575 1,4 L1,26 L-5.10702591e-14,26 L-5.10702591e-14,4 C-5.13408006e-14,1.790861 1.790861,-4.54341539e-13 4,-4.53552904e-13 L28.1715729,-4.4986237e-13 C28.7020059,-4.4901757e-13 29.2107137,0.210713681 29.5857864,0.585786438 L41.4142136,12.4142136 C41.7892863,12.7892863 42,13.2979941 42,13.8284271 L42,52 C42,54.209139 40.209139,56 38,56 L4,56 C1.790861,56 -4.946745e-14,54.209139 -4.97379915e-14,52 L-5.00155473e-14,42 Z"
        id="icon--file-thumbnail-mp3-Combined-Shape" /> </g>
      <g id="icon--file-thumbnail-mp3-Extention-label" transform="translate(0.000000, 26.000000)">
        <path d="M0,0 L26,0 C27.1045695,-2.02906125e-16 28,0.8954305 28,2 L28,14 C28,15.1045695 27.1045695,16 26,16 L0,16 L0,0 Z" id="icon--file-thumbnail-mp3-Background" fill="#FCE7F9" />
        <path d="M4.25,11.12 C4.0833325,11.12 3.94166725,11.0616672 3.825,10.945 C3.70833275,10.8283327 3.65,10.6800009 3.65,10.5 C3.65,10.3066657 3.70833275,10.1516672 3.825,10.035 C3.94166725,9.91833275 4.0833325,9.86 4.25,9.86 C4.4100008,9.86 4.54833275,9.91833275 4.665,10.035 C4.78166725,10.1516672 4.84,10.3066657 4.84,10.5 C4.84,10.6800009 4.78166725,10.8283327 4.665,10.945 C4.54833275,11.0616672 4.4100008,11.12 4.25,11.12 Z M6.48090909,11 L6.48090909,4.44 L7.48090909,4.44 L8.74090909,7.94 C8.82090949,8.1666678 8.89924204,8.39499885 8.97590909,8.625 C9.05257614,8.85500115 9.13090869,9.0833322 9.21090909,9.31 L9.25090909,9.31 C9.33090949,9.0833322 9.40590874,8.85500115 9.47590909,8.625 C9.54590944,8.39499885 9.62090869,8.1666678 9.70090909,7.94 L10.9409091,4.44 L11.9509091,4.44 L11.9509091,11 L11.1709091,11 L11.1709091,7.39 C11.1709091,7.0966652 11.1842423,6.7733351 11.2109091,6.42 C11.2375759,6.0666649 11.260909,5.7433348 11.2809091,5.45 L11.2409091,5.45 L10.7209091,6.94 L9.48090909,10.34 L8.93090909,10.34 L7.69090909,6.94 L7.17090909,5.45 L7.13090909,5.45 C7.15090919,5.7433348 7.17257564,6.0666649 7.19590909,6.42 C7.21924254,6.7733351 7.23090909,7.0966652 7.23090909,7.39 L7.23090909,11 L6.48090909,11 Z M13.8418182,11 L13.8418182,4.44 L15.7118182,4.44 C16.0784867,4.44 16.4134833,4.473333 16.7168182,4.54 C17.020153,4.606667 17.2784838,4.71499925 17.4918182,4.865 C17.7051526,5.01500075 17.8718176,5.2133321 17.9918182,5.46 C18.1118188,5.7066679 18.1718182,6.0099982 18.1718182,6.37 C18.1718182,6.7166684 18.1134854,7.0166654 17.9968182,7.27 C17.8801509,7.5233346 17.7151526,7.7333325 17.5018182,7.9 C17.2884838,8.0666675 17.0334863,8.19166625 16.7368182,8.275 C16.44015,8.35833375 16.11182,8.4 15.7518182,8.4 L14.6718182,8.4 L14.6718182,11 L13.8418182,11 Z M14.6718182,7.72 L15.6518182,7.72 C16.2251544,7.72 16.6501501,7.61166775 16.9268182,7.395 C17.2034862,7.17833225 17.3418182,6.836669 17.3418182,6.37 C17.3418182,5.8966643 17.1968196,5.56833425 16.9068182,5.385 C16.6168167,5.20166575 16.1851544,5.11 15.6118182,5.11 L14.6718182,5.11 L14.6718182,7.72 Z M21.0527273,11.12 C20.7993927,11.12 20.5677283,11.0950003 20.3577273,11.045 C20.1477262,10.9949997 19.9560615,10.9283338 19.7827273,10.845 C19.6093931,10.7616662 19.4543946,10.6666672 19.3177273,10.56 C19.1810599,10.4533328 19.0593945,10.3400006 18.9527273,10.22 L19.3727273,9.68 C19.5660616,9.880001 19.7910593,10.0566659 20.0477273,10.21 C20.3043952,10.3633341 20.6227254,10.44 21.0027273,10.44 C21.3893959,10.44 21.7060594,10.335001 21.9527273,10.125 C22.1993952,9.91499895 22.3227273,9.6300018 22.3227273,9.27 C22.3227273,9.0833324 22.2877276,8.91166745 22.2177273,8.755 C22.1477269,8.59833255 22.0327281,8.4633339 21.8727273,8.35 C21.7127265,8.2366661 21.5027286,8.1500003 21.2427273,8.09 C20.982726,8.0299997 20.6627292,8 20.2827273,8 L20.2827273,7.37 C20.622729,7.37 20.9077261,7.3400003 21.1377273,7.28 C21.3677284,7.2199997 21.5543932,7.1366672 21.6977273,7.03 C21.8410613,6.9233328 21.942727,6.7966674 22.0027273,6.65 C22.0627276,6.5033326 22.0927273,6.3466675 22.0927273,6.18 C22.0927273,5.8666651 21.9943949,5.6200009 21.7977273,5.44 C21.6010596,5.2599991 21.332729,5.17 20.9927273,5.17 C20.7260593,5.17 20.4810617,5.2299994 20.2577273,5.35 C20.0343928,5.4700006 19.8260616,5.6266657 19.6327273,5.82 L19.1927273,5.3 C19.4393952,5.0666655 19.7110591,4.87500075 20.0077273,4.725 C20.3043954,4.57499925 20.6427254,4.5 21.0227273,4.5 C21.3027287,4.5 21.5593928,4.5366663 21.7927273,4.61 C22.0260618,4.6833337 22.2277264,4.78833265 22.3977273,4.925 C22.5677281,5.06166735 22.6993935,5.229999 22.7927273,5.43 C22.8860611,5.630001 22.9327273,5.8599987 22.9327273,6.12 C22.9327273,6.5066686 22.8260617,6.8233321 22.6127273,7.07 C22.3993929,7.3166679 22.1193957,7.506666 21.7727273,7.64 L21.7727273,7.68 C21.9660616,7.7266669 22.1460598,7.79499955 22.3127273,7.885 C22.4793948,7.97500045 22.62606,8.08833265 22.7527273,8.225 C22.8793946,8.36166735 22.9777269,8.5199991 23.0477273,8.7 C23.1177276,8.8800009 23.1527273,9.0799989 23.1527273,9.3 C23.1527273,9.5800014 23.0977278,9.8333322 22.9877273,10.06 C22.8777267,10.2866678 22.7277282,10.4783325 22.5377273,10.635 C22.3477263,10.7916675 22.1260619,10.9116662 21.8727273,10.995 C21.6193927,11.0783338 21.3460621,11.12 21.0527273,11.12 Z"
        id="icon--file-thumbnail-mp3-.MP3" fill="#E517CA" /> </g>
    </g>
  </symbol>
  <symbol viewBox="0 0 42 56" id="icon--file-thumbnail-normal">
    <path fill="#788A9B" d="M28,1 L4,1 C2.34314575,1 1,2.34314575 1,4 L1,52 C1,53.6568542 2.34314575,55 4,55 L38,55 C39.6568542,55 41,53.6568542 41,52 L41,14 L30.5,14 C29.1192881,14 28,12.8807119 28,11.5 L28,1 Z M29,1.41421356 L29,11.5 C29,12.3284271 29.6715729,13 30.5,13 L40.5857864,13 L29,1.41421356 Z M4,-4.53552904e-13 L28.1715729,-4.4986237e-13 C28.7020059,-4.4901757e-13 29.2107137,0.210713681 29.5857864,0.585786438 L41.4142136,12.4142136 C41.7892863,12.7892863 42,13.2979941 42,13.8284271 L42,52 C42,54.209139 40.209139,56 38,56 L4,56 C1.790861,56 -4.81351824e-14,54.209139 -4.84057239e-14,52 L-4.97379915e-14,4 C-5.0008533e-14,1.790861 1.790861,-4.54341539e-13 4,-4.53552904e-13 Z"
    /> </symbol>
  <symbol viewBox="0 0 42 56" id="icon--file-thumbnail-pdf">
    <g fill="none" fill-rule="evenodd">
      <path fill="#F62400" fill-rule="nonzero" d="M-5.10702591e-14,42 L1,42 L1,26 L-5.10702591e-14,26 L-5.10702591e-14,4 C-5.13408006e-14,1.790861 1.790861,-4.54341539e-13 4,-4.53552904e-13 L28.1715729,-4.4986237e-13 C28.7020059,-4.4901757e-13 29.2107137,0.210713681 29.5857864,0.585786438 L41.4142136,12.4142136 C41.7892863,12.7892863 42,13.2979941 42,13.8284271 L42,52 C42,54.209139 40.209139,56 38,56 L4,56 C1.790861,56 -4.946745e-14,54.209139 -4.97379915e-14,52 L-5.00155473e-14,42 Z M28,1 L4,1 C2.34314575,1 1,2.34314575 1,4 L1,52 C1,53.6568542 2.34314575,55 4,55 L38,55 C39.6568542,55 41,53.6568542 41,52 L41,14 L30.5,14 C29.1192881,14 28,12.8807119 28,11.5 L28,1 Z M29,1.41421356 L29,11.5 C29,12.3284271 29.6715729,13 30.5,13 L40.5857864,13 L29,1.41421356 Z"
      />
      <g transform="translate(0 26)">
        <path fill="#FFF1EF" d="M0,0 L25,0 C26.1045695,-2.02906125e-16 27,0.8954305 27,2 L27,14 C27,15.1045695 26.1045695,16 25,16 L0,16 L0,0 Z" />
        <path fill="#F62400" d="M4.25,11.12 C4.0833325,11.12 3.94166725,11.0616672 3.825,10.945 C3.70833275,10.8283328 3.65,10.6800009 3.65,10.5 C3.65,10.3066657 3.70833275,10.1516672 3.825,10.035 C3.94166725,9.91833275 4.0833325,9.86 4.25,9.86 C4.4100008,9.86 4.54833275,9.91833275 4.665,10.035 C4.78166725,10.1516672 4.84,10.3066657 4.84,10.5 C4.84,10.6800009 4.78166725,10.8283328 4.665,10.945 C4.54833275,11.0616672 4.4100008,11.12 4.25,11.12 Z M6.48090909,11 L6.48090909,4.44 L8.35090909,4.44 C8.71757759,4.44 9.05257424,4.473333 9.35590909,4.54 C9.65924394,4.606667 9.91757469,4.71499925 10.1309091,4.865 C10.3442435,5.01500075 10.5109085,5.2133321 10.6309091,5.46 C10.7509097,5.7066679 10.8109091,6.0099982 10.8109091,6.37 C10.8109091,6.7166684 10.7525763,7.0166654 10.6359091,7.27 C10.5192418,7.5233346 10.3542435,7.7333325 10.1409091,7.9 C9.92757469,8.0666675 9.67257724,8.19166625 9.37590909,8.275 C9.07924094,8.35833375 8.75091089,8.4 8.39090909,8.4 L7.31090909,8.4 L7.31090909,11 L6.48090909,11 Z M7.31090909,7.72 L8.29090909,7.72 C8.86424529,7.72 9.28924104,7.61166775 9.56590909,7.395 C9.84257714,7.17833225 9.98090909,6.836669 9.98090909,6.37 C9.98090909,5.8966643 9.83591054,5.56833425 9.54590909,5.385 C9.25590764,5.20166575 8.82424529,5.11 8.25090909,5.11 L7.31090909,5.11 L7.31090909,7.72 Z M12.2318182,11 L12.2318182,4.44 L13.8718182,4.44 C14.8851566,4.44 15.6551489,4.7199972 16.1818182,5.28 C16.7084875,5.8400028 16.9718182,6.6433281 16.9718182,7.69 C16.9718182,8.2100026 16.9051522,8.67499795 16.7718182,9.085 C16.6384842,9.49500205 16.4418195,9.84166525 16.1818182,10.125 C15.9218169,10.4083347 15.6018201,10.6249993 15.2218182,10.775 C14.8418163,10.9250007 14.405154,11 13.9118182,11 L12.2318182,11 Z M13.0618182,10.32 L13.8118182,10.32 C14.5784887,10.32 15.1534829,10.0900023 15.5368182,9.63 C15.9201534,9.1699977 16.1118182,8.5233375 16.1118182,7.69 C16.1118182,6.8566625 15.9201534,6.2200022 15.5368182,5.78 C15.1534829,5.3399978 14.5784887,5.12 13.8118182,5.12 L13.0618182,5.12 L13.0618182,10.32 Z M18.4727273,11 L18.4727273,4.44 L22.2527273,4.44 L22.2527273,5.14 L19.3027273,5.14 L19.3027273,7.36 L21.8027273,7.36 L21.8027273,8.06 L19.3027273,8.06 L19.3027273,11 L18.4727273,11 Z"
        /> </g>
    </g>
  </symbol>
  <symbol viewBox="0 0 42 56" id="icon--file-thumbnail-ppt">
    <g fill="none" fill-rule="evenodd">
      <path fill="#D23F26" fill-rule="nonzero" d="M-5.10702591e-14,42 L1,42 L1,26 L-5.10702591e-14,26 L-5.10702591e-14,4 C-5.13408006e-14,1.790861 1.790861,-4.54341539e-13 4,-4.53552904e-13 L28.1715729,-4.4986237e-13 C28.7020059,-4.4901757e-13 29.2107137,0.210713681 29.5857864,0.585786438 L41.4142136,12.4142136 C41.7892863,12.7892863 42,13.2979941 42,13.8284271 L42,52 C42,54.209139 40.209139,56 38,56 L4,56 C1.790861,56 -4.946745e-14,54.209139 -4.97379915e-14,52 L-5.00155473e-14,42 Z M28,1 L4,1 C2.34314575,1 1,2.34314575 1,4 L1,52 C1,53.6568542 2.34314575,55 4,55 L38,55 C39.6568542,55 41,53.6568542 41,52 L41,14 L30.5,14 C29.1192881,14 28,12.8807119 28,11.5 L28,1 Z M29,1.41421356 L29,11.5 C29,12.3284271 29.6715729,13 30.5,13 L40.5857864,13 L29,1.41421356 Z"
      />
      <g transform="translate(0 26)">
        <path fill="#FBECEA" d="M0,0 L25,0 C26.1045695,-2.02906125e-16 27,0.8954305 27,2 L27,14 C27,15.1045695 26.1045695,16 25,16 L0,16 L0,0 Z" />
        <text fill="#D23F26" font-family="SourceSansPro-Regular, Source Sans Pro" font-size="10" letter-spacing=".091">
          <tspan x="3" y="10">.PPT</tspan>
        </text>
      </g>
    </g>
  </symbol>
  <symbol viewBox="0 0 42 56" id="icon--file-thumbnail-svg">
    <g fill="none" fill-rule="evenodd">
      <path fill="#35C9A9" fill-rule="nonzero" d="M-5.10702591e-14,42 L1,42 L1,26 L-5.10702591e-14,26 L-5.10702591e-14,4 C-5.13408006e-14,1.790861 1.790861,-4.54341539e-13 4,-4.53552904e-13 L28.1715729,-4.4986237e-13 C28.7020059,-4.4901757e-13 29.2107137,0.210713681 29.5857864,0.585786438 L41.4142136,12.4142136 C41.7892863,12.7892863 42,13.2979941 42,13.8284271 L42,52 C42,54.209139 40.209139,56 38,56 L4,56 C1.790861,56 -4.946745e-14,54.209139 -4.97379915e-14,52 L-5.00155473e-14,42 Z M28,1 L4,1 C2.34314575,1 1,2.34314575 1,4 L1,52 C1,53.6568542 2.34314575,55 4,55 L38,55 C39.6568542,55 41,53.6568542 41,52 L41,14 L30.5,14 C29.1192881,14 28,12.8807119 28,11.5 L28,1 Z M29,1.41421356 L29,11.5 C29,12.3284271 29.6715729,13 30.5,13 L40.5857864,13 L29,1.41421356 Z"
      />
      <path fill="#E5F8F4" d="M0,0 L26,0 C27.1045695,-2.02906125e-16 28,0.8954305 28,2 L28,14 C28,15.1045695 27.1045695,16 26,16 L0,16 L0,0 Z" transform="translate(0 26)" />
      <text fill="#35C9A9" font-family="SourceSansPro-Regular, Source Sans Pro" font-size="10" letter-spacing=".091">
        <tspan x="3" y="36">.SVG</tspan>
      </text>
    </g>
  </symbol>
  <symbol viewBox="0 0 42 56" id="icon--file-thumbnail-txt">
    <g fill="none" fill-rule="evenodd">
      <path fill="#788A9B" fill-rule="nonzero" d="M-5.10702591e-14,42 L1,42 L1,26 L-5.10702591e-14,26 L-5.10702591e-14,4 C-5.13408006e-14,1.790861 1.790861,-4.54341539e-13 4,-4.53552904e-13 L28.1715729,-4.4986237e-13 C28.7020059,-4.4901757e-13 29.2107137,0.210713681 29.5857864,0.585786438 L41.4142136,12.4142136 C41.7892863,12.7892863 42,13.2979941 42,13.8284271 L42,52 C42,54.209139 40.209139,56 38,56 L4,56 C1.790861,56 -4.946745e-14,54.209139 -4.97379915e-14,52 L-5.00155473e-14,42 Z M28,1 L4,1 C2.34314575,1 1,2.34314575 1,4 L1,52 C1,53.6568542 2.34314575,55 4,55 L38,55 C39.6568542,55 41,53.6568542 41,52 L41,14 L30.5,14 C29.1192881,14 28,12.8807119 28,11.5 L28,1 Z M29,1.41421356 L29,11.5 C29,12.3284271 29.6715729,13 30.5,13 L40.5857864,13 L29,1.41421356 Z"
      />
      <g transform="translate(0 26)">
        <path fill="#F1F3F5" d="M0,0 L23,0 C24.1045695,-2.16501571e-15 25,0.8954305 25,2 L25,14 C25,15.1045695 24.1045695,16 23,16 L0,16 L0,0 Z" />
        <path fill="#788A9B" d="M4.25,11.12 C4.0833325,11.12 3.94166725,11.0616672 3.825,10.945 C3.70833275,10.8283328 3.65,10.6800009 3.65,10.5 C3.65,10.3066657 3.70833275,10.1516672 3.825,10.035 C3.94166725,9.91833275 4.0833325,9.86 4.25,9.86 C4.4100008,9.86 4.54833275,9.91833275 4.665,10.035 C4.78166725,10.1516672 4.84,10.3066657 4.84,10.5 C4.84,10.6800009 4.78166725,10.8283328 4.665,10.945 C4.54833275,11.0616672 4.4100008,11.12 4.25,11.12 Z M6.85090909,11 L6.85090909,5.14 L4.87090909,5.14 L4.87090909,4.44 L9.67090909,4.44 L9.67090909,5.14 L7.69090909,5.14 L7.69090909,11 L6.85090909,11 Z M9.99181818,11 L11.9018182,7.61 L10.1218182,4.44 L11.0418182,4.44 L11.9318182,6.12 C12.0184853,6.2733341 12.1001511,6.42166595 12.1768182,6.565 C12.2534852,6.70833405 12.3418177,6.8766657 12.4418182,7.07 L12.4818182,7.07 C12.575152,6.8766657 12.6568178,6.70833405 12.7268182,6.565 C12.7968185,6.42166595 12.8718178,6.2733341 12.9518182,6.12 L13.8218182,4.44 L14.7018182,4.44 L12.9118182,7.65 L14.8218182,11 L13.9018182,11 L12.9418182,9.23 C12.8551511,9.0699992 12.7668186,8.90500085 12.6768182,8.735 C12.5868177,8.56499915 12.4884854,8.380001 12.3818182,8.18 L12.3418182,8.18 C12.2484844,8.380001 12.1584853,8.56499915 12.0718182,8.735 C11.9851511,8.90500085 11.9018186,9.0699992 11.8218182,9.23 L10.8718182,11 L9.99181818,11 Z M17.1227273,11 L17.1227273,5.14 L15.1427273,5.14 L15.1427273,4.44 L19.9427273,4.44 L19.9427273,5.14 L17.9627273,5.14 L17.9627273,11 L17.1227273,11 Z"
        /> </g>
    </g>
  </symbol>
  <symbol viewBox="0 0 42 56" id="icon--file-thumbnail-xls">
    <g fill="none" fill-rule="evenodd">
      <path fill="#49A314" fill-rule="nonzero" d="M-5.10702591e-14,42 L1,42 L1,26 L-5.10702591e-14,26 L-5.10702591e-14,4 C-5.13408006e-14,1.790861 1.790861,-4.54341539e-13 4,-4.53552904e-13 L28.1715729,-4.4986237e-13 C28.7020059,-4.4901757e-13 29.2107137,0.210713681 29.5857864,0.585786438 L41.4142136,12.4142136 C41.7892863,12.7892863 42,13.2979941 42,13.8284271 L42,52 C42,54.209139 40.209139,56 38,56 L4,56 C1.790861,56 -4.946745e-14,54.209139 -4.97379915e-14,52 L-5.00155473e-14,42 Z M28,1 L4,1 C2.34314575,1 1,2.34314575 1,4 L1,52 C1,53.6568542 2.34314575,55 4,55 L38,55 C39.6568542,55 41,53.6568542 41,52 L41,14 L30.5,14 C29.1192881,14 28,12.8807119 28,11.5 L28,1 Z M29,1.41421356 L29,11.5 C29,12.3284271 29.6715729,13 30.5,13 L40.5857864,13 L29,1.41421356 Z"
      />
      <g transform="translate(0 26)">
        <path fill="#F1FAE6" d="M0,0 L24,0 C25.1045695,-2.02906125e-16 26,0.8954305 26,2 L26,14 C26,15.1045695 25.1045695,16 24,16 L0,16 L0,0 Z" />
        <path fill="#49A314" d="M4.25,11.12 C4.0833325,11.12 3.94166725,11.0616672 3.825,10.945 C3.70833275,10.8283327 3.65,10.6800009 3.65,10.5 C3.65,10.3066657 3.70833275,10.1516672 3.825,10.035 C3.94166725,9.91833275 4.0833325,9.86 4.25,9.86 C4.4100008,9.86 4.54833275,9.91833275 4.665,10.035 C4.78166725,10.1516672 4.84,10.3066657 4.84,10.5 C4.84,10.6800009 4.78166725,10.8283327 4.665,10.945 C4.54833275,11.0616672 4.4100008,11.12 4.25,11.12 Z M5.73090909,11 L7.64090909,7.61 L5.86090909,4.44 L6.78090909,4.44 L7.67090909,6.12 C7.75757619,6.2733341 7.83924204,6.42166595 7.91590909,6.565 C7.99257614,6.70833405 8.08090859,6.8766657 8.18090909,7.07 L8.22090909,7.07 C8.31424289,6.8766657 8.39590874,6.70833405 8.46590909,6.565 C8.53590944,6.42166595 8.61090869,6.2733341 8.69090909,6.12 L9.56090909,4.44 L10.4409091,4.44 L8.65090909,7.65 L10.5609091,11 L9.64090909,11 L8.68090909,9.23 C8.59424199,9.0699992 8.50590954,8.90500085 8.41590909,8.735 C8.32590864,8.56499915 8.22757629,8.380001 8.12090909,8.18 L8.08090909,8.18 C7.98757529,8.380001 7.89757619,8.56499915 7.81090909,8.735 C7.72424199,8.90500085 7.64090949,9.0699992 7.56090909,9.23 L6.61090909,11 L5.73090909,11 Z M11.7018182,11 L11.7018182,4.44 L12.5318182,4.44 L12.5318182,10.29 L15.4018182,10.29 L15.4018182,11 L11.7018182,11 Z M18.2527273,11.12 C17.792725,11.12 17.3660626,11.0333342 16.9727273,10.86 C16.579392,10.6866658 16.2393954,10.4500015 15.9527273,10.15 L16.4527273,9.57 C16.6860618,9.8166679 16.961059,10.0149992 17.2777273,10.165 C17.5943955,10.3150007 17.9227256,10.39 18.2627273,10.39 C18.6960628,10.39 19.0327261,10.2916676 19.2727273,10.095 C19.5127285,9.89833235 19.6327273,9.6400016 19.6327273,9.32 C19.6327273,9.1533325 19.6043942,9.01166725 19.5477273,8.895 C19.4910603,8.77833275 19.4143944,8.67833375 19.3177273,8.595 C19.2210601,8.51166625 19.1060613,8.436667 18.9727273,8.37 C18.8393933,8.303333 18.6960614,8.2333337 18.5427273,8.16 L17.6027273,7.75 C17.4493932,7.683333 17.2927281,7.6033338 17.1327273,7.51 C16.9727265,7.4166662 16.8293946,7.303334 16.7027273,7.17 C16.57606,7.036666 16.4727277,6.87833425 16.3927273,6.695 C16.3127269,6.51166575 16.2727273,6.3000012 16.2727273,6.06 C16.2727273,5.8133321 16.3243934,5.5833344 16.4277273,5.37 C16.5310611,5.1566656 16.674393,4.97166745 16.8577273,4.815 C17.0410615,4.65833255 17.257726,4.5366671 17.5077273,4.45 C17.7577285,4.3633329 18.0327258,4.32 18.3327273,4.32 C18.7260626,4.32 19.0893923,4.39499925 19.4227273,4.545 C19.7560623,4.69500075 20.0393928,4.8899988 20.2727273,5.13 L19.8227273,5.67 C19.6227263,5.4766657 19.4010618,5.32500055 19.1577273,5.215 C18.9143927,5.10499945 18.6393955,5.05 18.3327273,5.05 C17.9660588,5.05 17.6710617,5.13499915 17.4477273,5.305 C17.2243928,5.47500085 17.1127273,5.7099985 17.1127273,6.01 C17.1127273,6.1700008 17.1443936,6.30499945 17.2077273,6.415 C17.2710609,6.52500055 17.3560601,6.62166625 17.4627273,6.705 C17.5693945,6.78833375 17.68606,6.86166635 17.8127273,6.925 C17.9393946,6.98833365 18.0693933,7.0466664 18.2027273,7.1 L19.1327273,7.5 C19.3193949,7.5800004 19.4960598,7.67166615 19.6627273,7.775 C19.8293948,7.87833385 19.9727267,7.99833265 20.0927273,8.135 C20.2127279,8.27166735 20.3077269,8.43166575 20.3777273,8.615 C20.4477276,8.79833425 20.4827273,9.0099988 20.4827273,9.25 C20.4827273,9.5100013 20.4310611,9.7533322 20.3277273,9.98 C20.2243934,10.2066678 20.0760616,10.4049992 19.8827273,10.575 C19.689393,10.7450009 19.456062,10.8783328 19.1827273,10.975 C18.9093926,11.0716671 18.5993957,11.12 18.2527273,11.12 Z"
        /> </g>
    </g>
  </symbol>
  <symbol viewBox="0 0 16 16" id="icon--file-type-media">
    <g fill="none" fill-rule="evenodd">
      <path fill="#F5EDFD" d="M3,3 L13,3 C13.5522847,3 14,3.44771525 14,4 L14,12 C14,12.5522847 13.5522847,13 13,13 L3,13 C2.44771525,13 2,12.5522847 2,12 L2,4 C2,3.44771525 2.44771525,3 3,3 Z" />
      <path fill="#932AEF" fill-rule="nonzero" d="M3,3 L13,3 C13.5522847,3 14,3.44771525 14,4 L14,12 C14,12.5522847 13.5522847,13 13,13 L3,13 C2.44771525,13 2,12.5522847 2,12 L2,4 C2,3.44771525 2.44771525,3 3,3 Z M3,4 L3,12 L13,12 L13,4 L3,4 Z M7,6.37370342 C7,6.33421842 7.01168761,6.29561688 7.03358994,6.26276338 C7.09486043,6.17085764 7.2190343,6.14602287 7.31094004,6.20729336 L9.75038491,7.83358994 C9.77235537,7.84823691 9.79120796,7.8670895 9.80585493,7.88905996 C9.86712542,7.9809657 9.84229065,8.10513957 9.75038491,8.16641006 L7.31094004,9.79270664 C7.27808654,9.81460898 7.239485,9.82629658 7.2,9.82629658 C7.08954305,9.82629658 7,9.73675353 7,9.62629658 L7,6.37370342 Z"
      /> </g>
  </symbol>
  <symbol viewBox="0 0 16 16" id="icon--file-type-pdf">
    <g fill="none" fill-rule="evenodd">
      <path fill="#FBECEA" d="M4,2 L10,2 C11.6568542,2 13,3.34314575 13,5 L13,13 C13,13.5522847 12.5522847,14 12,14 L4,14 C3.44771525,14 3,13.5522847 3,13 L3,3 C3,2.44771525 3.44771525,2 4,2 Z M10,5 L12,5 C12,3.8954305 11.1045695,3 10,3 L10,5 Z" />
      <path fill="#D23F26" fill-rule="nonzero" d="M6,11 L10,11 L10,10 L6,10 L6,11 Z M5,11 L5,10 L5,9 L11,9 L11,10 L11,11 L11,12 L5,12 L5,11 Z M9,3 L4,3 L4,13 L12,13 L12,6 L10,6 C9.44771525,6 9,5.55228475 9,5 L9,3 Z M4,2 L10,2 C11.6568542,2 13,3.34314575 13,5 L13,13 C13,13.5522847 12.5522847,14 12,14 L4,14 C3.44771525,14 3,13.5522847 3,13 L3,3 C3,2.44771525 3.44771525,2 4,2 Z M10,5 L12,5 C12,3.8954305 11.1045695,3 10,3 L10,5 Z M5,5 L8,5 L8,6 L5,6 L5,5 Z M5,7 L11,7 L11,8 L5,8 L5,7 Z"
      /> </g>
  </symbol>
  <symbol viewBox="0 0 16 16" id="icon--file-type-tabledata">
    <g fill="none" fill-rule="evenodd">
      <path fill="#F1FAE6" d="M4,2 L10,2 C11.6568542,2 13,3.34314575 13,5 L13,13 C13,13.5522847 12.5522847,14 12,14 L4,14 C3.44771525,14 3,13.5522847 3,13 L3,3 C3,2.44771525 3.44771525,2 4,2 Z M10,5 L12,5 C12,3.8954305 11.1045695,3 10,3 L10,5 Z" />
      <path fill="#49A314" fill-rule="nonzero" d="M7,10 L9,10 L9,8 L7,8 L7,10 Z M6,10 L6,8 L4,8 L4,7 L6,7 L6,5 L4,5 L4,4 L7,4 L7,5 L7,7 L12,7 L12,8 L10,8 L10,10 L12,10 L12,11 L10,11 L10,13 L9,13 L9,11 L7,11 L7,13 L6,13 L6,11 L4,11 L4,10 L6,10 Z M9,3 L4,3 L4,13 L12,13 L12,6 L10,6 C9.44771525,6 9,5.55228475 9,5 L9,3 Z M4,2 L10,2 C11.6568542,2 13,3.34314575 13,5 L13,13 C13,13.5522847 12.5522847,14 12,14 L4,14 C3.44771525,14 3,13.5522847 3,13 L3,3 C3,2.44771525 3.44771525,2 4,2 Z M10,5 L12,5 C12,3.8954305 11.1045695,3 10,3 L10,5 Z"
      /> </g>
  </symbol>
  <symbol viewBox="0 0 16 16" id="icon--file-type-text">
    <g fill="none" fill-rule="evenodd">
      <path fill="#F1F3F5" d="M4,2 L10,2 C11.6568542,2 13,3.34314575 13,5 L13,13 C13,13.5522847 12.5522847,14 12,14 L4,14 C3.44771525,14 3,13.5522847 3,13 L3,3 C3,2.44771525 3.44771525,2 4,2 Z M10,5 L12,5 C12,3.8954305 11.1045695,3 10,3 L10,5 Z" />
      <path fill="#788A9B" fill-rule="nonzero" d="M9,3 L4,3 L4,13 L12,13 L12,6 L10,6 C9.44771525,6 9,5.55228475 9,5 L9,3 Z M4,2 L10,2 C11.6568542,2 13,3.34314575 13,5 L13,13 C13,13.5522847 12.5522847,14 12,14 L4,14 C3.44771525,14 3,13.5522847 3,13 L3,3 C3,2.44771525 3.44771525,2 4,2 Z M10,5 L12,5 C12,3.8954305 11.1045695,3 10,3 L10,5 Z M5,5 L8,5 L8,6 L5,6 L5,5 Z M5,7 L11,7 L11,8 L5,8 L5,7 Z M5,9 L11,9 L11,10 L5,10 L5,9 Z M5,11 L8,11 L8,12 L5,12 L5,11 Z"
      /> </g>
  </symbol>
  <symbol viewBox="0 0 32 24" id="icon--folder-breadcums-dropdown">
    <g fill="none" fill-rule="evenodd">
      <path fill="#E8F6FF" stroke="#189EFF" d="M2,0.5 C1.17157288,0.5 0.5,1.17157288 0.5,2 L0.5,22 C0.5,22.8284271 1.17157288,23.5 2,23.5 L30,23.5 C30.8284271,23.5 31.5,22.8284271 31.5,22 L31.5,6 C31.5,5.17157288 30.8284271,4.5 30,4.5 L15.8284271,4.5 C15.1653859,4.5 14.5295011,4.2366079 14.0606602,3.76776695 L11.232233,0.939339828 C10.9509285,0.658035261 10.5693976,0.5 10.1715729,0.5 L2,0.5 Z"
      />
      <path fill="#189EFF" d="M14.7071068,12.2928932 C14.3165825,11.9023689 13.6834175,11.9023689 13.2928932,12.2928932 C12.9023689,12.6834175 12.9023689,13.3165825 13.2928932,13.7071068 L15.2928932,15.7071068 C15.6834175,16.0976311 16.3165825,16.0976311 16.7071068,15.7071068 L18.7071068,13.7071068 C19.0976311,13.3165825 19.0976311,12.6834175 18.7071068,12.2928932 C18.3165825,11.9023689 17.6834175,11.9023689 17.2928932,12.2928932 L16,13.5857864 L14.7071068,12.2928932 Z"
      transform="matrix(-1 0 0 1 32 0)" /> </g>
  </symbol>
  <symbol viewBox="0 0 32 24" id="icon--folder-breadcums">
    <g fill="none" fill-rule="evenodd">
      <path fill="#E2F3FE" d="M2,2.66453526e-15 L10.1715729,0 C10.7020059,-9.74389576e-17 11.2107137,0.210713681 11.5857864,0.585786438 L14.4142136,3.41421356 C14.7892863,3.78928632 15.2979941,4 15.8284271,4 L30,4 C31.1045695,4 32,4.8954305 32,6 L32,22 C32,23.1045695 31.1045695,24 30,24 L2,24 C0.8954305,24 1.3527075e-16,23.1045695 0,22 L0,2 C-1.3527075e-16,0.8954305 0.8954305,2.86744138e-15 2,2.66453526e-15 Z"
      />
      <path fill="#189EFF" fill-rule="nonzero" d="M2,1 C1.44771525,1 1,1.44771525 1,2 L1,22 C1,22.5522847 1.44771525,23 2,23 L30,23 C30.5522847,23 31,22.5522847 31,22 L31,6 C31,5.44771525 30.5522847,5 30,5 L15.8284271,5 C15.0327777,5 14.2697159,4.68392948 13.7071068,4.12132034 L10.8786797,1.29289322 C10.6911433,1.10535684 10.4367894,1 10.1715729,1 L2,1 Z M2,0 L10.1715729,-2.66453526e-15 C10.7020059,-2.76197422e-15 11.2107137,0.210713681 11.5857864,0.585786438 L14.4142136,3.41421356 C14.7892863,3.78928632 15.2979941,4 15.8284271,4 L30,4 C31.1045695,4 32,4.8954305 32,6 L32,22 C32,23.1045695 31.1045695,24 30,24 L2,24 C0.8954305,24 1.3527075e-16,23.1045695 0,22 L0,2 C-1.3527075e-16,0.8954305 0.8954305,2.02906125e-16 2,0 Z"
      /> </g>
  </symbol>
  <symbol viewBox="0 0 64 56" id="icon--folder-thumbnail">
    <g fill="none" fill-rule="evenodd">
      <path fill="#E2F3FE" d="M4,2.66930903e-16 L20.3232709,2.22044605e-15 C21.2063906,2.05821958e-15 22.044649,0.389107864 22.6146638,1.06363264 L28.1920744,7.66364009 C28.7620891,8.33816486 29.6003475,8.72727273 30.4834673,8.72727273 L60,8.72727273 C62.209139,8.72727273 64,10.5181337 64,12.7272727 L64,52 C64,54.209139 62.209139,56 60,56 L4,56 C1.790861,56 2.705415e-16,54.209139 0,52 L0,4 C-2.705415e-16,1.790861 1.790861,4.05812251e-16 4,2.66930903e-16 Z"
      />
      <path fill="#189EFF" fill-rule="nonzero" d="M4,1 C2.34314575,1 1,2.34314575 1,4 L1,52 C1,53.6568542 2.34314575,55 4,55 L60,55 C61.6568542,55 63,53.6568542 63,52 L63,12.7272727 C63,11.0704185 61.6568542,9.72727273 60,9.72727273 L30.4834673,9.72727273 C29.3059743,9.72727273 28.1882964,9.20846224 27.4282767,8.30909587 L21.8508662,1.70908843 C21.4708563,1.25940524 20.9120174,1 20.3232709,1 L4,1 Z M4,2.66930903e-16 L20.3232709,2.22044605e-15 C21.2063906,2.05821958e-15 22.044649,0.389107864 22.6146638,1.06363264 L28.1920744,7.66364009 C28.7620891,8.33816486 29.6003475,8.72727273 30.4834673,8.72727273 L60,8.72727273 C62.209139,8.72727273 64,10.5181337 64,12.7272727 L64,52 C64,54.209139 62.209139,56 60,56 L4,56 C1.790861,56 2.705415e-16,54.209139 0,52 L0,4 C-2.705415e-16,1.790861 1.790861,4.05812251e-16 4,2.66930903e-16 Z"
      /> </g>
  </symbol>
  <symbol viewBox="0 0 16 16" id="icon--folder-tree-open">
    <g fill="none" fill-rule="evenodd">
      <path fill="#E2F3FE" d="M5.05630452,5 L13.9777811,5 C14.5300659,5 14.9777811,5.44771525 14.9777811,6 C14.9777811,6.0920622 14.9650683,6.18368344 14.9400027,6.27226767 L12.9593012,13.2722677 C12.8374815,13.7027907 12.4445058,14 11.9970796,14 L3.075603,14 C2.52331825,14 2.075603,13.5522847 2.075603,13 C2.075603,12.9079378 2.08831589,12.8163166 2.11338145,12.7277323 L4.09408297,5.72773233 C4.21590264,5.29720926 4.60887839,5 5.05630452,5 Z"
      />
      <path fill="#189EFF" fill-rule="nonzero" d="M11.0193207,5 L13.9777811,5 C14.5300659,5 14.9777811,5.44771525 14.9777811,6 C14.9777811,6.0920622 14.9650683,6.18368344 14.9400027,6.27226767 L12.9593012,13.2722677 C12.8374815,13.7027907 12.4445058,14 11.9970796,14 L11.870963,14 L2.81824596,14 C2.30104276,14 1.86917813,13.6056149 1.82235276,13.0905357 L1.00417094,4.09053575 C0.954169427,3.54051912 1.35951177,3.05410831 1.9095284,3.00410679 C1.93962941,3.00137034 1.96983901,3 2.00006414,3 L7.40503133,3 L8.40503133,5 L11.0193207,5 Z M7.28699734,5 L6.78699734,4 L2.00006414,4 L2.6281186,10.908599 L4.09408297,5.72773233 C4.21590264,5.29720926 4.60887839,5 5.05630452,5 L7.28699734,5 Z M5.05630452,6 L3.075603,13 L11.9970796,13 L13.9777811,6 L5.05630452,6 Z"
      /> </g>
  </symbol>
  <symbol viewBox="0 0 16 16" id="icon--folder-tree">
    <g fill="none" fill-rule="evenodd">
      <path fill="#E2F3FE" d="M2,2 L6.5,2 L8.5,4 L14,4 C14.5522847,4 15,4.44771525 15,5 L15,13 C15,13.5522847 14.5522847,14 14,14 L2,14 C1.44771525,14 1,13.5522847 1,13 L1,3 C1,2.44771525 1.44771525,2 2,2 Z" />
      <path fill="#189EFF" fill-rule="nonzero" d="M6.08578644,3 L2,3 L2,13 L14,13 L14,5 L8.08578644,5 L6.08578644,3 Z M2,2 L6.5,2 L8.5,4 L14,4 C14.5522847,4 15,4.44771525 15,5 L15,13 C15,13.5522847 14.5522847,14 14,14 L2,14 C1.44771525,14 1,13.5522847 1,13 L1,3 C1,2.44771525 1.44771525,2 2,2 Z"
      /> </g>
  </symbol>
</svg>