<svg version="1.1" xmlns="http://www.w3.org/2000/svg" x="0px" y="0px" width="24" height="24" viewBox="0 0 24 24" enable-background="new 0 0 24 24" xml:space="preserve">
  <g transform="matrix(0.09962018,0,0,0.10022867,-0.74934957,-0.88367143)">
    <path d="m 100.08527,110.36444 57.04233,26.11829 57.66917,-50.565 c 0.83579,-4.178926 1.25368,-8.357851 1.25368,-12.745723 0,-35.520867 -28.83459,-64.3554535 -64.35545,-64.3554535 -21.31252,0 -41.16242,10.4473135 -53.072357,27.9988015 l -9.611529,49.729214 11.074156,23.819871 0,0 z" fill="#aaaaaa" />
      <path d="m 40.95347,170.74992 c -0.835785,4.17892 -1.253677,8.5668 -1.253677,12.95467 0,35.52086 29.043532,64.5644 64.564397,64.5644 21.52147,0 41.37137,-10.65626 53.49025,-28.20775 l 9.40258,-49.72921 -12.74572,-24.23777 -57.251281,-26.11829 -56.206549,50.77395 0,0 z" fill="#aaaaaa" />
      <path d="m 40.535578,71.918329 39.072954,9.193637 8.775743,-44.505558 C 82.951672,32.427483 76.474338,30.33802 69.57911,30.33802 c -16.924648,0 -30.924049,13.790454 -30.924049,30.924049 0,3.552087 0.626839,7.31312 1.880517,10.65626 l 0,0 z" fill="#aaaaaa" />
      <path d="M 37.192437,81.320912 C 19.64095,86.962461 7.522066,103.88711 7.522066,122.27438 c 0,17.96938 11.074153,34.05825 27.789855,40.32663 L 90.264792,112.8718 80.235371,91.350333 37.192437,81.320912 l 0,0 z" fill="#aaaaaa" />
      <path d="m 167.78386,219.85229 c 5.4326,4.17893 11.90994,6.47734 18.59622,6.47734 16.92465,0 30.92405,-13.79046 30.92405,-30.92405 0,-3.76103 -0.62684,-7.31312 -1.88052,-10.65626 l -39.07295,-9.19364 -8.5668,44.29661 0,0 z" fill="#aaaaaa" />
      <path d="m 175.72382,165.31731 43.04293,10.02943 c 17.55149,-5.8505 29.67037,-22.5662 29.67037,-40.95347 0,-17.96938 -11.07415,-33.8493 -27.78985,-40.326635 l -56.4155,49.311325 11.49205,21.93935 0,0 z" fill="#aaaaaa" />
  </g>
</svg>
