<?xml version="1.0" encoding="UTF-8"?>
<svg width="218px" height="229px" viewBox="0 0 218 229" version="1.1" xmlns="http://www.w3.org/2000/svg" xmlns:xlink="http://www.w3.org/1999/xlink">
    <!-- Generator: Sketch 54.1 (76490) - https://sketchapp.com -->
    <title>Logo</title>
    <desc>Created with Sketch.</desc>
    <defs>
        <linearGradient x1="49.9955403%" y1="100.001137%" x2="49.9955403%" y2="-0.00594207592%" id="linearGradient-1">
            <stop stop-color="#B46FFF" offset="0%"></stop>
            <stop stop-color="#4059F0" offset="100%"></stop>
        </linearGradient>
        <linearGradient x1="0.000285268506%" y1="49.9911126%" x2="100.009293%" y2="49.9911126%" id="linearGradient-2">
            <stop stop-color="#B46FFF" offset="0%"></stop>
            <stop stop-color="#4059F0" offset="100%"></stop>
        </linearGradient>
    </defs>
    <g id="Dashboard" stroke="none" stroke-width="1" fill="none" fill-rule="evenodd">
        <g id="Dev-Preview" transform="translate(-1091.000000, -207.000000)" fill-rule="nonzero">
            <g id="Wilkommen" transform="translate(600.000000, 128.000000)">
                <g id="Logo" transform="translate(490.000000, 78.000000)">
                    <g id="Group" opacity="0.78" transform="translate(11.478261, 13.391304)" fill="url(#linearGradient-1)">
                        <path d="M159.126957,15.3808696 C175.426087,25.2904348 188.511304,40.9008696 196.909565,58.7686957 C205.307826,76.6747826 209.01913,96.8 205.786087,115.643478 C202.553043,134.448696 192.375652,151.895652 179.041739,165.86087 C165.707826,179.826087 149.217391,190.271304 131.349565,195.245217 C113.443478,200.21913 94.1217391,199.74087 75.6991304,194.92 C57.3147826,190.06087 39.8869565,180.801739 26.7826087,167.066087 C13.6782609,153.292174 4.93565217,135.003478 1.66434783,115.624348 C-1.56869565,96.226087 0.631304348,75.7565217 8.64695652,57.8313043 C16.6626087,39.906087 30.493913,24.506087 47.2713043,14.7686957 C64.0486957,5.03130435 83.7913043,0.956521739 103.476522,1.05217391 C123.161739,1.14782609 142.770435,5.43304348 159.126957,15.3808696 Z" id="Path"></path>
                    </g>
                    <g id="Group" opacity="0.7" fill="url(#linearGradient-2)">
                        <path d="M152.431304,61.9826087 C167.984348,83.8678261 184.646957,98.2730435 192.433043,120.445217 C200.18087,142.598261 199.090435,172.575652 183.575652,194.728696 C168.06087,216.881739 138.102609,231.306087 110.535652,228.914783 C82.9686957,226.58087 57.773913,207.393043 37.8208696,185.24 C17.8678261,163.029565 3.1373913,137.834783 1.39652174,110.918261 C-0.344347826,83.9826087 10.9426087,55.3634783 30.8956522,33.4782609 C50.8486957,11.5930435 79.4869565,-3.4626087 101.008696,3.65391304 C122.530435,10.7895652 136.935652,40.1547826 152.431304,61.9826087 Z" id="Path"></path>
                    </g>
                    <path d="M159.012174,129.111304 C159.012174,157.003478 135.386087,176.382609 109.808696,176.382609 C84.04,176.382609 60.6052174,157.003478 60.6052174,128.728696 C60.6052174,113.806957 66.9947826,103.744348 78.0330435,89.013913 L110,46.2 L149.332174,46.2 L120.866087,84.7478261 C140.034783,87.2730435 159.012174,104.126957 159.012174,129.111304 Z M126.088696,128.92 C126.088696,119.24 118.723478,112.448696 109.808696,112.448696 C100.702609,112.448696 93.5286957,119.431304 93.5286957,128.92 C93.5286957,138.408696 100.702609,145.773913 109.808696,145.773913 C118.723478,145.773913 126.088696,138.6 126.088696,128.92 Z" id="Shape" fill="#FFFFFF"></path>
                </g>
            </g>
        </g>
    </g>
</svg>