<?xml version="1.0" encoding="UTF-8"?>
<svg width="190px" height="46px" viewBox="0 0 190 46" version="1.1" xmlns="http://www.w3.org/2000/svg" xmlns:xlink="http://www.w3.org/1999/xlink">
    <!-- Generator: sketchtool 54.1 (76490) - https://sketchapp.com -->
    <title>9F3A2923-6AF9-446B-B898-C2C878B209CA@1.00x</title>
    <desc>Created with sketchtool.</desc>
    <g id="Dashboard" stroke="none" stroke-width="1" fill="none" fill-rule="evenodd">
        <g id="Dev-Preview" transform="translate(-650.000000, -626.000000)" fill-rule="nonzero">
            <g id="paypal_logo" transform="translate(650.000000, 626.000000)">
                <path d="M146.30468,10.2955665 L135.892118,10.2955665 C135.179599,10.2958031 134.572722,10.8134335 134.460099,11.5169951 L130.248276,38.2152709 C130.208529,38.4656932 130.280559,38.7209524 130.445349,38.9136577 C130.610139,39.106363 130.851123,39.2171423 131.10468,39.2167488 L136.444335,39.2167488 C136.944661,39.2199929 137.371355,38.85511 137.445813,38.3603448 L138.639163,30.7931034 C138.751786,30.0895419 139.358664,29.5719114 140.071182,29.5716749 L143.347044,29.5716749 C150.202956,29.5716749 154.162069,26.2536946 155.196305,19.6738916 C155.664286,16.7958128 155.196305,14.5261084 153.867241,12.9536946 C152.411823,11.1940887 149.786453,10.2955665 146.30468,10.2955665 Z M147.507389,20.0435961 C146.936453,23.7874384 144.081773,23.7874384 141.32069,23.7874384 L139.748276,23.7874384 L140.862069,16.7864532 C140.92865,16.3646199 141.291421,16.05339 141.718473,16.0517241 L142.439163,16.0517241 C144.311084,16.0517241 146.094089,16.0517241 147.00665,17.123399 C147.544828,17.7832512 147.7133,18.7192118 147.507389,20.0248768 L147.507389,20.0435961 Z" id="Shape" fill="#0099D9"></path>
                <path d="M72.0362069,10.2955665 L61.6236453,10.2955665 C60.9114442,10.2941627 60.3049843,10.8131334 60.1963054,11.5169951 L55.9844828,38.2152709 C55.9447357,38.4656932 56.0167655,38.7209524 56.1815555,38.9136577 C56.3463456,39.106363 56.5873301,39.2171423 56.8408867,39.2167488 L61.8155172,39.2167488 C62.5181054,39.204796 63.1104041,38.6894961 63.2194581,37.9953202 L64.3566502,30.7931034 C64.4671699,30.0902685 65.0725189,29.5722484 65.7839901,29.5716749 L69.0598522,29.5716749 C75.9204433,29.5716749 79.8795567,26.2536946 80.9137931,19.6738916 C81.3817734,16.7958128 80.9137931,14.5261084 79.5847291,12.9536946 C78.1527094,11.1940887 75.5226601,10.2955665 72.0362069,10.2955665 Z M73.2389163,20.0435961 C72.6679803,23.7874384 69.8133005,23.7874384 67.0522167,23.7874384 L65.4844828,23.7874384 L66.5842365,16.8098522 C66.6508171,16.3880189 67.0135883,16.076789 67.4406404,16.0751232 L68.16133,16.0751232 C70.0332512,16.0751232 71.8162562,16.0751232 72.7334975,17.146798 C73.2810345,17.7832512 73.4448276,18.7192118 73.2389163,20.0248768 L73.2389163,20.0435961 Z" id="Shape" fill="#242E7C"></path>
                <path d="M103.161576,19.9078818 L98.1729064,19.9078818 C97.7555293,19.9185395 97.4052134,20.2255579 97.3399015,20.637931 L97.1199507,22.0418719 L96.7502463,21.5270936 C95.6692118,19.9593596 93.2637931,19.4352217 90.8583744,19.4352217 C85.3502463,19.4352217 80.6423645,23.6096059 79.729803,29.4640394 C79.2618227,32.3889163 79.9310345,35.1780788 81.6017241,37.1248768 C83.1273399,38.9172414 85.2987685,39.66133 87.8820197,39.66133 C90.4744543,39.6880043 92.9662534,38.6591869 94.7847291,36.81133 L94.5647783,38.2152709 C94.5250313,38.4656932 94.597061,38.7209524 94.7618511,38.9136577 C94.9266412,39.106363 95.1676256,39.2171423 95.4211823,39.2167488 L99.9091133,39.2167488 C100.621632,39.2165122 101.228509,38.6988818 101.341133,37.9953202 L104.0367,20.9280788 C104.081515,20.6717919 104.009337,20.4088949 103.839942,20.2114188 C103.670548,20.0139426 103.421698,19.9025942 103.161576,19.9078818 Z M96.212069,29.6091133 C95.8110226,32.3869856 93.4023964,34.4303035 90.5963054,34.3731527 C89.331096,34.5029347 88.0830045,34.0020428 87.2585344,33.0336176 C86.4340643,32.0651925 86.138729,30.7531702 86.4687192,29.5248768 C86.8632374,26.750074 89.2538587,24.6978238 92.0564039,24.7280788 C93.3109288,24.6623017 94.5293302,25.1599586 95.379064,26.0852217 C96.1611992,27.0803113 96.4658631,28.3691426 96.212069,29.6091133 L96.212069,29.6091133 Z" id="Shape" fill="#242E7C"></path>
                <path d="M177.425369,19.9078818 L172.441379,19.9078818 C172.014386,19.9052307 171.649946,20.2159015 171.584975,20.637931 L171.365025,22.0418719 L171.014039,21.5270936 C169.933005,19.9593596 167.527586,19.4352217 165.126847,19.4352217 C159.618719,19.4352217 154.910837,23.6096059 153.993596,29.4640394 C153.525616,32.3889163 154.194828,35.1780788 155.865517,37.1248768 C157.386453,38.9172414 159.557882,39.66133 162.145813,39.66133 C164.738247,39.6880043 167.230047,38.6591869 169.048522,36.81133 L168.823892,38.2152709 C168.78568,38.4662105 168.858909,38.7213283 169.024397,38.9137979 C169.189885,39.1062675 169.431143,39.216912 169.684975,39.2167488 L174.172906,39.2167488 C174.885107,39.2181525 175.491567,38.6991819 175.600246,37.9953202 L178.300493,20.9093596 C178.340829,20.6556691 178.266427,20.3971659 178.0974,20.2037342 C177.928373,20.0103024 177.682177,19.901918 177.425369,19.9078818 L177.425369,19.9078818 Z M170.475862,29.6091133 C170.074816,32.3869856 167.66619,34.4303035 164.860099,34.3731527 C163.594111,34.5046161 162.344542,34.0044446 161.518916,33.0357604 C160.693291,32.0670761 160.397433,30.7540404 160.727833,29.5248768 C161.122351,26.750074 163.512972,24.6978238 166.315517,24.7280788 C167.571646,24.660881 168.79206,25.1586589 169.642857,26.0852217 C170.427357,27.0791703 170.732281,28.3691043 170.475862,29.6091133 L170.475862,29.6091133 Z" id="Shape" fill="#0099D9"></path>
                <path d="M129.714778,19.9078818 L124.702709,19.9078818 C124.223938,19.9093163 123.77629,20.1453809 123.50468,20.5396552 L116.592611,30.7229064 L113.663054,20.9374384 C113.478598,20.3184647 112.904907,19.897758 112.259113,19.9078818 L107.35,19.9078818 C107.069241,19.9073564 106.80566,20.0430091 106.642912,20.2717863 C106.480164,20.5005634 106.438459,20.7940554 106.531034,21.0591133 L112.048522,37.2512315 L106.858621,44.5751232 C106.672252,44.8401051 106.648458,45.1866639 106.796864,45.4746301 C106.94527,45.7625964 107.241319,45.9443217 107.565271,45.9463054 L112.57266,45.9463054 C113.04659,45.9447439 113.490079,45.7125231 113.76133,45.3238916 L130.426108,21.2697044 C130.611207,21.0049428 130.633502,20.6591498 130.483937,20.3728103 C130.334371,20.0864708 130.037826,19.9072199 129.714778,19.9078818 L129.714778,19.9078818 Z" id="Path" fill="#242E7C"></path>
                <path d="M183.303202,11.0068966 L179.030542,38.1965517 C178.990795,38.4469739 179.062825,38.7022332 179.227615,38.8949385 C179.392405,39.0876438 179.633389,39.1984231 179.886946,39.1980296 L184.183005,39.1980296 C184.895524,39.197793 185.502401,38.6801625 185.615025,37.976601 L189.826847,11.3017241 C189.868121,11.0505754 189.796793,10.7939879 189.631824,10.6001722 C189.466855,10.4063564 189.22496,10.2949492 188.970443,10.2955665 L184.159606,10.2955665 C183.73932,10.2933706 183.378167,10.593345 183.303202,11.0068966 L183.303202,11.0068966 Z" id="Path" fill="#0099D9"></path>
                <path d="M35.5665025,11.6714286 C36.1280788,8.10073892 35.5665025,5.66724138 33.629064,3.46305419 C31.4903941,1.03891626 27.6482759,3.78387643e-16 22.729803,3.78387643e-16 L8.44704433,3.78387643e-16 C7.44090965,-0.000412343658 6.58466163,0.732663112 6.43004926,1.72684729 L0.467980296,39.4320197 C0.416341799,39.7842879 0.520374271,40.1416061 0.75303767,40.4111004 C0.98570107,40.6805947 1.3240165,40.8356486 1.68004926,40.8359606 L10.5108374,40.8359606 L9.90246305,44.6921182 C9.85317413,45.0017516 9.94195122,45.31744 10.1454013,45.5559988 C10.3488514,45.7945575 10.6465667,45.9320571 10.9600985,45.932266 L18.3916256,45.932266 C19.2596092,45.9343595 20.0036755,45.3126596 20.1559113,44.4581281 L20.2307882,44.079064 L21.6347291,35.1874384 L21.7236453,34.6960591 C21.8616226,33.828506 22.6094745,33.1897571 23.487931,33.1891626 L24.6017241,33.1891626 C31.7992611,33.1891626 37.4384236,30.2642857 39.1091133,21.803202 C39.7783251,18.2512315 39.4133005,15.3169951 37.5928571,13.2438424 C37.0176951,12.6018603 36.3312026,12.0691548 35.5665025,11.6714286 L35.5665025,11.6714286" id="Path" fill="#0099D9"></path>
                <path d="M35.5665025,11.6714286 C36.1280788,8.10073892 35.5665025,5.66724138 33.629064,3.46305419 C31.4903941,1.03891626 27.6482759,3.78387643e-16 22.729803,3.78387643e-16 L8.44704433,3.78387643e-16 C7.44090965,-0.000412343658 6.58466163,0.732663112 6.43004926,1.72684729 L0.467980296,39.4320197 C0.416341799,39.7842879 0.520374271,40.1416061 0.75303767,40.4111004 C0.98570107,40.6805947 1.3240165,40.8356486 1.68004926,40.8359606 L10.5108374,40.8359606 L12.7243842,26.7965517 L12.6541872,27.2364532 C12.8085256,26.2440195 13.6621413,25.5114981 14.6665025,25.5096059 L18.8783251,25.5096059 C27.1100985,25.5096059 33.5541872,22.1682266 35.435468,12.4997537 C35.4916256,12.2142857 35.5384236,11.9381773 35.5805419,11.662069" id="Path" fill="#271D67"></path>
                <path d="M15.1017241,11.7229064 C15.2360588,10.8507098 15.988215,10.2079943 16.8706897,10.21133 L28.0788177,10.21133 C29.3148564,10.2037461 30.5495395,10.2945086 31.7711823,10.4827586 C32.0940887,10.5342365 32.4076355,10.5903941 32.7071429,10.6605911 C33.0066502,10.7307882 33.3108374,10.805665 33.5963054,10.8899015 C33.7413793,10.9273399 33.8817734,10.9741379 34.0174877,11.020936 C34.5506339,11.1953423 35.0686856,11.4128927 35.5665025,11.6714286 C36.1280788,8.10073892 35.5665025,5.66724138 33.629064,3.46305419 C31.4903941,1.03891626 27.6482759,3.78387643e-16 22.729803,3.78387643e-16 L8.44704433,3.78387643e-16 C7.44090965,-0.000412343658 6.58466163,0.732663112 6.43004926,1.72684729 L0.467980296,39.4320197 C0.416341799,39.7842879 0.520374271,40.1416061 0.75303767,40.4111004 C0.98570107,40.6805947 1.3240165,40.8356486 1.68004926,40.8359606 L10.5108374,40.8359606 L12.7243842,26.7965517 L15.1017241,11.7229064 Z" id="Path" fill="#242E7C"></path>
            </g>
        </g>
    </g>
</svg>