<svg xmlns="http://www.w3.org/2000/svg" xmlns:xlink="http://www.w3.org/1999/xlink">
  <symbol viewBox="0 0 42 56" id="icon--file-thumbnail-doc">
    <g fill="none" fill-rule="evenodd">
      <path fill="#2E73DC" fill-rule="nonzero" d="M28,1 L4,1 C2.34314575,1 1,2.34314575 1,4 L1,52 C1,53.6568542 2.34314575,55 4,55 L38,55 C39.6568542,55 41,53.6568542 41,52 L41,14 L30.5,14 C29.1192881,14 28,12.8807119 28,11.5 L28,1 Z M29,1.41421356 L29,11.5 C29,12.3284271 29.6715729,13 30.5,13 L40.5857864,13 L29,1.41421356 Z M4,-4.53552904e-13 L28.1715729,-4.4986237e-13 C28.7020059,-4.4901757e-13 29.2107137,0.210713681 29.5857864,0.585786438 L41.4142136,12.4142136 C41.7892863,12.7892863 42,13.2979941 42,13.8284271 L42,52 C42,54.209139 40.209139,56 38,56 L4,56 C1.790861,56 -4.81351824e-14,54.209139 -4.84057239e-14,52 L-4.97379915e-14,4 C-5.0008533e-14,1.790861 1.790861,-4.54341539e-13 4,-4.53552904e-13 Z"
      />
      <path fill="#EAF1FB" d="M0,26 L26,26 C27.1045695,26 28,26.8954305 28,28 L28,40 C28,41.1045695 27.1045695,42 26,42 L0,42 L0,26 Z" />
      <text fill="#2E73DC" font-family="SourceSansPro-Regular, Source Sans Pro" font-size="10" letter-spacing=".091">
        <tspan x="3" y="36">.DOC</tspan>
      </text>
    </g>
  </symbol>
  <symbol viewBox="0 0 42 56" id="icon--file-thumbnail-jpg">
    <g fill="none" fill-rule="evenodd">
      <path fill="#E07F02" fill-rule="nonzero" d="M28,1 L4,1 C2.34314575,1 1,2.34314575 1,4 L1,52 C1,53.6568542 2.34314575,55 4,55 L38,55 C39.6568542,55 41,53.6568542 41,52 L41,14 L30.5,14 C29.1192881,14 28,12.8807119 28,11.5 L28,1 Z M29,1.41421356 L29,11.5 C29,12.3284271 29.6715729,13 30.5,13 L40.5857864,13 L29,1.41421356 Z M4,-4.53552904e-13 L28.1715729,-4.4986237e-13 C28.7020059,-4.4901757e-13 29.2107137,0.210713681 29.5857864,0.585786438 L41.4142136,12.4142136 C41.7892863,12.7892863 42,13.2979941 42,13.8284271 L42,52 C42,54.209139 40.209139,56 38,56 L4,56 C1.790861,56 -4.81351824e-14,54.209139 -4.84057239e-14,52 L-4.97379915e-14,4 C-5.0008533e-14,1.790861 1.790861,-4.54341539e-13 4,-4.53552904e-13 Z"
      />
      <path fill="#FEF5E6" d="M0,26 L26,26 C27.1045695,26 28,26.8954305 28,28 L28,40 C28,41.1045695 27.1045695,42 26,42 L0,42 L0,26 Z" />
      <text fill="#E07F02" font-family="SourceSansPro-Regular, Source Sans Pro" font-size="10" letter-spacing=".091">
        <tspan x="3" y="36">.JPG</tspan>
      </text>
    </g>
  </symbol>
  <symbol viewBox="0 0 42 56" id="icon--file-thumbnail-mov">
    <g fill="none" fill-rule="evenodd">
      <path fill="#932AEF" fill-rule="nonzero" d="M28,1 L4,1 C2.34314575,1 1,2.34314575 1,4 L1,52 C1,53.6568542 2.34314575,55 4,55 L38,55 C39.6568542,55 41,53.6568542 41,52 L41,14 L30.5,14 C29.1192881,14 28,12.8807119 28,11.5 L28,1 Z M29,1.41421356 L29,11.5 C29,12.3284271 29.6715729,13 30.5,13 L40.5857864,13 L29,1.41421356 Z M4,-4.53552904e-13 L28.1715729,-4.4986237e-13 C28.7020059,-4.4901757e-13 29.2107137,0.210713681 29.5857864,0.585786438 L41.4142136,12.4142136 C41.7892863,12.7892863 42,13.2979941 42,13.8284271 L42,52 C42,54.209139 40.209139,56 38,56 L4,56 C1.790861,56 -4.81351824e-14,54.209139 -4.84057239e-14,52 L-4.97379915e-14,4 C-5.0008533e-14,1.790861 1.790861,-4.54341539e-13 4,-4.53552904e-13 Z"
      />
      <g transform="translate(0 26)">
        <path fill="#F5EDFD" d="M0,0 L28,0 C29.1045695,-2.16501571e-15 30,0.8954305 30,2 L30,14 C30,15.1045695 29.1045695,16 28,16 L0,16 L0,0 Z" />
        <text fill="#932AEF" font-family="SourceSansPro-Regular, Source Sans Pro" font-size="10" letter-spacing=".091">
          <tspan x="3" y="10">.MOV</tspan>
        </text>
      </g>
    </g>
  </symbol>
  <symbol viewBox="0 0 42 56" id="icon--file-thumbnail-normal">
    <path fill="#788A9B" d="M28,1 L4,1 C2.34314575,1 1,2.34314575 1,4 L1,52 C1,53.6568542 2.34314575,55 4,55 L38,55 C39.6568542,55 41,53.6568542 41,52 L41,14 L30.5,14 C29.1192881,14 28,12.8807119 28,11.5 L28,1 Z M29,1.41421356 L29,11.5 C29,12.3284271 29.6715729,13 30.5,13 L40.5857864,13 L29,1.41421356 Z M4,-4.53552904e-13 L28.1715729,-4.4986237e-13 C28.7020059,-4.4901757e-13 29.2107137,0.210713681 29.5857864,0.585786438 L41.4142136,12.4142136 C41.7892863,12.7892863 42,13.2979941 42,13.8284271 L42,52 C42,54.209139 40.209139,56 38,56 L4,56 C1.790861,56 -4.81351824e-14,54.209139 -4.84057239e-14,52 L-4.97379915e-14,4 C-5.0008533e-14,1.790861 1.790861,-4.54341539e-13 4,-4.53552904e-13 Z"
    /> </symbol>
  <symbol viewBox="0 0 42 56" id="icon--file-thumbnail-pdf">
    <g fill="none" fill-rule="evenodd">
      <path fill="#D23F26" fill-rule="nonzero" d="M28,1 L4,1 C2.34314575,1 1,2.34314575 1,4 L1,52 C1,53.6568542 2.34314575,55 4,55 L38,55 C39.6568542,55 41,53.6568542 41,52 L41,14 L30.5,14 C29.1192881,14 28,12.8807119 28,11.5 L28,1 Z M29,1.41421356 L29,11.5 C29,12.3284271 29.6715729,13 30.5,13 L40.5857864,13 L29,1.41421356 Z M4,-4.53552904e-13 L28.1715729,-4.4986237e-13 C28.7020059,-4.4901757e-13 29.2107137,0.210713681 29.5857864,0.585786438 L41.4142136,12.4142136 C41.7892863,12.7892863 42,13.2979941 42,13.8284271 L42,52 C42,54.209139 40.209139,56 38,56 L4,56 C1.790861,56 -4.81351824e-14,54.209139 -4.84057239e-14,52 L-4.97379915e-14,4 C-5.0008533e-14,1.790861 1.790861,-4.54341539e-13 4,-4.53552904e-13 Z"
      />
      <g transform="translate(0 26)">
        <path fill="#FBECEA" d="M0,0 L25,0 C26.1045695,-2.02906125e-16 27,0.8954305 27,2 L27,14 C27,15.1045695 26.1045695,16 25,16 L0,16 L0,0 Z" />
        <text fill="#D23F26" font-family="SourceSansPro-Regular, Source Sans Pro" font-size="10" letter-spacing=".091">
          <tspan x="3" y="10">.PDF</tspan>
        </text>
      </g>
    </g>
  </symbol>
  <symbol viewBox="0 0 42 56" id="icon--file-thumbnail-txt">
    <g fill="none" fill-rule="evenodd">
      <path fill="#788A9B" fill-rule="nonzero" d="M28,1 L4,1 C2.34314575,1 1,2.34314575 1,4 L1,52 C1,53.6568542 2.34314575,55 4,55 L38,55 C39.6568542,55 41,53.6568542 41,52 L41,14 L30.5,14 C29.1192881,14 28,12.8807119 28,11.5 L28,1 Z M29,1.41421356 L29,11.5 C29,12.3284271 29.6715729,13 30.5,13 L40.5857864,13 L29,1.41421356 Z M4,-4.53552904e-13 L28.1715729,-4.4986237e-13 C28.7020059,-4.4901757e-13 29.2107137,0.210713681 29.5857864,0.585786438 L41.4142136,12.4142136 C41.7892863,12.7892863 42,13.2979941 42,13.8284271 L42,52 C42,54.209139 40.209139,56 38,56 L4,56 C1.790861,56 -4.81351824e-14,54.209139 -4.84057239e-14,52 L-4.97379915e-14,4 C-5.0008533e-14,1.790861 1.790861,-4.54341539e-13 4,-4.53552904e-13 Z"
      />
      <g transform="translate(0 26)">
        <path fill="#F1F3F5" d="M0,0 L23,0 C24.1045695,-2.16501571e-15 25,0.8954305 25,2 L25,14 C25,15.1045695 24.1045695,16 23,16 L0,16 L0,0 Z" />
        <text fill="#788A9B" font-family="SourceSansPro-Regular, Source Sans Pro" font-size="10" letter-spacing=".091">
          <tspan x="3" y="10">.TXT</tspan>
        </text>
      </g>
    </g>
  </symbol>
  <symbol viewBox="0 0 42 56" id="icon--file-thumbnail-xls">
    <g fill="none" fill-rule="evenodd">
      <path fill="#49A314" fill-rule="nonzero" d="M28,1 L4,1 C2.34314575,1 1,2.34314575 1,4 L1,52 C1,53.6568542 2.34314575,55 4,55 L38,55 C39.6568542,55 41,53.6568542 41,52 L41,14 L30.5,14 C29.1192881,14 28,12.8807119 28,11.5 L28,1 Z M29,1.41421356 L29,11.5 C29,12.3284271 29.6715729,13 30.5,13 L40.5857864,13 L29,1.41421356 Z M4,-4.53552904e-13 L28.1715729,-4.4986237e-13 C28.7020059,-4.4901757e-13 29.2107137,0.210713681 29.5857864,0.585786438 L41.4142136,12.4142136 C41.7892863,12.7892863 42,13.2979941 42,13.8284271 L42,52 C42,54.209139 40.209139,56 38,56 L4,56 C1.790861,56 -4.81351824e-14,54.209139 -4.84057239e-14,52 L-4.97379915e-14,4 C-5.0008533e-14,1.790861 1.790861,-4.54341539e-13 4,-4.53552904e-13 Z"
      />
      <g transform="translate(0 26)">
        <path fill="#F1FAE6" d="M0,0 L24,0 C25.1045695,-2.02906125e-16 26,0.8954305 26,2 L26,14 C26,15.1045695 25.1045695,16 24,16 L0,16 L0,0 Z" />
        <text fill="#49A314" font-family="SourceSansPro-Regular, Source Sans Pro" font-size="10" letter-spacing=".091">
          <tspan x="3" y="10">.XLS</tspan>
        </text>
      </g>
    </g>
  </symbol>
  <symbol viewBox="0 0 16 16" id="icon--file-type-media">
    <g fill="none" fill-rule="evenodd">
      <path fill="#F5EDFD" d="M3,3 L13,3 C13.5522847,3 14,3.44771525 14,4 L14,12 C14,12.5522847 13.5522847,13 13,13 L3,13 C2.44771525,13 2,12.5522847 2,12 L2,4 C2,3.44771525 2.44771525,3 3,3 Z" />
      <path fill="#932AEF" fill-rule="nonzero" d="M3,3 L13,3 C13.5522847,3 14,3.44771525 14,4 L14,12 C14,12.5522847 13.5522847,13 13,13 L3,13 C2.44771525,13 2,12.5522847 2,12 L2,4 C2,3.44771525 2.44771525,3 3,3 Z M3,4 L3,12 L13,12 L13,4 L3,4 Z M7,6.37370342 C7,6.33421842 7.01168761,6.29561688 7.03358994,6.26276338 C7.09486043,6.17085764 7.2190343,6.14602287 7.31094004,6.20729336 L9.75038491,7.83358994 C9.77235537,7.84823691 9.79120796,7.8670895 9.80585493,7.88905996 C9.86712542,7.9809657 9.84229065,8.10513957 9.75038491,8.16641006 L7.31094004,9.79270664 C7.27808654,9.81460898 7.239485,9.82629658 7.2,9.82629658 C7.08954305,9.82629658 7,9.73675353 7,9.62629658 L7,6.37370342 Z"
      /> </g>
  </symbol>
  <symbol viewBox="0 0 16 16" id="icon--file-type-pdf">
    <g fill="none" fill-rule="evenodd">
      <path fill="#FBECEA" d="M4,2 L10,2 C11.6568542,2 13,3.34314575 13,5 L13,13 C13,13.5522847 12.5522847,14 12,14 L4,14 C3.44771525,14 3,13.5522847 3,13 L3,3 C3,2.44771525 3.44771525,2 4,2 Z M10,5 L12,5 C12,3.8954305 11.1045695,3 10,3 L10,5 Z" />
      <path fill="#D23F26" fill-rule="nonzero" d="M6,11 L10,11 L10,10 L6,10 L6,11 Z M5,11 L5,10 L5,9 L11,9 L11,10 L11,11 L11,12 L5,12 L5,11 Z M9,3 L4,3 L4,13 L12,13 L12,6 L10,6 C9.44771525,6 9,5.55228475 9,5 L9,3 Z M4,2 L10,2 C11.6568542,2 13,3.34314575 13,5 L13,13 C13,13.5522847 12.5522847,14 12,14 L4,14 C3.44771525,14 3,13.5522847 3,13 L3,3 C3,2.44771525 3.44771525,2 4,2 Z M10,5 L12,5 C12,3.8954305 11.1045695,3 10,3 L10,5 Z M5,5 L8,5 L8,6 L5,6 L5,5 Z M5,7 L11,7 L11,8 L5,8 L5,7 Z"
      /> </g>
  </symbol>
  <symbol viewBox="0 0 16 16" id="icon--file-type-tabledata">
    <g fill="none" fill-rule="evenodd">
      <path fill="#F1FAE6" d="M4,2 L10,2 C11.6568542,2 13,3.34314575 13,5 L13,13 C13,13.5522847 12.5522847,14 12,14 L4,14 C3.44771525,14 3,13.5522847 3,13 L3,3 C3,2.44771525 3.44771525,2 4,2 Z M10,5 L12,5 C12,3.8954305 11.1045695,3 10,3 L10,5 Z" />
      <path fill="#49A314" fill-rule="nonzero" d="M7,10 L9,10 L9,8 L7,8 L7,10 Z M6,10 L6,8 L4,8 L4,7 L6,7 L6,5 L4,5 L4,4 L7,4 L7,5 L7,7 L12,7 L12,8 L10,8 L10,10 L12,10 L12,11 L10,11 L10,13 L9,13 L9,11 L7,11 L7,13 L6,13 L6,11 L4,11 L4,10 L6,10 Z M9,3 L4,3 L4,13 L12,13 L12,6 L10,6 C9.44771525,6 9,5.55228475 9,5 L9,3 Z M4,2 L10,2 C11.6568542,2 13,3.34314575 13,5 L13,13 C13,13.5522847 12.5522847,14 12,14 L4,14 C3.44771525,14 3,13.5522847 3,13 L3,3 C3,2.44771525 3.44771525,2 4,2 Z M10,5 L12,5 C12,3.8954305 11.1045695,3 10,3 L10,5 Z"
      /> </g>
  </symbol>
  <symbol viewBox="0 0 16 16" id="icon--file-type-text">
    <g fill="none" fill-rule="evenodd">
      <path fill="#F1F3F5" d="M4,2 L10,2 C11.6568542,2 13,3.34314575 13,5 L13,13 C13,13.5522847 12.5522847,14 12,14 L4,14 C3.44771525,14 3,13.5522847 3,13 L3,3 C3,2.44771525 3.44771525,2 4,2 Z M10,5 L12,5 C12,3.8954305 11.1045695,3 10,3 L10,5 Z" />
      <path fill="#788A9B" fill-rule="nonzero" d="M9,3 L4,3 L4,13 L12,13 L12,6 L10,6 C9.44771525,6 9,5.55228475 9,5 L9,3 Z M4,2 L10,2 C11.6568542,2 13,3.34314575 13,5 L13,13 C13,13.5522847 12.5522847,14 12,14 L4,14 C3.44771525,14 3,13.5522847 3,13 L3,3 C3,2.44771525 3.44771525,2 4,2 Z M10,5 L12,5 C12,3.8954305 11.1045695,3 10,3 L10,5 Z M5,5 L8,5 L8,6 L5,6 L5,5 Z M5,7 L11,7 L11,8 L5,8 L5,7 Z M5,9 L11,9 L11,10 L5,10 L5,9 Z M5,11 L8,11 L8,12 L5,12 L5,11 Z"
      /> </g>
  </symbol>
  <symbol viewBox="0 0 32 24" id="icon--folder-breadcums">
    <g fill="none" fill-rule="evenodd">
      <path fill="#E2F3FE" d="M2,2.66453526e-15 L10.1715729,0 C10.7020059,-9.74389576e-17 11.2107137,0.210713681 11.5857864,0.585786438 L14.4142136,3.41421356 C14.7892863,3.78928632 15.2979941,4 15.8284271,4 L30,4 C31.1045695,4 32,4.8954305 32,6 L32,22 C32,23.1045695 31.1045695,24 30,24 L2,24 C0.8954305,24 1.3527075e-16,23.1045695 0,22 L0,2 C-1.3527075e-16,0.8954305 0.8954305,2.86744138e-15 2,2.66453526e-15 Z"
      />
      <path fill="#189EFF" fill-rule="nonzero" d="M2,1 C1.44771525,1 1,1.44771525 1,2 L1,22 C1,22.5522847 1.44771525,23 2,23 L30,23 C30.5522847,23 31,22.5522847 31,22 L31,6 C31,5.44771525 30.5522847,5 30,5 L15.8284271,5 C15.0327777,5 14.2697159,4.68392948 13.7071068,4.12132034 L10.8786797,1.29289322 C10.6911433,1.10535684 10.4367894,1 10.1715729,1 L2,1 Z M2,0 L10.1715729,-2.66453526e-15 C10.7020059,-2.76197422e-15 11.2107137,0.210713681 11.5857864,0.585786438 L14.4142136,3.41421356 C14.7892863,3.78928632 15.2979941,4 15.8284271,4 L30,4 C31.1045695,4 32,4.8954305 32,6 L32,22 C32,23.1045695 31.1045695,24 30,24 L2,24 C0.8954305,24 1.3527075e-16,23.1045695 0,22 L0,2 C-1.3527075e-16,0.8954305 0.8954305,2.02906125e-16 2,0 Z"
      /> </g>
  </symbol>
  <symbol viewBox="0 0 64 56" id="icon--folder-thumbnail">
    <g fill="none" fill-rule="evenodd">
      <path fill="#E2F3FE" d="M4,2.66930903e-16 L20.3232709,2.22044605e-15 C21.2063906,2.05821958e-15 22.044649,0.389107864 22.6146638,1.06363264 L28.1920744,7.66364009 C28.7620891,8.33816486 29.6003475,8.72727273 30.4834673,8.72727273 L60,8.72727273 C62.209139,8.72727273 64,10.5181337 64,12.7272727 L64,52 C64,54.209139 62.209139,56 60,56 L4,56 C1.790861,56 2.705415e-16,54.209139 0,52 L0,4 C-2.705415e-16,1.790861 1.790861,4.05812251e-16 4,2.66930903e-16 Z"
      />
      <path fill="#189EFF" fill-rule="nonzero" d="M4,1 C2.34314575,1 1,2.34314575 1,4 L1,52 C1,53.6568542 2.34314575,55 4,55 L60,55 C61.6568542,55 63,53.6568542 63,52 L63,12.7272727 C63,11.0704185 61.6568542,9.72727273 60,9.72727273 L30.4834673,9.72727273 C29.3059743,9.72727273 28.1882964,9.20846224 27.4282767,8.30909587 L21.8508662,1.70908843 C21.4708563,1.25940524 20.9120174,1 20.3232709,1 L4,1 Z M4,2.66930903e-16 L20.3232709,2.22044605e-15 C21.2063906,2.05821958e-15 22.044649,0.389107864 22.6146638,1.06363264 L28.1920744,7.66364009 C28.7620891,8.33816486 29.6003475,8.72727273 30.4834673,8.72727273 L60,8.72727273 C62.209139,8.72727273 64,10.5181337 64,12.7272727 L64,52 C64,54.209139 62.209139,56 60,56 L4,56 C1.790861,56 2.705415e-16,54.209139 0,52 L0,4 C-2.705415e-16,1.790861 1.790861,4.05812251e-16 4,2.66930903e-16 Z"
      /> </g>
  </symbol>
  <symbol viewBox="0 0 16 16" id="icon--folder-tree-open">
    <g fill="none" fill-rule="evenodd">
      <path fill="#E2F3FE" d="M5.05630452,5 L13.9777811,5 C14.5300659,5 14.9777811,5.44771525 14.9777811,6 C14.9777811,6.0920622 14.9650683,6.18368344 14.9400027,6.27226767 L12.9593012,13.2722677 C12.8374815,13.7027907 12.4445058,14 11.9970796,14 L3.075603,14 C2.52331825,14 2.075603,13.5522847 2.075603,13 C2.075603,12.9079378 2.08831589,12.8163166 2.11338145,12.7277323 L4.09408297,5.72773233 C4.21590264,5.29720926 4.60887839,5 5.05630452,5 Z"
      />
      <path fill="#189EFF" fill-rule="nonzero" d="M11.0193207,5 L13.9777811,5 C14.5300659,5 14.9777811,5.44771525 14.9777811,6 C14.9777811,6.0920622 14.9650683,6.18368344 14.9400027,6.27226767 L12.9593012,13.2722677 C12.8374815,13.7027907 12.4445058,14 11.9970796,14 L11.870963,14 L2.81824596,14 C2.30104276,14 1.86917813,13.6056149 1.82235276,13.0905357 L1.00417094,4.09053575 C0.954169427,3.54051912 1.35951177,3.05410831 1.9095284,3.00410679 C1.93962941,3.00137034 1.96983901,3 2.00006414,3 L7.40503133,3 L8.40503133,5 L11.0193207,5 Z M7.28699734,5 L6.78699734,4 L2.00006414,4 L2.6281186,10.908599 L4.09408297,5.72773233 C4.21590264,5.29720926 4.60887839,5 5.05630452,5 L7.28699734,5 Z M5.05630452,6 L3.075603,13 L11.9970796,13 L13.9777811,6 L5.05630452,6 Z"
      /> </g>
  </symbol>
  <symbol viewBox="0 0 16 16" id="icon--folder-tree">
    <g fill="none" fill-rule="evenodd">
      <path fill="#E2F3FE" d="M2,2 L6.5,2 L8.5,4 L14,4 C14.5522847,4 15,4.44771525 15,5 L15,13 C15,13.5522847 14.5522847,14 14,14 L2,14 C1.44771525,14 1,13.5522847 1,13 L1,3 C1,2.44771525 1.44771525,2 2,2 Z" />
      <path fill="#189EFF" fill-rule="nonzero" d="M6.08578644,3 L2,3 L2,13 L14,13 L14,5 L8.08578644,5 L6.08578644,3 Z M2,2 L6.5,2 L8.5,4 L14,4 C14.5522847,4 15,4.44771525 15,5 L15,13 C15,13.5522847 14.5522847,14 14,14 L2,14 C1.44771525,14 1,13.5522847 1,13 L1,3 C1,2.44771525 1.44771525,2 2,2 Z"
      /> </g>
  </symbol>
</svg>