<svg xmlns="http://www.w3.org/2000/svg" xmlns:xlink="http://www.w3.org/1999/xlink" width="88" height="88" viewBox="0 0 88 88">
  <defs>
    <circle id="multiple-mask-a" cx="44" cy="44" r="44"/>
  </defs>
  <g fill="none" fill-rule="evenodd">
    <mask id="multiple-mask-b" fill="#fff">
      <use xlink:href="#multiple-mask-a"/>
    </mask>
    <use fill="#FEF1EC" fill-rule="nonzero" xlink:href="#multiple-mask-a"/>
    <path fill="#FAAC91" fill-rule="nonzero" d="M74 20C83.3888407 20 91 27.3873016 91 36.5 91 45.6126984 83.3888407 53 74 53 64.6111593 53 57 45.6126984 57 36.5 57 27.3873016 64.6111593 20 74 20zM50 76.8818199L50 71.0032154C50 63.2694531 56.435625 57 64.3743708 57L81.6256292 57C89.564375 57 96 63.2694531 96 71.0032154L96 76.8818199C96 77.006038 95.9916986 77.1283673 95.9756069 77.24831L96 77.3135407 96 83 50 83 50 76.8818199z" mask="url(#multiple-mask-b)"/>
    <path fill="#F88962" d="M48 26C57.3888407 26 65 33.3873016 65 42.5 65 51.6126984 57.3888407 59 48 59 38.6111593 59 31 51.6126984 31 42.5 31 33.3873016 38.6111593 26 48 26zM24 81.8818199L24 76.0032154C24 68.2694531 30.435625 62 38.3743708 62L55.6256292 62C63.564375 62 70 68.2694531 70 76.0032154L70 81.8818199C70 82.006038 69.9916986 82.1283673 69.9756069 82.24831L70 82.3135407 70 88 24 88 24 81.8818199z" mask="url(#multiple-mask-b)"/>
  </g>
</svg>
