<svg xmlns="http://www.w3.org/2000/svg" xmlns:xlink="http://www.w3.org/1999/xlink" width="88" height="88" viewBox="0 0 88 88">
  <defs>
    <circle id="order_spotillustration-a" cx="44" cy="44" r="44"/>
  </defs>
  <g fill="none" fill-rule="evenodd">
    <mask id="order_spotillustration-b" fill="#fff">
      <use xlink:href="#order_spotillustration-a"/>
    </mask>
    <use fill="#F4F2FD" fill-rule="nonzero" xlink:href="#order_spotillustration-a"/>
    <path fill="#AEA2F2" fill-rule="nonzero" d="M47.8707396,35 L47.8707396,30 C47.8707396,25.0294373 52.2359633,21 57.6207396,21 L64.1207396,21 C69.5055159,21 73.8707396,25.0294373 73.8707396,30 L73.8707396,35 L86.6707245,35 C87.7267216,35 88.6007605,35.8209789 88.6668086,36.8749085 L91.7375634,85.8749085 C91.8066495,86.9773153 90.9689776,87.926998 89.8665707,87.9960842 C89.8249246,87.9986941 89.783207,88 89.7414792,88 L32,88 C30.8954305,88 30,87.1045695 30,86 C30,85.9582722 30.0013059,85.9165546 30.0039158,85.8749085 L33.0746705,36.8749085 C33.1407187,35.8209789 34.0147576,35 35.0707547,35 L47.8707396,35 Z M54.3707396,35 L67.3707396,35 L67.3707396,30 C67.3707396,28.3431458 65.915665,27 64.1207396,27 L57.6207396,27 C55.8258141,27 54.3707396,28.3431458 54.3707396,30 L54.3707396,35 Z" mask="url(#order_spotillustration-b)"/>
  </g>
</svg>
