<svg xmlns="http://www.w3.org/2000/svg" xmlns:xlink="http://www.w3.org/1999/xlink" width="88" height="88" viewBox="0 0 88 88">
  <defs>
    <circle id="settings_spotillustration-a" cx="44" cy="44" r="44"/>
  </defs>
  <g fill="none" fill-rule="evenodd">
    <mask id="settings_spotillustration-b" fill="#fff">
      <use xlink:href="#settings_spotillustration-a"/>
    </mask>
    <use fill="#F9FAFB" fill-rule="nonzero" xlink:href="#settings_spotillustration-a"/>
    <path fill="#F0F2F5" fill-rule="nonzero" d="M-3.35992206 82.451295L-7.16726189 86.2586348C-8.17146721 87.2628401-9.79960573 87.2628401-10.803811 86.2586348L-16.2586348 80.803811C-17.2628401 79.7996057-17.2628401 78.1714672-16.2586348 77.1672619L-12.3203744 73.2290015C-12.5100631 72.803698-12.6842918 72.3699832-12.8423463 71.9285714L-18.4285714 71.9285714C-19.8487322 71.9285714-21 70.7773036-21 69.3571429L-21 61.6428571C-21 60.2226964-19.8487322 59.0714286-18.4285714 59.0714286L-12.7373825 59.0714286C-12.5825862 58.6605407-12.4136951 58.2565613-12.2312986 57.8600796L-16.2586348 53.8327381C-17.2628401 52.8285328-17.2628401 51.2003943-16.2586348 50.196189L-10.803811 44.7413652C-9.79960573 43.7371599-8.17146721 43.7371599-7.16726189 44.7413652L-3.16610502 48.7425221C-2.76129849 48.5534434-2.34857622 48.3784806-1.92857143 48.2182671L-1.92857143 42.5714286C-1.92857143 41.1512678-.777303642 40 .642857143 40L8.35714286 40C9.77730364 40 10.9285714 41.1512678 10.9285714 42.5714286L10.9285714 48.060814C11.3946425 48.2255465 11.8522074 48.4082862 12.30043 48.6081971L16.1672619 44.7413652C17.1714672 43.7371599 18.7996057 43.7371599 19.803811 44.7413652L25.2586348 50.196189C26.2628401 51.2003943 26.2628401 52.8285328 25.2586348 53.8327381L21.5227235 57.5686494C21.7582616 58.0580871 21.973052 58.5593937 22.1659539 59.0714286L27.4285714 59.0714286C28.8487322 59.0714286 30 60.2226964 30 61.6428571L30 69.3571429C30 70.7773036 28.8487322 71.9285714 27.4285714 71.9285714L22.2709177 71.9285714C22.0762443 72.4722519 21.8570339 73.0042555 21.6146208 73.5232479L25.2586348 77.1672619C26.2628401 78.1714672 26.2628401 79.7996057 25.2586348 80.803811L19.803811 86.2586348C18.7996057 87.2628401 17.1714672 87.2628401 16.1672619 86.2586348L12.4970669 82.5884398C11.9862601 82.8234304 11.4630081 83.036004 10.9285714 83.2249002L10.9285714 88.4285714C10.9285714 89.8487322 9.77730364 91 8.35714286 91L.642857143 91C-.777303642 91-1.92857143 89.8487322-1.92857143 88.4285714L-1.92857143 83.0674472C-2.41581891 82.8815835-2.89326533 82.6758699-3.35992206 82.451295zM4.5 75C9.74670512 75 14 70.7467051 14 65.5 14 60.2532949 9.74670512 56 4.5 56-.746705123 56-5 60.2532949-5 65.5-5 70.7467051-.746705123 75 4.5 75zM78.6760981 34.7685731L76.9188817 36.5257895C76.4279369 37.0167343 75.631958 37.0167343 75.1410132 36.5257895L72.4742105 33.8589868C71.9832657 33.368042 71.9832657 32.5720631 72.4742105 32.0811183L74.5319572 30.0233716C74.4173235 29.7364983 74.3162721 29.4427285 74.2295981 29.1428571L71.2571429 29.1428571C70.562842 29.1428571 70 28.5800151 70 27.8857143L70 24.1142857C70 23.4199849 70.562842 22.8571429 71.2571429 22.8571429L74.5806532 22.8571429C74.6612187 22.6632616 74.7480216 22.4726246 74.8408113 22.2854825L72.4742105 19.9188817C71.9832657 19.4279369 71.9832657 18.631958 72.4742105 18.1410132L75.1410132 15.4742105C75.631958 14.9832657 76.4279369 14.9832657 76.9188817 15.4742105L79.3354398 17.8907686C79.5066203 17.8106662 79.6805829 17.7355189 79.8571429 17.6655113L79.8571429 14.2571429C79.8571429 13.562842 80.4199849 13 81.1142857 13L84.8857143 13C85.5800151 13 86.1428571 13.562842 86.1428571 14.2571429L86.1428571 17.4149731C86.3933021 17.4916727 86.6393453 17.5784439 86.8805144 17.6748144L89.0811183 15.4742105C89.5720631 14.9832657 90.368042 14.9832657 90.8589868 15.4742105L93.5257895 18.1410132C94.0167343 18.631958 94.0167343 19.4279369 93.5257895 19.9188817L91.625716 21.8189552C91.8151955 22.1529315 91.9850249 22.4995179 92.1336325 22.8571429L94.7428571 22.8571429C95.437158 22.8571429 96 23.4199849 96 24.1142857L96 27.8857143C96 28.5800151 95.437158 29.1428571 94.7428571 29.1428571L92.4846876 29.1428571C92.3470906 29.6189101 92.1732593 30.0795855 91.9663742 30.521703L93.5257895 32.0811183C94.0167343 32.5720631 94.0167343 33.368042 93.5257895 33.8589868L90.8589868 36.5257895C90.368042 37.0167343 89.5720631 37.0167343 89.0811183 36.5257895L87.5716604 35.0163316C87.11499 35.24276 86.6375093 35.4335381 86.1428571 35.5850269L86.1428571 37.7428571C86.1428571 38.437158 85.5800151 39 84.8857143 39L81.1142857 39C80.4199849 39 79.8571429 38.437158 79.8571429 37.7428571L79.8571429 35.3344887C79.4488071 35.17258 79.0543643 34.9831803 78.6760981 34.7685731zM82.6444444 30.2888889C85.2095003 30.2888889 87.2888889 28.2095003 87.2888889 25.6444444 87.2888889 23.0793886 85.2095003 21 82.6444444 21 80.0793886 21 78 23.0793886 78 25.6444444 78 28.2095003 80.0793886 30.2888889 82.6444444 30.2888889z" mask="url(#settings_spotillustration-b)"/>
    <path fill="#D1D9E0" d="M53.6285995,114.112179 L49.3696086,118.37117 C48.3670686,119.37371 46.7416302,119.37371 45.7390902,118.37117 L35.8079341,108.440014 C34.8053941,107.437474 34.8053941,105.812035 35.8079341,104.809495 L40.1471998,100.470229 C38.7687092,98.0076941 37.6716639,95.3662834 36.8996186,92.589552 L30.7462679,92.589552 C29.3284623,92.589552 28.1791038,91.4401934 28.1791038,90.0223878 L28.1791038,75.9776122 C28.1791038,74.5598066 29.3284623,73.410448 30.7462679,73.410448 L36.8666429,73.410448 C37.6323884,70.6188411 38.7263409,67.9629995 40.1044266,65.4869973 L35.8079341,61.1905049 C34.8053941,60.1879649 34.8053941,58.5625264 35.8079341,57.5599865 L45.7390902,47.6288304 C46.7416302,46.6262904 48.3670686,46.6262904 49.3696086,47.6288304 L53.5528908,51.8121125 C56.056445,50.3631523 58.7510023,49.2075513 61.5895518,48.3923204 L61.5895518,42.5671642 C61.5895518,41.1493586 62.7389103,40 64.1567159,40 L78.2014916,40 C79.6192972,40 80.7686558,41.1493586 80.7686558,42.5671642 L80.7686558,48.1985777 C83.6957248,48.9749413 86.4761994,50.1113975 89.0597812,51.557648 L92.9885989,47.6288304 C93.9911389,46.6262904 95.6165773,46.6262904 96.6191173,47.6288304 L106.550273,57.5599865 C107.552813,58.5625264 107.552813,60.1879649 106.550273,61.1905049 L102.701731,65.0390477 C104.199627,67.6417514 105.380928,70.4497442 106.193058,73.410448 L111.61194,73.410448 C113.029745,73.410448 114.179104,74.5598066 114.179104,75.9776122 L114.179104,90.0223878 C114.179104,91.4401934 113.029745,92.589552 111.61194,92.589552 L106.160082,92.589552 C105.341111,95.5350539 104.156433,98.3282855 102.658036,100.917258 L106.550273,104.809495 C107.552813,105.812035 107.552813,107.437474 106.550273,108.440014 L96.6191173,118.37117 C95.6165773,119.37371 93.9911389,119.37371 92.9885989,118.37117 L88.9831515,114.365722 C86.4212467,115.791619 83.6668074,116.913326 80.7686558,117.682019 L80.7686558,123.432836 C80.7686558,124.850641 79.6192972,126 78.2014916,126 L64.1567159,126 C62.7389103,126 61.5895518,124.850641 61.5895518,123.432836 L61.5895518,117.488277 C58.7795933,116.681257 56.110741,115.54069 53.6285995,114.112179 Z M71.1791038,96 C78.3588055,96 84.1791038,90.1797017 84.1791038,83 C84.1791038,75.8202983 78.3588055,70 71.1791038,70 C63.999402,70 58.1791038,75.8202983 58.1791038,83 C58.1791038,90.1797017 63.999402,96 71.1791038,96 Z" mask="url(#settings_spotillustration-b)"/>
  </g>
</svg>
