<?xml version="1.0" encoding="UTF-8"?>
<svg width="204px" height="134px" viewBox="0 0 204 134" version="1.1" xmlns="http://www.w3.org/2000/svg" xmlns:xlink="http://www.w3.org/1999/xlink">
    <title>D27BACE9-24BD-4C7B-843D-775E77551463@3x</title>
    <defs>
        <rect id="path-1" x="0.5" y="0" width="236" height="168"></rect>
        <rect id="path-3" x="0" y="0" width="192" height="52" rx="4"></rect>
        <filter x="-5.5%" y="-14.4%" width="110.9%" height="140.4%" filterUnits="objectBoundingBox" id="filter-4">
            <feOffset dx="0" dy="3" in="SourceAlpha" result="shadowOffsetOuter1"></feOffset>
            <feGaussianBlur stdDeviation="3" in="shadowOffsetOuter1" result="shadowBlurOuter1"></feGaussianBlur>
            <feColorMatrix values="0 0 0 0 0.470588235   0 0 0 0 0.541176471   0 0 0 0 0.607843137  0 0 0 0.5 0" type="matrix" in="shadowBlurOuter1"></feColorMatrix>
        </filter>
        <rect id="path-5" x="0" y="0" width="192" height="52" rx="4"></rect>
        <filter x="-5.5%" y="-14.4%" width="110.9%" height="140.4%" filterUnits="objectBoundingBox" id="filter-6">
            <feOffset dx="0" dy="3" in="SourceAlpha" result="shadowOffsetOuter1"></feOffset>
            <feGaussianBlur stdDeviation="3" in="shadowOffsetOuter1" result="shadowBlurOuter1"></feGaussianBlur>
            <feColorMatrix values="0 0 0 0 0.470588235   0 0 0 0 0.541176471   0 0 0 0 0.607843137  0 0 0 0.5 0" type="matrix" in="shadowBlurOuter1"></feColorMatrix>
        </filter>
        <linearGradient x1="50%" y1="0%" x2="50%" y2="67.5849205%" id="linearGradient-7">
            <stop stop-color="#FFFFFF" stop-opacity="0" offset="0%"></stop>
            <stop stop-color="#FFFFFF" offset="80.3166316%"></stop>
        </linearGradient>
    </defs>
    <g id="2.-Fist-Run-Process" stroke="none" stroke-width="1" fill="none" fill-rule="evenodd">
        <g id="05.-FRW-–-Shopware-Markets-Overview" transform="translate(-970.000000, -326.000000)">
            <g id="Group-10" transform="translate(450.000000, 184.000000)">
                <g id="PROMO" transform="translate(316.000000, 128.000000)">
                    <g id="Sales-Channel-items" transform="translate(188.000000, 0.000000)">
                        <mask id="mask-2" fill="white">
                            <use xlink:href="#path-1"></use>
                        </mask>
                        <g id="Mask"></g>
                        <g id="Group-2" mask="url(#mask-2)">
                            <g transform="translate(22.000000, 17.000000)">
                                <g id="Group-3">
                                    <g id="Rectangle-Copy-3" fill-rule="nonzero">
                                        <use fill="black" fill-opacity="1" filter="url(#filter-4)" xlink:href="#path-3"></use>
                                        <use fill="#FFFFFF" xlink:href="#path-3"></use>
                                    </g>
                                    <path d="M48.408,32 L49.416,28.8 L53.24,28.8 L54.232,32 L55.656,32 L52.104,21.504 L50.6,21.504 L47.048,32 L48.408,32 Z M52.904,27.728 L49.752,27.728 L50.248,26.128 C50.44,25.5413333 50.6213333,24.9573333 50.792,24.376 C50.9626667,23.7946667 51.128,23.2 51.288,22.592 L51.288,22.592 L51.352,22.592 C51.5226667,23.2 51.6933333,23.7946667 51.864,24.376 C52.0346667,24.9573333 52.216,25.5413333 52.408,26.128 L52.408,26.128 L52.904,27.728 Z M58.6924444,32 L58.6924444,26.368 C59.4071111,25.568 60.0577778,25.168 60.6444444,25.168 C61.1457778,25.168 61.5137778,25.3306667 61.7484444,25.656 C61.9831111,25.9813333 62.1004444,26.512 62.1004444,27.248 L62.1004444,27.248 L62.1004444,32 L63.4124444,32 L63.4124444,26.368 C64.1271111,25.568 64.7777778,25.168 65.3644444,25.168 C65.8551111,25.168 66.2177778,25.3306667 66.4524444,25.656 C66.6871111,25.9813333 66.8044444,26.512 66.8044444,27.248 L66.8044444,27.248 L66.8044444,32 L68.1164444,32 L68.1164444,27.072 C68.1164444,26.0693333 67.9217778,25.312 67.5324444,24.8 C67.1431111,24.288 66.5484444,24.032 65.7484444,24.032 C65.2684444,24.032 64.8231111,24.168 64.4124444,24.44 C64.0017778,24.712 63.5937778,25.072 63.1884444,25.52 C63.0284444,25.0506667 62.7804444,24.6853333 62.4444444,24.424 C62.1084444,24.1626667 61.6417778,24.032 61.0444444,24.032 C60.5751111,24.032 60.1404444,24.1573333 59.7404444,24.408 C59.3404444,24.6586667 58.9697778,24.9706667 58.6284444,25.344 L58.6284444,25.344 L58.5804444,25.344 L58.4684444,24.224 L57.3804444,24.224 L57.3804444,32 L58.6924444,32 Z M72.8008889,32.192 C73.2915555,32.192 73.7502222,32.0826667 74.1768889,31.864 C74.6035555,31.6453333 75.0035555,31.3813333 75.3768889,31.072 L75.3768889,31.072 L75.4248889,31.072 L75.5368889,32 L76.6248889,32 L76.6248889,27.232 C76.6248889,26.2613333 76.4115555,25.4853333 75.9848889,24.904 C75.5582222,24.3226667 74.8702222,24.032 73.9208889,24.032 C73.2915555,24.032 72.7155555,24.1413333 72.1928889,24.36 C71.6702222,24.5786667 71.2275555,24.8053333 70.8648889,25.04 L70.8648889,25.04 L71.3768889,25.952 C71.6862222,25.7386667 72.0382222,25.5466667 72.4328889,25.376 C72.8275555,25.2053333 73.2488889,25.12 73.6968889,25.12 C74.0168889,25.12 74.2808889,25.176 74.4888889,25.288 C74.6968889,25.4 74.8595555,25.5466667 74.9768889,25.728 C75.0942222,25.9093333 75.1768889,26.1173333 75.2248889,26.352 C75.2728889,26.5866667 75.2968889,26.8266667 75.2968889,27.072 C73.6328889,27.2533333 72.4222222,27.5706667 71.6648889,28.024 C70.9075555,28.4773333 70.5288889,29.1306667 70.5288889,29.984 C70.5288889,30.688 70.7448889,31.232 71.1768889,31.616 C71.6088889,32 72.1502222,32.192 72.8008889,32.192 Z M73.1848889,31.136 C72.8008889,31.136 72.4755555,31.04 72.2088889,30.848 C71.9422222,30.656 71.8088889,30.336 71.8088889,29.888 C71.8088889,29.6426667 71.8702222,29.416 71.9928889,29.208 C72.1155555,29 72.3128889,28.816 72.5848889,28.656 C72.8568889,28.496 73.2142222,28.3573333 73.6568889,28.24 C74.0995555,28.1226667 74.6462222,28.0213333 75.2968889,27.936 L75.2968889,27.936 L75.2968889,30.096 C74.9235555,30.4373333 74.5715555,30.696 74.2408889,30.872 C73.9102222,31.048 73.5582222,31.136 73.1848889,31.136 Z M84.5093333,32 L84.5093333,30.928 L80.2853333,30.928 L84.3813333,24.928 L84.3813333,24.224 L79.0693333,24.224 L79.0693333,25.296 L82.7173333,25.296 L78.6213333,31.296 L78.6213333,32 L84.5093333,32 Z M89.4657778,32.192 C89.9457778,32.192 90.4017778,32.1013333 90.8337778,31.92 C91.2657778,31.7386667 91.6471111,31.4746667 91.9777778,31.128 C92.3084444,30.7813333 92.5724444,30.3546667 92.7697778,29.848 C92.9671111,29.3413333 93.0657778,28.768 93.0657778,28.128 C93.0657778,27.4773333 92.9671111,26.8986667 92.7697778,26.392 C92.5724444,25.8853333 92.3084444,25.456 91.9777778,25.104 C91.6471111,24.752 91.2657778,24.4853333 90.8337778,24.304 C90.4017778,24.1226667 89.9457778,24.032 89.4657778,24.032 C88.9857778,24.032 88.5297778,24.1226667 88.0977778,24.304 C87.6657778,24.4853333 87.2844444,24.752 86.9537778,25.104 C86.6231111,25.456 86.3591111,25.8853333 86.1617778,26.392 C85.9644444,26.8986667 85.8657778,27.4773333 85.8657778,28.128 C85.8657778,28.768 85.9644444,29.3413333 86.1617778,29.848 C86.3591111,30.3546667 86.6231111,30.7813333 86.9537778,31.128 C87.2844444,31.4746667 87.6657778,31.7386667 88.0977778,31.92 C88.5297778,32.1013333 88.9857778,32.192 89.4657778,32.192 Z M89.4657778,31.104 C89.1351111,31.104 88.8311111,31.032 88.5537778,30.888 C88.2764444,30.744 88.0391111,30.5413333 87.8417778,30.28 C87.6444444,30.0186667 87.4924444,29.7066667 87.3857778,29.344 C87.2791111,28.9813333 87.2257778,28.576 87.2257778,28.128 C87.2257778,27.68 87.2791111,27.272 87.3857778,26.904 C87.4924444,26.536 87.6444444,26.2186667 87.8417778,25.952 C88.0391111,25.6853333 88.2764444,25.48 88.5537778,25.336 C88.8311111,25.192 89.1351111,25.12 89.4657778,25.12 C89.7964444,25.12 90.1004444,25.192 90.3777778,25.336 C90.6551111,25.48 90.8924444,25.6853333 91.0897778,25.952 C91.2871111,26.2186667 91.4391111,26.536 91.5457778,26.904 C91.6524444,27.272 91.7057778,27.68 91.7057778,28.128 C91.7057778,28.576 91.6524444,28.9813333 91.5457778,29.344 C91.4391111,29.7066667 91.2871111,30.0186667 91.0897778,30.28 C90.8924444,30.5413333 90.6551111,30.744 90.3777778,30.888 C90.1004444,31.032 89.7964444,31.104 89.4657778,31.104 Z M96.7902222,32 L96.7902222,26.368 C97.1848889,25.9733333 97.5368889,25.6746667 97.8462222,25.472 C98.1555555,25.2693333 98.5128889,25.168 98.9182222,25.168 C99.4302222,25.168 99.8035555,25.3306667 100.038222,25.656 C100.272889,25.9813333 100.390222,26.512 100.390222,27.248 L100.390222,27.248 L100.390222,32 L101.702222,32 L101.702222,27.072 C101.702222,26.0693333 101.512889,25.312 101.134222,24.8 C100.755556,24.288 100.155556,24.032 99.3342222,24.032 C98.7902222,24.032 98.3128889,24.1573333 97.9022222,24.408 C97.4915555,24.6586667 97.0995555,24.9706667 96.7262222,25.344 L96.7262222,25.344 L96.6782222,25.344 L96.5662222,24.224 L95.4782222,24.224 L95.4782222,32 L96.7902222,32 Z" id="Amazon" fill="#52667A" fill-rule="nonzero"></path>
                                </g>
                                <g id="Group" transform="translate(0.000000, 62.000000)">
                                    <g id="Rectangle-Copy-3" fill-rule="nonzero">
                                        <use fill="black" fill-opacity="1" filter="url(#filter-6)" xlink:href="#path-5"></use>
                                        <use fill="#FFFFFF" xlink:href="#path-5"></use>
                                    </g>
                                    <path d="M51.464,32.192 C51.9973333,32.192 52.472,32.112 52.888,31.952 C53.304,31.792 53.6826667,31.6053333 54.024,31.392 L54.024,31.392 L53.56,30.528 C53.272,30.7093333 52.9706667,30.856 52.656,30.968 C52.3413333,31.08 51.9973333,31.136 51.624,31.136 C50.8773333,31.136 50.272,30.8933333 49.808,30.408 C49.344,29.9226667 49.0853333,29.264 49.032,28.432 L49.032,28.432 L54.28,28.432 C54.3013333,28.336 54.3146667,28.2213333 54.32,28.088 C54.3253333,27.9546667 54.328,27.8186667 54.328,27.68 C54.328,27.1253333 54.2586667,26.624 54.12,26.176 C53.9813333,25.728 53.7813333,25.344 53.52,25.024 C53.2586667,24.704 52.9333333,24.4586667 52.544,24.288 C52.1546667,24.1173333 51.7146667,24.032 51.224,24.032 C50.776,24.032 50.344,24.1253333 49.928,24.312 C49.512,24.4986667 49.1413333,24.768 48.816,25.12 C48.4906667,25.472 48.2293333,25.9013333 48.032,26.408 C47.8346667,26.9146667 47.736,27.488 47.736,28.128 C47.736,28.768 47.832,29.3386667 48.024,29.84 C48.216,30.3413333 48.48,30.7653333 48.816,31.112 C49.152,31.4586667 49.5466667,31.7253333 50,31.912 C50.4533333,32.0986667 50.9413333,32.192 51.464,32.192 Z M53.176,27.488 L49.016,27.488 C49.0586667,27.104 49.1466667,26.7626667 49.28,26.464 C49.4133333,26.1653333 49.5813333,25.912 49.784,25.704 C49.9866667,25.496 50.2133333,25.3386667 50.464,25.232 C50.7146667,25.1253333 50.9786667,25.072 51.256,25.072 C51.864,25.072 52.336,25.2773333 52.672,25.688 C53.008,26.0986667 53.176,26.6986667 53.176,27.488 L53.176,27.488 Z M60.0844444,32 C60.6711111,32 61.2097778,31.936 61.7004444,31.808 C62.1911111,31.68 62.6124444,31.488 62.9644444,31.232 C63.3164444,30.976 63.5884444,30.656 63.7804444,30.272 C63.9724444,29.888 64.0684444,29.44 64.0684444,28.928 C64.0684444,28.2026667 63.8711111,27.632 63.4764444,27.216 C63.0817778,26.8 62.5644444,26.5333333 61.9244444,26.416 L61.9244444,26.416 L61.9244444,26.352 C62.4257778,26.192 62.8071111,25.9013333 63.0684444,25.48 C63.3297778,25.0586667 63.4604444,24.5866667 63.4604444,24.064 C63.4604444,23.6053333 63.3724444,23.2133333 63.1964444,22.888 C63.0204444,22.5626667 62.7751111,22.2986667 62.4604444,22.096 C62.1457778,21.8933333 61.7671111,21.744 61.3244444,21.648 C60.8817778,21.552 60.3937778,21.504 59.8604444,21.504 L59.8604444,21.504 L56.7404444,21.504 L56.7404444,32 L60.0844444,32 Z M59.6204444,25.968 L58.0684444,25.968 L58.0684444,22.56 L59.6844444,22.56 C60.5057778,22.56 61.1217778,22.688 61.5324444,22.944 C61.9431111,23.2 62.1484444,23.632 62.1484444,24.24 C62.1484444,24.7733333 61.9511111,25.1946667 61.5564444,25.504 C61.1617778,25.8133333 60.5164444,25.968 59.6204444,25.968 L59.6204444,25.968 Z M59.8924444,30.944 L58.0684444,30.944 L58.0684444,26.992 L59.8924444,26.992 C60.8204444,26.992 61.5297778,27.144 62.0204444,27.448 C62.5111111,27.752 62.7564444,28.2293333 62.7564444,28.88 C62.7564444,29.584 62.5057778,30.104 62.0044444,30.44 C61.5031111,30.776 60.7991111,30.944 59.8924444,30.944 L59.8924444,30.944 Z M68.1768889,32.192 C68.6675555,32.192 69.1262222,32.0826667 69.5528889,31.864 C69.9795555,31.6453333 70.3795555,31.3813333 70.7528889,31.072 L70.7528889,31.072 L70.8008889,31.072 L70.9128889,32 L72.0008889,32 L72.0008889,27.232 C72.0008889,26.2613333 71.7875555,25.4853333 71.3608889,24.904 C70.9342222,24.3226667 70.2462222,24.032 69.2968889,24.032 C68.6675555,24.032 68.0915555,24.1413333 67.5688889,24.36 C67.0462222,24.5786667 66.6035555,24.8053333 66.2408889,25.04 L66.2408889,25.04 L66.7528889,25.952 C67.0622222,25.7386667 67.4142222,25.5466667 67.8088889,25.376 C68.2035555,25.2053333 68.6248889,25.12 69.0728889,25.12 C69.3928889,25.12 69.6568889,25.176 69.8648889,25.288 C70.0728889,25.4 70.2355555,25.5466667 70.3528889,25.728 C70.4702222,25.9093333 70.5528889,26.1173333 70.6008889,26.352 C70.6488889,26.5866667 70.6728889,26.8266667 70.6728889,27.072 C69.0088889,27.2533333 67.7982222,27.5706667 67.0408889,28.024 C66.2835555,28.4773333 65.9048889,29.1306667 65.9048889,29.984 C65.9048889,30.688 66.1208889,31.232 66.5528889,31.616 C66.9848889,32 67.5262222,32.192 68.1768889,32.192 Z M68.5608889,31.136 C68.1768889,31.136 67.8515555,31.04 67.5848889,30.848 C67.3182222,30.656 67.1848889,30.336 67.1848889,29.888 C67.1848889,29.6426667 67.2462222,29.416 67.3688889,29.208 C67.4915555,29 67.6888889,28.816 67.9608889,28.656 C68.2328889,28.496 68.5902222,28.3573333 69.0328889,28.24 C69.4755555,28.1226667 70.0222222,28.0213333 70.6728889,27.936 L70.6728889,27.936 L70.6728889,30.096 C70.2995555,30.4373333 69.9475555,30.696 69.6168889,30.872 C69.2862222,31.048 68.9342222,31.136 68.5608889,31.136 Z M74.9413333,35.344 C75.336,35.344 75.6826667,35.2746667 75.9813333,35.136 C76.28,34.9973333 76.5466667,34.808 76.7813333,34.568 C77.016,34.328 77.2186667,34.0426667 77.3893333,33.712 C77.56,33.3813333 77.7146667,33.024 77.8533333,32.64 L77.8533333,32.64 L80.7813333,24.224 L79.5013333,24.224 L78.1093333,28.528 C78.0026667,28.8693333 77.896,29.232 77.7893333,29.616 C77.6826667,30 77.5706667,30.368 77.4533333,30.72 L77.4533333,30.72 L77.3893333,30.72 C77.272,30.3573333 77.1466667,29.9866667 77.0133333,29.608 C76.88,29.2293333 76.7546667,28.8693333 76.6373333,28.528 L76.6373333,28.528 L75.0533333,24.224 L73.6933333,24.224 L76.8133333,32.016 L76.6373333,32.592 C76.4773333,33.072 76.256,33.4693333 75.9733333,33.784 C75.6906667,34.0986667 75.3253333,34.256 74.8773333,34.256 C74.7813333,34.256 74.68,34.2426667 74.5733333,34.216 L74.5733333,34.216 L74.2853333,34.144 L74.0293333,35.184 C74.1573333,35.2373333 74.296,35.2773333 74.4453333,35.304 C74.5946667,35.3306667 74.76,35.344 74.9413333,35.344 Z" id="eBay" fill="#52667A" fill-rule="nonzero"></path>
                                    <g transform="translate(158.000000, 14.000000)" fill="#758CA3" id="Icon">
                                        <path d="M11,11 L11,6 C11,5.44771525 11.4477153,5 12,5 C12.5522847,5 13,5.44771525 13,6 L13,11 L18,11 C18.5522847,11 19,11.4477153 19,12 C19,12.5522847 18.5522847,13 18,13 L13,13 L13,18 C13,18.5522847 12.5522847,19 12,19 C11.4477153,19 11,18.5522847 11,18 L11,13 L6,13 C5.44771525,13 5,12.5522847 5,12 C5,11.4477153 5.44771525,11 6,11 L11,11 Z"></path>
                                    </g>
                                </g>
                                <g id="Icon" transform="translate(158.000000, 14.000000)" fill="#758CA3">
                                    <path d="M11,11 L11,6 C11,5.44771525 11.4477153,5 12,5 C12.5522847,5 13,5.44771525 13,6 L13,11 L18,11 C18.5522847,11 19,11.4477153 19,12 C19,12.5522847 18.5522847,13 18,13 L13,13 L13,18 C13,18.5522847 12.5522847,19 12,19 C11.4477153,19 11,18.5522847 11,18 L11,13 L6,13 C5.44771525,13 5,12.5522847 5,12 C5,11.4477153 5.44771525,11 6,11 L11,11 Z"></path>
                                </g>
                            </g>
                        </g>
                        <path d="M54,94 C56.209139,94 58,95.790861 58,98 L58,116 C58,118.209139 56.209139,120 54,120 L36,120 C33.790861,120 32,118.209139 32,116 L32,98 C32,95.790861 33.790861,94 36,94 L54,94 Z M41.3508158,103.007318 L40.2806433,103.007318 L40.28,107.181 L40.2792614,107.140123 C40.240017,106.229848 39.6560353,104.9238 37.7206514,104.9238 C36.2404503,104.9238 35.0069998,105.57981 35.0069998,107.558963 C35.0069998,109.126888 35.836406,110.114273 37.7588718,110.114273 C40.021704,110.114273 40.1667598,108.557131 40.1667598,108.557131 L40.1667598,108.557131 L39.0703108,108.557131 C39.041387,108.647706 38.7717098,109.395592 37.691986,109.395592 L37.691986,109.395592 L37.5392874,109.389575 C36.6885057,109.321768 36.0911418,108.687335 36.0911418,107.817495 L36.0911418,107.817495 L40.28,107.817 L40.2806433,109.12035 L40.2799795,109.228028 C40.2761389,109.559917 40.2569359,109.954566 40.2569359,109.954566 L40.2569359,109.954566 L41.3027173,109.954566 L41.3040045,109.942127 C41.3105953,109.877176 41.3402539,109.569104 41.3402539,109.284836 C41.3402539,109.284836 41.8569374,110.129245 43.2618382,110.129245 C44.4640016,110.129245 45.3528458,109.42076 45.6415101,108.328875 C45.6348477,108.389665 45.6315055,108.45244 45.6315055,108.517204 C45.6315055,109.570097 46.4741998,110.14297 47.6129969,110.14297 C49.0239093,110.14297 49.5653609,109.402594 49.6521462,109.26798 L49.6521462,109.26798 L49.6649566,109.247115 L49.6661677,109.384669 C49.6700139,109.610978 49.6820434,109.816267 49.6879354,109.906343 L49.6879354,109.906343 L49.6912542,109.954566 L50.6766043,109.954566 L50.6752936,109.939258 C50.6685827,109.859783 50.6383836,109.488391 50.6383836,109.240876 L50.6383836,109.240876 L50.6383836,106.834044 L50.6322532,106.644959 C50.6160331,106.401164 50.5681389,106.190296 50.4946992,106.008244 L50.4946992,106.008244 L52.4944644,109.932665 L51.5560157,111.791394 L52.7408497,111.791394 L55.993,105.123635 L54.8634492,105.123635 L53.0780082,108.868903 L51.2884729,105.123635 L50.0415307,105.123635 L50.363,105.752 L50.2694512,105.620684 C49.8606064,105.11097 49.1713413,104.948472 48.5097893,104.926488 L48.345157,104.9238 C46.1183065,104.9238 45.9754897,106.197548 45.9754897,106.401089 L45.9754897,106.401089 L47.0838823,106.401089 C47.0929607,106.324871 47.2013066,105.657453 48.2687163,105.657453 C49.0008708,105.657453 49.5682117,106.007533 49.5682117,106.680576 L49.5682117,106.680576 L49.5682117,106.920136 L48.2687163,106.920136 L48.0339085,106.923541 C46.7331869,106.962137 45.9409807,107.329046 45.7066946,108.032629 C45.7327363,107.868264 45.7461669,107.696753 45.7461669,107.519037 C45.7461669,106.08896 44.8231231,104.938773 43.2642266,104.938773 C41.8044301,104.938773 41.3508158,105.762261 41.3508158,105.762261 L41.3508158,105.762261 L41.3508158,103.007318 Z M49.5682117,107.638817 L49.5682117,107.95823 L49.5667375,108.015945 C49.5445394,108.462939 49.2591354,109.410565 47.8733738,109.410565 C47.0800428,109.410565 46.7398988,108.996958 46.7398988,108.517204 C46.7398988,107.644438 47.8853634,107.638817 49.5682117,107.638817 L49.5682117,107.638817 Z M42.9942947,105.694885 C43.998934,105.694885 44.6377743,106.473787 44.6377743,107.519037 C44.6377743,108.639876 43.8999351,109.373133 43.0014613,109.373133 C41.9292115,109.373133 41.3508158,108.49855 41.3508158,107.529018 C41.3508158,106.625604 41.8698272,105.694885 42.9942947,105.694885 Z M37.6824309,105.662444 C38.5687752,105.662444 39.1730282,106.229678 39.1730282,107.079843 L39.1730282,107.079843 L36.1153927,107.079843 L36.1234173,106.924619 C36.2081455,106.118501 36.9498812,105.662444 37.6824309,105.662444 Z" id="eBay-Logo" fill="#000000" mask="url(#mask-2)"></path>
                        <rect id="Rectangle" fill="url(#linearGradient-7)" mask="url(#mask-2)" x="16" y="97" width="204" height="51"></rect>
                        <g id="Amazon-Logo" mask="url(#mask-2)" fill-rule="nonzero">
                            <g transform="translate(32.000000, 31.000000)" id="Shape">
                                <path d="M22.0901484,21.3610313 C11.4022187,26.4475859 4.76917187,22.1918125 0.523148437,19.6069453 C0.26040625,19.4440391 -0.186164063,19.6450313 0.201296875,20.0900781 C1.61585937,21.8052656 6.25167969,25.9393672 12.3027734,25.9393672 C18.3580312,25.9393672 21.9603516,22.6353359 22.4109844,22.0589688 C22.8585703,21.4874766 22.5424062,21.1722266 22.0900469,21.3610313 L22.0901484,21.3610313 Z M25.0918281,19.7033281 C24.8048125,19.3295781 23.3465781,19.2599063 22.4288594,19.3726406 C21.5097187,19.482125 20.1300937,20.0438672 20.2500391,20.3811563 C20.3115859,20.5075 20.4372187,20.4508281 21.0686328,20.3940547 C21.7017734,20.3308828 23.4754609,20.1070391 23.8450469,20.5901719 C24.2163594,21.0766563 23.2793437,23.3941094 23.1082109,23.7678594 C22.9428672,24.1416094 23.1713828,24.2379922 23.4819609,23.9890625 C23.7882734,23.7402344 24.3428047,23.0958203 24.7149297,22.1838906 C25.0845156,21.2669844 25.3098828,19.9879063 25.0917266,19.7033281 L25.0918281,19.7033281 Z" fill="#FF9900"></path>
                                <path d="" fill="#000000"></path>
                                <path d="M22.0901484,21.3610313 C11.4022187,26.4475859 4.76917187,22.1918125 0.523148437,19.6069453 C0.26040625,19.4440391 -0.186164063,19.6450313 0.201296875,20.0900781 C1.61585937,21.8052656 6.25167969,25.9393672 12.3027734,25.9393672 C18.3580312,25.9393672 21.9603516,22.6353359 22.4109844,22.0589688 C22.8585703,21.4874766 22.5424062,21.1722266 22.0900469,21.3610313 L22.0901484,21.3610313 Z M25.0918281,19.7033281 C24.8048125,19.3295781 23.3465781,19.2599063 22.4288594,19.3726406 C21.5097187,19.482125 20.1300937,20.0438672 20.2500391,20.3811563 C20.3115859,20.5075 20.4372187,20.4508281 21.0686328,20.3940547 C21.7017734,20.3308828 23.4754609,20.1070391 23.8450469,20.5901719 C24.2163594,21.0766563 23.2793437,23.3941094 23.1082109,23.7678594 C22.9428672,24.1416094 23.1713828,24.2379922 23.4819609,23.9890625 C23.7882734,23.7402344 24.3428047,23.0958203 24.7149297,22.1838906 C25.0845156,21.2669844 25.3098828,19.9879063 25.0917266,19.7033281 L25.0918281,19.7033281 Z" fill="#FF9900"></path>
                                <path d="M13.0436719,0.044484375 C14.7108203,0.044484375 16.888625,0.487804687 18.2040625,1.75022656 C19.5506055,3.00719141 19.7057991,4.60365204 19.7156908,6.36188692 L19.7154668,6.86848824 C19.7142816,7.12383639 19.7121641,7.38214062 19.7121641,7.64288281 L19.7121641,12.9815156 C19.7121641,14.586 20.3770937,15.2894219 21.0034297,16.1567656 C21.2250391,16.4651094 21.2732812,16.8362187 20.9937812,17.067375 C20.2951328,17.6503438 19.0520078,18.7345234 18.3678828,19.3416641 L18.3582344,19.3320156 C18.1318516,19.5343281 17.8042109,19.5488516 17.5488828,19.413875 C16.4117891,18.4695469 16.209375,18.0311016 15.5830391,17.1300391 C13.7039297,19.0477422 12.3740703,19.6210625 9.9360625,19.6210625 C7.05473437,19.6210625 4.80939062,17.8431094 4.80939062,14.2824297 C4.80939062,11.5023594 6.31759375,9.60872656 8.46157812,8.68369531 C10.3214922,7.86449219 12.9185469,7.71996875 14.9036875,7.49358594 L14.9036875,7.05026562 C14.9036875,6.2359375 14.96625,5.2723125 14.4893125,4.56889062 C14.0700625,3.93767969 13.2702578,3.67747656 12.5667344,3.67747656 C11.2610469,3.67747656 10.0950078,4.34717969 9.81073437,5.73482812 C9.75284375,6.04327344 9.52646094,6.34684375 9.21811719,6.36126562 L5.89346875,6.00478125 C5.61407031,5.94201562 5.30572656,5.71563281 5.3828125,5.28673437 C6.14889844,1.25876562 9.7865625,0.044484375 13.0436719,0.044484375 Z M14.9036875,10.2399375 C12.4269844,10.2399375 9.81073437,10.7698906 9.81073437,13.6898125 C9.81073437,15.1689687 10.5768203,16.1711875 11.8922578,16.1711875 C12.8558828,16.1711875 13.7183516,15.5785703 14.2628281,14.6148437 C14.8474625,13.5876406 14.9000872,12.6146759 14.903727,11.5046835 Z" fill="#000000"></path>
                            </g>
                        </g>
                    </g>
                </g>
            </g>
        </g>
    </g>
</svg>