<?xml version="1.0" encoding="UTF-8"?>
<svg width="413px" height="220px" viewBox="0 0 413 220" version="1.1" xmlns="http://www.w3.org/2000/svg" xmlns:xlink="http://www.w3.org/1999/xlink">
    <!-- Generator: sketchtool 55.1 (78136) - https://sketchapp.com -->
    <title>A9BAAA77-2C5A-47C8-B023-08AC20A941A3@1.00x</title>
    <desc>Created with sketchtool.</desc>
    <g id="1.-Setup" stroke="none" stroke-width="1" fill="none" fill-rule="evenodd">
        <g id="Installer_System-start" transform="translate(-747.000000, -310.000000)" fill-rule="nonzero">
            <g id="06.01_Welcome" transform="translate(730.000000, 310.000000)">
                <g id="Final" transform="translate(17.000000, 0.000000)">
                    <g id="Group" fill="#E6EFF7">
                        <path d="M412.77875,109.268261 C411.505968,153.930652 368.326532,191.292391 330.173992,207.515 C303.535968,218.840217 273.836129,222.05413 245.259194,218.469565 C224.316573,215.843913 203.783145,210.690652 182.757258,208.646087 C161.850323,206.613478 140.826815,206.142391 119.903226,204.291522 C76.333629,200.436739 45.3752823,181.179565 20.0052823,145.211957 C5.99991935,125.356957 -3.66370968,106.747826 1.67245968,81.8902174 C5.46701613,64.2184783 16.443871,49.8515217 31.0439919,39.6573913 C46.5981048,28.796087 66.2822177,20.8832609 84.9742742,17.9276087 C107.648831,14.3430435 130.399516,18.5923913 153.036008,20.263913 C176.445685,21.9904348 198.028266,19.0132609 220.712339,13.1378261 C248.694516,5.88978261 277.209597,-2.80021739 306.43125,1.04978261 C355.888952,7.56608696 414.194274,55.2558696 412.77875,109.268261 Z" id="Path"></path>
                    </g>
                    <path d="M34.3127823,163.03913 C56.9468952,187.616957 84.1868145,201.130217 119.900847,204.28913 C140.822056,206.14 161.845565,206.611087 182.754879,208.643696 C203.783145,210.688261 224.314194,215.841522 245.256815,218.467174 C273.83375,222.051739 303.535968,218.837826 330.171613,207.512609 C351.452056,198.463913 374.295524,182.83913 390.558589,163.036739 L34.3127823,163.036739 L34.3127823,163.03913 Z" id="Path" fill="#C3D6E5"></path>
                    <ellipse id="Oval" fill="#B8CDD9" cx="167.24121" cy="199.415652" rx="35.0407661" ry="5.43543478"></ellipse>
                    <ellipse id="Oval" fill="#B8CDD9" cx="256.768952" cy="199.145435" rx="38.5950403" ry="5.8826087"></ellipse>
                    <g id="Group" transform="translate(17.366935, 10.760870)">
                        <path d="M83.2399597,136.036522 C82.8878629,136.93087 81.9957258,137.971087 80.8085887,139.061522 C80.2471371,139.578043 79.6190726,140.106522 78.9505645,140.635 C75.4391129,143.42087 70.8214113,146.256957 68.8587097,147.737174 C65.7493145,150.083043 63.9697984,151.281087 62.1641129,151.878913 C61.5193952,152.09413 60.8699194,152.230435 60.1538306,152.316522 C60.0634274,152.326087 59.9730242,152.335652 59.8802419,152.345217 C57.9746371,152.53413 55.5741935,152.395435 51.5869355,152.36913 C50.2594355,152.359565 48.9319355,152.352391 47.6020565,152.345217 C47.5187903,152.342826 47.4331452,152.342826 47.349879,152.342826 C47.0525,152.340435 46.7527419,152.340435 46.4553629,152.338043 C45.1706855,152.33087 43.8860081,152.323696 42.6013306,152.318913 C34.0653629,152.280652 25.5079839,152.263913 16.9506048,152.249565 C16.8364113,152.125217 16.7222177,152.003261 16.6104032,151.878913 C10.5248387,145.190435 4.97217742,138.057174 0.178427419,130.859348 C1.02060484,130.158696 1.81995968,129.429348 2.55270161,128.661739 C6.05701613,124.998261 8.16959677,119.739783 13.0775403,117.190652 C19.8887097,113.64913 26.3953629,115.911304 32.8282661,110.813043 C35.1644758,108.959783 37.2937097,104.877826 39.6513306,103.684565 C40.7885081,103.108261 41.7567742,102.771087 42.6013306,102.613261 C44.6972581,102.211522 46.0437903,102.902609 47.349879,103.758696 C48.451371,104.478478 49.5266935,105.315435 50.9993145,105.714783 C62.4400806,108.811522 73.1528629,112.984348 78.9505645,121.593043 C79.6452419,122.618913 80.2661694,123.709348 80.8085887,124.86913 C81.5936694,126.531087 82.2169758,128.33413 82.6594758,130.297391 C83.4279032,133.695435 84.2914919,133.358261 83.2399597,136.036522 Z" id="Path" fill="#D1E3ED"></path>
                        <path d="M122.834194,39.1958696 C122.834194,39.1958696 124.963427,29.8147826 113.822419,30.4078261 C102.681411,31.0008696 105.184153,33.6671739 95.1708065,34.1597826 C85.1574597,34.6523913 80.7752823,33.5667391 74.7658468,36.6276087 C68.7564113,39.6884783 61.3718952,39.293913 61.3718952,39.293913 L122.834194,39.1958696 Z" id="Path" fill="#C4D7E6"></path>
                        <path d="M47.9137097,47.5726087 C47.9137097,47.5726087 43.3459677,33.0717391 54.7367742,32.0841304 C66.1275806,31.0965217 69.6342742,31.986087 74.7658468,29.6163043 C79.8974194,27.2465217 82.4025403,24.4821739 90.4127419,27.8395652 C98.4229435,31.1969565 105.433952,34.0617391 110.315726,35.2454348 C115.1975,36.4315217 115.447298,39.0978261 115.447298,39.0978261 L47.9137097,47.5726087 Z" id="Path" fill="#D1E3ED"></path>
                        <path d="M173.348185,38.2728261 L44.5045565,38.2728261 C43.4530242,38.2728261 42.6013306,39.128913 42.6013306,40.1858696 L42.6013306,152.342826 L175.251411,152.120435 L175.251411,40.1858696 C175.251411,39.1313043 174.399718,38.2728261 173.348185,38.2728261 Z" id="Path" fill="#DCE8F4"></path>
                        <path d="M331.361129,38.4952174 L180.530484,38.4952174 C179.478952,38.4952174 178.627258,39.3513043 178.627258,40.4082609 L178.627258,152.342826 L333.264355,152.342826 L333.264355,40.4082609 C333.264355,39.3536957 332.410282,38.4952174 331.361129,38.4952174 Z" id="Path" fill="#DCE8F4"></path>
                        <rect id="Rectangle" fill="#E7F0F8" x="47.349879" y="69.1947826" width="65.6969758" height="83.1504348"></rect>
                        <rect id="Rectangle" fill="#E7F0F8" x="263.071008" y="69.1134783" width="65.8539919" height="83.2317391"></rect>
                        <rect id="Rectangle" fill="#C4D7E6" x="42.6013306" y="67.9273913" width="132.650081" height="1.33434783"></rect>
                        <rect id="Rectangle" fill="#C4D7E6" x="177.806492" y="67.9273913" width="156.064516" height="1.33434783"></rect>
                        <g transform="translate(287.625000, 69.108696)" fill="#C4D7E6" id="Rectangle">
                            <rect x="7.44399194" y="0.169782609" width="1.85802419" height="83.0667391"></rect>
                            <rect x="0.083266129" y="30.1519565" width="3.56854839" height="14.1086957"></rect>
                            <rect x="13.5771371" y="30.1519565" width="3.56854839" height="14.1086957"></rect>
                        </g>
                        <g transform="translate(71.370968, 69.108696)" fill="#C4D7E6" id="Rectangle">
                            <rect x="7.57959677" y="0.169782609" width="1.85802419" height="83.0667391"></rect>
                            <rect x="0.218870968" y="30.1519565" width="3.56854839" height="14.1086957"></rect>
                            <rect x="13.7127419" y="30.1519565" width="3.56854839" height="14.1086957"></rect>
                        </g>
                        <rect id="Rectangle" fill="#E7F0F8" x="117.06504" y="78.155" width="53.6019758" height="59.4956522"></rect>
                        <rect id="Rectangle" fill="#E7F0F8" x="184.67" y="78.155" width="72.9839516" height="59.4956522"></rect>
                        <path d="M212.173992,60.641087 C220.97879,61.3465217 230.61625,62.1428261 239.04754,58.9002174 C241.966613,57.7763043 247.405081,55.2726087 246.719919,51.3030435 C246.118024,47.8141304 241.145847,46.9771739 238.326694,47.5726087 C235.015081,48.2732609 231.615444,51.535 232.757379,55.2056522 C234.099153,59.5243478 240.748548,59.2230435 244.264758,59.0317391 C249.305927,58.7591304 254.21625,57.4654348 259.031411,56.0163043 C261.450887,55.2869565 263.858468,54.5169565 266.285081,53.8115217 C268.871089,53.0606522 271.300081,52.2619565 273.714798,53.9047826 C275.696532,55.2534783 277.478427,56.5758696 279.73375,57.4606522 C282.162742,58.4123913 284.736855,58.9576087 287.320484,59.2756522 C293.320403,60.0169565 299.379798,59.3569565 305.358306,58.7136957 C306.262339,58.6156522 306.271855,57.1808696 305.358306,57.278913 C296.615363,58.221087 286.74,59.4597826 278.548992,55.3826087 C276.945524,54.583913 275.651331,53.4241304 274.15254,52.4795652 C272.553831,51.4704348 270.838548,51.2623913 268.999556,51.613913 C264.648306,52.4484783 260.416008,54.1630435 256.155161,55.3682609 C251.85625,56.5854348 247.45504,57.5730435 242.970565,57.6471739 C240.808024,57.6830435 238.448024,57.6591304 236.397298,56.8963043 C234.291855,56.1143478 233.411613,54.0602174 234.422702,52.0228261 C236.095161,48.6486957 241.150605,47.8858696 244.114879,49.916087 C248.278185,52.768913 241.150605,56.5471739 238.838185,57.4558696 C230.490161,60.7343478 220.916935,59.9093478 212.181129,59.2086957 C211.258065,59.1321739 211.262823,60.5669565 212.173992,60.641087 L212.173992,60.641087 Z" id="Path" fill="#C4D7E6"></path>
                        <path d="M74.6397581,58.1063043 C82.3739919,58.0919565 90.2295565,58.1923913 97.9257258,57.3147826 C100.982782,56.9656522 104.120726,56.4754348 106.954153,55.2128261 C107.820121,54.8278261 109.383145,54.2204348 109.644839,53.185 C109.944597,52.0036957 108.464839,51.425 107.594113,51.2097826 C104.986694,50.568913 100.901895,50.9156522 99.0533871,53.1443478 C97.2857661,55.2773913 99.0533871,57.5563043 101.23496,58.3095652 C102.983548,58.9121739 104.974798,58.9265217 106.801895,58.9815217 C108.793145,59.038913 110.786774,58.9934783 112.773266,58.8404348 C116.467903,58.5582609 120.076895,57.8767391 123.631169,56.8365217 C127.63746,55.6623913 131.584274,54.7393478 135.761855,54.4571739 C140.036976,54.1678261 144.357298,54.3543478 148.577702,55.11 C149.476976,55.2702174 149.862379,53.8880435 148.958347,53.7254348 C143.006008,52.6613043 136.858589,52.6134783 130.887218,53.5747826 C127.853952,54.0626087 124.958669,54.9904348 122.00629,55.8106522 C118.844556,56.6882609 115.606694,57.2119565 112.335524,57.4391304 C109.092903,57.6615217 105.374476,57.915 102.196089,57.1019565 C101.104113,56.8221739 99.4078629,56.0784783 99.8170565,54.6556522 C100.214355,53.2686957 102.224637,52.7713043 103.459355,52.556087 C104.180202,52.4293478 104.917702,52.383913 105.650444,52.4054348 C105.919274,52.4126087 108.148427,52.5441304 108.150806,52.9434783 C108.150806,53.0486957 107.120685,53.546087 107.032661,53.5915217 C106.454556,53.8976087 105.852661,54.1463043 105.238871,54.363913 C102.5125,55.3276087 99.5958065,55.7341304 96.7314516,56.0091304 C89.4135484,56.7121739 81.9862097,56.6619565 74.6397581,56.6763043 C73.7214516,56.673913 73.7190726,58.1086957 74.6397581,58.1063043 L74.6397581,58.1063043 Z" id="Path" fill="#C4D7E6"></path>
                        <path d="M321.285927,26.6247826 C320.952863,35.0134783 318.088508,43.6413043 316.435081,51.8984783 L316.435081,69.9934783 C316.794315,71.0767391 317.236815,72.1504348 317.783992,73.2002174 C323.579315,84.3197826 320.317661,90.0804348 321.450081,95.2097826 C321.592823,95.8769565 321.814073,96.5369565 322.147137,97.1945652 L322.154274,97.2065217 C322.363629,97.6441304 322.630081,98.0697826 322.948871,98.5121739 C323.312863,99.0095652 323.788669,99.518913 324.369153,100.021087 C324.557097,100.183696 324.752177,100.348696 324.961532,100.50413 C327.702177,102.685 332.189032,104.751087 337.066048,105.827174 C338.146129,106.061522 339.254758,106.257609 340.368145,106.381957 C342.00254,106.578043 343.648831,106.642609 345.257056,106.551739 C350.088871,106.257609 354.594758,104.526304 357.511452,100.501739 C357.668468,100.293696 357.818347,100.071304 357.961089,99.848913 C357.961089,99.848913 362.773871,94.8319565 365.990323,87.3854348 C366.080726,87.1702174 366.173508,86.955 366.263911,86.7326087 C366.784919,85.4723913 367.253589,84.1380435 367.64375,82.7534783 C368.640565,79.2454348 369.128266,75.3906522 368.621532,71.3923913 C368.309879,68.9030435 367.983952,66.8393478 367.64375,65.0482609 C366.002218,56.406087 364.003831,54.1845652 360.768347,41.7067391 C360.708871,41.4915217 360.656532,41.2763043 360.599435,41.053913 C360.437661,40.4202174 360.273508,39.7530435 360.104597,39.0619565 C360.095081,39.0236957 360.085565,38.9854348 360.078427,38.9495652 C358.912702,34.0617391 359.624032,28.9084783 361.831774,24.3936957 C366.494677,14.8595652 369.351895,7.57565217 352.670121,2.15934783 C352.558306,2.11391304 352.441734,2.07326087 352.325161,2.035 C348.007218,0.552391304 344.205524,-0.00239130435 340.879637,0.179347826 C333.918589,0.564347826 329.04871,4.19673913 325.903629,9.39782609 C322.977419,14.2330435 321.540484,20.4193478 321.285927,26.6247826 Z" id="Path" fill="#D1E3ED"></path>
                        <polygon id="Path" fill="#B8CDD9" points="338.29125 152.03913 342.44504 41.446087 346.598831 152.03913"></polygon>
                    </g>
                    <path d="M205.543629,52.8286957 C203.152702,47.056087 195.021169,44.9206522 192.36379,43.6532609 C189.70879,42.3858696 190.106089,34.8102174 190.106089,34.8102174 C190.106089,34.8102174 180.611371,26.8352174 180.611371,33.6097826 C180.611371,40.3843478 176.695484,41.8526087 176.695484,41.8526087 C168.397419,42.7876087 164.212702,47.2904348 162.951815,48.5267391 C161.690927,49.7630435 154.154153,59.203913 154.154153,59.203913 L154.08754,58.268913 C154.387298,51.7621739 147.447661,39.183913 146.883831,38.3828261 C146.32,37.5817391 144.128911,31.8091304 144.128911,31.8091304 L142.95129,28.8917391 C142.627742,28.2078261 142.254234,26.9021739 142.815685,25.103913 C143.17254,24.2884783 143.557944,23.1143478 143.938589,21.418913 C143.938589,21.418913 144.350161,18.8004348 145.208992,16.2082609 C145.354113,15.7730435 145.370766,15.51 145.304153,15.3736957 C145.273226,14.6921739 144.911613,13.7428261 142.465968,17.128913 C142.465968,17.128913 142.389839,17.3130435 142.270887,17.5808696 C141.785565,18.4943478 141.095645,20.3763043 140.246331,19.3169565 C139.435081,18.3030435 138.026694,15.973913 136.851452,14.2473913 C135.990242,12.98 134.579476,12.1693478 133.052137,12.1669391 C131.332097,12.1621739 129.538306,13.1402174 129.916573,17.6645652 C130.630282,21.1367391 131.850726,22.7723913 133.399476,25.0465217 C135.297944,28.2532609 136.29,30.4102174 136.29,30.4102174 L136.991815,32.0123913 C138.718992,35.8169565 146.817218,64.2782609 147.814032,67.6476087 C148.810847,71.0169565 153.490403,70.9165217 154.984435,70.7180435 C156.478468,70.5171739 166.237258,64.3117391 166.237258,64.3117391 C166.237258,64.3117391 166.437097,75.6895652 166.60125,81.0963043 C166.767782,86.5006522 166.334798,105.152826 166.334798,105.152826 C166.334798,105.152826 196.807823,107.888478 196.74121,106.221739 C196.674597,104.552609 196.807823,93.0408696 197.835565,88.2702174 C198.865685,83.4995652 201.354153,76.7919565 201.354153,76.7919565 C201.520685,77.5595652 204.009153,86.7015217 204.04246,87.1032609 C204.075766,87.5026087 203.345403,89.4395652 202.548427,93.0097826 C201.751452,96.58 202.781573,106.38913 202.912419,106.38913 C203.043266,106.38913 207.92504,107.589565 208.124879,106.723913 C208.324718,105.85587 211.510242,83.4995652 211.510242,83.4995652 C211.484073,76.6867391 207.932177,58.6013043 205.543629,52.8286957 Z" id="Path" fill="#D3A095"></path>
                    <path d="M242.720766,39.2269565 C242.720766,39.2269565 243.384516,48.0365217 245.508992,48.258913 C247.633468,48.4813043 254.582621,49.4593478 260.025847,56.3104348 C265.469073,63.1615217 267.771976,67.9226087 268.435726,68.011087 C269.099476,68.0995652 270.560202,68.3219565 272.375403,64.8067391 C274.190605,61.2915217 278.527581,54.8421739 281.803508,51.4154348 L287.025484,52.6158696 L272.817903,79.4869565 C272.817903,79.4869565 271.002702,83.0452174 266.932177,80.2426087 C262.859274,77.44 258.831573,72.8128261 258.831573,72.8128261 C258.831573,72.8128261 258.434274,88.0717391 259.407298,96.658913 C260.380323,105.246087 261.134476,110.80587 261.398548,111.563913 C261.665,112.319565 227.537782,112.498913 227.537782,112.498913 C227.537782,112.498913 227.892258,96.3934783 227.449758,89.453913 C227.007258,82.5143478 226.165081,75.483913 226.165081,75.483913 C226.165081,75.483913 221.961331,80.5558696 221.782903,84.4704348 C221.606855,88.385 222.755927,104.758261 222.889153,105.157609 C223.022379,105.556957 217.755202,106.759783 217.755202,106.759783 C217.755202,106.759783 213.967782,94.0691304 213.601411,86.295 C213.822661,78.7767391 217.400726,58.9336957 219.9225,55.9971739 C222.444274,53.0606522 224.304677,50.2580435 229.041331,48.478913 C229.041331,48.478913 232.317258,46.4319565 232.493306,40.2480435 C232.674113,34.0665217 242.720766,39.2269565 242.720766,39.2269565 Z" id="Path" fill="#C18F74"></path>
                    <path d="M214.279435,79.9915217 L219.358669,83.1815217 C219.358669,83.1815217 221.361815,84.0184783 221.771008,85.9745652 C221.763871,85.3719565 221.768629,84.8602174 221.787661,84.4728261 C221.861411,82.8395652 222.636976,81.0030435 223.517218,79.42 L223.521976,79.1354348 L214.917016,75.5102174 C214.674355,77.055 214.460242,78.5663043 214.279435,79.9915217 Z" id="Path" fill="#000000" opacity="0.15"></path>
                    <path d="M232.145968,43.1582609 C232.957218,43.4691304 234.786694,44.0215217 237.108629,43.8086957 C239.530484,43.5863043 241.92379,41.8693478 242.915847,41.0730435 C242.780242,39.9897826 242.723145,39.2245652 242.723145,39.2245652 C242.723145,39.2245652 232.676492,34.0641304 232.498065,40.2480435 C232.467137,41.3456522 232.33629,42.3093478 232.145968,43.1582609 Z" id="Path" fill="#000000" opacity="0.15"></path>
                    <path d="M261.400927,111.566304 C261.400927,111.566304 263.170927,121.265435 263.879879,126.026522 C264.588831,130.787609 269.456331,155.968043 269.544355,156.991522 C269.632379,158.015 276.448306,189.735652 276.405685,191.916522 C276.362661,194.097391 276.405685,200.503696 276.405685,200.503696 L269.898831,200.503696 L269.411129,192.361304 C269.411129,192.361304 262.195524,176.78913 261.046452,172.118913 C259.895,167.448696 257.727702,158.459783 258.391452,153.256304 C258.391452,153.256304 249.229798,139.776522 245.644597,124.694565 L245.644597,111.659565 L261.400927,111.566304 Z" id="Path" fill="#C18F74"></path>
                    <path d="M274.485605,192.669783 C272.270726,194.924783 269.734677,192.51913 269.256492,192.021739 C269.356411,192.239348 269.411129,192.358913 269.411129,192.358913 L269.572903,195.056304 L274.254839,196.139565 C274.254839,196.139565 276.943145,190.168478 274.485605,192.669783 Z" id="Path" fill="#000000" opacity="0.15"></path>
                    <path d="M269.544355,156.998696 C269.544355,156.996304 269.544355,156.991522 269.541976,156.98913 C269.520565,156.752391 269.242218,155.21 268.81875,152.923913 L257.803831,152.359565 C258.17496,152.940652 258.389073,153.253913 258.389073,153.253913 C258.203508,154.712609 258.239194,156.467826 258.412863,158.342609 C260.396976,156.993913 268.433347,156.993913 269.544355,156.998696 Z" id="Path" fill="#000000" opacity="0.15"></path>
                    <path d="M227.71621,112.410435 C227.71621,112.410435 228.334758,144.709783 230.061935,152.185 C230.061935,152.185 228.805806,164.330435 229.514758,173.316957 C230.22371,182.303478 231.467944,193.738696 231.467944,193.738696 L231.467944,201.168478 L237.177621,201.168478 L236.961129,193.827174 C236.961129,193.827174 238.250565,183.15 238.914315,177.989565 C239.578065,172.82913 240.641492,164.37587 239.799315,153.296957 C239.799315,153.296957 243.03004,142.48587 245.642218,124.689783 C248.254395,106.893696 244.890444,109.251522 244.890444,109.251522 L227.71621,112.410435 Z" id="Path" fill="#C18F74"></path>
                    <path d="M236.989677,194.721522 L236.963508,193.827174 C236.963508,193.827174 237.189516,191.954783 237.501169,189.398478 C236.599516,188.54 235.724032,188.315217 234.03254,188.315217 C232.471895,188.315217 231.396573,188.982391 230.999274,189.262174 C231.277621,191.961957 231.470323,193.738696 231.470323,193.738696 L231.470323,195.027609 L236.989677,194.721522 Z" id="Path" fill="#000000" opacity="0.15"></path>
                    <path d="M244.676331,117.393913 C251.689718,117.023261 259.395403,116.231739 262.266895,115.92087 C262.055161,114.911739 261.929073,114.323478 261.929073,114.323478 C261.929073,114.323478 230.038145,109.741739 227.737621,114.54587 C227.49496,115.055217 227.27371,115.724783 227.07625,116.518696 C229.367258,116.829565 237.234718,117.788478 244.676331,117.393913 Z" id="Path" fill="#0B283A"></path>
                    <path d="M281.803508,51.4154348 C281.803508,51.4154348 281.886774,48.7347826 281.82254,46.8480435 C281.808266,46.4391304 281.62746,44.1147826 281.767823,43.7297826 C281.832056,42.6178261 280.64254,40.7478261 281.584637,39.6454348 C281.672661,39.5426087 281.79875,39.4852174 281.931976,39.4804348 C283.040605,40.3341304 284.101653,41.6756522 284.539395,43.6054348 C284.615524,43.9402174 284.803468,43.9569565 284.94621,43.6436957 C285.624234,42.1515217 286.42121,40.3652174 287.099234,38.963913 C287.394234,38.3565217 287.820081,37.8232609 288.360121,37.4191304 C288.43625,37.3617391 288.502863,37.3163043 288.548065,37.2923913 C289.532984,36.4482609 291.988145,36.4673913 293.251411,38.9352174 C293.800968,40.0113043 293.924677,41.25 293.720081,42.4432609 C292.799395,47.8452174 287.94379,50.356087 287.296694,52.0634783 C287.184879,52.3073913 287.023105,52.6206522 287.023105,52.6206522 L281.803508,51.4154348 Z" id="Path" fill="#C18F74"></path>
                    <path d="M222.893911,105.16 L223.847903,107.424565 C224.368911,108.658478 224.630605,109.988043 224.621089,111.329565 C224.611573,112.582609 224.580645,114.012609 224.485484,114.414348 C223.728952,115.358913 223.165121,112.979565 223.031895,112.489348 C223.031895,112.489348 223.100887,114.371304 223.26504,115.626739 C223.436331,116.941957 224.178589,118.149565 223.531492,119.02 C223.383992,119.218478 223.134194,119.306957 222.889153,119.280652 C220.476815,119.02 218.428468,117.508696 217.579153,113.304783 C217.453065,109.923478 217.353145,108.089348 217.755202,106.764565 L222.893911,105.16 Z" id="Path" fill="#C18F74"></path>
                    <path d="M161.776573,65.9856522 L158.407863,53.923913 C157.044677,55.5978261 155.714798,57.2573913 154.913065,58.2545652 C155.403145,60.0097826 157.72746,68.9676087 154.55621,70.7586957 C154.717984,70.7443478 154.863105,70.73 154.986815,70.7132609 C155.726694,70.6152174 158.493508,69.0417391 161.098548,67.4802174 L161.776573,65.9856522 Z" id="Path" fill="#AA807A"></path>
                    <path d="M210.192258,72.0236957 L202.163024,79.8623913 C202.431855,80.8763043 202.736371,82.0145652 203.021855,83.0834783 C204.432621,79.7332609 209.45,74.4436957 210.427782,73.4321739 C210.351653,72.9682609 210.273145,72.4995652 210.192258,72.0236957 Z" id="Path" fill="#AA807A"></path>
                    <path d="M190.091815,36.4123913 C190.072782,35.4630435 190.106089,34.8126087 190.106089,34.8126087 C190.106089,34.8126087 180.611371,26.8376087 180.611371,33.6121739 C180.611371,34.0713043 180.592339,34.5065217 180.559032,34.9178261 C181.165685,35.341087 183.083185,36.6084783 184.591492,36.8476087 C185.966573,37.0652174 188.795242,36.6347826 190.091815,36.4123913 Z" id="Path" fill="#AA807A"></path>
                    <path d="M208.132016,106.716739 C208.132016,106.716739 207.608629,112.011087 206.766452,114.146522 C206.009919,116.066739 205.234355,119.9 202.339073,119.120435 C201.868024,118.993696 201.577782,118.513043 201.653911,118.03 C201.782379,117.228913 201.986976,116.810435 201.975081,115.858696 C201.963185,114.796957 201.970323,113.488913 202.389032,112.209565 C202.389032,112.209565 201.670565,114.407174 201.416008,115.337391 C201.392218,115.421087 201.327984,115.485652 201.244718,115.509565 C200.937823,115.598043 200.438226,115.545435 200.407298,114.54587 C200.362097,113.091957 199.855363,111.85087 200.994919,109.050652 C201.168589,108.622609 201.406492,108.223261 201.699113,107.866957 L202.917177,106.381957 L208.132016,106.716739 Z" id="Path" fill="#D3A095"></path>
                    <path d="M196.745968,106.216957 C196.745968,106.216957 196.203548,144.398913 194.212298,150.805217 C194.212298,150.805217 193.769798,176.832174 192.884798,181.146087 C191.999798,185.462391 191.378871,190.311957 191.378871,190.311957 L191.378871,196.005652 L185.402742,196.005652 L184.25129,185.995652 C184.25129,185.995652 180.93254,160.726739 182.657339,151.116087 C182.657339,151.116087 177.832661,126.736739 180.002339,106.00413 C182.172016,85.2715217 196.745968,106.216957 196.745968,106.216957 Z" id="Path" fill="#D3A095"></path>
                    <path d="M192.045,185.775652 L184.275081,186.196522 L184.54629,188.55913 C185.571653,188.666739 187.160847,188.79587 188.198105,188.709783 C189.133065,188.633261 190.586653,188.427609 191.661976,188.262609 C191.766653,187.554783 191.895121,186.703478 192.045,185.775652 Z" id="Path" fill="#AA807A"></path>
                    <path d="M166.339556,105.148043 C166.339556,105.148043 161.060484,138.571304 159.954234,146.357391 C159.954234,146.357391 154.465806,179.323913 152.917056,185.641739 C151.368306,191.959565 150.438105,192.672174 150.438105,192.672174 C150.438105,192.672174 150.880605,200.278913 150.438105,200.278913 C149.995605,200.278913 156.502258,200.278913 156.502258,200.278913 L157.299234,193.382391 C157.299234,193.382391 160.617984,187.688696 163.672661,180.43587 C166.727339,173.183043 170.576613,159.081522 170.046089,150.896087 C170.046089,150.896087 183.544718,121.399348 184.032419,105.961087 C184.520121,90.5228261 166.339556,105.148043 166.339556,105.148043 Z" id="Path" fill="#D3A095"></path>
                    <path d="M161.61004,185.046304 L153.642661,182.246087 C153.354798,183.7 153.105,184.869348 152.917056,185.639348 C152.871855,185.82587 152.826653,186.007609 152.781452,186.186957 C154.237419,186.725 157.879718,188.140652 159.468911,189.381739 C160.104113,188.150217 160.839234,186.681957 161.61004,185.046304 Z" id="Path" fill="#AA807A"></path>
                    <path d="M192.853871,197.748913 C192.527944,196.878478 192.430403,195.348043 192.106855,194.22413 C191.588226,192.413913 191.771411,192.559783 191.62629,192.148478 C191.328911,191.304348 190.860242,191.304348 190.860242,191.304348 L190.860242,191.304348 L190.860242,191.304348 C190.860242,190.297609 189.249637,190.268913 189.249637,190.268913 C189.249637,190.268913 189.249637,190.268913 187.762742,190.268913 C186.275847,190.268913 186.080766,191.388043 186.080766,191.388043 L186.080766,191.388043 L186.080766,191.388043 C184.520121,191.383261 184.765161,194.276739 184.765161,194.276739 C184.738992,195.721087 184.862702,194.755 184.755645,195.953043 C184.684274,196.751739 184.734234,199.33913 184.527258,199.72413 C184.420202,199.922609 184.47254,200.278913 184.47254,200.506087 L184.47254,200.996304 C184.47254,201.378913 185.26,201.596522 185.26,201.596522 C185.26,201.596522 187.477258,201.596522 190.322581,201.596522 C193.170282,201.596522 193.156022,201.077609 193.156022,201.077609 L193.156022,200.094783 C193.156022,199.214783 193.163145,198.573913 192.853871,197.748913 Z" id="Path" fill="#334F61"></path>
                    <path d="M193.156009,200.068478 C192.951411,199.922609 192.4875,199.812609 191.590605,199.812609 C191.590605,199.812609 190.503387,198.858478 189.197298,198.858478 C187.89121,198.858478 187.072823,199.68587 187.072823,199.68587 C187.072823,199.68587 187.013347,199.776739 186.889637,199.886739 C186.639839,199.99913 185.157702,200.582609 184.967379,198.495 C184.945968,198.248696 184.924556,198.021522 184.907903,197.806304 C184.881734,196.271087 184.807984,195.348043 184.800847,195.261957 C184.805605,195.305 184.803226,195.364783 184.796089,195.48913 C184.796089,195.498696 184.79371,195.50587 184.79371,195.515435 C184.79371,195.520217 184.79371,195.525 184.79371,195.529783 C184.79371,195.539348 184.791331,195.548913 184.791331,195.56087 C184.791331,195.565652 184.791331,195.572826 184.788952,195.577609 C184.788952,195.589565 184.786573,195.59913 184.786573,195.611087 C184.786573,195.618261 184.786573,195.623043 184.784194,195.630217 C184.784194,195.642174 184.781815,195.65413 184.781815,195.666087 C184.781815,195.673261 184.779435,195.680435 184.779435,195.69 C184.779435,195.701957 184.777056,195.716304 184.777056,195.730652 C184.777056,195.737826 184.774677,195.745 184.774677,195.752174 C184.772298,195.766522 184.772298,195.783261 184.769919,195.797609 C184.769919,195.802391 184.769919,195.809565 184.76754,195.814348 C184.762782,195.857391 184.760403,195.902826 184.755645,195.950652 C184.684274,196.749348 184.734234,199.336739 184.527258,199.721739 C184.434476,199.893913 184.460645,200.185652 184.470161,200.408043 C184.470161,200.410435 184.470161,200.412826 184.470161,200.415217 C184.47254,200.446304 184.47254,200.477391 184.47254,200.503696 L184.47254,200.943696 L184.47254,200.993913 C184.47254,201.376522 185.26,201.59413 185.26,201.59413 C185.26,201.59413 187.477258,201.59413 190.322581,201.59413 C193.170282,201.59413 193.156009,201.075217 193.156009,201.075217 C193.156009,201.075217 193.156009,200.116304 193.156009,200.068478 Z" id="Path" fill="#2A404D"></path>
                    <path d="M158.19375,199.159783 C158.350766,197.473913 158.350766,197.387826 158.084315,194.513478 C158.053387,194.188261 157.84879,193.91087 157.525242,193.896522 L156.920968,193.810435 C155.805202,193.920435 154.568105,193.992174 153.452339,193.944348 C152.084395,193.884565 150.959113,192.406739 149.617339,192.112609 L149.422258,192.069565 C149.236694,192.028913 149.043992,192.062391 148.882218,192.160435 L146.707782,194.511087 C146.603105,194.616304 146.4675,194.723913 146.315242,194.831522 C145.653871,195.302609 144.542863,195.943478 143.619798,196.452826 C142.622984,197.005217 141.509597,197.308913 140.372419,197.342391 L139.846653,197.342391 C138.366895,197.385435 137.679355,198.373043 137.684088,199.860435 L137.781653,200.278913 C137.96246,200.821739 138.466815,201.19 139.037782,201.18762 L156.30004,201.168478 C157.342056,201.158913 158.09621,200.204783 158.19375,199.159783 Z" id="Path" fill="#334F61"></path>
                    <path d="M150.419073,201.175652 L156.30004,201.168478 C157.344435,201.158913 158.09621,200.204783 158.19375,199.159783 C158.329355,197.710652 158.346008,197.440435 158.179476,195.572826 C158.060524,196.775652 157.146976,200.551522 150.419073,201.175652 Z" id="Path" fill="#2A404D"></path>
                    <path d="M196.424798,117.616304 C196.424798,117.616304 195.982298,150.893696 195.185323,154.009565 C194.431169,156.960435 194.788024,183.936739 194.828468,186.777609 C194.830847,186.911522 194.72379,187.01913 194.590565,187.01913 L193.991048,187.327609 C190.260726,187.758043 186.492339,187.755652 182.762016,187.322826 L182.21246,187.01913 C182.08875,187.01913 181.986452,186.92587 181.974556,186.803913 C181.727137,184.204565 179.343347,158.961957 179.428992,155.164565 C179.517016,151.161522 178.72004,135.589348 179.252944,131.763261 C179.252944,131.763261 174.827944,144.310435 174.118992,151.606304 C173.414798,158.851957 168.261815,181.712826 164.288831,188.654783 C164.238871,188.743261 164.138952,188.786304 164.041411,188.767174 C162.804315,188.518478 154.908306,186.868478 151.332621,184.618261 C151.246976,184.565652 151.206532,184.465217 151.230323,184.367174 C151.639516,182.56413 155.360323,166.155 156.947137,159.346957 C158.629113,152.139565 164.205565,117.171522 164.205565,117.171522 L196.424798,117.616304 Z" id="Path" fill="#15374D"></path>
                    <path d="M163.696452,120.32087 C165.690081,120.717826 171.509194,121.731739 179.11496,121.731739 C186.949113,121.731739 194.143306,120.679565 196.384355,120.318478 C196.410524,118.630217 196.424798,117.616304 196.424798,117.616304 L164.203185,117.171522 C164.203185,117.171522 164.015242,118.352826 163.696452,120.32087 Z" id="Path" fill="#0B283A"></path>
                    <path d="M230.728065,7.59478261 C230.728065,7.59478261 240.198992,5.19152174 245.335323,11.9995652 C250.469274,18.8076087 247.72625,31.8856522 246.529597,34.155 C245.335323,36.4243478 241.528871,42.2973913 237.367944,42.7421739 C233.207016,43.1869565 227.897016,40.4297826 224.311815,33.7102174 C220.726613,26.9906522 219.399113,22.1865217 221.081089,16.0480435 C222.760685,9.90717391 230.728065,7.59478261 230.728065,7.59478261 Z" id="Path" fill="#C18F74"></path>
                    <path d="M243.106169,17.5378261 L222.47996,19.9841304 C222.47996,19.9841304 221.533105,20.6632609 220.360242,21.5073913 C220.443508,25.2282609 221.740081,28.8080435 224.033468,33.188913 C224.15004,33.0023913 226.997742,28.4063043 227.171411,23.7671739 C227.171411,23.7671739 231.729637,24.4558696 235.890565,23.1884783 C240.051492,21.921087 242.639879,20.6967391 244.788145,19.273913 C246.936411,17.851087 243.106169,17.5378261 243.106169,17.5378261 Z" id="Path" fill="#000000" opacity="0.15"></path>
                    <path d="M225.013629,10.9258696 C225.013629,10.9258696 222.301532,6.80565217 224.133387,3.08 C225.965242,-0.645652174 230.906492,-0.260652174 232.683629,0.78673913 C234.458387,1.83413043 237.189516,3.67782609 237.042016,8.48913043 C236.892137,13.2956522 225.013629,10.9258696 225.013629,10.9258696 Z" id="Path" fill="#334F61"></path>
                    <path d="M226.58379,22.3754348 C228.075444,22.6026087 235.676452,23.5017391 241.754879,19.3982609 C241.902379,19.2978261 242.099839,19.383913 242.123629,19.5608696 C242.325847,21.0817391 243.772298,26.6821739 247.937984,29.0136957 C248.228226,29.1763043 248.592218,28.9897826 248.637419,28.6573913 C249.332097,23.6165217 248.696895,16.4593478 245.330565,11.9995652 C240.196613,5.19152174 230.723306,7.59478261 230.723306,7.59478261 C230.723306,7.59478261 222.755927,9.90717391 221.073952,16.0480435 C219.48,21.8636957 219.708387,26.4813043 222.810645,32.6628261 C222.979556,33 223.452984,33.0191304 223.645685,32.6963043 C224.678185,30.9578261 226.136532,27.476087 226.310202,22.605 C226.319718,22.4615217 226.443427,22.353913 226.58379,22.3754348 Z" id="Path" fill="#334F61"></path>
                    <path d="M236.90879,7.28391304 C236.90879,7.28391304 236.946855,7.28152174 237.013468,7.27434783 C237.001573,7.11173913 236.984919,6.95152174 236.965887,6.79369565 C232.145968,6.78652174 230.647177,7.52782609 230.647177,7.52782609 C234.739113,6.79369565 236.90879,7.28391304 236.90879,7.28391304 Z" id="Path" fill="#2A404D"></path>
                    <path d="M268.961492,68.0493478 C268.754516,68.0541304 268.578468,68.0302174 268.438105,68.011087 C268.026532,67.956087 266.982137,66.1004348 264.950444,63.0658696 L260.159073,74.2547826 C261.676895,75.8473913 264.29621,78.4276087 266.934556,80.245 C267.036855,80.3167391 267.136774,80.378913 267.236694,80.4434783 C266.235121,78.8006522 266.475403,76.8756522 267.074919,75.2184783 C267.781492,73.26 268.828266,68.7404348 268.961492,68.0493478 Z" id="Path" fill="#000000" opacity="0.15"></path>
                    <path d="M245.311532,48.2254348 C245.311532,48.2254348 247.469315,47.8595652 248.896734,48.258913 C250.324153,48.6582609 258.822056,52.6302174 263.768065,59.7706522 L268.654597,66.825 C268.692661,66.88 268.706935,66.9493478 268.690282,67.013913 C268.447621,68.0684783 266.320766,76.9569565 263.182823,80.4363043 C263.101935,80.5271739 262.963952,80.5367391 262.866411,80.465 L260.58254,78.7576087 C260.58254,78.7576087 260.549234,87.2993478 261.179677,90.8695652 C261.810121,94.4397826 261.876734,98.7441304 261.710202,99.8776087 C261.550806,100.975217 263.230403,110.057391 262.833105,114.065217 C262.809315,114.294783 262.626129,114.471739 262.397742,114.488478 C260.149556,114.65587 248.675484,115.492826 244.281411,115.492826 C239.951573,115.492826 228.955685,115.177174 226.529073,115.105435 C226.265,115.098261 226.058024,114.87587 226.069919,114.610435 C226.176976,111.791087 226.712258,97.4073913 226.621855,94.0691304 C226.521935,90.365 225.327661,79.3219565 225.261048,78.32 C225.261048,78.32 223.869315,82.6602174 223.281694,83.9658696 C223.224597,84.0926087 223.074718,84.1404348 222.953387,84.0758696 C221.630645,83.3584783 214.695766,79.561087 213.710847,78.3797826 C213.665645,78.3271739 213.646613,78.2578261 213.658508,78.1884783 C213.846452,77.0191304 215.666411,65.7393478 216.863065,62.6713043 C218.123952,59.4358696 218.98754,53.9956522 225.891492,49.6913043 C225.891492,49.6913043 228.015968,48.5243478 228.912863,48.3569565 C228.912863,48.3569565 233.992097,54.1630435 238.074516,54.1630435 C242.156935,54.1630435 245.311532,48.2254348 245.311532,48.2254348 Z" id="Path" fill="#FAFAFA"></path>
                    <path d="M259.283589,80.1565217 C259.240766,81.5913043 260.82996,107.245217 261.184435,114.576957 C261.707823,114.538696 262.121774,114.507609 262.397742,114.488478 C262.626129,114.471739 262.809315,114.294783 262.833105,114.065217 C263.230403,110.057391 261.550806,100.975217 261.710202,99.8776087 C261.876734,98.7441304 261.810121,94.4397826 261.179677,90.8695652 C260.549234,87.2993478 260.58254,78.7576087 260.58254,78.7576087 C260.58254,78.7576087 259.326411,78.6428261 259.283589,80.1565217 Z" id="Path" fill="#DBDBDB"></path>
                    <path d="M185.293306,35.9798334 C185.293306,35.9798334 175.467903,34.9441304 175.865202,21.0315217 C176.2625,7.11652174 179.250565,6.44934783 183.302056,4.68217391 C187.351169,2.9126087 196.579435,4.21586957 198.737218,9.32130435 C200.895,14.4267391 199.800645,23.7695652 197.10996,28.3393478 C194.421653,32.9091304 192.894315,36.0130435 185.293306,35.9798334 Z" id="Path" fill="#D3A095"></path>
                    <path d="M185.293306,35.9798334 C185.293306,35.9798334 175.467903,34.9441304 175.865202,21.0315217 C176.2625,7.11652174 179.250565,6.44934783 183.302056,4.68217391 C187.351169,2.9126087 196.579435,4.21586957 198.737218,9.32130435 C200.895,14.4267391 199.800645,23.7695652 197.10996,28.3393478 C194.421653,32.9091304 192.894315,36.0130435 185.293306,35.9798334 Z" id="Path" fill="#D3A095"></path>
                    <path d="M185.293306,35.9798334 C185.293306,35.9798334 175.467903,34.9441304 175.865202,21.0315217 C176.2625,7.11652174 179.250565,6.44934783 183.302056,4.68217391 C187.351169,2.9126087 196.579435,4.21586957 198.737218,9.32130435 C200.895,14.4267391 199.800645,23.7695652 197.10996,28.3393478 C194.421653,32.9091304 192.894315,36.0130435 185.293306,35.9798334 Z" id="Path" fill="#D3A095"></path>
                    <path d="M194.595323,14.4458696 C197.143266,15.6223913 198.834758,16.1963043 199.879153,16.3326087 C199.88629,15.0580435 199.805403,13.8145652 199.629355,12.6523913 C197.095685,9.42413043 192.53746,5.25847826 192.53746,5.25847826 L179.97379,6.37043478 C177.68754,8.05152174 176.143548,11.306087 175.865202,21.0315217 C175.824758,22.4208696 175.888992,23.6786957 176.034113,24.8217391 C176.110242,24.286087 178.691492,7.10934783 194.595323,14.4458696 Z" id="Path" fill="#AA807A"></path>
                    <path d="M176.031734,24.8336957 C176.031734,24.8336957 178.15621,14.0895652 182.305242,12.7552174 C186.454274,11.4208696 191.600121,11.3873913 194.321734,14.1230435 C197.043347,16.8586957 197.343105,24.7332609 196.976734,28.6382609 C196.976734,28.6382609 199.467581,25.1015217 199.998105,24.2 C200.528629,23.2984783 200.064718,20.428913 200.761774,18.5278261 C201.458831,16.6267391 201.691976,16.4928261 201.525444,13.2215217 C201.358911,9.9526087 201.791895,9.05108696 201.192379,7.58282609 C200.592863,6.11456522 198.570685,1.9776087 196.013226,2.145 C193.458145,2.3123913 190.503387,1.94413043 189.539879,1.44434783 C188.576371,0.944565217 187.315484,-0.791521739 183.930121,1.21 C180.544758,3.21152174 178.386976,3.84521739 177.59,4.04608696 C176.793024,4.24695652 174.968306,5.88021739 175.199073,7.78369565 C175.432218,9.68478261 176.029355,11.9541304 175.498831,13.1569565 C174.968306,14.3573913 174.502016,16.3613043 174.735161,18.2623913 C174.968306,20.1634783 175.565444,21.5647826 175.498831,22.8680435 C175.434597,24.1665217 176.031734,24.8336957 176.031734,24.8336957 Z" id="Path" fill="#334F61"></path>
                    <path d="M176.595565,41.5513043 C176.595565,41.5513043 182.545524,47.5319565 183.825444,49.523913 C183.984839,49.7726087 184.329798,49.8132609 184.54629,49.6123913 C186.166411,48.1106522 191.369355,43.3280435 192.26625,43.0195652 C192.26625,43.0195652 202.988548,47.4578261 204.515887,49.2584783 C206.031331,51.0471739 210.63,66.6552174 210.889463,71.8730435 C210.891694,71.9423913 210.865524,72.0069565 210.813185,72.0523913 C210.04,72.7506522 203.909234,78.3797826 202.538911,82.091087 C202.455645,82.3134783 202.136855,82.2895652 202.084516,82.0576087 C201.879919,81.1178261 201.573024,79.8145652 201.425524,79.6878261 C201.425524,79.6878261 198.967984,87.4954348 199.234435,89.0306522 C199.500887,90.5658696 197.873629,93.9352174 197.740403,95.0041304 C197.607177,96.0730435 197.67379,100.408478 197.840323,103.046087 C198.006855,105.681304 197.540561,111.621304 197.443024,112.690217 C197.362137,113.55587 197.659516,117.018478 197.776089,118.290652 C197.799879,118.553696 197.607177,118.783261 197.347863,118.809565 C194.542984,119.070217 179.198226,120.30413 163.470444,118.809565 C163.213508,118.785652 163.023185,118.558478 163.039839,118.300217 C163.132621,116.941957 163.422863,112.955652 163.751169,111.090435 C164.148468,108.821087 165.045363,98.7106522 164.912137,88.4352174 C164.778911,78.1573913 164.215081,69.048913 164.215081,67.9823913 C164.215081,67.9823913 159.930444,71.4186957 158.655282,72.5473913 C158.510161,72.6765217 158.279395,72.5856522 158.262742,72.3895652 C158.093831,70.5506522 157.389637,63.6254348 155.548266,56.4802174 C155.529234,56.406087 155.545887,56.3295652 155.593468,56.2697826 C156.333347,55.3515217 162.359435,47.9241304 165.411734,45.8915217 C168.661492,43.7202174 173.210202,41.7856522 176.595565,41.5513043 Z" id="Path" fill="#FAFAFA"></path>
                    <path d="M200.956855,78.3893478 C200.823629,78.288913 200.159879,79.6232609 199.065524,85.163913 C197.971169,90.7021739 197.2075,93.2058696 196.807823,93.8395652 C196.410524,94.4732609 196.574677,100.647609 196.607984,102.28087 C196.638911,103.825652 195.454153,116.045217 195.606411,118.955435 C196.384355,118.895652 196.976734,118.845435 197.345484,118.809565 C197.607177,118.785652 197.7975,118.553696 197.77371,118.290652 C197.659516,117.018478 197.359758,113.55587 197.440645,112.690217 C197.540565,111.621304 198.004476,105.683696 197.837944,103.046087 C197.671411,100.41087 197.604798,96.0730435 197.738024,95.0041304 C197.87125,93.9352174 199.498508,90.5658696 199.232056,89.0306522 C198.965605,87.4954348 201.423145,79.6878261 201.423145,79.6878261 C201.423145,79.6878261 201.090081,78.4873913 200.956855,78.3893478 Z" id="Path" fill="#DBDBDB"></path>
                    <path d="M267.086815,197.725 C267.086815,197.725 267.493629,196.086957 268.283468,195.508261 C268.283468,195.508261 268.766411,194.02087 268.885363,192.162826 C268.899637,191.947609 269.170847,191.861522 269.306452,192.028913 C269.627621,192.430652 270.060605,192.95913 270.267581,193.164783 C270.622056,193.516304 271.190645,194.599565 273.258024,193.719565 C275.323024,192.837174 274.91621,190.369348 275.94871,189.991522 C276.98121,189.613696 276.736169,190.646739 276.98121,190.897826 C277.22625,191.148913 278.394355,194.071087 282.959718,195.481957 C287.525081,196.892826 289.808952,197.143913 289.999274,198.377826 C290.189597,199.611739 289.537742,200.544348 286.330806,201.149348 C283.123871,201.754348 267.824315,201.149348 267.824315,201.149348 C267.824315,201.149348 265.975806,200.948478 265.894919,199.587826 C265.809274,198.229565 267.086815,197.725 267.086815,197.725 Z" id="Path" fill="#334F61"></path>
                    <path d="M265.89254,199.590217 C265.973427,200.95087 267.821935,201.151739 267.821935,201.151739 C267.821935,201.151739 283.121492,201.756739 286.328427,201.151739 C289.228468,200.60413 290.039718,199.791087 290.027951,198.726957 C288.193589,199.647609 285.638508,199.867609 283.69246,199.891522 C281.598911,199.917826 275.077984,199.111957 273.691008,198.958913 C272.304032,198.808261 267.086815,197.725 267.086815,197.725 C267.086815,197.725 265.809274,198.229565 265.89254,199.590217 Z" id="Path" fill="#2A404D"></path>
                    <g id="Group" transform="translate(228.387097, 188.913043)">
                        <path d="M10.6009677,9.50782609 C10.6009677,9.50782609 9.52802419,7.4273913 9.48282258,6.9826087 C9.43762097,6.53782609 9.39479839,3.00108696 9.12834677,2.37695652 C8.86189516,1.75521739 8.13153226,0.141086957 5.98564516,0.141086957 C3.83975806,0.141086957 2.97616935,0.375434783 2.40044355,2.66630435 C1.82471774,4.95717391 2.35524194,6.1576087 2.02455645,7.07108696 C1.69387097,7.98456522 1.63677419,9.09173913 1.34415323,9.82826087 C1.05153226,10.5647826 2.33383065,12.0545652 2.33383065,12.0545652 L8.08870968,12.1669565 L10.6104839,11.165 L10.6009677,9.50782609 Z" id="Path" fill="#334F61"></path>
                        <path d="M10.6390323,12.3271739 C12.2543952,11.8273913 11.4098387,10.261087 11.4098387,10.261087 C11.1314919,10.0936957 10.8483871,9.79 10.6128629,9.49347826 C10.6104839,9.52695652 10.6057258,9.55804348 10.6033468,9.59391304 C10.4201613,11.793913 7.51774194,11.4615217 7.51774194,11.4615217 C7.51774194,11.4615217 7.29649194,10.7273913 5.71681452,10.7273913 C4.1371371,10.7273913 3.77076613,11.5284783 3.77076613,11.5284783 C1.31084677,11.361087 1.34653226,9.82826087 1.34653226,9.82826087 L1.16810484,9.86891304 C1.16334677,9.88565217 1.16096774,9.89521739 1.16096774,9.89521739 C1.16096774,9.89521739 0.0594758065,10.2276087 0.24266129,11.1291304 C0.425846774,12.0282609 1.41790323,12.595 3.32826613,12.7958696 C5.23862903,12.9943478 9.02366935,12.8269565 10.6390323,12.3271739 Z" id="Path" fill="#2A404D"></path>
                    </g>
                    <path d="M289.2475,39.1623913 C289.706653,39.1623913 289.706653,38.445 289.2475,38.445 C288.788347,38.445 288.788347,39.1623913 289.2475,39.1623913 L289.2475,39.1623913 Z" id="Path" fill="#C18F74"></path>
                    <path d="M205.543629,52.8286957 C203.152702,47.056087 195.021169,44.9206522 192.36379,43.6532609 C189.70879,42.3858696 190.106089,34.8102174 190.106089,34.8102174 C190.106089,34.8102174 180.611371,26.8352174 180.611371,33.6097826 C180.611371,40.3843478 176.695484,41.8526087 176.695484,41.8526087 C168.397419,42.7876087 164.212702,47.2904348 162.951815,48.5267391 C161.690927,49.7630435 154.154153,59.203913 154.154153,59.203913 L154.08754,58.268913 C154.387298,51.7621739 147.447661,39.183913 146.883831,38.3828261 C146.32,37.5817391 144.128911,31.8091304 144.128911,31.8091304 L142.95129,28.8917391 C142.627742,28.2078261 142.254234,26.9021739 142.815685,25.103913 C143.17254,24.2884783 143.557944,23.1143478 143.938589,21.418913 C143.938589,21.418913 144.350161,18.8004348 145.208992,16.2082609 C145.354113,15.7730435 145.370766,15.51 145.304153,15.3736957 C145.273226,14.6921739 144.911613,13.7428261 142.465968,17.128913 C142.465968,17.128913 142.389839,17.3130435 142.270887,17.5808696 C141.785565,18.4943478 141.095645,20.3763043 140.246331,19.3169565 C139.435081,18.3030435 138.026694,15.973913 136.851452,14.2473913 C135.990242,12.98 134.579476,12.1693478 133.052137,12.1669391 C131.332097,12.1621739 129.538306,13.1402174 129.916573,17.6645652 C130.630282,21.1367391 131.850726,22.7723913 133.399476,25.0465217 C135.297944,28.2532609 136.29,30.4102174 136.29,30.4102174 L136.991815,32.0123913 C138.718992,35.8169565 146.817218,64.2782609 147.814032,67.6476087 C148.810847,71.0169565 153.490403,70.9165217 154.984435,70.7180435 C156.478468,70.5171739 166.237258,64.3117391 166.237258,64.3117391 C166.237258,64.3117391 166.437097,75.6895652 166.60125,81.0963043 C166.767782,86.5006522 166.334798,105.152826 166.334798,105.152826 C166.334798,105.152826 196.807823,107.888478 196.74121,106.221739 C196.674597,104.552609 196.807823,93.0408696 197.835565,88.2702174 C198.865685,83.4995652 201.354153,76.7919565 201.354153,76.7919565 C201.520685,77.5595652 204.009153,86.7015217 204.04246,87.1032609 C204.075766,87.5026087 203.345403,89.4395652 202.548427,93.0097826 C201.751452,96.58 202.781573,106.38913 202.912419,106.38913 C203.043266,106.38913 207.92504,107.589565 208.124879,106.723913 C208.324718,105.85587 211.510242,83.4995652 211.510242,83.4995652 C211.484073,76.6867391 207.932177,58.6013043 205.543629,52.8286957 Z" id="Path" fill="#D3A095"></path>
                    <path d="M242.720766,39.2269565 C242.720766,39.2269565 243.384516,48.0365217 245.508992,48.258913 C247.633468,48.4813043 254.582621,49.4593478 260.025847,56.3104348 C265.469073,63.1615217 267.771976,67.9226087 268.435726,68.011087 C269.099476,68.0995652 270.560202,68.3219565 272.375403,64.8067391 C274.190605,61.2915217 278.527581,54.8421739 281.803508,51.4154348 L287.025484,52.6158696 L272.817903,79.4869565 C272.817903,79.4869565 271.002702,83.0452174 266.932177,80.2426087 C262.859274,77.44 258.831573,72.8128261 258.831573,72.8128261 C258.831573,72.8128261 258.434274,88.0717391 259.407298,96.658913 C260.380323,105.246087 261.134476,110.80587 261.398548,111.563913 C261.665,112.319565 227.537782,112.498913 227.537782,112.498913 C227.537782,112.498913 227.892258,96.3934783 227.449758,89.453913 C227.007258,82.5143478 226.165081,75.483913 226.165081,75.483913 C226.165081,75.483913 221.961331,80.5558696 221.782903,84.4704348 C221.606855,88.385 222.755927,104.758261 222.889153,105.157609 C223.022379,105.556957 217.755202,106.759783 217.755202,106.759783 C217.755202,106.759783 213.967782,94.0691304 213.601411,86.295 C213.822661,78.7767391 217.400726,58.9336957 219.9225,55.9971739 C222.444274,53.0606522 224.304677,50.2580435 229.041331,48.478913 C229.041331,48.478913 232.317258,46.4319565 232.493306,40.2480435 C232.674113,34.0665217 242.720766,39.2269565 242.720766,39.2269565 Z" id="Path" fill="#C18F74"></path>
                    <path d="M214.279435,79.9915217 L219.358669,83.1815217 C219.358669,83.1815217 221.361815,84.0184783 221.771008,85.9745652 C221.763871,85.3719565 221.768629,84.8602174 221.787661,84.4728261 C221.861411,82.8395652 222.636976,81.0030435 223.517218,79.42 L223.521976,79.1354348 L214.917016,75.5102174 C214.674355,77.055 214.460242,78.5663043 214.279435,79.9915217 Z" id="Path" fill="#000000" opacity="0.15"></path>
                    <path d="M232.145968,43.1582609 C232.957218,43.4691304 234.786694,44.0215217 237.108629,43.8086957 C239.530484,43.5863043 241.92379,41.8693478 242.915847,41.0730435 C242.780242,39.9897826 242.723145,39.2245652 242.723145,39.2245652 C242.723145,39.2245652 232.676492,34.0641304 232.498065,40.2480435 C232.467137,41.3456522 232.33629,42.3093478 232.145968,43.1582609 Z" id="Path" fill="#000000" opacity="0.15"></path>
                    <path d="M261.400927,111.566304 C261.400927,111.566304 263.170927,121.265435 263.879879,126.026522 C264.588831,130.787609 269.456331,155.968043 269.544355,156.991522 C269.632379,158.015 276.448306,189.735652 276.405685,191.916522 C276.362661,194.097391 276.405685,200.503696 276.405685,200.503696 L269.898831,200.503696 L269.411129,192.361304 C269.411129,192.361304 262.195524,176.78913 261.046452,172.118913 C259.895,167.448696 257.727702,158.459783 258.391452,153.256304 C258.391452,153.256304 249.229798,139.776522 245.644597,124.694565 L245.644597,111.659565 L261.400927,111.566304 Z" id="Path" fill="#C18F74"></path>
                    <path d="M274.485605,192.669783 C272.270726,194.924783 269.734677,192.51913 269.256492,192.021739 C269.356411,192.239348 269.411129,192.358913 269.411129,192.358913 L269.572903,195.056304 L274.254839,196.139565 C274.254839,196.139565 276.943145,190.168478 274.485605,192.669783 Z" id="Path" fill="#000000" opacity="0.15"></path>
                    <path d="M269.544355,156.998696 C269.544355,156.996304 269.544355,156.991522 269.541976,156.98913 C269.520565,156.752391 269.242218,155.21 268.81875,152.923913 L257.803831,152.359565 C258.17496,152.940652 258.389073,153.253913 258.389073,153.253913 C258.203508,154.712609 258.239194,156.467826 258.412863,158.342609 C260.396976,156.993913 268.433347,156.993913 269.544355,156.998696 Z" id="Path" fill="#000000" opacity="0.15"></path>
                    <path d="M236.989677,194.721522 L236.963508,193.827174 C236.963508,193.827174 237.189516,191.954783 237.501169,189.398478 C236.599516,188.54 235.724032,188.315217 234.03254,188.315217 C232.471895,188.315217 231.396573,188.982391 230.999274,189.262174 C231.277621,191.961957 231.470323,193.738696 231.470323,193.738696 L231.470323,195.027609 L236.989677,194.721522 Z" id="Path" fill="#000000" opacity="0.15"></path>
                    <path d="M239.984879,156.257391 L237.382218,153.548043 L229.778831,155.482609 C229.686048,156.699783 229.586129,158.184783 229.500484,159.832391 C231.941371,159.806087 237.49879,159.839565 240.10621,160.597609 C240.094315,159.20587 240.05625,157.75913 239.984879,156.257391 Z" id="Path" fill="#000000" opacity="0.15"></path>
                    <path d="M261.931452,114.323478 C261.931452,114.323478 267.465081,140.393478 267.862379,144.932174 C268.212097,148.90413 269.339758,154.341957 269.615726,155.635652 C269.646653,155.783913 269.539597,155.922609 269.389718,155.925 C267.567379,155.953696 257.715806,156.733261 254.80625,156.637609 C254.575484,156.678261 254.349476,156.54913 254.270968,156.326739 C253.388347,153.794348 248.511331,140.252391 246.696129,132.42087 C246.572419,131.887609 245.803992,131.945 245.75879,132.490217 C245.287742,138.346522 244.393226,147.182391 244.362298,149.112174 C244.321855,151.465217 243.234637,156.996304 243.008629,158.120217 C242.984839,158.235 242.88254,158.316304 242.765968,158.311522 C241.281452,158.239783 232.057944,159.399565 227.409315,158.507609 C227.276089,158.526739 227.154758,158.43587 227.140484,158.301957 C226.907339,156.252609 225.287218,141.957391 225.287218,140.305 C225.287218,138.52587 225.441855,119.35 227.744758,114.54587 C230.040524,109.741739 261.931452,114.323478 261.931452,114.323478 Z" id="Path" fill="#15374D"></path>
                    <path d="M244.676331,117.393913 C251.689718,117.023261 259.395403,116.231739 262.266895,115.92087 C262.055161,114.911739 261.929073,114.323478 261.929073,114.323478 C261.929073,114.323478 230.038145,109.741739 227.737621,114.54587 C227.49496,115.055217 227.27371,115.724783 227.07625,116.518696 C229.367258,116.829565 237.234718,117.788478 244.676331,117.393913 Z" id="Path" fill="#0B283A"></path>
                    <path d="M281.803508,51.4154348 C281.803508,51.4154348 281.886774,48.7347826 281.82254,46.8480435 C281.808266,46.4391304 281.62746,44.1147826 281.767823,43.7297826 C281.832056,42.6178261 280.64254,40.7478261 281.584637,39.6454348 C281.672661,39.5426087 281.79875,39.4852174 281.931976,39.4804348 C283.040605,40.3341304 284.101653,41.6756522 284.539395,43.6054348 C284.615524,43.9402174 284.803468,43.9569565 284.94621,43.6436957 C285.624234,42.1515217 286.42121,40.3652174 287.099234,38.963913 C287.394234,38.3565217 287.820081,37.8232609 288.360121,37.4191304 C288.43625,37.3617391 288.502863,37.3163043 288.548065,37.2923913 C289.532984,36.4482609 291.988145,36.4673913 293.251411,38.9352174 C293.800968,40.0113043 293.924677,41.25 293.720081,42.4432609 C292.799395,47.8452174 287.94379,50.356087 287.296694,52.0634783 C287.184879,52.3073913 287.023105,52.6206522 287.023105,52.6206522 L281.803508,51.4154348 Z" id="Path" fill="#C18F74"></path>
                    <path d="M222.893911,105.16 L223.847903,107.424565 C224.368911,108.658478 224.630605,109.988043 224.621089,111.329565 C224.611573,112.582609 224.580645,114.012609 224.485484,114.414348 C223.728952,115.358913 223.165121,112.979565 223.031895,112.489348 C223.031895,112.489348 223.100887,114.371304 223.26504,115.626739 C223.436331,116.941957 224.178589,118.149565 223.531492,119.02 C223.383992,119.218478 223.134194,119.306957 222.889153,119.280652 C220.476815,119.02 218.428468,117.508696 217.579153,113.304783 C217.453065,109.923478 217.353145,108.089348 217.755202,106.764565 L222.893911,105.16 Z" id="Path" fill="#C18F74"></path>
                    <path d="M161.776573,65.9856522 L158.407863,53.923913 C157.044677,55.5978261 155.714798,57.2573913 154.913065,58.2545652 C155.403145,60.0097826 157.72746,68.9676087 154.55621,70.7586957 C154.717984,70.7443478 154.863105,70.73 154.986815,70.7132609 C155.726694,70.6152174 158.493508,69.0417391 161.098548,67.4802174 L161.776573,65.9856522 Z" id="Path" fill="#000000" opacity="0.15"></path>
                    <path d="M210.192258,72.0236957 L202.163024,79.8623913 C202.431855,80.8763043 202.736371,82.0145652 203.021855,83.0834783 C204.432621,79.7332609 209.45,74.4436957 210.427782,73.4321739 C210.351653,72.9682609 210.273145,72.4995652 210.192258,72.0236957 Z" id="Path" fill="#000000" opacity="0.15"></path>
                    <path d="M190.091815,36.4123913 C190.072782,35.4630435 190.106089,34.8126087 190.106089,34.8126087 C190.106089,34.8126087 180.611371,26.8376087 180.611371,33.6121739 C180.611371,34.0713043 180.592339,34.5065217 180.559032,34.9178261 C181.165685,35.341087 183.083185,36.6084783 184.591492,36.8476087 C185.966573,37.0652174 188.795242,36.6347826 190.091815,36.4123913 Z" id="Path" fill="#000000" opacity="0.15"></path>
                    <path d="M208.132016,106.716739 C208.132016,106.716739 207.608629,112.011087 206.766452,114.146522 C206.009919,116.066739 205.234355,119.9 202.339073,119.120435 C201.868024,118.993696 201.577782,118.513043 201.653911,118.03 C201.782379,117.228913 201.986976,116.810435 201.975081,115.858696 C201.963185,114.796957 201.970323,113.488913 202.389032,112.209565 C202.389032,112.209565 201.670565,114.407174 201.416008,115.337391 C201.392218,115.421087 201.327984,115.485652 201.244718,115.509565 C200.937823,115.598043 200.438226,115.545435 200.407298,114.54587 C200.362097,113.091957 199.855363,111.85087 200.994919,109.050652 C201.168589,108.622609 201.406492,108.223261 201.699113,107.866957 L202.917177,106.381957 L208.132016,106.716739 Z" id="Path" fill="#D3A095"></path>
                    <path d="M196.745968,106.216957 C196.745968,106.216957 196.203548,144.398913 194.212298,150.805217 C194.212298,150.805217 193.769798,176.832174 192.884798,181.146087 C191.999798,185.462391 191.378871,190.311957 191.378871,190.311957 L191.378871,196.005652 L185.402742,196.005652 L184.25129,185.995652 C184.25129,185.995652 180.93254,160.726739 182.657339,151.116087 C182.657339,151.116087 177.832661,126.736739 180.002339,106.00413 C182.172016,85.2715217 196.745968,106.216957 196.745968,106.216957 Z" id="Path" fill="#D3A095"></path>
                    <path d="M192.045,185.775652 L184.275081,186.196522 L184.54629,188.55913 C185.571653,188.666739 187.160847,188.79587 188.198105,188.709783 C189.133065,188.633261 190.586653,188.427609 191.661976,188.262609 C191.766653,187.554783 191.895121,186.703478 192.045,185.775652 Z" id="Path" fill="#000000" opacity="0.15"></path>
                    <path d="M166.339556,105.148043 C166.339556,105.148043 161.060484,138.571304 159.954234,146.357391 C159.954234,146.357391 154.465806,179.323913 152.917056,185.641739 C151.368306,191.959565 150.438105,192.672174 150.438105,192.672174 C150.438105,192.672174 150.880605,200.278913 150.438105,200.278913 C149.995605,200.278913 156.502258,200.278913 156.502258,200.278913 L157.299234,193.382391 C157.299234,193.382391 160.617984,187.688696 163.672661,180.43587 C166.727339,173.183043 170.576613,159.081522 170.046089,150.896087 C170.046089,150.896087 183.544718,121.399348 184.032419,105.961087 C184.520121,90.5228261 166.339556,105.148043 166.339556,105.148043 Z" id="Path" fill="#D3A095"></path>
                    <path d="M161.61004,185.046304 L153.642661,182.246087 C153.354798,183.7 153.105,184.869348 152.917056,185.639348 C152.871855,185.82587 152.826653,186.007609 152.781452,186.186957 C154.237419,186.725 157.879718,188.140652 159.468911,189.381739 C160.104113,188.150217 160.839234,186.681957 161.61004,185.046304 Z" id="Path" fill="#000000" opacity="0.15"></path>
                    <path d="M192.853871,197.748913 C192.527944,196.878478 192.430403,195.348043 192.106855,194.22413 C191.588226,192.413913 191.771411,192.559783 191.62629,192.148478 C191.328911,191.304348 190.860242,191.304348 190.860242,191.304348 L190.860242,191.304348 L190.860242,191.304348 C190.860242,190.297609 189.249637,190.268913 189.249637,190.268913 C189.249637,190.268913 189.249637,190.268913 187.762742,190.268913 C186.275847,190.268913 186.080766,191.388043 186.080766,191.388043 L186.080766,191.388043 L186.080766,191.388043 C184.520121,191.383261 184.765161,194.276739 184.765161,194.276739 C184.738992,195.721087 184.862702,194.755 184.755645,195.953043 C184.684274,196.751739 184.734234,199.33913 184.527258,199.72413 C184.420202,199.922609 184.47254,200.278913 184.47254,200.506087 L184.47254,200.996304 C184.47254,201.378913 185.26,201.596522 185.26,201.596522 C185.26,201.596522 187.477258,201.596522 190.322581,201.596522 C193.170282,201.596522 193.156022,201.077609 193.156022,201.077609 L193.156022,200.094783 C193.156022,199.214783 193.163145,198.573913 192.853871,197.748913 Z" id="Path" fill="#334F61"></path>
                    <path d="M193.156009,200.068478 C192.951411,199.922609 192.4875,199.812609 191.590605,199.812609 C191.590605,199.812609 190.503387,198.858478 189.197298,198.858478 C187.89121,198.858478 187.072823,199.68587 187.072823,199.68587 C187.072823,199.68587 187.013347,199.776739 186.889637,199.886739 C186.639839,199.99913 185.157702,200.582609 184.967379,198.495 C184.945968,198.248696 184.924556,198.021522 184.907903,197.806304 C184.881734,196.271087 184.807984,195.348043 184.800847,195.261957 C184.805605,195.305 184.803226,195.364783 184.796089,195.48913 C184.796089,195.498696 184.79371,195.50587 184.79371,195.515435 C184.79371,195.520217 184.79371,195.525 184.79371,195.529783 C184.79371,195.539348 184.791331,195.548913 184.791331,195.56087 C184.791331,195.565652 184.791331,195.572826 184.788952,195.577609 C184.788952,195.589565 184.786573,195.59913 184.786573,195.611087 C184.786573,195.618261 184.786573,195.623043 184.784194,195.630217 C184.784194,195.642174 184.781815,195.65413 184.781815,195.666087 C184.781815,195.673261 184.779435,195.680435 184.779435,195.69 C184.779435,195.701957 184.777056,195.716304 184.777056,195.730652 C184.777056,195.737826 184.774677,195.745 184.774677,195.752174 C184.772298,195.766522 184.772298,195.783261 184.769919,195.797609 C184.769919,195.802391 184.769919,195.809565 184.76754,195.814348 C184.762782,195.857391 184.760403,195.902826 184.755645,195.950652 C184.684274,196.749348 184.734234,199.336739 184.527258,199.721739 C184.434476,199.893913 184.460645,200.185652 184.470161,200.408043 C184.470161,200.410435 184.470161,200.412826 184.470161,200.415217 C184.47254,200.446304 184.47254,200.477391 184.47254,200.503696 L184.47254,200.943696 L184.47254,200.993913 C184.47254,201.376522 185.26,201.59413 185.26,201.59413 C185.26,201.59413 187.477258,201.59413 190.322581,201.59413 C193.170282,201.59413 193.156009,201.075217 193.156009,201.075217 C193.156009,201.075217 193.156009,200.116304 193.156009,200.068478 Z" id="Path" fill="#2A404D"></path>
                    <path d="M158.19375,199.159783 C158.350766,197.473913 158.350766,197.387826 158.084315,194.513478 C158.053387,194.188261 157.84879,193.91087 157.525242,193.896522 L156.920968,193.810435 C155.805202,193.920435 154.568105,193.992174 153.452339,193.944348 C152.084395,193.884565 150.959113,192.406739 149.617339,192.112609 L149.422258,192.069565 C149.236694,192.028913 149.043992,192.062391 148.882218,192.160435 L146.707782,194.511087 C146.603105,194.616304 146.4675,194.723913 146.315242,194.831522 C145.653871,195.302609 144.542863,195.943478 143.619798,196.452826 C142.622984,197.005217 141.509597,197.308913 140.372419,197.342391 L139.846653,197.342391 C138.366895,197.385435 137.679355,198.373043 137.684088,199.860435 L137.781653,200.278913 C137.96246,200.821739 138.466815,201.19 139.037782,201.18762 L156.30004,201.168478 C157.342056,201.158913 158.09621,200.204783 158.19375,199.159783 Z" id="Path" fill="#334F61"></path>
                    <path d="M150.419073,201.175652 L156.30004,201.168478 C157.344435,201.158913 158.09621,200.204783 158.19375,199.159783 C158.329355,197.710652 158.346008,197.440435 158.179476,195.572826 C158.060524,196.775652 157.146976,200.551522 150.419073,201.175652 Z" id="Path" fill="#2A404D"></path>
                    <path d="M196.424798,117.616304 C196.424798,117.616304 195.982298,150.893696 195.185323,154.009565 C194.431169,156.960435 194.788024,183.936739 194.828468,186.777609 C194.830847,186.911522 194.72379,187.01913 194.590565,187.01913 L193.991048,187.327609 C190.260726,187.758043 186.492339,187.755652 182.762016,187.322826 L182.21246,187.01913 C182.08875,187.01913 181.986452,186.92587 181.974556,186.803913 C181.727137,184.204565 179.343347,158.961957 179.428992,155.164565 C179.517016,151.161522 178.72004,135.589348 179.252944,131.763261 C179.252944,131.763261 174.827944,144.310435 174.118992,151.606304 C173.414798,158.851957 168.261815,181.712826 164.288831,188.654783 C164.238871,188.743261 164.138952,188.786304 164.041411,188.767174 C162.804315,188.518478 154.908306,186.868478 151.332621,184.618261 C151.246976,184.565652 151.206532,184.465217 151.230323,184.367174 C151.639516,182.56413 155.360323,166.155 156.947137,159.346957 C158.629113,152.139565 164.205565,117.171522 164.205565,117.171522 L196.424798,117.616304 Z" id="Path" fill="#15374D"></path>
                    <path d="M163.696452,120.32087 C165.690081,120.717826 171.509194,121.731739 179.11496,121.731739 C186.949113,121.731739 194.143306,120.679565 196.384355,120.318478 C196.410524,118.630217 196.424798,117.616304 196.424798,117.616304 L164.203185,117.171522 C164.203185,117.171522 164.015242,118.352826 163.696452,120.32087 Z" id="Path" fill="#0B283A"></path>
                    <path d="M230.728065,7.59478261 C230.728065,7.59478261 240.198992,5.19152174 245.335323,11.9995652 C250.469274,18.8076087 247.72625,31.8856522 246.529597,34.155 C245.335323,36.4243478 241.528871,42.2973913 237.367944,42.7421739 C233.207016,43.1869565 227.897016,40.4297826 224.311815,33.7102174 C220.726613,26.9906522 219.399113,22.1865217 221.081089,16.0480435 C222.760685,9.90717391 230.728065,7.59478261 230.728065,7.59478261 Z" id="Path" fill="#C18F74"></path>
                    <path d="M243.106169,17.5378261 L222.47996,19.9841304 C222.47996,19.9841304 221.533105,20.6632609 220.360242,21.5073913 C220.443508,25.2282609 221.740081,28.8080435 224.033468,33.188913 C224.15004,33.0023913 226.997742,28.4063043 227.171411,23.7671739 C227.171411,23.7671739 231.729637,24.4558696 235.890565,23.1884783 C240.051492,21.921087 242.639879,20.6967391 244.788145,19.273913 C246.936411,17.851087 243.106169,17.5378261 243.106169,17.5378261 Z" id="Path" fill="#000000" opacity="0.15"></path>
                    <path d="M225.013629,10.9258696 C225.013629,10.9258696 222.301532,6.80565217 224.133387,3.08 C225.965242,-0.645652174 230.906492,-0.260652174 232.683629,0.78673913 C234.458387,1.83413043 237.189516,3.67782609 237.042016,8.48913043 C236.892137,13.2956522 225.013629,10.9258696 225.013629,10.9258696 Z" id="Path" fill="#334F61"></path>
                    <path d="M226.58379,22.3754348 C228.075444,22.6026087 235.676452,23.5017391 241.754879,19.3982609 C241.902379,19.2978261 242.099839,19.383913 242.123629,19.5608696 C242.325847,21.0817391 243.772298,26.6821739 247.937984,29.0136957 C248.228226,29.1763043 248.592218,28.9897826 248.637419,28.6573913 C249.332097,23.6165217 248.696895,16.4593478 245.330565,11.9995652 C240.196613,5.19152174 230.723306,7.59478261 230.723306,7.59478261 C230.723306,7.59478261 222.755927,9.90717391 221.073952,16.0480435 C219.48,21.8636957 219.708387,26.4813043 222.810645,32.6628261 C222.979556,33 223.452984,33.0191304 223.645685,32.6963043 C224.678185,30.9578261 226.136532,27.476087 226.310202,22.605 C226.319718,22.4615217 226.443427,22.353913 226.58379,22.3754348 Z" id="Path" fill="#334F61"></path>
                    <path d="M236.90879,7.28391304 C236.90879,7.28391304 236.946855,7.28152174 237.013468,7.27434783 C237.001573,7.11173913 236.984919,6.95152174 236.965887,6.79369565 C232.145968,6.78652174 230.647177,7.52782609 230.647177,7.52782609 C234.739113,6.79369565 236.90879,7.28391304 236.90879,7.28391304 Z" id="Path" fill="#2A404D"></path>
                    <path d="M268.961492,68.0493478 C268.754516,68.0541304 268.578468,68.0302174 268.438105,68.011087 C268.026532,67.956087 266.982137,66.1004348 264.950444,63.0658696 L260.159073,74.2547826 C261.676895,75.8473913 264.29621,78.4276087 266.934556,80.245 C267.036855,80.3167391 267.136774,80.378913 267.236694,80.4434783 C266.235121,78.8006522 266.475403,76.8756522 267.074919,75.2184783 C267.781492,73.26 268.828266,68.7404348 268.961492,68.0493478 Z" id="Path" fill="#000000" opacity="0.15"></path>
                    <path d="M245.311532,48.2254348 C245.311532,48.2254348 247.469315,47.8595652 248.896734,48.258913 C250.324153,48.6582609 258.822056,52.6302174 263.768065,59.7706522 L268.654597,66.825 C268.692661,66.88 268.706935,66.9493478 268.690282,67.013913 C268.447621,68.0684783 266.320766,76.9569565 263.182823,80.4363043 C263.101935,80.5271739 262.963952,80.5367391 262.866411,80.465 L260.58254,78.7576087 C260.58254,78.7576087 260.549234,87.2993478 261.179677,90.8695652 C261.810121,94.4397826 261.876734,98.7441304 261.710202,99.8776087 C261.550806,100.975217 263.230403,110.057391 262.833105,114.065217 C262.809315,114.294783 262.626129,114.471739 262.397742,114.488478 C260.149556,114.65587 248.675484,115.492826 244.281411,115.492826 C239.951573,115.492826 228.955685,115.177174 226.529073,115.105435 C226.265,115.098261 226.058024,114.87587 226.069919,114.610435 C226.176976,111.791087 226.712258,97.4073913 226.621855,94.0691304 C226.521935,90.365 225.327661,79.3219565 225.261048,78.32 C225.261048,78.32 223.869315,82.6602174 223.281694,83.9658696 C223.224597,84.0926087 223.074718,84.1404348 222.953387,84.0758696 C221.630645,83.3584783 214.695766,79.561087 213.710847,78.3797826 C213.665645,78.3271739 213.646613,78.2578261 213.658508,78.1884783 C213.846452,77.0191304 215.666411,65.7393478 216.863065,62.6713043 C218.123952,59.4358696 218.98754,53.9956522 225.891492,49.6913043 C225.891492,49.6913043 228.015968,48.5243478 228.912863,48.3569565 C228.912863,48.3569565 233.992097,54.1630435 238.074516,54.1630435 C242.156935,54.1630435 245.311532,48.2254348 245.311532,48.2254348 Z" id="Path" fill="#FAFAFA"></path>
                    <path d="M259.283589,80.1565217 C259.240766,81.5913043 260.82996,107.245217 261.184435,114.576957 C261.707823,114.538696 262.121774,114.507609 262.397742,114.488478 C262.626129,114.471739 262.809315,114.294783 262.833105,114.065217 C263.230403,110.057391 261.550806,100.975217 261.710202,99.8776087 C261.876734,98.7441304 261.810121,94.4397826 261.179677,90.8695652 C260.549234,87.2993478 260.58254,78.7576087 260.58254,78.7576087 C260.58254,78.7576087 259.326411,78.6428261 259.283589,80.1565217 Z" id="Path" fill="#DBDBDB"></path>
                    <path d="M185.293306,35.9798334 C185.293306,35.9798334 175.467903,34.9441304 175.865202,21.0315217 C176.2625,7.11652174 179.250565,6.44934783 183.302056,4.68217391 C187.351169,2.9126087 196.579435,4.21586957 198.737218,9.32130435 C200.895,14.4267391 199.800645,23.7695652 197.10996,28.3393478 C194.421653,32.9091304 192.894315,36.0130435 185.293306,35.9798334 Z" id="Path" fill="#D3A095"></path>
                    <path d="M185.293306,35.9798334 C185.293306,35.9798334 175.467903,34.9441304 175.865202,21.0315217 C176.2625,7.11652174 179.250565,6.44934783 183.302056,4.68217391 C187.351169,2.9126087 196.579435,4.21586957 198.737218,9.32130435 C200.895,14.4267391 199.800645,23.7695652 197.10996,28.3393478 C194.421653,32.9091304 192.894315,36.0130435 185.293306,35.9798334 Z" id="Path" fill="#D3A095"></path>
                    <path d="M185.293306,35.9798334 C185.293306,35.9798334 175.467903,34.9441304 175.865202,21.0315217 C176.2625,7.11652174 179.250565,6.44934783 183.302056,4.68217391 C187.351169,2.9126087 196.579435,4.21586957 198.737218,9.32130435 C200.895,14.4267391 199.800645,23.7695652 197.10996,28.3393478 C194.421653,32.9091304 192.894315,36.0130435 185.293306,35.9798334 Z" id="Path" fill="#D3A095"></path>
                    <path d="M194.595323,14.4458696 C197.143266,15.6223913 198.834758,16.1963043 199.879153,16.3326087 C199.88629,15.0580435 199.805403,13.8145652 199.629355,12.6523913 C197.095685,9.42413043 192.53746,5.25847826 192.53746,5.25847826 L179.97379,6.37043478 C177.68754,8.05152174 176.143548,11.306087 175.865202,21.0315217 C175.824758,22.4208696 175.888992,23.6786957 176.034113,24.8217391 C176.110242,24.286087 178.691492,7.10934783 194.595323,14.4458696 Z" id="Path" fill="#000000" opacity="0.15"></path>
                    <path d="M176.031734,24.8336957 C176.031734,24.8336957 178.15621,14.0895652 182.305242,12.7552174 C186.454274,11.4208696 191.600121,11.3873913 194.321734,14.1230435 C197.043347,16.8586957 197.343105,24.7332609 196.976734,28.6382609 C196.976734,28.6382609 199.467581,25.1015217 199.998105,24.2 C200.528629,23.2984783 200.064718,20.428913 200.761774,18.5278261 C201.458831,16.6267391 201.691976,16.4928261 201.525444,13.2215217 C201.358911,9.9526087 201.791895,9.05108696 201.192379,7.58282609 C200.592863,6.11456522 198.570685,1.9776087 196.013226,2.145 C193.458145,2.3123913 190.503387,1.94413043 189.539879,1.44434783 C188.576371,0.944565217 187.315484,-0.791521739 183.930121,1.21 C180.544758,3.21152174 178.386976,3.84521739 177.59,4.04608696 C176.793024,4.24695652 174.968306,5.88021739 175.199073,7.78369565 C175.432218,9.68478261 176.029355,11.9541304 175.498831,13.1569565 C174.968306,14.3573913 174.502016,16.3613043 174.735161,18.2623913 C174.968306,20.1634783 175.565444,21.5647826 175.498831,22.8680435 C175.434597,24.1665217 176.031734,24.8336957 176.031734,24.8336957 Z" id="Path" fill="#334F61"></path>
                    <path d="M176.595565,41.5513043 C176.595565,41.5513043 182.545524,47.5319565 183.825444,49.523913 C183.984839,49.7726087 184.329798,49.8132609 184.54629,49.6123913 C186.166411,48.1106522 191.369355,43.3280435 192.26625,43.0195652 C192.26625,43.0195652 202.988548,47.4578261 204.515887,49.2584783 C206.031331,51.0471739 210.63,66.6552174 210.889463,71.8730435 C210.891694,71.9423913 210.865524,72.0069565 210.813185,72.0523913 C210.04,72.7506522 203.909234,78.3797826 202.538911,82.091087 C202.455645,82.3134783 202.136855,82.2895652 202.084516,82.0576087 C201.879919,81.1178261 201.573024,79.8145652 201.425524,79.6878261 C201.425524,79.6878261 198.967984,87.4954348 199.234435,89.0306522 C199.500887,90.5658696 197.873629,93.9352174 197.740403,95.0041304 C197.607177,96.0730435 197.67379,100.408478 197.840323,103.046087 C198.006855,105.681304 197.540561,111.621304 197.443024,112.690217 C197.362137,113.55587 197.659516,117.018478 197.776089,118.290652 C197.799879,118.553696 197.607177,118.783261 197.347863,118.809565 C194.542984,119.070217 179.198226,120.30413 163.470444,118.809565 C163.213508,118.785652 163.023185,118.558478 163.039839,118.300217 C163.132621,116.941957 163.422863,112.955652 163.751169,111.090435 C164.148468,108.821087 165.045363,98.7106522 164.912137,88.4352174 C164.778911,78.1573913 164.215081,69.048913 164.215081,67.9823913 C164.215081,67.9823913 159.930444,71.4186957 158.655282,72.5473913 C158.510161,72.6765217 158.279395,72.5856522 158.262742,72.3895652 C158.093831,70.5506522 157.389637,63.6254348 155.548266,56.4802174 C155.529234,56.406087 155.545887,56.3295652 155.593468,56.2697826 C156.333347,55.3515217 162.359435,47.9241304 165.411734,45.8915217 C168.661492,43.7202174 173.210202,41.7856522 176.595565,41.5513043 Z" id="Path" fill="#FAFAFA"></path>
                    <path d="M200.956855,78.3893478 C200.823629,78.288913 200.159879,79.6232609 199.065524,85.163913 C197.971169,90.7021739 197.2075,93.2058696 196.807823,93.8395652 C196.410524,94.4732609 196.574677,100.647609 196.607984,102.28087 C196.638911,103.825652 195.454153,116.045217 195.606411,118.955435 C196.384355,118.895652 196.976734,118.845435 197.345484,118.809565 C197.607177,118.785652 197.7975,118.553696 197.77371,118.290652 C197.659516,117.018478 197.359758,113.55587 197.440645,112.690217 C197.540565,111.621304 198.004476,105.683696 197.837944,103.046087 C197.671411,100.41087 197.604798,96.0730435 197.738024,95.0041304 C197.87125,93.9352174 199.498508,90.5658696 199.232056,89.0306522 C198.965605,87.4954348 201.423145,79.6878261 201.423145,79.6878261 C201.423145,79.6878261 201.090081,78.4873913 200.956855,78.3893478 Z" id="Path" fill="#DBDBDB"></path>
                    <path d="M267.086815,197.725 C267.086815,197.725 267.493629,196.086957 268.283468,195.508261 C268.283468,195.508261 268.766411,194.02087 268.885363,192.162826 C268.899637,191.947609 269.170847,191.861522 269.306452,192.028913 C269.627621,192.430652 270.060605,192.95913 270.267581,193.164783 C270.622056,193.516304 271.190645,194.599565 273.258024,193.719565 C275.323024,192.837174 274.91621,190.369348 275.94871,189.991522 C276.98121,189.613696 276.736169,190.646739 276.98121,190.897826 C277.22625,191.148913 278.394355,194.071087 282.959718,195.481957 C287.525081,196.892826 289.808952,197.143913 289.999274,198.377826 C290.189597,199.611739 289.537742,200.544348 286.330806,201.149348 C283.123871,201.754348 267.824315,201.149348 267.824315,201.149348 C267.824315,201.149348 265.975806,200.948478 265.894919,199.587826 C265.809274,198.229565 267.086815,197.725 267.086815,197.725 Z" id="Path" fill="#334F61"></path>
                    <path d="M265.89254,199.590217 C265.973427,200.95087 267.821935,201.151739 267.821935,201.151739 C267.821935,201.151739 283.121492,201.756739 286.328427,201.151739 C289.228468,200.60413 290.039718,199.791087 290.027951,198.726957 C288.193589,199.647609 285.638508,199.867609 283.69246,199.891522 C281.598911,199.917826 275.077984,199.111957 273.691008,198.958913 C272.304032,198.808261 267.086815,197.725 267.086815,197.725 C267.086815,197.725 265.809274,198.229565 265.89254,199.590217 Z" id="Path" fill="#2A404D"></path>
                    <g id="Group" transform="translate(228.387097, 188.913043)">
                        <path d="M10.6009677,9.50782609 C10.6009677,9.50782609 9.52802419,7.4273913 9.48282258,6.9826087 C9.43762097,6.53782609 9.39479839,3.00108696 9.12834677,2.37695652 C8.86189516,1.75521739 8.13153226,0.141086957 5.98564516,0.141086957 C3.83975806,0.141086957 2.97616935,0.375434783 2.40044355,2.66630435 C1.82471774,4.95717391 2.35524194,6.1576087 2.02455645,7.07108696 C1.69387097,7.98456522 1.63677419,9.09173913 1.34415323,9.82826087 C1.05153226,10.5647826 2.33383065,12.0545652 2.33383065,12.0545652 L8.08870968,12.1669565 L10.6104839,11.165 L10.6009677,9.50782609 Z" id="Path" fill="#334F61"></path>
                        <path d="M10.6390323,12.3271739 C12.2543952,11.8273913 11.4098387,10.261087 11.4098387,10.261087 C11.1314919,10.0936957 10.8483871,9.79 10.6128629,9.49347826 C10.6104839,9.52695652 10.6057258,9.55804348 10.6033468,9.59391304 C10.4201613,11.793913 7.51774194,11.4615217 7.51774194,11.4615217 C7.51774194,11.4615217 7.29649194,10.7273913 5.71681452,10.7273913 C4.1371371,10.7273913 3.77076613,11.5284783 3.77076613,11.5284783 C1.31084677,11.361087 1.34653226,9.82826087 1.34653226,9.82826087 L1.16810484,9.86891304 C1.16334677,9.88565217 1.16096774,9.89521739 1.16096774,9.89521739 C1.16096774,9.89521739 0.0594758065,10.2276087 0.24266129,11.1291304 C0.425846774,12.0282609 1.41790323,12.595 3.32826613,12.7958696 C5.23862903,12.9943478 9.02366935,12.8269565 10.6390323,12.3271739 Z" id="Path" fill="#2A404D"></path>
                    </g>
                    <path d="M289.2475,39.1623913 C289.706653,39.1623913 289.706653,38.445 289.2475,38.445 C288.788347,38.445 288.788347,39.1623913 289.2475,39.1623913 L289.2475,39.1623913 Z" id="Path" fill="#C18F74"></path>
                </g>
            </g>
        </g>
    </g>
</svg>