<svg xmlns="http://www.w3.org/2000/svg" xmlns:xlink="http://www.w3.org/1999/xlink" width="148" height="125" viewBox="0 0 148 125">
  <defs>
    <path id="group-2@2x-a" d="M119.342746,4.05444785 C129.713094,10.2300316 135.216377,24.5970631 139.797144,39.1560818 C144.3461,53.7151004 147.97254,68.4661061 146.413807,84.0810535 C144.855074,99.6960009 138.079356,116.142892 125.895788,120.62259 C113.680409,125.102288 96.0253691,117.646791 82.0285807,112.655127 C67.9999815,107.631466 57.5978229,105.103636 44.6826045,100.847923 C31.7673861,96.5602123 16.3709189,90.6086135 7.68654797,78.8654051 C-0.96601211,67.1221966 -2.87466507,49.6193765 4.85537942,38.2281443 C12.5854239,26.86891 29.9859767,21.5892659 43.8555215,16.5336067 C57.7250664,11.4779475 68.0636032,6.58227746 80.8515781,3.19050609 C93.6713638,-0.233263129 108.940587,-2.15313372 119.342746,4.05444785 Z"/>
    <path id="group-2@2x-c" d="M2.38019454,44.6283538 L43.6723967,3.56798843 C45.2269979,2.02211559 47.7362778,2.01570014 49.2987633,3.55360357 L91.0258317,44.6241945 C92.362665,45.9399959 93.1154836,47.7372753 93.1154836,49.6130302 L93.1154836,103.464799 C93.1154836,107.330792 89.9814769,110.464799 86.1154836,110.464799 L7.31598805,110.464799 C3.4499948,110.464799 0.315988048,107.330792 0.315988048,103.464799 L0.315988048,49.592016 C0.315988048,47.728671 1.05890666,45.9422232 2.38019454,44.6283538 Z"/>
  </defs>
  <g fill="none" fill-rule="evenodd" transform="translate(.75 -1)">
    <g transform="matrix(-1 0 0 1 147 3.567)">
      <mask id="group-2@2x-b" fill="#fff">
        <use xlink:href="#group-2@2x-a"/>
      </mask>
      <use fill="#F4F7F9" fill-rule="nonzero" xlink:href="#group-2@2x-a"/>
      <g mask="url(#group-2@2x-b)">
        <g transform="translate(27.137 -3.534)">
          <mask id="group-2@2x-d" fill="#fff">
            <use xlink:href="#group-2@2x-c"/>
          </mask>
          <use fill="#94B0D5" xlink:href="#group-2@2x-c"/>
          <polygon fill="#000" fill-opacity=".2" points=".316 46.681 46.716 79.419 93.115 46.681 106.985 28.947 15.789 33.279 -6.433 39.705" mask="url(#group-2@2x-d)"/>
          <path fill="#000" fill-opacity=".1" d="M1.05505837,46.8106957 C-2.52123941,49.9152534 -0.0668027805,47.1829639 8.41836825,38.6138273 C16.6683086,30.2822491 28.9400134,18.1288096 45.2334825,2.15350878 C46.0124807,1.38972251 47.2598644,1.39113923 48.0371256,2.1566931 L86.6553371,40.1932274 L86.6553371,40.1932274 L93.2740385,46.8106957 L1.05505837,46.8106957 Z" mask="url(#group-2@2x-d)"/>
          <line x1="46.637" x2="2.989" y1="79.419" y2="108.12" stroke="#000" stroke-opacity=".1" mask="url(#group-2@2x-d)"/>
          <line x1="89.972" x2="46.324" y1="79.419" y2="108.12" stroke="#000" stroke-opacity=".1" mask="url(#group-2@2x-d)" transform="matrix(-1 0 0 1 136.605 0)"/>
        </g>
      </g>
    </g>
    <g transform="translate(29.281)">
      <path fill="#697D98" d="M2.42249933,46.5889838 C-0.525833555,46.3300041 0.703070427,43.5977147 6.10921128,38.3921155 C11.3868102,33.31029 23.6532313,21.1700324 42.9084746,1.97134286 C43.6906754,1.1914591 44.9569952,1.19332147 45.7368888,1.97551243 C45.7379464,1.97657311 45.7390028,1.97763497 45.7400579,1.97869802 L83.0846428,39.601972 L83.0846428,39.601972 L89.3946799,46.5889838 L2.42249933,46.5889838 Z"/>
      <polygon fill="#FCFCFC" points="5.518 15.997 81.638 15.997 81.638 52.757 43.815 79.448 5.518 52.441"/>
      <path fill="#000" fill-opacity=".1" d="M5.51773304,50.519836 L42.4650778,75.3782028 C43.1401497,75.8323947 44.0230863,75.8323539 44.6981162,75.3780995 L81.6379253,50.519836 L81.6379253,50.519836 L81.6379253,52.757212 L43.8151006,79.4479627 L5.51773304,52.4407393 L5.51773304,50.519836 Z"/>
      <g fill="#E8EDF7" fill-rule="nonzero" transform="translate(15.078 25.52)">
        <rect width="40.357" height="3.216" rx="1.608"/>
        <rect width="56.5" height="3.216" y="7.505" rx="1.608"/>
        <rect width="56.5" height="3.216" y="21.657" rx="1.608"/>
        <rect width="50.222" height="3.216" y="14.581" rx="1.608"/>
      </g>
    </g>
  </g>
</svg>
