<?xml version="1.0" encoding="UTF-8"?>
<svg viewBox="0 0 154 128" xmlns="http://www.w3.org/2000/svg" xmlns:xlink="http://www.w3.org/1999/xlink">
<defs>
<linearGradient id="c" x1="-10.607%" x2="82.189%" y1="20.578%" y2="80.98%">
<stop stop-color="#B46FFF" offset="0"/>
<stop stop-color="#4059F0" offset="1"/>
</linearGradient>
<polygon id="b" points="0 0 12 0 12 16 0 16"/>
</defs>
<g fill="none" fill-rule="evenodd">
<path d="m125.21 4.2538c10.88 6.4793 16.654 21.553 21.46 36.828 4.7727 15.275 8.5775 30.752 6.9421 47.134-1.6354 16.383-8.7443 33.639-21.527 38.339-12.816 4.7-31.339-3.1222-46.025-8.3593-14.719-5.2707-25.632-7.9229-39.183-12.388-13.55-4.4986-29.704-10.743-38.816-23.064-9.0781-12.321-11.081-30.684-2.9704-42.636 8.1102-11.918 26.367-17.457 40.918-22.761s25.399-10.441 38.816-13.999c13.45-3.5922 29.47-5.6064 40.384 0.90643z" fill="#E8EDF7" fill-rule="nonzero"/>
<g transform="translate(42 24)">
<rect width="84" height="84" rx="9" fill="url(#c)" fill-rule="nonzero"/>
<g transform="translate(63 60)">
<mask id="a" fill="#fff">
<use xlink:href="#b"/>
</mask>
<path d="m7.9842 10.167c0-1.1905-0.89769-2.0238-1.9843-2.0238-1.1102 0-1.9843 0.85718-1.9843 2.0238 0 1.1667 0.87406 2.0715 1.9843 2.0715 1.0866 0 1.9843-0.881 1.9843-2.0715m4.0158 0.02382c0 3.4285-2.882 5.8095-6.0001 5.8095-3.1418 0-5.9999-2.381-5.9999-5.8571 0-1.8333 0.77953-3.0714 2.1259-4.881l3.8976-5.2618h4.7952l-3.4723 4.7381c2.3384 0.30949 4.6535 2.381 4.6535 5.4524" fill="#FFF" mask="url(#a)"/>
</g>
<path transform="translate(21 17)" d="m8.9583 20.402-3.0168 1.0056c-0.93873 0.31291-1.9534-0.19442-2.2663-1.1331l-3.5833-10.75c-0.28196-0.84587 0.10097-1.7703 0.89847-2.1691l7.1667-3.5833c0.24878-0.12439 0.52311-0.18915 0.80126-0.18915h5.375c0.56394 0 1.095 0.26551 1.4333 0.71667 1.4533 1.9377 3.3112 2.8667 5.7333 2.8667s4.28-0.92893 5.7333-2.8667c0.33836-0.45115 0.86939-0.71667 1.4333-0.71667h5.375c0.27815 0 0.55248 0.06476 0.80126 0.18915l7.1667 3.5833c0.79749 0.39875 1.1804 1.3232 0.89847 2.1691l-3.5833 10.75c-0.31291 0.93873-1.3276 1.4461-2.2663 1.1331l-3.0168-1.0056v17.223c0 0.98951-0.80216 1.7917-1.7917 1.7917h-21.5c-0.98951 0-1.7917-0.80216-1.7917-1.7917v-17.223zm-4.9756-10.537 2.5254 7.5761 3.6753-1.2251c1.1602-0.38672 2.3582 0.47681 2.3582 1.6997v17.917h17.917v-17.917c0-1.2229 1.1981-2.0864 2.3582-1.6997l3.6753 1.2251 2.5254-7.5761-5.3985-2.6993h-4.0984c-2.0684 2.3687-4.7822 3.5833-8.0203 3.5833s-5.9519-1.2146-8.0203-3.5833h-4.0984l-5.3985 2.6993z" fill="#F9FAFB" fill-rule="nonzero"/>
</g>
</g>
</svg>
