<?xml version="1.0" encoding="UTF-8"?>
<svg width="154px" height="128px" viewBox="0 0 154 128" version="1.1" xmlns="http://www.w3.org/2000/svg" xmlns:xlink="http://www.w3.org/1999/xlink">
    <!-- Generator: Sketch 61 (89581) - https://sketch.com -->
    <title>FRW-Demodata</title>
    <desc>Created with Sketch.</desc>
    <defs>
        <linearGradient x1="0.449220059%" y1="0.448479178%" x2="100%" y2="100%" id="linearGradient-1">
            <stop stop-color="#189EFF" offset="0.0554265203%"></stop>
            <stop stop-color="#4059F0" offset="100%"></stop>
        </linearGradient>
    </defs>
    <g id="2.-FRW" stroke="none" stroke-width="1" fill="none" fill-rule="evenodd">
        <g id="FRW-Migration-Plugin-EN" transform="translate(-794.000000, -373.000000)" fill-rule="nonzero">
            <g id="Demodaten" transform="translate(740.000000, 373.000000)">
                <g id="FRW-Demodata" transform="translate(54.000000, 0.000000)">
                    <g id="blob-shape-(2)" fill="#E8EDF7">
                        <path d="M125.212061,4.25384692 C136.092426,10.7331479 141.866362,25.8067548 146.672413,41.0817907 C151.445088,56.3568266 155.249879,71.8332916 153.614486,88.2161873 C151.979094,104.599083 144.870144,121.854838 132.087384,126.554849 C119.271249,131.25486 100.747928,123.432699 86.0627732,118.195544 C71.3442429,112.924817 60.4305027,110.272668 46.8801096,105.807657 C33.3297166,101.309075 17.1760461,95.0647748 8.06457492,82.7440316 C-1.0135209,70.4232883 -3.01604204,52.0596737 5.09416857,40.108217 C13.2043792,28.1903318 31.4606969,22.6510331 46.0123505,17.3467349 C60.5640041,12.0424367 71.4109936,6.90599602 84.8278852,3.34741622 C98.2781522,-0.244735086 114.298321,-2.25902554 125.212061,4.25384692 Z" id="Path"></path>
                    </g>
                    <g id="Demo-Products" transform="translate(41.000000, 24.000000)">
                        <g id="icon-background" fill="url(#linearGradient-1)">
                            <path d="M8,0 L76,0 C80.418278,0 84,3.581722 84,8 L84,76 C84,80.418278 80.418278,84 76,84 L8,84 C3.581722,84 0,80.418278 0,76 L0,8 C0,3.581722 3.581722,0 8,0 Z" id="Rectangle"></path>
                        </g>
                        <path d="M50.4262877,20.0127442 C49.937357,19.9475535 49.4488051,20.1352907 49.1293476,20.511123 C46.7496889,23.3107216 43.9294361,24.8351825 41.531285,24.8351825 C39.1331339,24.8351825 36.3128812,23.3107216 33.9332224,20.511123 C33.6137649,20.1352907 33.125213,19.9475535 32.6362823,20.0127442 L19.0983443,21.8178026 C17.8278027,21.9872082 16.9200397,23.1145999 17.0055757,24.3754514 L17.0245774,24.5560743 L18.7019888,36.2979543 L18.7303957,36.4584127 C18.9652424,37.5675689 19.9468488,38.3736379 21.0952722,38.3736379 L27.0257971,38.3736379 L27.0257971,62.5494512 C27.0257971,63.3505672 27.6752299,64 28.4763459,64 L54.5862242,64 L54.7259217,63.9933598 C55.4614969,63.9230713 56.036773,63.3034427 56.036773,62.5494512 L56.036773,38.3736379 L61.9672978,38.3736379 C63.1704081,38.3736379 64.1904358,37.4889726 64.3605812,36.2979543 L66.0379927,24.5560743 C66.2192645,23.2871714 65.3800841,22.1078402 64.1432387,21.8484638 L63.9642258,21.8178026 L50.4262877,20.0127442 Z M50.8070611,22.9900845 L63.0970775,24.6282376 L61.5469243,35.4725404 L55.5532567,35.4725404 L55.3943001,35.4776827 C54.1332042,35.5595359 53.1356754,36.6083361 53.1356754,37.8901217 L53.1356754,61.0989024 L29.9268947,61.0989024 L29.9268947,37.8901217 L29.9217523,37.731165 C29.8398991,36.4700692 28.7910989,35.4725404 27.5093133,35.4725404 L21.5146787,35.4725404 L19.9645255,24.6282376 L32.254542,22.9900845 C35.0516755,26.0236537 38.4092487,27.7362801 41.531285,27.7362801 C44.6533214,27.7362801 48.0108945,26.0236537 50.8070611,22.9900845 Z" id="Path" fill="#FFFFFF"></path>
                    </g>
                </g>
            </g>
        </g>
    </g>
</svg>