<?xml version="1.0" encoding="UTF-8"?>
<svg width="206px" height="140px" viewBox="0 0 206 140" version="1.1" xmlns="http://www.w3.org/2000/svg" xmlns:xlink="http://www.w3.org/1999/xlink">
    <!-- Generator: Sketch 61 (89581) - https://sketch.com -->
    <title>FRW-Migration Assistant</title>
    <desc>Created with Sketch.</desc>
    <defs>
        <linearGradient x1="0.449220059%" y1="0.448479178%" x2="100%" y2="100%" id="linearGradient-1">
            <stop stop-color="#189EFF" offset="0.0554265203%"></stop>
            <stop stop-color="#4059F0" offset="100%"></stop>
        </linearGradient>
    </defs>
    <g id="2.-FRW" stroke="none" stroke-width="1" fill="none" fill-rule="evenodd">
        <g id="FRW-Migration-Plugin-EN" transform="translate(-1132.000000, -367.000000)" fill-rule="nonzero">
            <g id="Migration" transform="translate(1103.000000, 350.000000)">
                <g id="FRW-Migration-Assistant" transform="translate(22.378201, -0.000000)">
                    <g id="blob-shape-(3)" transform="translate(109.500000, 83.500000) rotate(7.000000) translate(-109.500000, -83.500000) translate(8.000000, 12.000000)" fill="#E8EDF7">
                        <path d="M174.433645,10.5180204 C194.14034,22.8779609 207.579137,46.5985276 200.886297,65.5329046 C194.193457,84.4146861 167.368981,98.5102778 151.539883,112.448083 C135.710786,126.438484 130.930187,140.376289 122.590696,142.269727 C114.251205,144.21576 102.459059,134.170021 84.2396617,131.803224 C66.0202647,129.436427 41.4267345,134.801167 23.4729264,125.807338 C5.57223595,116.813509 -5.68873249,93.4611106 4.45676266,80.3648332 C14.6553756,67.2159603 46.2604521,64.4283993 66.2327358,52.1210542 C86.2050194,39.8137092 94.5445102,18.0917712 111.648434,7.67786387 C128.805475,-2.73604345 154.72695,-1.78932461 174.433645,10.5180204 Z" id="Path"></path>
                    </g>
                    <g id="Migration-Assistant" transform="translate(68.000000, 47.000000)">
                        <g id="icon-background" fill="url(#linearGradient-1)">
                            <path d="M8,0 L76,0 C80.418278,0 84,3.581722 84,8 L84,76 C84,80.418278 80.418278,84 76,84 L8,84 C3.581722,84 0,80.418278 0,76 L0,8 C0,3.581722 3.581722,0 8,0 Z" id="Rectangle"></path>
                        </g>
                        <g id="Icon" transform="translate(17.000000, 20.000000)" fill="#FFFFFF">
                            <g id="migration-profile" transform="translate(3.000000, 0.000000)">
                                <path d="M17.5338665,42.1776145 C17.5876569,40.8665392 17.7368121,39.6241814 17.9805628,38.4500348 C18.1489525,37.638902 17.6279063,36.8448421 16.8167735,36.6764524 C16.0056407,36.5080627 15.2115809,37.0291089 15.0431911,37.8402417 C14.7654378,39.1781791 14.59676,40.5831457 14.5363883,42.0546351 C14.5024284,42.8823659 15.1459069,43.5809042 15.9736377,43.614864 C16.8013685,43.6488238 17.4999067,43.0053453 17.5338665,42.1776145 Z M20.3894999,32.4881877 C21.0525582,31.4731215 21.8317195,30.5339714 22.7286695,29.6694169 C23.3251281,29.0945008 23.3425917,28.1449139 22.7676756,27.5484552 C22.1927594,26.9519966 21.2431725,26.9345329 20.6467139,27.5094491 C19.588449,28.5294923 18.6649383,29.6426317 17.8778673,30.847547 C17.4248169,31.5411152 17.6197951,32.4706332 18.3133633,32.9236836 C19.0069315,33.376734 19.9364495,33.1817559 20.3894999,32.4881877 Z M28.0755885,26.0905939 C29.2010336,25.6032512 30.3707908,25.2420939 31.586741,25.0067022 C32.4000683,24.8492529 32.9317624,24.062283 32.7743131,23.2489558 C32.6168638,22.4356285 31.829894,21.9039344 31.0165667,22.0613837 C29.5874095,22.3380494 28.2090894,22.7635996 26.8834876,23.3376145 C26.1232733,23.666804 25.7738588,24.5499403 26.1030483,25.3101546 C26.4322379,26.0703689 27.3153742,26.4197834 28.0755885,26.0905939 Z M38.1372722,24.8874135 C39.2914471,25.0452685 40.4805591,25.2917076 41.7046189,25.6272594 C42.5035702,25.846276 43.3287963,25.3761461 43.547813,24.5771948 C43.7668296,23.7782435 43.2966997,22.9530174 42.4977484,22.7340007 C41.1491146,22.3642995 39.8311261,22.0911512 38.5437938,21.9150844 C37.7230078,21.8028266 36.9666263,22.3772021 36.8543685,23.1979881 C36.7421106,24.0187742 37.3164862,24.7751557 38.1372722,24.8874135 Z" id="Path-6" transform="translate(29.068332, 32.758609) rotate(-180.000000) translate(-29.068332, -32.758609) "></path>
                                <rect id="Rectangle" x="31" y="3.1760382" width="14" height="14" rx="7"></rect>
                                <path d="M3.8388248,22.962469 C3.8108162,21.6395706 3.8719759,20.3806325 4.0216243,19.1854486 C4.1245475,18.3634399 3.5416136,17.6136344 2.7196049,17.5107111 C1.8975962,17.4077878 1.1477907,17.9907218 1.0448674,18.8127305 C0.8766965,20.1558472 0.8084662,21.5603295 0.8394969,23.0259711 C0.8570325,23.8542126 1.5426704,24.5114195 2.3709119,24.4938839 C3.1991534,24.4763483 3.8563604,23.7907105 3.8388248,22.962469 Z M5.8657422,12.9855636 C6.4253137,11.8934072 7.1010731,10.8797092 7.8942749,9.942602 C8.4294951,9.3102802 8.3507788,8.3638004 7.7184571,7.8285802 C7.0861354,7.2933599 6.1396556,7.3720762 5.6044353,8.004398 C4.6631769,9.1164227 3.8598752,10.3214453 3.1957851,11.6175983 C2.8180319,12.3548865 3.1094927,13.2588063 3.846781,13.6365595 C4.5840693,14.0143126 5.487989,13.7228519 5.8657422,12.9855636 Z M12.8943333,5.8598251 C14.0061186,5.2267811 15.1331857,4.7280896 16.2727424,4.3548389 C17.0600148,4.0969755 17.4891857,3.2497254 17.2313222,2.4624529 C16.9734588,1.6751805 16.1262088,1.2460096 15.3389363,1.5038731 C14.0085963,1.9396129 12.6970271,2.5199409 11.4099166,3.252814 C10.6900103,3.6627243 10.438709,4.5786216 10.8486193,5.2985279 C11.2585297,6.0184341 12.174427,6.2697355 12.8943333,5.8598251 Z M22.6728018,3.5308997 C23.9414137,3.6059903 25.1627074,3.8135526 26.3205392,4.1246526 C27.1205896,4.3396196 27.9434238,3.8653158 28.1583908,3.0652654 C28.3733579,2.265215 27.8990541,1.4423807 27.0990036,1.2274137 C25.7513319,0.8653053 24.32995,0.6237374 22.8500651,0.5361413 C22.0230854,0.4871914 21.3130041,1.1179091 21.2640543,1.9448888 C21.2151044,2.7718685 21.8458221,3.4819498 22.6728018,3.5308997 Z" id="Path-6"></path>
                            </g>
                            <path d="M10.2617676,27.3244762 L9.6971797,29.2431321 C9.1512779,29.0824939 8.5816963,29 8,29 L8,27 C8.7733131,27 9.5329987,27.1100271 10.2617676,27.3244762 Z M13.266475,28.9778924 L11.949339,30.4829348 C11.5169819,30.1045581 11.032761,29.7897034 10.5114849,29.5490625 L11.3497503,27.7332126 C12.0452044,28.0542606 12.6905987,28.473915 13.266475,28.9778924 Z M15.3047498,31.7337439 L13.4793655,32.5510396 C13.2447191,32.0269698 12.935419,31.5392068 12.5619777,31.1025732 L14.0818935,29.8026287 C14.5793467,30.3842588 14.9916561,31.0344666 15.3047498,31.7337439 Z M13.9996716,35.0635435 L14,35 C14,34.4687832 13.9312064,33.9476057 13.7968404,33.445173 L15.7289421,32.9284691 C15.8783901,33.4872973 15.9669927,34.0629839 15.9923756,34.6479601 L15.9995647,35.0842244 L13.9996716,35.0635435 Z M15.2388808,38.4095495 L13.4300372,37.5562705 C13.6739163,37.0392777 13.8427395,36.4889754 13.9302383,35.918768 L15.907099,36.2221186 C15.7902579,36.983543 15.5646349,37.718992 15.2388808,38.4095495 Z M13.1154478,41.1510201 L11.8358884,39.6139034 C12.2775396,39.2462546 12.6649612,38.8169904 12.9851899,38.3401481 L14.6455304,39.4551681 C14.2190356,40.0902477 13.7033606,40.6616172 13.1154478,41.1510201 Z M10.077365,42.7273795 L9.5591928,40.795671 C10.1146461,40.6466732 10.6438407,40.4183272 11.1324379,40.1185726 L12.178302,41.8233214 C11.5263165,42.2233147 10.8194937,42.5283068 10.077365,42.7273795 Z M6.6942232,42.893807 L7.0185316,40.9202761 C7.340538,40.9731911 7.6683665,41 8,41 C8.2258241,41 8.4499133,40.9875691 8.6716479,40.962917 L8.8926428,42.9506698 C8.5975619,42.9834764 8.2996951,43 8,43 C7.5596178,43 7.1233294,42.9643216 6.6942232,42.893807 Z M3.5173673,41.6270038 L4.6392418,39.9712871 C5.114225,40.2931245 5.6328598,40.5454059 6.1805525,40.7194557 L5.5748282,42.6255244 C4.8432181,42.3930281 4.1508514,42.0562375 3.5173673,41.6270038 Z M1.1573192,39.1465812 L2.8669078,38.1086473 C3.1649597,38.5995708 3.5324481,39.045936 3.9569995,39.4333619 L2.6088555,40.9106932 C2.0437054,40.3949634 1.5544435,39.8006876 1.1573192,39.1465812 Z M0.0419694,35.8237257 L2.0315576,35.6199144 C2.0904864,36.1951729 2.2313559,36.7532212 2.4485851,37.2811978 L0.5990157,38.0421793 C0.3088137,37.3368419 0.1205881,36.5911948 0.0419694,35.8237257 Z M0.3998657,32.4963455 L2.2995427,33.1218273 C2.1213818,33.6629271 2.0209497,34.2296157 2.0029445,34.8099117 L0.0039065,34.7478864 C0.0278749,33.9753995 0.1619313,33.2189862 0.3998657,32.4963455 Z M2.1511714,29.5418301 L3.6131183,30.9066419 C3.220965,31.3267051 2.8905685,31.8007139 2.6331272,32.3139204 L0.8454421,31.4171585 C1.1887698,30.7327383 1.6289721,30.1011948 2.1511714,29.5418301 Z M4.9717794,27.593288 L5.7292513,29.4442975 C5.1978007,29.6617782 4.7005334,29.9550453 4.2522639,30.3141111 L3.0019181,28.7531385 C3.5992345,28.2746855 4.2623882,27.8835857 4.9717794,27.593288 Z M8,27 L8,29 C7.5369674,29 7.081494,29.0522641 6.6392518,29.1547381 L6.1877844,27.20636 C6.777806,27.0696434 7.3847371,27 8,27 Z" id="Rectangle"></path>
                        </g>
                    </g>
                </g>
            </g>
        </g>
    </g>
</svg>