<?xml version="1.0" encoding="UTF-8"?>
<svg width="332px" height="255px" viewBox="0 0 332 255" version="1.1" xmlns="http://www.w3.org/2000/svg" xmlns:xlink="http://www.w3.org/1999/xlink">
    <!-- Generator: sketchtool 55.2 (78181) - https://sketchapp.com -->
    <title>F665B778-5DB9-45AC-ADA2-7C1D64BA6588@1.00x</title>
    <desc>Created with sketchtool.</desc>
    <defs>
        <polygon id="path-1" points="0.416478338 0.363756806 311.847375 0.363756806 311.847375 255 0.416478338 255"></polygon>
        <polygon id="path-3" points="0.328741935 0.0415877118 315.888566 0.0415877118 315.888566 106.966177 0.328741935 106.966177"></polygon>
        <polygon id="path-5" points="0 255 332 255 332 1 0 1"></polygon>
    </defs>
    <g id="2.-FRW" stroke="none" stroke-width="1" fill="none" fill-rule="evenodd">
        <g id="FRW-Account" transform="translate(-697.000000, -410.000000)">
            <g id="Group-104" transform="translate(697.000000, 410.000000)">
                <g id="Group-3" transform="translate(6.000000, 0.000000)">
                    <mask id="mask-2" fill="white">
                        <use xlink:href="#path-1"></use>
                    </mask>
                    <g id="Clip-2"></g>
                    <path d="M310.976834,136.769643 C310.884253,137.6633 310.773155,138.556032 310.652799,139.444598 C310.569475,140.037438 310.481523,140.629816 310.388478,141.22173 L310.388478,141.226358 C310.29636,141.814108 310.19452,142.406948 310.088051,142.998863 C309.92557,143.887429 309.754757,144.776458 309.564965,145.659934 C309.43998,146.247683 309.310366,146.835433 309.171493,147.423645 C309.152977,147.506485 309.134461,147.589789 309.111315,147.673554 C309.041879,147.983164 308.967814,148.289072 308.889119,148.599144 C308.842828,148.793055 308.791909,148.992057 308.740989,149.186431 L308.740989,149.191522 C308.592858,149.774643 308.435469,150.357302 308.273452,150.940424 L308.273452,150.945052 C308.111434,151.528636 307.944787,152.111295 307.768882,152.694417 L307.505024,153.569562 C307.148122,154.731177 306.764372,155.888164 306.357012,157.035433 C306.273689,157.26683 306.194995,157.498228 306.106579,157.724997 C305.986686,158.072093 305.856609,158.415025 305.727458,158.757493 C305.61636,159.043963 305.509428,159.330896 305.398793,159.617828 C305.273808,159.951504 305.144193,160.280088 305.00995,160.608672 C304.917369,160.848863 304.820158,161.084888 304.717855,161.326005 C304.602128,161.607847 304.482235,161.890152 304.366508,162.177084 C304.176716,162.630623 303.982294,163.079997 303.783244,163.528446 C303.690662,163.741331 303.598081,163.949589 303.50087,164.162475 C303.482354,164.213845 303.459208,164.259662 303.436063,164.311032 C303.2509,164.722456 303.061107,165.139435 302.866223,165.550859 L302.866223,165.555487 C302.607458,166.110841 302.338971,166.666658 302.065855,167.222012 C301.658496,168.050415 301.23725,168.878355 300.802116,169.70213 C300.515113,170.253319 300.218852,170.798954 299.917962,171.340424 C299.468941,172.154943 299.006033,172.964834 298.529238,173.765469 L298.529238,173.770097 C298.214461,174.302774 297.895054,174.834525 297.56176,175.36674 C297.395113,175.630995 297.233096,175.899417 297.066449,176.162747 C295.668466,178.384162 294.173274,180.559299 292.58087,182.674271 L292.58087,182.678899 C292.469772,182.827456 292.358674,182.975551 292.247576,183.118554 C291.867992,183.623001 291.483778,184.118654 291.090306,184.613382 C290.474639,185.39134 289.849713,186.15958 289.206271,186.918101 C289.201642,186.922729 289.197012,186.932447 289.19192,186.936613 C289.19192,186.94124 289.187754,186.94124 289.187754,186.945868 C289.183125,186.950959 289.178496,186.959752 289.173867,186.96438 C289.15998,186.982892 289.146093,186.996776 289.132205,187.015288 C289.113689,187.038427 289.09471,187.061567 289.072027,187.08517 C288.997962,187.177266 288.919268,187.265197 288.844739,187.353591 C288.720217,187.501222 288.590603,187.649317 288.45636,187.797874 C288.45636,187.806667 288.451731,187.816386 288.442472,187.821014 C288.40544,187.86683 288.368407,187.908482 288.322116,187.955224 C288.312858,187.973736 288.294342,187.996413 288.271196,188.014925 C288.257309,188.038064 288.234164,188.066295 288.206389,188.089435 C287.882354,188.468464 287.553689,188.84379 287.215766,189.213564 C287.016716,189.440796 286.813036,189.667565 286.604728,189.889244 C286.572324,189.930896 286.530199,189.977638 286.489001,190.019289 C286.484372,190.028083 286.470484,190.041966 286.456597,190.056313 C286.456597,190.060478 286.451968,190.060478 286.44271,190.065106 C286.373274,190.143781 286.303837,190.217828 286.234401,190.296504 C286.137191,190.403409 286.03998,190.509389 285.93814,190.611667 C285.790009,190.773182 285.63725,190.940251 285.48449,191.101767 C285.345618,191.250324 285.206745,191.397956 285.063244,191.54605 C284.970662,191.643237 284.878081,191.740424 284.785499,191.837611 C284.364253,192.277266 283.933748,192.712293 283.503244,193.143155 C282.826935,193.818836 282.137665,194.489888 281.438211,195.147057 C281.30906,195.271549 281.179446,195.396966 281.049831,195.512665 C280.480455,196.044417 279.897191,196.572466 279.309297,197.095424 C278.832502,197.52536 278.346449,197.946504 277.860395,198.363482 L277.855766,198.363482 C277.365084,198.784162 276.874401,199.196513 276.374461,199.603772 L276.369831,199.603772 C275.87452,200.015197 275.36995,200.417828 274.86538,200.816295 L274.860288,200.816295 C274.351553,201.218926 273.842354,201.611839 273.323897,202.000587 L273.319268,202.000587 C272.80544,202.394426 272.282354,202.778083 271.759268,203.157574 L271.754639,203.157574 C270.963066,203.727275 270.166864,204.287257 269.356775,204.83752 C268.815173,205.1985 268.268941,205.564108 267.718081,205.92046 C267.16722,206.276812 266.61636,206.628536 266.06087,206.971005 L266.056241,206.971005 C264.940633,207.665197 263.806508,208.336712 262.658496,208.979534 C261.505855,209.632075 260.339327,210.256848 259.154282,210.858945 C258.265499,211.312021 257.366995,211.752139 256.455529,212.177447 C255.548229,212.607847 254.631671,213.020197 253.705855,213.417738 C253.090188,213.686159 252.469891,213.945787 251.844965,214.200324 L251.840336,214.200324 C251.21541,214.454398 250.585855,214.700142 249.951671,214.944961 C249.317487,215.185614 248.683303,215.42164 248.039861,215.653037 C247.077012,216.000133 246.104906,216.328718 245.123541,216.643881 C244.146805,216.958582 243.156182,217.258936 242.1563,217.545868 C241.494342,217.735614 240.823125,217.916567 240.151909,218.096594 C238.804846,218.452946 237.443897,218.781531 236.06906,219.078182 C234.694223,219.378536 233.305499,219.652048 231.898259,219.892239 C231.486271,219.962121 231.074282,220.035705 230.657665,220.109752 C230.639149,220.114843 230.620633,220.119471 230.597487,220.119471 C230.208645,220.193518 229.815173,220.267103 229.421701,220.34115 C229.009713,220.415197 228.597725,220.493872 228.185736,220.577638 C228.051493,220.604943 227.912621,220.632711 227.773748,220.660941 C227.31084,220.7535 226.852561,220.845596 226.394282,220.942783 C225.486983,221.132529 224.584312,221.326903 223.686271,221.530533 C223.357606,221.605043 223.024312,221.67909 222.695647,221.757765 C222.362354,221.831812 222.02906,221.910487 221.700395,221.993328 C221.117131,222.127538 220.533867,222.271005 219.955232,222.414934 C219.672858,222.48389 219.390484,222.553309 219.10811,222.627819 C218.561879,222.76203 218.015647,222.905034 217.474045,223.048963 C216.983363,223.173455 216.49268,223.303037 216.001998,223.441876 C215.8909,223.465015 215.775173,223.497411 215.664075,223.53027 L214.553096,223.835251 C213.798555,224.043509 213.039386,224.261485 212.284846,224.478999 C212.173748,224.506304 212.06265,224.5387 211.951553,224.571558 C210.988704,224.848772 210.025855,225.135705 209.063007,225.431894 C206.220751,226.29732 203.392383,227.218282 200.582532,228.181358 C200.165915,228.319734 199.753464,228.463201 199.341938,228.611295 C198.180039,229.009761 197.022769,229.421186 195.870128,229.838164 C195.448882,229.985796 195.023007,230.138518 194.60176,230.296331 C193.865736,230.564289 193.129713,230.832711 192.398318,231.106222 C186.459208,233.309126 180.598793,235.645778 174.82633,237.996776 C172.178496,239.079716 169.54455,240.167284 166.933748,241.245596 L164.572455,242.217928 C161.577903,243.453591 158.615291,244.674907 155.675826,245.860124 C154.986093,246.137338 154.29636,246.415015 153.611256,246.693155 C153.305736,246.813019 153.000217,246.933346 152.694698,247.058763 C147.116656,249.279716 141.640455,251.366921 136.27998,253.190796 L136.275351,253.190796 C130.850069,254.338064 125.304431,255.000324 119.513452,255.000324 C118.05992,255.000324 108.454579,254.388972 99.9231846,250.779634 C96.8633626,249.488436 93.9470421,247.808491 91.5908404,245.632892 C90.8964783,244.994698 90.2530362,244.309299 89.665143,243.583173 C82.0179027,234.072275 62.8766564,228.842692 47.1609294,224.464652 C41.6199205,222.914752 36.509416,221.474997 32.4728582,219.989426 C21.8722647,216.088527 13.7111964,205.397502 8.28128546,191.310487 C7.87855549,190.277992 7.49434184,189.223282 7.12864451,188.153763 C7.07309555,188.001041 7.01754659,187.848319 6.96662671,187.690968 C6.35558813,185.886068 5.7815822,184.034888 5.25386706,182.137429 C3.90680475,177.333618 2.83748724,172.261386 2.05054362,167.027175 C1.147873,161.043237 0.610899703,154.846876 0.46739822,148.599144 C0.453510979,148.289072 0.448881899,147.983164 0.444252819,147.673554 C0.439623739,147.367647 0.430365579,147.057574 0.430365579,146.747965 C0.421107418,146.155124 0.416478338,145.562747 0.416478338,144.970832 C0.416478338,143.804126 0.430365579,142.642511 0.458140059,141.481358 C0.458140059,141.235614 0.46739822,140.985705 0.4720273,140.740424 L0.4720273,140.735796 C0.4951727,139.856485 0.527576261,138.97301 0.569237982,138.093237 L0.569237982,138.089072 C0.759030267,133.830896 1.12935668,129.596322 1.68484629,125.421912 C2.91155252,116.17527 5.04092938,107.243328 8.11926766,99.1536724 C9.22098872,96.5990445 9.95238338,94.2156506 10.4152914,91.9525835 C10.6467454,90.8233639 10.8087632,89.7270027 10.910603,88.6528557 C11.1652024,86.0288085 11.0772499,83.5528557 10.8041341,81.1467849 C10.6421163,79.7209138 10.4152914,78.3186452 10.160692,76.9256325 L10.160692,76.9210045 C10.0218196,76.1573929 9.87368902,75.4030372 9.72092938,74.6440535 C9.61908961,74.1349791 9.51724985,73.6263675 9.41541009,73.1168303 C9.25802136,72.3536815 9.10526172,71.5896071 8.95713116,70.8167396 C8.90621128,70.5575744 8.85529139,70.2984093 8.80900059,70.0397069 C8.71178991,69.5255417 8.61920831,69.0025835 8.53125579,68.4796252 C7.83689377,64.3519574 7.43879288,59.9873385 8.11926766,54.9706416 C8.64698279,51.0651152 9.65149318,47.5288993 11.0124427,44.3124746 C11.1281697,44.0347976 11.2485258,43.7617486 11.3781401,43.4886996 C11.4522053,43.3174655 11.5308997,43.1416034 11.6142231,42.9749973 C11.7299501,42.7162949 11.8549353,42.456667 11.9845496,42.1975018 C12.0956475,41.9661044 12.2113745,41.7393348 12.3317306,41.5125653 C12.4844902,41.2071207 12.646508,40.906304 12.8085258,40.6101152 C13.4612261,39.4253603 14.1602172,38.2915127 14.90087,37.2039446 L14.90087,37.1997795 C15.1786148,36.7920572 15.4609887,36.3898884 15.7526208,35.991422 C16.0442528,35.5980463 16.3405139,35.2092985 16.6367751,34.8251788 C16.7849056,34.6358956 16.9376653,34.441059 17.0904249,34.255941 C17.5440748,33.6867033 18.0162409,33.1359773 18.4930362,32.5991352 C18.9142825,32.1178285 19.349416,31.6504056 19.7891786,31.1922387 C28.1261519,22.4731824 38.8517306,17.3782731 45.4389116,13.4070299 C46.9757662,12.4814401 48.4987335,11.6118485 50.0124427,10.8061225 L50.0170718,10.8061225 C52.4982588,9.47327314 54.9470421,8.29777405 57.363422,7.26111343 C57.4004546,7.24722958 57.4328582,7.22871779 57.4698908,7.21529673 C57.7430065,7.099598 58.0161223,6.98389927 58.289238,6.86820054 C58.5068047,6.77980672 58.7243715,6.68724773 58.9373092,6.5993167 C59.0298908,6.5622931 59.1224724,6.52526951 59.215054,6.48824592 C62.043422,5.33588657 64.8254991,4.37790109 67.533511,3.58652178 C67.996419,3.45231125 68.459327,3.32272868 68.922235,3.1931461 L68.9268641,3.1931461 C69.3295941,3.08207532 69.732324,2.97563249 70.135054,2.86918966 C70.9358849,2.66555989 71.7320866,2.47164882 72.5190303,2.29069601 C72.9171312,2.20276497 73.3059739,2.11529673 73.6994457,2.03153085 L73.7040748,2.03153085 C74.5928582,1.84641289 75.4770125,1.67517877 76.3519086,1.51782849 L76.3565377,1.51782849 C77.009238,1.39750181 77.6619383,1.29614973 78.3053804,1.19896279 L78.3100095,1.19896279 C78.7914338,1.12445281 79.2728582,1.05966152 79.7496534,0.994870236 C80.2264487,0.934706897 80.7032439,0.874543557 81.170781,0.823636116 C82.1104843,0.71765608 83.0409294,0.62926225 83.9528582,0.564470962 C84.8647869,0.495514519 85.7581994,0.444144283 86.6423537,0.411748639 C87.0636,0.397864791 87.4802172,0.383980944 87.8922053,0.374725045 L87.9986742,0.374725045 C89.2809294,0.351585299 90.530781,0.363593793 91.7436,0.407583485 C92.0120866,0.416376588 92.2759442,0.430260436 92.5444309,0.444144283 C92.9054991,0.46265608 93.2573092,0.481167877 93.6091193,0.504770417 C94.3081104,0.550587114 94.9932142,0.606122505 95.6690599,0.675541742 C96.3402766,0.740333031 96.9976059,0.814380218 97.6410481,0.902311252 C97.6873389,0.906939201 97.7336297,0.9161951 97.7799205,0.920823049 C98.5252024,1.02263793 99.2473389,1.13833666 99.9509591,1.25866334 C100.654579,1.38361797 101.339683,1.51782849 102.001642,1.66175771 C102.223837,1.70757441 102.446033,1.75894465 102.658971,1.80938929 C102.890425,1.86029673 103.112621,1.91583212 103.334817,1.97136751 C103.557012,2.0273657 103.774579,2.08243829 103.992146,2.14306443 C104.339327,2.23099546 104.681879,2.3277196 105.015173,2.42490653 C105.093867,2.44804628 105.177191,2.47164882 105.255885,2.49432577 C105.441048,2.54986116 105.626211,2.60585935 105.806745,2.66555989 C108.635113,3.54949819 110.875588,4.60004265 112.430959,5.65984301 C112.491137,5.70195735 112.551315,5.7431461 112.606864,5.78479764 C113.02811,6.08561434 113.393808,6.38180309 113.703956,6.67336388 C113.754876,6.72427132 113.805796,6.77101361 113.852087,6.82145826 C113.903007,6.86820054 113.949297,6.91864519 113.995588,6.96955263 C114.023363,6.99269238 114.041879,7.01583212 114.065024,7.04359982 C114.08817,7.06673956 114.106686,7.09034211 114.129831,7.11301906 L114.134461,7.12227495 L114.171493,7.15929855 C114.18538,7.1731824 114.203897,7.19169419 114.227042,7.21529673 C114.245558,7.23380853 114.273333,7.26111343 114.301107,7.28888113 C114.328882,7.31664882 114.365915,7.34950726 114.398318,7.38606806 C114.902888,7.87663067 116.083303,8.99659437 117.819208,10.4405145 C118.11084,10.6862586 118.420989,10.940333 118.745024,11.1994982 C118.851493,11.2874292 118.957962,11.3711951 119.064431,11.4586633 C119.258852,11.6160136 119.462532,11.7733639 119.67084,11.9353421 C125.748823,16.6933367 136.215173,23.421912 147.996182,24.606667 C153.726983,25.1712768 159.517962,25.4026742 165.341345,25.4628376 C166.382888,25.4720935 167.424431,25.4771842 168.470603,25.4771842 C171.734104,25.4771842 175.002235,25.4304419 178.279624,25.3656506 C178.589772,25.3614855 178.895291,25.3517668 179.20544,25.3471388 C186.491612,25.1990445 193.805558,24.972275 201.119505,24.972275 C202.735054,24.972275 204.345974,24.9815309 205.961523,25.0092985 C206.757725,25.0236452 207.558555,25.0370662 208.354757,25.055578 C212.428348,25.1573929 216.49268,25.3614855 220.547754,25.7178376 C221.320811,25.7821661 222.088775,25.8562132 222.857665,25.9348884 C223.737191,26.0274474 224.621345,26.1246343 225.505499,26.2310771 C225.667517,26.2495889 225.824906,26.2681007 225.982294,26.2912405 C226.144312,26.3097523 226.301701,26.332892 226.45909,26.3514038 C226.86182,26.402774 227.25992,26.4532187 227.66265,26.5087541 C228.458852,26.6198249 229.259683,26.7355236 230.060514,26.8604782 C231.18538,27.0317123 232.310247,27.2260862 233.435113,27.4343439 C233.583244,27.4574837 233.731374,27.4852514 233.879505,27.5130191 C235.809831,27.878627 237.740158,28.2858866 239.660763,28.7537722 C239.971374,28.8273566 240.281523,28.9060318 240.586579,28.9800789 C240.971256,29.0772659 241.35084,29.1744528 241.730425,29.2762677 C242.072977,29.3641987 242.415529,29.4567577 242.76271,29.5539446 C243.105262,29.6465036 243.452443,29.7436906 243.794995,29.8455054 C244.137547,29.9426924 244.480099,30.0445073 244.82265,30.1463221 C245.854935,30.4471388 246.882591,30.7710953 247.910247,31.1135635 C250.66455,32.0252695 253.404965,33.071186 256.131493,34.2651969 C256.909179,34.6030372 257.686864,34.9547613 258.45992,35.3208321 C259.867161,35.9821661 261.265143,36.6809864 262.658496,37.431177 L262.663125,37.431177 C265.130425,38.7450517 267.583837,40.1935998 270.023363,41.7907051 C270.787161,42.2905236 271.550959,42.8083911 272.310128,43.3359773 C273.828466,44.3957777 275.346805,45.5115762 276.855885,46.6958684 C279.239398,48.5609319 281.545143,50.5139265 283.752751,52.5548521 C289.530306,57.9001334 294.668585,63.8933276 298.918081,70.7658321 C299.010662,70.9139265 299.098615,71.0624837 299.191196,71.2101152 C299.251374,71.3073022 299.316182,71.4095799 299.375897,71.5109319 L299.375897,71.5155599 C299.625867,71.9274474 299.8763,72.3485907 300.117012,72.7697341 C300.43179,73.3112042 300.737309,73.857765 301.042828,74.4126561 C303.287932,78.504226 305.227517,82.891059 306.815291,87.620823 L306.815291,87.6259138 L306.81992,87.6259138 C311.324015,100.981712 313.050199,117.045324 310.976834,136.769643" id="Fill-1" fill="#E6EFF7" mask="url(#mask-2)"></path>
                </g>
                <g id="Group-6" transform="translate(1.000000, 148.000000)">
                    <mask id="mask-4" fill="white">
                        <use xlink:href="#path-3"></use>
                    </mask>
                    <g id="Clip-5"></g>
                    <path d="M315.888566,0.0415877118 C315.77273,0.544144318 315.647628,1.04670092 315.517891,1.54925753 L315.517891,1.55386814 C315.369622,2.13480514 315.212085,2.71574213 315.049915,3.29667912 L315.049915,3.30082867 C314.887745,3.88222673 314.720941,4.46316372 314.545334,5.04410072 L314.280765,5.91550621 C313.923991,7.07276959 313.53988,8.22542235 313.131674,9.36839283 C313.048273,9.59892339 312.969504,9.82945394 312.881469,10.0558349 C312.761,10.4016308 312.631264,10.742816 312.501528,11.0840012 C312.390326,11.369398 312.283757,11.6552559 312.172554,11.9415749 C312.047452,12.2735389 311.918179,12.6008923 311.783809,12.9282456 C311.690677,13.1679974 311.593375,13.4026775 311.49144,13.6428904 C311.375604,13.9236766 311.255135,14.2053849 311.139299,14.4912428 C310.949328,14.9426216 310.754724,15.3903119 310.555487,15.8375412 C310.462818,16.0496293 310.37015,16.2571068 310.272848,16.4691949 C310.254314,16.5199117 310.231147,16.5660178 310.207979,16.6167345 C310.022642,17.0270789 309.833135,17.4420339 309.638067,17.8523783 L309.638067,17.8569889 C309.378595,18.4102622 309.109856,18.9635355 308.836484,19.5168088 C308.428742,20.3421082 308.0071,21.1669465 307.571557,21.9880964 C307.284748,22.5367591 306.987745,23.0808112 306.687035,23.6202527 C306.237129,24.4312592 305.773786,25.2381161 305.297006,26.0362129 L305.297006,26.0408235 C304.981469,26.5710438 304.662226,27.100803 304.328155,27.6314843 C304.161352,27.8942892 303.999182,28.1617046 303.832378,28.4245094 C302.433082,30.6371417 300.936484,32.8045899 299.342584,34.9116392 L299.342584,34.9162498 C299.231381,35.0637894 299.120642,35.2113289 299.008977,35.3542579 C298.629035,35.8568145 298.24446,36.3501498 297.850619,36.8430242 C297.234372,37.6180679 296.609323,38.3834293 295.964812,39.1395695 C295.960179,39.1441802 295.955545,39.1534014 295.950912,39.158012 C295.927745,39.181065 295.909211,39.1995075 295.890677,39.2271712 C295.798472,39.3424364 295.70117,39.4577017 295.603405,39.572967 C295.478302,39.7205065 295.348566,39.8680461 295.214196,40.0155856 C295.214196,40.0248069 295.209563,40.0340281 295.20076,40.0386387 C295.163692,40.0847448 295.126161,40.1257792 295.079827,40.1723464 C295.07056,40.1907889 295.052026,40.2138419 295.028859,40.2322844 C295.014959,40.2553374 294.991792,40.2830011 294.963991,40.3060541 C294.640114,40.6836632 294.311141,41.0575837 293.972437,41.4264326 C293.773663,41.6523526 293.569328,41.8782725 293.360824,42.0995818 C293.328853,42.1410773 293.286689,42.1871835 293.244988,42.228679 C293.240355,42.2379002 293.226455,42.251732 293.213018,42.2655638 C293.16622,42.3158195 293.119886,42.3669973 293.073551,42.417714 C293.045751,42.4495272 293.018413,42.477652 292.99015,42.5053156 C292.892848,42.6113597 292.795545,42.7174037 292.69361,42.8188372 C292.54534,42.9802086 292.392437,43.1461906 292.239534,43.3075619 C292.100531,43.4551015 291.961528,43.60218 291.817891,43.7501806 C291.725686,43.8470034 291.632554,43.9438263 291.539886,44.0406491 C291.118243,44.4786572 290.687334,44.9115935 290.256889,45.3408414 C289.579944,46.0139906 288.889563,46.6825292 288.189915,47.337236 C288.060179,47.4617225 287.930443,47.586209 287.800707,47.7014743 C287.230795,48.2316946 286.647446,48.7573042 286.058537,49.2783033 C285.581293,49.7070901 285.094783,50.1266557 284.608273,50.5416107 L284.603639,50.5416107 C284.112496,50.9607153 283.621352,51.3715207 283.120941,51.7772545 L283.116771,51.7772545 C282.620531,52.1875989 282.115487,52.588722 281.610906,52.9852346 L281.605809,52.9852346 C281.096132,53.3863577 280.586918,53.7782597 280.06751,54.165551 L280.06334,54.165551 C279.548566,54.5574529 279.024988,54.9396726 278.501874,55.3182038 L278.496777,55.3182038 C277.70446,55.8853089 276.90751,56.4431929 276.09666,56.9918556 C275.554548,57.3514832 275.008267,57.7157215 274.456425,58.0702775 C273.90551,58.4257556 273.353669,58.7761621 272.797657,59.1173473 L272.793023,59.1173473 C271.676367,59.8089389 270.541176,60.4774775 269.392085,61.1183525 C268.238361,61.7684486 267.071199,62.3904201 265.884578,62.9902606 C264.994959,63.4421005 264.096073,63.8801085 263.183287,64.3042847 C262.275135,64.7330716 261.358179,65.1434159 260.431493,65.5399285 C259.814783,65.8073439 259.194367,66.0655382 258.56839,66.3191218 L258.563757,66.3191218 C257.938707,66.5727054 257.308097,66.8170678 256.673317,67.0609691 C256.038537,67.3011819 255.403757,67.5363231 254.75971,67.7668536 C253.795956,68.1126495 252.823399,68.4400029 251.841111,68.7535244 C250.862994,69.067046 249.871903,69.3662746 248.870619,69.6521325 C248.208501,69.8416286 247.536191,70.0214425 246.864343,70.2012563 C245.516015,70.5558123 244.154249,70.8831657 242.777657,71.1787058 C241.401528,71.4779345 240.011499,71.7504216 238.602935,71.9901734 C238.191023,72.0593325 237.778185,72.1326413 237.361639,72.2068721 C237.342642,72.2114827 237.324109,72.2160933 237.301405,72.2160933 C236.911733,72.2898631 236.517891,72.3631718 236.124513,72.4374027 C235.744109,72.5065618 235.368801,72.5752599 234.988859,72.6490297 C234.956425,72.6541014 234.919358,72.6633226 234.887387,72.6725438 C234.753018,72.7002075 234.613551,72.7274101 234.474548,72.7555348 C234.010742,72.8463639 233.551569,72.9413424 233.091933,73.0353989 C232.184707,73.2235118 231.281188,73.4203849 230.383229,73.6223297 C230.054255,73.6960995 229.720648,73.7698692 229.391674,73.8482496 C229.058531,73.9220194 228.72446,74.0050104 228.395487,74.0833908 C227.811674,74.2170985 227.227862,74.3595664 226.648683,74.5029564 C226.366044,74.5716545 226.083868,74.6412747 225.800765,74.7150445 C225.254484,74.8487522 224.707276,74.9916812 224.165164,75.1346101 C223.674021,75.2590966 223.182877,75.3881937 222.691733,75.5265121 C222.580531,75.5495651 222.464695,75.5818394 222.353493,75.6141137 L221.241469,75.9179529 C220.486683,76.1258915 219.726337,76.3425902 218.971088,76.5592889 C218.859886,76.5869526 218.753317,76.6192269 218.642114,76.6561118 C217.669094,76.9419697 216.709974,77.2324382 215.75595,77.5316668 C212.878589,78.431197 210.0749,79.3809829 207.341176,80.3718032 C206.896367,80.528564 206.456191,80.6903965 206.016015,80.8517678 C204.843757,81.2805547 203.685399,81.7181017 202.540941,82.1607203 L202.540941,81.8983766 C202.119299,82.045455 201.693023,82.1976052 201.271381,82.3548271 L201.392314,82.603339 C200.608801,82.9076393 199.835018,83.2165503 199.065868,83.5254612 C192.769035,86.0433159 186.797006,88.685196 181.009387,91.2440852 C178.303927,92.4474547 175.634607,93.62731 172.994015,94.7758133 C172.544109,94.9694589 172.090032,95.1672541 171.641053,95.3562892 C168.652026,96.6431107 165.696361,97.8736828 162.749035,99.0221861 C162.378361,99.1697256 162.003053,99.3126545 161.627745,99.4555835 C161.034666,99.6810424 160.436953,99.9074234 159.843874,100.128733 C154.232789,102.212729 148.630971,103.95554 142.894783,105.16352 L142.89015,105.16352 C137.459768,106.30649 131.908918,106.966269 126.112496,106.966269 C124.657598,106.966269 115.043229,106.357668 106.503815,102.761392 C103.441117,101.475031 100.522056,99.8013793 98.1636393,97.6343921 C97.4686246,96.9981278 96.8245777,96.3157574 96.236132,95.5918914 C88.5817038,86.1166246 69.4224663,80.9070952 53.6919677,76.5454571 C48.1457507,75.0009024 43.0304428,73.5670024 38.9900909,72.0869962 C28.3795337,68.2002511 20.2107947,57.5492785 14.7757801,43.5150394 C14.3726716,42.4868732 13.9880968,41.4356539 13.6220557,40.3706027 C13.5664545,40.2184525 13.5108534,40.0663024 13.4598856,39.9095416 C12.8482727,38.1109422 12.2737273,36.2666978 11.7455161,34.3768083 C10.3971877,29.590994 9.3268651,24.5377643 8.53918182,19.3227021 C3.79918182,11.8770263 1.56586804,5.07176438 0.328741935,0.0415877118 L315.888566,0.0415877118 Z" id="Fill-4" fill="#C3D6E5" mask="url(#mask-4)"></path>
                </g>
                <g id="Group-17" transform="translate(5.000000, 6.000000)" fill="#CFDBE5">
                    <polygon id="Fill-7" points="300.951404 64.7480294 300.951404 64.7526373 301.113487 81.299402 301.690704 140.579304 241.382597 140.579304 269.121343 80.8524412 285.366542 45.8743039"></polygon>
                    <path d="M241.382597,22.1760745 L241.382597,140.579212 L181.074952,140.579212 L181.162689,140.353427 L181.176542,140.311957 L181.707582,138.920388 L182.164738,137.722349 L227.261557,19.6694078 L227.261557,19.6648 C227.423178,19.6832314 227.580181,19.7016627 227.737184,19.724702 C227.898805,19.7431333 228.05627,19.7661725 228.212811,19.7846039 C228.615016,19.8352902 229.01168,19.8859765 229.413423,19.9412706 C230.207673,20.0518588 231.006542,20.1670549 231.80541,20.2914667 C232.92752,20.4619569 234.049631,20.6554863 235.171741,20.8628392 C235.319508,20.8858784 235.467276,20.9135255 235.615043,20.9411725 C237.54064,21.3051922 239.466698,21.7106824 241.382597,22.1760745" id="Fill-9"></path>
                    <path d="M181.07509,18.7847941 L181.07509,140.579304 L120.762827,140.579304 L126.068607,126.695873 L127.066038,124.078618 L127.864907,121.991265 L130.686344,114.595676 L131.282032,113.047441 L132.150167,110.771167 L132.644265,109.476363 L133.267659,107.845186 L133.378485,107.554892 L134.302032,105.135775 L134.83769,103.73499 L136.453898,99.5049902 L138.171696,95.0077353 L138.176313,94.9985196 L148.025946,69.2130294 L149.531329,65.2779314 L167.244968,18.8999902 C168.283959,18.9092059 169.32295,18.9138137 170.366558,18.9138137 C173.926833,18.9138137 177.496344,18.8585196 181.07509,18.7847941" id="Fill-11"></path>
                    <polygon id="Fill-13" points="120.762689 4.69866373 120.762689 140.57935 60.4550434 140.57935 66.8875511 123.742291"></polygon>
                    <path d="M59.6376578,0.731402941 C59.9101043,0.61159902 60.1825508,0.496402941 60.4549972,0.381206863 L60.4549972,140.579442 L0.142734251,140.579442 L59.6376578,0.731402941 Z" id="Fill-15"></path>
                </g>
                <polyline id="Stroke-18" stroke="#C4D7E6" stroke-width="4" points="306.264477 72.7864648 306.264477 72.7910959 306.425732 89.4212718 307 149 247 149 247 30"></polyline>
                <path d="M316,147.830403 C315.983302,147.913288 315.966605,147.995712 315.945733,148.079058 C315.883534,148.387573 315.816744,148.691484 315.745779,149 L307,149 L307,72 C307.054267,72.096699 307.112709,72.1980026 307.166976,72.2993063 L307.166976,72.303911 C307.392393,72.7137304 307.617811,73.1327592 307.834879,73.5517881 C308.118738,74.0905394 308.394249,74.6338955 308.669759,75.1864609 L308.669759,147.158115 L315.945733,147.158115 L315.945733,147.816589 L316,147.830403 Z" id="Fill-20" fill="#C4D7E6"></path>
                <polygon id="Fill-22" fill="#C4D7E6" points="248 150 185 150 185 26 186.872214 26 186.872214 148.137579 246.127786 148.137579 246.127786 29.4268549 248 29.4268549"></polygon>
                <path d="M189,26.7816635 L189,149 L126,149 L126,12 C126.294852,12.2432251 126.608424,12.4956286 126.936037,12.7526212 C127.043682,12.8398151 127.151326,12.9224199 127.25897,13.0096138 C127.455538,13.165645 127.661466,13.3216762 127.872075,13.4822966 L127.872075,147.164339 L187.127925,147.164339 L187.127925,26.7816635 L189,26.7816635 Z" id="Fill-24" fill="#C4D7E6"></path>
                <path d="M65.7393939,4.92142889 C65.4909091,5 65.2484848,5.07857111 65,5.16176406 L65,5.14789857 L66,4.83823594 L65.7393939,4.92142889 Z" id="Fill-26" fill="#C4D7E6"></path>
                <path d="M127,11.2984715 L127,147 L64,147 L64,6.65713913 C64.0374443,6.643353 64.070208,6.62497148 64.1076523,6.61118535 C64.3838039,6.49630088 64.6599554,6.38141642 64.936107,6.26653196 C65.1560921,6.17921976 65.3760773,6.08731219 65.5913819,6 L65.6990342,6.26193658 L65.872214,6.26193658 L65.872214,6.68011603 L65.942422,6.85014503 L65.872214,6.8777173 L65.872214,145.161849 L125.127786,145.161849 L125.127786,10.5678063 L126.063893,10.5678063 C126.171545,10.6551185 126.279198,10.7378353 126.38685,10.8251475 C126.583432,10.9813903 126.789376,11.1376332 127,11.2984715" id="Fill-28" fill="#C4D7E6"></path>
                <path d="M65,6 L65,147 L4,147 L4,145.163285 L63.1600181,145.163285 L63.1600181,6.76682841 C63.1968177,6.75305305 63.2290174,6.7346859 63.2658171,6.72091054 C63.5372144,6.60611587 63.8086117,6.4913212 64.080009,6.37652652 C64.2962069,6.28928257 64.5124048,6.19744684 64.7240027,6.11020289 C64.8160018,6.07346859 64.9080009,6.0367343 65,6" id="Fill-30" fill="#C4D7E6"></path>
                <path d="M215,224.166974 C212.120483,225.063478 209.315157,226.0115 206.579385,227 L206.49592,226.876265 L201.775554,219.815089 L192.46048,205.887311 L188.296077,199.659161 L181.795604,189.934693 C181.122789,188.931934 179.972837,188.348217 178.757969,188.393755 L165.353147,189.093387 L145.50674,190.128345 L110.623321,191.949872 C108.179673,192.046468 106.403739,189.681703 107.187376,187.386396 L108.935488,182.280602 C108.944762,182.258062 108.954036,182.230004 108.96331,182.207005 L110.632595,177.340401 C110.646505,177.303602 110.655779,177.266804 110.674327,177.235065 C110.994273,176.383639 111.629529,175.717126 112.413165,175.339941 C112.658921,175.224946 112.918588,175.137089 113.187528,175.081892 C113.507474,175.008754 113.841331,174.985295 114.179825,175.008754 L114.777986,175.261744 L114.958825,175.339941 L118.904829,177.013814 C118.988293,177.018874 119.076394,177.023473 119.159859,177.023473 L190.243577,177.023473 C190.660898,177.023473 191.064308,177.09707 191.439897,177.235065 C192.283814,177.538653 192.99326,178.163767 193.392034,178.996794 L198.590001,189.866156 L201.775554,196.521628 L202.258255,197.534047 L214.990726,224.143515 L215,224.166974 Z" id="Fill-32" fill="#D29F94"></path>
                <path d="M218,223.339895 C217.033677,223.623817 216.081158,223.912317 215.133701,224.209518 C212.276145,225.102954 209.491754,226.046305 206.776846,227.03087 C206.335098,227.186111 205.897952,227.346846 205.460805,227.507125 C204.296616,227.933006 203.146231,228.367589 202.009651,228.807208 L202.009651,228.546642 C201.590911,228.692724 201.167569,228.844301 200.748829,229 L198.558497,224.420627 L191.430712,209.51477 L187.809301,201.954225 L185.379688,196.871122 C182.535937,192.007828 177.129128,189.213953 171.496844,189.699824 L165.86456,190.185238 L145.603983,191.929979 L110.259559,194.975262 L105,195.428619 L109.030948,177.486638 L109.426681,175.732738 L113.328786,175.599936 L114.055829,175.577039 L115.675571,175.522087 L115.864234,175.517507 L130.994095,175.009197 L131.132142,175.004618 L146.73136,174.482569 L146.735961,174.482569 L150.104288,174.368085 L190.781895,173.003432 C193.280531,172.920545 195.590504,174.345188 196.62585,176.611977 L198.558497,180.83828 L198.683198,181.108921 L199.722686,183.38487 L202.009651,188.385544 L205.230729,195.428619 L205.460805,195.931893 L217.995398,223.335316 L218,223.339895 Z" id="Fill-34" fill="#0B2839"></path>
                <path d="M162.995985,248.318311 C162.40696,248.54663 161.813334,248.775416 161.224309,249 L161.472804,248.075051 L161.62006,247.54324 L162.614039,243.840641 L163.92554,238.947422 L165.931905,231.48106 L166.898274,227.885851 L171.734719,209.872919 L171.734719,209.867783 L173.681262,202.630674 C174.021792,201.361145 173.856128,200.10002 173.331528,199.035465 L173.331528,199.030796 C172.512416,197.373731 170.828173,196.191981 168.803401,196.210658 L167.482697,196.225132 L145.523119,196.458587 L114.056313,196.794296 C113.264811,196.799432 112.52853,196.626675 111.875081,196.308709 C109.693849,195.267966 108.437569,192.685952 109.247478,190.14596 L109.808893,188.389911 C110.084998,187.521924 110.825881,185.448843 111.493135,183.599878 C111.502339,183.576533 111.511542,183.548051 111.520746,183.524706 C112.178797,181.699086 112.76322,180.107389 112.76322,180.107389 C112.809237,180.098051 114.318613,180.088713 116.881791,180.079375 L116.886393,180.079375 L117.065861,180.079375 C121.110805,180.064901 127.668306,180.056029 135.252,180.046224 L135.288814,180.046224 C139.301545,180.042022 143.599585,180.037353 147.962049,180.032684 L148.353198,180.032684 L148.413021,180.032684 C154.220437,180.022879 160.129091,180.018676 165.623588,180.018676 C179.658942,180.004202 190.988465,180 190.988465,180 C194.499605,180 196.920128,183.571864 195.663849,186.895798 L190.251724,201.239748 L189.42801,203.424888 L174.863913,242.047239 L174.284092,243.579172 C173.837721,243.775274 173.386749,243.975579 172.940379,244.167012 C169.972247,245.469691 167.036327,246.716342 164.10961,247.879415 L162.995985,248.318311 Z" id="Fill-36" fill="#D29F94"></path>
                <path d="M146.043311,104.381927 C145.715831,103.944057 145.413153,103.482345 145.128847,103.005502 L145.12058,103 C145.12058,103 145.375491,109.700097 140.323202,111.414897 C133.146196,110.223707 126.148317,114.346103 123.723678,121.193838 L117,179 L146.759818,178.146727 L160.961342,138.675163 C163.385981,131.910876 161.435798,124.577128 156.463427,119.875185 C155.080937,118.567077 153.993777,116.960943 153.428839,115.145273 C152.726111,112.888065 152.804652,110.521275 155.779072,109.866992 L155.717066,109.827102 C155.071292,109.779877 154.424599,109.689093 153.778825,109.54008 C150.61747,108.813353 147.965937,106.951375 146.043311,104.381927" id="Fill-38" fill="#D29F94"></path>
                <path d="M162.186549,248 L160.656706,247.756184 L160.536537,247.737465 C160.314687,247.700027 160.097458,247.653697 159.889473,247.59286 C157.268866,246.801511 155.725158,243.947319 156.607937,241.227905 L157.458363,238.607702 L158.632321,234.989771 L159.958802,230.9048 L159.958802,230.90012 L163.411348,220.272363 L166.919356,209.466774 L166.919356,209.461626 L167.876086,206.518051 C169.022313,202.989504 166.424815,199.353791 162.750419,199.353791 L141.859511,199.353791 L105,199.353791 L105.559248,196.335339 L108.937844,178 L109.608017,178 L112.191649,178 L114.641246,178 L116.240418,178 L146.388955,178 L146.684756,178 L149.952427,178 L163.457567,178 L192.695594,178 L192.871225,178 C195.778389,178 198.227524,179.506886 199.656148,181.701698 C200.118336,182.413023 200.474221,183.198757 200.700694,184.027544 C201.149016,185.632237 201.112041,187.406338 200.464978,189.142064 L199.822536,190.850648 L193.712408,207.150287 L192.372062,210.729844 L181.986692,238.42987 L181.519882,239.664862 C178.820703,240.88675 176.158037,242.084303 173.524026,243.250033 C173.075703,243.446584 172.622759,243.647346 172.174436,243.839216 C169.193322,245.144872 166.244562,246.394371 163.305044,247.560102 L162.186549,248 Z" id="Fill-40" fill="#D29F94"></path>
                <path d="M162.995985,248.318311 C162.40696,248.54663 161.813334,248.775416 161.224309,249 L161.472804,248.075051 L161.62006,247.54324 L162.614039,243.840641 L163.92554,238.947422 L165.931905,231.48106 L166.898274,227.885851 L171.734719,209.872919 L171.734719,209.867783 L173.681262,202.630674 C174.021792,201.361145 173.856128,200.10002 173.331528,199.035465 L173.331528,199.030796 C172.512416,197.373731 170.828173,196.191981 168.803401,196.210658 L167.482697,196.225132 L145.523119,196.458587 L114.056313,196.794296 C113.264811,196.799432 112.52853,196.626675 111.875081,196.308709 C109.693849,195.267966 108.437569,192.685952 109.247478,190.14596 L109.808893,188.389911 C110.084998,187.521924 110.825881,185.448843 111.493135,183.599878 C111.502339,183.576533 111.511542,183.548051 111.520746,183.524706 C112.178797,181.699086 112.76322,180.107389 112.76322,180.107389 C112.809237,180.098051 114.318613,180.088713 116.881791,180.079375 L116.886393,180.079375 L117.065861,180.079375 C121.110805,180.064901 127.668306,180.056029 135.252,180.046224 L135.288814,180.046224 C139.301545,180.042022 143.599585,180.037353 147.962049,180.032684 L148.353198,180.032684 L148.413021,180.032684 C154.220437,180.022879 160.129091,180.018676 165.623588,180.018676 C179.658942,180.004202 190.988465,180 190.988465,180 C194.499605,180 196.920128,183.571864 195.663849,186.895798 L190.251724,201.239748 L189.42801,203.424888 L174.863913,242.047239 L174.284092,243.579172 C173.837721,243.775274 173.386749,243.975579 172.940379,244.167012 C169.972247,245.469691 167.036327,246.716342 164.10961,247.879415 L162.995985,248.318311 Z" id="Fill-42" fill="#D39F94"></path>
                <path d="M203.469231,148.362993 C201.711942,148.221411 199.952805,148.59881 198.410497,149.447383 L177.798767,147.000036 C175.570372,146.310512 173.288348,147.204134 171.020655,146.657572 C169.723378,146.345448 167.838489,144.95491 166.49313,142.53928 L156.124621,122.397849 C156.930449,124.105109 147.59107,116.848107 146.962311,116.743759 L136.651592,115.033282 C134.583161,114.6899 133.192494,117.079787 134.522596,118.691432 L161.910126,150.301932 C162.627651,151.171191 164.868066,154.645928 167.527346,153.894348 L200.291225,152.347517 L210,152.347517 L210,152.312122 C210,150.443055 208.604248,148.865426 206.740163,148.625931 L203.469231,148.362993 Z" id="Fill-44" fill="#A98079"></path>
                <path d="M162.186549,248 L160.656706,247.756184 L160.536537,247.737465 C160.314687,247.700027 160.097458,247.653697 159.889473,247.59286 C157.268866,246.801511 155.725158,243.947319 156.607937,241.227905 L157.458363,238.607702 L158.632321,234.989771 L159.958802,230.9048 L159.958802,230.90012 L163.411348,220.272363 L166.919356,209.466774 L166.919356,209.461626 L167.876086,206.518051 C169.022313,202.989504 166.424815,199.353791 162.750419,199.353791 L141.859511,199.353791 L105,199.353791 L105.559248,196.335339 L108.937844,178 L109.608017,178 L112.191649,178 L114.641246,178 L116.240418,178 L146.388955,178 L146.684756,178 L149.952427,178 L163.457567,178 L192.695594,178 L192.871225,178 C195.778389,178 198.227524,179.506886 199.656148,181.701698 C200.118336,182.413023 200.474221,183.198757 200.700694,184.027544 C201.149016,185.632237 201.112041,187.406338 200.464978,189.142064 L199.822536,190.850648 L193.712408,207.150287 L192.372062,210.729844 L181.986692,238.42987 L181.519882,239.664862 C178.820703,240.88675 176.158037,242.084303 173.524026,243.250033 C173.075703,243.446584 172.622759,243.647346 172.174436,243.839216 C169.193322,245.144872 166.244562,246.394371 163.305044,247.560102 L162.186549,248 Z" id="Fill-46" fill="#14374C"></path>
                <path d="M158.114751,126 L146,133.40575 L160.538997,152.259306 C162.59174,154.921597 165.646567,156.63363 168.996098,157 L192.347505,155.254326 C194.448363,155.022522 196.147648,153.525242 196.549222,151.330707 L196.963749,149.065202 C197.175639,147.90526 196.438188,146.783567 195.286208,146.513513 L173.269062,146.181245 C170.746273,145.590444 168.133732,143.956294 166.894776,141.688946 L158.114751,126 Z" id="Fill-48" fill="#DADADA"></path>
                <path d="M142.562345,109.285059 C144.177458,110.98073 147.842262,114.227283 152.804481,114.97349 C153.218751,115.035674 153.534193,115.392999 153.559464,115.822717 C153.606397,116.628323 153.806763,117.884065 154.562197,118.605212 C155.737768,119.72777 164.385098,129.311044 161.36291,137.944854 C158.340271,146.5782 149.188866,179.472529 149.188866,179.472529 L117.873996,180 C116.082435,180.025687 114.716877,178.359253 115.050369,176.548496 C117.337881,164.132609 120.581646,122.755288 123.067719,118.907314 C125.995591,114.374854 131.882924,110.845688 135.125785,110.716216 C137.789661,110.609947 140.228802,110.685588 141.220705,109.340282 C141.544269,108.901283 142.187336,108.891538 142.562345,109.285059" id="Fill-50" fill="#F9F9F9"></path>
                <path d="M200.147087,148.571332 C199.584153,148.521366 199.017093,148.58151 198.47708,148.749449 L163.246501,146.599546 C162.419979,146.429293 161.577412,146.371925 160.740804,146.261816 C159.270667,146.068431 157.847288,143.877352 157.072108,142.542163 L141.460322,117.948968 C141.208652,117.514546 140.773157,117.219379 140.280361,117.142581 C133.313368,116.061846 132.13249,121.410003 130.367592,123.579338 C129.875713,124.18355 129.879838,125.05517 130.365758,125.664009 L151.281866,152.478817 C152.795095,154.373805 155.337923,156.031918 157.703346,155.999533 C161.208846,155.950956 164.712055,155.790881 168.215722,155.922735 L199.39987,152.379812 L209,152.379812 C209,150.932663 207.904846,149.725164 206.476425,149.5984 L200.147087,148.571332 Z" id="Fill-52" fill="#D29F94"></path>
                <path d="M139.053541,122.668423 L130.560723,118 C130.560723,118 125.837573,125.570305 129.220376,129.922668 C132.026528,133.533276 146.347895,152.179447 151.148144,158.430005 C152.106642,159.678191 153.697905,160.249759 155.226211,159.89746 C156.858077,154.345536 158.586203,148.559205 160,144.041702 L139.053541,122.668423 Z" id="Fill-54" fill="#DADADA"></path>
                <path d="M141.550593,89.1571222 C140.181562,94.9202153 141.440901,100.572313 144.492033,104.535267 C146.462722,107.095018 149.180541,108.949969 152.420456,109.67441 C160.677014,111.520682 169.196738,105.327767 171.449425,95.8428949 C173.702583,86.3575663 168.83612,77.1718801 160.579562,75.3256075 C152.323475,73.4793348 143.803751,79.6717936 141.550593,89.1571222" id="Fill-56" fill="#D29F94"></path>
                <path d="M160.582672,75.3261043 C152.32445,73.4770143 143.803008,79.6789225 141.549867,89.1787253 C140.33124,94.315188 141.198594,99.3601569 143.553915,103.207014 L143.545439,103.201525 C143.545439,103.201525 143.657508,106.075345 142.275016,108.536529 C142.365895,108.584563 142.466192,108.637172 142.565076,108.688866 C143.899538,108.809181 148.712832,109.341217 152.528339,111 C152.965783,110.572266 153.594873,110.241059 154.472586,110.053496 L154.409018,110.013697 C153.746966,109.966577 153.083973,109.875541 152.421921,109.727321 C151.059677,109.422189 148.719895,109.083205 146.81991,107.330183 C146.430967,106.971527 146.560929,106.338848 147.062882,106.155403 C149.680011,105.200665 151.934565,103.476921 153.466795,101.20513 C154.446688,99.7526654 155.338997,98.2466772 156.140428,96.6940272 C157.223914,94.5942441 157.971665,92.3457837 158.380385,90.0305327 C158.727421,89.1691184 159.646099,88.6617852 160.585026,88.8159523 C163.397568,89.2770811 169.608421,90.677394 172,91.0776794 C171.945378,83.4525849 167.432504,76.8599981 160.582672,75.3261043" id="Fill-58" fill="#A98079"></path>
                <path d="M176,86.9590083 C176,86.3050298 175.787726,85.7028883 175.432247,85.2122888 L175.434549,85.2109003 C174.608935,84.0681736 174.200963,82.6741303 174.279703,81.263888 L174.274638,81.2657393 C174.278782,81.198629 174.284768,81.1324444 174.284768,81.0644084 C174.284768,79.4570006 173.227541,78.0981324 171.773392,77.6515017 C171.175709,77.4663698 170.599207,77.2317151 170.035597,76.9729933 C169.370226,76.5865304 168.78037,76.0727894 168.309775,75.448432 L168.307473,75.4516718 C167.927128,74.948113 167.411408,74.5560962 166.813264,74.3293096 L166.814645,74.3265327 C166.182427,74.0867868 165.61145,73.7216142 165.12566,73.2634127 C164.748078,72.8218731 164.386613,72.3650601 164.062446,71.8763119 L164.062446,71.8767747 C163.309586,70.7456188 162.028112,70 160.573043,70 C159.660862,70 158.819132,70.2957482 158.131197,70.7923646 L158.129816,70.7886619 C157.576797,71.1866955 156.993849,71.5328922 156.389258,71.8309546 C155.997863,71.9596212 155.587589,72.0350625 155.169947,72.0447819 L155.170407,72.0480217 C154.625677,72.0609809 154.117324,72.2174174 153.679422,72.4816932 L153.678041,72.4784534 C153.262701,72.7283815 152.814208,72.9070338 152.350981,73.0208899 C151.638181,73.1018851 150.916632,73.1227124 150.193242,73.0768923 L150.194623,73.0819834 C150.111279,73.0768923 150.028395,73.0690242 149.94413,73.0690242 C148.373024,73.0690242 147.018796,73.9868156 146.372764,75.3160627 L146.369541,75.3132857 C145.068267,77.9935329 142.886123,80.1406002 140.192404,81.3907034 L140.196548,81.3939432 C138.310944,82.2696171 137,84.1820297 137,86.4068524 C137,87.0608308 137.11926,87.6851882 137.32647,88.2678909 L137.321405,88.267428 C138.542558,91.6988479 138.548083,95.4486947 137.3366,98.8833544 L137.341205,98.8833544 C137.155177,99.4109803 137.048349,99.9760955 137.048349,100.568055 C137.048349,103.353364 141.136817,107 143.907895,107 C144.716011,107 146.205615,105.894763 146.227718,105.924846 C153.468069,104.598376 155.151989,95.124251 156.645277,89.9317639 C157.284402,87.7087925 159.52042,86.3591809 161.767489,86.8613512 C161.767489,86.8613512 172.841671,89.983138 173.416792,89.9090852 L173.415871,89.9067711 C174.872782,89.7211763 176,88.4733873 176,86.9590083" id="Fill-60" fill="#334E60"></path>
                <path d="M132.624914,115.922851 L132.624914,115.922851 C136.578019,113.928945 141.425772,115.263553 143.751949,118.985999 L158.316608,142.296578 C159.277319,143.834329 160.848419,144.906774 162.64888,145.254037 L193.746145,144.755332 C195.225128,145.040829 196.20631,146.429426 195.962992,147.892142 L195.231177,152.282121 C194.831074,154.684599 192.58957,156.35915 190.128475,156.094241 L157.169338,159 C154.605891,158.723653 152.269944,157.425647 150.707218,155.408407 L129.219391,127.676738 C126.681066,123.527876 128.243792,118.132709 132.624914,115.922851" id="Fill-62" fill="#F9F9F9"></path>
                <path d="M144.477542,117.067096 C142.135972,113.268915 137.255165,111.907154 133.275106,113.941626 C131.890025,114.64935 130.785988,115.678258 130,116.887364 C130.02061,116.878494 139.744751,112.768467 145.371263,121.492237 C149.471703,127.850081 155.190491,135.374549 158,139 L144.477542,117.067096 Z" id="Fill-64" fill="#FFFFFF"></path>
                <path d="M231.462048,158 L201.751526,158 C200.231767,158 199,156.748154 199,155.204661 C199,153.661167 200.231767,152.409321 201.751526,152.409321 L228.009341,152.409321 L240.770462,125.58012 C241.431287,124.189904 243.077616,123.607076 244.445125,124.279355 C245.813092,124.951168 246.386327,126.622315 245.725502,128.012531 L231.462048,158 Z" id="Fill-66" fill="#D0E2EC"></path>
                <path d="M203,230.631105 C203.988,230.18714 204.988,229.748261 206,229.317707 L206,229.14197 L206,226.843985 L206,205.505879 L206,197.430789 L206,196.732468 L206,164.887634 L206,162.468483 C206,160.554343 204.656,159 203,159 C201.344,159 200,160.554343 200,162.468483 L200,164.887634 L200,164.929256 L200,166.649161 L200,182.187963 L200,182.280456 L200,190.88738 L200,192.270149 L200,216.387203 L200,226.201159 L200,231.635116 L200,232 C200.664,231.690149 201.332,231.380298 202.0084,231.075071 L203,230.631105 Z" id="Fill-68" fill="#D0E2EC"></path>
                <path d="M203.453369,202 C202.462082,202 201.477697,201.576065 200.795209,200.755723 C199.57796,199.293054 199.780911,197.123827 201.248054,195.910749 L247.344766,157.792365 C248.811448,156.579745 250.987311,156.78116 252.205021,158.244287 C253.42181,159.706956 253.219318,161.876183 251.751716,163.089261 L205.655003,201.207186 C205.011173,201.740317 204.22974,202 203.453369,202" id="Fill-70" fill="#D0E2EC"></path>
                <path d="M315,157.122062 C314.91675,157.340812 314.838126,157.559562 314.750251,157.773937 C314.630001,158.102062 314.500502,158.425813 314.371465,158.75 C314.260003,159.020813 314.153628,159.292063 314.043091,159.563312 C313.917754,159.87875 313.788717,160.189375 313.654593,160.5 C313.562093,160.727062 313.464968,160.950187 313.362756,161.178125 C313.247132,161.444562 313.126882,161.711437 313.011258,161.982687 C312.821633,162.411438 312.627384,162.83625 312.42851,163.260188 C312.33601,163.461437 312.243511,163.658312 312.146386,163.859563 C312.127886,163.908125 312.104761,163.951437 312.081636,164 L189.699986,164 C187.655744,164 186,162.43375 186,160.5 C186,158.56625 187.655744,157 189.699986,157 L314.033379,157 C314.36684,157 314.690126,157.039375 314.995375,157.117687 L315,157.122062 Z" id="Fill-72" fill="#DBE7F3"></path>
                <mask id="mask-6" fill="white">
                    <use xlink:href="#path-5"></use>
                </mask>
                <g id="Clip-75"></g>
                <polygon id="Fill-74" fill="#B7CCD8" mask="url(#mask-6)" points="200 166 206 166 206 164 200 164"></polygon>
                <polygon id="Fill-76" fill="#B7CCD8" mask="url(#mask-6)" points="248.234947 166 238 166 239.764631 164 250 164"></polygon>
                <path d="M172,244.36951 C168.960855,245.643607 165.954694,246.862903 162.957956,248 L162.51033,246.84966 L161.426604,244.050301 L159.565422,239.263991 L158.194273,235.734425 L156.644074,231.747279 L149.486771,213.316265 L148.520841,210.827895 L146,204.338681 L155.150417,201 L158.967017,210.827895 L159.692642,212.686067 L161.059079,216.216547 L161.063791,216.216547 L163.066328,221.372299 L165.813338,228.445589 L171.56651,243.255703 L172,244.36951 Z" id="Fill-77" fill="#D0E2EC" mask="url(#mask-6)"></path>
                <path d="M126,203.35817 L124.376403,207.542218 L123.789446,209.058011 L123.467567,209.885266 L121.60256,214.68987 L115.306978,230.927228 L112.372195,238.487359 L107.520337,251 C104.39148,249.718466 101.409362,248.051094 99,245.892237 L112.291725,211.630725 L113.134292,209.462222 L113.139025,209.448902 L113.877454,207.542218 L116.80277,200 L126,203.35817 Z" id="Fill-78" fill="#D0E2EC" mask="url(#mask-6)"></path>
                <polygon id="Fill-79" fill="#D0E2EC" mask="url(#mask-6)" points="108 238 165 238 165 231 108 231"></polygon>
                <polygon id="Fill-80" fill="#B7CCD8" mask="url(#mask-6)" points="150.924013 212.307464 162 215 159.99692 210 150 210"></polygon>
                <polygon id="Fill-81" fill="#B7CCD8" mask="url(#mask-6)" points="113 211.430775 121.476222 214 124 208 114.443082 208"></polygon>
                <path d="M92.6885545,122.467931 L117.803576,175.363801 L157.367133,175.363801 C162.788179,175.363801 167.183459,179.743702 167.183459,185.146351 L167.183459,198.230032 L172.596143,198.230032 C175.580529,198.230032 178,200.64083 178,203.615088 C178,206.588884 175.580529,209 172.596143,209 L118.468837,209 C118.468837,209 91.0356208,209.331183 88.0428725,188.619252 C85.6749684,172.231199 82.3324002,143.866016 79.0999347,125.003274 C78.3826414,120.818292 81.6178943,117 85.8775201,117 C88.7689926,117 91.3515272,118.802426 92.3391992,121.510465 L92.6885545,122.467931 Z" id="Fill-82" fill="#DBE7F3" mask="url(#mask-6)"></path>
                <path d="M84.7610603,118 C81.1929194,118 78.4828601,121.760486 79.0837118,125.881155 C81.1345465,139.950608 83.2379167,159.38541 85,175 C80.7687429,137.735258 84.7610603,118 84.7610603,118" id="Fill-83" fill="#E6EFF7" mask="url(#mask-6)"></path>
                <path d="M115.801992,208.567735 C115.768132,208.567735 111.03339,208.568189 111,208.568189 C114.395396,209.026506 116.737372,209 116.737372,209 L171.529745,209 C174.550801,209 177,206.634538 177,203.716574 C177,200.798609 174.550801,198.433441 171.529745,198.433441 L166.050555,198.433441 L166.050555,185.59785 C166.050555,180.297457 161.60174,176 156.113615,176 L144.787948,176 C144.787948,176 150.947158,188.900546 141.521879,198.46342 C135.972147,204.094038 127.790278,208.567735 115.801992,208.567735" id="Fill-84" fill="#C3D6E5" mask="url(#mask-6)"></path>
                <path d="M300,183.554081 C299.661017,184.060655 299.3179,184.557934 298.966515,185.055214 C298.313353,185.984707 297.647788,186.900258 296.961141,187.806514 C295.443985,189.809573 293.852832,191.752214 292.190575,193.620497 C291.587019,194.299027 290.971062,194.97291 290.346838,195.63285 C290.231087,195.758332 290.11575,195.883813 290,196 L290,195.995353 L290.764365,160.948798 L291.045887,147.959126 L292.087226,100.224985 L292.136833,97.9663158 L292.34353,88.4761867 L292.550227,79 L297.721786,79 L297.846217,84.7768024 L297.928483,88.4761867 L298.13518,97.9663158 L298.38363,109.422324 L299.226953,147.959126 L299.508061,160.948798 L300,183.554081 Z" id="Fill-85" fill="#DBE7F3" mask="url(#mask-6)"></path>
                <path d="M300,182.30377 L300,182.308415 C299.881041,182.45706 299.762082,182.605704 299.643123,182.749703 C299.236679,183.256022 298.825279,183.753052 298.403965,184.250081 C297.620818,185.179108 296.8228,186.094199 296,187 L296,186.99071 L296.584387,160.155774 L296.86741,147.172626 L297.705081,108.65518 L297.873606,101 L299.078067,147.172626 L299.420074,160.155774 L300,182.30377 Z" id="Fill-86" fill="#C3D6E5" mask="url(#mask-6)"></path>
                <polygon id="Fill-87" fill="#DBE8F4" mask="url(#mask-6)" points="292 120 298 120 298 80 292 80"></polygon>
                <polygon id="Fill-88" fill="#DBE8F4" mask="url(#mask-6)" points="292 120 298 120 298 80 292 80"></polygon>
                <path d="M332,82.6277308 C332,83.1841118 331.405347,83.7222508 330.303165,84.2330268 C327.620774,85.4643619 321.913952,86.5041559 314.432391,87.1745495 L314.432391,87.17911 L314.427781,87.17911 C312.334972,87.3660905 310.103872,87.525708 307.757529,87.653402 C307.568531,87.662523 307.374923,87.6762045 307.181315,87.680765 C304.22142,87.835822 301.091887,87.936153 297.84158,87.981758 L297.611094,87.981758 C297.431776,87.981758 297.256607,87.9863185 297.076368,87.9863185 C296.224032,87.9954395 295.366165,88 294.499539,88 C293.448986,88 292.411801,87.9954395 291.383835,87.981758 L291.15335,87.981758 C285.372772,87.9042295 279.970191,87.644281 275.245237,87.2383965 C264.315612,86.2989334 257,84.5887459 257,82.6277308 C257,82.4772343 257.045636,82.3221773 257.138291,82.1716808 L259.428857,74.5191615 L270.455286,37.715925 L270.460356,37.715925 L273.967886,26 C283.777812,27.0990805 293.651813,27.4091946 303.498156,26.921221 C304.525661,26.875616 305.554087,26.82089 306.577443,26.747922 C309.255685,26.574623 311.933927,26.337477 314.60295,26.045605 L315.031192,26 L319.341733,40.3838176 L330.206361,76.648915 L331.861709,82.1716808 C331.949293,82.3221773 332,82.4772343 332,82.6277308" id="Fill-89" fill="#C3D6E5" mask="url(#mask-6)"></path>
                <path d="M291,145 L298,77.3623182 C298,77.3623182 293.612261,78.29128 291.990446,77 L291,145 Z" id="Fill-90" fill="#E6EFF7" mask="url(#mask-6)"></path>
                <path d="M332,82.6277308 C332,83.1841118 331.405347,83.7222508 330.303165,84.2330268 C327.620774,85.4643619 321.913952,86.5041559 314.432391,87.1745495 L314.427781,87.1745495 L314.427781,87.17911 C312.334972,87.3660905 310.103872,87.525708 307.757529,87.653402 C307.568531,87.662523 307.374923,87.6762045 307.181315,87.680765 C304.22142,87.835822 301.091887,87.936153 297.84158,87.981758 L297.611094,87.981758 C297.431776,87.981758 297.256607,87.9863185 297.076368,87.9863185 C296.224032,87.9954395 295.366165,88 294.499539,88 C293.448986,88 292.411801,87.9954395 291.383835,87.981758 L291.15335,87.981758 C285.372772,87.9042295 279.970191,87.644281 275.245237,87.2383965 C264.315612,86.2989334 257,84.5887459 257,82.6277308 C257,82.4772343 257.045636,82.3221773 257.138291,82.1716808 L259.428857,74.5191615 L270.455286,37.715925 L270.460356,37.715925 L273.967886,26 C273.967886,27.6235381 283.160111,28.9415226 294.499539,28.9415226 C297.404118,28.9415226 300.164874,28.8548731 302.668408,28.6952556 C304.06469,28.6131666 305.378918,28.5037146 306.595882,28.3760206 C307.457898,28.2848106 308.264597,28.1890401 309.01598,28.0795881 C312.731407,27.5460096 315.031192,26.811769 315.031192,26 L319.341733,40.3838176 L330.206361,76.648915 L331.861709,82.1716808 C331.949293,82.3221773 332,82.4772343 332,82.6277308" id="Fill-91" fill="#C3D6E5" mask="url(#mask-6)"></path>
                <path d="M72.5913349,130.198682 C66.7444697,135.249953 47.0687188,154.966082 38,198.092284 L41.9939694,201.280638 L46.6539797,205 C46.6539797,205 69.165071,173.087341 73.9885185,131.414592 C74.1091616,130.371063 73.254189,129.626082 72.5913349,130.198682" id="Fill-92" fill="#D0E2EC" mask="url(#mask-6)"></path>
                <path d="M49,181 L59.9463525,144 C59.9463525,144 61.006463,156.332416 53.7016739,181 L49,181 Z" id="Fill-93" fill="#C3D6E5" mask="url(#mask-6)"></path>
                <path d="M61,188 L60.9163039,188.465643 L60.3304313,191.641329 L54.2113178,225 C48.6455283,223.440096 43.5121686,221.991946 39.4575584,220.497231 C28.8095568,216.57186 20.6119905,205.815505 15.1577958,191.641329 C14.7532647,190.602945 14.3673328,189.541744 14,188.465643 L61,188 Z" id="Fill-94" fill="#DBE7F3" mask="url(#mask-6)"></path>
                <path d="M59.8534853,100.644655 C53.9687605,109.358654 37.9624825,137.369351 38,184.210144 L43.1731116,185.959662 L49.2086527,188 C49.2086527,188 66.4050781,146.537525 62.3932695,101.610525 C62.25209,100.028965 60.6721332,99.4321407 59.8534853,100.644655" id="Fill-95" fill="#DBE7F3" mask="url(#mask-6)"></path>
                <path d="M13.7074004,186.615385 C13.0982738,185.115769 12.5260639,183.577308 12,182 L66,182 L66,187 L13.7074004,186.615385 Z" id="Fill-96" fill="#DBE7F3" mask="url(#mask-6)"></path>
                <path d="M61,187 L60.4176826,190 L15.1599762,190 C14.7546833,189.019062 14.3680246,188.016569 14,187 L61,187 Z" id="Fill-97" fill="#C3D6E5" mask="url(#mask-6)"></path>
                <path d="M43.9350606,136 C43.9350606,136 46.3311743,157.831637 43.9350606,181 L41,181 L43.9350606,136 Z" id="Fill-98" fill="#C3D6E5" mask="url(#mask-6)"></path>
                <path d="M38,183.096359 L37.9349071,183.177978 L34.8615906,187 L27.0969332,185.726295 C25.4370633,184.447148 23.8794823,183.163921 22.4241902,181.876613 C19.8530193,179.604892 17.588715,177.324103 15.5940814,175.065985 C13.1949418,172.354431 11.1863597,169.674163 9.4985929,167.071434 C4.74215905,159.748876 2.50110224,153.056142 1.25968696,148.109142 C0.68779902,145.841956 0.32978787,143.9416 0.0322201612,142.513726 C-0.167708143,141.534302 0.599458606,140.69499 1.3201304,141.107618 C2.66383459,141.882995 3.97034281,142.712785 5.24895406,143.588373 C5.7185531,143.905325 6.18350264,144.232254 6.64380269,144.563263 C7.05295829,144.857997 7.45746439,145.152278 7.857321,145.461069 C8.62913725,146.036934 9.38235551,146.630937 10.1262748,147.238542 L10.1309243,147.238542 C10.4842859,147.528742 10.8283486,147.813954 11.1724113,148.109142 C16.4309906,152.556908 21.0060941,157.599583 24.8093814,162.446827 C31.2024377,170.576957 35.438128,178.153893 37.1444928,181.414107 C37.2328333,181.581879 37.3118747,181.736047 37.3862666,181.876613 C37.7954222,182.661059 38,183.096359 38,183.096359" id="Fill-99" fill="#D0E2EC" mask="url(#mask-6)"></path>
                <path d="M9,147 C9,147 9.46198434,159.430814 23.0330724,182 L28,182 L9,147 Z" id="Fill-100" fill="#C3D6E5" mask="url(#mask-6)"></path>
                <path d="M39,182.34532 L36.9572414,182.231361 L36.4269542,182.199453 L34.7945919,182.10783 L30.1372868,184 C28.0207491,181.397183 26.7711158,182.231361 25.2401997,180.891207 C25.0880303,180.759015 24.9358609,180.608133 24.7790803,180.426255 C24.5715767,180.193324 24.3594618,179.91572 24.1381245,179.578403 C16.5250446,167.999744 11.9046291,156.549174 9.10102365,146.945191 C9.01341098,146.653001 8.9304095,146.365825 8.85201922,146.078649 C8.84740803,146.074547 8.84740803,146.074547 8.85201922,146.069988 L8.84740803,146.069988 C8.14189548,143.581131 7.55627395,141.224465 7.07209867,139.027341 C6.95681884,138.512248 6.8507614,138.005815 6.74931515,137.509411 L6.74931515,137.504853 C5.75329743,132.672549 5.25528857,128.725475 5.01089533,126.026933 C4.86333715,124.449745 6.24669509,123.405883 7.21504565,124.372253 C7.43177173,124.591054 7.64849781,124.805296 7.86061269,125.028655 C8.98113263,126.168242 10.064763,127.339738 11.1161151,128.538583 C15.2385217,133.233681 18.8583083,138.343589 22.0077533,143.480391 C22.717877,144.634109 23.4003336,145.791929 24.0597342,146.945191 C30.6076285,158.363852 34.8499262,169.49944 37.0817437,176.141408 C37.6811988,177.919164 38.1330957,179.372821 38.4466568,180.426255 C38.4973799,180.5899 38.5434919,180.744884 38.5849926,180.891207 C38.8662754,181.830226 39,182.34532 39,182.34532" id="Fill-101" fill="#DBE7F3" mask="url(#mask-6)"></path>
                <path d="M32.2495499,83.3337562 C28.7909624,91.8977005 22.1659522,112.476567 23.0869068,142.737726 C23.4342801,154.1551 24.8555304,166.951221 27.9271705,181 L34.2580615,181 L42.6214039,181 C42.6214039,181 51.1816402,131.894144 35.82344,83.5407052 C35.2039331,81.5904503 33.0068335,81.4588801 32.2495499,83.3337562" id="Fill-102" fill="#D0E2EC" mask="url(#mask-6)"></path>
                <polygon id="Fill-103" fill="#DBE7F3" mask="url(#mask-6)" points="21 182 58 182 58 187 24.7324681 187"></polygon>
            </g>
        </g>
    </g>
</svg>