<?xml version="1.0" encoding="utf-8"?>
<svg version="1.1" xmlns="http://www.w3.org/2000/svg" xmlns:xlink="http://www.w3.org/1999/xlink" x="0px" y="0px"
	 viewBox="0 0 4626.98 1923.06" style="enable-background:new 0 0 4626.98 1923.06;" xml:space="preserve">
<style type="text/css">
	.st0{display:none;}
	.st1{display:inline;fill:#FAFBFC;}
	.st2{display:inline;}
	.st3{fill:#303F56;}
	.st4{fill:#F4F7F9;}
	.st5{fill:#FCFCFC;}
	.st6{opacity:0.2;fill:#EBEFF3;}
	.st7{fill:#EBEFF3;}
	.st8{fill:#E8EDF7;}
	.st9{opacity:0.1;}
	.st10{opacity:0.1;fill:#303F56;enable-background:new    ;}
	.st11{opacity:0.8;}
	.st12{opacity:0.1;enable-background:new    ;}
	.st13{opacity:0.1;fill:#303F56;}
	.st14{fill:#DCE4EF;}
	.st15{fill:none;stroke:#EBEFF3;stroke-width:24;stroke-linecap:round;stroke-linejoin:round;stroke-miterlimit:10;}
	.st16{fill:none;stroke:#EBEFF3;stroke-width:24;stroke-miterlimit:10;}
	.st17{fill:none;stroke:#E8EDF7;stroke-width:16;stroke-miterlimit:10;}
	.st18{fill:#A37A66;}
	.st19{fill:#94B0D5;}
	.st20{fill-rule:evenodd;clip-rule:evenodd;fill:#303F56;}
	.st21{opacity:0.1;fill:#1D1D1B;}
	.st22{fill-rule:evenodd;clip-rule:evenodd;fill:#293446;}
	.st23{fill:#293446;}
	.st24{fill:#FAFAFA;}
	.st25{fill:#B8CAE0;}
	.st26{fill:#FAFBFC;stroke:#989898;stroke-width:0.25;stroke-miterlimit:10;}
	.st27{fill:#EBEFF3;stroke:#989898;stroke-width:0.25;stroke-miterlimit:10;}
	.st28{fill:#FCFCFC;stroke:#989898;stroke-width:0.25;stroke-miterlimit:10;}
	.st29{fill:#DCE4EF;stroke:#989898;stroke-width:0.25;stroke-miterlimit:10;}
	.st30{fill:#E8EDF7;stroke:#989898;stroke-width:0.25;stroke-miterlimit:10;}
	.st31{fill:#F5F7F9;stroke:#989898;stroke-width:0.25;stroke-miterlimit:10;}
	.st32{fill:#F4F7F9;stroke:#989898;stroke-width:0.25;stroke-miterlimit:10;}
	.st33{fill:#FAFAFA;stroke:#989898;stroke-width:0.25;stroke-miterlimit:10;}
	.st34{fill:#A37A66;stroke:#989898;stroke-width:0.25;stroke-miterlimit:10;}
	.st35{fill:#303F56;stroke:#989898;stroke-width:0.25;stroke-miterlimit:10;}
	.st36{fill:#293446;stroke:#989898;stroke-width:0.25;stroke-miterlimit:10;}
	.st37{opacity:0.1;stroke:#989898;stroke-width:0.25;stroke-miterlimit:10;}
	.st38{fill:#94B0D5;stroke:#989898;stroke-width:0.25;stroke-miterlimit:10;}
	.st39{fill:none;stroke:#EBEFF3;stroke-width:7;stroke-linecap:round;stroke-linejoin:round;stroke-miterlimit:10;}
	.st40{fill:#F5F7F9;}
	.st41{fill-rule:evenodd;clip-rule:evenodd;fill:#A37A66;}
	.st42{opacity:0.1;fill-rule:evenodd;clip-rule:evenodd;fill:#1D1D1B;}
	.st43{fill:none;stroke:#DCE8F4;stroke-miterlimit:10;}
	.st44{fill:none;stroke:#EBEFF3;stroke-width:9;stroke-linecap:round;stroke-miterlimit:10;}
	.st45{fill:#FAFBFC;}
	.st46{fill:#D8B4A4;}
	.st47{fill:#CC9987;}
	.st48{fill:#765D50;}
	.st49{fill:#293445;}
	.st50{fill:#304056;}
	.st51{fill:#FFFFFF;}
	.st52{fill:#DBE4EF;}
	.st53{fill:#DCE4EF;stroke:#DCE4EF;stroke-width:24;stroke-linecap:round;stroke-miterlimit:10;}
</style>
<g id="Hintergrund" class="st0">
	<rect id="Hintergrundfarbe" x="2.06" y="-0.61" class="st1" width="4625.45" height="1921.5"/>
</g>
<g id="Scans" class="st0">
</g>
<g id="Versuche_1_" class="st0">
</g>
<g id="Farben" class="st0">
</g>
<g id="Stuff">
</g>
<g id="aktuell">
	<g id="Final">
		<g id="Background">
			<g id="Background_-_wall">
				<path class="st4" d="M4383.87,1221.41c-207.57-98.87-395.1-235.85-549.3-401.24c-137.04-146.98-255.73-322.02-442.64-405.06
					c-174.5-77.52-376.25-60.22-568.72-62.36c-189.59-2.11-378.93-24.75-563.2-67.35c-150.08-34.7-300.76-83-454.8-72.62
					c-150.67,10.15-296.05,79.22-395.35,187.83c-76.8,84-130.83,148.21-219.66,220.6c-96.42,78.57-225.06,93.1-351.63,100.46
					c-85.21,4.96-174.09,14.46-257.86,30.14c-83.77,15.68-163.2,97.61-208.01,166.94c-35.25,54.53-43.18,122.69-82.09,174.91
					c-45.47,61.03-124.04,89.1-189.24,130.79s-123.13,117.69-93.32,186.96l4618.94,2.23
					C4592.22,1315.83,4480.71,1267.54,4383.87,1221.41z"/>
			</g>
			<g id="Window_1_">
				<path id="White" class="st5" d="M3414.9,491.22v578.2H1172.69v-578.2c0,0,386.1-122.75,614.89-288.99
					C2016.38,36,2139.36,0,2293.79,0c154.44,0,277.42,36,506.22,202.23C3028.8,368.47,3414.9,491.22,3414.9,491.22z"/>
				<path id="shadow" class="st6" d="M1172.69,880.01v189.41H3414.9v-578.2c0,0-152.39-48.45-322.42-125.69
					C2895.37,583.24,2422.88,855.71,1172.69,880.01z"/>
				<path id="inframe" class="st7" d="M2779.47,496.88h-463.75c-2.72,0-4.92-2.2-4.92-4.92V34.52c0-2.68-2.15-4.88-4.84-4.92
					c-4.03-0.06-8.09-0.09-12.17-0.09c-4.22,0-8.41,0.03-12.59,0.09c-2.68,0.04-4.83,2.24-4.83,4.92v457.44
					c0,2.72-2.2,4.92-4.92,4.92h-461.47c-2.72,0-4.92-2.2-4.92-4.92V244.1c0-3.94-4.39-6.28-7.66-4.08
					c-7.95,5.36-16.11,10.74-24.5,16.11c-1.41,0.9-2.27,2.46-2.27,4.14v764.89c0,2.72,2.2,4.92,4.92,4.92h24.59
					c2.72,0,4.92-2.2,4.92-4.92V536.22c0-2.72,2.2-4.92,4.92-4.92h969.48c2.72,0,4.92,2.2,4.92,4.92v488.94
					c0,2.72,2.2,4.92,4.92,4.92h24.59c2.72,0,4.92-2.2,4.92-4.92V261.47c0-1.68-0.86-3.24-2.28-4.14
					c-8.38-5.36-16.55-10.71-24.5-16.05c-3.27-2.2-7.65,0.15-7.65,4.08v246.6C2784.38,494.68,2782.18,496.88,2779.47,496.88z"/>
				<path id="Frame" class="st7" d="M2293.79,68.85c136.29,0,245.75,29.24,465.74,189.08c55.09,40.02,122.97,80.7,201.78,120.91
					c62.15,31.71,131.37,63.3,205.74,93.89c73.72,30.33,137.34,53.46,178.33,67.73c0.4,0.14,0.65,0.51,0.65,0.93v458.2
					c0,0.54-0.44,0.98-0.98,0.98H1242.52c-0.54,0-0.98-0.44-0.98-0.98v-458.2c0-0.42,0.26-0.79,0.65-0.93
					c40.99-14.26,104.61-37.4,178.33-67.73c74.37-30.59,143.59-62.18,205.74-93.89c78.8-40.21,146.69-80.89,201.78-120.91
					C2048.04,98.1,2157.5,68.85,2293.79,68.85 M2293.79,0c-154.44,0-277.42,36-506.21,202.23
					c-228.8,166.23-614.89,288.99-614.89,288.99h0h0v577.22c0,0.54,0.44,0.98,0.98,0.98h2240.24c0.54,0,0.98-0.44,0.98-0.98V491.22
					h0h0c0,0-386.09-122.75-614.89-288.99C2571.21,36,2448.23,0,2293.79,0L2293.79,0z M1172.69,491.22L1172.69,491.22
					L1172.69,491.22z M1172.69,491.22L1172.69,491.22L1172.69,491.22z"/>
			</g>
			<rect id="Shelf_under_window" x="1170.94" y="1118.96" class="st7" width="2245.57" height="292.58"/>
			<g id="Shelf">
				<g id="Boxes">
					<g>
						<path class="st7" d="M683.98,1206.92h243.18c2.21,0,4,1.79,4,4v147.61c0,2.21-1.79,4-4,4H683.98c-2.21,0-4-1.79-4-4v-147.61
							C679.98,1208.72,681.77,1206.92,683.98,1206.92z"/>
						<path class="st7" d="M676.38,1174.31h257.39c2.21,0,4,1.79,4,4v43.27c0,2.21-1.79,4-4,4H676.38c-2.21,0-4-1.79-4-4v-43.27
							C672.38,1176.1,674.17,1174.31,676.38,1174.31z"/>
					</g>
					<g>
						<path class="st7" d="M458.53,1206.92h183.09c2.21,0,4,1.79,4,4v147.61c0,2.21-1.79,4-4,4H458.53c-2.21,0-4-1.79-4-4v-147.61
							C454.53,1208.72,456.32,1206.92,458.53,1206.92z"/>
						<path class="st7" d="M452.75,1174.31h193.91c2.21,0,4,1.79,4,4v43.27c0,2.21-1.79,4-4,4H452.75c-2.21,0-4-1.79-4-4v-43.27
							C448.75,1176.1,450.54,1174.31,452.75,1174.31z"/>
					</g>
				</g>
				<g id="Books_-_down">
					<g>
						<path class="st7" d="M783.47,1120.83h-46.31c-1.1,0-2-0.9-2-2V979.32c0-1.1,0.9-2,2-2h46.31c1.1,0,2,0.9,2,2v139.51
							C785.47,1119.93,784.58,1120.83,783.47,1120.83z"/>
					</g>
					<g>
						<path class="st7" d="M834.41,1120.83H788.1c-1.1,0-2-0.9-2-2V973.2c0-1.1,0.9-2,2-2h46.31c1.1,0,2,0.9,2,2v145.63
							C836.41,1119.93,835.52,1120.83,834.41,1120.83z"/>
					</g>
					<g>
						<path class="st7" d="M885.35,1120.83h-46.31c-1.1,0-2-0.9-2-2V981.99c0-1.1,0.9-2,2-2h46.31c1.1,0,2,0.9,2,2v136.84
							C887.35,1119.93,886.45,1120.83,885.35,1120.83z"/>
					</g>
					<g>
						<path class="st7" d="M936.29,1120.83h-46.31c-1.1,0-2-0.9-2-2V975.66c0-1.1,0.9-2,2-2h46.31c1.1,0,2,0.9,2,2v143.17
							C938.29,1119.93,937.39,1120.83,936.29,1120.83z"/>
					</g>
					<g>
						<g>
							<path class="st7" d="M686.53,1120.83h46.31c1.1,0,2-0.9,2-2V979.32c0-1.1-0.9-2-2-2h-46.31c-1.1,0-2,0.9-2,2v139.51
								C684.53,1119.93,685.43,1120.83,686.53,1120.83z"/>
						</g>
						<g>
							<path class="st7" d="M635.6,1120.83h46.31c1.1,0,2-0.9,2-2V973.2c0-1.1-0.9-2-2-2H635.6c-1.1,0-2,0.9-2,2v145.63
								C633.6,1119.93,634.49,1120.83,635.6,1120.83z"/>
						</g>
					</g>
				</g>
				<g id="Plant_6_-_cactus_1_">
					<g>
						<ellipse class="st5" cx="900.19" cy="773.62" rx="27.91" ry="43.27"/>
						<path class="st7" d="M924.66,869.19h-50.43c-0.66,0-1.22-0.49-1.31-1.14l-12.9-90.75c-0.11-0.8,0.51-1.51,1.31-1.51h76.23
							c0.81,0,1.43,0.71,1.31,1.51l-12.9,90.75C925.89,868.7,925.33,869.19,924.66,869.19z"/>
					</g>
					<g>
						<ellipse class="st5" cx="801.87" cy="773.62" rx="27.91" ry="43.27"/>
						<path class="st7" d="M826.34,869.19h-50.43c-0.66,0-1.22-0.49-1.31-1.14l-12.9-90.75c-0.11-0.8,0.51-1.51,1.31-1.51h76.23
							c0.81,0,1.43,0.71,1.31,1.51l-12.9,90.75C827.56,868.7,827,869.19,826.34,869.19z"/>
					</g>
				</g>
				<g id="Books_-_middle">
					<g>
						<path class="st7" d="M571.02,870.29H546.4c-1.1,0-2-0.9-2-2V728.79c0-1.1,0.9-2,2-2h24.61c1.1,0,2,0.9,2,2v139.51
							C573.02,869.4,572.12,870.29,571.02,870.29z"/>
					</g>
					<g>
						<path class="st7" d="M599.79,870.29h-24.61c-1.1,0-2-0.9-2-2V733.65c0-1.1,0.9-2,2-2h24.61c1.1,0,2,0.9,2,2v134.65
							C601.79,869.4,600.9,870.29,599.79,870.29z"/>
					</g>
					<g>
						<path class="st7" d="M628.57,870.29h-24.61c-1.1,0-2-0.9-2-2V724.64c0-1.1,0.9-2,2-2h24.61c1.1,0,2,0.9,2,2v143.65
							C630.57,869.4,629.67,870.29,628.57,870.29z"/>
					</g>
					<g>
						<path class="st7" d="M484.68,870.29h-24.61c-1.1,0-2-0.9-2-2V728.79c0-1.1,0.9-2,2-2h24.61c1.1,0,2,0.9,2,2v139.51
							C486.68,869.4,485.78,870.29,484.68,870.29z"/>
					</g>
					<g>
						<path class="st7" d="M513.45,870.29h-24.61c-1.1,0-2-0.9-2-2V733.65c0-1.1,0.9-2,2-2h24.61c1.1,0,2,0.9,2,2v134.65
							C515.45,869.4,514.56,870.29,513.45,870.29z"/>
					</g>
					<g>
						<path class="st7" d="M542.23,870.29h-24.61c-1.1,0-2-0.9-2-2V724.64c0-1.1,0.9-2,2-2h24.61c1.1,0,2,0.9,2,2v143.65
							C544.23,869.4,543.34,870.29,542.23,870.29z"/>
					</g>
					<g>
						<path class="st7" d="M698.94,864.66l-23.2,5.6c-1.21,0.29-2.46-0.33-2.8-1.4l-42.03-134.52c-0.33-1.07,0.38-2.17,1.59-2.46
							l23.2-5.6c1.21-0.29,2.46,0.33,2.8,1.4l42.03,134.52C700.86,863.27,700.15,864.37,698.94,864.66z"/>
					</g>
				</g>
				<g id="Vinyl_1_">
					<path class="st7" d="M600.65,621.11H452.57c-1.1,0-2-0.9-2-2V471.03c0-1.1,0.9-2,2-2h148.08c1.1,0,2,0.9,2,2v148.08
						C602.65,620.21,601.75,621.11,600.65,621.11z"/>
					<circle class="st5" cx="526.61" cy="545.07" r="68.06"/>
					<circle class="st7" cx="526.61" cy="545.07" r="19.67"/>
				</g>
				<g id="Books_-_top">
					<g>
						<path class="st7" d="M795.86,619.97h29.78c1.1,0,2-0.9,2-2V509.26c0-1.1-0.9-2-2-2h-29.78c-1.1,0-2,0.9-2,2v108.71
							C793.86,619.07,794.75,619.97,795.86,619.97z"/>
					</g>
					<g>
						<path class="st7" d="M762.4,619.97h29.78c1.1,0,2-0.9,2-2v-91.86c0-1.1-0.9-2-2-2H762.4c-1.1,0-2,0.9-2,2v91.86
							C760.4,619.07,761.3,619.97,762.4,619.97z"/>
					</g>
					<g>
						<path class="st7" d="M728.95,619.97h29.78c1.1,0,2-0.9,2-2V506c0-1.1-0.9-2-2-2h-29.78c-1.1,0-2,0.9-2,2v111.97
							C726.95,619.07,727.84,619.97,728.95,619.97z"/>
					</g>
					<g>
						<path class="st7" d="M896.22,619.97H926c1.1,0,2-0.9,2-2V509.26c0-1.1-0.9-2-2-2h-29.78c-1.1,0-2,0.9-2,2v108.71
							C894.22,619.07,895.12,619.97,896.22,619.97z"/>
					</g>
					<g>
						<path class="st7" d="M862.77,619.97h29.78c1.1,0,2-0.9,2-2v-91.86c0-1.1-0.9-2-2-2h-29.78c-1.1,0-2,0.9-2,2v91.86
							C860.77,619.07,861.66,619.97,862.77,619.97z"/>
					</g>
					<g>
						<path class="st7" d="M829.31,619.97h29.78c1.1,0,2-0.9,2-2V506c0-1.1-0.9-2-2-2h-29.78c-1.1,0-2,0.9-2,2v111.97
							C827.31,619.07,828.21,619.97,829.31,619.97z"/>
					</g>
					<g>
						<path class="st7" d="M628.58,619.97h29.78c1.1,0,2-0.9,2-2v-95.22c0-1.1-0.9-2-2-2h-29.78c-1.1,0-2,0.9-2,2v95.22
							C626.58,619.07,627.48,619.97,628.58,619.97z"/>
					</g>
					<g>
						<path class="st7" d="M695.49,619.97h29.78c1.1,0,2-0.9,2-2V513.07c0-1.1-0.9-2-2-2h-29.78c-1.1,0-2,0.9-2,2v104.89
							C693.49,619.07,694.39,619.97,695.49,619.97z"/>
					</g>
					<g>
						<path class="st7" d="M662.04,619.97h29.78c1.1,0,2-0.9,2-2V506c0-1.1-0.9-2-2-2h-29.78c-1.1,0-2,0.9-2,2v111.97
							C660.04,619.07,660.93,619.97,662.04,619.97z"/>
					</g>
				</g>
				<path id="Shelf_1_" class="st7" d="M378.75,363.35v1048.18h630.7V363.35H378.75z M959.45,413.35V620.3h-530.7V413.35H959.45z
					 M428.75,870.21V650.3h530.7v219.91H428.75z M959.45,900.21v219.91h-530.7V900.21H959.45z M428.75,1361.54v-211.42h530.7v211.42
					H428.75z"/>
			</g>
			<g id="Frames_1_">
				<g>
					
						<rect x="3392.1" y="993.16" transform="matrix(4.489504e-11 -1 1 4.489504e-11 2469.4888 4803.1689)" class="st7" width="488.47" height="347.35"/>
					
						<rect x="3416.41" y="1017.47" transform="matrix(4.492413e-11 -1 1 4.492413e-11 2469.4888 4803.1689)" class="st5" width="439.85" height="298.73"/>
				</g>
				<g>
					
						<rect x="3661.76" y="1122.01" transform="matrix(4.488993e-11 -1 1 4.488993e-11 2573.7217 5072.8354)" class="st7" width="323.03" height="255.1"/>
					
						<rect x="3677.84" y="1139.86" transform="matrix(4.489948e-11 -1 1 4.489948e-11 2573.7217 5072.8354)" class="st5" width="290.88" height="219.39"/>
				</g>
			</g>
			<g id="Lamp">
				<path class="st7" d="M4074.91,219.05h-382.84c-4.08,0-7.55,3.4-8.18,8.01l-35.83,262.65c-0.78,5.75,3.1,10.94,8.18,10.94h454.5
					c5.08,0,8.97-5.19,8.18-10.94l-35.83-262.65C4082.46,222.45,4078.99,219.05,4074.91,219.05z"/>
				<g>
					<line class="st15" x1="3932.89" y1="569.56" x2="4062.89" y2="1399.7"/>
					<line class="st15" x1="3834.1" y1="569.56" x2="3704.1" y2="1399.7"/>
					<line class="st16" x1="3883.93" y1="449.56" x2="3883.93" y2="1399.7"/>
				</g>
				<line class="st15" x1="3834.65" y1="569.56" x2="3932.89" y2="569.56"/>
			</g>
			<g id="Plantpot_2_">
				<path class="st7" d="M1446.85,943.36l3.09-15.24c0.21-1.06-0.59-2.05-1.67-2.05h-94.17c-1.08,0-1.89,0.99-1.67,2.05l3.09,15.24
					c2.55,15.68-2.73,31.57-13.99,42.78c-15.39,15.32-24.92,36.52-24.92,59.95v0c0,30.72,16.37,57.61,40.87,72.42h87.43
					c24.49-14.82,40.87-41.71,40.87-72.42v0c0-23.43-9.53-44.63-24.92-59.95C1449.58,974.93,1444.3,959.05,1446.85,943.36z"/>
				<path class="st5" d="M1512.71,1013.19l1.86-9.16c0.13-0.64-0.36-1.23-1.01-1.23h-56.63c-0.65,0-1.14,0.6-1.01,1.23l1.86,9.16
					c1.53,9.43-1.64,18.98-8.41,25.72c-9.26,9.21-14.99,21.96-14.99,36.05v0c0,18.47,9.85,34.64,24.57,43.55h52.57
					c14.73-8.91,24.57-25.08,24.57-43.55v0c0-14.09-5.73-26.84-14.99-36.05C1514.34,1032.18,1511.17,1022.62,1512.71,1013.19z"/>
			</g>
			<g id="Decoplant_1_">
				<g>
					<g>
						<path class="st44" d="M2581.46,1078.95c0,0,6.29-184.02-102.87-241.74"/>
						<path class="st44" d="M2563.86,1067.59c-0.57-1.71-29.72-135.44,122.87-172.02"/>
					</g>
					<path class="st5" d="M2592.64,985.38v-8.39h-39.77v8.39c0,15.81-8.16,30.37-21.36,39.08c-13.21,8.72-21.93,23.7-21.93,40.72
						v53.73h126.35v-53.73c0-17.02-8.72-32-21.93-40.72C2600.8,1015.75,2592.64,1001.19,2592.64,985.38z"/>
					<g>
						<g>
							<path class="st7" d="M2530.84,999.46c1.93,0,1.93-3,0-3C2528.91,996.46,2528.91,999.46,2530.84,999.46L2530.84,999.46z"/>
						</g>
					</g>
					<g>
						<g>
							<path class="st7" d="M2381.78,988.05c0.54,0,1.64-0.21,1.93-0.74c0.3-0.55-0.26-0.67-0.74-0.67c-0.54,0-1.64,0.21-1.93,0.74
								C2380.75,987.94,2381.3,988.05,2381.78,988.05L2381.78,988.05z"/>
						</g>
					</g>
				</g>
				<g>
					<g>
						<path class="st7" d="M2519.32,861.98c-1.02-15.99-10.59-29.44-22.51-39.49c-1.8-1.52-4.62-1.89-6.36,0
							c-1.53,1.67-1.92,4.74,0,6.36c2.65,2.23,5.19,4.59,7.54,7.14c1.17,1.27,2.29,2.59,3.37,3.94c-0.51-0.64,0.33,0.44,0.34,0.46
							c0.26,0.35,0.51,0.7,0.76,1.05c0.5,0.71,0.98,1.42,1.44,2.15c0.95,1.49,1.82,3.02,2.61,4.6c0.39,0.79,0.77,1.59,1.11,2.41
							c-0.29-0.7,0.17,0.45,0.21,0.56c0.16,0.41,0.31,0.83,0.46,1.24c0.56,1.59,1.02,3.22,1.38,4.87c0.19,0.86,0.34,1.73,0.48,2.6
							c0.05,0.33,0.04,0.29-0.01-0.11c0.03,0.22,0.05,0.44,0.07,0.66c0.05,0.51,0.09,1.02,0.12,1.54c0.15,2.34,1.96,4.61,4.5,4.5
							C2517.13,866.37,2519.48,864.49,2519.32,861.98L2519.32,861.98z"/>
					</g>
				</g>
				<g>
					<g>
						<path class="st7" d="M2547.68,878.33c1.2,3.73,2.4,7.47,3.26,11.3c0.22,0.99,0.42,1.99,0.59,2.99
							c0.03,0.16,0.24,1.64,0.14,0.88c0.06,0.46,0.11,0.93,0.15,1.39c0.17,1.94,0.19,3.88,0.08,5.82
							c-0.47,8.04-2.63,15.89-0.53,23.9c0.6,2.28,3.24,3.89,5.54,3.14c2.34-0.76,3.78-3.1,3.14-5.54c-0.14-0.52-0.26-1.04-0.36-1.56
							c-0.05-0.22-0.09-0.45-0.12-0.67c0.04,0.37,0.04,0.39,0,0.07c-0.11-0.98-0.17-1.96-0.18-2.95c-0.02-1.84,0.11-3.68,0.3-5.51
							c0.41-3.94,1.1-7.85,1.26-11.81c0.32-8.2-2.1-16.13-4.58-23.85c-0.72-2.24-3.15-3.91-5.54-3.14
							C2548.58,873.52,2546.91,875.93,2547.68,878.33L2547.68,878.33z"/>
					</g>
				</g>
				<g>
					<g>
						<path class="st7" d="M2526.35,875.94c-0.16-0.02-1.54-0.17-1.11-0.12c0.47,0.06-0.75-0.11-0.89-0.13
							c-0.92-0.15-1.84-0.31-2.75-0.51c-1.68-0.35-3.35-0.78-5-1.29c-1.78-0.55-3.55-1.17-5.26-1.89c0.79,0.34-0.47-0.22-0.5-0.23
							c-0.39-0.18-0.78-0.36-1.17-0.54c-0.84-0.4-1.67-0.83-2.49-1.27c-6.37-3.44-12.11-9.72-19.86-9.48
							c-2.35,0.07-4.61,2.02-4.5,4.5c0.11,2.37,1.98,4.58,4.5,4.5c0.14,0,1.56,0.01,0.99-0.02c-0.56-0.03,0.6,0.12,0.75,0.16
							c0.45,0.11,0.88,0.26,1.32,0.41c0.89,0.3-0.51-0.32,0.39,0.18c1.44,0.81,2.84,1.64,4.2,2.59c2.98,2.08,5.94,4.09,9.19,5.72
							c6.99,3.51,14.43,5.61,22.2,6.42c2.35,0.24,4.6-2.24,4.5-4.5C2530.73,877.79,2528.87,876.2,2526.35,875.94L2526.35,875.94z"/>
					</g>
				</g>
				<g>
					<g>
						<path class="st7" d="M2565.58,940.23c-4.8-6.56-11.49-10.94-18.72-14.46c-6.79-3.32-13.96-6.03-20.26-10.25
							c-0.39-0.26-0.79-0.53-1.17-0.81c-0.17-0.12-0.34-0.25-0.51-0.37c-0.82-0.59,0.2,0.18-0.09-0.06
							c-0.76-0.64-1.53-1.26-2.26-1.94c-0.76-0.72-1.49-1.47-2.17-2.26c-0.14-0.16-0.27-0.32-0.41-0.48
							c-0.09-0.11-0.64-0.84-0.24-0.29c0.43,0.6-0.18-0.26-0.22-0.31c-0.19-0.26-0.37-0.53-0.54-0.79
							c-1.31-1.95-4.03-2.99-6.16-1.61c-1.95,1.25-3.02,4.07-1.61,6.16c4.49,6.71,11.12,11.23,18.25,14.78
							c6.79,3.39,13.97,6.07,20.38,10.18c0.85,0.54,1.68,1.12,2.5,1.71c0.13,0.09,0.69,0.5,0.18,0.13c-0.56-0.4,0.18,0.14,0.29,0.23
							c0.41,0.33,0.81,0.67,1.21,1.02c0.79,0.7,1.54,1.43,2.26,2.2c0.32,0.35,0.64,0.71,0.95,1.07c0.16,0.19,0.39,0.4,0.5,0.62
							c-0.31-0.6-0.26-0.35,0.07,0.11c1.39,1.89,3.97,3.02,6.16,1.61C2565.84,945.18,2567.07,942.26,2565.58,940.23L2565.58,940.23z
							"/>
					</g>
				</g>
				<g>
					<g>
						<path class="st7" d="M2656.14,905.86c-0.01-0.64,0-1.27,0.04-1.91c0.02-0.38,0.07-0.76,0.1-1.14
							c-0.06,0.64-0.05,0.32,0.03-0.13c0.23-1.32,0.58-2.62,1.04-3.88c0.09-0.24,0.18-0.48,0.27-0.71
							c-0.36,0.95,0.11-0.21,0.16-0.32c0.28-0.57,0.58-1.14,0.9-1.69c0.32-0.55,0.68-1.08,1.04-1.6c0.7-1.02-0.57,0.64,0.23-0.3
							c0.2-0.24,0.4-0.47,0.61-0.71c0.82-0.91,1.72-1.72,2.65-2.51c0.41-0.34-0.59,0.41,0.11-0.07c0.3-0.21,0.6-0.42,0.91-0.62
							c0.51-0.33,1.04-0.64,1.57-0.93c0.54-0.29,1.09-0.54,1.64-0.8c-0.88,0.41-0.09,0.05,0.11-0.03c0.29-0.11,0.57-0.21,0.86-0.3
							c1.28-0.42,2.58-0.71,3.91-0.91c2.34-0.34,3.83-3.42,3.14-5.54c-0.83-2.55-3.03-3.51-5.54-3.14
							c-13.2,1.93-22.99,14.04-22.8,27.24c0.03,2.35,2.05,4.61,4.5,4.5C2654.05,910.25,2656.18,908.38,2656.14,905.86
							L2656.14,905.86z"/>
					</g>
				</g>
				<g>
					<g>
						<path class="st7" d="M2621.05,925.42c2.86,2.29,6.17,3.07,9.8,2.72c3.61-0.35,7.16-1.11,10.69-1.89
							c1.64-0.36,3.27-0.72,4.92-1.02c0.83-0.15,1.66-0.3,2.49-0.41c-0.65,0.09,0.11,0,0.37-0.03c0.37-0.04,0.75-0.07,1.13-0.1
							c1.65-0.12,3.3-0.15,4.95-0.01c0.1,0.01,1.24,0.15,0.73,0.07c-0.51-0.08,0.62,0.12,0.72,0.14c0.88,0.18,1.74,0.41,2.59,0.69
							c2.24,0.73,5.01-0.85,5.54-3.14c0.56-2.47-0.75-4.75-3.14-5.54c-6.47-2.12-13.35-1.29-19.88,0.06
							c-3.12,0.64-6.23,1.41-9.38,1.93c0.01,0-1.44,0.22-0.7,0.12c-0.28,0.04-0.57,0.07-0.85,0.1c-0.7,0.07-1.4,0.12-2.11,0.11
							c-0.32-0.01-0.63-0.03-0.95-0.05c0.62,0.04,0.37,0.06-0.1-0.06c-0.44-0.11-0.7-0.24-0.14,0.03c-0.22-0.1-1.09-0.7-0.33-0.09
							c-1.84-1.47-4.59-1.93-6.36,0C2619.55,920.68,2619.09,923.85,2621.05,925.42L2621.05,925.42z"/>
					</g>
				</g>
				<g>
					<g>
						<path class="st7" d="M2611.66,930.4c-0.26-1.45-0.53-2.91-0.77-4.37c-0.11-0.65-0.21-1.3-0.3-1.95
							c-0.07-0.52-0.09-0.65-0.06-0.38c0.02,0.19,0.02,0.15-0.02-0.13c-0.04-0.33-0.08-0.65-0.12-0.98
							c-0.32-2.86-0.45-5.75-0.21-8.62c0.02-0.27,0.06-0.54,0.08-0.82c0.05-0.71-0.12,0.68,0-0.02c0.1-0.61,0.2-1.21,0.33-1.82
							c0.26-1.2,0.6-2.39,1.02-3.54c0.09-0.25,0.19-0.51,0.29-0.76c-0.25,0.6-0.02,0.08,0.12-0.22c0.23-0.49,0.49-0.96,0.76-1.43
							c0.31-0.53,0.64-1.03,0.98-1.53c0.46-0.67-0.17,0.14,0.16-0.21c0.23-0.24,0.44-0.51,0.67-0.76c1.59-1.74,1.85-4.67,0-6.36
							c-1.73-1.59-4.67-1.86-6.36,0c-4.25,4.66-6.3,10.48-6.98,16.67c-0.72,6.56,0.55,13.2,1.71,19.63
							c0.42,2.32,3.37,3.85,5.54,3.14C2611,935.13,2612.11,932.89,2611.66,930.4L2611.66,930.4z"/>
					</g>
				</g>
				<g>
					<g>
						<path class="st7" d="M2595.94,953.21c0.21-0.14,0.44-0.27,0.67-0.38c-0.49,0.21-0.49,0.23,0,0.07c0.52-0.1,0.5-0.11-0.05-0.02
							c0.13-0.01,0.26-0.01,0.39-0.02c0.22,0.01,1.82,0.19,0.74-0.01c0.44,0.08,0.88,0.18,1.32,0.3c2.11,0.57,4.12,1.41,6.26,1.87
							c4.74,1,9.52,0.96,14.25-0.06c2.3-0.5,3.86-3.31,3.14-5.54c-0.79-2.43-3.07-3.68-5.54-3.14c-0.59,0.13-1.18,0.24-1.77,0.34
							c0.83-0.13-0.88,0.08-1.04,0.1c-1.05,0.08-2.1,0.1-3.15,0.05c-0.6-0.02-1.2-0.08-1.8-0.13c-0.96-0.08,0.44,0.12-0.59-0.08
							c-1.11-0.22-2.21-0.44-3.29-0.77c-2.34-0.7-4.52-1.56-6.97-1.83c-2.45-0.27-4.99,0.18-7.1,1.48c-2,1.23-2.95,4.08-1.61,6.16
							C2591.07,953.61,2593.79,954.53,2595.94,953.21L2595.94,953.21z"/>
					</g>
				</g>
			</g>
		</g>
		<g id="Front_1_">
			<g id="Plant">
				<ellipse class="st4" cx="434.62" cy="1902.88" rx="188.1" ry="11.5"/>
				<g>
					<path class="st14" d="M476.06,1335.39c-30.32-36.72-45.66-82.62-49.02-108.85c-2.9-22.63,16.4-58.27-32.14-150.96
						c-9.2,11.78-23.43,23.3-45.42,30.55c-2.46,0.81,8.32-35.5,17.48-78.15c-0.27-0.43-0.54-0.85-0.82-1.28
						c-14.54-22.47-25.66-40.83-34.27-56.08c-8.54,15.03-21.63,32.6-41.67,51.92c-5.96,5.75,5.52-76.96,4.92-141.7
						c-2.57-7.34-6.16-15.37-12.53-26.07c-29.47-49.5-111.22-29.52-132.23-20.3c-12.27,5.39-50.04,36.71-74.23,93.03
						c18.65,24.64,57.78,72.48,91.95,88.98c0,0-54.12-17.52-107.95-37.24c-3.1,15.65-4.99,32.53-5.22,50.64
						c32.27,22.37,91.89,57.81,152.25,60.59c0,0-39.48,7.33-147.24-0.8c26.33,152.84,110.12,198.18,156.09,242.65
						c46.41,44.9,49.47,22.1,83.73,151.32c34.26,129.22,114.51,75.51,114.51,75.51l2.14-3.15
						C560.83,1523.81,506.38,1372.11,476.06,1335.39z"/>
					<path class="st14" d="M663.5,1053c-12.94,6.94-32.31,13.12-60.49,13.49c0,0,39.94-22.93,82.54-57.09
						c2.25-3.56,4.55-6.97,6.91-10.21c34.08-46.86,53.67-151.64-56.23-156.75c-45.89-2.13-74.69,12.97-93.24,35.25
						c-2.16,24.03-3.28,60.39,6.34,82.31c1.2,2.73-13.76-19.94-26.66-46.52c-9.43,24.61-13,51.21-15.93,72.07
						c-0.7,4.96-2.04,9.41-3.88,13.54c7.42,24.25,19.24,54.84,34.55,68.24c1.73,1.52-32.71-3.08-48.22-48.3
						c-26.02,29.4-68.87,59.3-49.75,193.13c25.56,178.9-21.3,90.3-45.15,207.87c-23.85,117.56,70.71,134.6,70.71,134.6
						c167.83-16.19,91.15-183.16,128.64-213.83c37.48-30.67,44.3-91.15,42.6-151.64C635.07,1147.95,645.78,1096.46,663.5,1053z"/>
					<path class="st14" d="M617.49,1460.93c0,0,19.53,1.25,43.88,1.46c1.39-5.03,3.24-10.04,5.75-14.92
						c-9.35-2.28-25.07-7.4-32.58-17.21c0,0,20.2,4.77,44.92,0.34c2.82-2.8,5.99-5.48,9.6-8c42.6-29.82,41.74-77.52-43.45-91.15
						c-85.19-13.63-76.67,68.15-87.75,86.89c-11.07,18.74-72.41,21.3-76.67,76.67c-4.26,55.37,51.11,70.71,51.11,70.71
						s17.89,8.52,26.41,7.67c8.52-0.85,31.52-35.78,41.74-34.08c10.22,1.7,40.04,1.7,51.11-17.04c4.21-7.12,4.48-18.9,5.54-32.41
						C645.19,1484.49,623.73,1472.71,617.49,1460.93z"/>
					<path class="st8" d="M613.23,965.97c0,0-126.81,186.39-140.55,707.19c-0.01,0.41-0.35,0.74-0.76,0.74h-32.55
						c-0.43,0-0.78-0.35-0.76-0.78C439.29,1651.92,455.23,1204.63,613.23,965.97z"/>
					<path class="st8" d="M235.47,1016.23c38.92,50.42,178.1,257.27,189.78,650.47c0.01,0.47-0.4,0.85-0.87,0.78l-43.97-5.89
						c-0.41-0.05-0.7-0.42-0.66-0.83c1.86-18.11,35.03-367.2-145.52-643.64C233.7,1016.3,234.87,1015.46,235.47,1016.23z"/>
					<path class="st8" d="M643.9,1390.22c0,0-121.5,103.66-134.55,281.27c-0.03,0.4-0.36,0.71-0.76,0.71h-35.15
						c-0.43,0-0.77-0.35-0.76-0.78C472.98,1659.84,479.94,1520.73,643.9,1390.22z"/>
				</g>
				<path class="st8" d="M639.19,1633.86c-1.73-4.48-5.89-7.39-10.5-7.39H456.3h-28.85h-172.4c-4.61,0-8.77,2.92-10.5,7.39
					c-5.51,14.26-13.13,49.63,10.1,110.13c26.94,70.19,55.2,137.64,62.6,155.19c1.13,2.68,3.66,4.4,6.46,4.4h99.61h37.13h99.61
					c2.8,0,5.33-1.72,6.46-4.4c7.4-17.55,35.65-85,62.6-155.19C652.32,1683.49,644.7,1648.12,639.19,1633.86z"/>
			</g>
			<g id="Cat">
				<path id="Body" class="st25" d="M1045.41,1729.06c0,0,61.01-8.31,109.8-49.08c40.59-28.09,141.95-18.65,159.72,31.88
					c17.77,50.53,23.74,111.29-25.4,118.6s-174.41-0.28-196.36-3.42c-12.26-1.75-18-4.05-31.19-4.09
					c-10.42-0.04-25.49,1.33-52.1,5.49c-60.29,9.41-82.6,5.23-84.69,2.09c-2.09-3.14-21.26-20.21,25.09-33.81
					C996.64,1783.14,1045.41,1729.06,1045.41,1729.06z"/>
				<path id="Shadow_tail" class="st9" d="M1300.55,1692.2c0.08,0.23-0.76-0.05-0.68,0.19c44.02,120.76-51.3,105.47-51.3,105.47
					s-72.23-8.12-105.2,3.88c-28.19,10.26-19.27,31.62-16.09,37.61c45.97,2.25,122.21,3.21,158.63-2.6
					c49.14-7.84,43.56-70.91,25.79-125.02C1309.09,1703.81,1305.89,1698.64,1300.55,1692.2z"/>
				<path id="Ear_right" class="st25" d="M991.67,1706.58c0,0,13.82-35.64,25.78-43.33c0,0,18.6,36.69,23.24,54.73
					c4.64,18.04-46.2,4.2-46.2,4.2L991.67,1706.58z"/>
				<path id="Ear_left" class="st25" d="M960.57,1714.34c0,0-31.15-22.16-45.36-22c0,0,4.65,40.87,10.7,58.49
					c6.05,17.61,40.89-21.91,40.89-21.91L960.57,1714.34z"/>
				<path id="Tail" class="st25" d="M1285.91,1836.75c49.14-7.84,43.56-70.91,25.79-125.02c-2.52-7.67-4.32-11.38-9.41-17.67
					l-1.92-1.86c0,0,0.29-0.04,1.49,2.45c24.03,49.77,12.67,107.84-39.65,108.51c-34.11,0.44-91.06-7.45-114.66,2.61
					c-39.38,16.79-5.58,33.59-5.58,33.59l0.4,0.64C1188.53,1841.73,1253.24,1841.96,1285.91,1836.75z"/>
				<path id="Shadow_neck" class="st9" d="M999.27,1770.45l12.76,52.6c45.23-23.65,42.94-86.71,42.37-95.64
					c-5.68,1.2-8.98,1.65-8.98,1.65S1025.62,1751,999.27,1770.45z"/>
				<path id="Head" class="st25" d="M979.08,1709.9c0,0,64.86-23.05,68.24,26.95c3.37,49.99-20.24,82.07-38.77,87.65
					c-18.53,5.58-76.99-18.22-83.02-52.66C919.5,1737.4,937.03,1716.58,979.08,1709.9z"/>
				<path id="Shadow_ear" class="st9" d="M967.59,1712.23c-2.43,0.61-4.75,1.28-6.97,2.02c-0.03,0.06-0.05,0.1-0.05,0.1
					s-0.37,19.29-19.05,28.82C941.53,1743.16,957.2,1740.97,967.59,1712.23z"/>
				<rect id="extra" x="956.19" y="1800.91" class="st25" width="327.83" height="45.26"/>
				<path id="Catbed" class="st8" d="M1386.22,1820.44l-4.46,0.31c-178.1,12.44-356.85,12.42-534.95-0.07h0
					c-30.16-2.11-54.83,20.89-54.83,51.12v25.64c0,1.66,1.34,3,3,3h639.6c1.66,0,3-1.34,3-3v-25.64
					C1437.58,1843.44,1414.59,1820.44,1386.22,1820.44z"/>
			</g>
			<g id="Sidetable">
				<ellipse id="Shadow" class="st4" cx="4015.12" cy="1900.55" rx="215.98" ry="14.6"/>
				<g id="Table">
					<path class="st14" d="M3868.29,1902.53h-26.99c-2.17,0-3.95-1.74-4-3.91l-9.95-438.86h54.88l-9.95,438.86
						C3872.24,1900.8,3870.46,1902.53,3868.29,1902.53z"/>
					<path class="st14" d="M4195.59,1902.53h-26.99c-2.17,0-3.95-1.74-4-3.91l-9.95-438.86h54.88l-9.95,438.86
						C4199.54,1900.8,4197.77,1902.53,4195.59,1902.53z"/>
					<path class="st14" d="M4255.95,1461.26h-475.33c-7.84,0-14.19-6.36-14.19-14.19v-68.73c0-7.84,6.36-14.19,14.19-14.19h475.33
						c7.84,0,14.19,6.36,14.19,14.19v68.73C4270.14,1454.9,4263.79,1461.26,4255.95,1461.26z"/>
				</g>
				<g id="Magazines_1_">
					<path class="st8" d="M4239.84,1363.4h-189.79c-1.1,0-2-0.9-2-2v-50.14c0-1.1,0.9-2,2-2h189.79c1.1,0,2,0.9,2,2v50.14
						C4241.84,1362.5,4240.95,1363.4,4239.84,1363.4z"/>
					<path class="st14" d="M4209.05,1308.66h-194.53c-1.1,0-2-0.9-2-2v-37.96c0-1.1,0.9-2,2-2h194.53c1.1,0,2,0.9,2,2v37.96
						C4211.05,1307.76,4210.16,1308.66,4209.05,1308.66z"/>
					<path class="st8" d="M4273.77,1266.78h-240.51c-1.1,0-2-0.9-2-2v-37.96c0-1.1,0.9-2,2-2h240.51c1.1,0,2,0.9,2,2v37.96
						C4275.77,1265.88,4274.87,1266.78,4273.77,1266.78z"/>
					<path class="st14" d="M4196.56,1224.53h-185.58c-1.1,0-2-0.9-2-2v-28.28c0-1.02,0.77-1.88,1.79-1.99l185.58-19.33
						c1.18-0.12,2.21,0.8,2.21,1.99v47.61C4198.56,1223.63,4197.66,1224.53,4196.56,1224.53z"/>
				</g>
				<g id="Cup">
					<path class="st8" d="M3889.58,1365.73l-30,0.07c-17.3,0.04-32.16-12.29-35.32-29.3l-19.12-103.07
						c-1.03-5.56,3.23-10.7,8.89-10.71l120.47-0.27c5.66-0.01,9.94,5.1,8.93,10.67l-18.66,103.15
						C3921.68,1353.3,3906.88,1365.69,3889.58,1365.73z"/>
					<path class="st17" d="M3934.71,1261.01c0,0,25.69-6.89,25.75,22.88c0.07,29.77-32.15,27.41-32.15,27.41"/>
				</g>
			</g>
			<g id="Couch">
				<ellipse id="Shadow_1_" class="st4" cx="2679.66" cy="1899.47" rx="925.94" ry="23.59"/>
				<path id="Foot_right" class="st14" d="M3551.82,1902.53h-62.61c-1.96,0-3.63-1.42-3.95-3.35l-19.45-117.21h109.4l-19.45,117.21
					C3555.45,1901.12,3553.78,1902.53,3551.82,1902.53z"/>
				<path id="Foot_left" class="st14" d="M1888.75,1902.3h-62.61c-1.96,0-3.63-1.42-3.95-3.35l-19.44-117.21h109.4l-19.45,117.21
					C1892.38,1900.89,1890.71,1902.3,1888.75,1902.3z"/>
				<path id="Back" class="st14" d="M3565.56,1724.77H1811.94v-366.9c0-78.22,63.41-141.63,141.63-141.63h1470.37
					c78.22,0,141.63,63.41,141.63,141.63V1724.77z"/>
				<g id="_x0A_Buttons">
					<circle class="st8" cx="2688.75" cy="1418.7" r="33.49"/>
					<circle class="st8" cx="3153.75" cy="1418.7" r="33.49"/>
					<circle class="st8" cx="2223.75" cy="1418.7" r="33.49"/>
				</g>
				<path id="Front" class="st8" d="M3662.05,1608.07h-1.43v-160.65c0-45.99-37.29-83.28-83.28-83.28h-44.1
					c-45.99,0-83.28,37.29-83.28,83.28v83.52c0,42.6-34.53,77.13-77.13,77.13H2004.21c-42.6,0-77.13-34.53-77.13-77.13v-83.52
					c0-45.99-37.29-83.28-83.28-83.28h-44.1c-45.99,0-83.28,37.29-83.28,83.28v160.65h-0.97v84.97c0,49.06,39.77,88.83,88.83,88.83
					h1768.94c49.06,0,88.83-39.77,88.83-88.83V1608.07z"/>
				<path id="Pillow" class="st8" d="M3273.11,1584c0,0-11.15,23.82-2.22,23.82c8.93,0,111.12,0,111.12,0s58.6-41.07,63.63-104.7
					s2.23-84.28,34.05-122.79c31.81-38.51,56.37-143.38,18.98-151.69c-37.4-8.31-37.95,2.73-54.7,0
					c-16.74-2.73-17.84-11.93-39.05-5.89c-21.21,6.04-146.55,311.01-146.55,311.01L3273.11,1584z"/>
			</g>
			<g id="Human">
				<path id="Leg_back" class="st18" d="M3063.98,1396.06c0,0-184.49,46.98-300.46,109.89c-3.23,1.75-7.41,3.94-11.73,6.11
					c-28.48,11.9-84.57,13.72-108.6,13.44c-8.33-0.1-16.65,0.26-24.95,1.07l-194.69,17.87l12.92,48.79l43.81,6.24
					c49.72,2.13,30.77,5.15,92.8,10.6c40.67,3.58,145.99-5.27,152.13-3.67c55.69,9.51,195.82,3.13,296.24-0.99l121.66,3.81
					l127.54-93.92L3063.98,1396.06z"/>
				<path id="Shadow_leg_back" class="st21" d="M3063.98,1396.06c0,0-184.49,46.98-300.46,109.89c-3.23,1.75-7.41,3.94-11.73,6.11
					c-28.48,11.9-84.57,13.72-108.6,13.44c-8.33-0.1-16.65,0.26-24.95,1.07l-194.69,17.87l12.92,48.79l43.81,6.24
					c49.72,2.13,30.77,5.15,92.8,10.6c40.67,3.58,145.99-5.27,152.13-3.67c55.69,9.51,195.82,3.13,296.24-0.99l121.66,3.81
					l127.54-93.92L3063.98,1396.06z"/>
				<g id="Sock_back">
					<path class="st22" d="M2480.27,1599.47c15.21,0.65,23.99,2.28,30.64,3.15c0.81,0.11,1.43-0.73,1.18-1.57
						c-9.09-30.33-1.71-65.44-1.71-65.44l0.01,0.88c0.01-0.71-0.56-1.27-1.22-1.21c-35.28,3.18-64.76,6.63-78.05,8.22
						c-5.3,0.63-10.65,0.14-15.77-1.44c-10.8-3.34-28.93-9.78-33.22-16.43c-6.22-9.62-23.88-8.67-25.68-20.88
						s-11.34-32.68-23.84-33.86c-12.5-1.18-13.54,28.26-12.79,38.74c0.75,10.48,16.3,40.1,21.45,48.56
						c5.16,8.46,8.08,27.24,10.7,32.45s8.7,29.2,38.17,12.62c12.56-7.06,25.55-8.14,25.55-8.14c6.55-0.46,13.23-0.01,19.72-0.59
						c1.44-0.13,2.89-0.13,4.33,0.01L2480.27,1599.47z"/>
				</g>
				<path id="Pants_back" class="st23" d="M2815.03,1487.69c0,0-4.68,97.55,6.23,123.36l262.72,0.05l-23.41-79.11L2815.03,1487.69z"
					/>
				<path id="Leg_front" class="st18" d="M3258.36,1533.75c0,0-47.06,99.97-178.01,57.32c-128.51-41.86-137.17,1.11-328.07-111.99
					c-6.62-3.92-14.94-3.52-21.13,1.05c-18.7,13.81-60.45,42.37-98.44,52.57c-63.26,17.12-151.4,45.85-151.4,45.85l-55.81-31.85
					l221.4-128.41c0,0,65.3-44.89,81.49-46.39c22.05-1.49,74.1,1.12,108.48,3.9c107.08,8.66,227.12,21.99,227.12,21.99l203.93,36.66
					L3258.36,1533.75z"/>
				<path id="Shadow_leg_front" class="st21" d="M2829.32,1521.46c13.87,6.9,26.43,12.65,37.99,17.49l3.16-7.72l-23.16-57.77
					C2847.31,1473.47,2847.54,1513.3,2829.32,1521.46z"/>
				<path id="Pants_front" class="st3" d="M2857.66,1377.61c0,0-15.77,85.78-8.86,169.66c0.27,3.3,1.11,6.48,3.98,7.67
					c33.98,14.07,174.8,50.64,192.27,54.32c19.1,4.02,150,2,150,2s38.92-2.67,71.66-77.69c32.74-75.02-194.38-136.65-194.38-136.65
					L2857.66,1377.61z"/>
				<path id="Sock_front" class="st3" d="M2579.76,1548.34c-12.61-13.34-37.33-39.48-48.43-62.83c-0.29-0.62-2.01-0.84-2.56-0.48
					l-85.58,48c0,0-29.2,16.86-49.28,25.83c-10.05,4.49-17.84,12.43-29.33,11.88c-11.6-0.55-44.01,10.02-43.73,23.44
					c0.42,19.77,22.73,15.37,33.68,15.22c9.77-0.13,41.27,1.93,50.29-0.92c10.28-3.25,26.13,1.47,31.61,0.92
					c4.25-0.43,22.19,3.17,27.75-9.88c2.37-5.55,5.71-10.43,9.54-14.68c3.64-4.04,8.43-6.65,13.58-7.68
					c5.02-1,19.27-3.53,35.07-7.16c22.81-5.24,47.07-17.55,55.83-19.65C2579.08,1550.13,2580.38,1549,2579.76,1548.34z"/>
				<path id="Laptop" class="st19" d="M3038.97,1382.97l-201.35-36.77c-2.61-0.45-4.71-2.58-5.37-5.44l-62.31-172.25
					c-0.49-2.11-2.4-3.36-4.3-2.81c-0.03,0.01-0.06,0.02-0.09,0.03c-1.86,0.54-3.05,2.62-2.69,4.72l55.8,202.35
					c0.17,0.99,1.02,1.62,2.01,1.6l217.24,19.26c1.23,0.11,2.36-1.32,2.52-3.19l0.35-3.91
					C3040.92,1384.74,3040.13,1383.18,3038.97,1382.97z"/>
				<path id="Arm_back_1_" class="st18" d="M3161.54,1233.19l-149.23,85.58l-35.8,0.46c-6.21,0.08-12.32,1.62-17.83,4.49
					c-11.44,5.98-35.25,17.77-40.14,25.6c-5.75,9.21,5.86,13.84,9.09,13.82c11.01-0.04,12.63-5.94,21.53-5.93
					c4.4,0.01,14.89,0.55,19.45,2.45c6.35,2.65,13.66,4.27,20.55,4.44c6.64,0.16,13.26-0.86,19.55-3.01l11.2-6.33l9.63-6.34
					l140.2-58.88L3161.54,1233.19z"/>
				<g id="Shadow_arm_back">
					<path id="Arm_back" class="st21" d="M3161.54,1233.19l-149.23,85.58l-35.8,0.46c-6.21,0.08-12.32,1.62-17.83,4.49
						c-11.44,5.98-35.25,17.77-40.14,25.6c-5.75,9.21,5.86,13.84,9.09,13.82c11.01-0.04,12.63-5.94,21.53-5.93
						c4.4,0.01,14.89,0.55,19.45,2.45c6.35,2.65,13.66,4.27,20.55,4.44c6.64,0.16,13.26-0.86,19.55-3.01l11.2-6.33l9.63-6.34
						l140.2-58.88L3161.54,1233.19z"/>
				</g>
				<path id="Shirt" class="st24" d="M3282.71,1060.13c-1.01-0.13-2.04,0.12-2.87,0.72c-13.48,9.81-54.89,59.62-83.7,94.75
					c-37.72,46.01-64.47,102.29-78.7,128.93c-52.47,98.23-45.68,112.28-45.68,112.28s73.06,19.18,102.96,97.65
					c22.7,59.58,67.96,82.9,88.45,90.67c5.67,2.15,11.99-0.72,14.08-6.42c8.09-22.09,24.49-81.86,50.61-149.84
					c12.17-31.67,30.1-63.04,43.67-96.97c49.9-124.74,48.04-220.97,44.37-271.08c-0.09-1.26-1.31-2.11-2.53-1.78
					C3393.95,1064.36,3352.47,1069.17,3282.71,1060.13z"/>
				<path id="Hand_front" class="st18" d="M3001.58,1365.39l-12.05,4.51c-6.54,1.15-13.24,1.12-19.78-0.07l0,0
					c-6.77-1.23-13.74-3.97-19.61-7.58c-4.21-2.59-14.5-4.75-18.84-5.44c-8.79-1.4-11.3,4.19-22.19,2.51
					c-3.2-0.49-13.95-6.86-6.84-15.07c6.04-6.97,31.39-14.92,43.63-19.05c5.89-1.99,12.16-2.56,18.31-1.67l35.49,5.11
					L3001.58,1365.39z"/>
				<path id="Shadow_arm_front" class="st21" d="M3335.4,1172.91l-92.09,111.63l-150.17,48.15c-8.06,17.19-13.17,29.9-16.38,39.25
					c72.06-3.37,152.62,18.17,181.9-5.91c27.29-22.45,87.14-95.01,97.24-107.33c0.86-1.05,2.32-1.37,3.55-0.79l0,0
					c1.19,0.57,2.61,0.28,3.48-0.7c33.68-38.2,43.08-84.3,43.08-84.3H3335.4z"/>
				<path id="Arm_front" class="st18" d="M3358.79,1249.16c0,0-89.4,100.19-104.35,110.78c-14.95,10.59-39.24,8.72-92.18,5.35
					c-54.19-1.87-160.69,0.1-160.69,0.1l-1.87-36.75c0,0,156.95-31.61,183.73-40.95c0,0,46.99-96.24,65.68-115.55
					c18.68-19.31,98.13,67.59,98.13,67.59L3358.79,1249.16z"/>
				<g id="Sleeve_1_">
					<path id="Shadow_sleeve" class="st21" d="M3358.79,1249.16l-11.55-9.43c0,0-12.06-13.19-27.88-28.15l-71.27-38.33
						c-2.72,3.04-5.95,7.49-9.5,12.89c3.57,3.53,53.11,51.87,113.62,70.37C3356.34,1251.91,3358.79,1249.16,3358.79,1249.16z"/>
					<path id="Sleeve" class="st24" d="M3371.35,1086.75c64.29,30.61,42.63,98.51-9.07,163.18c-1.58,1.98-4.28,2.66-6.6,1.65
						c-15.2-6.62-71.64-32.55-114.2-70.08c-1.97-1.74-2.49-4.6-1.22-6.89C3253.97,1149.83,3311.96,1058.47,3371.35,1086.75z"/>
					<path id="Sleeve_stripe" class="st3" d="M3371.16,1238.37c2.96-4.01,5.8-8.02,8.49-12.03c-13.08-6.89-37.17-18.79-60.72-33.19
						c-24.71-15.11-48.86-32.9-60.88-46.52c-2.95,4.13-5.63,8.1-8.01,11.78c5.6,6.86,26.51,29.49,68.05,53.44
						C3332.93,1220.39,3351.09,1230.8,3371.16,1238.37z"/>
				</g>
				<path id="Head_1_" class="st18" d="M3412.72,1061.38c0,0-20.07-51.44,4.15-90.18s48.43-115.69-25.29-164.65
					c-61.34-19.37-129.68-17.76-150.66,50.58s40.31,145.62,59,142.04c9.21,0.56,25.48-4.29,25.48-4.29s-0.59,21.65-37.42,60.33
					c-36.83,38.68,65.94,23.07,67.55,23.61S3412.72,1061.38,3412.72,1061.38z"/>
				<path id="Shadow_neck_1_" class="st21" d="M3360.24,983.5c-15.07,7.26-34.84,11.45-34.84,11.45s-0.22,7.79-8.32,22.35
					C3342.11,1005.3,3360.24,983.5,3360.24,983.5z"/>
				<path id="Hair" class="st3" d="M3227.38,817.52c-0.17-42.32,33.7-45.91,41.2-46.19c0.85-0.03,1.59-0.57,1.88-1.37
					c1.63-4.48,8.66-18.73,32.79-22.53c26.81-4.22,55.05,5.26,58.74,6.56c0.27,0.1,0.56,0.13,0.85,0.11
					c66.41-5.16,70.91,57.1,71.18,68.28c0.02,0.97,0.71,1.81,1.67,2c59.74,11.79-8.54,130.22-19.79,148.99
					c-0.73,1.22-2.42,1.37-3.37,0.31c-17.52-19.51-60.23-36.91-45.7-53.52c15.08-17.23,17.11-44.29-0.52-44.4
					c-14.03-0.09-20.84,12.57-23.04,17.74c-0.49,1.16-1.89,1.62-2.98,0.99c-7.56-4.33-31.07-16.27-24.89-37.77
					c0.45-1.57-0.93-3.04-2.51-2.65c-6.59,1.62-20.29,6.15-27.78,16.97c-10.08,14.56-24.08,18.6-41.26,25.84
					c-0.1,0.04-0.19,0.09-0.28,0.14c-2.42,1.48-38.61,22.92-37.17-23.13c1.26-40.13,15.02-52.68,19.65-54.38
					C3226.85,819.21,3227.38,818.4,3227.38,817.52z"/>
			</g>
			<path id="Couch_front" class="st8" d="M3657.86,1607.51h-1.43v-160.65c0-45.99-37.29-83.28-83.28-83.28h-44.1
				c-45.99,0-83.28,37.29-83.28,83.28v83.52c0,42.6-34.53,77.13-77.13,77.13H2000.02c-42.6,0-77.13-34.53-77.13-77.13v-83.52
				c0-45.99-37.29-83.28-83.28-83.28h-44.1c-45.99,0-83.28,37.29-83.28,83.28v160.65h-0.97v84.97c0,49.06,39.77,88.83,88.83,88.83
				h1768.94c49.06,0,88.83-39.77,88.83-88.83V1607.51z"/>
		</g>
	</g>
</g>
</svg>
