<svg width="88" height="90" viewBox="0 0 88 90" fill="none" xmlns="http://www.w3.org/2000/svg">
<circle cx="44" cy="44" r="44" fill="#FDDCD0"/>
<mask id="mask0" mask-type="alpha" maskUnits="userSpaceOnUse" x="0" y="2" width="88" height="88">
<circle cx="44" cy="46" r="44" fill="white"/>
</mask>
<g mask="url(#mask0)">
<path d="M26.9049 69.387L35.6892 28.0602C35.8614 27.2499 36.6579 26.7327 37.4682 26.9049L60.977 31.9018C61.3628 31.9838 61.7009 32.2146 61.9178 32.544L68.8476 43.0666C69.0682 43.4017 69.1455 43.8111 69.0621 44.2035L62.1182 76.8718C61.946 77.6821 61.1494 78.1994 60.3391 78.0271L28.0602 71.166C27.2499 70.9938 26.7327 70.1973 26.9049 69.387Z" fill="#FFF0F8" stroke="#F56C46" stroke-linejoin="round"/>
<path d="M69.5203 44.4524L59.7388 42.3732C59.1986 42.2584 58.8538 41.7274 58.9686 41.1872L61.0477 31.4057" stroke="#F56C46" stroke-linejoin="round"/>
<path d="M51.6018 42.1772C54.0328 42.6939 55.5846 45.0835 55.0679 47.5144C54.5512 49.9454 52.1616 51.4972 49.7306 50.9805C47.2996 50.4638 45.7478 48.0742 46.2645 45.6432C46.7813 43.2123 49.1708 41.6604 51.6018 42.1772Z" fill="#FCC4B1" stroke="#F56C46" stroke-linecap="round"/>
<path d="M39.2333 59.4838C40.0945 55.4322 44.0771 52.8458 48.1287 53.707L50.085 54.1228C54.1366 54.984 56.723 58.9667 55.8618 63.0183L55.6539 63.9964C55.4816 64.8068 54.6851 65.324 53.8748 65.1518L40.1807 62.241C39.3704 62.0688 38.8531 61.2723 39.0254 60.4619L39.2333 59.4838Z" fill="#FCC4B1" stroke="#F56C46"/>
<path d="M26.6892 79.179L17.9049 37.8523C17.7327 37.042 18.2499 36.2455 19.0603 36.0733L42.569 31.0763C42.9548 30.9943 43.3575 31.0676 43.6897 31.2803L54.3003 38.0746C54.6381 38.2909 54.8752 38.6336 54.9586 39.0259L61.9025 71.6942C62.0747 72.5045 61.5574 73.3011 60.7471 73.4733L28.4682 80.3344C27.6579 80.5066 26.8614 79.9894 26.6892 79.179Z" fill="#FFF0F8" stroke="#F56C46" stroke-linejoin="round"/>
<path d="M55.4785 39.0669L45.697 41.146C45.1568 41.2608 44.6258 40.916 44.511 40.3758L42.4318 30.5943" stroke="#F56C46" stroke-linejoin="round"/>
<path d="M38.1837 44.2765C40.6147 43.7598 43.0043 45.3116 43.521 47.7426C44.0377 50.1736 42.4859 52.5632 40.0549 53.0799C37.6239 53.5966 35.2344 52.0448 34.7176 49.6138C34.2009 47.1828 35.7527 44.7933 38.1837 44.2765Z" fill="#FAAC91" stroke="#F56C46" stroke-linecap="round"/>
<path d="M33.5079 63.1614C32.8763 60.1902 34.773 57.2696 37.7442 56.638L43.6131 55.3906C46.5843 54.759 49.5049 56.6557 50.1364 59.6269L50.7601 62.5613C50.9324 63.3716 50.4151 64.1681 49.6048 64.3404L35.9107 67.2512C35.1004 67.4234 34.3039 66.9061 34.1316 66.0958L33.5079 63.1614Z" fill="#FAAC91" stroke="#F56C46"/>
<path d="M72.6091 64H69V83.5H71.5L74.5776 66.3533C74.7977 65.127 73.855 64 72.6091 64Z" fill="#F88962" stroke="#F56C46"/>
<path d="M13 58V95C13 96.1046 13.8954 97 15 97H67C68.1046 97 69 96.1046 69 95V63C69 61.8954 68.1046 61 67 61H35.6292C35.1661 61 34.7175 60.8393 34.3597 60.5455L29.3794 56.4545C29.0217 56.1607 28.573 56 28.11 56H15C13.8954 56 13 56.8954 13 58Z" fill="#FAAC91" stroke="#F56C46"/>
</g>
</svg>