<?xml version="1.0" encoding="UTF-8"?>
<svg width="88px" height="88px" viewBox="0 0 88 88" version="1.1" xmlns="http://www.w3.org/2000/svg" xmlns:xlink="http://www.w3.org/1999/xlink">
    <title>Illustrations/Extension</title>
    <defs>
        <circle id="path-1" cx="44" cy="44" r="44"></circle>
    </defs>
    <g id="Illustrations/Extension" stroke="none" stroke-width="1" fill="none" fill-rule="evenodd">
        <mask id="mask-2" fill="white">
            <use xlink:href="#path-1"></use>
        </mask>
        <use id="Oval" fill="#E3F3FF" fill-rule="nonzero" xlink:href="#path-1"></use>
        <g id="Group" mask="url(#mask-2)">
            <g transform="translate(22.750000, -2.000000)" id="icons/solid/plug">
                <g transform="translate(46.000000, 46.000000) scale(-1, 1) translate(-46.000000, -46.000000) ">
                    <path d="M19.1666667,51.75 L5.75,51.75 C2.57436269,51.75 0,49.1756373 0,46 C0,42.8243627 2.57436269,40.25 5.75,40.25 L19.1666667,40.25 L19.1666667,34.5 C19.1666667,26.0316338 26.0316338,19.1666667 34.5,19.1666667 L65.1666667,19.1666667 C69.4008497,19.1666667 72.8333333,22.5991503 72.8333333,26.8333333 L72.8333333,30.6666667 L84.3333333,30.6666667 C86.4504249,30.6666667 88.1666667,32.3829085 88.1666667,34.5 C88.1666667,36.6170915 86.4504249,38.3333333 84.3333333,38.3333333 L72.8333333,38.3333333 L72.8333333,53.6666667 L84.3333333,53.6666667 C86.4504249,53.6666667 88.1666667,55.3829085 88.1666667,57.5 C88.1666667,59.6170915 86.4504249,61.3333333 84.3333333,61.3333333 L72.8333333,61.3333333 L72.8333333,65.1666667 C72.8333333,69.4008497 69.4008497,72.8333333 65.1666667,72.8333333 L34.5,72.8333333 C26.0316338,72.8333333 19.1666667,65.9683662 19.1666667,57.5 L19.1666667,51.75 Z M30.6666667,42.1666667 L30.6666667,49.8333333 C30.6666667,51.9504249 32.3829085,53.6666667 34.5,53.6666667 C36.6170915,53.6666667 38.3333333,51.9504249 38.3333333,49.8333333 L38.3333333,42.1666667 C38.3333333,40.0495751 36.6170915,38.3333333 34.5,38.3333333 C32.3829085,38.3333333 30.6666667,40.0495751 30.6666667,42.1666667 Z" id="Icon" fill="#5DBBFF" fill-rule="nonzero"></path>
                </g>
            </g>
        </g>
        <path d="M-10,75 C-12.209139,75 -14,73.209139 -14,71 L-14,17 C-14,14.790861 -12.209139,13 -10,13 L22.5,13 C24.4329966,13 26,14.5670034 26,16.5 C26,18.4329966 24.4329966,20 22.5,20 L20,20 L20,68 L22.5,68 C24.4329966,68 26,69.5670034 26,71.5 C26,73.4329966 24.4329966,75 22.5,75 L-10,75 Z" id="Combined-Shape" fill="#BAE2FF" fill-rule="nonzero" mask="url(#mask-2)"></path>
    </g>
</svg>