<svg width="88" height="88" viewBox="0 0 88 88" fill="none" xmlns="http://www.w3.org/2000/svg">
<circle cx="44" cy="44" r="44" fill="#CDF4E3"/>
<mask id="mask0" mask-type="alpha" maskUnits="userSpaceOnUse" x="0" y="0" width="88" height="88">
<circle cx="44" cy="44" r="44" fill="white"/>
</mask>
<g mask="url(#mask0)">
</g>
<path d="M26.4865 46.5135L43.3513 53.6487V77.6487L26 71L26.4865 46.5135Z" fill="#46CF91"/>
<path d="M43.5 53L62.8108 46.5135L62.5 71L43.5 77.5V53Z" fill="#70DFB1"/>
<path d="M43.3513 77.6487L43.1777 78.1175C43.2844 78.1571 43.4015 78.159 43.5095 78.123L43.3513 77.6487ZM27.4254 71.7502L27.2518 72.219L27.4254 71.7502ZM42.8513 53V77.6487H43.8513V53H42.8513ZM43.5095 78.123L61.3057 72.1909L60.9895 71.2422L43.1932 77.1743L43.5095 78.123ZM63.3108 69.409V46.5135H62.3108V69.409H63.3108ZM26.3378 69.4692V46.5135H25.3378V69.4692H26.3378ZM27.2518 72.219L43.1777 78.1175L43.525 77.1798L27.5991 71.2813L27.2518 72.219ZM25.3378 69.4692C25.3378 70.6959 26.1014 71.793 27.2518 72.219L27.5991 71.2813C26.841 71.0005 26.3378 70.2776 26.3378 69.4692H25.3378ZM61.3057 72.1909C62.5031 71.7918 63.3108 70.6712 63.3108 69.409H62.3108C62.3108 70.2407 61.7786 70.9792 60.9895 71.2422L61.3057 72.1909Z" fill="#2CC077"/>
<path d="M44 39.7027L62.8108 46.8378L43.3514 53.6486L27.1352 46.8378L44 39.7027Z" fill="#EBFAF4"/>
<path d="M49.2656 33.5594L44 39.7027L62.8108 46.8378L66.9857 41.6193C67.4926 40.9856 67.2486 40.0428 66.498 39.7345L50.6511 33.2259C50.1657 33.0266 49.6072 33.161 49.2656 33.5594Z" fill="#89E4BF" stroke="#2CC077" stroke-linejoin="round"/>
<path d="M21.2002 41.9426L25.8378 46.8378L44 39.7027L38.7435 33.5702C38.3976 33.1666 37.8296 33.0344 37.341 33.2438L21.604 39.9882C20.826 40.3217 20.6181 41.3281 21.2002 41.9426Z" fill="#89E4BF" stroke="#2CC077" stroke-linejoin="round"/>
<path d="M38.7312 59.0994L43.3514 53.3243L25.8378 46.8378L21.3696 51.0578C20.7274 51.6643 20.9256 52.7315 21.7426 53.0671L37.3195 59.4647C37.819 59.6699 38.3939 59.5211 38.7312 59.0994Z" fill="#89E4BF" stroke="#2CC077" stroke-linejoin="round"/>
<path d="M66.6958 50.7228L62.8108 46.8378L43.3514 53.3243L47.9769 59.1062C48.3117 59.5247 48.8808 59.6747 49.3783 59.4757L66.2875 52.712C67.0982 52.3877 67.3132 51.3402 66.6958 50.7228Z" fill="#89E4BF" stroke="#2CC077" stroke-linejoin="round"/>
</svg>