<svg xmlns="http://www.w3.org/2000/svg" viewBox="0 0 922.8 390"><style>.st1{fill:#f4f7f9}.st3{fill:#ebeff3}.st4{fill:#f5f7f9}.st5{fill:#fcfcfc}.st6{fill:#e8edf7}.st7{fill:#dce4ef}.st14{fill:#303f56}.st15{fill:#94b0d5}.st20{opacity:.2;fill:#ebeff3}.st26{fill:#cc9987}.st29{opacity:.1}.st32{display:inline}.st34{display:none}.st38{fill:#fff}.st39{fill:#293445}</style><g id="aktuell"><g class="st34"><g id="Background_1_" class="st32"><path id="Background" class="st1" d="M-2204.9 520.8s769.7 3.9 1010.3 3.9h2446.7s5.1-53.3 2.6-67c-11.2-60.1-58-111.3-120.4-152.1-79.3-51.8-187-76.3-250.2-140.4C827.3 107.7 759 76.8 739.7 9.8 704.3-112.9 613.5-261 410.8-277.8c-192.1-15.9-336.5 20.7-521.2 48.6-167.8 25.4-344.9 53.8-508.1 4.7-207.2-62.5-416.5-193.6-649.6-162.2-121.8 16.4-349.1 129.1-457.3 171.5-64.2 25.2-77.5 53.6-100.7 101.5-83.8 173.3-226.3 223.9-338.1 385-38.3 55.2-61.1 116.5-56.7 178.2.5 6.8 16 71.3 16 71.3z"/><g id="Window_3"><path class="st5" d="M958.5-220.5v636.6H301.8v-636.6c0-181.3 147-328.4 328.4-328.4 181.3 0 328.3 147 328.3 328.4z"/><path class="st20" d="M301.8 58.2V416h656.7v-636.6c0-28.4-3.6-56-10.4-82.2-5.7 13.7-11.9-21.3-18.8-4.8C821.2-46.1 389.3 42.8 301.8 58.2z"/><path class="st3" d="M947-354.4c-17.3-40.9-42.1-77.7-73.7-109.3C841.7-495.2 805-520 764-537.3c-42.4-17.9-87.4-27-133.8-27-46.4 0-91.4 9.1-133.8 27-40.9 17.3-77.7 42.1-109.3 73.7-31.6 31.6-56.4 68.3-73.7 109.3-17.9 42.4-27 87.4-27 133.8v652.1H974v-652.1c0-46.4-9.1-91.5-27-133.9zM834.6-425c26.6 26.6 47.4 57.5 62 91.9 15.1 35.6 22.7 73.5 22.7 112.5v18.4H637.7v-307.4c36.4.9 71.7 8.5 105 22.6 34.4 14.6 65.4 35.5 91.9 62zM637.7-186.7h281.6V99.8H637.7v-286.5zM622.2 99.8H341v-286.5h281.2V99.8zM363.7-333.1c14.6-34.4 35.4-65.4 62-91.9 26.6-26.6 57.5-47.4 91.9-62 33.2-14 68.3-21.6 104.6-22.6v307.4H341v-18.4c0-39 7.6-76.8 22.7-112.5zM341 115.3h281.2v261.6H341V115.3zm296.7 261.6V115.3h281.6v261.6H637.7z"/></g><g id="Counter"><path class="st5" d="M74.3 75c1.6 0 2.8-1.3 2.8-2.8V44.3c0-1.6-1.3-2.8-2.8-2.8h-82c-1.6 0-2.8 1.3-2.8 2.8v27.8c0 1.6 1.3 2.8 2.8 2.8H20v24.9h-49c-1.1 0-2.1-.9-2.1-2V43.3c0-1.1-.9-2-2.1-2h-94.4c-1.1 0-2.1.9-2.1 2V192c0 1.1.9 2 2.1 2H75.1c1.1 0 2.1-.9 2.1-2v-90.1c0-1.1-.9-2-2.1-2H46.7V75h27.6zM244.2 194.2h-77.9l4.3-93c0-.8.8-1.4 1.6-1.4h66.1c.9 0 1.6.6 1.6 1.4l4.3 93z"/><path class="st1" d="M205.2 131.9c9.6 0 17.5-9.7 17.5-21.6 0-1.1-.9-2-2-2s-2 .9-2 2c0 9.8-6 17.7-13.4 17.7s-13.4-7.9-13.4-17.7c0-1.1-.9-2-2-2s-2 .9-2 2c-.1 11.9 7.7 21.6 17.3 21.6z"/><path class="st5" d="M318.8 194.2H213.5l5.8-125.8c0-1.1 1-1.9 2.2-1.9h89.4c1.2 0 2.1.8 2.2 1.9l5.7 125.8z"/><path class="st1" d="M266.2 110c13 0 23.6-13.1 23.6-29.2 0-1.5-1.2-2.7-2.7-2.7-1.5 0-2.7 1.2-2.7 2.7 0 13.2-8.1 23.9-18.2 23.9-10 0-18.2-10.7-18.2-23.9 0-1.5-1.2-2.7-2.7-2.7s-2.7 1.2-2.7 2.7c0 16.1 10.6 29.2 23.6 29.2z"/><path class="st3" d="M101.9 431h-259.2c-2.2 0-4-1.8-4-4V130.7c0-2.2 1.8-4 4-4h259.2c2.2 0 4 1.8 4 4V427c0 2.2-1.8 4-4 4z"/><path class="st3" d="M459.1 192.4h-616.5c-2.2 0-4 1.8-4 4v281.2c0 2.2 1.8 4 4 4h27.3v39.2c0 2.2 1.8 4 4 4h554.6c2.2 0 4-1.8 4-4v-39.2h26.6c2.2 0 4-1.8 4-4V196.4c0-2.2-1.7-4-4-4z"/><path class="st5" d="M427.3 307.7h-552.1c-2.2 0-4-1.8-4-4v-12.2c0-2.2 1.8-4 4-4h552.1c2.2 0 4 1.8 4 4v12.2c0 2.2-1.8 4-4 4z"/></g></g></g><g id="FINAL_1_"><path id="Wave_1_" class="st1" d="M922.8 279s-58.3-97.1-181.6-108.4c-131.2-12-116.1-50-182.7-99.5-61.2-39.7-140.7-48-235 17.2-89.3 61.7-71 81.3-161.3 109.8-78.9 24.9-112.4 60-130 81.5l890.6-.6z"/><g id="Background_5_"><g id="Tree_small_1_"><path class="st3" d="M747.7 183.7c1.6-10.9.1-21.9-4.4-31.9-2.2-4.1-3.4-9.2-3-15.2.8-5.3 2.7-9.7 5.4-13.1 6.7-9.8 10.4-21.4 10.7-33.3h.1c0-.7 0-1.5.1-2.3 4.3-28.5 41.1-28.9 49-5.9 2.4 6.5 6.6 12.1 12 16.4 9.5 5.9 16.2 16.8 15.2 32.3-.9 5.9-2.8 11-5.5 15.1-7.4 12.5-11.1 27-10.4 41.6h-.1c.1 1.8.1 3.6 0 5.6-6.9 45.2-72.3 38.8-69.1-7.9-.1-.6-.1-1.1 0-1.4z"/><path class="st5" d="M783.6 156.4l7.5 121.2h-14.4l5.5-121.2c-.1-.8 1.3-.8 1.4 0z"/></g><g id="Tree_big_1_"><path class="st3" d="M684.8 147.8c3.5-16.9 1.9-34.5-4.8-50.4-1.9-4.3-2.9-8.9-2.9-13.9 0-7 2.1-13.6 5.7-19.1 5-7.7 7.5-16.7 7.3-25.9v-1.1c0-20.6 17-37.4 38-37.4s38 16.7 38 37.4v.5c-.1 9.8 2.7 19.4 8.2 27.5 2.8 4.1 4.5 9.1 4.5 14.5 0 2.9-.5 5.6-1.4 8.2-.7 2.1-1.3 4.3-1.8 6.5-1.3 6.6-1.2 13.3.5 19.9.8 2.7 1.2 5.5 1.2 8.4 0 3-.4 5.8-1.2 8.5-1.1 4.1-1.3 8.4-.5 12.6.4 1.6.9 3.3 1.3 4.9.9 2.8 1.4 5.8 1.4 8.9 0 10.6-5.7 19.9-14.2 25.2-4 2.5-7.1 6.1-9.1 10.3-4.7 11-15.8 18.8-28.7 18.8-16.5 0-30-12.6-31-28.6-.3-5-2.2-9.8-5.3-13.7-3.6-4.5-5.7-10.1-5.7-16.3-.1-2 .1-3.9.5-5.7z"/><path class="st5" d="M727.7 105.5l7.5 172.2h-14.4l5.5-172.1c0-1.3 1.3-1.3 1.4-.1z"/></g><path id="Bush_3_" class="st3" d="M699.6 277c1-6.6 6.8-23.4 38.5-14.9 1.1.3 2.3.1 3.2-.4 6.7-4.2 35.8-20.6 57-4.7.9.6 2.2.8 3.3.6 10.5-2.7 59.4-13.6 48.3 20.3-.3 1-1.6 1.8-3.1 1.8H702.7c-1.9-.2-3.3-1.4-3.1-2.7z"/><g id="Store_1_"><path id="Store_front_1_" class="st3" d="M620.2 155.2h-23.8c-.8 0-1.5-.7-1.5-1.5v-120c0-2.8-2.3-5-5-5h-306c-2.8 0-5 2.3-5 5v48.5c0 .8-.7 1.5-1.5 1.5h-60.6c-41.7 0-75.4 33.8-75.4 75.4v120.3h499.7V176.2c0-11.6-9.4-21-20.9-21z"/><g id="Windows_1_"><path id="Window_2_4_" class="st5" d="M567.3 250.1H447v-84.8c0-33.2 26.9-60.1 60.1-60.1s60.1 26.9 60.1 60.1v84.8z"/><path id="Window_2_Shadow_1_" class="st20" d="M567.3 249.6v-88c0-7.6-1.5-14.8-4.2-21.4-13.7 11.4-59.6 46-116 51.4v58.1c.1.3.3.4.6.4h119c.2 0 .5-.2.6-.5z"/><path id="Window_2_struts_1_" class="st3" d="M566.9 155.2h-58.2v-50.1h-3.1v50.1h-58.2c-.1 1-.2 2.1-.3 3.1h58.5V250h3.1v-91.7h58.5c-.1-1-.2-2-.3-3.1z"/><path id="Window_1_2_" class="st5" d="M422.5 250.1H302.3v-84.8c0-33.2 26.9-60.1 60.1-60.1s60.1 26.9 60.1 60.1v84.8z"/><path id="Window_1_shadow_1_" class="st20" d="M422.5 249.4v-87.3c0-1.3 0-2.6-.1-3.9-.4-6.3-1.8-12.3-4.1-17.9-13.7 11.4-59.8 48.6-116.1 54v55.2c0 .3.3.6.7.6h118.9c.4 0 .7-.3.7-.7z"/><path id="Window_1_struts_1_" class="st3" d="M422.2 155.2H364v-50.1h-3.1v50.1h-58.2c-.1 1-.2 2.1-.3 3.1h58.5V250h3.1v-91.7h58.5c-.1-1-.2-2-.3-3.1z"/></g><g id="Store-Name_1_"><path id="_x35__2_" class="st5" d="M532.9 83.8c-1.2 0-2.1-1-2.1-2.2V49.3H520c-1.2 0-2.1-1-2.1-2.2 0-1.2 1-2.2 2.1-2.2h12.9c1.2 0 2.1 1 2.1 2.2v34.4c0 1.3-1 2.3-2.1 2.3z"/><path id="_x34__2_" class="st5" d="M510.7 83.8c-.3 0-.5-.1-.8-.2L491.3 76c-.8-.3-1.3-1.1-1.3-2V47.2c0-1.2 1-2.2 2.1-2.2 1.2 0 2.1 1 2.1 2.2v25.4l17.3 7.1c1.1.4 1.6 1.7 1.2 2.8-.3.8-1.1 1.3-2 1.3z"/><path id="_x33__2_" class="st5" d="M456.8 83.8a17 17 0 01-9.2-2.7c-6.8-4.3-8.9-13.3-4.7-20.2 3.5-5.7 10.9-7.5 16.6-3.9 4.7 3 6.2 9.2 3.3 14-.6 1-1.9 1.3-2.9.7-1-.6-1.3-2-.7-3 1.7-2.8.8-6.4-1.9-8.1-1.8-1.1-3.9-1.4-5.9-1-2 .5-3.7 1.7-4.8 3.5-1.4 2.4-1.9 5.1-1.3 7.8.6 2.7 2.3 5 4.6 6.4 3 1.9 6.6 2.5 10.1 1.7s6.4-3 8.3-6c5-8.2 2.5-18.9-5.6-24-1-.6-1.3-2-.7-3 .6-1 1.9-1.3 2.9-.7 10.1 6.3 13.2 19.7 7 29.9-2.5 4-6.4 6.9-10.9 8-1.5.4-2.9.6-4.2.6z"/><path id="_x32__2_" class="st5" d="M413.9 83.8h-14.2c-1.2 0-2.1-1-2.1-2.2s1-2.2 2.1-2.2h12.1V47c0-1.2 1-2.2 2.1-2.2h22.8c1.2 0 2.1 1 2.1 2.2s-1 2.2-2.1 2.2h-20.6v32.4c0 1.2-1 2.2-2.2 2.2z"/><path id="_x31__2_" class="st5" d="M385.4 83.8c-1.2 0-2.1-1-2.1-2.2V61.7c0-6.9-5.5-12.5-12.3-12.5-6.8 0-12.3 5.6-12.3 12.5v19.8c0 1.2-1 2.2-2.1 2.2h-16c-1.2 0-2.1-1-2.1-2.2 0-1.2 1-2.2 2.1-2.2h13.9V61.7c0-9.3 7.4-16.8 16.6-16.8 9.1 0 16.6 7.5 16.6 16.8v19.9c-.2 1.2-1.1 2.2-2.3 2.2z"/></g><g id="Door_2_"><path id="Door_3_" class="st5" d="M277.6 279.5H163.9V162.9c0-31.4 25.4-56.8 56.8-56.8s56.8 25.4 56.8 56.8v116.6z"/><path id="Door_shadow_1_" class="st20" d="M278.1 169.4c-7.4 8.5-58.8 65.8-114.4 77v33.1h114.4V169.4z"/><path id="Door_struts_1_" class="st3" d="M277.4 155.8h-55.1V106h-3.1v49.8h-55.1c-.1 1-.1 2.1-.2 3.1h55.3v120.6h3.1V158.9h55.3c-.1-1-.1-2.1-.2-3.1z"/><g id="Doorknob_1_"><ellipse id="right_1_" class="st3" cx="228.8" cy="214" rx="2.3" ry="7.4"/><ellipse id="left_1_" class="st3" cx="212.6" cy="214" rx="2.3" ry="7.4"/></g></g></g><g id="Lantern_1_"><path class="st5" d="M125.8 87.4h-14.6L96.3 56.7h44.4z"/><path class="st3" d="M142.7 53.2c-.2 0-.3-.1-.4-.2-.2-2.7-2.8-4.9-6.1-4.9l-6.4-2.4c-7.5-1.8-15.4-1.8-22.9 0l-6.3 2.4c-3.2 0-5.9 2.2-6.1 4.9 0 .1-.1.2-.3.2h-.1c-.9 0-1.7.8-1.7 1.7v.1c0 .9.8 1.7 1.7 1.7H96c.1 0 .2.1.2.1L111 87.3h.1v8.1c0 1 .6 1.9 1.5 2.2.1 0 .2.1.2.2v2.5c0 1.7 1.1 3.1 2.6 3.6.1 0 .2.1.2.2v102.1c0 .3-.2.5-.5.5h-3c-.4 0-.8.4-.8.8v57.6c0 1.6-1.3 2.8-2.8 2.8h-3c-.7 0-1.3.6-1.3 1.3v10.2h28.4v-10.2c0-.7-.6-1.3-1.3-1.3h-3c-1.6 0-2.8-1.3-2.8-2.8v-57.6c0-.4-.4-.8-.8-.8h-3c-.3 0-.5-.2-.5-.5v-102c0-.1.1-.2.2-.2 1.5-.4 2.6-1.4 2.6-3.1v-3.2c0-.1.1-.2.2-.2.9-.3 1.5-1.2 1.5-2.2v-8.1h.1l14.8-30.5c0-.1.1-.1.2-.1h1.9c.9 0 1.7-.8 1.7-1.7v-.2c0-.8-.8-1.5-1.7-1.5zm-19.4 30.1h-9.5l-10.9-22.5h31.3l-10.9 22.5z"/></g><path id="Bush_2_" class="st3" d="M141.4 255.6c-5.8-.4-11.5 1-14.3 2-.8.3-1.6 0-2.3-.5-19.6-14.7-33.7 1.5-39.1 4.7-.7.4-1.4.5-2.2.4-22.4-3.8-26.6 13.4-26.4 14.9.2 1.3.9 2.5 2.2 2.5h82.1v-24z"/></g><g id="Sign_1_"><ellipse class="st1" cx="824.7" cy="375" rx="66.9" ry="2.6"/><path class="st7" d="M858.1 347.1h20.5c.3 0 .5.3.5.6l-4.7 25.9c0 .2-.2.4-.5.4h-11.1c-.2 0-.4-.2-.5-.4l-4.7-25.9c0-.3.2-.6.5-.6z"/><path class="st4" d="M870.2 190.6h-92.7c-.4 0-.7.3-.7.7l-2.5 156.8c0 .4.3.8.7.8h97.6c.4 0 .8-.3.7-.8l-2.5-156.8c.1-.4-.2-.7-.6-.7z"/><path class="st7" d="M881.1 181.1c0-.4-.3-.8-.8-.8h-113c-.4 0-.8.3-.8.8L764 358.4c0 .4.3.8.8.8h118.1c.4 0 .8-.4.8-.8l-2.6-177.3zm-8.4 167.8H775c-.4 0-.8-.3-.7-.8l2.5-156.8c0-.4.3-.7.7-.7h92.7c.4 0 .7.3.7.7l2.5 156.8c0 .4-.3.8-.7.8z"/><path class="st6" d="M776.5 359.2l2.8 15.5c0 .2.2.4.5.4h11.1c.2 0 .4-.2.5-.4l2.8-15.5h-17.7zM853.5 359.2l2.8 15.5c0 .2.2.4.5.4h11.1c.2 0 .4-.2.5-.4l2.8-15.5h-17.7z"/><path class="st7" d="M871.1 359.2l-2.7 15.2h5.6c.2 0 .4-.2.5-.4l2.6-14.7h-6zM794.1 359.2l-2.7 15.2h5.8c.2 0 .4-.2.5-.4l2.6-14.7h-6.2z"/><path class="st6" d="M808.1 266.3c-7 0-12.7-5.7-12.7-12.7 0-7 5.7-12.7 12.7-12.7 7 0 12.7 5.7 12.7 12.7 0 7-5.7 12.7-12.7 12.7zm0-20.6c-4.3 0-7.9 3.5-7.9 7.9 0 4.3 3.5 7.9 7.9 7.9 4.3 0 7.9-3.5 7.9-7.9-.1-4.3-3.6-7.9-7.9-7.9zM839.7 297.6c-7 0-12.7-5.7-12.7-12.7 0-7 5.7-12.7 12.7-12.7 7 0 12.7 5.7 12.7 12.7 0 7-5.7 12.7-12.7 12.7zm0-20.6c-4.3 0-7.9 3.5-7.9 7.9 0 4.3 3.5 7.9 7.9 7.9 4.3 0 7.9-3.5 7.9-7.9-.1-4.4-3.6-7.9-7.9-7.9zM807.5 301.6c-.4 0-.8-.1-1.2-.3-1.2-.7-1.6-2.2-.9-3.3l33.6-58.8c.7-1.2 2.2-1.6 3.3-.9 1.2.7 1.6 2.2.9 3.3l-33.6 58.8c-.5.7-1.3 1.2-2.1 1.2z"/></g><g id="Boxes_1_"><g id="Boxes_7_"><ellipse class="st1" cx="603.7" cy="375" rx="102.3" ry="5"/><path class="st7" d="M694 237.7H586.1c-1.1 0-2 .9-2 2v133.4c0 1.1.9 2 2 2H694c1.1 0 2-.9 2-2V239.7c0-1.1-.9-2-2-2z"/><path transform="rotate(-180 675.983 255.05)" class="st6" d="M663.5 250.2h24.9v9.7h-24.9z"/><path class="st6" d="M655.4 320l-8.4-32.9c-.1-.3-.3-.5-.6-.5H504.1c-.3 0-.5.2-.6.5l-8.4 32.9c-.2.6.3 1.2.9 1.2h10.4v53.4c0 .3.2.5.5.5h136.5c.3 0 .5-.2.5-.5v-53.4h10.6c.6 0 1-.6.9-1.2z"/><path class="st4" d="M623.6 286.6h13.7c-.7-7.1-4.3-9.9-11.5-12.4-1.7-.6-12.6-2.8-22.7-2.1-18.2 1.3-28.9 4.1-46.4 0-2.3-.6-4.8-.9-7.4-.9-3.9 0-7.6.7-10.9 2-4.8 1.8-10.1 2.6-15.4 2.3h-1.1c-6.5 0-11.4 5.8-12.1 11.1H580c5.1 1.9 10.9 8 11.3 17.5.4 10.3 3 14.1 9.8 22.2 6.8 8 5.1 17.7 5.1 24.3 0 6.6 5.1 13.5 11.7 3s5.8-13.4 4.1-23.1c-1.7-9.7 4.7-22.2 5.2-25.7s.3-6.4-1.8-11.3c-1.1-3-1.6-5.4-1.8-6.9z"/><path transform="rotate(-180 525.593 353.933)" class="st7" d="M513.8 348.9h23.6V359h-23.6z"/></g></g><g id="Bushes_1_"><ellipse class="st1" cx="133" cy="375" rx="133" ry="3.7"/><path class="st7" d="M53.4 370.5c1.4-12.1 9.3-42.7 52.7-27.2 1.5.5 3.2.3 4.4-.7 9.1-7.6 49-37.5 77.9-8.6 1.2 1.2 3 1.5 4.5 1 14.4-4.9 71.1-11.3 66 36.9-.2 1.9-2.2 3.2-4.2 3.2h-197c-2.6 0-4.6-2.2-4.3-4.6z"/><path class="st6" d="M197 370.5c-1.2-12.1-18.3-46.6-61.5-27.2-1.2.6-2.7.3-3.7-.7-7.7-7.6-40.3-32.9-66.1-8.6-1.1 1.1-2.5 1.5-3.9 1-12.2-4.9-60.5-5.3-56 36.9.2 1.9 1.9 3.2 3.6 3.2h183.9c2.3 0 4-2.2 3.7-4.6z"/></g><g id="Human_3_"><ellipse id="Shadow_Human_1_" class="st1" cx="376.4" cy="385.7" rx="75.4" ry="4.3"/><ellipse id="Shadow_coupon_1_" class="st1" cx="498.4" cy="384.8" rx="21.3" ry="2.2"/><path id="Body_1_" class="st26" d="M494.9 182.6c-2.5-2.3-9.3-3.5-9.3-3.5s-35.3-23.2-37.8-23.9c-2.4-.8-23.1-26.7-29.6-31.5-6.5-4.8-17.2-11.3-15.9-23.4 1.3-12.1 8-12.7 12.8-22.5 5-10 5.9-45.2-16.4-42.8-22.3 2.4-25.4 26.3-25 33.5.1 1.7.4 3.5.9 5.2 0 .2.2.3.3.4 1.6.7 4.6 2.1 4.8 2.1.2 0-.4.6-1 1.2-.3.3-1.1.6-1.8.8-.3.1-.5.5-.3.8 1.8 3.5 4.1 6.2 6.6 7 4.8 1.4 5.4 3.6 2 9.1-3.4 5.5-8.5 5.5-11.6 5.9-7-2.2-20 1.7-25.6 4-.7.3-3.7 1.2-3.3.6 1.2-1.9 2.7-4.4 4.8-7.1.7-.9 6.5-9.3 8.5-12.3.4-.6 1-1 1.7-1.2 2.8-.7 9.8-2.2 12.2-.9.5.2 1-.1 1-.6 0-.4-.2-1.3-1-2.1-1.9-2.1-6.2-.2-4.8-3.5 1.7-4.1 4.6-7.4 3.4-9.9-1.3-3-5.3-2.7-9.4 1.4-1 1-1.9 1.8-3.1 3-1.2 1.2-2.9 3.3-3.9 5.4-.2.4-.4.8-.8 1-4.3 3.1-31.5 23.7-37.7 42.5-1.3 4 1.2 8.8 5.2 10.1 7.4 2.4 22.2-2.4 38.7-3.5-7 15.5-9.9 41.7-9.4 67.5l70.3-.3c-3.2-8.9-14.3-52.3-14.3-52.3s11.8 16.9 22.4 20.6c10.5 3.7 13.1 8.6 17.7 12.3s12.4 7.6 33.9 9.6c10 7.9 15.5 10.3 19.1 6.2 3.8-4.2-1.7-6.5-4.3-8.9z"/><g id="Leg_back_1_"><path id="Leg_3_" class="st26" d="M394.4 217c-20.5 1.8-39.2-1.2-45.5-2.5l-.6 68.6c0 1.4 0 2.7.2 4.1.3 3.4 1.2 6.7 2.5 9.8l26.5 62.3c.7 1.7.6 3.7-.5 5.2-5.9 8.6-22.2 12.8-25 13.4-3.1.7-1.3 8.1 11.4 5.2 12.7-2.9 18.3.7 25.3-.1 7.1-.8 8-9.5 7.1-12-.9-2.5-1.9-9.3-1.9-9.3s-3.5-28.2-5.6-43c-1.6-11.1-7.4-19.1-9.4-24.1-.8-2.1-.8-4.4.1-6.4 3.1-6.8 11.4-22.5 27.4-36.8 19-17 21.6-40.6 22-45.1-3.9 3.8-14.4 9-34 10.7z"/><path id="Shadow_Leg_1_" class="st29" d="M394.4 365.1c-.3-1.9-.5-3.5-.5-3.5s-3.5-28.2-5.6-43c-1.1-7.9-4.4-14.2-6.9-19-.3-.5-.5-1-.8-1.5-11.8-2.8-26.2-7.5-31.9-9.5 0 .3.1.7.2 1 0 .1 0 .2.1.3 0 .3.1.5.2.8 0 .1.1.3.1.4.1.3.1.6.2.9 0 .2.1.4.1.5 0 .2.1.3.1.5.1.2.1.4.2.6 5 1.5 14.4 4.3 23.2 6.6 2.1.6 4.2 1.5 5.8 3 2.5 2.4 4.2 6.1 5.6 11.5 1.6 6.5 4.9 45.2 4.6 46 0 0 .2 3.5-1.5 5.4-1.7 1.8 6.8-1 6.8-1-.1 0 0 0 0 0z"/><path id="Shoe_3_" class="st39" d="M394.6 366.8c.5-.3 1.3 0 1.4.6.5 2.6 1.5 8.6.9 13.1-.9 5.9-2.6 5.8-3.8 5.8h-39.3c-.9-.2-3.2-.4-5.3-3.4-2.3-3.4.9-5.3 2.3-5.6 1.1-.3 3.1-.4 4.4-.5.3 0 .6-.1 1-.2 3.8-1.2 13.6-5.3 18.5-12 0 0 1.7-2.6 4.4.2 2.6 2.5 7.3 6.9 15.5 2z"/><path id="Pants_3_" class="st39" d="M428.8 205.9c-17 16-69.1 11.9-81.2 8.2-2.5 35.9-2.8 72.8-1.1 73.7 1.3.2 36.7 13.4 36 9.2 35.7-65.6 46.9-62.9 46.5-91.3l-.2.2z"/></g><g id="Leg_front_1_"><path id="Leg_2_" class="st26" d="M425 208.9c-5.3 3.3-15.1 6.8-30.6 8.1-18.3 1.6-35.2-.6-43.1-2 5.8 30.9 34.7 77.7 34.7 77.7l5.2 70.3c-3.6 10.5-21.7 15.9-24.7 16.6s-1.2 8.2 11.4 5.1c12.7-3.1 18.7.5 25.8-.4 7.1-.9 7.9-9.6 7-12.1-.6-1.6-1.4-4.8-1.8-6.9-.3-1.4-.4-2.8-.2-4.2.6-5.1 2.4-19.2 5.7-38 4.2-23.9-3.1-40.7-3.1-40.7.5-8.2 7.4-44.3 10.8-54.4 1.7-5.4 2.5-13 2.9-19.1z"/><path id="Pants_2_" class="st14" d="M394.4 217c-18.4 1.6-35.4-.6-43.2-2 2.3 11.6 7 30 16 48.9 12.6 26.5 15 36.9 16 40.2.1.5 1.4 1.4 1.9 1.3-.3-.2 16.8-3.6 24.5-5.9l5.9-1.8c.4-.1.8-.5.8-.9.3-3.3 1-18.7 1.4-34.5.3-11.8 2.7-23.4 7.3-34.3 3.7-8.8 4.3-17.2 4.1-22.4-3.5 3.9-14 9.6-34.7 11.4z"/><path id="Shadow_Pants_1_" class="st29" d="M409.5 299.5c-6 1.8-17.7 4.3-22.5 5.3l.3 4.1c4.3-1 19.1-4 28-5.4-.1-2.2-.2-4-.4-5.6l-5.4 1.6z"/><path id="Shadow_shirt_1_" class="st29" d="M394.4 217c-18.4 1.6-35.4-.6-43.2-2 .3 1.5.6 3.1 1 4.8 8.6.7 21.7 1.3 38.8.1 23.2-1.6 33.9-6.9 38-9.7.1-1.7.1-3.2.1-4.5-3.5 3.8-14 9.5-34.7 11.3z"/><path id="Shoe_2_" class="st14" d="M408.8 366.3c.5-.3 1.2 0 1.4.6.5 2.6 1.6 8.6 1 13.1-.8 5.9-2.5 6.2-3.7 6.2h-39.2c-.9-.2-3.2-.3-5.3-3.4-2.3-3.3.8-5.3 2.3-5.6 1.1-.3 3.1-.4 4.4-.5.3 0 .6-.1.9-.2 2.4-.8 12.8-4.5 18.4-12.2 0 0 1.6-2.6 4.4.2 2.6 2.5 7.3 6.9 15.4 1.8z"/></g><g id="Shirt_2_"><path id="Shirt_3_" class="st38" d="M418.3 123.7c-13.2-9.7-15-16.5-15.2-18.4 0-.2-.3-.3-.5-.2-20.9 16.9-27.1 2.3-28.3-3.2-.1-.6-.3-1.1-.6-1.6-5 3.8-16.2 23.9-16.4 24.3-12.4 22.7-12.1 71.4-10.7 85.2.2 1.8-.1 4.2 1.7 4.6 5.5 1.2 24.9 4.5 46.2 2.6 23.6-2 33.9-9.1 35.5-12.7.4-1-3.4-14.1-3.7-15.2-4.2-14.8-13.2-27.4-14.3-31.6-.1-.5.5-.8.8-.4 3.7 4.2 10.2 8.1 10.2 8.1 1.4-.9 3-5 3-12.7 0-7.7 5.2-14 5.7-14.9.4-.8 2.2-2.4-13.4-13.9z"/><path id="Shadow_13_" class="st29" d="M411.9 157.5c-.1-.5.5-.8.8-.4 0 0-1.3-3.3-1.6 0-.3 3.3 5.4 14.9 8.3 22.8 2.5 6.8 6.6 23.6 7.6 27.7 1.6-1.2 2.6-2.4 3-3.3.4-1-3.4-14.1-3.7-15.2-4.3-14.7-13.3-27.3-14.4-31.6z"/><path id="Shadow_12_" class="st29" d="M355.3 128.9c-.1.1-.1.3-.2.4-2.9 7-5.1 15.7-6.4 24.8-.1.6-.2 1.3-.3 2 1.2-6.1 2.3-6.7 4.7-14.9 2.6-9 2.5-11.3 2.2-12.3z"/></g><g id="Sleeve_left_1_"><path id="Sleeve_1_" class="st38" d="M373.7 100.3S367 97.2 342 107c0 0-6.5 9.9-5.8 15.1.7 5.1-1 12.2-.6 14.7.1.4.5.7 1 .6 2.1-.7 17.8-9 18-9.1.4 0 .6.4.5.7l-.6 1.5 19.2-30.2z"/><path id="Shadow_arm_left_1_" class="st29" d="M336.2 122.1c-.2-1.9.4-4.3 1.4-6.7-.5.7-2.9 4.3-2.8 6.6 0 2.2-.7 7.2-1.4 9.3l.7-.1c.6-.1 1.2-.2 1.9-.3.2-2.8.6-6.1.2-8.8z"/><path id="Shadow_sleeve_left_1_" class="st29" d="M349.1 104.3c-.1 0-.2.1-.2.1-.4.1-.8.3-1.2.4h-.1c-.4.1-.8.3-1.3.5-.1 0-.2.1-.3.1-.3.1-.7.2-1 .4-.1.1-.3.1-.4.2-.3.1-.6.2-.9.4-.1.1-.3.1-.4.2-.4.2-.9.3-1.3.5 0 0-2.8 4.4-4.5 8.7 3-2.1 6.2-6.6 15.1-12.4-.7.2-1.5.5-2.3.7-.1 0-.1 0-.2.1-.3-.1-.7 0-1 .1z"/></g><path id="Shadow_hand_right_1_" class="st29" d="M487.1 184.1c.5.2 2.2 1.9 2.2 1.9s1.8-1.1.7-1.5c-1.1-.3-3.5-.6-2.9-.4z"/><g id="Coupon_1_"><path class="st15" d="M508.3 209.2l-20.1-10.8c-2.4-1.3-3.4-4.3-2-6.8l4-7.4c1.3-2.4 4.3-3.4 6.8-2l20 10.8c2.4 1.3 3.4 4.3 2 6.8l-4 7.4c-1.3 2.4-4.3 3.3-6.7 2z"/><path d="M508.3 209.2l-20.1-10.8c-2.4-1.3-3.4-4.3-2-6.8l4-7.4c1.3-2.4 4.3-3.4 6.8-2l20 10.8c2.4 1.3 3.4 4.3 2 6.8l-4 7.4c-1.3 2.4-4.3 3.3-6.7 2z"/><path class="st15" d="M504.8 211.2L486.9 197c-2.2-1.7-2.5-4.9-.8-7l5.2-6.6c1.7-2.2 4.9-2.5 7-.8l17.9 14.2c2.2 1.7 2.5 4.9.8 7l-5.2 6.6c-1.7 2.1-4.9 2.5-7 .8z"/><g class="st29"><path d="M506.5 209.9c-.1 0-.3 0-.4-.1l.4-.5-.4.5-2.5-2c-.3-.2-.3-.6-.1-.8.2-.3.6-.3.8-.1l2.5 2c.3.2.3.6.1.8-.1.2-.2.2-.4.2zm2.5-1.2c-.1 0-.3 0-.4-.1-.3-.2-.3-.6-.1-.8l2-2.5c.2-.3.6-.3.8-.1.3.2.3.6.1.8l-2 2.5c-.1.1-.3.2-.4.2zm-7.5-2.7c-.1 0-.3 0-.4-.1l-2.5-2c-.3-.2-.3-.6-.1-.8.2-.3.6-.3.8-.1l2.5 2c.3.2.3.6.1.8 0 .1-.2.2-.4.2zm11.4-2.3c-.1 0-.3 0-.4-.1-.3-.2-.3-.6-.1-.8l2-2.5c.2-.3.6-.3.8-.1.3.2.3.6.1.8l-2 2.5c0 .2-.2.2-.4.2zm-16.3-1.6c-.1 0-.3 0-.4-.1l-2.5-2c-.3-.2-.3-.6-.1-.8.2-.3.6-.3.8-.1l2.5 2c.3.2.3.6.1.8-.1.1-.3.2-.4.2zm17.4-3.3c-.1 0-.3 0-.4-.1l-2.5-2c-.3-.2-.3-.6-.1-.8.2-.3.6-.3.8-.1l2.5 2c.3.2.3.6.1.8-.1.1-.3.2-.4.2zm-22.4-.7c-.1 0-.3 0-.4-.1l-2.5-2c-.3-.2-.3-.6-.1-.8.2-.3.6-.3.8-.1l2.5 2c.3.2.3.6.1.8-.1.1-.2.2-.4.2zm17.4-3.3c-.1 0-.3 0-.4-.1l-2.5-2c-.3-.2-.3-.6-.1-.8.2-.3.6-.3.8-.1l2.5 2c.3.2.3.6.1.8-.1.1-.2.2-.4.2zm-20.8-1.2c-.1 0-.3 0-.4-.1-.3-.2-.3-.6-.1-.8l2-2.5c.2-.3.6-.3.8-.1.3.2.3.6.1.8l-2 2.5c-.1.2-.2.2-.4.2zm15.8-2.7c-.1 0-.3 0-.4-.1l-2.5-2c-.3-.2-.3-.6-.1-.8.2-.3.6-.3.8-.1l2.5 2c.3.2.3.6.1.8 0 .1-.2.2-.4.2zm-11.9-2.2c-.1 0-.3 0-.4-.1-.3-.2-.3-.6-.1-.8l2-2.5c.2-.3.6-.3.8-.1.3.2.3.6.1.8l-2 2.5c0 .1-.2.2-.4.2zm7-1.8c-.1 0-.3 0-.4-.1l-2.5-2c-.3-.2-.3-.6-.1-.8.2-.3.6-.3.8-.1l2.5 1.9c.3.2.3.6.1.8-.1.3-.3.3-.4.3z"/></g></g><path id="Thumb_1_" class="st26" d="M487.9 185s5.8 3.5 6.3 6 0 2.5-1.7 2-3.8-3.6-6.5-3.6c-2.7.1-6.5-2.3-6.7-5.9-.2-3.5 6.4-1.5 8.6 1.5z"/><path id="Arm_extra_left_1_" class="st26" d="M360 80.9c-9.5 21.4-25.1 38.9-28.8 40.2-3.7 1.3-1.6-5.3-1.6-5.3l25.7-34.7 4.7-.2z"/><g id="Hair__x2B__Beard_1_"><path id="Hair_1_" class="st14" d="M406.2 34.7c-.4 0-.7-.2-.9-.4-2.5-2.7-16.4-17.2-29.4-7.3-12.9 9.9-4.1 18.2.2 21.7 3.2 2.6 13 5.3 18 6.4.8.2 1.4.6 1.8 1.3l1.5 2.2c.3.4.4.8.5 1.3.4 2.8.4 5.8.3 7.9-.1 3.3-5.8 7.3-6.8 7.2-.6-.1-2.7.3-6.2.5l-.2-.2c-5.2-4.2-8.4-4.8-10.1-5.3-.6-.2-1.2.4-1.1 1l.3 1.2c.1.4.6.9 1 1 1.7.4 4.5 2 6.4 3.1-1.7 1-2.6 3.2-4.6 2.7-.7-.2-1.5 0-2.1.5-.2.2-.3.5-.3.8.1.9.4 2.1 2.1 3.8 4 4 1 5.9 8 5.3 9.8-.9 6.5-3.3 8.4-3.6 1.9-.3 8.2-12.5 9-17.2.8-4.7 4.9-8.2 7.4-4.7 2 2.8.1 5.1-.5 6.9-.2.5 5.3 9.5 5.7 8.8 1.6-2.4 3.2-3.3 7.1-18.7 4.4-18-12.9-26.2-15.5-26.2z"/><path id="Shadow_11_" class="st29" d="M392.7 85.9c-1.7.3.6 2.2-5.2 3.2.1.5.1 1.1-.1 1.8 4.9-2.9 6.8-6 7.2-6.9-.8 1.1-1.4 1.8-1.9 1.9z"/><path id="Shadow_3_" class="st29" d="M397.3 58.7l-1.5-2.2c-.4-.7-1.1-1.1-1.8-1.3-4.2-1-12-3.1-16.1-5.3-.3.6-.6 1.2-.8 1.8 2.9 1.1 12.3 4.6 15.7 4.7 4.1.2 4.8 4.9 5.3 7.2 0 .1.1.2.1.3 0-1.3-.1-2.7-.3-4-.1-.3-.3-.8-.6-1.2z"/></g></g></g></g></svg>