<svg xmlns="http://www.w3.org/2000/svg" xmlns:xlink="http://www.w3.org/1999/xlink" width="88" height="88" xmlns:v="https://vecta.io/nano"><defs><circle id="A" cx="44" cy="44" r="44"/></defs><g fill-rule="evenodd"><mask id="B" fill="#fff"><use xlink:href="#A"/></mask><use fill="#fff3b3" fill-rule="nonzero" xlink:href="#A"/><path d="M27.28 27.724c.95-2.853 4.034-4.394 6.887-3.443h0L74.97 39H86.5c2.963 0 5.38 2.302 5.496 5.185l.004.217v10.195C92 57.58 89.538 60 86.5 60h0H76v3.986c0 3.526-2.272 6.656-5.64 7.77l-5.5 1.82c-4.322 1.43-8.994-.89-10.435-5.18-.163-.485-.28-.983-.348-1.487l-19.91 5.81c-.555.185-1.137.28-1.722.28C29.438 73 27 70.562 27 67.556h0v-38.1c0-.585.094-1.167.28-1.722zm43.22 34.4l-11 3.21v.473c-.001.296.047.59.14.872.48 1.43 2.037 2.204 3.478 1.727l5.5-1.82c1.123-.372 1.88-1.415 1.88-2.6v-1.872z" fill="gold" mask="url(#B)"/></g></svg>