<?xml version="1.0" encoding="UTF-8"?>
<svg width="325px" height="198px" viewBox="0 0 325 198" version="1.1" xmlns="http://www.w3.org/2000/svg" xmlns:xlink="http://www.w3.org/1999/xlink">
    <!-- Generator: sketchtool 55.2 (78181) - https://sketchapp.com -->
    <title>42AA7AD1-E450-4E80-A7E6-D5CE20028A3C@1.00x</title>
    <desc>Created with sketchtool.</desc>
    <g id="2.-FRW" stroke="none" stroke-width="1" fill="none" fill-rule="evenodd">
        <g id="FRW-Demodata" transform="translate(-909.000000, -373.000000)">
            <g id="Group-4" transform="translate(450.000000, 263.000000)">
                <g id="Group-11" transform="translate(459.000000, 110.000000)">
                    <g id="Group">
                        <path d="M4.06664964,131.575855 L10.0686925,131.575855 L13.3303115,131.575855 L22.9276047,131.575855 L28.1843718,131.575855 L41.0698417,131.575855 L63.4895301,131.575855 L70.9456078,131.575855 L71.4435649,131.575855 L97.8767875,131.575855 L113.735061,131.575855 L114.233018,131.575855 L156.745276,131.575855 L157.243233,131.575855 L164.764045,131.575855 L165.783197,131.575855 L170.573544,131.575855 L214.169688,131.575855 L214.541496,131.575855 L217.446246,131.575855 L220.350996,131.575855 L239.276685,131.575855 L253.358912,131.575855 L263.001021,131.575855 L269.663687,131.575855 L319.203779,131.575855 C322.224719,126.124602 323.937692,120.806224 324.608274,115.66723 C327.063202,96.8917974 315.631767,80.4981737 303.363764,68.7136995 C301.914709,67.3218194 300.455695,65.9947165 299.00498,64.7357128 C298.921987,64.6775794 298.838994,64.6194459 298.756001,64.5613125 C288.43667,57.3278544 277.800306,51.5576975 267.090909,46.5914427 L257.716037,42.4390557 C238.40526,34.2455658 219.086185,28.0335949 201.173008,19.9596937 C186.348825,13.2776726 170.112104,8.52235901 157.243233,5.38647637 C157.077247,5.3449525 156.911261,5.30508959 156.745276,5.26522667 C143.094612,1.95826569 133.357891,0.493303571 133.357891,0.493303571 C127.576609,-0.0797258297 121.040092,0.0315581409 114.233018,0.842104076 C114.067033,0.862035534 113.901047,0.881966991 113.735061,0.903559404 C99.2694076,2.69406866 83.6335546,7.6337482 71.4435649,15.8637792 C71.2759193,15.9750631 71.1099336,16.0880081 70.9456078,16.2026139 C61.3599336,22.7932825 53.9785495,31.4518398 51.0920582,42.2480459 C44.7563841,65.9482098 35.2088866,76.0916607 28.1843718,80.7871798 C27.0307712,81.5578629 25.9468846,82.1823819 24.9559499,82.6956169 C24.804903,82.3468164 24.6521961,81.9847282 24.4994893,81.6093525 C23.226379,78.4801136 19.26762,82.3900012 17.0185138,86.731737 C12.2563841,89.6982023 6.28919816,94.6578133 2.88151175,102.004216 C0.224080695,107.726206 -0.879724208,114.894886 1.34282431,123.696286 C1.80094484,125.511709 2.34703779,127.249068 2.96948417,128.908362 L2.96948417,128.910023 L4.06664964,131.575855 Z" id="Path" fill="#E6EFF7" fill-rule="nonzero"></path>
                        <path d="M319.203779,131.575855 C317.585419,134.497475 315.590271,137.457296 313.178498,140.448676 C305.946502,149.416171 298.624872,155.840744 291.283325,160.795372 C272.948544,173.172807 254.490935,176.381772 237.025919,187.106557 C212.567926,202.12491 170.601762,199.89923 126.409729,184.047078 C82.2193565,168.194925 57.7613636,161.350131 44.421093,160.18248 C39.2307201,159.729039 32.5282176,157.936869 25.8970889,154.42561 C22.9641216,152.872618 20.046093,150.984112 17.2791113,148.726874 C12.941905,145.18738 8.97650664,140.741004 5.91407048,135.259853 C5.57877937,134.661909 5.25510725,134.052339 4.94471399,133.431142 C4.63930031,132.824893 4.34716547,132.207018 4.06664964,131.575855 L319.203779,131.575855 Z" id="Path" fill="#C3D6E5" fill-rule="nonzero"></path>
                        <polyline id="Path" stroke="#C3D6E5" stroke-width="3" points="28.1843718 131.575855 28.1843718 102.004216 28.1843718 80.7871798"></polyline>
                        <path d="M71.4435649,15.8637792 L71.4435649,131.575855 L70.9456078,131.575855 L70.9456078,16.2026139 C71.1099336,16.0880081 71.2759193,15.9750631 71.4435649,15.8637792 Z" id="Path" fill="#C3D6E5" fill-rule="nonzero"></path>
                        <polyline id="Path" points="28.1843718 80.7871798 28.1843718 102.004216 28.1843718 131.575855"></polyline>
                        <path d="M4.06664964,131.575855 C4.34716547,132.207018 4.63930031,132.824893 4.94471399,133.431142 C5.25510725,134.052339 5.57877937,134.661909 5.91407048,135.259853 C8.97650664,140.741004 12.941905,145.18738 17.2791113,148.726874 L27.7577886,148.726874 L96.8808733,148.726874 C97.430286,148.726874 97.8767875,148.280078 97.8767875,147.730302 L97.8767875,131.575855 L97.8767875,103.000789 C97.8767875,102.449352 97.430286,102.004216 96.8808733,102.004216 L78.2356997,102.004216 L77.2563841,102.004216 L71.4435649,102.004216 L70.9456078,102.004216 L49.6894791,102.004216 L40.9553115,102.004216 L28.1843718,102.004216 L26.9378192,102.004216 L13.8863636,102.004216 L2.88151175,102.004216 C0.224080695,107.726206 -0.879724208,114.894886 1.34282431,123.696286 C1.80094484,125.511709 2.34703779,127.249068 2.96948417,128.908362 L2.96948417,128.910023 L4.06664964,131.575855 Z" id="Path" fill="#DCE8F4" fill-rule="nonzero"></path>
                        <g transform="translate(37.844740, 112.280544)" fill="#E7F0F8" fill-rule="nonzero" id="Path">
                            <path d="M21.9482891,5.44627074 C25.2331461,8.03569925 28.78524,11.9439259 28.3038815,15.2608526 C27.8142237,18.5777793 23.2811542,21.3133718 18.6186159,23.4277673 C13.9560776,25.5421627 9.16241062,27.037022 6.45186415,25.3046462 C3.74131767,23.5722703 3.11389173,18.624286 1.95033197,13.7277913 C0.786772217,8.8312966 -0.921220633,3.99791817 0.771833504,1.77556067 C2.46322778,-0.453440657 7.54736977,-0.0714210558 11.5974208,0.757395382 C15.6557712,1.58455087 18.6634321,2.85684223 21.9482891,5.44627074 Z"></path>
                        </g>
                        <path d="M23.6695608,133.431142 L26.2639173,138.342585 C26.2639173,138.342585 18.4044944,137.23805 13.5178754,135.821256 C11.3268641,135.186771 9.73340143,134.48917 9.715143,133.801535 C9.71182329,133.686929 9.71680286,133.562357 9.726762,133.431142 C9.76659857,132.926212 9.89938713,132.298371 10.0686925,131.575855 C10.7093973,128.812027 11.862998,124.681232 10.3292901,120.915847 C9.82635342,119.681758 9.66700715,118.384552 9.726762,117.070737 C9.726762,117.069076 9.726762,117.069076 9.726762,117.069076 C9.91100613,113.059531 12.1335546,108.900501 12.8306946,105.897494 C13.11619,104.665066 13.499617,103.362877 13.8863636,102.004216 C14.7478294,98.9696519 15.6159346,95.6643519 15.4233912,92.2693603 C15.3370787,90.7412819 16.0043412,88.6916637 17.0185138,86.731737 C19.26762,82.3900012 23.226379,78.4801136 24.4994893,81.6093525 C24.6521961,81.9847282 24.804903,82.3468164 24.9559499,82.6956169 C26.6224464,86.583912 28.0167263,89.0902928 26.9112615,93.9386198 C26.0746936,97.6109909 26.4465015,99.1789322 26.9378192,102.004216 C27.1519408,103.243289 27.3909602,104.72486 27.5602656,106.731294 C28.1163177,113.313657 25.8008172,113.313657 22.5574566,118.690168 C20.2087589,122.585107 21.8470378,128.571188 22.9276047,131.575855 C23.3392492,132.720253 23.6695608,133.431142 23.6695608,133.431142 Z" id="Path" fill="#C4D7E6" fill-rule="nonzero"></path>
                        <path d="M4.06664964,131.575855 C4.34716547,132.207018 4.63930031,132.824893 4.94471399,133.431142 C5.25510725,134.052339 5.57877937,134.661909 5.91407048,135.259853 L13.1078907,137.508786 L13.5178754,135.821256 L13.9411389,134.078914 C13.9411389,134.078914 13.8847038,133.84472 13.7817926,133.431142 C13.6755618,132.99265 13.5195352,132.353182 13.3303115,131.575855 C12.2663432,127.225815 10.1500255,118.592172 9.726762,117.070737 C9.726762,117.069076 9.726762,117.069076 9.726762,117.069076 C9.72178243,117.052467 9.71680286,117.037518 9.71348315,117.022569 C9.19228805,115.167283 8.01212972,115.167283 7.92083759,112.386845 C7.8278856,109.608067 6.90168539,106.546928 6.90168539,106.546928 C4.21437692,111.087978 4.21437692,114.147457 4.4002809,116.743529 C4.58452503,119.339601 6.06677732,119.803008 4.30732891,123.325893 C3.57699183,124.785872 3.18194586,126.915216 2.96948417,128.908362 L2.96948417,128.910023 L4.06664964,131.575855 Z" id="Path" fill="#C4D7E6" fill-rule="nonzero"></path>
                        <path d="M77.2547242,102.004216 L40.9536517,102.004216 C40.7710674,102.004216 40.6216803,101.85473 40.6216803,101.672025 L40.6216803,99.6606091 C40.6216803,99.477904 40.7710674,99.3284181 40.9536517,99.3284181 L77.2547242,99.3284181 C77.4373085,99.3284181 77.5866956,99.477904 77.5866956,99.6606091 L77.5866956,101.672025 C77.5866956,101.85473 77.4389683,102.004216 77.2547242,102.004216 Z" id="Path" fill="#C4D7E6" fill-rule="nonzero"></path>
                        <path d="M58.1879469,86.5224567 L85.9805924,86.5224567 C86.2312308,86.5224567 86.392237,86.7898704 86.2727273,87.0124384 L78.2356997,102.004216 L49.6894791,102.004216 L57.8941522,86.6985179 C57.9522472,86.5888949 58.0651175,86.5224567 58.1879469,86.5224567 Z" id="Path" fill="#C4D7E6" fill-rule="nonzero"></path>
                        <path d="M237.357891,85.7899756 L305.065117,85.7899756 C305.247702,85.7899756 305.397089,85.9394616 305.397089,86.1221666 L305.397089,89.6101717 C305.397089,89.7928767 305.247702,89.9423626 305.065117,89.9423626 L237.357891,89.9423626 C237.175306,89.9423626 237.025919,89.7928767 237.025919,89.6101717 L237.025919,86.1221666 C237.025919,85.9394616 237.175306,85.7899756 237.357891,85.7899756 Z" id="Path" fill="#DCE8F4" fill-rule="nonzero"></path>
                        <path d="M303.363764,68.7136995 L237.357891,68.7136995 C237.175306,68.7136995 237.025919,68.5642136 237.025919,68.3815085 L237.025919,64.8935035 C237.025919,64.7091375 237.175306,64.5613125 237.357891,64.5613125 L298.756001,64.5613125 C298.838994,64.6194459 298.921987,64.6775794 299.00498,64.7357128 C300.455695,65.9947165 301.914709,67.3218194 303.363764,68.7136995 Z" id="Path" fill="#DCE8F4" fill-rule="nonzero"></path>
                        <path d="M257.716037,42.4390557 L237.357891,42.4390557 C237.175306,42.4390557 237.025919,42.5885417 237.025919,42.7712467 L237.025919,46.2592517 C237.025919,46.4436177 237.175306,46.5914427 237.357891,46.5914427 L267.090909,46.5914427 L257.716037,42.4390557 Z" id="Path" fill="#DCE8F4" fill-rule="nonzero"></path>
                        <g transform="translate(164.657814, 42.188252)" fill="#DCE8F4" fill-rule="nonzero">
                            <path d="M1.45735444,43.6017241 L52.4548008,43.6017241 C52.6373851,43.6017241 52.7867722,43.75121 52.7867722,43.933915 L52.7867722,47.4219201 C52.7867722,47.6046251 52.6373851,47.7541111 52.4548008,47.4219201 L1.45735444,47.4219201 C1.27477017,47.7541111 1.12538304,47.6046251 1.12538304,47.4219201 L1.12538304,43.933915 C1.12538304,43.75121 1.27477017,43.6017241 1.45735444,43.6017241 Z" id="Path"></path>
                            <path d="M1.45735444,64.948315 L52.4548008,64.948315 C52.6373851,64.948315 52.7867722,65.0978009 52.7867722,65.280506 L52.7867722,68.768511 C52.7867722,68.951216 52.6373851,69.100702 52.4548008,68.768511 L1.45735444,68.768511 C1.27477017,69.100702 1.12538304,68.951216 1.12538304,68.768511 L1.12538304,65.280506 C1.12538304,65.0978009 1.27477017,64.948315 1.45735444,64.948315 Z" id="Path"></path>
                            <path d="M1.45735444,86.0823037 L52.4548008,86.0823037 C52.6373851,86.4144946 52.7867722,86.5639806 52.7867722,86.7466856 L52.7867722,90.2346907 C52.7867722,90.4173957 52.6373851,90.5668816 52.4548008,90.5668816 L1.45735444,90.5668816 C1.27477017,90.5668816 1.12538304,90.4173957 1.12538304,90.2346907 L1.12538304,86.7466856 C1.12538304,86.5623196 1.27477017,86.4144946 1.45735444,86.0823037 Z" id="Path"></path>
                            <path d="M1.45735444,22.373061 L52.4548008,22.373061 C52.6373851,22.373061 52.7867722,22.5225469 52.7867722,22.7052519 L52.7867722,26.193257 C52.7867722,26.375962 52.6373851,26.5254479 52.4548008,26.5254479 L1.45735444,26.5254479 C1.27477017,26.5254479 1.12538304,26.375962 1.12538304,26.193257 L1.12538304,22.7052519 C1.12538304,22.5208859 1.27477017,22.373061 1.45735444,22.373061 Z" id="Path"></path>
                            <rect id="Rectangle" x="0.106230848" y="0.127893519" width="55.5852911" height="5.81334175"></rect>
                            <polygon id="Rectangle" transform="translate(3.010986, 53.543494) rotate(-90.000000) translate(-3.010986, -53.543494) " points="-50.2807895 50.6387164 56.3027607 50.6387164 56.3027607 56.4482722 -50.2807895 56.4482722"></polygon>
                            <polygon id="Rectangle" transform="translate(52.787303, 53.542315) rotate(-90.000000) translate(-52.787303, -53.542315) " points="-0.504471533 50.6375654 106.079078 50.6375654 106.079078 56.4470649 -0.504471533 56.4470649"></polygon>
                        </g>
                        <path d="M32.534857,134.083897 L27.7577886,148.726874 L25.8970889,154.42561 C22.9641216,152.872618 20.046093,150.984112 17.2791113,148.726874 C12.941905,145.18738 8.97650664,140.741004 5.91407048,135.259853 C5.57877937,134.661909 5.25510725,134.052339 4.94471399,133.431142 L32.0617978,133.431142 C32.4004086,133.431142 32.6410878,133.761672 32.534857,134.083897 Z" id="Path" fill="#E7F0F8" fill-rule="nonzero"></path>
                        <path d="M324.608274,116.417982 L324.608274,117.416216 C323.937692,122.355895 322.224719,127.468314 319.203779,132.708626 C317.585419,135.517301 315.590271,138.362517 313.178498,141.237629 C305.946502,149.857985 298.624872,156.033415 291.283325,160.797033 L263.001021,160.797033 L263.001021,116.736885 C263.001021,116.560824 263.150409,116.417982 263.332993,116.417982 L324.608274,116.417982 L324.608274,116.417982 Z" id="Path" fill="#DCE8F4" fill-rule="nonzero"></path>
                        <path d="M253.026941,164.117281 L214.50332,164.117281 C214.320735,164.117281 214.171348,163.967796 214.171348,163.78509 L214.171348,112.941604 C214.171348,112.758899 214.320735,112.609413 214.50332,112.609413 L253.026941,112.609413 C253.209525,112.609413 253.358912,112.758899 253.358912,112.941604 L253.358912,163.78509 C253.358912,163.969456 253.209525,164.117281 253.026941,164.117281 Z" id="Path" fill="#C4D7E6" fill-rule="nonzero"></path>
                        <path d="M248.487232,165.778236 L200.050945,165.778236 C199.868361,165.778236 199.718973,165.62875 199.718973,165.446045 L199.718973,135.517301 C199.718973,135.334596 199.868361,135.18511 200.050945,135.18511 L248.487232,135.18511 C248.669816,135.18511 248.819203,135.334596 248.819203,135.517301 L248.819203,165.446045 C248.819203,165.630411 248.669816,165.778236 248.487232,165.778236 Z" id="Path" fill="#DCE8F4" fill-rule="nonzero"></path>
                        <path d="M269.331716,169.930623 L239.608657,169.930623 C239.426073,169.930623 239.276685,169.781137 239.276685,169.598432 L239.276685,127.803827 C239.276685,127.621122 239.426073,127.471636 239.608657,127.471636 L269.331716,127.471636 C269.5143,127.471636 269.663687,127.621122 269.663687,127.803827 L269.663687,169.598432 C269.663687,169.782798 269.5143,169.930623 269.331716,169.930623 Z" id="Path" fill="#E7F0F8" fill-rule="nonzero"></path>
                        <g transform="translate(129.800817, 5.148960)" fill="#DCE8F4" fill-rule="nonzero" id="Path">
                            <path d="M27.4424157,0.237516534 L27.4424157,7.3912488 C27.2797497,7.3763002 27.113764,7.36301257 26.9444586,7.35138588 L26.9444586,0.116266835 C27.1104443,0.15612975 27.27643,0.195992665 27.4424157,0.237516534 Z"></path>
                            <path d="M26.9444586,126.426895 L27.4424157,126.426895 L27.4424157,109.096493 C27.2847293,108.757658 27.1187436,108.433772 26.9444586,108.123174 L26.9444586,126.426895 Z"></path>
                            <path d="M2.54290092,20.095892 C-5.61031665,37.5242905 9.21386619,41.4175685 5.6933095,52.1722508 C2.17275281,62.9252721 1.8026047,75.6265933 7.1755618,89.1152071 C11.8215015,100.778432 22.2769408,99.7934854 26.9444586,108.124835 L26.9444586,7.35138588 C19.7257406,6.82984608 8.11670072,8.18020232 2.54290092,20.095892 Z"></path>
                        </g>
                        <path d="M152.358274,49.9017256 L148.037666,131.484503 L157.673136,131.484503 L153.352528,49.9017256 C153.32763,49.410083 152.383172,49.410083 152.358274,49.9017256 Z" id="Path" fill="#D1E3ED" fill-rule="nonzero"></path>
                        <path d="M157.243233,5.38647637 L157.243233,131.575855 L156.745276,131.575855 L156.745276,5.26522667 C156.911261,5.30508959 157.077247,5.3449525 157.243233,5.38647637 Z" id="Path" fill="#C3D6E5" fill-rule="nonzero"></path>
                        <path d="M156.745276,131.509417 L156.745276,113.182442 C153.384065,116.868101 150.54903,118.261642 144.691394,119.263197 C138.206333,120.374376 127.845506,117.359743 119.878192,123.070106 C113.346655,127.750676 112.543284,129.660774 109.198672,131.507756 L156.745276,131.507756 L156.745276,131.509417 Z" id="Path" fill="#DCE8F4" fill-rule="nonzero"></path>
                        <path d="M114.233018,0.842104076 L114.233018,131.575855 L113.735061,131.575855 L113.735061,0.903559404 C113.901047,0.881966991 114.067033,0.862035534 114.233018,0.842104076 Z" id="Path" fill="#C3D6E5" fill-rule="nonzero"></path>
                        <g transform="translate(172.293156, 51.655694)" id="Path" stroke="#D1E3ED" stroke-width="3">
                            <polyline points="7.59550562 0.601265633 7.59550562 0.102979197 7.09754852 0.102979197"></polyline>
                            <path d="M6.18130746,0.102979197 L1.14032176,0.102979197" stroke-dasharray="5.5216,5.5216"></path>
                            <polyline points="0.682201226 0.102979197 0.184244127 0.102979197 0.184244127 0.601265633"></polyline>
                            <path d="M0.184244127,1.67424242 L0.184244127,11.8708439" stroke-dasharray="6.4619,6.4619"></path>
                            <polyline points="0.184244127 12.4073323 0.184244127 12.9056187 0.682201226 12.9056187"></polyline>
                            <path d="M1.59844229,12.9056187 L6.63942799,12.9056187" stroke-dasharray="5.5216,5.5216"></path>
                            <polyline points="7.09754852 12.9056187 7.59550562 12.9056187 7.59550562 12.4073323"></polyline>
                            <path d="M7.59550562,11.3343555 L7.59550562,1.13775403" stroke-dasharray="6.4619,6.4619"></path>
                        </g>
                        <g transform="translate(180.758427, 54.645412)" id="Path" stroke="#D1E3ED" stroke-width="3">
                            <polyline points="5.37627681 0.62119709 5.37627681 0.122910654 4.87831971 0.122910654"></polyline>
                            <path d="M4.02681307,0.122910654 L1.05234934,0.122910654" stroke-dasharray="5.1218,5.1218"></path>
                            <polyline points="0.627425945 0.122910654 0.129468846 0.122910654 0.129468846 0.62119709"></polyline>
                            <path d="M0.129468846,1.5978385 L0.129468846,8.92929293" stroke-dasharray="5.8844,5.8844"></path>
                            <polyline points="0.129468846 9.41761364 0.129468846 9.91590007 0.627425945 9.91590007"></polyline>
                            <path d="M1.47727273,9.91590007 L4.45173647,9.91590007" stroke-dasharray="5.1218,5.1218"></path>
                            <polyline points="4.87831971 9.91590007 5.37627681 9.91590007 5.37627681 9.41761364"></polyline>
                            <path d="M5.37627681,8.43931127 L5.37627681,1.1095178" stroke-dasharray="5.8844,5.8844"></path>
                        </g>
                        <g transform="translate(192.045455, 52.153980)" id="Path" stroke="#D1E3ED" stroke-width="3">
                            <polyline points="5.3497191 0.611231361 5.3497191 0.112944925 4.851762 0.112944925"></polyline>
                            <path d="M4.00191522,0.112944925 L1.02745148,0.112944925" stroke-dasharray="5.1218,5.1218"></path>
                            <polyline points="0.600868233 0.112944925 0.102911134 0.112944925 0.102911134 0.611231361"></polyline>
                            <path d="M0.102911134,1.62275283 L0.102911134,11.2346982" stroke-dasharray="6.0917,6.0917"></path>
                            <polyline points="0.102911134 11.7396284 0.102911134 12.2379149 0.600868233 12.2379149"></polyline>
                            <path d="M1.45237487,12.2379149 L4.42683861,12.2379149" stroke-dasharray="5.1218,5.1218"></path>
                            <polyline points="4.851762 12.2379149 5.3497191 12.2379149 5.3497191 11.7396284"></polyline>
                            <path d="M5.3497191,10.728107 L5.3497191,1.11616162" stroke-dasharray="6.0917,6.0917"></path>
                        </g>
                        <g transform="translate(186.899898, 49.828644)" id="Path" stroke="#D1E3ED" stroke-width="3">
                            <polyline points="4.30068948 0.606248497 4.30068948 0.107962061 3.80273238 0.107962061"></polyline>
                            <path d="M2.77860061,0.107962061 L1.23991318,0.107962061" stroke-dasharray="6.1766,6.1766"></path>
                            <polyline points="0.728677222 0.107962061 0.230720123 0.107962061 0.230720123 0.606248497"></polyline>
                            <path d="M0.230720123,1.65431097 L0.230720123,13.7095208" stroke-dasharray="6.3115,6.3115"></path>
                            <polyline points="0.230720123 14.2343825 0.230720123 14.732669 0.728677222 14.732669"></polyline>
                            <path d="M1.75280899,14.732669 L3.29149642,14.732669" stroke-dasharray="6.1766,6.1766"></path>
                            <polyline points="3.80273238 14.732669 4.30068948 14.732669 4.30068948 14.2343825"></polyline>
                            <path d="M4.30068948,13.18632 L4.30068948,1.12944925" stroke-dasharray="6.3115,6.3115"></path>
                        </g>
                        <rect id="Rectangle" fill="#C4D7E6" fill-rule="nonzero" x="209.888917" y="69.761762" width="2.90308989" height="16.0282137"></rect>
                        <g transform="translate(205.490296, 69.594006)" id="Path" stroke="#D1E3ED" stroke-width="3">
                            <polyline points="0.19918284 0.666042869 0.19918284 0.167756433 0.697139939 0.167756433"></polyline>
                            <path d="M1.33286517,0.167756433 L2.28562308,0.167756433" stroke-dasharray="3.8294,3.8294"></path>
                            <polyline points="2.60431563 0.167756433 3.10227273 0.167756433 3.10227273 0.666042869"></polyline>
                            <path d="M3.10227273,1.66759861 L3.10227273,15.1977363" stroke-dasharray="6.0336,6.0336"></path>
                            <polyline points="3.10227273 15.6976837 3.10227273 16.1959701 2.60431563 16.1959701"></polyline>
                            <path d="M1.9685904,16.1959701 L1.01583248,16.1959701" stroke-dasharray="3.8294,3.8294"></path>
                            <polyline points="0.697139939 16.1959701 0.19918284 16.1959701 0.19918284 15.6976837"></polyline>
                            <path d="M0.19918284,14.6961279 L0.19918284,1.16599026" stroke-dasharray="6.0336,6.0336"></path>
                        </g>
                        <rect id="Rectangle" fill="#C4D7E6" fill-rule="nonzero" x="201.551456" y="73.2680375" width="2.90308989" height="12.5219381"></rect>
                        <rect id="Rectangle" fill="#C4D7E6" fill-rule="nonzero" x="189.530771" y="121.229768" width="16.1819459" height="7.04078734"></rect>
                        <g transform="translate(194.203269, 115.934644)" id="Path" stroke="#D1E3ED" stroke-width="3">
                            <polyline points="0.146067416 0.744107744 0.146067416 0.245821308 0.644024515 0.245821308"></polyline>
                            <path d="M1.62334014,0.245821308 L8.97650664,0.245821308" stroke-dasharray="5.907,5.907"></path>
                            <polyline points="9.46782431 0.245821308 9.96578141 0.245821308 9.96578141 0.744107744"></polyline>
                            <path d="M9.96578141,1.62109187 L9.96578141,4.69053632" stroke-dasharray="5.2809,5.2809"></path>
                            <polyline points="9.96578141 5.12902838 9.96578141 5.62731481 9.46782431 5.62731481"></polyline>
                            <path d="M8.48684883,5.62731481 L1.13368233,5.62731481" stroke-dasharray="5.907,5.907"></path>
                            <polyline points="0.644024515 5.62731481 0.146067416 5.62731481 0.146067416 5.12902838"></polyline>
                            <path d="M0.146067416,4.25204425 L0.146067416,1.18259981" stroke-dasharray="5.2809,5.2809"></path>
                        </g>
                        <g transform="translate(243.667007, 74.078583)" id="Path" stroke="#D1E3ED" stroke-width="3">
                            <polyline points="9.10763534 0.612892316 9.10763534 0.11460588 8.60967824 0.11460588"></polyline>
                            <path d="M7.71999489,0.11460588 L1.03409091,0.11460588" stroke-dasharray="5.3695,5.3695"></path>
                            <polyline points="0.589249234 0.11460588 0.0912921348 0.11460588 0.0912921348 0.612892316"></polyline>
                            <path d="M0.0912921348,1.57624609 L0.0912921348,10.7314289" stroke-dasharray="5.8023,5.8023"></path>
                            <polyline points="0.0912921348 11.2131058 0.0912921348 11.7113922 0.589249234 11.7113922"></polyline>
                            <path d="M1.48059244,11.7113922 L8.16483657,11.7113922" stroke-dasharray="5.3695,5.3695"></path>
                            <polyline points="8.60967824 11.7113922 9.10763534 11.7113922 9.10763534 11.2131058"></polyline>
                            <path d="M9.10763534,10.249752 L9.10763534,1.0945692" stroke-dasharray="5.8023,5.8023"></path>
                        </g>
                        <rect id="Rectangle" fill="#C4D7E6" fill-rule="nonzero" x="253.770557" y="78.0831454" width="9.01800306" height="7.70683021"></rect>
                        <g transform="translate(282.341675, 75.905634)" id="Path" stroke="#D1E3ED" stroke-width="3">
                            <polyline points="15.971144 0.677669553 15.971144 0.179383117 15.4731869 0.179383117"></polyline>
                            <path d="M14.4822523,0.179383117 L1.11044433,0.179383117" stroke-dasharray="5.9679,5.9679"></path>
                            <polyline points="0.614147089 0.179383117 0.11618999 0.179383117 0.11618999 0.677669553"></polyline>
                            <path d="M0.11618999,1.64434524 L0.11618999,8.90271765" stroke-dasharray="5.8259,5.8259"></path>
                            <polyline points="0.11618999 9.3860555 0.11618999 9.88434193 0.614147089 9.88434193"></polyline>
                            <path d="M1.60508172,9.88434193 L14.9785495,9.88434193" stroke-dasharray="5.9679,5.9679"></path>
                            <polyline points="15.4731869 9.88434193 15.971144 9.88434193 15.971144 9.3860555"></polyline>
                            <path d="M15.971144,8.41937981 L15.971144,1.1610074" stroke-dasharray="5.8259,5.8259"></path>
                        </g>
                        <g transform="translate(265.743105, 50.659121)" id="Path" stroke="#D1E3ED" stroke-width="3">
                            <polyline points="20.3747446 2.95483856 20.3747446 3.453125 19.8767875 3.453125"></polyline>
                            <path d="M18.8626149,3.453125 L1.11044433,3.453125" stroke-dasharray="6.1117,6.1117"></path>
                            <polyline points="0.60252809 3.453125 0.104570991 3.453125 0.104570991 2.95483856"></polyline>
                            <path d="M0.104570991,2.17418981 L0.104570991,1.00155574" stroke-dasharray="4.7031,4.7031"></path>
                            <polyline points="0.104570991 0.611231361 0.104570991 0.112944925 0.60252809 0.112944925"></polyline>
                            <path d="M1.61670072,0.112944925 L19.3705312,0.112944925" stroke-dasharray="6.1117,6.1117"></path>
                            <polyline points="19.8767875 0.112944925 20.3747446 0.112944925 20.3747446 0.611231361"></polyline>
                            <path d="M20.3747446,1.39188011 L20.3747446,2.56451419" stroke-dasharray="4.7031,4.7031"></path>
                        </g>
                        <rect id="Rectangle" fill="#DCE8F4" fill-rule="nonzero" transform="translate(280.776845, 56.332644) rotate(-180.000000) translate(-280.776845, -56.332644) " x="269.960387" y="54.0812193" width="21.6329162" height="4.50284842"></rect>
                        <rect id="Rectangle" fill="#C4D7E6" fill-rule="nonzero" transform="translate(275.663705, 61.681084) rotate(-180.000000) translate(-275.663705, -61.681084) " x="265.098716" y="58.800158" width="21.1299796" height="5.76185215"></rect>
                        <path d="M199.740552,135.186771 L196.613381,143.644353 C196.533708,143.861938 196.693054,144.09115 196.925434,144.09115 L246.722804,144.09115 L246.722804,135.186771 L199.740552,135.186771 L199.740552,135.186771 Z" id="Path" fill="#DCE8F4" fill-rule="nonzero"></path>
                        <path d="M262.969484,116.60567 L259.842314,124.736043 C259.76264,124.945324 259.921987,125.166231 260.154367,125.166231 L309.951736,125.166231 L309.951736,116.60567 L262.969484,116.60567 L262.969484,116.60567 Z" id="Path" fill="#DCE8F4" fill-rule="nonzero"></path>
                        <rect id="Rectangle" fill="#E7F0F8" fill-rule="nonzero" x="239.276685" y="131.298476" width="13.127809" height="17.4034842"></rect>
                        <path d="M215.30835,153.732992 L184.833376,153.732992" id="Path" fill="#DBDBDB" fill-rule="nonzero"></path>
                        <g id="Pflanze_1_" transform="translate(243.003064, 48.001593)" fill="#C4D7E6" fill-rule="nonzero">
                            <path d="M7.90091931,11.3609307 C7.90091931,11.3609307 11.5758427,6.72354497 10.6048264,1.62773569 C10.5699694,1.44835257 10.2230592,1.37527056 10.0471144,1.5098079 C9.46284474,1.95494378 8.41713483,2.85850319 7.46935649,4.21882516 C7.19050051,2.96148238 6.72242084,1.62939665 5.96884576,0.302293771 C5.84269663,0.0813867845 5.39785495,0.0664381914 5.24348825,0.279040404 C4.77706844,0.923490861 4.03013279,2.17252886 3.63508682,3.94310666 C2.54290092,2.8103355 1.42083759,2.09944685 0.783452503,1.74566348 C0.580949949,1.63271855 0.210801839,1.75064634 0.189223698,1.93501233 C-0.302093973,6.1787518 2.48314607,10.2281596 3.56205312,11.425708 C3.5587334,11.4223861 7.90091931,11.3609307 7.90091931,11.3609307 Z" id="Path"></path>
                            <polygon id="Path" points="9.71348315 10.6085182 1.09550562 10.6085182 2.60597549 16.5979212 8.20301328 16.5979212"></polygon>
                        </g>
                    </g>
                    <g id="Group" transform="translate(90.746753, 34.821429)" fill-rule="nonzero">
                        <path d="M97.726707,70.6593112 C97.7564443,71.8283163 97.7927899,72.6872449 97.8192231,73.3571429 C97.8886101,75.0235969 94.5382067,79.4044643 94.3994326,80.7757653 C93.2231569,86.69375 86.1522858,88.8841837 85.6930096,89.1179847 C85.6434475,89.1428571 85.5905811,89.1577806 85.5393669,89.1610969 C85.3774638,89.1743622 85.2155606,89.0897959 85.1379132,88.9339286 C85.0354847,88.7299745 85.1164363,88.4795918 85.3212933,88.3767857 C85.4303301,88.3220663 92.5325905,86.0686224 93.5800046,80.6746173 C93.7319953,79.371301 97.0642259,75.0567602 96.9948388,73.3919643 C96.9700577,72.7817602 96.9370163,72.0140306 96.908931,70.9992347" id="Path" fill="#2A404D"></path>
                        <path d="M90.8540847,68.026148 L89.8496245,70.098852 C89.8496245,70.098852 90.0396128,72.2014031 92.089835,72.7602041 C93.8344238,73.2360969 95.7161346,73.5478316 96.7305072,73.6290816 C96.9865784,73.6506378 97.2211728,73.4831633 97.2839515,73.2327806 L97.9893866,70.4271684 C98.0240801,70.2878827 97.9745179,70.138648 97.8572207,70.057398 C97.7052301,69.9512755 97.4293339,69.8418367 96.93206,69.8302296 C95.9573372,69.8086735 93.6411313,68.5965561 93.6411313,68.5965561 L90.8540847,68.026148 Z" id="Path" fill="#D3A095"></path>
                        <ellipse id="Oval" fill="#B8CDD9" cx="69.6794692" cy="148.141964" rx="17.6689173" ry="2.70280612"></ellipse>
                        <path d="M46.3224657,71.8001276 L68.0505255,71.8001276 C68.0505255,71.8001276 67.9728781,75.7913265 68.6419676,77.2521684 C69.311057,78.7130102 76.3918405,99.6440051 76.3918405,103.927041 C76.3918405,108.210077 73.9665978,137.222959 73.9665978,137.222959 L70.1833514,137.222959 C70.1833514,137.222959 69.1062,129.686607 68.6419676,127.098214 C68.1992121,124.6375 65.4319904,117.265306 68.5428432,107.399235 C68.5428432,107.399235 60.1932679,96.138648 57.5747327,91.7577806 C54.9561975,87.3769133 45.3526991,81.1471939 46.3224657,71.8001276 Z" id="Path" fill="#D3A095"></path>
                        <path d="M73.8674734,93.1423469 L62.1889717,98.6225765 C63.219865,100.08176 64.2689312,101.542602 65.2106126,102.84426 C66.8395563,102.442985 68.9228199,101.829464 70.6475838,100.992092 C73.0513495,99.8264031 74.4110053,98.0455357 74.9974911,97.1086735 C74.6571642,95.8534439 74.2722312,94.5119898 73.8674734,93.1423469 Z" id="Path" fill="#AA807A"></path>
                        <path d="M46.3224657,71.8001276 L68.0505255,71.8001276 C68.0505255,71.8001276 54.7315156,98.2577806 43.8394005,107.55676 C42.2468024,108.916454 39.9421611,109.017602 38.2487866,107.787245 C37.2327619,107.047704 35.7855462,105.248597 34.8769062,104.512372 C30.0264209,99.2559949 17.2278139,87.5626276 17.2278139,87.5626276 L19.8744343,83.9793367 C19.8744343,83.9793367 23.140582,86.8910714 25.2750599,87.9605867 C27.4095377,89.030102 37.6424759,93.1688776 39.3887167,97.8415816 C39.3870646,97.8432398 46.8081751,83.1917092 46.3224657,71.8001276 Z" id="Path" fill="#D3A095"></path>
                        <path d="M42.7308597,89.9454082 C42.464876,90.6733418 42.2005444,91.3681122 41.9428211,92.0214286 C42.4599198,92.7427296 44.4077135,95.3543367 46.6941821,97.0357143 C48.4767685,98.3473214 50.0644103,99.2875 50.9251402,99.7683673 C51.4290224,99.1117347 51.9312525,98.4401786 52.4301784,97.7553571 L42.7308597,89.9454082 Z" id="Path" fill="#AA807A"></path>
                        <path d="M54.7017783,100.093367 C56.0944756,97.6691327 67.8671455,77.0216837 68.0505255,71.8017857 L46.3224657,71.8017857 C46.3224657,71.8017857 43.1537903,86.3952806 41.3844205,89.7232143 C41.3216417,89.842602 41.3315542,89.9835459 41.4108537,90.0929847 C42.3062771,91.3200255 47.6953381,98.383801 54.308585,100.257526 C54.4605757,100.29898 54.6224788,100.230995 54.7017783,100.093367 Z" id="Path" fill="#0B283A"></path>
                        <g transform="translate(69.387052, 141.441327)" fill="#334F61">
                            <ellipse id="Oval" cx="9.49280959" cy="2.35127551" rx="1.69998278" ry="1.70625"></ellipse>
                            <ellipse id="Oval" cx="1.77102191" cy="2.35127551" rx="1.69998278" ry="1.70625"></ellipse>
                            <path d="M9.62001919,0.177423469 L9.62001919,0.155867347 L9.49280959,0.16747449 L9.36559999,0.155867347 L9.36559999,0.177423469 L8.13315378,0.283545918 C8.13315378,0.283545918 8.65686082,0.462627551 8.77911419,1.83061224 C8.80059114,2.06607143 8.99883986,2.24515306 9.23343418,2.24515306 L9.36394792,2.24515306 L9.61836711,2.24515306 L10.1817239,2.24515306 C10.2246778,0.49744898 10.8508133,0.283545918 10.8508133,0.283545918 L9.62001919,0.177423469 Z" id="Path"></path>
                            <path d="M1.8982315,0.177423469 L1.8982315,0.155867347 L1.77102191,0.16747449 L1.64381231,0.155867347 L1.64381231,0.177423469 L0.411366096,0.283545918 C0.411366096,0.283545918 1.03750164,0.49744898 1.08045553,2.24515306 L1.64381231,2.24515306 L1.8982315,2.24515306 L2.46158829,2.24515306 C2.50454217,0.49744898 3.13067772,0.283545918 3.13067772,0.283545918 L1.8982315,0.177423469 Z" id="Path"></path>
                        </g>
                        <path d="M68.2041683,75.308801 L75.6467557,94.6031888 C75.6880575,94.7126276 75.6748409,94.8353316 75.607106,94.9298469 C74.8091549,96.0590561 69.5324347,102.963648 60.4873368,102.192602 C60.3667355,102.182653 60.2593508,102.108036 60.2048324,101.998597 C59.4960932,100.565944 54.6010019,90.7728316 51.3678957,86.9872449 C47.875414,82.8982143 45.1594066,78.1276786 46.3241178,71.8001276 C46.3224657,71.8001276 53.7121868,77.1642857 68.2041683,75.308801 Z" id="Path" fill="#15374D"></path>
                        <path d="M61.7825618,37.0931122 C61.7825618,37.0931122 58.5940616,34.3670918 58.5444994,31.301148 L54.8587252,24.7779337 L50.5914215,27.1142857 C50.5914215,27.1142857 50.147014,31.1883929 49.5737448,32.3225765 C49.0004755,33.4567602 52.6779893,38.6501276 52.6779893,38.6501276 L61.0193042,39.0878827 L61.7825618,37.0931122 Z" id="Path" fill="#D3A095"></path>
                        <path d="M47.6573404,23.0484694 C47.8010708,23.0733418 49.6844336,31.3193878 58.2190411,31.8931122 C63.969906,30.9429847 64.5051776,17.6743622 62.626771,13.9468112 C60.7483643,10.2192602 57.2261454,4.58316327 50.1668388,8.21951531 C43.1075323,11.8558673 47.6573404,23.0484694 47.6573404,23.0484694 Z" id="Path" fill="#D3A095"></path>
                        <path d="M95.7310032,68.8784439 L95.681441,69.6179847 C95.681441,69.6179847 94.5976814,69.0857143 94.2292692,69.0873724 C93.8592049,69.0890306 95.7310032,68.8784439 95.7310032,68.8784439 Z" id="Path" fill="#2A404D"></path>
                        <path d="M92.1559179,68.2068878 C92.1377451,68.2002551 92.1228765,68.1936224 92.1047037,68.1869898 C92.0832267,68.077551 92.0386208,67.986352 91.9675817,67.9233418 C91.9593213,67.8686224 91.908107,67.8139031 91.7990702,67.7591837 C91.1481536,67.4358418 88.1281648,65.4725765 88.1281648,65.4725765 C88.1281648,65.4725765 79.9157115,59.3473214 76.3918405,58.1219388 C76.3918405,58.1219388 71.493445,49.4082908 69.6018218,48.0950255 C67.7101986,46.7817602 69.6018218,60.6539541 69.6018218,60.6539541 C69.6018218,60.6539541 73.0943034,63.719898 75.3246015,64.8889031 C77.449167,66.0015306 86.7453799,70.0723214 88.6303949,70.626148 L90.2775113,71.2147959 L90.520366,71.0406888 L90.6013176,71.0589286 L92.1542659,70.6891582 C92.1559179,70.6891582 93.4874885,67.9979592 92.1559179,68.2068878 Z" id="Path" fill="#D3A095"></path>
                        <path d="M68.9955111,55.1621173 C69.2449741,58.0241071 69.6034739,60.6539541 69.6034739,60.6539541 C69.6034739,60.6539541 70.4162936,61.3669643 71.5066616,62.2358418 C72.7473682,58.4204082 73.1736029,54.6315051 73.3090729,52.9667092 C72.7242391,52.0447704 72.1162764,51.1278061 71.5463113,50.3318878 L68.9955111,55.1621173 Z" id="Path" fill="#AA807A"></path>
                        <path d="M96.930408,69.8318878 C95.9556851,69.8103316 93.6394792,68.5982143 93.6394792,68.5982143 L93.5304424,68.5766582 L92.5325905,70.2082908 C92.5325905,70.2082908 92.6482356,70.3873724 92.9819543,70.2431122 C93.315673,70.098852 93.7881657,69.7108418 93.7881657,69.7108418 C95.0883469,70.1751276 97.0196199,69.8451531 97.0592696,69.8385204 C97.0196199,69.8352041 96.976666,69.8318878 96.930408,69.8318878 Z" id="Path" fill="#AA807A"></path>
                        <path d="M93.4147973,72.0521684 C93.4147973,72.0521684 93.3933204,72.6822704 93.5188779,73.1100765 C93.8410321,73.1797194 94.15823,73.2443878 94.4638635,73.3024235 L94.475428,73.2609694 L93.4445346,72.0455357 L93.4147973,72.0521684 Z" id="Path" fill="#AA807A"></path>
                        <path d="M96.6082538,69.9927296 C95.8714294,70.342602 95.1726026,71.184949 94.3366539,72.1881378 C92.7539683,74.0883929 90.588101,76.6917092 86.5240022,77.8010204 C83.2545504,78.6947704 81.1299849,79.940051 79.9239719,80.8288265 C78.6188344,81.7889031 78.0769546,82.5483418 78.0719984,82.5566327 C77.9976551,82.6610969 77.8836621,82.722449 77.7647129,82.7307398 C77.6721968,82.7373724 77.5780287,82.7141582 77.4970771,82.6577806 C77.3103929,82.5267857 77.2641349,82.2697704 77.3946486,82.082398 C77.4871647,81.9497449 79.7372876,78.7975765 86.3059286,77.0017857 C90.1189123,75.9604592 92.1047037,73.5743622 93.7006059,71.6575255 C94.5497713,70.6377551 95.2733791,69.7655612 96.1010675,69.316199" id="Path" fill="#2A404D"></path>
                        <path d="M97.8555687,70.0590561 C97.703578,69.9529337 97.4276819,69.8434949 96.930408,69.8318878 C96.7817214,69.8285714 96.6016455,69.7970663 96.4033968,69.7473214 C94.6439394,69.6461735 93.7534722,70.1668367 93.4461867,71.8747449 C93.3338458,72.4982143 93.6840852,72.9409439 94.2160526,73.2559949 C95.2188607,73.4533163 96.1258486,73.5826531 96.7288551,73.6307398 C96.9849264,73.6522959 97.2195207,73.4848214 97.2822995,73.2344388 L97.9877345,70.4288265 C98.0240801,70.2895408 97.9728658,70.1403061 97.8555687,70.0590561 Z" id="Path" fill="#D3A095"></path>
                        <path d="M61.7825618,37.0931122 C61.7825618,37.0931122 70.6046299,48.7931122 72.6036378,50.192602 C72.6994581,50.2605867 72.7523244,50.3716837 72.7473682,50.4894133 C72.6961539,51.6733418 72.33435,57.8102041 70.2444781,62.9985969 C70.1635265,63.1992347 69.9206718,63.2755102 69.7372917,63.1610969 L64.8967188,60.1183673 L61.7825618,37.0931122 Z" id="Path" fill="#FAFAFA"></path>
                        <path d="M68.8170873,62.5459184 C68.742744,60.7866071 68.8286518,57.8267857 67.834104,52.2735969 C67.0295446,47.7799745 65.0074077,43.7257653 63.8080029,41.1058673 C62.854757,39.0265306 61.28694,40.1806122 61.28694,40.1806122 L64.8983709,60.1183673 L68.8170873,62.5459184 Z" id="Path" fill="#DBDBDB"></path>
                        <path d="M49.5720927,32.3225765 C49.5720927,32.3225765 54.7579488,37.4330357 61.7825618,37.0931122 C61.7825618,37.0931122 67.4194338,46.5860969 67.857233,56.7108418 C68.2438181,65.669898 68.491629,73.3355867 68.5430697,74.983801 C68.5494515,75.1678571 68.4106774,75.3237245 68.2272973,75.3403061 L62.2484463,75.897449 C59.0665543,76.2108418 55.8631854,76.2290816 52.6763372,75.9538265 L45.5245146,75.3635204 C45.3328742,75.3469388 45.1891439,75.1778061 45.2073167,74.9854592 C45.4171299,72.6391582 46.601666,59.0670918 46.4695002,52.233801 C46.3224657,44.7355867 45.5459916,36.9952806 49.5720927,32.3225765 Z" id="Path" fill="#FAFAFA"></path>
                        <path d="M51.351375,35.0502551 L46.464544,41.1357143 C46.1622147,44.6145408 46.3951569,48.4531888 46.4695002,52.2304847 C46.4860209,53.0960459 46.4827168,54.0710459 46.4612398,55.1156888 L48.2752156,52.6383929 C48.37434,52.5040816 48.5577201,52.4642857 48.7031025,52.5455357 L49.7406041,53.1292092 C49.8810303,53.2071429 50.0544979,53.1756378 50.1569264,53.0512755 C50.5385552,52.5853316 51.5859693,51.1410714 54.0046037,46.9193878 C57.2773596,41.203699 53.5866293,35.6969388 53.5866293,35.6969388 L51.351375,35.0502551 Z" id="Path" fill="#DBDBDB"></path>
                        <path d="M51.6239669,74.2044643 C51.6239669,74.2044643 44.8620335,60.4267857 43.0199725,58.3325255 C43.0199725,58.3325255 51.4587597,48.5477041 52.671381,44.11875 C53.8840024,39.6897959 52.5788649,35.5410714 49.762081,34.2858418 C46.9452971,33.0306122 43.2628271,40.371301 40.4014373,46.1151786 C37.5400474,51.8590561 34.4358028,56.2896684 37.7829021,61.6438776 C41.1300013,66.9980867 45.397305,73.2841837 47.8225477,75.227551 L51.6239669,74.2044643 Z" id="Path" fill="#D3A095"></path>
                        <path d="M39.6646128,45.4618622 C40.6393357,46.3605867 45.5988579,50.8243622 49.3705398,52.1906888 C49.5010536,52.2371173 49.6447839,52.2006378 49.738952,52.0978316 C50.9234881,50.8144133 58.3016447,42.3677296 53.5849772,35.6985969 C53.5849772,35.6985969 49.3887126,31.382398 45.2667913,34.6920918 C42.1575905,38.4196429 40.009896,43.9230867 39.5754009,45.083801 C39.5258387,45.2164541 39.5605323,45.3656888 39.6646128,45.4618622 Z" id="Path" fill="#FAFAFA"></path>
                        <path d="M51.6289232,74.2061224 C51.6289232,74.2061224 53.2843,75.6901786 53.3735119,76.4396684 C53.4627238,77.1891582 54.1780713,77.7114796 54.3564951,78.1227041 C54.534919,78.5339286 55.0767988,79.3364796 54.5597001,80.1108418 C54.0426013,80.8852041 51.6289232,77.9602041 51.6289232,77.9602041 L51.3183335,74.9141582 L51.6289232,74.2061224 Z" id="Path" fill="#D3A095"></path>
                        <path d="M47.9001951,87.2906888 L44.7678653,80.1091837 C44.6588285,79.8571429 44.7728216,79.563648 45.0239366,79.4542092 L56.8709498,74.2492347 C57.1220648,74.1397959 57.4144817,74.2542092 57.5235185,74.50625 L60.6558483,81.6877551 C60.7648851,81.9397959 60.650892,82.2332908 60.399777,82.3427296 L48.5527638,87.5477041 C48.3033009,87.6571429 48.010884,87.5427296 47.9001951,87.2906888 Z" id="Path" fill="#334F61"></path>
                        <path d="M47.9001951,87.2906888 L44.7678653,80.1091837 C44.6588285,79.8571429 44.7728216,79.563648 45.0239366,79.4542092 L56.8709498,74.2492347 C57.1220648,74.1397959 57.4144817,74.2542092 57.5235185,74.50625 L60.6558483,81.6877551 C60.7648851,81.9397959 60.650892,82.2332908 60.399777,82.3427296 L48.5527638,87.5477041 C48.3033009,87.6571429 48.010884,87.5427296 47.9001951,87.2906888 Z" id="Path" fill="#334F61"></path>
                        <path d="M90.8540847,68.026148 C90.8540847,68.026148 92.7688369,67.3811224 93.9137233,67.7177296 C95.0569576,68.0543367 95.5360586,68.8237245 95.9936828,68.9381378 C96.4513069,69.052551 97.3236013,69.1304847 96.9799702,69.8269133 C96.9799702,69.8269133 94.4456907,70.0491071 93.7121704,69.5019133 C93.7121704,69.5019133 93.3487144,70.1270408 92.3591229,70.5996173 C91.3728355,71.073852 89.5803366,69.5367347 90.8540847,68.026148 Z" id="Path" fill="#D3A095"></path>
                        <path d="M54.4011011,30.9860969 C54.4011011,30.9860969 56.2282935,32.5480867 59.0236005,33.3904337 C58.8071789,32.8813776 58.6452758,32.3441327 58.5791929,31.788648 C58.557716,31.7936224 56.9965073,32.1501276 54.4011011,30.9860969 Z" id="Path" fill="#AA807A"></path>
                        <path d="M46.0498737,6.6625 C46.0498737,6.6625 48.05549,-0.834056122 34.0855634,0.230484694 C22.7457366,1.09438776 23.8047152,5.78367347 17.7647375,6.80178571 C12.4450635,7.69885204 6.04328184,7.57780612 0.206509084,11.0964286 C-0.0958202151,11.2788265 0.0677349797,11.7464286 0.419626459,11.7066327 C2.11960924,11.5192602 5.14455431,11.7397959 9.55724042,14.066199 C14.5960621,16.7225765 20.2527589,16.3329082 24.6340557,15.0378827 C29.2846402,13.6616071 37.2658033,9.20778061 42.8448527,10.6653061 L43.9170479,10.4 L46.0036157,6.99910714 L46.0498737,6.6625 Z" id="Path" fill="#334F61"></path>
                        <path d="M46.3951569,7.5877551 C46.3951569,7.5877551 46.3951569,7.00905612 46.0498737,6.6625 C46.0498737,6.6625 43.8592254,8.07359694 42.8448527,10.6653061 C42.8448527,10.6653061 43.0761429,11.5441327 43.9054834,11.1279337 C43.9054834,11.1279337 45.0123721,8.60586735 46.3951569,7.5877551 Z" id="Path" fill="#2A404D"></path>
                        <g transform="translate(74.178063, 79.591837)">
                            <path d="M6.78506248,1.02142857 L6.42986685,0.509056122 C6.37700052,0.434438776 6.27457202,0.41619898 6.20022875,0.467602041 L5.7376484,0.790943878 L6.28283238,1.5752551 L6.74541273,1.25191327 C6.81810393,1.2005102 6.8379288,1.09604592 6.78506248,1.02142857 Z" id="Path" fill="#334F61"></path>
                            <path d="M8.48339319,2.36619898 L11.0887118,6.12028061 C11.1630551,6.22640306 11.1580988,6.37066327 11.0754952,6.47181122 L10.2048529,7.53966837 L6.85114538,2.70612245 L8.15132658,2.2567602 C8.27357996,2.21530612 8.40904991,2.25841837 8.48339319,2.36619898 Z" id="Path" fill="#334F61"></path>
                            <g>
                                <path d="M6.55542437,13.1193878 L0.21642152,3.98456633 C0.112340942,3.83367347 0.148686541,3.62806122 0.299025154,3.52359694 L5.05864653,0.195663265 C5.20898514,0.0911989796 5.41384216,0.127678571 5.51792273,0.278571429 L11.8569256,9.41339286 C11.9610062,9.56428571 11.9246606,9.76989796 11.774322,9.87436224 L7.01470058,13.2022959 C6.86601404,13.3067602 6.65950495,13.2702806 6.55542437,13.1193878 Z" id="Path" fill="#2A404D"></path>
                                <g transform="translate(3.138938, 3.813776)" id="Oval">
                                    <ellipse fill="#334F61" cx="2.89773547" cy="2.88520408" rx="2.75235308" ry="2.7625"></ellipse>
                                    <ellipse fill="#2A404D" cx="2.89773547" cy="2.88520408" rx="2.15099862" ry="2.15892857"></ellipse>
                                </g>
                            </g>
                        </g>
                        <g transform="translate(67.900187, 134.974490)">
                            <g>
                                <path d="M1.13827807,0.994897959 C1.19610062,0.615178571 1.50173406,0.323341837 1.88171078,0.285204082 C3.07946347,0.164158163 6.04658599,-0.0646683673 6.62811557,0.0232142857 C7.40293766,0.140943878 7.66892136,1.00484694 7.56318871,1.83558673 C7.45745605,2.66798469 8.00264004,4.82028061 12.6449643,6.59119898 C12.6449643,6.59119898 15.0883797,7.25280612 14.5894538,8.47818878 C14.5894538,8.47818878 14.4143341,9.23596939 14.3482512,9.73341837 C14.3234701,9.92410714 14.161567,10.0667092 13.9699265,10.0667092 L1.50173406,10.0667092 C1.36461203,10.0667092 1.23740243,9.99209184 1.16966745,9.87270408 L0.897075462,9.38520408 C0.897075462,9.38520408 0.0677349797,8.94744898 0.652568707,7.88125 C0.652568707,7.88125 -0.452667913,7.59272959 0.343631116,4.56492347 C0.842557064,2.67295918 1.045762,1.59515306 1.13827807,0.994897959 Z" id="Path" fill="#334F61"></path>
                                <path d="M11.2720919,9.96058673 L11.2720919,9.93903061 L11.1448823,9.95063776 L11.0176727,9.93903061 L11.0176727,9.96058673 L9.78522645,10.0667092 C9.78522645,10.0667092 10.3089335,10.2457908 10.4311869,11.6137755 C10.4526638,11.8492347 10.6509125,12.0283163 10.8855069,12.0283163 L11.0160206,12.0283163 L11.2704398,12.0283163 L11.8337966,12.0283163 C11.8767505,10.2806122 12.502886,10.0667092 12.502886,10.0667092 L11.2720919,9.96058673 Z" id="Path" fill="#334F61"></path>
                                <path d="M3.55030418,9.96058673 L3.55030418,9.93903061 L3.42309458,9.95063776 L3.29588499,9.93903061 L3.29588499,9.96058673 L2.06343877,10.0667092 C2.06343877,10.0667092 2.68957431,10.2806122 2.7325282,12.0283163 L3.29588499,12.0283163 L3.55030418,12.0283163 L4.11366096,12.0283163 C4.15661485,10.2806122 4.78275039,10.0667092 4.78275039,10.0667092 L3.55030418,9.96058673 Z" id="Path" fill="#334F61"></path>
                                <ellipse id="Oval" fill="#2A404D" cx="11.1448823" cy="12.1344388" rx="1.69998278" ry="1.70625"></ellipse>
                                <ellipse id="Oval" fill="#2A404D" cx="3.42309458" cy="12.1344388" rx="1.69998278" ry="1.70625"></ellipse>
                            </g>
                            <path d="M12.5045381,10.0667092 L13.9699265,10.0667092 C14.161567,10.0667092 14.321818,9.92410714 14.3482512,9.73341837 C14.4143341,9.23596939 14.5894538,8.47818878 14.5894538,8.47818878 C14.6191911,8.40357143 14.639016,8.33227041 14.6489284,8.26096939 C12.2550751,8.71862245 9.33916683,8.53622449 5.38410485,8.53622449 C1.41913043,8.53622449 0.652568707,7.88125 0.652568707,7.88125 C0.0677349797,8.94744898 0.897075462,9.38520408 0.897075462,9.38520408 L1.16966745,9.87270408 C1.23740243,9.99375 1.36461203,10.0667092 1.50173406,10.0667092 L12.5045381,10.0667092 L12.5045381,10.0667092 Z" id="Path" fill="#2A404D"></path>
                        </g>
                        <g transform="translate(3.469353, 75.612245)">
                            <g>
                                <path d="M16.6611529,7.39043367 C16.9056597,7.68392857 16.9238325,8.1067602 16.7008027,8.42015306 C16.0003239,9.40344388 14.2160854,11.7928571 13.7667216,12.1742347 C13.1670192,12.6816327 12.3459391,12.3118622 11.7924948,11.6834184 C11.2390504,11.0549745 9.26647563,10.0468112 4.87857061,12.3798469 C4.87857061,12.3798469 2.77217795,13.7859694 2.18404008,12.6003827 C2.18404008,12.6003827 1.73302424,11.9686224 1.40426177,11.5905612 C1.27870425,11.446301 1.27705218,11.2307398 1.40426177,11.0864796 L9.62993162,1.68303571 C9.72079562,1.57857143 9.85956972,1.53214286 9.99503968,1.5619898 L10.5402237,1.67806122 C10.5402237,1.67806122 11.4141701,1.34145408 11.8271883,2.48558673 C11.8271883,2.48558673 12.7721738,1.84056122 14.5134584,4.44056122 C15.6021743,6.0622449 16.2729158,6.9244898 16.6611529,7.39043367 Z" id="Path" fill="#334F61"></path>
                                <path d="M3.26284353,9.11989796 L3.27936426,9.13482143 L3.3553596,9.03201531 L3.44787567,8.94247449 L3.43135495,8.92755102 L4.16487521,7.92767857 C4.16487521,7.92767857 3.68577414,8.20625 2.58053752,7.39375 C2.39054916,7.25446429 2.12621753,7.28596939 1.9709227,7.46339286 L1.88501492,7.56288265 L1.71650351,7.75522959 L1.34478716,8.17971939 C2.62514348,9.36530612 2.37237636,9.97882653 2.37237636,9.97882653 L3.26284353,9.11989796 Z" id="Path" fill="#334F61"></path>
                                <path d="M8.35783566,3.29477041 L8.37435639,3.30969388 L8.45035173,3.20688776 L8.5428678,3.11734694 L8.52634707,3.10242347 L9.25986734,2.10255102 C9.25986734,2.10255102 8.68659812,2.43418367 7.35007133,1.31326531 L6.97835498,1.7377551 L6.80984357,1.93010204 L6.43812721,2.35459184 C7.71848354,3.54017857 7.46571642,4.15369898 7.46571642,4.15369898 L8.35783566,3.29477041 Z" id="Path" fill="#334F61"></path>
                                <ellipse id="Oval" fill="#2A404D" cx="1.71980765" cy="7.58941327" rx="1.69998278" ry="1.70625"></ellipse>
                                <ellipse id="Oval" fill="#2A404D" cx="6.81479978" cy="1.76428571" rx="1.69998278" ry="1.70625"></ellipse>
                            </g>
                            <path d="M2.37072429,9.98048469 L1.40426177,11.0864796 C1.27705218,11.2307398 1.27870425,11.446301 1.40426177,11.5905612 C1.73302424,11.9686224 2.18404008,12.6003827 2.18404008,12.6003827 C2.22038567,12.6716837 2.26168749,12.7346939 2.30794553,12.7877551 C3.54369589,10.6802296 5.60548259,8.60255102 8.21410534,5.61951531 C10.8293364,2.62818878 11.8255362,2.48227041 11.8255362,2.48227041 C11.412518,1.33813776 10.5385716,1.6747449 10.5385716,1.6747449 L9.99338761,1.55867347 C9.85956972,1.53048469 9.71914355,1.57691327 9.62827955,1.67971939 L2.37072429,9.98048469 L2.37072429,9.98048469 Z" id="Path" fill="#2A404D"></path>
                        </g>
                        <path d="M53.0497057,77.8938776 C52.853109,77.2869898 53.0877033,75.9505102 53.0959637,75.907398 L50.8260158,76.9039541 L50.6988062,78.5405612 C50.6988062,78.5405612 53.2496065,78.5107143 53.0497057,77.8938776 Z" id="Path" fill="#2A404D"></path>
                        <path d="M53.2743875,78.4543367 C52.5309548,76.8940051 52.8035468,76.0417092 52.8035468,76.0417092 L52.4186139,75.2391582 L51.7809138,75.2822704 C51.6652688,74.892602 51.6041421,74.526148 51.6239669,74.2028061 L49.6200028,74.038648 L47.8192436,75.2258929 C47.8192436,75.2258929 48.3908607,77.0631378 48.3908607,77.4660714 C48.3908607,77.8673469 49.3837564,81.5352041 53.1223969,81.9895408 C55.2915683,82.2531888 54.3862325,80.5005102 53.2743875,78.4543367 Z" id="Path" fill="#D3A095"></path>
                        <path d="M62.626771,13.9468112 C62.2699233,13.2371173 61.8519489,12.4594388 61.3629354,11.6883929 C59.8430285,11.4230867 58.6783173,11.2191327 58.489981,11.1809949 C57.9844467,11.0798469 49.3259339,15.3098214 46.2530787,16.8220663 C46.3075971,17.6229592 46.4166339,18.3989796 46.5521038,19.1153061 C47.896891,20.7917092 49.7356479,22.9058673 49.6381756,21.8247449 C49.4845328,20.1284439 50.2213572,17.8451531 51.851953,17.9380102 C53.3322101,18.0225765 61.785866,16.5783163 63.3222936,16.3130102 C63.1554342,15.346301 62.9208399,14.5304847 62.626771,13.9468112 Z" id="Path" fill="#AA807A"></path>
                        <path d="M61.0160001,10.3651786 C60.4592516,10.0899235 59.9586736,9.71352041 59.5390471,9.25586735 C58.2735595,7.87793367 55.1990522,5.18507653 50.8706218,5.69579082 C49.4366227,5.86492347 48.2289576,6.3059949 47.2261495,6.89795918 C46.3406385,7.48494898 45.6186828,8.26760204 45.0388053,9.08839286 C43.4660321,11.3186224 42.8118113,14.0628827 43.0464056,16.7855867 C43.2909124,19.6243622 44.2805039,23.4630102 47.8721099,26.578699 C49.4944453,27.2668367 51.260511,29.0443878 50.556728,25.4876276 C50.1057122,23.2093112 50.1288412,23.2507653 50.1321453,23.2590561 C50.1205808,23.227551 47.875414,16.8336735 51.9395128,16.8336735 C55.4336465,16.8336735 59.4514873,15.8653061 62.2897481,15.8968112 C62.9472731,15.9034439 63.5122819,15.4375 63.6609685,14.7941327 C64.1070281,12.8524235 63.5221943,11.6038265 61.0160001,10.3651786 Z" id="Path" fill="#334F61"></path>
                    </g>
                </g>
            </g>
        </g>
    </g>
</svg>