<?xml version="1.0" encoding="UTF-8"?>
<svg width="325px" height="173px" viewBox="0 0 325 173" version="1.1" xmlns="http://www.w3.org/2000/svg" xmlns:xlink="http://www.w3.org/1999/xlink">
    <!-- Generator: sketchtool 55.2 (78181) - https://sketchapp.com -->
    <title>7A12578F-62BC-4BC9-8944-D96534ECD090@1.00x</title>
    <desc>Created with sketchtool.</desc>
    <g id="2.-FRW" stroke="none" stroke-width="1" fill="none" fill-rule="evenodd">
        <g id="FRW-Start" transform="translate(-789.000000, -242.000000)" fill-rule="nonzero">
            <g id="06.01_Welcome" transform="translate(775.970395, 176.000000)">
                <g id="Final" transform="translate(13.029605, 66.000000)">
                    <g id="Group" fill="#E6EFF7">
                        <path d="M324.825893,85.924587 C323.824309,121.045467 289.845334,150.42538 259.822149,163.18225 C238.860023,172.087989 215.488479,174.615293 193.000576,171.796522 C176.520305,169.731804 160.362039,165.679467 143.816244,164.071696 C127.364055,162.473326 110.820132,162.10288 94.3548387,160.647424 C60.0688364,157.616163 35.7069412,142.473022 15.7426555,114.189402 C4.72148618,98.5761522 -2.88306452,83.9426087 1.31610023,64.3954891 C4.30213134,50.4990761 12.9400922,39.2014239 24.4292915,31.1851304 C36.6692108,22.6441957 52.1591302,16.421837 66.8683756,14.0976196 C84.7115495,11.2788478 102.614631,14.6203804 120.427851,15.9348043 C138.84951,17.2924783 155.833381,14.951337 173.684044,10.3311087 C195.703917,4.63151087 218.143145,-2.20198913 241.138393,0.82551087 C280.057892,5.94969565 325.939804,43.4512065 324.825893,85.924587 Z" id="Path"></path>
                    </g>
                    <path d="M27.0015841,128.208043 C44.812932,147.535152 66.2487039,158.161489 94.3529666,160.645543 C110.816388,162.101 127.360311,162.471446 143.814372,164.069815 C160.362039,165.677587 176.518433,169.729924 192.998704,171.794641 C215.486607,174.613413 238.860023,172.086109 259.820276,163.18037 C276.566388,156.064804 294.542483,143.778043 307.340294,128.206163 L27.0015841,128.206163 L27.0015841,128.208043 Z" id="Path" fill="#C3D6E5"></path>
                    <ellipse id="Oval" fill="#B8CDD9" cx="131.606279" cy="156.813217" rx="27.5744528" ry="4.27422826"></ellipse>
                    <ellipse id="Oval" fill="#B8CDD9" cx="202.057892" cy="156.600728" rx="30.3713998" ry="4.62586957"></ellipse>
                    <g id="Group" transform="translate(13.666475, 8.461957)">
                        <path d="M65.5036002,106.974174 C65.2265265,107.677457 64.5244816,108.495446 63.5902938,109.352924 C63.1484735,109.759098 62.6542339,110.174674 62.1281682,110.59025 C59.3649194,112.780957 55.7311348,115.011152 54.1866359,116.175141 C51.7397753,118.019848 50.3394297,118.961946 48.9184908,119.432054 C48.4111463,119.601293 47.9000576,119.708478 47.3365495,119.776174 C47.265409,119.783696 47.1942684,119.791217 47.1212558,119.798739 C45.6216878,119.947293 43.7327189,119.838228 40.5950461,119.817543 C39.5504032,119.810022 38.5057604,119.80438 37.4592454,119.798739 C37.3937212,119.796859 37.3263249,119.796859 37.2608007,119.796859 C37.0267857,119.794978 36.7908986,119.794978 36.5568836,119.793098 C35.5459389,119.787457 34.5349942,119.781815 33.5240495,119.778054 C26.8068836,119.747967 20.0728687,119.734804 13.3388537,119.723522 C13.2489919,119.625739 13.1591302,119.529837 13.0711406,119.432054 C8.28225806,114.172478 3.91273041,108.563141 0.140408986,102.903033 C0.803139401,102.352065 1.43217166,101.778533 2.00878456,101.174913 C4.76641705,98.294087 6.42885945,94.1590109 10.2910426,92.1544674 C15.6509217,89.3695435 20.7711694,91.1484348 25.8333813,87.1393478 C27.671803,85.6820109 29.3473502,82.4721087 31.202621,81.5337717 C32.0974942,81.080587 32.859447,80.8154457 33.5240495,80.691337 C35.1733871,80.3754239 36.2330069,80.9188696 37.2608007,81.5920652 C38.1275922,82.1580761 38.9737903,82.8162283 40.1326325,83.1302609 C49.1356567,85.5654239 57.5658122,88.8467826 62.1281682,95.6163478 C62.6748272,96.4230543 63.1634505,97.2805326 63.5902938,98.1925435 C64.2080933,99.4994457 64.6985887,100.917293 65.046803,102.46113 C65.6514977,105.133228 66.3310772,104.868087 65.5036002,106.974174 Z" id="Path" fill="#D1E3ED"></path>
                        <path d="M96.6612903,30.8222065 C96.6612903,30.8222065 98.3368376,23.4452609 89.5697005,23.9116087 C80.8025634,24.3779565 82.7720334,26.4746413 74.8922811,26.8620109 C67.0125288,27.2493804 63.5640841,26.395663 58.8351094,28.8026196 C54.1061348,31.2095761 48.2950749,30.8993043 48.2950749,30.8993043 L96.6612903,30.8222065 Z" id="Path" fill="#C4D7E6"></path>
                        <path d="M37.7044931,37.4093696 C37.7044931,37.4093696 34.110023,26.006413 43.0737327,25.2297935 C52.0374424,24.4531739 54.796947,25.1526957 58.8351094,23.2891848 C62.8732719,21.4256739 64.8446141,19.2518913 71.1480415,21.8920217 C77.4514689,24.5321522 82.968606,26.784913 86.8101959,27.7157283 C90.6517857,28.6484239 90.8483583,30.7451087 90.8483583,30.7451087 L37.7044931,37.4093696 Z" id="Path" fill="#D1E3ED"></path>
                        <path d="M136.41201,30.0963587 L35.0217454,30.0963587 C34.1942684,30.0963587 33.5240495,30.7695543 33.5240495,31.6007065 L33.5240495,119.796859 L137.909706,119.621978 L137.909706,31.6007065 C137.909706,30.7714348 137.239487,30.0963587 136.41201,30.0963587 Z" id="Path" fill="#DCE8F4"></path>
                        <path d="M260.756336,30.2712391 L142.06394,30.2712391 C141.236463,30.2712391 140.566244,30.9444348 140.566244,31.775587 L140.566244,119.796859 L262.254032,119.796859 L262.254032,31.775587 C262.254032,30.9463152 261.581941,30.2712391 260.756336,30.2712391 Z" id="Path" fill="#DCE8F4"></path>
                        <rect id="Rectangle" fill="#E7F0F8" x="37.2608007" y="54.4122609" width="51.6985887" height="65.3864783"></rect>
                        <rect id="Rectangle" fill="#E7F0F8" x="207.017137" y="54.3483261" width="51.8221486" height="65.450413"></rect>
                        <rect id="Rectangle" fill="#C4D7E6" x="33.5240495" y="53.4156304" width="104.385657" height="1.04928261"></rect>
                        <rect id="Rectangle" fill="#C4D7E6" x="139.920363" y="53.4156304" width="122.81106" height="1.04928261"></rect>
                        <g transform="translate(226.339286, 54.344565)" fill="#C4D7E6" id="Rectangle">
                            <rect x="5.8578629" y="0.13351087" width="1.46212558" height="65.320663"></rect>
                            <rect x="0.0655241935" y="23.7104022" width="2.80817972" height="11.0945652"></rect>
                            <rect x="10.6841878" y="23.7104022" width="2.80817972" height="11.0945652"></rect>
                        </g>
                        <g transform="translate(56.163594, 54.344565)" fill="#C4D7E6" id="Rectangle">
                            <rect x="5.96457373" y="0.13351087" width="1.46212558" height="65.320663"></rect>
                            <rect x="0.172235023" y="23.7104022" width="2.80817972" height="11.0945652"></rect>
                            <rect x="10.7908986" y="23.7104022" width="2.80817972" height="11.0945652"></rect>
                        </g>
                        <rect id="Rectangle" fill="#E7F0F8" x="92.1213998" y="61.45825" width="42.1807316" height="46.7852174"></rect>
                        <rect id="Rectangle" fill="#E7F0F8" x="145.321429" y="61.45825" width="57.4328917" height="46.7852174"></rect>
                        <path d="M166.965006,47.6859457 C173.893721,48.2406739 181.477679,48.8668587 188.112471,46.3169891 C190.409562,45.4331848 194.689228,43.4643696 194.150058,40.3428478 C193.676411,37.5992935 189.763681,36.9411413 187.545219,37.4093696 C184.939228,37.960337 182.263969,40.52525 183.162586,43.4117174 C184.218462,46.8077826 189.451037,46.5708478 192.21803,46.420413 C196.185052,46.2060435 200.049107,45.1887283 203.838278,44.0491848 C205.742224,43.4756522 207.636809,42.8701522 209.546371,42.3154239 C211.581365,41.7249674 213.4928,41.0969022 215.393001,42.3887609 C216.952477,43.4493261 218.354695,44.4892065 220.129464,45.1849674 C222.040899,45.9333804 224.066532,46.3621196 226.099654,46.6122174 C230.821141,47.1951522 235.58943,46.6761522 240.294067,46.1703152 C241.005472,46.0932174 241.012961,44.9649565 240.294067,45.0420543 C233.414026,45.7829457 225.642857,46.7570109 219.197149,43.5508696 C217.93534,42.9228043 216.916907,42.0107935 215.737471,41.2680217 C214.479407,40.4744783 213.129608,40.3108804 211.68246,40.5873043 C208.258353,41.2435761 204.927851,42.5918478 201.574885,43.539587 C198.191964,44.4967283 194.728543,45.2733478 191.199597,45.3316413 C189.49784,45.3598478 187.640697,45.3410435 186.02693,44.7411848 C184.370104,44.1262826 183.677419,42.5109891 184.47307,40.9088587 C185.789171,38.2555652 189.767425,37.6557065 192.100086,39.2521957 C195.376296,41.4955543 189.767425,44.4666413 187.947725,45.1812065 C181.378456,47.7592826 173.845046,47.1105326 166.970622,46.5595652 C166.24424,46.4993913 166.247984,47.6276522 166.965006,47.6859457 L166.965006,47.6859457 Z" id="Path" fill="#C4D7E6"></path>
                        <path d="M58.7358871,45.6926848 C64.8221486,45.6814022 71.0038882,45.7603804 77.0601959,45.0702609 C79.4658698,44.7957174 81.9351959,44.4102283 84.1648906,43.4173587 C84.8463422,43.1146087 86.0763249,42.6369783 86.2822581,41.82275 C86.5181452,40.8938152 85.3536866,40.43875 84.6684908,40.2695109 C82.6166475,39.7655543 79.4022177,40.0382174 77.9475806,41.7907826 C76.5565956,43.4681304 77.9475806,45.2601848 79.6643145,45.8525217 C81.0403226,46.3263913 82.6072869,46.3376739 84.0450749,46.3809239 C85.6120392,46.4260543 87.1808756,46.3903261 88.7440956,46.2699783 C91.6514977,46.048087 94.4915035,45.512163 97.2884505,44.6941739 C100.4411,43.7708804 103.546947,43.0450326 106.834389,42.8231413 C110.198589,42.5956087 113.598358,42.7422826 116.919499,43.3365 C117.62716,43.4624891 117.930444,42.3755978 117.219038,42.2477283 C112.534994,41.4109348 107.697437,41.3733261 102.998416,42.1292609 C100.611463,42.5128696 98.3330933,43.2424783 96.0097926,43.8874674 C93.5217454,44.577587 90.9737903,44.9894022 88.3996256,45.1680435 C85.8479263,45.3429239 82.921803,45.54225 80.4206509,44.9029022 C79.5613479,44.6828913 78.2265265,44.0980761 78.5485311,42.9792174 C78.8611751,41.8885652 80.4431164,41.4974348 81.4147465,41.3281957 C81.9819988,41.2285326 82.562356,41.1928043 83.1389689,41.2097283 C83.3505184,41.2153696 85.1046947,41.3187935 85.1065668,41.6328261 C85.1065668,41.7155652 84.2959389,42.1066957 84.2266705,42.1424239 C83.7717454,42.3831196 83.2980991,42.5786848 82.8150922,42.7498043 C80.6696429,43.5076196 78.374424,43.8272935 76.1203917,44.0435435 C70.3617512,44.5963913 64.5169931,44.5569022 58.7358871,44.5681848 C58.0132488,44.5663043 58.0113767,45.6945652 58.7358871,45.6926848 L58.7358871,45.6926848 Z" id="Path" fill="#C4D7E6"></path>
                        <path d="M252.827909,20.9367609 C252.565812,27.5333261 250.31178,34.3179348 249.010657,40.8110761 L249.010657,55.0403261 C249.293347,55.892163 249.641561,56.7364783 250.072149,57.5619891 C254.632632,66.3060109 252.065956,70.8359783 252.957085,74.8695109 C253.069412,75.3941522 253.24352,75.9131522 253.505616,76.4302717 L253.511233,76.4396739 C253.675979,76.7837935 253.885657,77.1185109 254.136521,77.4663913 C254.422955,77.8575217 254.797379,78.2580543 255.254176,78.6529457 C255.402074,78.7808152 255.555588,78.9105652 255.720334,79.0327935 C257.877016,80.74775 261.407834,82.3724457 265.24568,83.2186413 C266.095622,83.4029239 266.96803,83.5571196 267.844182,83.6549022 C269.130328,83.8090978 270.425835,83.8598696 271.691388,83.788413 C275.493664,83.5571196 279.039459,82.1956848 281.334677,79.030913 C281.458237,78.8673152 281.576181,78.6924348 281.688508,78.5175543 C281.688508,78.5175543 285.475806,74.5724022 288.006912,68.7167283 C288.078053,68.5474891 288.151066,68.37825 288.222206,68.2033696 C288.6322,67.2123804 289.001008,66.1630978 289.308036,65.0743261 C290.092454,62.3157283 290.476238,59.2844674 290.077477,56.1403804 C289.832229,54.1828478 289.575749,52.5600326 289.308036,51.151587 C288.016273,44.3556957 286.443692,42.6087717 283.897609,32.796663 C283.850806,32.6274239 283.80962,32.4581848 283.764689,32.2833043 C283.637385,31.7849891 283.508209,31.2603478 283.375288,30.7169022 C283.3678,30.6868152 283.360311,30.6567283 283.354695,30.6285217 C282.437356,26.784913 282.99712,22.7325761 284.734447,19.1823152 C288.403802,11.6850217 290.652218,5.95721739 277.524914,1.69803261 C277.436924,1.66230435 277.34519,1.63033696 277.253456,1.60025 C273.855559,0.434380435 270.863911,-0.00188043478 268.246688,0.141032609 C262.768865,0.443782609 258.936636,3.30016304 256.461694,7.3901087 C254.158986,11.1923478 253.028226,16.0570326 252.827909,20.9367609 Z" id="Path" fill="#D1E3ED"></path>
                        <polygon id="Path" fill="#B8CDD9" points="266.209821 119.558043 269.478543 32.5916957 272.747264 119.558043"></polygon>
                    </g>
                    <path d="M161.747408,41.5425652 C159.865927,37.0031957 153.467022,35.3239674 151.375864,34.327337 C149.286578,33.3307065 149.599222,27.3734891 149.599222,27.3734891 C149.599222,27.3734891 142.127592,21.1022391 142.127592,26.4295109 C142.127592,31.7567826 139.046083,32.9113696 139.046083,32.9113696 C132.516129,33.6466196 129.22307,37.1874783 128.230847,38.159663 C127.238623,39.1318478 121.307748,46.5558043 121.307748,46.5558043 L121.255328,45.8205543 C121.491215,40.7038913 116.030242,30.8128043 115.58655,30.1828587 C115.142857,29.552913 113.418635,25.0135435 113.418635,25.0135435 L112.491935,22.719413 C112.237327,22.1816087 111.943404,21.1548913 112.385225,19.7408043 C112.666043,19.0995761 112.969326,18.1762826 113.268865,16.8430543 C113.268865,16.8430543 113.592742,14.7839783 114.268577,12.745587 C114.382776,12.4033478 114.395881,12.1965 114.343462,12.0893152 C114.319124,11.5533913 114.034562,10.8068587 112.110023,13.4695543 C112.110023,13.4695543 112.050115,13.6143478 111.956509,13.8249565 C111.574597,14.5432826 111.031682,16.0231848 110.363335,15.1901522 C109.724942,14.3928478 108.616647,12.5613043 107.69182,11.2036304 C107.014113,10.207 105.903946,9.56953261 104.702045,9.56763848 C103.348502,9.5638913 101.936924,10.3329891 102.234591,13.8907717 C102.796227,16.621163 103.756624,17.9073804 104.975374,19.6956739 C106.469326,22.217337 107.25,23.9134891 107.25,23.9134891 L107.802275,25.1733804 C109.161434,28.1651522 115.53413,50.546087 116.318548,53.1956196 C117.102967,55.8451522 120.785426,55.7661739 121.961118,55.6100978 C123.136809,55.4521413 130.816244,50.572413 130.816244,50.572413 C130.816244,50.572413 130.973502,59.5195217 131.102679,63.7711848 C131.233727,68.0209674 130.893001,82.6883587 130.893001,82.6883587 C130.893001,82.6883587 154.872984,84.8395761 154.820565,83.528913 C154.768145,82.2163696 154.872984,73.1639565 155.68174,69.4124891 C156.492368,65.6610217 158.450605,60.3864022 158.450605,60.3864022 C158.581653,60.9900217 160.539891,68.1789239 160.5661,68.494837 C160.59231,68.8088696 160.017569,70.3320217 159.390409,73.1395109 C158.763249,75.947 159.573877,83.6605435 159.676843,83.6605435 C159.77981,83.6605435 163.6214,84.6045217 163.778658,83.9238043 C163.935916,83.2412065 166.442684,65.6610217 166.442684,65.6610217 C166.422091,60.303663 163.627016,46.0819348 161.747408,41.5425652 Z" id="Path" fill="#D3A095"></path>
                    <path d="M191.003024,30.8466522 C191.003024,30.8466522 191.525346,37.7741739 193.197149,37.9490543 C194.868952,38.1239348 200.337414,38.8930326 204.620824,44.2804783 C208.904234,49.6679239 210.716446,53.4118696 211.238767,53.4814457 C211.761089,53.5510217 212.91057,53.7259022 214.338998,50.961663 C215.767425,48.1974239 219.1803,43.1258913 221.758209,40.4312283 L225.867512,41.3752065 L214.687212,62.5056522 C214.687212,62.5056522 213.258785,65.3037391 210.055588,63.0998696 C206.850518,60.896 203.68102,57.2573587 203.68102,57.2573587 C203.68102,57.2573587 203.368376,69.256413 204.134073,76.0090543 C204.89977,82.7616957 205.493232,87.1337065 205.701037,87.7298043 C205.910714,88.3240217 179.055156,88.4650543 179.055156,88.4650543 C179.055156,88.4650543 179.334101,75.8003261 178.985887,70.3433043 C178.637673,64.8862826 177.974942,59.3578043 177.974942,59.3578043 C177.974942,59.3578043 174.666907,63.3462065 174.526498,66.4244783 C174.387961,69.50275 175.292195,82.378087 175.397033,82.6921196 C175.501872,83.0061522 171.356999,83.9520109 171.356999,83.9520109 C171.356999,83.9520109 168.376584,73.9725435 168.088278,67.85925 C168.262385,61.947163 171.078053,46.3433152 173.0625,44.0341413 C175.046947,41.7249674 176.510945,39.5210978 180.238335,38.1220543 C180.238335,38.1220543 182.816244,36.5124022 182.954781,31.6495978 C183.097062,26.7886739 191.003024,30.8466522 191.003024,30.8466522 Z" id="Path" fill="#C18F74"></path>
                    <path d="M168.621832,62.9024239 L172.618808,65.4109239 C172.618808,65.4109239 174.195132,66.0690761 174.517137,67.6072717 C174.511521,67.1334022 174.515265,66.7309891 174.530242,66.4263587 C174.588278,65.1420217 175.198589,63.6978478 175.891273,62.453 L175.895017,62.2292283 L169.12356,59.3784891 C168.932604,60.59325 168.764113,61.7816848 168.621832,62.9024239 Z" id="Path" fill="#000000" opacity="0.15"></path>
                    <path d="M182.681452,33.938087 C183.319844,34.1825435 184.759505,34.6169239 186.586694,34.4495652 C188.492512,34.2746848 190.375864,32.9245326 191.156538,32.2983478 C191.049827,31.4465109 191.004896,30.8447717 191.004896,30.8447717 C191.004896,30.8447717 183.098934,26.7867935 182.958525,31.6495978 C182.934188,32.5127174 182.831221,33.2705326 182.681452,33.938087 Z" id="Path" fill="#000000" opacity="0.15"></path>
                    <path d="M205.702909,87.7316848 C205.702909,87.7316848 207.095766,95.3587283 207.653658,99.1026739 C208.21155,102.84662 212.041907,122.647598 212.111175,123.452424 C212.180444,124.25725 217.544067,149.201217 217.510527,150.916174 C217.476671,152.63113 217.510527,157.668815 217.510527,157.668815 L212.390121,157.668815 L212.006336,151.265935 C212.006336,151.265935 206.328197,139.020543 205.423963,135.348054 C204.517857,131.675565 202.812356,124.607011 203.334677,120.515185 C203.334677,120.515185 196.125144,109.915174 193.303859,98.0552717 L193.303859,87.8050217 L205.702909,87.7316848 Z" id="Path" fill="#C18F74"></path>
                    <path d="M215.999568,151.508511 C214.256624,153.281761 212.260945,151.390043 211.884649,150.998913 C211.963278,151.170033 212.006336,151.264054 212.006336,151.264054 L212.133641,153.385185 L215.817972,154.237022 C215.817972,154.237022 217.933468,149.541576 215.999568,151.508511 Z" id="Path" fill="#000000" opacity="0.15"></path>
                    <path d="M212.111175,123.458065 C212.111175,123.456185 212.111175,123.452424 212.109303,123.450543 C212.092454,123.26438 211.873416,122.0515 211.540179,120.253804 L202.872264,119.810022 C203.164315,120.266967 203.332805,120.513304 203.332805,120.513304 C203.18678,121.66037 203.214862,123.040609 203.351526,124.51487 C204.912874,123.454304 211.236895,123.454304 212.111175,123.458065 Z" id="Path" fill="#000000" opacity="0.15"></path>
                    <path d="M179.195565,88.3954783 C179.195565,88.3954783 179.682316,113.794511 181.041475,119.67275 C181.041475,119.67275 180.052995,129.223478 180.610887,136.290152 C181.168779,143.356826 182.147897,152.349065 182.147897,152.349065 L182.147897,158.191576 L186.640985,158.191576 L186.470622,152.418641 C186.470622,152.418641 187.485311,144.0225 188.007632,139.964522 C188.529954,135.906543 189.366791,129.259207 188.704061,120.547152 C188.704061,120.547152 191.2464,112.045707 193.301987,98.0515109 C195.357575,84.0573152 192.710397,85.9114239 192.710397,85.9114239 L179.195565,88.3954783 Z" id="Path" fill="#C18F74"></path>
                    <path d="M186.493088,153.121924 L186.472494,152.418641 C186.472494,152.418641 186.650346,150.946261 186.895593,148.936076 C186.18606,148.261 185.49712,148.084239 184.166043,148.084239 C182.937932,148.084239 182.091734,148.60888 181.77909,148.828891 C181.998128,150.951902 182.14977,152.349065 182.14977,152.349065 L182.14977,153.36262 L186.493088,153.121924 Z" id="Path" fill="#000000" opacity="0.15"></path>
                    <path d="M192.541907,92.3143043 C198.060916,92.022837 204.124712,91.400413 206.384361,91.1559565 C206.217742,90.362413 206.11852,89.8998261 206.11852,89.8998261 C206.11852,89.8998261 181.022753,86.296913 179.212414,90.0747065 C179.021457,90.4752391 178.84735,91.0017609 178.691964,91.6260652 C180.494816,91.8705217 186.685916,92.6245761 192.541907,92.3143043 Z" id="Path" fill="#0B283A"></path>
                    <path d="M221.758209,40.4312283 C221.758209,40.4312283 221.823733,38.3232609 221.773185,36.8395978 C221.761953,36.5180435 221.619672,34.6902609 221.730127,34.3875109 C221.780674,33.5131087 220.844614,32.0426087 221.585974,31.1757283 C221.655242,31.0948696 221.754464,31.0497391 221.859303,31.0459783 C222.731711,31.7172935 223.566676,32.7722174 223.911146,34.2897283 C223.971054,34.5529891 224.118952,34.5661522 224.231279,34.3198152 C224.764833,33.1464239 225.391993,31.7417391 225.925547,30.6398043 C226.15769,30.1621739 226.4928,29.742837 226.917771,29.4250435 C226.977679,29.379913 227.030098,29.3441848 227.065668,29.3253804 C227.840726,28.661587 229.772753,28.6766304 230.766849,30.6172391 C231.199309,31.4634348 231.296659,32.4375 231.135657,33.375837 C230.411146,37.6237391 226.59015,39.5981957 226.080933,40.9408261 C225.992944,41.1326304 225.865639,41.3789674 225.865639,41.3789674 L221.758209,40.4312283 Z" id="Path" fill="#C18F74"></path>
                    <path d="M175.400778,82.694 L176.151498,84.4747717 C176.561492,85.4450761 176.767425,86.4905978 176.759937,87.5455217 C176.752448,88.5308696 176.728111,89.6553696 176.653226,89.9712826 C176.057892,90.7140543 175.614199,88.8430217 175.509361,88.4575326 C175.509361,88.4575326 175.563652,89.9374348 175.692828,90.924663 C175.827621,91.9589022 176.411722,92.9085217 175.902506,93.593 C175.786434,93.7490761 175.589862,93.8186522 175.397033,93.7979674 C173.498704,93.593 171.886809,92.4045652 171.218462,89.0987609 C171.11924,86.4398261 171.040611,84.9975326 171.356999,83.9557717 L175.400778,82.694 Z" id="Path" fill="#C18F74"></path>
                    <path d="M127.30602,51.8887174 L124.655098,42.4038043 C123.582373,43.7201087 122.535858,45.0251304 121.904954,45.8092717 C122.290611,47.1895109 124.119672,54.2336196 121.624136,55.6420652 C121.75144,55.6307826 121.865639,55.6195 121.96299,55.606337 C122.545219,55.5292391 124.722494,54.291913 126.772465,53.0639891 L127.30602,51.8887174 Z" id="Path" fill="#AA807A"></path>
                    <path d="M165.40553,56.6368152 L159.087126,62.8008804 C159.298675,63.5981848 159.538306,64.4932717 159.762961,65.3338261 C160.873128,62.699337 164.821429,58.5398152 165.59087,57.7443913 C165.530962,57.379587 165.469182,57.0110217 165.40553,56.6368152 Z" id="Path" fill="#AA807A"></path>
                    <path d="M149.58799,28.6333804 C149.573013,27.8868478 149.599222,27.3753696 149.599222,27.3753696 C149.599222,27.3753696 142.127592,21.1041196 142.127592,26.4313913 C142.127592,26.7924348 142.112615,27.1346739 142.086406,27.4581087 C142.563796,27.7909457 144.072725,28.7875761 145.259649,28.9756196 C146.341734,29.1467391 148.567684,28.8082609 149.58799,28.6333804 Z" id="Path" fill="#AA807A"></path>
                    <path d="M163.784274,83.918163 C163.784274,83.918163 163.372408,88.0814457 162.709677,89.7606739 C162.114343,91.270663 161.504032,94.285 159.225662,93.6719783 C158.854983,93.5723152 158.626584,93.1943478 158.686492,92.8145 C158.787586,92.1845543 158.948589,91.8554783 158.939228,91.1070652 C158.929868,90.2721522 158.935484,89.2435543 159.264977,88.2375217 C159.264977,88.2375217 158.699597,89.9656413 158.49928,90.6971304 C158.480559,90.7629457 158.430012,90.8137174 158.364487,90.8325217 C158.122984,90.9020978 157.729839,90.8607283 157.705501,90.0747065 C157.669931,88.9314022 157.271169,87.9554565 158.167915,85.7534674 C158.304579,85.4168696 158.491791,85.102837 158.722062,84.8226522 L159.680588,83.6549022 L163.784274,83.918163 Z" id="Path" fill="#D3A095"></path>
                    <path d="M154.824309,83.5251522 C154.824309,83.5251522 154.397465,113.550054 152.830501,118.587739 C152.830501,118.587739 152.482287,139.054391 151.785858,142.446696 C151.08943,145.84088 150.600806,149.654402 150.600806,149.654402 L150.600806,154.131717 L145.898041,154.131717 L144.991935,146.260217 C144.991935,146.260217 142.380328,126.389663 143.737615,118.832196 C143.737615,118.832196 139.940956,99.661163 141.648329,83.3577935 C143.355703,67.0544239 154.824309,83.5251522 154.824309,83.5251522 Z" id="Path" fill="#D3A095"></path>
                    <path d="M151.125,146.087217 L145.010657,146.418174 L145.224078,148.276043 C146.030962,148.360663 147.281538,148.462207 148.097782,148.394511 C148.833525,148.334337 149.977391,148.17262 150.823589,148.04287 C150.905962,147.486261 151.007056,146.816826 151.125,146.087217 Z" id="Path" fill="#AA807A"></path>
                    <path d="M130.896745,82.6845978 C130.896745,82.6845978 126.742512,108.967435 125.871976,115.09013 C125.871976,115.09013 121.552995,141.013804 120.334245,145.981913 C119.115495,150.950022 118.383497,151.510391 118.383497,151.510391 C118.383497,151.510391 118.731711,157.492054 118.383497,157.492054 C118.035282,157.492054 123.15553,157.492054 123.15553,157.492054 L123.78269,152.06888 C123.78269,152.06888 126.394297,147.591565 128.798099,141.888207 C131.201901,136.184848 134.230991,125.095924 133.813508,118.659196 C133.813508,118.659196 144.435916,95.4640326 144.8197,83.3239457 C145.203485,71.1838587 130.896745,82.6845978 130.896745,82.6845978 Z" id="Path" fill="#D3A095"></path>
                    <path d="M127.174971,145.513685 L120.905242,143.311696 C120.678715,144.455 120.482143,145.374533 120.334245,145.980033 C120.298675,146.126707 120.263105,146.26962 120.227535,146.410652 C121.373272,146.83375 124.239487,147.946967 125.490063,148.922913 C125.989919,147.954489 126.568404,146.799902 127.174971,145.513685 Z" id="Path" fill="#AA807A"></path>
                    <path d="M151.761521,155.502554 C151.50504,154.818076 151.428283,153.614598 151.173675,152.730793 C150.765553,151.307304 150.909706,151.422011 150.795507,151.098576 C150.561492,150.434783 150.192684,150.434783 150.192684,150.434783 L150.192684,150.434783 L150.192684,150.434783 C150.192684,149.64312 148.925259,149.620554 148.925259,149.620554 C148.925259,149.620554 148.925259,149.620554 147.755184,149.620554 C146.585109,149.620554 146.431596,150.500598 146.431596,150.500598 L146.431596,150.500598 L146.431596,150.500598 C145.203485,150.496837 145.396313,152.772163 145.396313,152.772163 C145.37572,153.907946 145.47307,153.14825 145.388825,154.090348 C145.332661,154.718413 145.371976,156.753043 145.209101,157.055793 C145.124856,157.21187 145.166043,157.492054 145.166043,157.670696 L145.166043,158.056185 C145.166043,158.357054 145.785714,158.528174 145.785714,158.528174 C145.785714,158.528174 147.53053,158.528174 149.769585,158.528174 C152.010513,158.528174 151.999291,158.12012 151.999291,158.12012 L151.999291,157.347261 C151.999291,156.655261 152.004896,156.151304 151.761521,155.502554 Z" id="Path" fill="#334F61"></path>
                    <path d="M151.999281,157.326576 C151.838278,157.21187 151.473214,157.12537 150.767425,157.12537 C150.767425,157.12537 149.911866,156.375076 148.884073,156.375076 C147.856279,156.375076 147.21227,157.025707 147.21227,157.025707 C147.21227,157.025707 147.165467,157.097163 147.068116,157.183663 C146.871544,157.272043 145.705213,157.73087 145.555444,156.08925 C145.538594,155.895565 145.521745,155.716924 145.508641,155.547685 C145.488047,154.340446 145.430012,153.614598 145.424395,153.546902 C145.428139,153.58075 145.426267,153.627761 145.420651,153.725543 C145.420651,153.733065 145.418779,153.738707 145.418779,153.746228 C145.418779,153.749989 145.418779,153.75375 145.418779,153.757511 C145.418779,153.765033 145.416907,153.772554 145.416907,153.781957 C145.416907,153.785717 145.416907,153.791359 145.415035,153.79512 C145.415035,153.804522 145.413162,153.812043 145.413162,153.821446 C145.413162,153.827087 145.413162,153.830848 145.41129,153.836489 C145.41129,153.845891 145.409418,153.855293 145.409418,153.864696 C145.409418,153.870337 145.407546,153.875978 145.407546,153.8835 C145.407546,153.892902 145.405674,153.904185 145.405674,153.915467 C145.405674,153.921109 145.403802,153.92675 145.403802,153.932391 C145.40193,153.943674 145.40193,153.956837 145.400058,153.96812 C145.400058,153.97188 145.400058,153.977522 145.398185,153.981283 C145.394441,154.01513 145.392569,154.050859 145.388825,154.088467 C145.332661,154.716533 145.371976,156.751163 145.209101,157.053913 C145.136089,157.189304 145.156682,157.418717 145.164171,157.593598 C145.164171,157.595478 145.164171,157.597359 145.164171,157.599239 C145.166043,157.623685 145.166043,157.64813 145.166043,157.668815 L145.166043,158.014815 L145.166043,158.054304 C145.166043,158.355174 145.785714,158.526293 145.785714,158.526293 C145.785714,158.526293 147.53053,158.526293 149.769585,158.526293 C152.010513,158.526293 151.999281,158.118239 151.999281,158.118239 C151.999281,158.118239 151.999281,157.364185 151.999281,157.326576 Z" id="Path" fill="#2A404D"></path>
                    <path d="M124.486607,156.612011 C124.610167,155.286304 124.610167,155.218609 124.40049,152.958326 C124.376152,152.702587 124.21515,152.484457 123.960541,152.473174 L123.485023,152.405478 C122.606999,152.491978 121.633497,152.548391 120.755472,152.510783 C119.679003,152.463772 118.793491,151.301663 117.737615,151.07037 L117.584101,151.036522 C117.438076,151.004554 117.286434,151.03088 117.15913,151.107978 L115.448013,152.956446 C115.365639,153.039185 115.258929,153.123804 115.139113,153.208424 C114.618664,153.57887 113.744384,154.082826 113.018001,154.483359 C112.233583,154.917739 111.357431,155.156554 110.462558,155.18288 L110.048819,155.18288 C108.884361,155.216728 108.343318,155.993348 108.347043,157.162978 L108.423819,157.492054 C108.5661,157.918913 108.96299,158.2085 109.412298,158.206629 L122.9964,158.191576 C123.816388,158.184054 124.40985,157.433761 124.486607,156.612011 Z" id="Path" fill="#334F61"></path>
                    <path d="M118.36852,158.197217 L122.9964,158.191576 C123.81826,158.184054 124.40985,157.433761 124.486607,156.612011 C124.593318,155.472467 124.606423,155.259978 124.475374,153.791359 C124.381768,154.737217 123.662874,157.706424 118.36852,158.197217 Z" id="Path" fill="#2A404D"></path>
                    <path d="M154.571573,92.4891848 C154.571573,92.4891848 154.223358,118.657315 153.596198,121.107522 C153.002736,123.427978 153.283554,144.641163 153.31538,146.87512 C153.317252,146.980424 153.233007,147.065043 153.128168,147.065043 L152.656394,147.30762 C149.72091,147.646098 146.755472,147.644217 143.819988,147.303859 L143.387529,147.065043 C143.290179,147.065043 143.209677,146.991707 143.200317,146.895804 C143.005616,144.851772 141.129752,125.001902 141.197149,122.015772 C141.266417,118.867924 140.639257,106.622533 141.058612,103.613837 C141.058612,103.613837 137.576469,113.480478 137.018577,119.217685 C136.46443,124.915402 132.409418,142.892359 129.282978,148.351261 C129.243664,148.420837 129.165035,148.454685 129.088278,148.439641 C128.114775,148.244076 121.90121,146.946576 119.087414,145.177087 C119.020017,145.135717 118.988191,145.056739 119.006912,144.979641 C119.328917,143.561793 122.256912,130.65825 123.505616,125.304652 C124.829205,119.637022 129.217454,92.1394239 129.217454,92.1394239 L154.571573,92.4891848 Z" id="Path" fill="#15374D"></path>
                    <path d="M128.81682,94.6159565 C130.385657,94.9281087 134.964862,95.725413 140.950029,95.725413 C147.114919,95.725413 152.77621,94.8980217 154.539747,94.6140761 C154.56034,93.2864891 154.571573,92.4891848 154.571573,92.4891848 L129.215582,92.1394239 C129.215582,92.1394239 129.067684,93.0683587 128.81682,94.6159565 Z" id="Path" fill="#0B283A"></path>
                    <path d="M181.565668,5.97226087 C181.565668,5.97226087 189.018577,4.08242391 193.060484,9.43602174 C197.100518,14.7896196 194.941964,25.0737174 194.000288,26.85825 C193.060484,28.6427826 190.065092,33.2611304 186.790755,33.6108913 C183.516417,33.9606522 179.337846,31.7925109 176.516561,26.5084891 C173.695276,21.2244674 172.650634,17.4466739 173.974222,12.6195978 C175.295939,7.7906413 181.565668,5.97226087 181.565668,5.97226087 Z" id="Path" fill="#C18F74"></path>
                    <path d="M191.306308,13.7911087 L175.075029,15.7147935 C175.075029,15.7147935 174.329925,16.248837 173.40697,16.9126304 C173.472494,19.838587 174.4928,22.6535978 176.297523,26.0985543 C176.389257,25.9518804 178.630184,22.3376848 178.766849,18.6896413 C178.766849,18.6896413 182.353831,19.2312065 185.628168,18.2345761 C188.902506,17.2379457 190.939372,16.275163 192.629896,15.1563043 C194.320421,14.0374457 191.306308,13.7911087 191.306308,13.7911087 Z" id="Path" fill="#000000" opacity="0.15"></path>
                    <path d="M177.068836,8.59170652 C177.068836,8.59170652 174.93462,5.35171739 176.376152,2.422 C177.817684,-0.507717391 181.706077,-0.204967391 183.104551,0.618663043 C184.501152,1.44229348 186.650346,2.8921087 186.534274,6.67554348 C186.416331,10.4552174 177.068836,8.59170652 177.068836,8.59170652 Z" id="Path" fill="#334F61"></path>
                    <path d="M178.304435,17.5952283 C179.478255,17.7738696 185.459677,18.480913 190.242944,15.254087 C190.359015,15.1751087 190.514401,15.2428043 190.533122,15.3819565 C190.692252,16.577913 191.830501,20.9818913 195.108583,22.8153152 C195.336982,22.9431848 195.623416,22.7965109 195.658986,22.5351304 C196.205645,18.5711739 195.705789,12.9430326 193.05674,9.43602174 C189.016705,4.08242391 181.561924,5.97226087 181.561924,5.97226087 C181.561924,5.97226087 175.292195,7.7906413 173.968606,12.6195978 C172.714286,17.1928152 172.894009,20.8239348 175.335253,25.6848587 C175.468174,25.95 175.840726,25.9650435 175.992368,25.7111848 C176.804868,24.3441087 177.952477,21.6061957 178.089142,17.77575 C178.09663,17.6629239 178.19398,17.5783043 178.304435,17.5952283 Z" id="Path" fill="#334F61"></path>
                    <path d="M186.429435,5.72780435 C186.429435,5.72780435 186.459389,5.72592391 186.511809,5.72028261 C186.502448,5.59241304 186.489343,5.46642391 186.474366,5.34231522 C182.681452,5.33667391 181.502016,5.9196087 181.502016,5.9196087 C184.722062,5.34231522 186.429435,5.72780435 186.429435,5.72780435 Z" id="Path" fill="#2A404D"></path>
                    <path d="M211.652506,53.5115326 C211.489631,53.5152935 211.351094,53.4964891 211.240639,53.4814457 C210.916763,53.4381957 210.094902,51.9789783 208.496112,49.5927065 L204.725662,58.3912609 C205.920075,59.6436304 207.981279,61.6726196 210.05746,63.10175 C210.137961,63.158163 210.21659,63.2070543 210.295219,63.2578261 C209.507056,61.9659674 209.696141,60.4522174 210.167915,59.1490761 C210.723934,57.609 211.547667,54.0549783 211.652506,53.5115326 Z" id="Path" fill="#000000" opacity="0.15"></path>
                    <path d="M193.041763,37.9227283 C193.041763,37.9227283 194.739775,37.6350217 195.863047,37.9490543 C196.986319,38.263087 203.673531,41.3864891 207.565668,47.0014674 L211.411002,52.54875 C211.440956,52.592 211.452189,52.6465326 211.439084,52.6973043 C211.248128,53.5265761 209.574453,60.5161522 207.105127,63.2521848 C207.041475,63.3236413 206.932892,63.331163 206.856135,63.27475 L205.0589,61.9321196 C205.0589,61.9321196 205.03269,68.6490326 205.528802,71.4565217 C206.024914,74.2640109 206.077333,77.6487935 205.946285,78.5401196 C205.820853,79.4032391 207.142569,86.5451304 206.829925,89.6967391 C206.811204,89.8772609 206.667051,90.016413 206.487327,90.0295761 C204.718174,90.1612065 195.68894,90.8193587 192.231135,90.8193587 C188.823877,90.8193587 180.170939,90.5711413 178.261377,90.5147283 C178.053571,90.509087 177.890697,90.3342065 177.900058,90.1254783 C177.984303,87.9084457 178.40553,76.5976304 178.334389,73.9725435 C178.25576,71.05975 177.315956,62.3759022 177.263537,61.588 C177.263537,61.588 176.168347,65.0009891 175.705933,66.0277065 C175.661002,66.1273696 175.543059,66.1649783 175.447581,66.1142065 C174.406682,65.5500761 168.949453,62.5639457 168.174395,61.6350109 C168.138825,61.5936413 168.123848,61.5391087 168.133209,61.4845761 C168.281106,60.5650435 169.713278,51.6950326 170.654954,49.2824348 C171.647177,46.7382065 172.326757,42.4602174 177.759649,39.0754348 C177.759649,39.0754348 179.431452,38.1577826 180.137241,38.0261522 C180.137241,38.0261522 184.134217,42.5918478 187.346774,42.5918478 C190.559332,42.5918478 193.041763,37.9227283 193.041763,37.9227283 Z" id="Path" fill="#FAFAFA"></path>
                    <path d="M204.036722,63.0321739 C204.003024,64.1604348 205.2536,84.3337391 205.532546,90.0991522 C205.944412,90.0690652 206.270161,90.0446196 206.487327,90.0295761 C206.667051,90.016413 206.811204,89.8772609 206.829925,89.6967391 C207.142569,86.5451304 205.820853,79.4032391 205.946285,78.5401196 C206.077333,77.6487935 206.024914,74.2640109 205.528802,71.4565217 C205.03269,68.6490326 205.0589,61.9321196 205.0589,61.9321196 C205.0589,61.9321196 204.070421,61.8418587 204.036722,63.0321739 Z" id="Path" fill="#DBDBDB"></path>
                    <path d="M145.811924,28.2932326 C145.811924,28.2932326 138.080069,27.4787935 138.392713,16.5384239 C138.705357,5.59617391 141.05674,5.07153261 144.24496,3.6818913 C147.431308,2.29036957 154.69326,3.31520652 156.391273,7.32993478 C158.089286,11.344663 157.228111,18.6915217 155.110743,22.2850326 C152.995248,25.8785435 151.793347,28.3193478 145.811924,28.2932326 Z" id="Path" fill="#D3A095"></path>
                    <path d="M145.811924,28.2932326 C145.811924,28.2932326 138.080069,27.4787935 138.392713,16.5384239 C138.705357,5.59617391 141.05674,5.07153261 144.24496,3.6818913 C147.431308,2.29036957 154.69326,3.31520652 156.391273,7.32993478 C158.089286,11.344663 157.228111,18.6915217 155.110743,22.2850326 C152.995248,25.8785435 151.793347,28.3193478 145.811924,28.2932326 Z" id="Path" fill="#D3A095"></path>
                    <path d="M145.811924,28.2932326 C145.811924,28.2932326 138.080069,27.4787935 138.392713,16.5384239 C138.705357,5.59617391 141.05674,5.07153261 144.24496,3.6818913 C147.431308,2.29036957 154.69326,3.31520652 156.391273,7.32993478 C158.089286,11.344663 157.228111,18.6915217 155.110743,22.2850326 C152.995248,25.8785435 151.793347,28.3193478 145.811924,28.2932326 Z" id="Path" fill="#D3A095"></path>
                    <path d="M153.131912,11.3597065 C155.136953,12.2848804 156.46803,12.7361848 157.289891,12.8433696 C157.295507,11.8410978 157.231855,10.8632717 157.093318,9.94938043 C155.09951,7.41079348 151.512529,4.13507609 151.512529,4.13507609 L141.625864,5.00947826 C139.826757,6.33142391 138.611751,8.89069565 138.392713,16.5384239 C138.360887,17.6309565 138.411434,18.6200652 138.525634,19.518913 C138.585541,19.0976957 140.616791,5.59053261 153.131912,11.3597065 Z" id="Path" fill="#AA807A"></path>
                    <path d="M138.523762,19.5283152 C138.523762,19.5283152 140.195565,11.0795217 143.460541,10.0302391 C146.725518,8.98095652 150.774914,8.95463043 152.916619,11.1058478 C155.058324,13.2570652 155.294211,19.449337 155.005904,22.520087 C155.005904,22.520087 156.966014,19.7389239 157.383497,19.03 C157.800979,18.3210761 157.435916,16.0645543 157.984447,14.5696087 C158.532978,13.074663 158.716446,12.9693587 158.585397,10.3969239 C158.454349,7.82636957 158.795075,7.11744565 158.323301,5.9628587 C157.851526,4.80827174 156.260225,1.55511957 154.247696,1.68675 C152.237039,1.81838043 149.911866,1.52879348 149.153658,1.13578261 C148.395449,0.742771739 147.403226,-0.622423913 144.739199,0.9515 C142.075173,2.52542391 140.37716,3.02373913 139.75,3.18169565 C139.12284,3.33965217 137.686924,4.62398913 137.86852,6.12081522 C138.051987,7.61576087 138.521889,9.40029348 138.104407,10.3461522 C137.686924,11.2901304 137.319988,12.8659348 137.503456,14.3608804 C137.686924,15.8558261 138.156826,16.9577609 138.104407,17.9825978 C138.053859,19.0036739 138.523762,19.5283152 138.523762,19.5283152 Z" id="Path" fill="#334F61"></path>
                    <path d="M138.967454,32.6744348 C138.967454,32.6744348 143.649626,37.3774022 144.656826,38.9438043 C144.782258,39.1393696 145.053715,39.171337 145.224078,39.0133804 C146.498992,37.8324674 150.593318,34.0715978 151.299107,33.8290217 C151.299107,33.8290217 159.736751,37.3191087 160.938652,38.7350761 C162.131192,40.1416413 165.75,52.4152391 165.954178,56.5183478 C165.955933,56.5728804 165.93534,56.6236522 165.894153,56.6593804 C165.285714,57.2084674 160.461262,61.6350109 159.382921,64.5534457 C159.317396,64.7283261 159.066532,64.7095217 159.025346,64.5271196 C158.864343,63.7881087 158.62284,62.7632717 158.506768,62.6636087 C158.506768,62.6636087 156.572869,68.8032283 156.782546,70.0104674 C156.992224,71.2177065 155.711694,73.8672391 155.606855,74.7077935 C155.502016,75.5483478 155.554435,78.9575761 155.685484,81.0316957 C155.816532,83.1039348 155.449597,87.7749348 155.37284,88.6154891 C155.309188,89.2962065 155.543203,92.0190761 155.634937,93.0194674 C155.653658,93.2263152 155.502016,93.406837 155.297955,93.4275217 C153.090726,93.6324891 141.015553,94.6027935 128.638969,93.4275217 C128.43678,93.4087174 128.28701,93.2300761 128.300115,93.0269891 C128.373128,91.9589022 128.601526,88.8242174 128.859879,87.3574783 C129.172523,85.5729457 129.878312,77.6224674 129.773474,69.5422391 C129.668635,61.4601304 129.224942,54.2975543 129.224942,53.4588804 C129.224942,53.4588804 125.853255,56.1610652 124.849798,57.0486304 C124.735599,57.1501739 124.554003,57.0787174 124.540899,56.9245217 C124.407978,55.4784674 123.853831,50.0327283 122.40481,44.4139891 C122.389833,44.3556957 122.402938,44.2955217 122.44038,44.2485109 C123.022609,43.5264239 127.764689,37.6857935 130.166619,36.0874239 C132.723934,34.3799891 136.303427,32.8587174 138.967454,32.6744348 Z" id="Path" fill="#FAFAFA"></path>
                    <path d="M158.137961,61.6425326 C158.033122,61.5635543 157.510801,62.612837 156.649626,66.9698043 C155.78845,71.3248913 155.1875,73.2937065 154.872984,73.7920217 C154.56034,74.290337 154.689516,79.1456196 154.715726,80.4299565 C154.740063,81.6447174 153.807748,91.2537391 153.927563,93.5422283 C154.539747,93.4952174 155.005904,93.4557283 155.296083,93.4275217 C155.502016,93.4087174 155.651786,93.2263152 155.633065,93.0194674 C155.543203,92.0190761 155.307316,89.2962065 155.370968,88.6154891 C155.449597,87.7749348 155.81466,83.1058152 155.683612,81.0316957 C155.552563,78.9594565 155.500144,75.5483478 155.604983,74.7077935 C155.709821,73.8672391 156.990351,71.2177065 156.780674,70.0104674 C156.570997,68.8032283 158.504896,62.6636087 158.504896,62.6636087 C158.504896,62.6636087 158.2428,61.7196304 158.137961,61.6425326 Z" id="Path" fill="#DBDBDB"></path>
                    <path d="M210.177275,155.48375 C210.177275,155.48375 210.497408,154.195652 211.118952,153.740587 C211.118952,153.740587 211.498992,152.570957 211.592598,151.109859 C211.603831,150.94062 211.817252,150.872924 211.923963,151.004554 C212.176699,151.320467 212.517425,151.736043 212.6803,151.897761 C212.959245,152.174185 213.406682,153.026022 215.033554,152.334022 C216.658554,151.640141 216.338422,149.699533 217.150922,149.402424 C217.963422,149.105315 217.770593,149.917663 217.963422,150.115109 C218.15625,150.312554 219.075461,152.610446 222.668059,153.719902 C226.260657,154.829359 228.057892,155.026804 228.207661,155.997109 C228.357431,156.967413 227.84447,157.700783 225.320853,158.176533 C222.797235,158.652283 210.757632,158.176533 210.757632,158.176533 C210.757632,158.176533 209.302995,158.018576 209.239343,156.948609 C209.171947,155.880522 210.177275,155.48375 210.177275,155.48375 Z" id="Path" fill="#334F61"></path>
                    <path d="M209.237471,156.950489 C209.301123,158.020457 210.75576,158.178413 210.75576,158.178413 C210.75576,158.178413 222.795363,158.654163 225.31898,158.178413 C227.601094,157.747793 228.239487,157.108446 228.230228,156.271652 C226.786722,156.99562 224.776066,157.16862 223.244672,157.187424 C221.597206,157.208109 216.465726,156.574402 215.37428,156.454054 C214.282834,156.335587 210.177275,155.48375 210.177275,155.48375 C210.177275,155.48375 209.171947,155.880522 209.237471,156.950489 Z" id="Path" fill="#2A404D"></path>
                    <g id="Group" transform="translate(179.723502, 148.554348)">
                        <path d="M8.3421659,7.4766087 C8.3421659,7.4766087 7.49783986,5.84063043 7.46226959,5.49086957 C7.42669931,5.1411087 7.39300115,2.35994565 7.18332373,1.86915217 C6.97364631,1.38023913 6.39890553,0.110945652 4.71025346,0.110945652 C3.02160138,0.110945652 2.34202189,0.295228261 1.88896889,2.09668478 C1.4359159,3.8981413 1.85339862,4.84211957 1.59317396,5.56044565 C1.33294931,6.27877174 1.28801843,7.14941304 1.0577477,7.72858696 C0.827476959,8.30776087 1.83654954,9.47927174 1.83654954,9.47927174 L6.36520737,9.56765217 L8.34965438,8.77975 L8.3421659,7.4766087 Z" id="Path" fill="#334F61"></path>
                        <path d="M8.37211982,9.6936413 C9.64328917,9.30063043 8.97868664,8.06894565 8.97868664,8.06894565 C8.75964862,7.93731522 8.53686636,7.6985 8.3515265,7.46532609 C8.34965438,7.49165217 8.34591014,7.51609783 8.34403802,7.54430435 C8.19988479,9.27430435 5.91589862,9.01292391 5.91589862,9.01292391 C5.91589862,9.01292391 5.74179147,8.43563043 4.49870392,8.43563043 C3.25561636,8.43563043 2.96730991,9.06557609 2.96730991,9.06557609 C1.03153802,8.93394565 1.05961982,7.72858696 1.05961982,7.72858696 L0.919210829,7.76055435 C0.91546659,7.77371739 0.91359447,7.78123913 0.91359447,7.78123913 C0.91359447,7.78123913 0.0468029954,8.04261957 0.190956221,8.75154348 C0.335109447,9.45858696 1.11578341,9.90425 2.61909562,10.0622065 C4.12240783,10.2182826 7.10095046,10.0866522 8.37211982,9.6936413 Z" id="Path" fill="#2A404D"></path>
                    </g>
                    <path d="M227.616071,30.7958804 C227.977391,30.7958804 227.977391,30.23175 227.616071,30.23175 C227.254752,30.23175 227.254752,30.7958804 227.616071,30.7958804 L227.616071,30.7958804 Z" id="Path" fill="#C18F74"></path>
                    <path d="M161.747408,41.5425652 C159.865927,37.0031957 153.467022,35.3239674 151.375864,34.327337 C149.286578,33.3307065 149.599222,27.3734891 149.599222,27.3734891 C149.599222,27.3734891 142.127592,21.1022391 142.127592,26.4295109 C142.127592,31.7567826 139.046083,32.9113696 139.046083,32.9113696 C132.516129,33.6466196 129.22307,37.1874783 128.230847,38.159663 C127.238623,39.1318478 121.307748,46.5558043 121.307748,46.5558043 L121.255328,45.8205543 C121.491215,40.7038913 116.030242,30.8128043 115.58655,30.1828587 C115.142857,29.552913 113.418635,25.0135435 113.418635,25.0135435 L112.491935,22.719413 C112.237327,22.1816087 111.943404,21.1548913 112.385225,19.7408043 C112.666043,19.0995761 112.969326,18.1762826 113.268865,16.8430543 C113.268865,16.8430543 113.592742,14.7839783 114.268577,12.745587 C114.382776,12.4033478 114.395881,12.1965 114.343462,12.0893152 C114.319124,11.5533913 114.034562,10.8068587 112.110023,13.4695543 C112.110023,13.4695543 112.050115,13.6143478 111.956509,13.8249565 C111.574597,14.5432826 111.031682,16.0231848 110.363335,15.1901522 C109.724942,14.3928478 108.616647,12.5613043 107.69182,11.2036304 C107.014113,10.207 105.903946,9.56953261 104.702045,9.56763848 C103.348502,9.5638913 101.936924,10.3329891 102.234591,13.8907717 C102.796227,16.621163 103.756624,17.9073804 104.975374,19.6956739 C106.469326,22.217337 107.25,23.9134891 107.25,23.9134891 L107.802275,25.1733804 C109.161434,28.1651522 115.53413,50.546087 116.318548,53.1956196 C117.102967,55.8451522 120.785426,55.7661739 121.961118,55.6100978 C123.136809,55.4521413 130.816244,50.572413 130.816244,50.572413 C130.816244,50.572413 130.973502,59.5195217 131.102679,63.7711848 C131.233727,68.0209674 130.893001,82.6883587 130.893001,82.6883587 C130.893001,82.6883587 154.872984,84.8395761 154.820565,83.528913 C154.768145,82.2163696 154.872984,73.1639565 155.68174,69.4124891 C156.492368,65.6610217 158.450605,60.3864022 158.450605,60.3864022 C158.581653,60.9900217 160.539891,68.1789239 160.5661,68.494837 C160.59231,68.8088696 160.017569,70.3320217 159.390409,73.1395109 C158.763249,75.947 159.573877,83.6605435 159.676843,83.6605435 C159.77981,83.6605435 163.6214,84.6045217 163.778658,83.9238043 C163.935916,83.2412065 166.442684,65.6610217 166.442684,65.6610217 C166.422091,60.303663 163.627016,46.0819348 161.747408,41.5425652 Z" id="Path" fill="#D3A095"></path>
                    <path d="M191.003024,30.8466522 C191.003024,30.8466522 191.525346,37.7741739 193.197149,37.9490543 C194.868952,38.1239348 200.337414,38.8930326 204.620824,44.2804783 C208.904234,49.6679239 210.716446,53.4118696 211.238767,53.4814457 C211.761089,53.5510217 212.91057,53.7259022 214.338998,50.961663 C215.767425,48.1974239 219.1803,43.1258913 221.758209,40.4312283 L225.867512,41.3752065 L214.687212,62.5056522 C214.687212,62.5056522 213.258785,65.3037391 210.055588,63.0998696 C206.850518,60.896 203.68102,57.2573587 203.68102,57.2573587 C203.68102,57.2573587 203.368376,69.256413 204.134073,76.0090543 C204.89977,82.7616957 205.493232,87.1337065 205.701037,87.7298043 C205.910714,88.3240217 179.055156,88.4650543 179.055156,88.4650543 C179.055156,88.4650543 179.334101,75.8003261 178.985887,70.3433043 C178.637673,64.8862826 177.974942,59.3578043 177.974942,59.3578043 C177.974942,59.3578043 174.666907,63.3462065 174.526498,66.4244783 C174.387961,69.50275 175.292195,82.378087 175.397033,82.6921196 C175.501872,83.0061522 171.356999,83.9520109 171.356999,83.9520109 C171.356999,83.9520109 168.376584,73.9725435 168.088278,67.85925 C168.262385,61.947163 171.078053,46.3433152 173.0625,44.0341413 C175.046947,41.7249674 176.510945,39.5210978 180.238335,38.1220543 C180.238335,38.1220543 182.816244,36.5124022 182.954781,31.6495978 C183.097062,26.7886739 191.003024,30.8466522 191.003024,30.8466522 Z" id="Path" fill="#C18F74"></path>
                    <path d="M168.621832,62.9024239 L172.618808,65.4109239 C172.618808,65.4109239 174.195132,66.0690761 174.517137,67.6072717 C174.511521,67.1334022 174.515265,66.7309891 174.530242,66.4263587 C174.588278,65.1420217 175.198589,63.6978478 175.891273,62.453 L175.895017,62.2292283 L169.12356,59.3784891 C168.932604,60.59325 168.764113,61.7816848 168.621832,62.9024239 Z" id="Path" fill="#000000" opacity="0.15"></path>
                    <path d="M182.681452,33.938087 C183.319844,34.1825435 184.759505,34.6169239 186.586694,34.4495652 C188.492512,34.2746848 190.375864,32.9245326 191.156538,32.2983478 C191.049827,31.4465109 191.004896,30.8447717 191.004896,30.8447717 C191.004896,30.8447717 183.098934,26.7867935 182.958525,31.6495978 C182.934188,32.5127174 182.831221,33.2705326 182.681452,33.938087 Z" id="Path" fill="#000000" opacity="0.15"></path>
                    <path d="M205.702909,87.7316848 C205.702909,87.7316848 207.095766,95.3587283 207.653658,99.1026739 C208.21155,102.84662 212.041907,122.647598 212.111175,123.452424 C212.180444,124.25725 217.544067,149.201217 217.510527,150.916174 C217.476671,152.63113 217.510527,157.668815 217.510527,157.668815 L212.390121,157.668815 L212.006336,151.265935 C212.006336,151.265935 206.328197,139.020543 205.423963,135.348054 C204.517857,131.675565 202.812356,124.607011 203.334677,120.515185 C203.334677,120.515185 196.125144,109.915174 193.303859,98.0552717 L193.303859,87.8050217 L205.702909,87.7316848 Z" id="Path" fill="#C18F74"></path>
                    <path d="M215.999568,151.508511 C214.256624,153.281761 212.260945,151.390043 211.884649,150.998913 C211.963278,151.170033 212.006336,151.264054 212.006336,151.264054 L212.133641,153.385185 L215.817972,154.237022 C215.817972,154.237022 217.933468,149.541576 215.999568,151.508511 Z" id="Path" fill="#000000" opacity="0.15"></path>
                    <path d="M212.111175,123.458065 C212.111175,123.456185 212.111175,123.452424 212.109303,123.450543 C212.092454,123.26438 211.873416,122.0515 211.540179,120.253804 L202.872264,119.810022 C203.164315,120.266967 203.332805,120.513304 203.332805,120.513304 C203.18678,121.66037 203.214862,123.040609 203.351526,124.51487 C204.912874,123.454304 211.236895,123.454304 212.111175,123.458065 Z" id="Path" fill="#000000" opacity="0.15"></path>
                    <path d="M186.493088,153.121924 L186.472494,152.418641 C186.472494,152.418641 186.650346,150.946261 186.895593,148.936076 C186.18606,148.261 185.49712,148.084239 184.166043,148.084239 C182.937932,148.084239 182.091734,148.60888 181.77909,148.828891 C181.998128,150.951902 182.14977,152.349065 182.14977,152.349065 L182.14977,153.36262 L186.493088,153.121924 Z" id="Path" fill="#000000" opacity="0.15"></path>
                    <path d="M188.850086,122.87513 L186.801987,120.744598 L180.818692,122.26587 C180.74568,123.223011 180.667051,124.390761 180.599654,125.68638 C182.520449,125.665696 186.893721,125.692022 188.945565,126.28812 C188.936204,125.193707 188.90625,124.056043 188.850086,122.87513 Z" id="Path" fill="#000000" opacity="0.15"></path>
                    <path d="M206.120392,89.8998261 C206.120392,89.8998261 210.474942,110.400326 210.787586,113.969391 C211.062788,117.092793 211.950173,121.368902 212.167339,122.386217 C212.191676,122.502804 212.107431,122.61187 211.989487,122.61375 C210.555444,122.636315 202.802995,123.249337 200.513393,123.17412 C200.331797,123.206087 200.153946,123.104543 200.092166,122.929663 C199.397609,120.938283 195.559764,110.28938 194.131336,104.130957 C194.033986,103.71162 193.429291,103.75675 193.393721,104.185489 C193.023041,108.790674 192.319124,115.73888 192.294787,117.256391 C192.262961,119.106739 191.407402,123.456185 191.229551,124.339989 C191.210829,124.43025 191.130328,124.494185 191.038594,124.490424 C189.870392,124.434011 182.612183,125.346022 178.954061,124.64462 C178.849222,124.659663 178.753744,124.588207 178.742512,124.482902 C178.559044,122.87137 177.28413,111.63013 177.28413,110.33075 C177.28413,108.931707 177.405818,93.8525 179.21803,90.0747065 C181.024626,86.296913 206.120392,89.8998261 206.120392,89.8998261 Z" id="Path" fill="#15374D"></path>
                    <path d="M192.541907,92.3143043 C198.060916,92.022837 204.124712,91.400413 206.384361,91.1559565 C206.217742,90.362413 206.11852,89.8998261 206.11852,89.8998261 C206.11852,89.8998261 181.022753,86.296913 179.212414,90.0747065 C179.021457,90.4752391 178.84735,91.0017609 178.691964,91.6260652 C180.494816,91.8705217 186.685916,92.6245761 192.541907,92.3143043 Z" id="Path" fill="#0B283A"></path>
                    <path d="M221.758209,40.4312283 C221.758209,40.4312283 221.823733,38.3232609 221.773185,36.8395978 C221.761953,36.5180435 221.619672,34.6902609 221.730127,34.3875109 C221.780674,33.5131087 220.844614,32.0426087 221.585974,31.1757283 C221.655242,31.0948696 221.754464,31.0497391 221.859303,31.0459783 C222.731711,31.7172935 223.566676,32.7722174 223.911146,34.2897283 C223.971054,34.5529891 224.118952,34.5661522 224.231279,34.3198152 C224.764833,33.1464239 225.391993,31.7417391 225.925547,30.6398043 C226.15769,30.1621739 226.4928,29.742837 226.917771,29.4250435 C226.977679,29.379913 227.030098,29.3441848 227.065668,29.3253804 C227.840726,28.661587 229.772753,28.6766304 230.766849,30.6172391 C231.199309,31.4634348 231.296659,32.4375 231.135657,33.375837 C230.411146,37.6237391 226.59015,39.5981957 226.080933,40.9408261 C225.992944,41.1326304 225.865639,41.3789674 225.865639,41.3789674 L221.758209,40.4312283 Z" id="Path" fill="#C18F74"></path>
                    <path d="M175.400778,82.694 L176.151498,84.4747717 C176.561492,85.4450761 176.767425,86.4905978 176.759937,87.5455217 C176.752448,88.5308696 176.728111,89.6553696 176.653226,89.9712826 C176.057892,90.7140543 175.614199,88.8430217 175.509361,88.4575326 C175.509361,88.4575326 175.563652,89.9374348 175.692828,90.924663 C175.827621,91.9589022 176.411722,92.9085217 175.902506,93.593 C175.786434,93.7490761 175.589862,93.8186522 175.397033,93.7979674 C173.498704,93.593 171.886809,92.4045652 171.218462,89.0987609 C171.11924,86.4398261 171.040611,84.9975326 171.356999,83.9557717 L175.400778,82.694 Z" id="Path" fill="#C18F74"></path>
                    <path d="M127.30602,51.8887174 L124.655098,42.4038043 C123.582373,43.7201087 122.535858,45.0251304 121.904954,45.8092717 C122.290611,47.1895109 124.119672,54.2336196 121.624136,55.6420652 C121.75144,55.6307826 121.865639,55.6195 121.96299,55.606337 C122.545219,55.5292391 124.722494,54.291913 126.772465,53.0639891 L127.30602,51.8887174 Z" id="Path" fill="#000000" opacity="0.15"></path>
                    <path d="M165.40553,56.6368152 L159.087126,62.8008804 C159.298675,63.5981848 159.538306,64.4932717 159.762961,65.3338261 C160.873128,62.699337 164.821429,58.5398152 165.59087,57.7443913 C165.530962,57.379587 165.469182,57.0110217 165.40553,56.6368152 Z" id="Path" fill="#000000" opacity="0.15"></path>
                    <path d="M149.58799,28.6333804 C149.573013,27.8868478 149.599222,27.3753696 149.599222,27.3753696 C149.599222,27.3753696 142.127592,21.1041196 142.127592,26.4313913 C142.127592,26.7924348 142.112615,27.1346739 142.086406,27.4581087 C142.563796,27.7909457 144.072725,28.7875761 145.259649,28.9756196 C146.341734,29.1467391 148.567684,28.8082609 149.58799,28.6333804 Z" id="Path" fill="#000000" opacity="0.15"></path>
                    <path d="M163.784274,83.918163 C163.784274,83.918163 163.372408,88.0814457 162.709677,89.7606739 C162.114343,91.270663 161.504032,94.285 159.225662,93.6719783 C158.854983,93.5723152 158.626584,93.1943478 158.686492,92.8145 C158.787586,92.1845543 158.948589,91.8554783 158.939228,91.1070652 C158.929868,90.2721522 158.935484,89.2435543 159.264977,88.2375217 C159.264977,88.2375217 158.699597,89.9656413 158.49928,90.6971304 C158.480559,90.7629457 158.430012,90.8137174 158.364487,90.8325217 C158.122984,90.9020978 157.729839,90.8607283 157.705501,90.0747065 C157.669931,88.9314022 157.271169,87.9554565 158.167915,85.7534674 C158.304579,85.4168696 158.491791,85.102837 158.722062,84.8226522 L159.680588,83.6549022 L163.784274,83.918163 Z" id="Path" fill="#D3A095"></path>
                    <path d="M154.824309,83.5251522 C154.824309,83.5251522 154.397465,113.550054 152.830501,118.587739 C152.830501,118.587739 152.482287,139.054391 151.785858,142.446696 C151.08943,145.84088 150.600806,149.654402 150.600806,149.654402 L150.600806,154.131717 L145.898041,154.131717 L144.991935,146.260217 C144.991935,146.260217 142.380328,126.389663 143.737615,118.832196 C143.737615,118.832196 139.940956,99.661163 141.648329,83.3577935 C143.355703,67.0544239 154.824309,83.5251522 154.824309,83.5251522 Z" id="Path" fill="#D3A095"></path>
                    <path d="M151.125,146.087217 L145.010657,146.418174 L145.224078,148.276043 C146.030962,148.360663 147.281538,148.462207 148.097782,148.394511 C148.833525,148.334337 149.977391,148.17262 150.823589,148.04287 C150.905962,147.486261 151.007056,146.816826 151.125,146.087217 Z" id="Path" fill="#000000" opacity="0.15"></path>
                    <path d="M130.896745,82.6845978 C130.896745,82.6845978 126.742512,108.967435 125.871976,115.09013 C125.871976,115.09013 121.552995,141.013804 120.334245,145.981913 C119.115495,150.950022 118.383497,151.510391 118.383497,151.510391 C118.383497,151.510391 118.731711,157.492054 118.383497,157.492054 C118.035282,157.492054 123.15553,157.492054 123.15553,157.492054 L123.78269,152.06888 C123.78269,152.06888 126.394297,147.591565 128.798099,141.888207 C131.201901,136.184848 134.230991,125.095924 133.813508,118.659196 C133.813508,118.659196 144.435916,95.4640326 144.8197,83.3239457 C145.203485,71.1838587 130.896745,82.6845978 130.896745,82.6845978 Z" id="Path" fill="#D3A095"></path>
                    <path d="M127.174971,145.513685 L120.905242,143.311696 C120.678715,144.455 120.482143,145.374533 120.334245,145.980033 C120.298675,146.126707 120.263105,146.26962 120.227535,146.410652 C121.373272,146.83375 124.239487,147.946967 125.490063,148.922913 C125.989919,147.954489 126.568404,146.799902 127.174971,145.513685 Z" id="Path" fill="#000000" opacity="0.15"></path>
                    <path d="M151.761521,155.502554 C151.50504,154.818076 151.428283,153.614598 151.173675,152.730793 C150.765553,151.307304 150.909706,151.422011 150.795507,151.098576 C150.561492,150.434783 150.192684,150.434783 150.192684,150.434783 L150.192684,150.434783 L150.192684,150.434783 C150.192684,149.64312 148.925259,149.620554 148.925259,149.620554 C148.925259,149.620554 148.925259,149.620554 147.755184,149.620554 C146.585109,149.620554 146.431596,150.500598 146.431596,150.500598 L146.431596,150.500598 L146.431596,150.500598 C145.203485,150.496837 145.396313,152.772163 145.396313,152.772163 C145.37572,153.907946 145.47307,153.14825 145.388825,154.090348 C145.332661,154.718413 145.371976,156.753043 145.209101,157.055793 C145.124856,157.21187 145.166043,157.492054 145.166043,157.670696 L145.166043,158.056185 C145.166043,158.357054 145.785714,158.528174 145.785714,158.528174 C145.785714,158.528174 147.53053,158.528174 149.769585,158.528174 C152.010513,158.528174 151.999291,158.12012 151.999291,158.12012 L151.999291,157.347261 C151.999291,156.655261 152.004896,156.151304 151.761521,155.502554 Z" id="Path" fill="#334F61"></path>
                    <path d="M151.999281,157.326576 C151.838278,157.21187 151.473214,157.12537 150.767425,157.12537 C150.767425,157.12537 149.911866,156.375076 148.884073,156.375076 C147.856279,156.375076 147.21227,157.025707 147.21227,157.025707 C147.21227,157.025707 147.165467,157.097163 147.068116,157.183663 C146.871544,157.272043 145.705213,157.73087 145.555444,156.08925 C145.538594,155.895565 145.521745,155.716924 145.508641,155.547685 C145.488047,154.340446 145.430012,153.614598 145.424395,153.546902 C145.428139,153.58075 145.426267,153.627761 145.420651,153.725543 C145.420651,153.733065 145.418779,153.738707 145.418779,153.746228 C145.418779,153.749989 145.418779,153.75375 145.418779,153.757511 C145.418779,153.765033 145.416907,153.772554 145.416907,153.781957 C145.416907,153.785717 145.416907,153.791359 145.415035,153.79512 C145.415035,153.804522 145.413162,153.812043 145.413162,153.821446 C145.413162,153.827087 145.413162,153.830848 145.41129,153.836489 C145.41129,153.845891 145.409418,153.855293 145.409418,153.864696 C145.409418,153.870337 145.407546,153.875978 145.407546,153.8835 C145.407546,153.892902 145.405674,153.904185 145.405674,153.915467 C145.405674,153.921109 145.403802,153.92675 145.403802,153.932391 C145.40193,153.943674 145.40193,153.956837 145.400058,153.96812 C145.400058,153.97188 145.400058,153.977522 145.398185,153.981283 C145.394441,154.01513 145.392569,154.050859 145.388825,154.088467 C145.332661,154.716533 145.371976,156.751163 145.209101,157.053913 C145.136089,157.189304 145.156682,157.418717 145.164171,157.593598 C145.164171,157.595478 145.164171,157.597359 145.164171,157.599239 C145.166043,157.623685 145.166043,157.64813 145.166043,157.668815 L145.166043,158.014815 L145.166043,158.054304 C145.166043,158.355174 145.785714,158.526293 145.785714,158.526293 C145.785714,158.526293 147.53053,158.526293 149.769585,158.526293 C152.010513,158.526293 151.999281,158.118239 151.999281,158.118239 C151.999281,158.118239 151.999281,157.364185 151.999281,157.326576 Z" id="Path" fill="#2A404D"></path>
                    <path d="M124.486607,156.612011 C124.610167,155.286304 124.610167,155.218609 124.40049,152.958326 C124.376152,152.702587 124.21515,152.484457 123.960541,152.473174 L123.485023,152.405478 C122.606999,152.491978 121.633497,152.548391 120.755472,152.510783 C119.679003,152.463772 118.793491,151.301663 117.737615,151.07037 L117.584101,151.036522 C117.438076,151.004554 117.286434,151.03088 117.15913,151.107978 L115.448013,152.956446 C115.365639,153.039185 115.258929,153.123804 115.139113,153.208424 C114.618664,153.57887 113.744384,154.082826 113.018001,154.483359 C112.233583,154.917739 111.357431,155.156554 110.462558,155.18288 L110.048819,155.18288 C108.884361,155.216728 108.343318,155.993348 108.347043,157.162978 L108.423819,157.492054 C108.5661,157.918913 108.96299,158.2085 109.412298,158.206629 L122.9964,158.191576 C123.816388,158.184054 124.40985,157.433761 124.486607,156.612011 Z" id="Path" fill="#334F61"></path>
                    <path d="M118.36852,158.197217 L122.9964,158.191576 C123.81826,158.184054 124.40985,157.433761 124.486607,156.612011 C124.593318,155.472467 124.606423,155.259978 124.475374,153.791359 C124.381768,154.737217 123.662874,157.706424 118.36852,158.197217 Z" id="Path" fill="#2A404D"></path>
                    <path d="M154.571573,92.4891848 C154.571573,92.4891848 154.223358,118.657315 153.596198,121.107522 C153.002736,123.427978 153.283554,144.641163 153.31538,146.87512 C153.317252,146.980424 153.233007,147.065043 153.128168,147.065043 L152.656394,147.30762 C149.72091,147.646098 146.755472,147.644217 143.819988,147.303859 L143.387529,147.065043 C143.290179,147.065043 143.209677,146.991707 143.200317,146.895804 C143.005616,144.851772 141.129752,125.001902 141.197149,122.015772 C141.266417,118.867924 140.639257,106.622533 141.058612,103.613837 C141.058612,103.613837 137.576469,113.480478 137.018577,119.217685 C136.46443,124.915402 132.409418,142.892359 129.282978,148.351261 C129.243664,148.420837 129.165035,148.454685 129.088278,148.439641 C128.114775,148.244076 121.90121,146.946576 119.087414,145.177087 C119.020017,145.135717 118.988191,145.056739 119.006912,144.979641 C119.328917,143.561793 122.256912,130.65825 123.505616,125.304652 C124.829205,119.637022 129.217454,92.1394239 129.217454,92.1394239 L154.571573,92.4891848 Z" id="Path" fill="#15374D"></path>
                    <path d="M128.81682,94.6159565 C130.385657,94.9281087 134.964862,95.725413 140.950029,95.725413 C147.114919,95.725413 152.77621,94.8980217 154.539747,94.6140761 C154.56034,93.2864891 154.571573,92.4891848 154.571573,92.4891848 L129.215582,92.1394239 C129.215582,92.1394239 129.067684,93.0683587 128.81682,94.6159565 Z" id="Path" fill="#0B283A"></path>
                    <path d="M181.565668,5.97226087 C181.565668,5.97226087 189.018577,4.08242391 193.060484,9.43602174 C197.100518,14.7896196 194.941964,25.0737174 194.000288,26.85825 C193.060484,28.6427826 190.065092,33.2611304 186.790755,33.6108913 C183.516417,33.9606522 179.337846,31.7925109 176.516561,26.5084891 C173.695276,21.2244674 172.650634,17.4466739 173.974222,12.6195978 C175.295939,7.7906413 181.565668,5.97226087 181.565668,5.97226087 Z" id="Path" fill="#C18F74"></path>
                    <path d="M191.306308,13.7911087 L175.075029,15.7147935 C175.075029,15.7147935 174.329925,16.248837 173.40697,16.9126304 C173.472494,19.838587 174.4928,22.6535978 176.297523,26.0985543 C176.389257,25.9518804 178.630184,22.3376848 178.766849,18.6896413 C178.766849,18.6896413 182.353831,19.2312065 185.628168,18.2345761 C188.902506,17.2379457 190.939372,16.275163 192.629896,15.1563043 C194.320421,14.0374457 191.306308,13.7911087 191.306308,13.7911087 Z" id="Path" fill="#000000" opacity="0.15"></path>
                    <path d="M177.068836,8.59170652 C177.068836,8.59170652 174.93462,5.35171739 176.376152,2.422 C177.817684,-0.507717391 181.706077,-0.204967391 183.104551,0.618663043 C184.501152,1.44229348 186.650346,2.8921087 186.534274,6.67554348 C186.416331,10.4552174 177.068836,8.59170652 177.068836,8.59170652 Z" id="Path" fill="#334F61"></path>
                    <path d="M178.304435,17.5952283 C179.478255,17.7738696 185.459677,18.480913 190.242944,15.254087 C190.359015,15.1751087 190.514401,15.2428043 190.533122,15.3819565 C190.692252,16.577913 191.830501,20.9818913 195.108583,22.8153152 C195.336982,22.9431848 195.623416,22.7965109 195.658986,22.5351304 C196.205645,18.5711739 195.705789,12.9430326 193.05674,9.43602174 C189.016705,4.08242391 181.561924,5.97226087 181.561924,5.97226087 C181.561924,5.97226087 175.292195,7.7906413 173.968606,12.6195978 C172.714286,17.1928152 172.894009,20.8239348 175.335253,25.6848587 C175.468174,25.95 175.840726,25.9650435 175.992368,25.7111848 C176.804868,24.3441087 177.952477,21.6061957 178.089142,17.77575 C178.09663,17.6629239 178.19398,17.5783043 178.304435,17.5952283 Z" id="Path" fill="#334F61"></path>
                    <path d="M186.429435,5.72780435 C186.429435,5.72780435 186.459389,5.72592391 186.511809,5.72028261 C186.502448,5.59241304 186.489343,5.46642391 186.474366,5.34231522 C182.681452,5.33667391 181.502016,5.9196087 181.502016,5.9196087 C184.722062,5.34231522 186.429435,5.72780435 186.429435,5.72780435 Z" id="Path" fill="#2A404D"></path>
                    <path d="M211.652506,53.5115326 C211.489631,53.5152935 211.351094,53.4964891 211.240639,53.4814457 C210.916763,53.4381957 210.094902,51.9789783 208.496112,49.5927065 L204.725662,58.3912609 C205.920075,59.6436304 207.981279,61.6726196 210.05746,63.10175 C210.137961,63.158163 210.21659,63.2070543 210.295219,63.2578261 C209.507056,61.9659674 209.696141,60.4522174 210.167915,59.1490761 C210.723934,57.609 211.547667,54.0549783 211.652506,53.5115326 Z" id="Path" fill="#000000" opacity="0.15"></path>
                    <path d="M193.041763,37.9227283 C193.041763,37.9227283 194.739775,37.6350217 195.863047,37.9490543 C196.986319,38.263087 203.673531,41.3864891 207.565668,47.0014674 L211.411002,52.54875 C211.440956,52.592 211.452189,52.6465326 211.439084,52.6973043 C211.248128,53.5265761 209.574453,60.5161522 207.105127,63.2521848 C207.041475,63.3236413 206.932892,63.331163 206.856135,63.27475 L205.0589,61.9321196 C205.0589,61.9321196 205.03269,68.6490326 205.528802,71.4565217 C206.024914,74.2640109 206.077333,77.6487935 205.946285,78.5401196 C205.820853,79.4032391 207.142569,86.5451304 206.829925,89.6967391 C206.811204,89.8772609 206.667051,90.016413 206.487327,90.0295761 C204.718174,90.1612065 195.68894,90.8193587 192.231135,90.8193587 C188.823877,90.8193587 180.170939,90.5711413 178.261377,90.5147283 C178.053571,90.509087 177.890697,90.3342065 177.900058,90.1254783 C177.984303,87.9084457 178.40553,76.5976304 178.334389,73.9725435 C178.25576,71.05975 177.315956,62.3759022 177.263537,61.588 C177.263537,61.588 176.168347,65.0009891 175.705933,66.0277065 C175.661002,66.1273696 175.543059,66.1649783 175.447581,66.1142065 C174.406682,65.5500761 168.949453,62.5639457 168.174395,61.6350109 C168.138825,61.5936413 168.123848,61.5391087 168.133209,61.4845761 C168.281106,60.5650435 169.713278,51.6950326 170.654954,49.2824348 C171.647177,46.7382065 172.326757,42.4602174 177.759649,39.0754348 C177.759649,39.0754348 179.431452,38.1577826 180.137241,38.0261522 C180.137241,38.0261522 184.134217,42.5918478 187.346774,42.5918478 C190.559332,42.5918478 193.041763,37.9227283 193.041763,37.9227283 Z" id="Path" fill="#FAFAFA"></path>
                    <path d="M204.036722,63.0321739 C204.003024,64.1604348 205.2536,84.3337391 205.532546,90.0991522 C205.944412,90.0690652 206.270161,90.0446196 206.487327,90.0295761 C206.667051,90.016413 206.811204,89.8772609 206.829925,89.6967391 C207.142569,86.5451304 205.820853,79.4032391 205.946285,78.5401196 C206.077333,77.6487935 206.024914,74.2640109 205.528802,71.4565217 C205.03269,68.6490326 205.0589,61.9321196 205.0589,61.9321196 C205.0589,61.9321196 204.070421,61.8418587 204.036722,63.0321739 Z" id="Path" fill="#DBDBDB"></path>
                    <path d="M145.811924,28.2932326 C145.811924,28.2932326 138.080069,27.4787935 138.392713,16.5384239 C138.705357,5.59617391 141.05674,5.07153261 144.24496,3.6818913 C147.431308,2.29036957 154.69326,3.31520652 156.391273,7.32993478 C158.089286,11.344663 157.228111,18.6915217 155.110743,22.2850326 C152.995248,25.8785435 151.793347,28.3193478 145.811924,28.2932326 Z" id="Path" fill="#D3A095"></path>
                    <path d="M145.811924,28.2932326 C145.811924,28.2932326 138.080069,27.4787935 138.392713,16.5384239 C138.705357,5.59617391 141.05674,5.07153261 144.24496,3.6818913 C147.431308,2.29036957 154.69326,3.31520652 156.391273,7.32993478 C158.089286,11.344663 157.228111,18.6915217 155.110743,22.2850326 C152.995248,25.8785435 151.793347,28.3193478 145.811924,28.2932326 Z" id="Path" fill="#D3A095"></path>
                    <path d="M145.811924,28.2932326 C145.811924,28.2932326 138.080069,27.4787935 138.392713,16.5384239 C138.705357,5.59617391 141.05674,5.07153261 144.24496,3.6818913 C147.431308,2.29036957 154.69326,3.31520652 156.391273,7.32993478 C158.089286,11.344663 157.228111,18.6915217 155.110743,22.2850326 C152.995248,25.8785435 151.793347,28.3193478 145.811924,28.2932326 Z" id="Path" fill="#D3A095"></path>
                    <path d="M153.131912,11.3597065 C155.136953,12.2848804 156.46803,12.7361848 157.289891,12.8433696 C157.295507,11.8410978 157.231855,10.8632717 157.093318,9.94938043 C155.09951,7.41079348 151.512529,4.13507609 151.512529,4.13507609 L141.625864,5.00947826 C139.826757,6.33142391 138.611751,8.89069565 138.392713,16.5384239 C138.360887,17.6309565 138.411434,18.6200652 138.525634,19.518913 C138.585541,19.0976957 140.616791,5.59053261 153.131912,11.3597065 Z" id="Path" fill="#000000" opacity="0.15"></path>
                    <path d="M138.523762,19.5283152 C138.523762,19.5283152 140.195565,11.0795217 143.460541,10.0302391 C146.725518,8.98095652 150.774914,8.95463043 152.916619,11.1058478 C155.058324,13.2570652 155.294211,19.449337 155.005904,22.520087 C155.005904,22.520087 156.966014,19.7389239 157.383497,19.03 C157.800979,18.3210761 157.435916,16.0645543 157.984447,14.5696087 C158.532978,13.074663 158.716446,12.9693587 158.585397,10.3969239 C158.454349,7.82636957 158.795075,7.11744565 158.323301,5.9628587 C157.851526,4.80827174 156.260225,1.55511957 154.247696,1.68675 C152.237039,1.81838043 149.911866,1.52879348 149.153658,1.13578261 C148.395449,0.742771739 147.403226,-0.622423913 144.739199,0.9515 C142.075173,2.52542391 140.37716,3.02373913 139.75,3.18169565 C139.12284,3.33965217 137.686924,4.62398913 137.86852,6.12081522 C138.051987,7.61576087 138.521889,9.40029348 138.104407,10.3461522 C137.686924,11.2901304 137.319988,12.8659348 137.503456,14.3608804 C137.686924,15.8558261 138.156826,16.9577609 138.104407,17.9825978 C138.053859,19.0036739 138.523762,19.5283152 138.523762,19.5283152 Z" id="Path" fill="#334F61"></path>
                    <path d="M138.967454,32.6744348 C138.967454,32.6744348 143.649626,37.3774022 144.656826,38.9438043 C144.782258,39.1393696 145.053715,39.171337 145.224078,39.0133804 C146.498992,37.8324674 150.593318,34.0715978 151.299107,33.8290217 C151.299107,33.8290217 159.736751,37.3191087 160.938652,38.7350761 C162.131192,40.1416413 165.75,52.4152391 165.954178,56.5183478 C165.955933,56.5728804 165.93534,56.6236522 165.894153,56.6593804 C165.285714,57.2084674 160.461262,61.6350109 159.382921,64.5534457 C159.317396,64.7283261 159.066532,64.7095217 159.025346,64.5271196 C158.864343,63.7881087 158.62284,62.7632717 158.506768,62.6636087 C158.506768,62.6636087 156.572869,68.8032283 156.782546,70.0104674 C156.992224,71.2177065 155.711694,73.8672391 155.606855,74.7077935 C155.502016,75.5483478 155.554435,78.9575761 155.685484,81.0316957 C155.816532,83.1039348 155.449597,87.7749348 155.37284,88.6154891 C155.309188,89.2962065 155.543203,92.0190761 155.634937,93.0194674 C155.653658,93.2263152 155.502016,93.406837 155.297955,93.4275217 C153.090726,93.6324891 141.015553,94.6027935 128.638969,93.4275217 C128.43678,93.4087174 128.28701,93.2300761 128.300115,93.0269891 C128.373128,91.9589022 128.601526,88.8242174 128.859879,87.3574783 C129.172523,85.5729457 129.878312,77.6224674 129.773474,69.5422391 C129.668635,61.4601304 129.224942,54.2975543 129.224942,53.4588804 C129.224942,53.4588804 125.853255,56.1610652 124.849798,57.0486304 C124.735599,57.1501739 124.554003,57.0787174 124.540899,56.9245217 C124.407978,55.4784674 123.853831,50.0327283 122.40481,44.4139891 C122.389833,44.3556957 122.402938,44.2955217 122.44038,44.2485109 C123.022609,43.5264239 127.764689,37.6857935 130.166619,36.0874239 C132.723934,34.3799891 136.303427,32.8587174 138.967454,32.6744348 Z" id="Path" fill="#FAFAFA"></path>
                    <path d="M158.137961,61.6425326 C158.033122,61.5635543 157.510801,62.612837 156.649626,66.9698043 C155.78845,71.3248913 155.1875,73.2937065 154.872984,73.7920217 C154.56034,74.290337 154.689516,79.1456196 154.715726,80.4299565 C154.740063,81.6447174 153.807748,91.2537391 153.927563,93.5422283 C154.539747,93.4952174 155.005904,93.4557283 155.296083,93.4275217 C155.502016,93.4087174 155.651786,93.2263152 155.633065,93.0194674 C155.543203,92.0190761 155.307316,89.2962065 155.370968,88.6154891 C155.449597,87.7749348 155.81466,83.1058152 155.683612,81.0316957 C155.552563,78.9594565 155.500144,75.5483478 155.604983,74.7077935 C155.709821,73.8672391 156.990351,71.2177065 156.780674,70.0104674 C156.570997,68.8032283 158.504896,62.6636087 158.504896,62.6636087 C158.504896,62.6636087 158.2428,61.7196304 158.137961,61.6425326 Z" id="Path" fill="#DBDBDB"></path>
                    <path d="M210.177275,155.48375 C210.177275,155.48375 210.497408,154.195652 211.118952,153.740587 C211.118952,153.740587 211.498992,152.570957 211.592598,151.109859 C211.603831,150.94062 211.817252,150.872924 211.923963,151.004554 C212.176699,151.320467 212.517425,151.736043 212.6803,151.897761 C212.959245,152.174185 213.406682,153.026022 215.033554,152.334022 C216.658554,151.640141 216.338422,149.699533 217.150922,149.402424 C217.963422,149.105315 217.770593,149.917663 217.963422,150.115109 C218.15625,150.312554 219.075461,152.610446 222.668059,153.719902 C226.260657,154.829359 228.057892,155.026804 228.207661,155.997109 C228.357431,156.967413 227.84447,157.700783 225.320853,158.176533 C222.797235,158.652283 210.757632,158.176533 210.757632,158.176533 C210.757632,158.176533 209.302995,158.018576 209.239343,156.948609 C209.171947,155.880522 210.177275,155.48375 210.177275,155.48375 Z" id="Path" fill="#334F61"></path>
                    <path d="M209.237471,156.950489 C209.301123,158.020457 210.75576,158.178413 210.75576,158.178413 C210.75576,158.178413 222.795363,158.654163 225.31898,158.178413 C227.601094,157.747793 228.239487,157.108446 228.230228,156.271652 C226.786722,156.99562 224.776066,157.16862 223.244672,157.187424 C221.597206,157.208109 216.465726,156.574402 215.37428,156.454054 C214.282834,156.335587 210.177275,155.48375 210.177275,155.48375 C210.177275,155.48375 209.171947,155.880522 209.237471,156.950489 Z" id="Path" fill="#2A404D"></path>
                    <g id="Group" transform="translate(179.723502, 148.554348)">
                        <path d="M8.3421659,7.4766087 C8.3421659,7.4766087 7.49783986,5.84063043 7.46226959,5.49086957 C7.42669931,5.1411087 7.39300115,2.35994565 7.18332373,1.86915217 C6.97364631,1.38023913 6.39890553,0.110945652 4.71025346,0.110945652 C3.02160138,0.110945652 2.34202189,0.295228261 1.88896889,2.09668478 C1.4359159,3.8981413 1.85339862,4.84211957 1.59317396,5.56044565 C1.33294931,6.27877174 1.28801843,7.14941304 1.0577477,7.72858696 C0.827476959,8.30776087 1.83654954,9.47927174 1.83654954,9.47927174 L6.36520737,9.56765217 L8.34965438,8.77975 L8.3421659,7.4766087 Z" id="Path" fill="#334F61"></path>
                        <path d="M8.37211982,9.6936413 C9.64328917,9.30063043 8.97868664,8.06894565 8.97868664,8.06894565 C8.75964862,7.93731522 8.53686636,7.6985 8.3515265,7.46532609 C8.34965438,7.49165217 8.34591014,7.51609783 8.34403802,7.54430435 C8.19988479,9.27430435 5.91589862,9.01292391 5.91589862,9.01292391 C5.91589862,9.01292391 5.74179147,8.43563043 4.49870392,8.43563043 C3.25561636,8.43563043 2.96730991,9.06557609 2.96730991,9.06557609 C1.03153802,8.93394565 1.05961982,7.72858696 1.05961982,7.72858696 L0.919210829,7.76055435 C0.91546659,7.77371739 0.91359447,7.78123913 0.91359447,7.78123913 C0.91359447,7.78123913 0.0468029954,8.04261957 0.190956221,8.75154348 C0.335109447,9.45858696 1.11578341,9.90425 2.61909562,10.0622065 C4.12240783,10.2182826 7.10095046,10.0866522 8.37211982,9.6936413 Z" id="Path" fill="#2A404D"></path>
                    </g>
                    <path d="M227.616071,30.7958804 C227.977391,30.7958804 227.977391,30.23175 227.616071,30.23175 C227.254752,30.23175 227.254752,30.7958804 227.616071,30.7958804 L227.616071,30.7958804 Z" id="Path" fill="#C18F74"></path>
                </g>
            </g>
        </g>
    </g>
</svg>