<svg xmlns="http://www.w3.org/2000/svg" width="42" height="56" viewBox="0 0 42 56">
  <g fill="none" fill-rule="evenodd">
    <path d="M42,26 L42,42 L42,56 L0,56 L0,42 L32,42 L32,26 L0,26 L0,0 L42,0 L42,26 Z"/>
    <path stroke="#F62400" d="M4,0.5 C2.06700338,0.5 0.5,2.06700338 0.5,4 L0.5,52 C0.5,53.9329966 2.06700338,55.5 4,55.5 L38,55.5 C39.9329966,55.5 41.5,53.9329966 41.5,52 L41.5,13.8284271 C41.5,13.4306024 41.3419647,13.0490715 41.0606602,12.767767 L29.232233,0.939339828 C28.9509285,0.658035261 28.5693976,0.5 28.1715729,0.5 L4,0.5 Z"/>
    <path stroke="#F62400" d="M28.5,0.5 L28.5,11.5 C28.5,12.6045695 29.3954305,13.5 30.5,13.5 L41.5,13.5"/>
    <g transform="translate(0 26)">
      <path fill="#FFF1EF" d="M0,0 L25,0 C26.1045695,-2.02906125e-16 27,0.8954305 27,2 L27,14 C27,15.1045695 26.1045695,16 25,16 L0,16 L0,0 Z"/>
      <text fill="#F62400" font-family="SourceSansPro-Regular, Source Sans Pro" font-size="10" letter-spacing=".091">
        <tspan x="3" y="10">.PDF</tspan>
      </text>
    </g>
  </g>
</svg>
