<svg width="40" height="56" viewBox="0 0 40 56" fill="none" xmlns="http://www.w3.org/2000/svg">
    <g clip-path="url(#clip0_8246_395298)">
        <path d="M0.5 4C0.5 2.067 2.067 0.5 4 0.5H27.5858C27.7184 0.5 27.8456 0.552678 27.9393 0.646447L39.3536 12.0607C39.4473 12.1544 39.5 12.2816 39.5 12.4142V52C39.5 53.933 37.933 55.5 36 55.5H4C2.067 55.5 0.5 53.933 0.5 52V4Z" fill="white" stroke="#932AEF"/>
        <path d="M28 1V9C28 10.6569 29.3431 12 31 12H39" stroke="#932AEF" stroke-linecap="round"/>
        <path d="M0 28H20C21.1046 28 22 28.8954 22 30V42C22 43.1046 21.1046 44 20 44H0V28Z" fill="#F5EDFD"/>
        <path d="M4.44359 39.62C4.27693 39.62 4.13359 39.5633 4.01359 39.45C3.90026 39.33 3.84359 39.18 3.84359 39C3.84359 38.8067 3.90026 38.6533 4.01359 38.54C4.13359 38.42 4.27693 38.36 4.44359 38.36C4.60359 38.36 4.74026 38.42 4.85359 38.54C4.97359 38.6533 5.03359 38.8067 5.03359 39C5.03359 39.18 4.97359 39.33 4.85359 39.45C4.74026 39.5633 4.60359 39.62 4.44359 39.62ZM7.79383 35.83L7.48383 36.83H9.45383L9.14383 35.83C9.02383 35.4633 8.9105 35.1 8.80383 34.74C8.69716 34.3733 8.5905 34 8.48383 33.62H8.44383C8.34383 34 8.2405 34.3733 8.13383 34.74C8.02716 35.1 7.91383 35.4633 7.79383 35.83ZM5.79383 39.5L8.01383 32.94H8.95383L11.1738 39.5H10.2838L9.66383 37.5H7.27383L6.64383 39.5H5.79383ZM13.2466 39.5L11.1466 32.94H12.0366L13.0866 36.48C13.2066 36.8733 13.3099 37.2367 13.3966 37.57C13.4899 37.9033 13.5999 38.2633 13.7266 38.65H13.7666C13.8866 38.2633 13.9932 37.9033 14.0866 37.57C14.1799 37.2367 14.2832 36.8733 14.3966 36.48L15.4466 32.94H16.2966L14.2166 39.5H13.2466ZM17.273 39.5V32.94H18.103V39.5H17.273Z" fill="#932AEF"/>
    </g>
    <defs>
        <clipPath id="clip0_8246_395298">
            <rect width="40" height="56" fill="white"/>
        </clipPath>
    </defs>
</svg>
