<svg width="40" height="56" viewBox="0 0 40 56" fill="none" xmlns="http://www.w3.org/2000/svg">
    <g clip-path="url(#clip0_965_193104)">
        <path d="M0.5 4C0.5 2.067 2.067 0.5 4 0.5H27.5858C27.7184 0.5 27.8456 0.552678 27.9393 0.646447L39.3536 12.0607C39.4473 12.1544 39.5 12.2816 39.5 12.4142V52C39.5 53.933 37.933 55.5 36 55.5H4C2.067 55.5 0.5 53.933 0.5 52V4Z" fill="white" stroke="black"/>
        <path d="M28 1V9C28 10.6569 29.3431 12 31 12H39" stroke="black" stroke-linecap="round"/>
        <path fill-rule="evenodd" clip-rule="evenodd" d="M20 28.5858L24.2929 24.2929C24.6834 23.9024 25.3166 23.9024 25.7071 24.2929C26.0976 24.6834 26.0976 25.3166 25.7071 25.7071L21.4142 30L25.7071 34.2929C26.0976 34.6834 26.0976 35.3166 25.7071 35.7071C25.3166 36.0976 24.6834 36.0976 24.2929 35.7071L20 31.4142L15.7071 35.7071C15.3166 36.0976 14.6834 36.0976 14.2929 35.7071C13.9024 35.3166 13.9024 34.6834 14.2929 34.2929L18.5858 30L14.2929 25.7071C13.9024 25.3166 13.9024 24.6834 14.2929 24.2929C14.6834 23.9024 15.3166 23.9024 15.7071 24.2929L20 28.5858Z" fill="#DE294C"/>
    </g>
    <defs>
        <clipPath id="clip0_965_193104">
            <rect width="40" height="56" fill="white"/>
        </clipPath>
    </defs>
</svg>
