<svg width="40" height="56" viewBox="0 0 40 56" fill="none" xmlns="http://www.w3.org/2000/svg">
    <g clip-path="url(#clip0_965_193140)">
        <path d="M0.5 4C0.5 2.067 2.067 0.5 4 0.5H27.5858C27.7184 0.5 27.8456 0.552678 27.9393 0.646447L39.3536 12.0607C39.4473 12.1544 39.5 12.2816 39.5 12.4142V52C39.5 53.933 37.933 55.5 36 55.5H4C2.067 55.5 0.5 53.933 0.5 52V4Z" fill="white" stroke="#2E73DC"/>
        <path d="M28 1V9C28 10.6569 29.3431 12 31 12H39" stroke="#2E73DC" stroke-linecap="round"/>
        <path d="M0 28H26C27.1046 28 28 28.8954 28 30V42C28 43.1046 27.1046 44 26 44H0V28Z" fill="#EAF1FB"/>
        <path d="M5.01391 39.62C4.84724 39.62 4.70391 39.5633 4.58391 39.45C4.47057 39.33 4.41391 39.18 4.41391 39C4.41391 38.8067 4.47057 38.6533 4.58391 38.54C4.70391 38.42 4.84724 38.36 5.01391 38.36C5.17391 38.36 5.31057 38.42 5.42391 38.54C5.54391 38.6533 5.60391 38.8067 5.60391 39C5.60391 39.18 5.54391 39.33 5.42391 39.45C5.31057 39.5633 5.17391 39.62 5.01391 39.62ZM7.23414 39.5V32.94H8.87414C9.88747 32.94 10.6575 33.2233 11.1841 33.79C11.7108 34.35 11.9741 35.15 11.9741 36.19C11.9741 37.2367 11.7108 38.05 11.1841 38.63C10.6641 39.21 9.90747 39.5 8.91414 39.5H7.23414ZM8.06414 38.82H8.81414C9.58081 38.82 10.1541 38.59 10.5341 38.13C10.9208 37.6633 11.1141 37.0167 11.1141 36.19C11.1141 35.3633 10.9208 34.73 10.5341 34.29C10.1541 33.8433 9.58081 33.62 8.81414 33.62H8.06414V38.82ZM15.8865 39.62C15.3398 39.62 14.8532 39.48 14.4265 39.2C14.0065 38.92 13.6765 38.5233 13.4365 38.01C13.2032 37.4967 13.0865 36.89 13.0865 36.19C13.0865 35.49 13.2032 34.89 13.4365 34.39C13.6765 33.8833 14.0065 33.4967 14.4265 33.23C14.8532 32.9567 15.3398 32.82 15.8865 32.82C16.4398 32.82 16.9265 32.9567 17.3465 33.23C17.7665 33.4967 18.0965 33.8833 18.3365 34.39C18.5765 34.89 18.6965 35.49 18.6965 36.19C18.6965 36.89 18.5765 37.4967 18.3365 38.01C18.0965 38.5233 17.7665 38.92 17.3465 39.2C16.9265 39.48 16.4398 39.62 15.8865 39.62ZM15.8865 38.89C16.2798 38.89 16.6198 38.78 16.9065 38.56C17.1998 38.3333 17.4265 38.02 17.5865 37.62C17.7465 37.2133 17.8265 36.7367 17.8265 36.19C17.8265 35.3767 17.6498 34.7333 17.2965 34.26C16.9432 33.7867 16.4732 33.55 15.8865 33.55C15.2998 33.55 14.8298 33.7867 14.4765 34.26C14.1232 34.7333 13.9465 35.3767 13.9465 36.19C13.9465 36.7367 14.0265 37.2133 14.1865 37.62C14.3465 38.02 14.5732 38.3333 14.8665 38.56C15.1598 38.78 15.4998 38.89 15.8865 38.89ZM22.6671 39.62C22.1204 39.62 21.6304 39.4867 21.1971 39.22C20.7704 38.9467 20.4304 38.5567 20.1771 38.05C19.9304 37.5433 19.8071 36.9333 19.8071 36.22C19.8071 35.5133 19.9338 34.9067 20.1871 34.4C20.4404 33.8933 20.7871 33.5033 21.2271 33.23C21.6671 32.9567 22.1638 32.82 22.7171 32.82C23.1171 32.82 23.4704 32.9033 23.7771 33.07C24.0838 33.23 24.3304 33.4167 24.5171 33.63L24.0671 34.17C23.8938 33.9833 23.6971 33.8333 23.4771 33.72C23.2571 33.6067 23.0071 33.55 22.7271 33.55C22.3138 33.55 21.9504 33.66 21.6371 33.88C21.3304 34.0933 21.0904 34.3967 20.9171 34.79C20.7504 35.1833 20.6671 35.6533 20.6671 36.2C20.6671 36.7467 20.7504 37.2233 20.9171 37.63C21.0838 38.03 21.3171 38.34 21.6171 38.56C21.9238 38.78 22.2838 38.89 22.6971 38.89C23.0104 38.89 23.2904 38.8233 23.5371 38.69C23.7838 38.5567 24.0104 38.3767 24.2171 38.15L24.6771 38.67C24.4171 38.97 24.1238 39.2033 23.7971 39.37C23.4704 39.5367 23.0938 39.62 22.6671 39.62Z" fill="#2E73DC"/>
    </g>
    <defs>
        <clipPath id="clip0_965_193140">
            <rect width="40" height="56" fill="white"/>
        </clipPath>
    </defs>
</svg>
