<svg width="40" height="56" viewBox="0 0 40 56" fill="none" xmlns="http://www.w3.org/2000/svg">
    <g clip-path="url(#clip0_8246_395634)">
        <path d="M0.5 4C0.5 2.067 2.067 0.5 4 0.5H27.5858C27.7184 0.5 27.8456 0.552678 27.9393 0.646447L39.3536 12.0607C39.4473 12.1544 39.5 12.2816 39.5 12.4142V52C39.5 53.933 37.933 55.5 36 55.5H4C2.067 55.5 0.5 53.933 0.5 52V4Z" fill="white" stroke="#2E73DC"/>
        <path d="M28 1V9C28 10.6569 29.3431 12 31 12H39" stroke="#2E73DC" stroke-linecap="round"/>
        <path d="M0 28H15C16.1046 28 17 28.8954 17 30V42C17 43.1046 16.1046 44 15 44H0V28Z" fill="#EAF1FB"/>
        <path d="M4.53336 39.62C4.36669 39.62 4.22336 39.5633 4.10336 39.45C3.99003 39.33 3.93336 39.18 3.93336 39C3.93336 38.8067 3.99003 38.6533 4.10336 38.54C4.22336 38.42 4.36669 38.36 4.53336 38.36C4.69336 38.36 4.83003 38.42 4.94336 38.54C5.06336 38.6533 5.12336 38.8067 5.12336 39C5.12336 39.18 5.06336 39.33 4.94336 39.45C4.83003 39.5633 4.69336 39.62 4.53336 39.62ZM7.88359 35.83L7.57359 36.83H9.54359L9.23359 35.83C9.11359 35.4633 9.00026 35.1 8.89359 34.74C8.78693 34.3733 8.68026 34 8.57359 33.62H8.53359C8.43359 34 8.33026 34.3733 8.22359 34.74C8.11693 35.1 8.00359 35.4633 7.88359 35.83ZM5.88359 39.5L8.10359 32.94H9.04359L11.2636 39.5H10.3736L9.75359 37.5H7.36359L6.73359 39.5H5.88359ZM12.273 39.5V32.94H13.103V39.5H12.273Z" fill="#2E73DC"/>
    </g>
    <defs>
        <clipPath id="clip0_8246_395634">
            <rect width="40" height="56" fill="white"/>
        </clipPath>
    </defs>
</svg>
