<svg width="40" height="56" viewBox="0 0 40 56" fill="none" xmlns="http://www.w3.org/2000/svg">
    <g clip-path="url(#clip0_8246_395289)">
        <path d="M0.5 4C0.5 2.067 2.067 0.5 4 0.5H27.5858C27.7184 0.5 27.8456 0.552678 27.9393 0.646447L39.3536 12.0607C39.4473 12.1544 39.5 12.2816 39.5 12.4142V52C39.5 53.933 37.933 55.5 36 55.5H4C2.067 55.5 0.5 53.933 0.5 52V4Z" fill="white" stroke="#932AEF"/>
        <path d="M28 1V9C28 10.6569 29.3431 12 31 12H39" stroke="#932AEF" stroke-linecap="round"/>
        <path d="M0 28H25C26.1046 28 27 28.8954 27 30V42C27 43.1046 26.1046 44 25 44H0V28Z" fill="#F5EDFD"/>
        <path d="M4.61938 39.62C4.45271 39.62 4.30938 39.5633 4.18938 39.45C4.07604 39.33 4.01938 39.18 4.01938 39C4.01938 38.8067 4.07604 38.6533 4.18938 38.54C4.30938 38.42 4.45271 38.36 4.61938 38.36C4.77938 38.36 4.91604 38.42 5.02938 38.54C5.14938 38.6533 5.20938 38.8067 5.20938 39C5.20938 39.18 5.14938 39.33 5.02938 39.45C4.91604 39.5633 4.77938 39.62 4.61938 39.62ZM6.83961 39.5V32.94H7.83961L9.09961 36.44C9.17961 36.6667 9.25628 36.8967 9.32961 37.13C9.40961 37.3567 9.48961 37.5833 9.56961 37.81H9.60961C9.68961 37.5833 9.76294 37.3567 9.82961 37.13C9.90294 36.8967 9.97961 36.6667 10.0596 36.44L11.2996 32.94H12.3096V39.5H11.5296V35.89C11.5296 35.5967 11.5429 35.2733 11.5696 34.92C11.5963 34.5667 11.6196 34.2433 11.6396 33.95H11.5996L11.0796 35.44L9.83961 38.84H9.28961L8.04961 35.44L7.52961 33.95H7.48961C7.50961 34.2433 7.52961 34.5667 7.54961 34.92C7.57628 35.2733 7.58961 35.5967 7.58961 35.89V39.5H6.83961ZM14.1852 39.5V32.94H16.0552C16.4219 32.94 16.7552 32.9733 17.0552 33.04C17.3619 33.1067 17.6219 33.2167 17.8352 33.37C18.0486 33.5167 18.2152 33.7133 18.3352 33.96C18.4552 34.2067 18.5152 34.51 18.5152 34.87C18.5152 35.2167 18.4552 35.5167 18.3352 35.77C18.2219 36.0233 18.0586 36.2333 17.8452 36.4C17.6319 36.5667 17.3752 36.6933 17.0752 36.78C16.7819 36.86 16.4552 36.9 16.0952 36.9H15.0152V39.5H14.1852ZM15.0152 36.22H15.9952C16.5686 36.22 16.9919 36.1133 17.2652 35.9C17.5452 35.68 17.6852 35.3367 17.6852 34.87C17.6852 34.3967 17.5386 34.07 17.2452 33.89C16.9586 33.7033 16.5286 33.61 15.9552 33.61H15.0152V36.22ZM22.0693 39.5V37.74H19.1993V37.2L21.9293 33.12H22.8493V37.08H23.7193V37.74H22.8493V39.5H22.0693ZM20.0693 37.08H22.0693V35.23C22.0693 35.0567 22.0726 34.8533 22.0793 34.62C22.0926 34.38 22.106 34.1733 22.1193 34H22.0793C21.9993 34.1533 21.916 34.3033 21.8293 34.45C21.7426 34.5967 21.6526 34.7467 21.5593 34.9L20.0693 37.08Z" fill="#932AEF"/>
    </g>
    <defs>
        <clipPath id="clip0_8246_395289">
            <rect width="40" height="56" fill="white"/>
        </clipPath>
    </defs>
</svg>
