<svg width="40" height="56" viewBox="0 0 40 56" fill="none" xmlns="http://www.w3.org/2000/svg">
    <g clip-path="url(#clip0_965_193157)">
        <path d="M0.5 4C0.5 2.067 2.067 0.5 4 0.5H27.5858C27.7184 0.5 27.8456 0.552678 27.9393 0.646447L39.3536 12.0607C39.4473 12.1544 39.5 12.2816 39.5 12.4142V52C39.5 53.933 37.933 55.5 36 55.5H4C2.067 55.5 0.5 53.933 0.5 52V4Z" fill="white" stroke="#E07F02"/>
        <path d="M28 1V9C28 10.6569 29.3431 12 31 12H39" stroke="#E07F02" stroke-linecap="round"/>
        <path d="M0 28H24C25.1046 28 26 28.8954 26 30V42C26 43.1046 25.1046 44 24 44H0V28Z" fill="#FEF5E6"/>
        <path d="M4.87914 39.62C4.71247 39.62 4.56914 39.5633 4.44914 39.45C4.33581 39.33 4.27914 39.18 4.27914 39C4.27914 38.8067 4.33581 38.6533 4.44914 38.54C4.56914 38.42 4.71247 38.36 4.87914 38.36C5.03914 38.36 5.17581 38.42 5.28914 38.54C5.40914 38.6533 5.46914 38.8067 5.46914 39C5.46914 39.18 5.40914 39.33 5.28914 39.45C5.17581 39.5633 5.03914 39.62 4.87914 39.62ZM8.31938 39.62C7.49938 39.62 6.89604 39.27 6.50938 38.57L7.10938 38.15C7.25604 38.41 7.42271 38.6 7.60938 38.72C7.79604 38.8333 8.00604 38.89 8.23938 38.89C8.59271 38.89 8.85604 38.7833 9.02938 38.57C9.20271 38.35 9.28938 37.99 9.28938 37.49V32.94H10.1294V37.57C10.1294 37.9433 10.066 38.2867 9.93938 38.6C9.81938 38.9133 9.62604 39.1633 9.35938 39.35C9.09271 39.53 8.74604 39.62 8.31938 39.62ZM11.9841 39.5V32.94H13.8541C14.3474 32.94 14.7774 33 15.1441 33.12C15.5107 33.24 15.7974 33.4433 16.0041 33.73C16.2107 34.01 16.3141 34.39 16.3141 34.87C16.3141 35.5567 16.0907 36.0667 15.6441 36.4C15.1974 36.7333 14.6141 36.9 13.8941 36.9H12.8141V39.5H11.9841ZM12.8141 36.22H13.7941C14.3674 36.22 14.7907 36.1133 15.0641 35.9C15.3441 35.68 15.4841 35.3367 15.4841 34.87C15.4841 34.3967 15.3374 34.07 15.0441 33.89C14.7574 33.7033 14.3274 33.61 13.7541 33.61H12.8141V36.22ZM20.3081 39.62C19.7348 39.62 19.2248 39.4867 18.7781 39.22C18.3315 38.9467 17.9815 38.5567 17.7281 38.05C17.4748 37.5433 17.3481 36.9333 17.3481 36.22C17.3481 35.5133 17.4781 34.9067 17.7381 34.4C17.9981 33.8933 18.3548 33.5033 18.8081 33.23C19.2615 32.9567 19.7781 32.82 20.3581 32.82C20.8115 32.82 21.1915 32.9067 21.4981 33.08C21.8115 33.2467 22.0615 33.43 22.2481 33.63L21.7881 34.17C21.6215 33.9967 21.4281 33.85 21.2081 33.73C20.9881 33.61 20.7115 33.55 20.3781 33.55C19.9381 33.55 19.5548 33.66 19.2281 33.88C18.9015 34.0933 18.6481 34.3967 18.4681 34.79C18.2948 35.1833 18.2081 35.6533 18.2081 36.2C18.2081 37.0267 18.3948 37.6833 18.7681 38.17C19.1481 38.65 19.6881 38.89 20.3881 38.89C20.6215 38.89 20.8448 38.8567 21.0581 38.79C21.2715 38.7167 21.4415 38.62 21.5681 38.5V36.79H20.1781V36.1H22.3281V38.86C22.1215 39.08 21.8415 39.2633 21.4881 39.41C21.1415 39.55 20.7481 39.62 20.3081 39.62Z" fill="#E07F02"/>
    </g>
    <defs>
        <clipPath id="clip0_965_193157">
            <rect width="40" height="56" fill="white"/>
        </clipPath>
    </defs>
</svg>
