<?xml version="1.0" encoding="UTF-8" standalone="no"?>
<svg
   width="42"
   height="56"
   viewBox="0 0 42 56"
   version="1.1"
   id="svg18"
   sodipodi:docname="icons-multicolor-file-thumbnail-glb.svg"
   inkscape:version="1.1.2 (0a00cf5339, 2022-02-04)"
   xmlns:inkscape="http://www.inkscape.org/namespaces/inkscape"
   xmlns:sodipodi="http://sodipodi.sourceforge.net/DTD/sodipodi-0.dtd"
   xmlns="http://www.w3.org/2000/svg"
   xmlns:svg="http://www.w3.org/2000/svg">
  <defs
     id="defs22" />
  <sodipodi:namedview
     id="namedview20"
     pagecolor="#505050"
     bordercolor="#eeeeee"
     borderopacity="1"
     inkscape:pageshadow="0"
     inkscape:pageopacity="0"
     inkscape:pagecheckerboard="0"
     showgrid="false"
     inkscape:zoom="12.839286"
     inkscape:cx="20.250347"
     inkscape:cy="29.401946"
     inkscape:window-width="1720"
     inkscape:window-height="1376"
     inkscape:window-x="20"
     inkscape:window-y="20"
     inkscape:window-maximized="0"
     inkscape:current-layer="g14" />
  <g
     fill="none"
     fill-rule="evenodd"
     id="g16">
    <g
       stroke="#788A9B"
       id="g6"
       style="stroke:#57d9a3;stroke-opacity:1">
      <path
         d="M4,0.5 C2.06700338,0.5 0.5,2.06700338 0.5,4 L0.5,52 C0.5,53.9329966 2.06700338,55.5 4,55.5 L38,55.5 C39.9329966,55.5 41.5,53.9329966 41.5,52 L41.5,13.8284271 C41.5,13.4306024 41.3419647,13.0490715 41.0606602,12.767767 L29.232233,0.939339828 C28.9509285,0.658035261 28.5693976,0.5 28.1715729,0.5 L4,0.5 Z"
         id="path2"
         style="stroke:#57d9a3;stroke-opacity:1" />
      <path
         d="M28.5,0.5 L28.5,11.5 C28.5,12.6045695 29.3954305,13.5 30.5,13.5 L41.5,13.5"
         id="path4"
         style="stroke:#57d9a3;stroke-opacity:1" />
    </g>
    <g
       transform="translate(0 26)"
       id="g14">
      <path
         fill="#F1F3F5"
         d="M0,0 L23,0 C24.1045695,-2.02906125e-16 25,0.8954305 25,2 L25,14 C25,15.1045695 24.1045695,16 23,16 L0,16 L0,0 Z"
         id="path8"
         style="fill:#d5f6e8;fill-opacity:1" />
      <g
         aria-label=".GLB"
         id="text12"
         style="font-size:10px;font-family:SourceSansPro-Regular, 'Source Sans Pro';letter-spacing:0.091;fill:#57d9a3">
        <path
           d="m 1.4415978,10.517371 h 1.0302735 v 1.240235 H 1.4415978 Z"
           id="path1117" />
        <path
           d="M 9.5941213,10.717566 V 8.7595587 H 7.9827932 V 7.9490118 h 2.5878908 v 3.1298832 q -0.5712892,0.405273 -1.2597658,0.615234 -0.6884766,0.205078 -1.4697266,0.205078 -1.7089843,0 -2.6757812,-0.996094 -0.9619141,-1.0009762 -0.9619141,-2.7832028 0,-1.7871093 0.9619141,-2.7832031 0.9667969,-1.0009765 2.6757812,-1.0009765 0.7128907,0 1.3525391,0.1757812 0.6445313,0.1757813 1.1865233,0.5175781 V 6.0788946 Q 9.8333791,5.6150274 9.2181448,5.3806524 8.6029104,5.1462774 7.9241995,5.1462774 q -1.3378907,0 -2.0117188,0.7470703 -0.6689453,0.7470704 -0.6689453,2.2265625 0,1.4746094 0.6689453,2.2216798 0.6738281,0.74707 2.0117188,0.74707 0.5224609,0 0.9326171,-0.08789 0.4101563,-0.09277 0.7373047,-0.283204 z"
           id="path1119" />
        <path
           d="m 12.463442,4.4675665 h 0.986328 v 6.4599605 h 3.549805 v 0.830079 h -4.536133 z"
           id="path1121" />
        <path
           d="m 19.112059,8.2761602 v 2.6708988 h 1.582032 q 0.795898,0 1.176758,-0.327149 0.385742,-0.332031 0.385742,-1.0107419 0,-0.6835938 -0.385742,-1.0058594 -0.38086,-0.3271485 -1.176758,-0.3271485 z m 0,-2.9980468 V 7.475379 h 1.459961 q 0.722657,0 1.074219,-0.2685547 0.356445,-0.2734375 0.356445,-0.8300781 0,-0.5517578 -0.356445,-0.8251953 Q 21.294677,5.2781134 20.57202,5.2781134 Z M 18.125731,4.4675665 h 2.519532 q 1.127929,0 1.738281,0.46875 0.610351,0.46875 0.610351,1.3330078 0,0.6689453 -0.3125,1.0644531 -0.3125,0.3955078 -0.917968,0.4931641 0.727539,0.15625 1.127929,0.6542969 0.405274,0.493164 0.405274,1.2353515 0,0.9765621 -0.664063,1.5087891 -0.664062,0.532227 -1.889648,0.532227 h -2.617188 z"
           id="path1123" />
      </g>
    </g>
  </g>
</svg>
