<svg width="40" height="56" viewBox="0 0 40 56" fill="none" xmlns="http://www.w3.org/2000/svg">
    <g clip-path="url(#clip0_965_193123)">
        <path d="M0.5 4C0.5 2.067 2.067 0.5 4 0.5H27.5858C27.7184 0.5 27.8456 0.552678 27.9393 0.646447L39.3536 12.0607C39.4473 12.1544 39.5 12.2816 39.5 12.4142V52C39.5 53.933 37.933 55.5 36 55.5H4C2.067 55.5 0.5 53.933 0.5 52V4Z" fill="white" stroke="#788A9B"/>
        <path d="M28 1V9C28 10.6569 29.3431 12 31 12H39" stroke="#788A9B" stroke-linecap="round"/>
        <path d="M0 28H23C24.1046 28 25 28.8954 25 30V42C25 43.1046 24.1046 44 23 44H0V28Z" fill="#F0F2F5"/>
        <path d="M4.56273 39.62C4.39607 39.62 4.25273 39.5633 4.13273 39.45C4.0194 39.33 3.96273 39.18 3.96273 39C3.96273 38.8067 4.0194 38.6533 4.13273 38.54C4.25273 38.42 4.39607 38.36 4.56273 38.36C4.72273 38.36 4.8594 38.42 4.97273 38.54C5.09273 38.6533 5.15273 38.8067 5.15273 39C5.15273 39.18 5.09273 39.33 4.97273 39.45C4.8594 39.5633 4.72273 39.62 4.56273 39.62ZM9.26297 39.62C8.7163 39.62 8.2263 39.4867 7.79297 39.22C7.3663 38.9467 7.0263 38.5567 6.77297 38.05C6.5263 37.5433 6.40297 36.9333 6.40297 36.22C6.40297 35.5133 6.52964 34.9067 6.78297 34.4C7.0363 33.8933 7.38297 33.5033 7.82297 33.23C8.26297 32.9567 8.75964 32.82 9.31297 32.82C9.71297 32.82 10.0663 32.9033 10.373 33.07C10.6796 33.23 10.9263 33.4167 11.113 33.63L10.663 34.17C10.4896 33.9833 10.293 33.8333 10.073 33.72C9.85297 33.6067 9.60297 33.55 9.32297 33.55C8.90964 33.55 8.5463 33.66 8.23297 33.88C7.9263 34.0933 7.6863 34.3967 7.51297 34.79C7.3463 35.1833 7.26297 35.6533 7.26297 36.2C7.26297 36.7467 7.3463 37.2233 7.51297 37.63C7.67964 38.03 7.91297 38.34 8.21297 38.56C8.51964 38.78 8.87964 38.89 9.29297 38.89C9.6063 38.89 9.8863 38.8233 10.133 38.69C10.3796 38.5567 10.6063 38.3767 10.813 38.15L11.273 38.67C11.013 38.97 10.7196 39.2033 10.393 39.37C10.0663 39.5367 9.68964 39.62 9.26297 39.62ZM14.1517 39.62C13.6917 39.62 13.2651 39.5333 12.8717 39.36C12.4784 39.18 12.1384 38.9433 11.8517 38.65L12.3517 38.07C12.5851 38.3167 12.8584 38.5167 13.1717 38.67C13.4917 38.8167 13.8217 38.89 14.1617 38.89C14.5951 38.89 14.9317 38.7933 15.1717 38.6C15.4117 38.4 15.5317 38.14 15.5317 37.82C15.5317 37.5933 15.4817 37.4133 15.3817 37.28C15.2884 37.1467 15.1584 37.0333 14.9917 36.94C14.8317 36.8467 14.6484 36.7533 14.4417 36.66L13.5017 36.25C13.2951 36.1633 13.0884 36.05 12.8817 35.91C12.6817 35.77 12.5117 35.59 12.3717 35.37C12.2384 35.15 12.1717 34.88 12.1717 34.56C12.1717 34.2267 12.2584 33.93 12.4317 33.67C12.6117 33.4033 12.8584 33.1967 13.1717 33.05C13.4851 32.8967 13.8384 32.82 14.2317 32.82C14.6251 32.82 14.9884 32.8967 15.3217 33.05C15.6551 33.1967 15.9384 33.39 16.1717 33.63L15.7217 34.17C15.5217 33.9767 15.2984 33.8267 15.0517 33.72C14.8117 33.6067 14.5384 33.55 14.2317 33.55C13.8651 33.55 13.5684 33.6367 13.3417 33.81C13.1217 33.9833 13.0117 34.2167 13.0117 34.51C13.0117 34.7167 13.0651 34.89 13.1717 35.03C13.2851 35.1633 13.4251 35.2733 13.5917 35.36C13.7584 35.4467 13.9284 35.5267 14.1017 35.6L15.0317 36C15.2851 36.1067 15.5117 36.2367 15.7117 36.39C15.9184 36.5367 16.0817 36.72 16.2017 36.94C16.3217 37.1533 16.3817 37.4233 16.3817 37.75C16.3817 38.0967 16.2917 38.4133 16.1117 38.7C15.9317 38.98 15.6751 39.2033 15.3417 39.37C15.0084 39.5367 14.6117 39.62 14.1517 39.62ZM18.9535 39.5L16.8535 32.94H17.7435L18.7935 36.48C18.9135 36.8667 19.0168 37.23 19.1035 37.57C19.1968 37.9033 19.3068 38.2633 19.4335 38.65H19.4735C19.5935 38.2633 19.7002 37.9033 19.7935 37.57C19.8868 37.23 19.9902 36.8667 20.1035 36.48L21.1535 32.94H22.0035L19.9235 39.5H18.9535Z" fill="#788A9B"/>
    </g>
    <defs>
        <clipPath id="clip0_965_193123">
            <rect width="40" height="56" fill="white"/>
        </clipPath>
    </defs>
</svg>
