<svg width="40" height="56" viewBox="0 0 40 56" fill="none" xmlns="http://www.w3.org/2000/svg">
    <g clip-path="url(#clip0_965_193182)">
        <path d="M0.5 4C0.5 2.067 2.067 0.5 4 0.5H27.5858C27.7184 0.5 27.8456 0.552678 27.9393 0.646447L39.3536 12.0607C39.4473 12.1544 39.5 12.2816 39.5 12.4142V52C39.5 53.933 37.933 55.5 36 55.5H4C2.067 55.5 0.5 53.933 0.5 52V4Z" fill="white" stroke="#932AEF"/>
        <path d="M28 1V9C28 10.6569 29.3431 12 31 12H39" stroke="#932AEF" stroke-linecap="round"/>
        <path d="M0 28H26C27.1046 28 28 28.8954 28 30V42C28 43.1046 27.1046 44 26 44H0V28Z" fill="#F5EDFD"/>
        <path d="M4.56469 39.62C4.39802 39.62 4.25469 39.5633 4.13469 39.45C4.02135 39.33 3.96469 39.18 3.96469 39C3.96469 38.8067 4.02135 38.6533 4.13469 38.54C4.25469 38.42 4.39802 38.36 4.56469 38.36C4.72469 38.36 4.86135 38.42 4.97469 38.54C5.09469 38.6533 5.15469 38.8067 5.15469 39C5.15469 39.18 5.09469 39.33 4.97469 39.45C4.86135 39.5633 4.72469 39.62 4.56469 39.62ZM6.78492 39.5V32.94H7.78492L9.04492 36.44C9.12492 36.6667 9.20159 36.8967 9.27492 37.13C9.35492 37.3567 9.43492 37.5833 9.51492 37.81H9.55492C9.63492 37.5833 9.70826 37.3567 9.77492 37.13C9.84826 36.8967 9.92492 36.6667 10.0049 36.44L11.2449 32.94H12.2549V39.5H11.4749V35.89C11.4749 35.5967 11.4883 35.2733 11.5149 34.92C11.5416 34.56 11.5649 34.2367 11.5849 33.95H11.5449L11.0249 35.44L9.78492 38.84H9.23492L7.99492 35.44L7.47492 33.95H7.43492C7.45492 34.2367 7.47492 34.56 7.49492 34.92C7.52159 35.2733 7.53492 35.5967 7.53492 35.89V39.5H6.78492ZM16.5505 39.62C16.0039 39.62 15.5172 39.48 15.0905 39.2C14.6705 38.92 14.3405 38.5233 14.1005 38.01C13.8672 37.4967 13.7505 36.89 13.7505 36.19C13.7505 35.49 13.8672 34.89 14.1005 34.39C14.3405 33.8833 14.6705 33.4967 15.0905 33.23C15.5172 32.9567 16.0039 32.82 16.5505 32.82C17.1039 32.82 17.5905 32.9567 18.0105 33.23C18.4305 33.4967 18.7605 33.8833 19.0005 34.39C19.2405 34.89 19.3605 35.49 19.3605 36.19C19.3605 36.89 19.2405 37.4967 19.0005 38.01C18.7605 38.5233 18.4305 38.92 18.0105 39.2C17.5905 39.48 17.1039 39.62 16.5505 39.62ZM16.5505 38.89C16.9439 38.89 17.2839 38.78 17.5705 38.56C17.8639 38.3333 18.0905 38.02 18.2505 37.62C18.4105 37.2133 18.4905 36.7367 18.4905 36.19C18.4905 35.3767 18.3139 34.7333 17.9605 34.26C17.6072 33.7867 17.1372 33.55 16.5505 33.55C15.9639 33.55 15.4939 33.7867 15.1405 34.26C14.7872 34.7333 14.6105 35.3767 14.6105 36.19C14.6105 36.7367 14.6905 37.2133 14.8505 37.62C15.0105 38.02 15.2372 38.3333 15.5305 38.56C15.8239 38.78 16.1639 38.89 16.5505 38.89ZM21.9535 39.5L19.8535 32.94H20.7435L21.7935 36.48C21.9135 36.8667 22.0168 37.23 22.1035 37.57C22.1968 37.9033 22.3068 38.2633 22.4335 38.65H22.4735C22.5935 38.2633 22.7002 37.9033 22.7935 37.57C22.8868 37.23 22.9902 36.8667 23.1035 36.48L24.1535 32.94H25.0035L22.9235 39.5H21.9535Z" fill="#932AEF"/>
    </g>
    <defs>
        <clipPath id="clip0_965_193182">
            <rect width="40" height="56" fill="white"/>
        </clipPath>
    </defs>
</svg>
