<svg width="40" height="56" viewBox="0 0 40 56" fill="none" xmlns="http://www.w3.org/2000/svg">
    <g clip-path="url(#clip0_7604_400443)">
        <path d="M0.5 4C0.5 2.067 2.067 0.5 4 0.5H27.5858C27.7184 0.5 27.8456 0.552678 27.9393 0.646447L39.3536 12.0607C39.4473 12.1544 39.5 12.2816 39.5 12.4142V52C39.5 53.933 37.933 55.5 36 55.5H4C2.067 55.5 0.5 53.933 0.5 52V4Z" fill="white" stroke="#E07F02"/>
        <path d="M28 1V9C28 10.6569 29.3431 12 31 12H39" stroke="#E07F02" stroke-linecap="round"/>
        <path d="M0 28H21C22.1046 28 23 28.8954 23 30V42C23 43.1046 22.1046 44 21 44H0V28Z" fill="#FEF5E6"/>
        <path d="M4.77953 39.62C4.61286 39.62 4.46953 39.5633 4.34953 39.45C4.2362 39.33 4.17953 39.18 4.17953 39C4.17953 38.8067 4.2362 38.6533 4.34953 38.54C4.46953 38.42 4.61286 38.36 4.77953 38.36C4.93953 38.36 5.0762 38.42 5.18953 38.54C5.30953 38.6533 5.36953 38.8067 5.36953 39C5.36953 39.18 5.30953 39.33 5.18953 39.45C5.0762 39.5633 4.93953 39.62 4.77953 39.62ZM9.57977 39.62C9.14643 39.62 8.74643 39.5433 8.37977 39.39C8.01977 39.2367 7.70977 39.0167 7.44977 38.73C7.18977 38.4367 6.98643 38.08 6.83977 37.66C6.6931 37.2333 6.61977 36.7533 6.61977 36.22C6.61977 35.6933 6.6931 35.22 6.83977 34.8C6.9931 34.38 7.2031 34.0233 7.46977 33.73C7.73643 33.4367 8.0531 33.2133 8.41977 33.06C8.7931 32.9 9.19643 32.82 9.62977 32.82C9.85643 32.82 10.0631 32.8433 10.2498 32.89C10.4431 32.9367 10.6164 33 10.7698 33.08C10.9298 33.1533 11.0698 33.24 11.1898 33.34C11.3164 33.4333 11.4264 33.53 11.5198 33.63L11.0598 34.17C10.8931 33.9967 10.6998 33.85 10.4798 33.73C10.2598 33.61 9.9831 33.55 9.64977 33.55C9.31643 33.55 9.01643 33.6133 8.74977 33.74C8.4831 33.86 8.25643 34.0367 8.06977 34.27C7.8831 34.4967 7.73643 34.7733 7.62977 35.1C7.52977 35.4267 7.47977 35.7933 7.47977 36.2C7.47977 36.6133 7.52643 36.9867 7.61977 37.32C7.71977 37.6467 7.85977 37.9267 8.03977 38.16C8.22643 38.3933 8.4531 38.5733 8.71977 38.7C8.9931 38.8267 9.30643 38.89 9.65977 38.89C9.8931 38.89 10.1131 38.8567 10.3198 38.79C10.5331 38.7167 10.7064 38.62 10.8398 38.5V36.79H9.44977V36.1H11.5998V38.86C11.3864 39.08 11.1064 39.2633 10.7598 39.41C10.4131 39.55 10.0198 39.62 9.57977 39.62ZM13.2516 39.5V32.94H14.0816V39.5H13.2516ZM15.9586 39.5V32.94H19.7386V33.64H16.7886V35.86H19.2886V36.56H16.7886V39.5H15.9586Z" fill="#E07F02"/>
    </g>
    <defs>
        <clipPath id="clip0_7604_400443">
            <rect width="40" height="56" fill="white"/>
        </clipPath>
    </defs>
</svg>
