<svg version="1.1" xmlns="http://www.w3.org/2000/svg" xmlns:xlink="http://www.w3.org/1999/xlink" width="495.8571428571429" height="180"><style xmlns="http://www.w3.org/1999/xhtml"></style><defs/><g transform="translate(0,0)"><g><rect fill="#FFFFFF" stroke="none" x="0" y="0" width="495.8571428571429" height="180"/></g><g transform="translate(0,0) matrix(1,0,0,1,20,60)"><g transform="translate(4,4) scale(1.0022222222222221,1.05)"><g><g transform="translate(0,0) scale(4.500000000000001,0.2)"><g><path fill="#000000" stroke="none" d="M 0 0 L 100 0 Q 100 0 100 0 L 100 100 Q 100 100 100 100 L 0 100 Q 0 100 0 100 L 0 0 Q 0 0 0 0 Z" opacity="0.294117647"/><g transform="scale(0.22222222222222218,5)"><path fill="none" stroke="none" d="M 0 0 L 450.0000000000001 0 Q 450.0000000000001 0 450.0000000000001 0 L 450.0000000000001 20 Q 450.0000000000001 20 450.0000000000001 20 L 0 20 Q 0 20 0 20 L 0 0 Q 0 0 0 0 Z"/><path fill="none" stroke="rgb(0,0,0)" d="M 0 0 M 0 0 L 450.0000000000001 0 Q 450.0000000000001 0 450.0000000000001 0 L 450.0000000000001 20 Q 450.0000000000001 20 450.0000000000001 20 L 0 20 Q 0 20 0 20 L 0 0 Q 0 0 0 0 Z" stroke-opacity="0" stroke-miterlimit="10" stroke-width="2" opacity="0.294117647"/></g></g></g></g></g><g><g transform="translate(0,0) scale(4.500000000000001,0.2)"><g><path fill="#FFFFFF" stroke="none" d="M 0 0 L 100 0 Q 100 0 100 0 L 100 100 Q 100 100 100 100 L 0 100 Q 0 100 0 100 L 0 0 Q 0 0 0 0 Z"/><g transform="scale(0.22222222222222218,5)"><path fill="none" stroke="none" d="M 0 0 L 450.0000000000001 0 Q 450.0000000000001 0 450.0000000000001 0 L 450.0000000000001 20 Q 450.0000000000001 20 450.0000000000001 20 L 0 20 Q 0 20 0 20 L 0 0 Q 0 0 0 0 Z"/><path fill="none" stroke="#000000" d="M 0 0 M 0 0 L 450.0000000000001 0 Q 450.0000000000001 0 450.0000000000001 0 L 450.0000000000001 20 Q 450.0000000000001 20 450.0000000000001 20 L 0 20 Q 0 20 0 20 L 0 0 Q 0 0 0 0 Z" stroke-miterlimit="10" stroke-width="2"/></g></g></g></g></g><g transform="matrix(1,0,0,1,34,63)"><g transform="translate(304,0) matrix(1,0,0,1,0,0) translate(-304,0)"><g><rect fill="rgb(0,0,0)" stroke="none" x="0" y="0" width="422" height="14" fill-opacity="0"/></g></g><g transform="translate(304,0) matrix(1,0,0,1,0,0) translate(-304,0)"><g><rect fill="rgb(0,0,0)" stroke="none" x="0" y="0" width="422" height="14" fill-opacity="0"/></g></g><g transform="translate(304,0) matrix(1,0,0,1,0,0) translate(-304,0)"><g><rect fill="rgb(0,0,0)" stroke="none" x="152" y="0" width="118" height="14" fill-opacity="0"/></g></g><g transform="translate(304,0) matrix(1,0,0,1,0,0) translate(-304,0)"><g><rect fill="rgb(0,0,0)" stroke="none" x="152" y="0" width="118" height="14" fill-opacity="0"/></g><text fill="rgb(0, 0, 0)" stroke="none" font-family="Arial" font-size="12px" font-style="normal" font-weight="bold" text-decoration="" line-height="14px" x="152" y="12">Symfony</text><text fill="rgb(0, 0, 0)" stroke="none" font-family="Arial" font-size="12px" font-style="normal" font-weight="bold" text-decoration="" line-height="14px" x="204" y="12">Framework</text></g></g><g transform="translate(0,0) matrix(1,0,0,1,20,100)"><g transform="translate(4,4) scale(1.0022222222222221,1.05)"><g><g transform="translate(0,0) scale(4.500000000000001,0.2)"><g><path fill="#000000" stroke="none" d="M 0 0 L 100 0 Q 100 0 100 0 L 100 100 Q 100 100 100 100 L 0 100 Q 0 100 0 100 L 0 0 Q 0 0 0 0 Z" opacity="0.294117647"/><g transform="scale(0.22222222222222218,5)"><path fill="none" stroke="none" d="M 0 0 L 450.0000000000001 0 Q 450.0000000000001 0 450.0000000000001 0 L 450.0000000000001 20 Q 450.0000000000001 20 450.0000000000001 20 L 0 20 Q 0 20 0 20 L 0 0 Q 0 0 0 0 Z"/><path fill="none" stroke="rgb(0,0,0)" d="M 0 0 M 0 0 L 450.0000000000001 0 Q 450.0000000000001 0 450.0000000000001 0 L 450.0000000000001 20 Q 450.0000000000001 20 450.0000000000001 20 L 0 20 Q 0 20 0 20 L 0 0 Q 0 0 0 0 Z" stroke-opacity="0" stroke-miterlimit="10" stroke-width="2" opacity="0.294117647"/></g></g></g></g></g><g><g transform="translate(0,0) scale(4.500000000000001,0.2)"><g><path fill="#FFFFFF" stroke="none" d="M 0 0 L 100 0 Q 100 0 100 0 L 100 100 Q 100 100 100 100 L 0 100 Q 0 100 0 100 L 0 0 Q 0 0 0 0 Z"/><g transform="scale(0.22222222222222218,5)"><path fill="none" stroke="none" d="M 0 0 L 450.0000000000001 0 Q 450.0000000000001 0 450.0000000000001 0 L 450.0000000000001 20 Q 450.0000000000001 20 450.0000000000001 20 L 0 20 Q 0 20 0 20 L 0 0 Q 0 0 0 0 Z"/><path fill="none" stroke="#000000" d="M 0 0 M 0 0 L 450.0000000000001 0 Q 450.0000000000001 0 450.0000000000001 0 L 450.0000000000001 20 Q 450.0000000000001 20 450.0000000000001 20 L 0 20 Q 0 20 0 20 L 0 0 Q 0 0 0 0 Z" stroke-miterlimit="10" stroke-width="2"/></g></g></g></g></g><g transform="matrix(1,0,0,1,34,103)"><g transform="translate(364,0) matrix(1,0,0,1,0,0) translate(-364,0)"><g><rect fill="rgb(0,0,0)" stroke="none" x="0" y="0" width="422" height="14" fill-opacity="0"/></g></g><g transform="translate(364,0) matrix(1,0,0,1,0,0) translate(-364,0)"><g><rect fill="rgb(0,0,0)" stroke="none" x="0" y="0" width="422" height="14" fill-opacity="0"/></g></g><g transform="translate(364,0) matrix(1,0,0,1,0,0) translate(-364,0)"><g><rect fill="rgb(0,0,0)" stroke="none" x="182" y="0" width="58" height="14" fill-opacity="0"/></g></g><g transform="translate(364,0) matrix(1,0,0,1,0,0) translate(-364,0)"><g><rect fill="rgb(0,0,0)" stroke="none" x="182" y="0" width="58" height="14" fill-opacity="0"/></g><text fill="rgb(0, 0, 0)" stroke="none" font-family="Arial" font-size="12px" font-style="normal" font-weight="bold" text-decoration="" line-height="14px" x="182" y="12">Shopware</text></g></g><g transform="translate(0,0) matrix(1,0,0,1,20,140)"><g transform="translate(4,4) scale(1.0034482758620689,1.05)"><g><g transform="translate(0,0) scale(2.9,0.2)"><g><path fill="#000000" stroke="none" d="M 0 0 L 100 0 Q 100 0 100 0 L 100 100 Q 100 100 100 100 L 0 100 Q 0 100 0 100 L 0 0 Q 0 0 0 0 Z" opacity="0.294117647"/><g transform="scale(0.3448275862068966,5)"><path fill="none" stroke="none" d="M 0 0 L 290 0 Q 290 0 290 0 L 290 20 Q 290 20 290 20 L 0 20 Q 0 20 0 20 L 0 0 Q 0 0 0 0 Z"/><path fill="none" stroke="rgb(0,0,0)" d="M 0 0 M 0 0 L 290 0 Q 290 0 290 0 L 290 20 Q 290 20 290 20 L 0 20 Q 0 20 0 20 L 0 0 Q 0 0 0 0 Z" stroke-opacity="0" stroke-miterlimit="10" stroke-width="2" opacity="0.294117647"/></g></g></g></g></g><g><g transform="translate(0,0) scale(2.9,0.2)"><g><path fill="#FFFFFF" stroke="none" d="M 0 0 L 100 0 Q 100 0 100 0 L 100 100 Q 100 100 100 100 L 0 100 Q 0 100 0 100 L 0 0 Q 0 0 0 0 Z"/><g transform="scale(0.3448275862068966,5)"><path fill="none" stroke="none" d="M 0 0 L 290 0 Q 290 0 290 0 L 290 20 Q 290 20 290 20 L 0 20 Q 0 20 0 20 L 0 0 Q 0 0 0 0 Z"/><path fill="none" stroke="#000000" d="M 0 0 M 0 0 L 290 0 Q 290 0 290 0 L 290 20 Q 290 20 290 20 L 0 20 Q 0 20 0 20 L 0 0 Q 0 0 0 0 Z" stroke-miterlimit="10" stroke-width="2"/></g></g></g></g></g><g transform="matrix(1,0,0,1,32,143)"><g transform="translate(226,0) matrix(1,0,0,1,0,0) translate(-226,0)"><g><rect fill="rgb(0,0,0)" stroke="none" x="0" y="0" width="267" height="14" fill-opacity="0"/></g></g><g transform="translate(226,0) matrix(1,0,0,1,0,0) translate(-226,0)"><g><rect fill="rgb(0,0,0)" stroke="none" x="0" y="0" width="267" height="14" fill-opacity="0"/></g></g><g transform="translate(226,0) matrix(1,0,0,1,0,0) translate(-226,0)"><g><rect fill="rgb(0,0,0)" stroke="none" x="113" y="0" width="41" height="14" fill-opacity="0"/></g></g><g transform="translate(226,0) matrix(1,0,0,1,0,0) translate(-226,0)"><g><rect fill="rgb(0,0,0)" stroke="none" x="113" y="0" width="41" height="14" fill-opacity="0"/></g><text fill="rgb(0, 0, 0)" stroke="none" font-family="Arial" font-size="12px" font-style="normal" font-weight="bold" text-decoration="" line-height="14px" x="113" y="12">MySQL</text></g></g><g transform="translate(0,0) matrix(1,0,0,1,320,140)"><g transform="translate(4,4) scale(1.0066666666666666,1.05)"><g><g transform="translate(0,0) scale(1.5,0.2)"><g><path fill="#000000" stroke="none" d="M 0 0 L 100 0 Q 100 0 100 0 L 100 100 Q 100 100 100 100 L 0 100 Q 0 100 0 100 L 0 0 Q 0 0 0 0 Z" opacity="0.294117647"/><g transform="scale(0.6666666666666666,5)"><path fill="none" stroke="none" d="M 0 0 L 150 0 Q 150 0 150 0 L 150 20 Q 150 20 150 20 L 0 20 Q 0 20 0 20 L 0 0 Q 0 0 0 0 Z"/><path fill="none" stroke="rgb(0,0,0)" d="M 0 0 M 0 0 L 150 0 Q 150 0 150 0 L 150 20 Q 150 20 150 20 L 0 20 Q 0 20 0 20 L 0 0 Q 0 0 0 0 Z" stroke-opacity="0" stroke-miterlimit="10" stroke-width="2" opacity="0.294117647"/></g></g></g></g></g><g><g transform="translate(0,0) scale(1.5,0.2)"><g><path fill="#FFFFFF" stroke="none" d="M 0 0 L 100 0 Q 100 0 100 0 L 100 100 Q 100 100 100 100 L 0 100 Q 0 100 0 100 L 0 0 Q 0 0 0 0 Z"/><g transform="scale(0.6666666666666666,5)"><path fill="none" stroke="none" d="M 0 0 L 150 0 Q 150 0 150 0 L 150 20 Q 150 20 150 20 L 0 20 Q 0 20 0 20 L 0 0 Q 0 0 0 0 Z"/><path fill="none" stroke="#000000" d="M 0 0 M 0 0 L 150 0 Q 150 0 150 0 L 150 20 Q 150 20 150 20 L 0 20 Q 0 20 0 20 L 0 0 Q 0 0 0 0 Z" stroke-miterlimit="10" stroke-width="2"/></g></g></g></g></g><g transform="matrix(1,0,0,1,330,143)"><g transform="translate(48,0) matrix(1,0,0,1,0,0) translate(-48,0)"><g><rect fill="rgb(0,0,0)" stroke="none" x="0" y="0" width="131" height="14" fill-opacity="0"/></g></g><g transform="translate(48,0) matrix(1,0,0,1,0,0) translate(-48,0)"><g><rect fill="rgb(0,0,0)" stroke="none" x="0" y="0" width="131" height="14" fill-opacity="0"/></g></g><g transform="translate(48,0) matrix(1,0,0,1,0,0) translate(-48,0)"><g><rect fill="rgb(0,0,0)" stroke="none" x="24" y="0" width="82" height="14" fill-opacity="0"/></g></g><g transform="translate(48,0) matrix(1,0,0,1,0,0) translate(-48,0)"><g><rect fill="rgb(0,0,0)" stroke="none" x="24" y="0" width="82" height="14" fill-opacity="0"/></g><text fill="rgb(0, 0, 0)" stroke="none" font-family="Arial" font-size="12px" font-style="normal" font-weight="bold" text-decoration="" line-height="14px" x="24" y="12">Elastic</text><text fill="rgb(0, 0, 0)" stroke="none" font-family="Arial" font-size="12px" font-style="normal" font-weight="bold" text-decoration="" line-height="14px" x="65" y="12">Search</text></g></g><g transform="translate(0,0) matrix(1,0,0,1,20,20)"><g transform="translate(4,4) scale(1.0022222222222221,1.05)"><g><g transform="translate(0,0) scale(4.5,0.2)"><g><path fill="#000000" stroke="none" d="M 0 0 L 100 0 Q 100 0 100 0 L 100 100 Q 100 100 100 100 L 0 100 Q 0 100 0 100 L 0 0 Q 0 0 0 0 Z" opacity="0.294117647"/><g transform="scale(0.2222222222222222,5)"><path fill="none" stroke="none" d="M 0 0 L 450 0 Q 450 0 450 0 L 450 20 Q 450 20 450 20 L 0 20 Q 0 20 0 20 L 0 0 Q 0 0 0 0 Z"/><path fill="none" stroke="rgb(0,0,0)" d="M 0 0 M 0 0 L 450 0 Q 450 0 450 0 L 450 20 Q 450 20 450 20 L 0 20 Q 0 20 0 20 L 0 0 Q 0 0 0 0 Z" stroke-opacity="0" stroke-miterlimit="10" stroke-width="2" opacity="0.294117647"/></g></g></g></g></g><g><g transform="translate(0,0) scale(4.5,0.2)"><g><path fill="#FFFFFF" stroke="none" d="M 0 0 L 100 0 Q 100 0 100 0 L 100 100 Q 100 100 100 100 L 0 100 Q 0 100 0 100 L 0 0 Q 0 0 0 0 Z"/><g transform="scale(0.2222222222222222,5)"><path fill="none" stroke="none" d="M 0 0 L 450 0 Q 450 0 450 0 L 450 20 Q 450 20 450 20 L 0 20 Q 0 20 0 20 L 0 0 Q 0 0 0 0 Z"/><path fill="none" stroke="#000000" d="M 0 0 M 0 0 L 450 0 Q 450 0 450 0 L 450 20 Q 450 20 450 20 L 0 20 Q 0 20 0 20 L 0 0 Q 0 0 0 0 Z" stroke-miterlimit="10" stroke-width="2"/></g></g></g></g></g><g transform="matrix(1,0,0,1,34,23)"><g transform="translate(390,0) matrix(1,0,0,1,0,0) translate(-390,0)"><g><rect fill="rgb(0,0,0)" stroke="none" x="0" y="0" width="422" height="14" fill-opacity="0"/></g></g><g transform="translate(390,0) matrix(1,0,0,1,0,0) translate(-390,0)"><g><rect fill="rgb(0,0,0)" stroke="none" x="0" y="0" width="422" height="14" fill-opacity="0"/></g></g><g transform="translate(390,0) matrix(1,0,0,1,0,0) translate(-390,0)"><g><rect fill="rgb(0,0,0)" stroke="none" x="195" y="0" width="32" height="14" fill-opacity="0"/></g></g><g transform="translate(390,0) matrix(1,0,0,1,0,0) translate(-390,0)"><g><rect fill="rgb(0,0,0)" stroke="none" x="195" y="0" width="32" height="14" fill-opacity="0"/></g><text fill="rgb(0, 0, 0)" stroke="none" font-family="Arial" font-size="12px" font-style="normal" font-weight="bold" text-decoration="" line-height="14px" x="195" y="12">HTTP</text></g></g></g></svg>