<svg version="1.1" xmlns="http://www.w3.org/2000/svg" xmlns:xlink="http://www.w3.org/1999/xlink" width="1190" height="440"><style xmlns="http://www.w3.org/1999/xhtml"></style><defs/><g transform="translate(0,0)"><g><rect fill="#FFFFFF" stroke="none" x="0" y="0" width="1190" height="440"/></g><g transform="translate(0,0) matrix(1,0,0,1,20,20)"><g transform="translate(4,4) scale(1.0038461538461538,1.0025)"><g><g transform="translate(0,0) scale(2.6,4)"><g><path fill="#000000" stroke="none" d="M 0 0 L 100 0 Q 100 0 100 0 L 100 100 Q 100 100 100 100 L 0 100 Q 0 100 0 100 L 0 0 Q 0 0 0 0 Z" opacity="0.294117647"/><g transform="scale(0.3846153846153846,0.25)"><path fill="none" stroke="none" d="M 0 0 L 260 0 Q 260 0 260 0 L 260 400 Q 260 400 260 400 L 0 400 Q 0 400 0 400 L 0 0 Q 0 0 0 0 Z"/><path fill="none" stroke="rgb(0,0,0)" d="M 0 0 M 0 0 L 260 0 Q 260 0 260 0 L 260 400 Q 260 400 260 400 L 0 400 Q 0 400 0 400 L 0 0 Q 0 0 0 0 Z" stroke-opacity="0" stroke-miterlimit="10" stroke-width="2" opacity="0.294117647"/></g></g></g></g></g><g><g transform="translate(0,0) scale(2.6,4)"><g><path fill="#FFFFFF" stroke="none" d="M 0 0 L 100 0 Q 100 0 100 0 L 100 100 Q 100 100 100 100 L 0 100 Q 0 100 0 100 L 0 0 Q 0 0 0 0 Z"/><g transform="scale(0.3846153846153846,0.25)"><path fill="none" stroke="none" d="M 0 0 L 260 0 Q 260 0 260 0 L 260 400 Q 260 400 260 400 L 0 400 Q 0 400 0 400 L 0 0 Q 0 0 0 0 Z"/><path fill="none" stroke="#000000" d="M 0 0 M 0 0 L 260 0 Q 260 0 260 0 L 260 400 Q 260 400 260 400 L 0 400 Q 0 400 0 400 L 0 0 Q 0 0 0 0 Z" stroke-miterlimit="10" stroke-width="2"/></g></g></g></g></g><g transform="translate(0,0) matrix(1,0,0,1,309.99999999999994,20)"><g><g transform="translate(0,0) scale(8.600000000000001,4)"><g><path fill="#FFFFFF" stroke="none" d="M 0 0 L 100 0 Q 100 0 100 0 L 100 100 Q 100 100 100 100 L 0 100 Q 0 100 0 100 L 0 0 Q 0 0 0 0 Z"/><g transform="scale(0.11627906976744184,0.25)"><path fill="none" stroke="none" d="M 0 0 L 860.0000000000001 0 Q 860.0000000000001 0 860.0000000000001 0 L 860.0000000000001 400 Q 860.0000000000001 400 860.0000000000001 400 L 0 400 Q 0 400 0 400 L 0 0 Q 0 0 0 0 Z"/><path fill="none" stroke="#333333" d="M 0 0 M 0 0 L 860.0000000000001 0 Q 860.0000000000001 0 860.0000000000001 0 L 860.0000000000001 400 Q 860.0000000000001 400 860.0000000000001 400 L 0 400 Q 0 400 0 400 L 0 0 Q 0 0 0 0 Z" stroke-miterlimit="10" stroke-width="2"/></g></g></g></g></g><g transform="translate(0,0) matrix(1,0,0,1,49.99999999999994,50)"><g transform="translate(4,4) scale(1.0071428571428571,1.0333333333333334)"><g><g transform="translate(0,0) scale(1.4,0.3)"><g><path fill="#000000" stroke="none" d="M 0 0 L 100 0 Q 100 0 100 0 L 100 100 Q 100 100 100 100 L 0 100 Q 0 100 0 100 L 0 0 Q 0 0 0 0 Z" opacity="0.294117647"/><g transform="scale(0.7142857142857143,3.3333333333333335)"><path fill="none" stroke="none" d="M 0 0 L 140 0 Q 140 0 140 0 L 140 30 Q 140 30 140 30 L 0 30 Q 0 30 0 30 L 0 0 Q 0 0 0 0 Z"/><path fill="none" stroke="rgb(0,0,0)" d="M 0 0 M 0 0 L 140 0 Q 140 0 140 0 L 140 30 Q 140 30 140 30 L 0 30 Q 0 30 0 30 L 0 0 Q 0 0 0 0 Z" stroke-opacity="0" stroke-miterlimit="10" stroke-width="2" opacity="0.294117647"/></g></g></g></g></g><g><g transform="translate(0,0) scale(1.4,0.3)"><g><path fill="#FFFFFF" stroke="none" d="M 0 0 L 100 0 Q 100 0 100 0 L 100 100 Q 100 100 100 100 L 0 100 Q 0 100 0 100 L 0 0 Q 0 0 0 0 Z"/><g transform="scale(0.7142857142857143,3.3333333333333335)"><path fill="none" stroke="none" d="M 0 0 L 140 0 Q 140 0 140 0 L 140 30 Q 140 30 140 30 L 0 30 Q 0 30 0 30 L 0 0 Q 0 0 0 0 Z"/><path fill="none" stroke="#000000" d="M 0 0 M 0 0 L 140 0 Q 140 0 140 0 L 140 30 Q 140 30 140 30 L 0 30 Q 0 30 0 30 L 0 0 Q 0 0 0 0 Z" stroke-miterlimit="10" stroke-width="2"/></g></g></g></g></g><g transform="matrix(1,0,0,1,60,58)"><g transform="translate(56,0) matrix(1,0,0,1,0,0) translate(-56,0)"><g><rect fill="rgb(0,0,0)" stroke="none" x="0" y="0" width="121" height="14" fill-opacity="0"/></g></g><g transform="translate(56,0) matrix(1,0,0,1,0,0) translate(-56,0)"><g><rect fill="rgb(0,0,0)" stroke="none" x="0" y="0" width="121" height="14" fill-opacity="0"/></g></g><g transform="translate(56,0) matrix(1,0,0,1,0,0) translate(-56,0)"><g><rect fill="rgb(0,0,0)" stroke="none" x="28" y="0" width="65" height="14" fill-opacity="0"/></g></g><g transform="translate(56,0) matrix(1,0,0,1,0,0) translate(-56,0)"><g><rect fill="rgb(0,0,0)" stroke="none" x="28" y="0" width="65" height="14" fill-opacity="0"/></g><text fill="rgb(0, 0, 0)" stroke="none" font-family="Arial" font-size="12px" font-style="normal" font-weight="bold" text-decoration="" line-height="14px" x="28" y="12">Framework</text></g></g><g transform="translate(0,0) matrix(1,0,0,1,49.99999999999994,110)"><g transform="translate(4,4) scale(1.0071428571428571,1.0333333333333334)"><g><g transform="translate(0,0) scale(1.4,0.3)"><g><path fill="#000000" stroke="none" d="M 0 0 L 100 0 Q 100 0 100 0 L 100 100 Q 100 100 100 100 L 0 100 Q 0 100 0 100 L 0 0 Q 0 0 0 0 Z" opacity="0.294117647"/><g transform="scale(0.7142857142857143,3.3333333333333335)"><path fill="none" stroke="none" d="M 0 0 L 140 0 Q 140 0 140 0 L 140 30 Q 140 30 140 30 L 0 30 Q 0 30 0 30 L 0 0 Q 0 0 0 0 Z"/><path fill="none" stroke="rgb(0,0,0)" d="M 0 0 M 0 0 L 140 0 Q 140 0 140 0 L 140 30 Q 140 30 140 30 L 0 30 Q 0 30 0 30 L 0 0 Q 0 0 0 0 Z" stroke-opacity="0" stroke-miterlimit="10" stroke-width="2" opacity="0.294117647"/></g></g></g></g></g><g><g transform="translate(0,0) scale(1.4,0.3)"><g><path fill="#FFFFFF" stroke="none" d="M 0 0 L 100 0 Q 100 0 100 0 L 100 100 Q 100 100 100 100 L 0 100 Q 0 100 0 100 L 0 0 Q 0 0 0 0 Z"/><g transform="scale(0.7142857142857143,3.3333333333333335)"><path fill="none" stroke="none" d="M 0 0 L 140 0 Q 140 0 140 0 L 140 30 Q 140 30 140 30 L 0 30 Q 0 30 0 30 L 0 0 Q 0 0 0 0 Z"/><path fill="none" stroke="#000000" d="M 0 0 M 0 0 L 140 0 Q 140 0 140 0 L 140 30 Q 140 30 140 30 L 0 30 Q 0 30 0 30 L 0 0 Q 0 0 0 0 Z" stroke-miterlimit="10" stroke-width="2"/></g></g></g></g></g><g transform="matrix(1,0,0,1,60,118)"><g transform="translate(60,0) matrix(1,0,0,1,0,0) translate(-60,0)"><g><rect fill="rgb(0,0,0)" stroke="none" x="0" y="0" width="121" height="14" fill-opacity="0"/></g></g><g transform="translate(60,0) matrix(1,0,0,1,0,0) translate(-60,0)"><g><rect fill="rgb(0,0,0)" stroke="none" x="0" y="0" width="121" height="14" fill-opacity="0"/></g></g><g transform="translate(60,0) matrix(1,0,0,1,0,0) translate(-60,0)"><g><rect fill="rgb(0,0,0)" stroke="none" x="30" y="0" width="61" height="14" fill-opacity="0"/></g></g><g transform="translate(60,0) matrix(1,0,0,1,0,0) translate(-60,0)"><g><rect fill="rgb(0,0,0)" stroke="none" x="30" y="0" width="61" height="14" fill-opacity="0"/></g><text fill="rgb(0, 0, 0)" stroke="none" font-family="Arial" font-size="12px" font-style="normal" font-weight="bold" text-decoration="" line-height="14px" x="30" y="12">StoreFront</text></g></g><g transform="translate(0,0) matrix(1,0,0,1,49.99999999999994,170)"><g transform="translate(4,4) scale(1.0071428571428571,1.0333333333333334)"><g><g transform="translate(0,0) scale(1.4,0.3)"><g><path fill="#000000" stroke="none" d="M 0 0 L 100 0 Q 100 0 100 0 L 100 100 Q 100 100 100 100 L 0 100 Q 0 100 0 100 L 0 0 Q 0 0 0 0 Z" opacity="0.294117647"/><g transform="scale(0.7142857142857143,3.3333333333333335)"><path fill="none" stroke="none" d="M 0 0 L 140 0 Q 140 0 140 0 L 140 30 Q 140 30 140 30 L 0 30 Q 0 30 0 30 L 0 0 Q 0 0 0 0 Z"/><path fill="none" stroke="rgb(0,0,0)" d="M 0 0 M 0 0 L 140 0 Q 140 0 140 0 L 140 30 Q 140 30 140 30 L 0 30 Q 0 30 0 30 L 0 0 Q 0 0 0 0 Z" stroke-opacity="0" stroke-miterlimit="10" stroke-width="2" opacity="0.294117647"/></g></g></g></g></g><g><g transform="translate(0,0) scale(1.4,0.3)"><g><path fill="#FFFFFF" stroke="none" d="M 0 0 L 100 0 Q 100 0 100 0 L 100 100 Q 100 100 100 100 L 0 100 Q 0 100 0 100 L 0 0 Q 0 0 0 0 Z"/><g transform="scale(0.7142857142857143,3.3333333333333335)"><path fill="none" stroke="none" d="M 0 0 L 140 0 Q 140 0 140 0 L 140 30 Q 140 30 140 30 L 0 30 Q 0 30 0 30 L 0 0 Q 0 0 0 0 Z"/><path fill="none" stroke="#000000" d="M 0 0 M 0 0 L 140 0 Q 140 0 140 0 L 140 30 Q 140 30 140 30 L 0 30 Q 0 30 0 30 L 0 0 Q 0 0 0 0 Z" stroke-miterlimit="10" stroke-width="2"/></g></g></g></g></g><g transform="matrix(1,0,0,1,60,178)"><g transform="translate(80,0) matrix(1,0,0,1,0,0) translate(-80,0)"><g><rect fill="rgb(0,0,0)" stroke="none" x="0" y="0" width="121" height="14" fill-opacity="0"/></g></g><g transform="translate(80,0) matrix(1,0,0,1,0,0) translate(-80,0)"><g><rect fill="rgb(0,0,0)" stroke="none" x="0" y="0" width="121" height="14" fill-opacity="0"/></g></g><g transform="translate(80,0) matrix(1,0,0,1,0,0) translate(-80,0)"><g><rect fill="rgb(0,0,0)" stroke="none" x="40" y="0" width="41" height="14" fill-opacity="0"/></g></g><g transform="translate(80,0) matrix(1,0,0,1,0,0) translate(-80,0)"><g><rect fill="rgb(0,0,0)" stroke="none" x="40" y="0" width="41" height="14" fill-opacity="0"/></g><text fill="rgb(0, 0, 0)" stroke="none" font-family="Arial" font-size="12px" font-style="normal" font-weight="bold" text-decoration="" line-height="14px" x="40" y="12">Search</text></g></g><g transform="translate(0,0) matrix(1,0,0,1,49.99999999999994,230)"><g transform="translate(4,4) scale(1.0071428571428571,1.0333333333333334)"><g><g transform="translate(0,0) scale(1.4,0.3)"><g><path fill="#000000" stroke="none" d="M 0 0 L 100 0 Q 100 0 100 0 L 100 100 Q 100 100 100 100 L 0 100 Q 0 100 0 100 L 0 0 Q 0 0 0 0 Z" opacity="0.294117647"/><g transform="scale(0.7142857142857143,3.3333333333333335)"><path fill="none" stroke="none" d="M 0 0 L 140 0 Q 140 0 140 0 L 140 30 Q 140 30 140 30 L 0 30 Q 0 30 0 30 L 0 0 Q 0 0 0 0 Z"/><path fill="none" stroke="rgb(0,0,0)" d="M 0 0 M 0 0 L 140 0 Q 140 0 140 0 L 140 30 Q 140 30 140 30 L 0 30 Q 0 30 0 30 L 0 0 Q 0 0 0 0 Z" stroke-opacity="0" stroke-miterlimit="10" stroke-width="2" opacity="0.294117647"/></g></g></g></g></g><g><g transform="translate(0,0) scale(1.4,0.3)"><g><path fill="#FFFFFF" stroke="none" d="M 0 0 L 100 0 Q 100 0 100 0 L 100 100 Q 100 100 100 100 L 0 100 Q 0 100 0 100 L 0 0 Q 0 0 0 0 Z"/><g transform="scale(0.7142857142857143,3.3333333333333335)"><path fill="none" stroke="none" d="M 0 0 L 140 0 Q 140 0 140 0 L 140 30 Q 140 30 140 30 L 0 30 Q 0 30 0 30 L 0 0 Q 0 0 0 0 Z"/><path fill="none" stroke="#000000" d="M 0 0 M 0 0 L 140 0 Q 140 0 140 0 L 140 30 Q 140 30 140 30 L 0 30 Q 0 30 0 30 L 0 0 Q 0 0 0 0 Z" stroke-miterlimit="10" stroke-width="2"/></g></g></g></g></g><g transform="matrix(1,0,0,1,60,238)"><g transform="translate(108,0) matrix(1,0,0,1,0,0) translate(-108,0)"><g><rect fill="rgb(0,0,0)" stroke="none" x="0" y="0" width="121" height="14" fill-opacity="0"/></g></g><g transform="translate(108,0) matrix(1,0,0,1,0,0) translate(-108,0)"><g><rect fill="rgb(0,0,0)" stroke="none" x="0" y="0" width="121" height="14" fill-opacity="0"/></g></g><g transform="translate(108,0) matrix(1,0,0,1,0,0) translate(-108,0)"><g><rect fill="rgb(0,0,0)" stroke="none" x="54" y="0" width="13" height="14" fill-opacity="0"/></g></g><g transform="translate(108,0) matrix(1,0,0,1,0,0) translate(-108,0)"><g><rect fill="rgb(0,0,0)" stroke="none" x="54" y="0" width="13" height="14" fill-opacity="0"/></g><text fill="rgb(0, 0, 0)" stroke="none" font-family="Arial" font-size="12px" font-style="normal" font-weight="bold" text-decoration="" line-height="14px" x="54" y="12">....</text></g></g><g transform="translate(0,0) matrix(1,0,0,1,400,70)"><g transform="translate(4,4) scale(1.0071428571428571,1.0142857142857142)"><g><g transform="translate(0,0) scale(1.4,0.7)"><g><path fill="#000000" stroke="none" d="M 0 0 L 100 0 Q 100 0 100 0 L 100 100 Q 100 100 100 100 L 0 100 Q 0 100 0 100 L 0 0 Q 0 0 0 0 Z" opacity="0.294117647"/><g transform="scale(0.7142857142857143,1.4285714285714286)"><path fill="none" stroke="none" d="M 0 0 L 140 0 Q 140 0 140 0 L 140 70 Q 140 70 140 70 L 0 70 Q 0 70 0 70 L 0 0 Q 0 0 0 0 Z"/><path fill="none" stroke="rgb(0,0,0)" d="M 0 0 M 0 0 L 140 0 Q 140 0 140 0 L 140 70 Q 140 70 140 70 L 0 70 Q 0 70 0 70 L 0 0 Q 0 0 0 0 Z" stroke-opacity="0" stroke-miterlimit="10" stroke-width="2" opacity="0.294117647"/></g></g></g></g></g><g><g transform="translate(0,0) scale(1.4,0.7)"><g><path fill="#FFFFFF" stroke="none" d="M 0 0 L 100 0 Q 100 0 100 0 L 100 100 Q 100 100 100 100 L 0 100 Q 0 100 0 100 L 0 0 Q 0 0 0 0 Z"/><g transform="scale(0.7142857142857143,1.4285714285714286)"><path fill="none" stroke="none" d="M 0 0 L 140 0 Q 140 0 140 0 L 140 70 Q 140 70 140 70 L 0 70 Q 0 70 0 70 L 0 0 Q 0 0 0 0 Z"/><path fill="none" stroke="#000000" d="M 0 0 M 0 0 L 140 0 Q 140 0 140 0 L 140 70 Q 140 70 140 70 L 0 70 Q 0 70 0 70 L 0 0 Q 0 0 0 0 Z" stroke-miterlimit="10" stroke-width="2"/></g></g></g></g></g><g transform="matrix(1,0,0,1,410,98)"><g transform="translate(76,0) matrix(1,0,0,1,0,0) translate(-76,0)"><g><rect fill="rgb(0,0,0)" stroke="none" x="0" y="0" width="121" height="14" fill-opacity="0"/></g></g><g transform="translate(76,0) matrix(1,0,0,1,0,0) translate(-76,0)"><g><rect fill="rgb(0,0,0)" stroke="none" x="0" y="0" width="121" height="14" fill-opacity="0"/></g></g><g transform="translate(76,0) matrix(1,0,0,1,0,0) translate(-76,0)"><g><rect fill="rgb(0,0,0)" stroke="none" x="38" y="0" width="45" height="14" fill-opacity="0"/></g></g><g transform="translate(76,0) matrix(1,0,0,1,0,0) translate(-76,0)"><g><rect fill="rgb(0,0,0)" stroke="none" x="38" y="0" width="45" height="14" fill-opacity="0"/></g><text fill="rgb(0, 0, 0)" stroke="none" font-family="Arial" font-size="12px" font-style="normal" font-weight="bold" text-decoration="" line-height="14px" x="38" y="12">Product</text></g></g><g transform="translate(0,0) matrix(1,0,0,1,420,190)"><g transform="translate(4,4) scale(1.0071428571428571,1.0142857142857142)"><g><g transform="translate(0,0) scale(1.4,0.7)"><g><path fill="#000000" stroke="none" d="M 0 0 L 100 0 Q 100 0 100 0 L 100 100 Q 100 100 100 100 L 0 100 Q 0 100 0 100 L 0 0 Q 0 0 0 0 Z" opacity="0.294117647"/><g transform="scale(0.7142857142857143,1.4285714285714286)"><path fill="none" stroke="none" d="M 0 0 L 140 0 Q 140 0 140 0 L 140 70 Q 140 70 140 70 L 0 70 Q 0 70 0 70 L 0 0 Q 0 0 0 0 Z"/><path fill="none" stroke="rgb(0,0,0)" d="M 0 0 M 0 0 L 140 0 Q 140 0 140 0 L 140 70 Q 140 70 140 70 L 0 70 Q 0 70 0 70 L 0 0 Q 0 0 0 0 Z" stroke-opacity="0" stroke-miterlimit="10" stroke-width="2" opacity="0.294117647"/></g></g></g></g></g><g><g transform="translate(0,0) scale(1.4,0.7)"><g><path fill="#FFFFFF" stroke="none" d="M 0 0 L 100 0 Q 100 0 100 0 L 100 100 Q 100 100 100 100 L 0 100 Q 0 100 0 100 L 0 0 Q 0 0 0 0 Z"/><g transform="scale(0.7142857142857143,1.4285714285714286)"><path fill="none" stroke="none" d="M 0 0 L 140 0 Q 140 0 140 0 L 140 70 Q 140 70 140 70 L 0 70 Q 0 70 0 70 L 0 0 Q 0 0 0 0 Z"/><path fill="none" stroke="#000000" d="M 0 0 M 0 0 L 140 0 Q 140 0 140 0 L 140 70 Q 140 70 140 70 L 0 70 Q 0 70 0 70 L 0 0 Q 0 0 0 0 Z" stroke-miterlimit="10" stroke-width="2"/></g></g></g></g></g><g transform="matrix(1,0,0,1,430,218)"><g transform="translate(44,0) matrix(1,0,0,1,0,0) translate(-44,0)"><g><rect fill="rgb(0,0,0)" stroke="none" x="0" y="0" width="121" height="14" fill-opacity="0"/></g></g><g transform="translate(44,0) matrix(1,0,0,1,0,0) translate(-44,0)"><g><rect fill="rgb(0,0,0)" stroke="none" x="0" y="0" width="121" height="14" fill-opacity="0"/></g></g><g transform="translate(44,0) matrix(1,0,0,1,0,0) translate(-44,0)"><g><rect fill="rgb(0,0,0)" stroke="none" x="22" y="0" width="78" height="14" fill-opacity="0"/></g></g><g transform="translate(44,0) matrix(1,0,0,1,0,0) translate(-44,0)"><g><rect fill="rgb(0,0,0)" stroke="none" x="22" y="0" width="78" height="14" fill-opacity="0"/></g><text fill="rgb(0, 0, 0)" stroke="none" font-family="Arial" font-size="12px" font-style="normal" font-weight="bold" text-decoration="" line-height="14px" x="22" y="12">ProductDetail</text></g></g><g transform="translate(0,0) matrix(1,0,0,1,710,70)"><g transform="translate(4,4) scale(1.0071428571428571,1.0142857142857142)"><g><g transform="translate(0,0) scale(1.4,0.7)"><g><path fill="#000000" stroke="none" d="M 0 0 L 100 0 Q 100 0 100 0 L 100 100 Q 100 100 100 100 L 0 100 Q 0 100 0 100 L 0 0 Q 0 0 0 0 Z" opacity="0.294117647"/><g transform="scale(0.7142857142857143,1.4285714285714286)"><path fill="none" stroke="none" d="M 0 0 L 140 0 Q 140 0 140 0 L 140 70 Q 140 70 140 70 L 0 70 Q 0 70 0 70 L 0 0 Q 0 0 0 0 Z"/><path fill="none" stroke="rgb(0,0,0)" d="M 0 0 M 0 0 L 140 0 Q 140 0 140 0 L 140 70 Q 140 70 140 70 L 0 70 Q 0 70 0 70 L 0 0 Q 0 0 0 0 Z" stroke-opacity="0" stroke-miterlimit="10" stroke-width="2" opacity="0.294117647"/></g></g></g></g></g><g><g transform="translate(0,0) scale(1.4,0.7)"><g><path fill="#FFFFFF" stroke="none" d="M 0 0 L 100 0 Q 100 0 100 0 L 100 100 Q 100 100 100 100 L 0 100 Q 0 100 0 100 L 0 0 Q 0 0 0 0 Z"/><g transform="scale(0.7142857142857143,1.4285714285714286)"><path fill="none" stroke="none" d="M 0 0 L 140 0 Q 140 0 140 0 L 140 70 Q 140 70 140 70 L 0 70 Q 0 70 0 70 L 0 0 Q 0 0 0 0 Z"/><path fill="none" stroke="#000000" d="M 0 0 M 0 0 L 140 0 Q 140 0 140 0 L 140 70 Q 140 70 140 70 L 0 70 Q 0 70 0 70 L 0 0 Q 0 0 0 0 Z" stroke-miterlimit="10" stroke-width="2"/></g></g></g></g></g><g transform="matrix(1,0,0,1,720,98)"><g transform="translate(98,0) matrix(1,0,0,1,0,0) translate(-98,0)"><g><rect fill="rgb(0,0,0)" stroke="none" x="0" y="0" width="121" height="14" fill-opacity="0"/></g></g><g transform="translate(98,0) matrix(1,0,0,1,0,0) translate(-98,0)"><g><rect fill="rgb(0,0,0)" stroke="none" x="0" y="0" width="121" height="14" fill-opacity="0"/></g></g><g transform="translate(98,0) matrix(1,0,0,1,0,0) translate(-98,0)"><g><rect fill="rgb(0,0,0)" stroke="none" x="49" y="0" width="24" height="14" fill-opacity="0"/></g></g><g transform="translate(98,0) matrix(1,0,0,1,0,0) translate(-98,0)"><g><rect fill="rgb(0,0,0)" stroke="none" x="49" y="0" width="24" height="14" fill-opacity="0"/></g><text fill="rgb(0, 0, 0)" stroke="none" font-family="Arial" font-size="12px" font-style="normal" font-weight="bold" text-decoration="" line-height="14px" x="49" y="12">Cart</text></g></g><g transform="translate(0,0) matrix(1,0,0,1,740,220)"><g transform="translate(4,4) scale(1.0071428571428571,1.0142857142857142)"><g><g transform="translate(0,0) scale(1.4,0.7)"><g><path fill="#000000" stroke="none" d="M 0 0 L 100 0 Q 100 0 100 0 L 100 100 Q 100 100 100 100 L 0 100 Q 0 100 0 100 L 0 0 Q 0 0 0 0 Z" opacity="0.294117647"/><g transform="scale(0.7142857142857143,1.4285714285714286)"><path fill="none" stroke="none" d="M 0 0 L 140 0 Q 140 0 140 0 L 140 70 Q 140 70 140 70 L 0 70 Q 0 70 0 70 L 0 0 Q 0 0 0 0 Z"/><path fill="none" stroke="rgb(0,0,0)" d="M 0 0 M 0 0 L 140 0 Q 140 0 140 0 L 140 70 Q 140 70 140 70 L 0 70 Q 0 70 0 70 L 0 0 Q 0 0 0 0 Z" stroke-opacity="0" stroke-miterlimit="10" stroke-width="2" opacity="0.294117647"/></g></g></g></g></g><g><g transform="translate(0,0) scale(1.4,0.7)"><g><path fill="#FFFFFF" stroke="none" d="M 0 0 L 100 0 Q 100 0 100 0 L 100 100 Q 100 100 100 100 L 0 100 Q 0 100 0 100 L 0 0 Q 0 0 0 0 Z"/><g transform="scale(0.7142857142857143,1.4285714285714286)"><path fill="none" stroke="none" d="M 0 0 L 140 0 Q 140 0 140 0 L 140 70 Q 140 70 140 70 L 0 70 Q 0 70 0 70 L 0 0 Q 0 0 0 0 Z"/><path fill="none" stroke="#000000" d="M 0 0 M 0 0 L 140 0 Q 140 0 140 0 L 140 70 Q 140 70 140 70 L 0 70 Q 0 70 0 70 L 0 0 Q 0 0 0 0 Z" stroke-miterlimit="10" stroke-width="2"/></g></g></g></g></g><g transform="matrix(1,0,0,1,750,248)"><g transform="translate(60,0) matrix(1,0,0,1,0,0) translate(-60,0)"><g><rect fill="rgb(0,0,0)" stroke="none" x="0" y="0" width="121" height="14" fill-opacity="0"/></g></g><g transform="translate(60,0) matrix(1,0,0,1,0,0) translate(-60,0)"><g><rect fill="rgb(0,0,0)" stroke="none" x="0" y="0" width="121" height="14" fill-opacity="0"/></g></g><g transform="translate(60,0) matrix(1,0,0,1,0,0) translate(-60,0)"><g><rect fill="rgb(0,0,0)" stroke="none" x="30" y="0" width="62" height="14" fill-opacity="0"/></g></g><g transform="translate(60,0) matrix(1,0,0,1,0,0) translate(-60,0)"><g><rect fill="rgb(0,0,0)" stroke="none" x="30" y="0" width="62" height="14" fill-opacity="0"/></g><text fill="rgb(0, 0, 0)" stroke="none" font-family="Arial" font-size="12px" font-style="normal" font-weight="bold" text-decoration="" line-height="14px" x="30" y="12">CartBridge</text></g></g><g transform="translate(0,0) matrix(1,0,0,1,950,110)"><g transform="translate(4,4) scale(1.0071428571428571,1.0142857142857142)"><g><g transform="translate(0,0) scale(1.4,0.7)"><g><path fill="#000000" stroke="none" d="M 0 0 L 100 0 Q 100 0 100 0 L 100 100 Q 100 100 100 100 L 0 100 Q 0 100 0 100 L 0 0 Q 0 0 0 0 Z" opacity="0.294117647"/><g transform="scale(0.7142857142857143,1.4285714285714286)"><path fill="none" stroke="none" d="M 0 0 L 140 0 Q 140 0 140 0 L 140 70 Q 140 70 140 70 L 0 70 Q 0 70 0 70 L 0 0 Q 0 0 0 0 Z"/><path fill="none" stroke="rgb(0,0,0)" d="M 0 0 M 0 0 L 140 0 Q 140 0 140 0 L 140 70 Q 140 70 140 70 L 0 70 Q 0 70 0 70 L 0 0 Q 0 0 0 0 Z" stroke-opacity="0" stroke-miterlimit="10" stroke-width="2" opacity="0.294117647"/></g></g></g></g></g><g><g transform="translate(0,0) scale(1.4,0.7)"><g><path fill="#FFFFFF" stroke="none" d="M 0 0 L 100 0 Q 100 0 100 0 L 100 100 Q 100 100 100 100 L 0 100 Q 0 100 0 100 L 0 0 Q 0 0 0 0 Z"/><g transform="scale(0.7142857142857143,1.4285714285714286)"><path fill="none" stroke="none" d="M 0 0 L 140 0 Q 140 0 140 0 L 140 70 Q 140 70 140 70 L 0 70 Q 0 70 0 70 L 0 0 Q 0 0 0 0 Z"/><path fill="none" stroke="#000000" d="M 0 0 M 0 0 L 140 0 Q 140 0 140 0 L 140 70 Q 140 70 140 70 L 0 70 Q 0 70 0 70 L 0 0 Q 0 0 0 0 Z" stroke-miterlimit="10" stroke-width="2"/></g></g></g></g></g><g transform="matrix(1,0,0,1,960,138)"><g transform="translate(70,0) matrix(1,0,0,1,0,0) translate(-70,0)"><g><rect fill="rgb(0,0,0)" stroke="none" x="0" y="0" width="121" height="14" fill-opacity="0"/></g></g><g transform="translate(70,0) matrix(1,0,0,1,0,0) translate(-70,0)"><g><rect fill="rgb(0,0,0)" stroke="none" x="0" y="0" width="121" height="14" fill-opacity="0"/></g></g><g transform="translate(70,0) matrix(1,0,0,1,0,0) translate(-70,0)"><g><rect fill="rgb(0,0,0)" stroke="none" x="35" y="0" width="52" height="14" fill-opacity="0"/></g></g><g transform="translate(70,0) matrix(1,0,0,1,0,0) translate(-70,0)"><g><rect fill="rgb(0,0,0)" stroke="none" x="35" y="0" width="52" height="14" fill-opacity="0"/></g><text fill="rgb(0, 0, 0)" stroke="none" font-family="Arial" font-size="12px" font-style="normal" font-weight="bold" text-decoration="" line-height="14px" x="35" y="12">Category</text></g></g><g transform="translate(0,0) matrix(1,0,0,1,990,230)"><g transform="translate(4,4) scale(1.0071428571428571,1.0142857142857142)"><g><g transform="translate(0,0) scale(1.4,0.7)"><g><path fill="#000000" stroke="none" d="M 0 0 L 100 0 Q 100 0 100 0 L 100 100 Q 100 100 100 100 L 0 100 Q 0 100 0 100 L 0 0 Q 0 0 0 0 Z" opacity="0.294117647"/><g transform="scale(0.7142857142857143,1.4285714285714286)"><path fill="none" stroke="none" d="M 0 0 L 140 0 Q 140 0 140 0 L 140 70 Q 140 70 140 70 L 0 70 Q 0 70 0 70 L 0 0 Q 0 0 0 0 Z"/><path fill="none" stroke="rgb(0,0,0)" d="M 0 0 M 0 0 L 140 0 Q 140 0 140 0 L 140 70 Q 140 70 140 70 L 0 70 Q 0 70 0 70 L 0 0 Q 0 0 0 0 Z" stroke-opacity="0" stroke-miterlimit="10" stroke-width="2" opacity="0.294117647"/></g></g></g></g></g><g><g transform="translate(0,0) scale(1.4,0.7)"><g><path fill="#FFFFFF" stroke="none" d="M 0 0 L 100 0 Q 100 0 100 0 L 100 100 Q 100 100 100 100 L 0 100 Q 0 100 0 100 L 0 0 Q 0 0 0 0 Z"/><g transform="scale(0.7142857142857143,1.4285714285714286)"><path fill="none" stroke="none" d="M 0 0 L 140 0 Q 140 0 140 0 L 140 70 Q 140 70 140 70 L 0 70 Q 0 70 0 70 L 0 0 Q 0 0 0 0 Z"/><path fill="none" stroke="#000000" d="M 0 0 M 0 0 L 140 0 Q 140 0 140 0 L 140 70 Q 140 70 140 70 L 0 70 Q 0 70 0 70 L 0 0 Q 0 0 0 0 Z" stroke-miterlimit="10" stroke-width="2"/></g></g></g></g></g><g transform="matrix(1,0,0,1,1000,258)"><g transform="translate(74,0) matrix(1,0,0,1,0,0) translate(-74,0)"><g><rect fill="rgb(0,0,0)" stroke="none" x="0" y="0" width="121" height="14" fill-opacity="0"/></g></g><g transform="translate(74,0) matrix(1,0,0,1,0,0) translate(-74,0)"><g><rect fill="rgb(0,0,0)" stroke="none" x="0" y="0" width="121" height="14" fill-opacity="0"/></g></g><g transform="translate(74,0) matrix(1,0,0,1,0,0) translate(-74,0)"><g><rect fill="rgb(0,0,0)" stroke="none" x="37" y="0" width="47" height="14" fill-opacity="0"/></g></g><g transform="translate(74,0) matrix(1,0,0,1,0,0) translate(-74,0)"><g><rect fill="rgb(0,0,0)" stroke="none" x="37" y="0" width="47" height="14" fill-opacity="0"/></g><text fill="rgb(0, 0, 0)" stroke="none" font-family="Arial" font-size="12px" font-style="normal" font-weight="bold" text-decoration="" line-height="14px" x="37" y="12">Emotion</text></g></g><g transform="translate(0,0) matrix(1,0,0,1,540,320)"><g transform="translate(4,4) scale(1.0071428571428571,1.0142857142857142)"><g><g transform="translate(0,0) scale(1.4,0.7)"><g><path fill="#000000" stroke="none" d="M 0 0 L 100 0 Q 100 0 100 0 L 100 100 Q 100 100 100 100 L 0 100 Q 0 100 0 100 L 0 0 Q 0 0 0 0 Z" opacity="0.294117647"/><g transform="scale(0.7142857142857143,1.4285714285714286)"><path fill="none" stroke="none" d="M 0 0 L 140 0 Q 140 0 140 0 L 140 70 Q 140 70 140 70 L 0 70 Q 0 70 0 70 L 0 0 Q 0 0 0 0 Z"/><path fill="none" stroke="rgb(0,0,0)" d="M 0 0 M 0 0 L 140 0 Q 140 0 140 0 L 140 70 Q 140 70 140 70 L 0 70 Q 0 70 0 70 L 0 0 Q 0 0 0 0 Z" stroke-opacity="0" stroke-miterlimit="10" stroke-width="2" opacity="0.294117647"/></g></g></g></g></g><g><g transform="translate(0,0) scale(1.4,0.7)"><g><path fill="#FFFFFF" stroke="none" d="M 0 0 L 100 0 Q 100 0 100 0 L 100 100 Q 100 100 100 100 L 0 100 Q 0 100 0 100 L 0 0 Q 0 0 0 0 Z"/><g transform="scale(0.7142857142857143,1.4285714285714286)"><path fill="none" stroke="none" d="M 0 0 L 140 0 Q 140 0 140 0 L 140 70 Q 140 70 140 70 L 0 70 Q 0 70 0 70 L 0 0 Q 0 0 0 0 Z"/><path fill="none" stroke="#000000" d="M 0 0 M 0 0 L 140 0 Q 140 0 140 0 L 140 70 Q 140 70 140 70 L 0 70 Q 0 70 0 70 L 0 0 Q 0 0 0 0 Z" stroke-miterlimit="10" stroke-width="2"/></g></g></g></g></g><g transform="matrix(1,0,0,1,550,348)"><g transform="translate(102,0) matrix(1,0,0,1,0,0) translate(-102,0)"><g><rect fill="rgb(0,0,0)" stroke="none" x="0" y="0" width="121" height="14" fill-opacity="0"/></g></g><g transform="translate(102,0) matrix(1,0,0,1,0,0) translate(-102,0)"><g><rect fill="rgb(0,0,0)" stroke="none" x="0" y="0" width="121" height="14" fill-opacity="0"/></g></g><g transform="translate(102,0) matrix(1,0,0,1,0,0) translate(-102,0)"><g><rect fill="rgb(0,0,0)" stroke="none" x="51" y="0" width="19" height="14" fill-opacity="0"/></g></g><g transform="translate(102,0) matrix(1,0,0,1,0,0) translate(-102,0)"><g><rect fill="rgb(0,0,0)" stroke="none" x="51" y="0" width="19" height="14" fill-opacity="0"/></g><text fill="rgb(0, 0, 0)" stroke="none" font-family="Arial" font-size="12px" font-style="normal" font-weight="bold" text-decoration="" line-height="14px" x="51" y="12">Tax</text></g></g><g transform="translate(0,0) matrix(1,0,0,1,830,320)"><g transform="translate(4,4) scale(1.0071428571428571,1.0142857142857142)"><g><g transform="translate(0,0) scale(1.4,0.7)"><g><path fill="#000000" stroke="none" d="M 0 0 L 100 0 Q 100 0 100 0 L 100 100 Q 100 100 100 100 L 0 100 Q 0 100 0 100 L 0 0 Q 0 0 0 0 Z" opacity="0.294117647"/><g transform="scale(0.7142857142857143,1.4285714285714286)"><path fill="none" stroke="none" d="M 0 0 L 140 0 Q 140 0 140 0 L 140 70 Q 140 70 140 70 L 0 70 Q 0 70 0 70 L 0 0 Q 0 0 0 0 Z"/><path fill="none" stroke="rgb(0,0,0)" d="M 0 0 M 0 0 L 140 0 Q 140 0 140 0 L 140 70 Q 140 70 140 70 L 0 70 Q 0 70 0 70 L 0 0 Q 0 0 0 0 Z" stroke-opacity="0" stroke-miterlimit="10" stroke-width="2" opacity="0.294117647"/></g></g></g></g></g><g><g transform="translate(0,0) scale(1.4,0.7)"><g><path fill="#FFFFFF" stroke="none" d="M 0 0 L 100 0 Q 100 0 100 0 L 100 100 Q 100 100 100 100 L 0 100 Q 0 100 0 100 L 0 0 Q 0 0 0 0 Z"/><g transform="scale(0.7142857142857143,1.4285714285714286)"><path fill="none" stroke="none" d="M 0 0 L 140 0 Q 140 0 140 0 L 140 70 Q 140 70 140 70 L 0 70 Q 0 70 0 70 L 0 0 Q 0 0 0 0 Z"/><path fill="none" stroke="#000000" d="M 0 0 M 0 0 L 140 0 Q 140 0 140 0 L 140 70 Q 140 70 140 70 L 0 70 Q 0 70 0 70 L 0 0 Q 0 0 0 0 Z" stroke-miterlimit="10" stroke-width="2"/></g></g></g></g></g><g transform="matrix(1,0,0,1,840,348)"><g transform="translate(108,0) matrix(1,0,0,1,0,0) translate(-108,0)"><g><rect fill="rgb(0,0,0)" stroke="none" x="0" y="0" width="121" height="14" fill-opacity="0"/></g></g><g transform="translate(108,0) matrix(1,0,0,1,0,0) translate(-108,0)"><g><rect fill="rgb(0,0,0)" stroke="none" x="0" y="0" width="121" height="14" fill-opacity="0"/></g></g><g transform="translate(108,0) matrix(1,0,0,1,0,0) translate(-108,0)"><g><rect fill="rgb(0,0,0)" stroke="none" x="54" y="0" width="13" height="14" fill-opacity="0"/></g></g><g transform="translate(108,0) matrix(1,0,0,1,0,0) translate(-108,0)"><g><rect fill="rgb(0,0,0)" stroke="none" x="54" y="0" width="13" height="14" fill-opacity="0"/></g><text fill="rgb(0, 0, 0)" stroke="none" font-family="Arial" font-size="12px" font-style="normal" font-weight="bold" text-decoration="" line-height="14px" x="54" y="12">....</text></g></g></g></svg>